<svg xmlns="http://www.w3.org/2000/svg" width="24" height="24" viewBox="0 0 24 24" fill="none">
  <path fill-rule="evenodd" clip-rule="evenodd" d="M5.00009 5C4.73488 5 4.48052 5.10536 4.29298 5.2929C4.10545 5.48043 4.00009 5.73478 4.00009 6L4 18C4 18.2652 4.10536 18.5196 4.29289 18.7071C4.48043 18.8946 4.73479 19 5 19H18.9999C19.2651 19 19.5195 18.8946 19.707 18.7071C19.8946 18.5196 19.9999 18.2652 19.9999 18L20 9C20 8.73478 19.8946 8.48043 19.7071 8.2929C19.5196 8.10536 19.2652 8 19 8H11C10.6656 8 10.3534 7.83289 10.1679 7.55468L8.4649 5H5.00009ZM2.87878 3.87868C3.44138 3.31607 4.20444 3 5.00009 3H9.00009C9.33445 3 9.64669 3.16711 9.83216 3.44532L11.5352 6H19C19.7957 6 20.5587 6.31607 21.1213 6.87868C21.6839 7.44129 22 8.20436 22 9L21.9999 18C21.9999 18.7957 21.6838 19.5587 21.1212 20.1213C20.5586 20.6839 19.7956 21 18.9999 21H5C4.20435 21 3.44129 20.6839 2.87868 20.1213C2.31607 19.5587 2 18.7956 2 18L2.00009 6C2.00009 6 2.00009 6 2.00009 6C2.0001 5.20436 2.31616 4.44129 2.87878 3.87868Z" fill="currentColor"/>
</svg>