<svg xmlns="http://www.w3.org/2000/svg" width="24" height="21" viewBox="0 0 24 21">
  <g fill="none" fill-rule="evenodd">
    <path fill="#CCE4FF" stroke="#7DAEE8" stroke-linecap="round" stroke-linejoin="round" d="M23.5,5.1 C23.5,4.2536 22.8130667,3.56666667 21.9666667,3.56666667 L12.5540771,3.5 L10.8413086,1.31677246 C10.5520197,0.930372461 9.97553088,0.5 9.49304199,0.5 L2.03333333,0.5 C1.18693333,0.5 0.5,1.18693333 0.5,2.03333333 L0.5,18.9 C0.5,19.7464 1.18693333,20.4333333 2.03333333,20.4333333 L21.9666667,20.4333333 C22.8130667,20.4333333 23.5,19.7464 23.5,18.9 L23.5,5.1 Z"/>
    <path fill="#B1CEF1" d="M1.05557251,1.45269775 C1.11981614,1.28196625 1.26795864,1.131067 1.5,1 C6.01889568,0.981807136 8.69024171,0.981807136 9.51403809,1 C9.96909938,1.01004965 10.130613,1.20034483 10.1570435,1.22824097 C10.5279541,1.61972046 11.0117391,2.2103068 11.6083984,3 L1,3 C0.972804709,2.13919667 0.991328879,1.62342925 1.05557251,1.45269775 Z"/>
    <path stroke="#7DAEE8" stroke-linecap="square" d="M1.5,3.5 L12.5,3.5"/>
  </g>
</svg>