<svg xmlns="http://www.w3.org/2000/svg" width="24" height="24" viewBox="0 0 24 24" fill="none">
  <path d="M14.5 4L14.6233 4.00391C14.9095 4.02206 15.1786 4.10306 15.3838 4.23438L21.6338 8.23438C21.8682 8.3844 22 8.58783 22 8.8V19.2C22 19.6418 21.4404 20 20.75 20H3.25C2.55964 20 2 19.6418 2 19.2V4.8C2 4.35817 2.55964 4 3.25 4H14.5ZM4 18H20V10H16C15.661 10 15.3287 10 15 10C13.8954 10 13 9.10457 13 8V6.00052H4V18ZM15 8C15 8 15 8 15.5 8C16 8 15.7815 8 16 8H18.056L15 6.00052V8Z" fill="currentColor"/>
</svg>