<svg xmlns="http://www.w3.org/2000/svg" width="20" height="20" viewBox="0 0 20 20">
    <g fill="none" fill-rule="evenodd" stroke="currentColor" stroke-width="1.25">
        <path stroke-linecap="round" stroke-linejoin="round" d="M7.5 7.5c0-1.271.955-2.34 2.218-2.484 1.263-.143 2.433.684 2.718 1.923.286 1.239-.404 2.495-1.603 2.918-.5.177-.833.65-.833 1.18v.838M10 14.375c-.173 0-.313.14-.313.313 0 .172.14.312.313.312s.313-.14.313-.313c0-.172-.14-.312-.313-.312h0"/>
        <path d="M.625 10c0 5.178 4.197 9.375 9.375 9.375s9.375-4.197 9.375-9.375S15.178.625 10 .625.625 4.822.625 10z"/>
    </g>
</svg>
