<svg width="20" height="20" viewBox="0 0 20 20" fill="none" xmlns="http://www.w3.org/2000/svg">
<path fill="currentColor" fill-rule="evenodd" clip-rule="evenodd" d="M10.8334 4.16665C10.8334 3.70641 10.4603 3.33331 10.0001 3.33331C9.53984 3.33331 9.16675 3.70641 9.16675 4.16665V9.16669H4.16659C3.70635 9.16669 3.33325 9.53978 3.33325 10C3.33325 10.4603 3.70635 10.8334 4.16659 10.8334H9.16675V15.8333C9.16675 16.2935 9.53984 16.6666 10.0001 16.6666C10.4603 16.6666 10.8334 16.2935 10.8334 15.8333V10.8334H15.8333C16.2935 10.8334 16.6666 10.4603 16.6666 10C16.6666 9.53978 16.2935 9.16669 15.8333 9.16669H10.8334V4.16665Z"/>
</svg>
