<svg width="69" height="18" viewBox="0 0 59 18" fill="none" xmlns="http://www.w3.org/2000/svg">
<g clip-path="url(#clip0_132_7792)">
<path d="M13.7434 11.5559C14.0539 11.5559 14.3533 11.6114 14.6305 11.7112C15.074 11.2011 15.3069 10.6466 15.3069 10.07C15.3069 9.12748 14.6637 8.21821 13.5105 7.50853C12.2686 6.7545 10.6053 6.33313 8.84216 6.33313C7.06797 6.33313 5.40466 6.7545 4.17381 7.50853C3.0095 8.21821 2.37744 9.12748 2.37744 10.07C2.37744 10.6466 2.6103 11.2011 3.05385 11.7112C3.33107 11.6114 3.63047 11.5559 3.94095 11.5559C4.63954 11.5559 5.29377 11.822 5.78168 12.321C6.12543 12.6648 6.35829 13.0862 6.46918 13.5519C7.21212 13.7293 8.01051 13.818 8.84216 13.818C9.67381 13.818 10.4611 13.7293 11.2151 13.5519C11.326 13.0972 11.5589 12.6648 11.9026 12.321C12.3905 11.8331 13.0448 11.5559 13.7434 11.5559ZM8.84216 9.38253C8.04377 9.38253 7.38954 8.72829 7.38954 7.9299H10.2948C10.2948 8.72829 9.64055 9.38253 8.84216 9.38253Z" fill="#303030"/>
<path d="M3.808 6.83209C3.95215 6.74338 4.0963 6.66576 4.24046 6.58814H4.22937C3.86344 6.31092 3.43098 6.17786 2.99852 6.17786C2.37755 6.17786 1.76767 6.45507 1.36848 6.98733L1.20215 7.2202L2.35537 8.08511C2.7213 7.61939 3.20921 7.19802 3.808 6.83209Z" fill="#303030"/>
<path d="M2.37754 12.0771C1.98943 11.5781 1.74548 11.0348 1.67895 10.4692C1.65677 10.3362 1.64568 10.2031 1.64568 10.07C1.64568 9.40471 1.86746 8.77266 2.27774 8.19604H2.13358C1.00254 8.19604 0.0932617 9.11641 0.0932617 10.2364V10.5247H1.61242C1.21322 10.8573 0.958181 11.312 0.891649 11.8221C0.814028 12.3654 0.958181 12.8977 1.29084 13.3301L1.41282 13.4964C1.52371 13.0529 1.75657 12.6537 2.08923 12.321C2.17794 12.2323 2.27774 12.1547 2.37754 12.0771Z" fill="#303030"/>
<path d="M15.3182 8.08511L16.4714 7.2202L16.3051 6.98733C15.9059 6.45507 15.296 6.17786 14.675 6.17786C14.2426 6.17786 13.8212 6.31092 13.4442 6.58814H13.4331C13.5773 6.66576 13.7325 6.74338 13.8656 6.83209C14.4754 7.19802 14.9633 7.61939 15.3182 8.08511Z" fill="#303030"/>
<path d="M17.5913 10.2364C17.5913 9.10532 16.6709 8.19604 15.5509 8.19604H15.3957C15.8171 8.77266 16.0278 9.4158 16.0278 10.07C16.0278 10.2031 16.0167 10.3362 15.9945 10.4692C15.9169 11.0348 15.6729 11.5781 15.2959 12.0771C15.3957 12.1547 15.4955 12.2323 15.5842 12.321C15.9169 12.6537 16.1497 13.0529 16.2606 13.4964L16.3826 13.3301C16.7153 12.8977 16.8594 12.3543 16.7818 11.8221C16.7153 11.312 16.4602 10.8462 16.061 10.5247H17.5802V10.2364H17.5913Z" fill="#303030"/>
<path d="M6.38065 5.86739C7.5117 5.86739 8.42098 4.94703 8.42098 3.82707C8.42098 2.69602 7.50061 1.78674 6.38065 1.78674C5.24961 1.78674 4.34033 2.70711 4.34033 3.82707C4.34033 4.94703 5.26069 5.86739 6.38065 5.86739ZM6.38065 2.70711C6.24759 2.85126 6.15888 3.05086 6.15888 3.27263C6.15888 3.70509 6.51372 4.05993 6.94618 4.05993C7.16795 4.05993 7.36755 3.97122 7.5117 3.82707V3.83815C7.5117 4.45912 7.01271 4.95811 6.39174 4.95811C5.77078 4.95811 5.27178 4.45912 5.27178 3.83815C5.26069 3.2061 5.75969 2.70711 6.38065 2.70711Z" fill="#303030"/>
<path d="M11.2928 5.86739C12.4238 5.86739 13.3331 4.94703 13.3331 3.82707C13.3331 2.69602 12.4127 1.78674 11.2928 1.78674C10.1617 1.78674 9.25244 2.70711 9.25244 3.82707C9.25244 4.94703 10.1728 5.86739 11.2928 5.86739ZM11.2928 2.70711C11.3039 2.70711 11.3039 2.70711 11.2928 2.70711C11.1597 2.85126 11.071 3.05086 11.071 3.27263C11.071 3.70509 11.4258 4.05993 11.8583 4.05993C12.0801 4.05993 12.2797 3.97122 12.4238 3.82707V3.83815C12.4238 4.45912 11.9248 4.95811 11.3039 4.95811C10.6829 4.95811 10.1839 4.45912 10.1839 3.83815C10.1728 3.2061 10.6829 2.70711 11.2928 2.70711Z" fill="#303030"/>
<path d="M3.9412 12.1215C2.81015 12.1215 1.90088 13.0307 1.90088 14.1618C1.90088 15.2928 2.81015 16.2021 3.9412 16.2021C4.17406 16.2021 4.40693 16.1578 4.61761 16.0801C4.59544 16.058 4.57326 16.0469 4.56217 16.0247C3.97447 15.437 3.76378 14.6719 4.11862 14.3281C4.46237 13.9844 5.22749 14.184 5.81519 14.7717C5.83737 14.7938 5.84846 14.816 5.87064 14.8271C5.94826 14.6164 5.99261 14.3946 5.99261 14.1507C5.98152 13.0418 5.06116 12.1215 3.9412 12.1215Z" fill="#303030"/>
<path d="M13.7434 12.1215C12.6124 12.1215 11.7031 13.0307 11.7031 14.1618C11.7031 14.3946 11.7475 14.6275 11.8251 14.8382C11.8473 14.816 11.8584 14.7938 11.8805 14.7828C12.4682 14.195 13.2334 13.9844 13.5771 14.3392C13.9209 14.683 13.7213 15.4481 13.1336 16.0358C13.1114 16.058 13.1003 16.069 13.0781 16.0912C13.2888 16.1688 13.5106 16.2132 13.7545 16.2132C14.8856 16.2132 15.7949 15.3039 15.7949 14.1729C15.7838 13.0418 14.8745 12.1215 13.7434 12.1215Z" fill="#303030"/>
<path d="M25.9068 6.37195C26.5389 6.37195 27.0711 6.44957 27.4925 6.60481C27.925 6.76005 28.2687 6.98183 28.5238 7.27013C28.7788 7.55844 28.9673 7.90219 29.0782 8.30138C29.1891 8.70058 29.2445 9.14413 29.2445 9.63203V14.6219C28.9562 14.6885 28.5127 14.7661 27.9139 14.8548C27.3262 14.9435 26.6498 14.9879 25.9068 14.9879C25.4189 14.9879 24.9643 14.9435 24.554 14.8437C24.1437 14.755 23.8 14.5998 23.5117 14.3891C23.2234 14.1784 23.0016 13.9012 22.8353 13.5685C22.6689 13.2359 22.5913 12.8145 22.5913 12.3266C22.5913 11.8498 22.68 11.4617 22.8685 11.129C23.057 10.8074 23.301 10.5413 23.6115 10.3306C23.922 10.131 24.2879 9.97578 24.7093 9.88707C25.1195 9.79836 25.552 9.754 26.0066 9.754C26.2173 9.754 26.4391 9.76509 26.672 9.79836C26.9048 9.82054 27.1488 9.86489 27.4149 9.93142V9.62094C27.4149 9.39917 27.3927 9.18848 27.3373 8.98888C27.2818 8.78929 27.1931 8.61187 27.0601 8.45663C26.927 8.30138 26.7607 8.1905 26.5389 8.10179C26.3282 8.01308 26.051 7.97981 25.7294 7.97981C25.2859 7.97981 24.8867 8.01308 24.5207 8.07961C24.1548 8.14614 23.8554 8.21267 23.6226 8.30138L23.3897 6.76005C23.6336 6.67134 23.9774 6.59372 24.4431 6.50501C24.8867 6.4163 25.3746 6.37195 25.9068 6.37195ZM26.0621 13.4687C26.6498 13.4687 27.0933 13.4355 27.4038 13.38V11.2732C27.304 11.2399 27.1488 11.2066 26.9492 11.1844C26.7496 11.1512 26.5278 11.1401 26.2838 11.1401C26.0732 11.1401 25.8625 11.1512 25.6518 11.1844C25.4411 11.2177 25.2415 11.2732 25.0752 11.3619C24.8978 11.4506 24.7647 11.5615 24.6538 11.7167C24.554 11.8719 24.4986 12.0605 24.4986 12.2933C24.4986 12.748 24.6427 13.0584 24.9199 13.2248C25.1972 13.38 25.5742 13.4687 26.0621 13.4687Z" fill="#303030"/>
<path d="M33.3807 4.17638C33.3807 4.53122 33.2698 4.81952 33.037 5.03021C32.8041 5.2409 32.538 5.34069 32.2164 5.34069C31.8948 5.34069 31.6176 5.2409 31.3848 5.03021C31.1519 4.81952 31.041 4.54231 31.041 4.17638C31.041 3.81045 31.1519 3.52215 31.3848 3.31146C31.6176 3.10077 31.8948 3.00098 32.2164 3.00098C32.5269 3.00098 32.8041 3.10077 33.037 3.31146C33.2588 3.52215 33.3807 3.81045 33.3807 4.17638ZM33.17 14.8105H31.2628V6.58263H33.17V14.8105Z" fill="#303030"/>
<path d="M37.7164 14.8105C37.1952 13.7349 36.6519 12.4929 36.0974 11.0847C35.543 9.68748 35.044 8.17942 34.5894 6.58264H36.6186C36.7295 7.04837 36.8736 7.53627 37.0178 8.06853C37.173 8.60079 37.3283 9.13304 37.5057 9.65421C37.6831 10.1865 37.8605 10.6966 38.0379 11.1955C38.2265 11.6945 38.3928 12.1381 38.548 12.5373C38.7033 12.1381 38.8696 11.6945 39.0581 11.1955C39.2355 10.6966 39.4129 10.1865 39.5904 9.65421C39.7678 9.12196 39.9341 8.5897 40.0894 8.06853C40.2446 7.53627 40.3887 7.04837 40.4996 6.58264H42.4623C42.0077 8.1905 41.5087 9.68748 40.9543 11.0847C40.3998 12.4818 39.8565 13.7238 39.3353 14.8105H37.7164Z" fill="#303030"/>
<path d="M42.9058 10.7298C42.9058 10.009 43.0166 9.37697 43.2273 8.82253C43.438 8.27919 43.7263 7.82455 44.0812 7.45862C44.436 7.09269 44.8463 6.82657 45.312 6.63806C45.7777 6.44955 46.2435 6.36084 46.7314 6.36084C47.8624 6.36084 48.7495 6.71568 49.3816 7.41427C50.0136 8.11286 50.3352 9.16628 50.3352 10.5635C50.3352 10.6633 50.3352 10.7852 50.3241 10.9183C50.3241 11.0514 50.313 11.1623 50.3019 11.2731H44.8796C44.935 11.9385 45.1679 12.4485 45.5781 12.8034C45.9884 13.1693 46.5983 13.3467 47.3745 13.3467C47.8402 13.3467 48.2616 13.3024 48.6386 13.2248C49.0267 13.136 49.3261 13.0473 49.5479 12.9586L49.8029 14.511C49.7031 14.5665 49.559 14.6219 49.3705 14.6774C49.182 14.7328 48.9824 14.7883 48.7384 14.8326C48.5056 14.877 48.2505 14.9213 47.9733 14.9546C47.6961 14.9879 47.4189 14.9989 47.1417 14.9989C46.4209 14.9989 45.7888 14.8881 45.2566 14.6774C44.7243 14.4667 44.2808 14.1673 43.937 13.7792C43.5933 13.3911 43.3382 12.9475 43.1608 12.4264C42.9945 11.9163 42.9058 11.3508 42.9058 10.7298ZM48.4279 9.88705C48.4279 9.62092 48.3947 9.37697 48.3171 9.14411C48.2394 8.91124 48.1396 8.70056 47.9955 8.53423C47.8513 8.35681 47.685 8.22374 47.4743 8.12394C47.2747 8.02415 47.0308 7.97979 46.7425 7.97979C46.4541 7.97979 46.188 8.03523 45.9662 8.14612C45.7445 8.25701 45.556 8.40116 45.4118 8.57858C45.2566 8.756 45.1457 8.96669 45.057 9.18846C44.9683 9.42132 44.9128 9.65419 44.8796 9.89814H48.4279V9.88705Z" fill="#303030"/>
<path d="M52.0317 6.8487C52.3977 6.7489 52.8745 6.6491 53.4622 6.5493C54.0499 6.44951 54.7041 6.40515 55.4138 6.40515C56.0902 6.40515 56.6446 6.49386 57.0993 6.68237C57.5539 6.87088 57.9088 7.12592 58.1749 7.45858C58.441 7.79124 58.6295 8.19043 58.7404 8.65616C58.8513 9.12189 58.9067 9.63197 58.9067 10.1864V14.8104H56.9995V10.4858C56.9995 10.0422 56.9662 9.66523 56.9108 9.36584C56.8553 9.05535 56.7555 8.80031 56.6225 8.6118C56.4894 8.4233 56.312 8.27914 56.0902 8.19043C55.8684 8.10172 55.5912 8.05737 55.2696 8.05737C55.0257 8.05737 54.7817 8.06846 54.5156 8.10172C54.2495 8.13499 54.061 8.15717 53.939 8.17935V14.8104H52.0317V6.8487Z" fill="#303030"/>
</g>
<defs>
<clipPath id="clip0_132_7792">
<rect width="58.8135" height="16.4264" fill="white" transform="translate(0.0932617 0.786743)"/>
</clipPath>
</defs>
</svg>
