<svg xmlns="http://www.w3.org/2000/svg">
  <g class="insidePath">
    <path d="M12 21.125L12 3.712C12 3.712 9.545.985 1.268.874959755 1.13070117.873269483.998594363.927411617.902 1.025.804459281 1.12301264.749792826 1.25572265.749982378 1.394L.749982378 17.769C.747704832 18.0492216.969887624 18.2798473 1.25 18.288 9.543 18.4 12 21.125 12 21.125M9 10.18C7.29825398 9.60761741 5.53085019 9.25312863 3.74 9.125M9 14.375C7.29825398 13.8026174 5.53085019 13.4481286 3.74 13.32M15 10.18C16.701746 9.60761741 18.4691498 9.25312863 20.26 9.125M15 14.375C16.701746 13.8026174 18.4691498 13.4481286 20.26 13.32"/>
    <path d="M12,21.125 L12,3.712 C12,3.712 14.455,0.985 22.732,0.874959755 C22.8692988,0.873269483 23.0014056,0.927411617 23.098,1.025 C23.1955407,1.12301264 23.2502072,1.25572265 23.2500176,1.394 L23.2500176,17.769 C23.2522952,18.0492216 23.0301124,18.2798473 22.75,18.288 C14.457,18.4 12,21.125 12,21.125"/>
  </g>
</svg>
