<svg xmlns="http://www.w3.org/2000/svg" width="24" height="24" viewBox="0 0 24 24">
  <g fill="none" fill-rule="evenodd" stroke="#3683DC" stroke-linecap="round" stroke-linejoin="round" stroke-width="1.5" transform="translate(.5 .5)">
    <path d="M2.5.5L14.5.5C15.604.5 16.5 1.396 16.5 2.5L16.5 14.5C16.5 15.604 15.604 16.5 14.5 16.5L2.5 16.5C1.396 16.5.5 15.604.5 14.5L.5 2.5C.5 1.396 1.396.5 2.5.5zM4.5 4L12.5 4M4.5 8.5L12.5 8M4.5 13L7.5 13"/>
    <path fill="#F4F4F4" d="M8.5,6.5 L20.5,6.5 C21.604,6.5 22.5,7.396 22.5,8.5 L22.5,20.5 C22.5,21.604 21.604,22.5 20.5,22.5 L8.5,22.5 C7.396,22.5 6.5,21.604 6.5,20.5 L6.5,8.5 C6.5,7.396 7.396,6.5 8.5,6.5 Z"/>
    <path d="M10.5 11L18.5 11M10.5 15L18.5 15M10.5 19L13.5 19"/>
  </g>
</svg>