<svg width="21" height="20" viewBox="0 0 21 20" fill="none" xmlns="http://www.w3.org/2000/svg">
<path fill-rule="evenodd" clip-rule="evenodd" d="M7.99979 1.24805C8.46095 1.24805 8.83479 1.62189 8.83479 2.08305V2.49805H12.1648V2.08305C12.1648 1.62189 12.5386 1.24805 12.9998 1.24805C13.461 1.24805 13.8348 1.62189 13.8348 2.08305V2.49805H15.4997C15.9496 2.49805 16.7023 2.52145 17.3402 3.15928C17.978 3.79711 18.0014 4.54988 18.0014 4.99971V5.00639V5.01307V5.01976V5.02645V5.03315V5.03985V5.04655V5.05326V5.05998V5.0667V5.07342V5.08015V5.08688V5.09362V5.10036V5.1071V5.11385V5.1206V5.12736V5.13412V5.14088V5.14765V5.15442V5.16119V5.16797V5.17475V5.18153V5.18832V5.19511V5.2019V5.2087V5.2155V5.2223V5.2291V5.23591V5.24272V5.24953V5.25635V5.26316V5.26998V5.2768V5.28363V5.29045V5.29728V5.30411V5.31094V5.31778V5.32461V5.33145V5.33829V5.34513V5.35197V5.35881V5.36566V5.3725V5.37935V5.3862V5.39305V5.3999V5.40675V5.4136V5.42045V5.42731V5.43416V5.44102V5.44787V5.45473V5.46158V5.46844V5.47529V5.48215V5.48901V5.49586V5.50272V5.50958V5.51643V5.52329V5.53014V5.537V5.54385V5.5507V5.55756V5.56441V5.57126V5.57811V5.58496V5.59181V5.59866V5.6055V5.61235V5.61919V5.62604V5.63288V5.63972V5.64655V5.65339V5.66023V5.66706V5.67389V5.68072V5.68755V5.69437V5.70119V5.70802V5.71483V5.72165V5.72846V5.73527V5.74208V5.74889V5.75569V5.76249V5.76929V5.77609V5.78288V5.78967V5.79645V5.80323V5.81001V5.81679V5.82356V5.83033V5.8371V5.84386V5.85062V5.85737V5.86412V5.87087V5.87761V5.88435V5.89108V5.89781V5.90454V5.91126V5.91798V5.92469V5.9314V5.9381V5.9448V5.95149V5.95818V5.96487V5.97155V5.97822V5.98489V5.99156V5.99821V6.00487V6.01152V6.01816V6.0248V6.03143V6.03805V6.04467V6.05129V6.0579V6.0645V6.07109V6.07768V6.08427V6.09085V6.09742V6.10398V6.11054V6.11709V6.12364V6.13018V6.13671V6.14324V6.14976V6.15627V6.16277V6.16927V6.17576V6.18224V6.18872V6.19519V6.20165V6.2081V6.21455V6.22098V6.22742V6.23384V6.24025V6.24666V6.25306V6.25945V6.26583V6.27221V6.27857V6.28493V6.29128V6.29762V6.30395V6.31028V6.31659V6.3229V6.32919V6.33548V6.34176V6.34803V6.35429V6.36054V6.36679V6.37302V6.37924V6.38546V6.39166V6.39786V6.40404V6.41022V6.41638V6.42254V6.42869V6.43482V6.44095V6.44706V6.45317V6.45926V6.46535V6.47142V6.47748V6.48354V6.48958V6.49561V6.50163V6.50764V6.51364V6.51963V6.5256V6.53157V6.53752V6.54346V6.5494V6.55531V6.56122V6.56712V6.573V6.57888V6.58474V6.59059V6.59642V6.60225V6.60806V6.61386V6.61965V6.62543V6.63119V6.63694V6.64268V6.64841V6.65412V6.65982V6.66551V6.67119V6.67685V6.6825V6.68814V6.69376V6.69937V6.70496V6.71055V6.71612V6.72167V6.72721V6.73274V6.73826V6.74376V6.74925V6.75472V6.76018V6.76562V6.77106V6.77647V6.78187V6.78726V6.79264V6.798V6.80334V6.80867V6.81398V6.81929V6.82457V6.82984V6.8351V6.84034V6.84556V6.85077V6.85597V6.86115V6.86631V6.87146V6.87659V6.88171V6.88681V6.8919V6.89697V6.90202V6.90706V6.91208V6.91708V6.92207V6.92705V6.932V6.93694V6.94187V6.94677V6.95167V6.95654V6.9614V6.96624V6.97106V6.97587V6.98066V6.98543V6.99018V6.99492V6.99964V7.00434V7.00903V7.0137V7.01835V7.02298V7.02759V7.03219V7.03677V7.04133V7.04587V7.0504V7.0549V7.05939V7.06386V7.06831V7.07275V7.07716V7.08156V7.08593V7.09029V7.09463V7.09895V7.10325V7.10754V7.1118V7.11604V7.12027V7.12447V7.12866V7.13283V7.13697V7.1411V7.14521V7.1493V7.15337V7.15742V7.16144V7.16545V7.16944V7.17341V7.17736V7.18128V7.18519V7.18908V7.19294V7.19679V7.20061V7.20442V7.2082V7.21196V7.21571V7.21943V7.22313V7.2268V7.23046V7.2341V7.23771V7.2413V7.24487V7.24842V7.25195V7.25546V7.25894V7.26241V7.26585V7.26927V7.27266V7.27604V7.27939V7.28272V7.28603V7.28931V7.29257V7.29581V7.29903V7.30222V7.3054V7.30854V7.31167V7.31477V7.31785V7.32091V7.32394V7.32695V7.32994V7.3329V7.33584V7.33876V7.34165V7.34452V7.34736V7.35019V7.35298V7.35576V7.35851V7.36123V7.36393V7.36661V7.36926V7.37189V7.37449V7.37707V7.37962V7.38215V7.38466V7.38714V7.38959V7.39202V7.39443V7.39681V7.39916V7.40149V7.40379V7.40607V7.40832V7.41055V7.41275V7.41493V7.41708V7.4192V7.4213V7.42337V7.42542V7.42744V7.42944V7.4314V7.43334V7.43526V7.43715V7.43901V7.44085V7.44265V7.44444V7.44619V7.44792V7.44962V7.45129V7.45294V7.45456V7.45615V7.45772V7.45926V7.46077V7.46225V7.46371V7.46513V7.46653V7.46791V7.46925V7.47057V7.47185V7.47311V7.47435V7.47555V7.47672V7.47787V7.47899V7.48008V7.48114V7.48217V7.48318V7.4851V7.4869V7.48859V7.49016V7.49162V7.49295V7.49417V7.49527V7.49669V7.49785V7.49895V7.50053V7.50302V7.5129L18.0014 7.55175L18.0014 7.70183L18.0014 8.25969L18.0014 10.1514L18.0015 14.9997C18.0015 15.4575 17.9625 16.218 17.3402 16.8402C16.718 17.4623 15.9578 17.5014 15.4998 17.5014H15.4859H15.4719H15.4578H15.4437H15.4295H15.4153H15.4011H15.3868H15.3725H15.3581H15.3437H15.3292H15.3147H15.3001H15.2855H15.2708H15.2561H15.2414H15.2266H15.2118H15.1969H15.182H15.167H15.152H15.137H15.1219H15.1067H15.0916H15.0763H15.0611H15.0458H15.0304H15.015H14.9996H14.9841H14.9686H14.953H14.9374H14.9218H14.9061H14.8904H14.8746H14.8588H14.8429H14.8271H14.8111H14.7952H14.7792H14.7631H14.747H14.7309H14.7147H14.6985H14.6823H14.666H14.6496H14.6333H14.6169H14.6004H14.584H14.5674H14.5509H14.5343H14.5177H14.501H14.4843H14.4675H14.4508H14.4339H14.4171H14.4002H14.3833H14.3663H14.3493H14.3323H14.3152H14.2981H14.2809H14.2638H14.2465H14.2293H14.212H14.1947H14.1773H14.1599H14.1425H14.1251H14.1076H14.09H14.0725H14.0549H14.0373H14.0196H14.0019H13.9842H13.9664H13.9486H13.9308H13.9129H13.895H13.8771H13.8592H13.8412H13.8231H13.8051H13.787H13.7689H13.7508H13.7326H13.7144H13.6961H13.6779H13.6596H13.6412H13.6229H13.6045H13.5861H13.5676H13.5491H13.5306H13.5121H13.4935H13.4749H13.4563H13.4376H13.419H13.4002H13.3815H13.3627H13.3439H13.3251H13.3063H13.2874H13.2685H13.2495H13.2306H13.2116H13.1926H13.1735H13.1545H13.1354H13.1163H13.0971H13.0779H13.0587H13.0395H13.0203H13.001H12.9817H12.9624H12.943H12.9237H12.9043H12.8848H12.8654H12.8459H12.8264H12.8069H12.7874H12.7678H12.7482H12.7286H12.7089H12.6893H12.6696H12.6499H12.6302H12.6104H12.5907H12.5709H12.551H12.5312H12.5113H12.4915H12.4716H12.4516H12.4317H12.4117H12.3917H12.3717H12.3517H12.3317H12.3116H12.2915H12.2714H12.2513H12.2311H12.211H12.1908H12.1706H12.1503H12.1301H12.1098H12.0896H12.0693H12.0489H12.0286H12.0083H11.9879H11.9675H11.9471H11.9267H11.9062H11.8858H11.8653H11.8448H11.8243H11.8038H11.7832H11.7627H11.7421H11.7215H11.7009H11.6803H11.6597H11.639H11.6183H11.5977H11.577H11.5563H11.5355H11.5148H11.494H11.4733H11.4525H11.4317H11.4109H11.3901H11.3692H11.3484H11.3275H11.3067H11.2858H11.2649H11.244H11.223H11.2021H11.1811H11.1602H11.1392H11.1182H11.0972H11.0762H11.0552H11.0342H11.0131H10.9921H10.971H10.95H10.9289H10.9078H10.8867H10.8656H10.8444H10.8233H10.8022H10.781H10.7599H10.7387H10.7175H10.6963H10.6751H10.6539H10.6327H10.6115H10.5903H10.569H10.5478H10.5266H10.5053H10.484H10.4628H10.4415H10.4202H10.3989H10.3776H10.3563H10.335H10.3137H10.2924H10.271H10.2497H10.2284H10.207H10.1857H10.1643H10.143H10.1216H10.1002H10.0789H10.0575H10.0361H10.0147H9.99334H9.97195H9.95056H9.92916H9.90776H9.88636H9.86495H9.84354H9.82213H9.80071H9.7793H9.75788H9.73646H9.71503H9.69361H9.67218H9.65076H9.62933H9.6079H9.58647H9.56503H9.5436H9.52217H9.50074H9.4793H9.45787H9.43644H9.415H9.39357H9.37214H9.35071H9.32928H9.30785H9.28642H9.26499H9.24356H9.22214H9.20072H9.1793H9.15788H9.13646H9.11505H9.09363H9.07223H9.05082H9.02941H9.00801H8.98662H8.96522H8.94383H8.92244H8.90106H8.87968H8.85831H8.83693H8.81557H8.79421H8.77285H8.75149H8.73015H8.7088H8.68747H8.66613H8.64481H8.62349H8.60217H8.58086H8.55956H8.53826H8.51697H8.49569H8.47441H8.45314H8.43188H8.41062H8.38937H8.36813H8.3469H8.32567H8.30446H8.28325H8.26204H8.24085H8.21967H8.19849H8.17732H8.15617H8.13502H8.11388H8.09275H8.07162H8.05051H8.02941H8.00832H7.98724H7.96617H7.94511H7.92406H7.90302H7.88199H7.86097H7.83996H7.81897H7.79798H7.77701H7.75605H7.7351H7.71417H7.69324H7.67233H7.65143H7.63054H7.60967H7.58881H7.56796H7.54713H7.5263H7.5055H7.4847H7.46392H7.44315H7.4224H7.40166H7.38094H7.36023H7.33954H7.31886H7.29819H7.27754H7.25691H7.23629H7.21569H7.1951H7.17453H7.15397H7.13343H7.11291H7.0924H7.07191H7.05144H7.03098H7.01055H6.99012H6.96972H6.94933H6.92896H6.90861H6.88828H6.86796H6.84766H6.82739H6.80713H6.78688H6.76666H6.74646H6.72627H6.70611H6.68596H6.66583H6.64573H6.62564H6.60557H6.58553H6.5655H6.5455H6.52551H6.50555H6.4856H6.46568H6.44578H6.4259H6.40604H6.3862H6.36639H6.34659H6.32682H6.30707H6.28735H6.26764H6.24796H6.2283H6.20867H6.18906H6.16947H6.1499H6.13036H6.11084H6.09135H6.07188H6.05243H6.03301H6.01361H5.99424H5.97489H5.95557H5.93627H5.91699H5.89775H5.87852H5.85933H5.84016H5.82101H5.80189H5.7828H5.76373H5.74469H5.72568H5.7067H5.68774H5.6688H5.6499H5.63102H5.61217H5.59335H5.57455H5.55579H5.53705H5.51834H5.49966C5.05532 17.5014 4.30769 17.4883 3.65942 16.8402C3.0391 16.22 2.99815 15.4585 2.99799 15C2.99748 13.5353 2.9975 11.6602 2.99765 10.1513L2.99791 8.25956L2.99802 7.70167L2.99805 7.55158L2.99806 7.51272L2.99806 7.50284L2.99806 7.50035L2.99806 7.49933L2.99806 7.49521L2.99807 7.48227L2.99807 7.43225L2.99809 7.24631L2.99813 6.61579L2.99806 4.99987C2.99798 4.54496 3.03097 3.78752 3.65923 3.15928C4.28744 2.5311 5.04481 2.49805 5.49973 2.49805H7.16479V2.08305C7.16479 1.62189 7.53864 1.24805 7.99979 1.24805ZM12.1648 4.16805V4.58305C12.1648 5.0442 12.5386 5.41805 12.9998 5.41805C13.461 5.41805 13.8348 5.0442 13.8348 4.58305V4.16805H15.4997C15.6957 4.16805 15.8212 4.17726 15.9235 4.20423C16.009 4.22679 16.0822 4.26301 16.1593 4.34015C16.2364 4.41729 16.2727 4.49047 16.2952 4.57598C16.3222 4.67823 16.3314 4.80373 16.3314 4.99971V5.00639V5.01307V5.01976V5.02645V5.03315V5.03985V5.04655V5.05326V5.05998V5.0667V5.07342V5.08015V5.08688V5.09362V5.10036V5.1071V5.11385V5.1206V5.12736V5.13412V5.14088V5.14765V5.15442V5.16119V5.16797V5.17475V5.18153V5.18832V5.19511V5.2019V5.2087V5.2155V5.2223V5.2291V5.23591V5.24272V5.24953V5.25635V5.26316V5.26998V5.2768V5.28363V5.29045V5.29728V5.30411V5.31094V5.31778V5.32461V5.33145V5.33829V5.34513V5.35197V5.35881V5.36566V5.3725V5.37935V5.3862V5.39305V5.3999V5.40675V5.4136V5.42045V5.42731V5.43416V5.44102V5.44787V5.45473V5.46158V5.46844V5.47529V5.48215V5.48901V5.49586V5.50272V5.50958V5.51643V5.52329V5.53014V5.537V5.54385V5.5507V5.55756V5.56441V5.57126V5.57811V5.58496V5.59181V5.59866V5.6055V5.61235V5.61919V5.62604V5.63288V5.63972V5.64655V5.65339V5.66023V5.66706V5.67389V5.68072V5.68755V5.69437V5.70119V5.70802V5.71483V5.72165V5.72846V5.73527V5.74208V5.74889V5.75569V5.76249V5.76929V5.77609V5.78288V5.78967V5.79645V5.80323V5.81001V5.81679V5.82356V5.83033V5.8371V5.84386V5.85062V5.85737V5.86412V5.87087V5.87761V5.88435V5.89108V5.89781V5.90454V5.91126V5.91798V5.92469V5.9314V5.9381V5.9448V5.95149V5.95818V5.96487V5.97155V5.97822V5.98489V5.99156V5.99821V6.00487V6.01152V6.01816V6.0248V6.03143V6.03805V6.04467V6.05129V6.0579V6.0645V6.07109V6.07768V6.08427V6.09085V6.09742V6.10398V6.11054V6.11709V6.12364V6.13018V6.13671V6.14324V6.14976V6.15627V6.16277V6.16927V6.17576V6.18224V6.18872V6.19519V6.20165V6.2081V6.21455V6.22098V6.22742V6.23384V6.24025V6.24666V6.25306V6.25945V6.26583V6.27221V6.27857V6.28493V6.29128V6.29762V6.30395V6.31028V6.31659V6.3229V6.32919V6.33548V6.34176V6.34803V6.35429V6.36054V6.36679V6.37302V6.37924V6.38546V6.39166V6.39786V6.40404V6.41022V6.41638V6.42254V6.42869V6.43482V6.44095V6.44706V6.45317V6.45926V6.46535V6.47142V6.47748V6.48354V6.48958V6.49561V6.50163V6.50764V6.51364V6.51963V6.5256V6.53157V6.53752V6.54346V6.5494V6.55531V6.56122V6.56712V6.573V6.57888V6.58474V6.59059V6.59642V6.60225V6.60806V6.61386V6.61965V6.62543V6.63119V6.63694V6.64268V6.64841V6.65412V6.65982V6.66471H4.66813L4.66813 6.61587L4.66806 4.99955C4.66799 4.62117 4.71314 4.4671 4.84007 4.34018C4.96705 4.2132 5.12116 4.16805 5.49973 4.16805H7.16479V4.58305C7.16479 5.0442 7.53864 5.41805 7.99979 5.41805C8.46095 5.41805 8.83479 5.0442 8.83479 4.58305V4.16805H12.1648ZM16.3314 8.33471H4.6679L4.66765 10.1514C4.6675 11.6603 4.66748 13.5351 4.66799 14.9994C4.66812 15.3742 4.71825 15.5373 4.84016 15.6592C4.92327 15.7423 4.99665 15.7769 5.07649 15.7976C5.17589 15.8235 5.29661 15.8314 5.49966 15.8314H5.51834H5.53705H5.55579H5.57455H5.59335H5.61217H5.63102H5.6499H5.6688H5.68774H5.7067H5.72568H5.74469H5.76373H5.7828H5.80189H5.82101H5.84016H5.85933H5.87852H5.89775H5.91699H5.93627H5.95557H5.97489H5.99424H6.01361H6.03301H6.05243H6.07188H6.09135H6.11084H6.13036H6.1499H6.16947H6.18906H6.20867H6.2283H6.24796H6.26764H6.28735H6.30707H6.32682H6.34659H6.36639H6.3862H6.40604H6.4259H6.44578H6.46568H6.4856H6.50555H6.52551H6.5455H6.5655H6.58553H6.60557H6.62564H6.64573H6.66583H6.68596H6.70611H6.72627H6.74646H6.76666H6.78688H6.80713H6.82739H6.84766H6.86796H6.88828H6.90861H6.92896H6.94933H6.96972H6.99012H7.01055H7.03098H7.05144H7.07191H7.0924H7.11291H7.13343H7.15397H7.17453H7.1951H7.21569H7.23629H7.25691H7.27754H7.29819H7.31886H7.33954H7.36023H7.38094H7.40166H7.4224H7.44315H7.46392H7.4847H7.5055H7.5263H7.54713H7.56796H7.58881H7.60967H7.63054H7.65143H7.67233H7.69324H7.71417H7.7351H7.75605H7.77701H7.79798H7.81897H7.83996H7.86097H7.88199H7.90302H7.92406H7.94511H7.96617H7.98724H8.00832H8.02941H8.05051H8.07162H8.09275H8.11388H8.13502H8.15617H8.17732H8.19849H8.21967H8.24085H8.26204H8.28325H8.30446H8.32567H8.3469H8.36813H8.38937H8.41062H8.43188H8.45314H8.47441H8.49569H8.51697H8.53826H8.55956H8.58086H8.60217H8.62349H8.64481H8.66613H8.68747H8.7088H8.73015H8.75149H8.77285H8.79421H8.81557H8.83693H8.85831H8.87968H8.90106H8.92244H8.94383H8.96522H8.98662H9.00801H9.02941H9.05082H9.07223H9.09363H9.11505H9.13646H9.15788H9.1793H9.20072H9.22214H9.24356H9.26499H9.28642H9.30785H9.32928H9.35071H9.37214H9.39357H9.415H9.43644H9.45787H9.4793H9.50074H9.52217H9.5436H9.56503H9.58647H9.6079H9.62933H9.65076H9.67218H9.69361H9.71503H9.73646H9.75788H9.7793H9.80071H9.82213H9.84354H9.86495H9.88636H9.90776H9.92916H9.95056H9.97195H9.99334H10.0147H10.0361H10.0575H10.0789H10.1002H10.1216H10.143H10.1643H10.1857H10.207H10.2284H10.2497H10.271H10.2924H10.3137H10.335H10.3563H10.3776H10.3989H10.4202H10.4415H10.4628H10.484H10.5053H10.5266H10.5478H10.569H10.5903H10.6115H10.6327H10.6539H10.6751H10.6963H10.7175H10.7387H10.7599H10.781H10.8022H10.8233H10.8444H10.8656H10.8867H10.9078H10.9289H10.95H10.971H10.9921H11.0131H11.0342H11.0552H11.0762H11.0972H11.1182H11.1392H11.1602H11.1811H11.2021H11.223H11.244H11.2649H11.2858H11.3067H11.3275H11.3484H11.3692H11.3901H11.4109H11.4317H11.4525H11.4733H11.494H11.5148H11.5355H11.5563H11.577H11.5977H11.6183H11.639H11.6597H11.6803H11.7009H11.7215H11.7421H11.7627H11.7832H11.8038H11.8243H11.8448H11.8653H11.8858H11.9062H11.9267H11.9471H11.9675H11.9879H12.0083H12.0286H12.0489H12.0693H12.0896H12.1098H12.1301H12.1503H12.1706H12.1908H12.211H12.2311H12.2513H12.2714H12.2915H12.3116H12.3317H12.3517H12.3717H12.3917H12.4117H12.4317H12.4516H12.4716H12.4915H12.5113H12.5312H12.551H12.5709H12.5907H12.6104H12.6302H12.6499H12.6696H12.6893H12.7089H12.7286H12.7482H12.7678H12.7874H12.8069H12.8264H12.8459H12.8654H12.8848H12.9043H12.9237H12.943H12.9624H12.9817H13.001H13.0203H13.0395H13.0587H13.0779H13.0971H13.1163H13.1354H13.1545H13.1735H13.1926H13.2116H13.2306H13.2495H13.2685H13.2874H13.3063H13.3251H13.3439H13.3627H13.3815H13.4002H13.419H13.4376H13.4563H13.4749H13.4935H13.5121H13.5306H13.5491H13.5676H13.5861H13.6045H13.6229H13.6412H13.6596H13.6779H13.6961H13.7144H13.7326H13.7508H13.7689H13.787H13.8051H13.8231H13.8412H13.8592H13.8771H13.895H13.9129H13.9308H13.9486H13.9664H13.9842H14.0019H14.0196H14.0373H14.0549H14.0725H14.09H14.1076H14.1251H14.1425H14.1599H14.1773H14.1947H14.212H14.2293H14.2465H14.2638H14.2809H14.2981H14.3152H14.3323H14.3493H14.3663H14.3833H14.4002H14.4171H14.4339H14.4508H14.4675H14.4843H14.501H14.5177H14.5343H14.5509H14.5674H14.584H14.6004H14.6169H14.6333H14.6496H14.666H14.6823H14.6985H14.7147H14.7309H14.747H14.7631H14.7792H14.7952H14.8111H14.8271H14.8429H14.8588H14.8746H14.8904H14.9061H14.9218H14.9374H14.953H14.9686H14.9841H14.9996H15.015H15.0304H15.0458H15.0611H15.0763H15.0916H15.1067H15.1219H15.137H15.152H15.167H15.182H15.1969H15.2118H15.2266H15.2414H15.2561H15.2708H15.2855H15.3001H15.3147H15.3292H15.3437H15.3581H15.3725H15.3868H15.4011H15.4153H15.4295H15.4437H15.4578H15.4719H15.4859H15.4998C15.8752 15.8314 16.0362 15.7825 16.1594 15.6592C16.2826 15.5361 16.3315 15.3752 16.3315 14.9997L16.3314 10.1514L16.3314 8.33471Z" fill="#888F91"/>
</svg>
