<svg xmlns="http://www.w3.org/2000/svg" width="24" height="24" viewBox="0 0 24 24">
  <g fill="none" fill-rule="evenodd" stroke="#000" stroke-linecap="round" stroke-linejoin="round" stroke-width="1.5" transform="translate(1 1)">
    <path d="M11 15.125C10.81025 15.125 10.65625 15.279 10.65625 15.46875 10.65625 15.6585 10.81025 15.8125 11 15.8125 11.18975 15.8125 11.34375 15.6585 11.34375 15.46875 11.34375 15.279 11.18975 15.125 11 15.125L11 15.125M11 12.375L11 5.5"/>
    <path d="M1.17333333,12.17425 C0.52525,11.5261667 0.52525,10.47475 1.17333333,9.82666667 L9.82666667,1.17425 C10.4729167,0.526166667 11.5225,0.52525 12.1705833,1.1715 C12.1715,1.17241667 12.1724167,1.17333333 12.1733333,1.17425 L20.8266667,9.82666667 C21.47475,10.47475 21.47475,11.5261667 20.8266667,12.17425 L12.1733333,20.8266667 C11.52525,21.4738333 10.47475,21.4738333 9.82666667,20.8266667 L1.17333333,12.17425 Z"/>
  </g>
</svg>
