<svg width="24" height="24" viewBox="0 0 24 24" fill="none" xmlns="http://www.w3.org/2000/svg">
<path fill-rule="evenodd" clip-rule="evenodd" d="M11.9999 8.5C12.5522 8.5 12.9999 8.94772 12.9999 9.5V13.5C12.9999 14.0523 12.5522 14.5 11.9999 14.5C11.4477 14.5 10.9999 14.0523 10.9999 13.5V9.5C10.9999 8.94772 11.4477 8.5 11.9999 8.5Z" fill="currentColor"/>
<path d="M12.9999 17C12.9999 17.5523 12.5522 18 11.9999 18C11.4477 18 10.9999 17.5523 10.9999 17C10.9999 16.4477 11.4477 16 11.9999 16C12.5522 16 12.9999 16.4477 12.9999 17Z" fill="currentColor"/>
<path fill-rule="evenodd" clip-rule="evenodd" d="M10.6982 2.34297C11.0976 2.11812 11.5481 2 12.0065 2C12.4648 2 12.9153 2.11812 13.3147 2.34297C13.7141 2.56782 14.0488 2.8918 14.2865 3.28366C14.2968 3.30065 14.3066 3.31794 14.3158 3.33552L21.8015 17.5184C22.0275 17.9171 22.147 18.3674 22.1483 18.826C22.1496 19.2916 22.0289 19.7494 21.7984 20.154C21.5678 20.5585 21.2353 20.8956 20.834 21.1317C20.4327 21.3679 19.9765 21.4948 19.5109 21.4999L19.4999 21.5001L4.48892 21.5C4.02331 21.4949 3.56717 21.3679 3.16586 21.1317C2.76455 20.8956 2.43207 20.5585 2.20149 20.154C1.97091 19.7494 1.85027 19.2916 1.85157 18.826C1.85286 18.3673 1.97243 17.9168 2.19857 17.518L9.69741 3.33488C9.70659 3.31752 9.71628 3.30044 9.72646 3.28366C9.96415 2.8918 10.2988 2.56782 10.6982 2.34297ZM12.0065 4C11.8919 4 11.7792 4.02953 11.6794 4.08574C11.5862 4.13822 11.5071 4.21229 11.4486 4.3016L3.95895 18.4674C3.95314 18.4784 3.94712 18.4893 3.9409 18.5001C3.88269 18.6009 3.85189 18.7152 3.85157 18.8316C3.85124 18.948 3.8814 19.0624 3.93904 19.1636C3.99669 19.2647 4.07981 19.349 4.18014 19.408C4.27924 19.4663 4.3917 19.498 4.50661 19.5H19.4932C19.6081 19.498 19.7206 19.4663 19.8197 19.408C19.92 19.349 20.0032 19.2647 20.0608 19.1636C20.1185 19.0624 20.1486 18.948 20.1483 18.8316C20.148 18.7152 20.1172 18.6009 20.059 18.5001C20.0553 18.4938 20.0518 18.4875 20.0483 18.4812C20.0457 18.4764 20.0431 18.4716 20.0406 18.4668L12.5641 4.30137C12.5057 4.21216 12.4266 4.13817 12.3335 4.08574C12.2337 4.02953 12.121 4 12.0065 4Z" fill="currentColor"/>
</svg>
