<svg xmlns="http://www.w3.org/2000/svg" width="24" height="24" viewBox="0 0 24 24" fill="none">
  <path fill-rule="evenodd" clip-rule="evenodd" d="M12 22C17.5228 22 22 17.5228 22 12C22 6.47715 17.5228 2 12 2C6.47715 2 2 6.47715 2 12C2 17.5228 6.47715 22 12 22ZM16.8222 9.56921C17.1366 9.11513 17.0233 8.49217 16.5692 8.17781C16.1151 7.86344 15.4922 7.97671 15.1778 8.43079L11.3089 14.0192L8.65079 11.7407C8.23147 11.3813 7.60017 11.4299 7.24074 11.8492C6.88132 12.2685 6.92988 12.8998 7.34921 13.2593L10.8492 16.2593C11.0642 16.4435 11.3472 16.528 11.628 16.4918C11.9088 16.4556 12.161 16.302 12.3222 16.0692L16.8222 9.56921Z" fill="currentColor"/>
</svg>