<svg width="20" height="18" viewBox="0 0 20 18" fill="none" xmlns="http://www.w3.org/2000/svg">
<path fill-rule="evenodd" clip-rule="evenodd" d="M1.42348 7.5763L1.74023 7.89305C1.92309 6.52873 2.44204 5.22481 3.2579 4.10187C4.2923 2.67814 5.75087 1.61843 7.42457 1.07461C9.09826 0.530794 10.9012 0.530794 12.5749 1.07461C13.9834 1.53228 15.2396 2.35534 16.2188 3.45327C16.5252 3.79674 16.4397 4.32117 16.0673 4.59169C15.695 4.86221 15.1773 4.77534 14.8625 4.43964C14.0964 3.62273 13.1334 3.00854 12.0598 2.6597C10.7209 2.22465 9.27855 2.22465 7.9396 2.6597C6.60064 3.09476 5.43378 3.94253 4.60626 5.08151C4.03891 5.8624 3.65104 6.75269 3.46323 7.68902L3.57595 7.5763C3.90203 7.25022 4.43073 7.25022 4.75681 7.5763C5.0829 7.90239 5.0829 8.43109 4.75681 8.75717L3.09015 10.4238C2.76406 10.7499 2.23537 10.7499 1.90928 10.4238L0.242613 8.75717C-0.083475 8.43109 -0.083475 7.90239 0.242613 7.5763C0.5687 7.25022 1.09739 7.25022 1.42348 7.5763ZM16.5361 10.3111L16.4234 10.4238C16.0973 10.7499 15.5686 10.7499 15.2425 10.4238C14.9164 10.0977 14.9164 9.56906 15.2425 9.24297L16.9092 7.5763C17.2353 7.25021 17.764 7.25021 18.0901 7.5763L19.7567 9.24297C20.0828 9.56906 20.0828 10.0977 19.7567 10.4238C19.4306 10.7499 18.9019 10.7499 18.5759 10.4238L18.2591 10.1071C18.0763 11.4714 17.5573 12.7753 16.7414 13.8983C15.707 15.322 14.2485 16.3817 12.5748 16.9255C10.9011 17.4693 9.09818 17.4693 7.42449 16.9255C6.01593 16.4679 4.75973 15.6448 3.78051 14.5469C3.47417 14.2034 3.55966 13.679 3.932 13.4084C4.30434 13.1379 4.82199 13.2248 5.13682 13.5605C5.90293 14.3774 6.8659 14.9916 7.93952 15.3404C9.27847 15.7755 10.7208 15.7755 12.0597 15.3404C13.3987 14.9054 14.5656 14.0576 15.3931 12.9186C15.9604 12.1377 16.3483 11.2474 16.5361 10.3111Z" fill="#A3A3A3"/>
</svg>