<?xml version="1.0" encoding="UTF-8"?>
<svg width="19px" height="18px" viewBox="0 0 19 18" version="1.1" xmlns="http://www.w3.org/2000/svg" xmlns:xlink="http://www.w3.org/1999/xlink">
    <title>Group</title>
    <g id="Metadata-v6" stroke="none" stroke-width="1" fill="none" fill-rule="evenodd">
        <g id="Artboard" transform="translate(-27.000000, -6.000000)" fill="#000000">
            <g id="Group" transform="translate(27.490428, 6.455165)">
                <polygon id="Path-2" points="3.56360152 0.544834793 10.5390127 0.544834793 14.8253614 4.96945279 14.8253614 11.0910317 13.6510193 10.0025164 13.6510193 5.51495364 9.95184165 5.51495364 9.95184165 1.7570589 4.8505002 1.7570589"></polygon>
                <path d="M1.01918209,0 L18.1285509,15.992357 L17.1071223,17.0843975 L14.8253614,14.9639966 L14.8253614,15.4955988 C14.8406742,15.7872804 14.7358891,16.0577731 14.511006,16.3070771 C14.2861229,16.5563811 13.9994607,16.689963 13.6510193,16.7078229 L3.46360152,16.7078229 C3.10423339,16.6831039 2.81845342,16.5495219 2.60626161,16.3070771 C2.3940698,16.0646323 2.29166446,15.7941395 2.29904559,15.4955988 L2.29904559,3.25550145 L0,1.07872808 L1.01918209,0 Z M3.4733877,4.35254651 L3.46360152,15.4955988 L13.6510193,15.4955988 L13.6510193,13.8507889 L9.36266649,9.83855296 L5.41105217,9.83855296 L5.41105217,8.62632885 L8.06179984,8.62632885 L3.4733877,4.35254651 Z" id="Combined-Shape"></path>
                <polyline id="Path-5" points="5.41105217 12.0609638 8.56220349 12.0609638 11.7133548 12.0609638 11.7133548 13.2731879 5.41105217 13.2731879"></polyline>
            </g>
        </g>
    </g>
</svg>