<svg width="20" height="20" viewBox="0 0 20 20" fill="none" xmlns="http://www.w3.org/2000/svg">
<path d="M17.5001 10.0001C17.9603 10.0001 18.3377 10.3741 18.2918 10.832C18.1449 12.2959 17.6124 13.7001 16.7419 14.8983C15.7075 16.322 14.2489 17.3817 12.5752 17.9256C10.9015 18.4694 9.09863 18.4694 7.42494 17.9256C6.01638 17.4679 4.76019 16.6448 3.78096 15.5469C3.47463 15.2034 3.56011 14.679 3.93245 14.4085C4.30479 14.1379 4.82244 14.2248 5.13727 14.5605C5.90338 15.3774 6.86635 15.9916 7.93997 16.3405C9.27892 16.7755 10.7212 16.7755 12.0602 16.3405C13.3991 15.9054 14.566 15.0576 15.3935 13.9186C16.0571 13.0054 16.4751 11.9425 16.6147 10.8313C16.6721 10.3746 17.0398 10.0001 17.5001 10.0001Z" fill="#4B4B51"/>
<path d="M2.49992 9.99992C2.03968 9.99992 1.66227 9.62589 1.70821 9.16795C1.85508 7.70414 2.38757 6.2999 3.25811 5.10171C4.29251 3.67798 5.75108 2.61826 7.42478 2.07445C9.09847 1.53063 10.9014 1.53063 12.5751 2.07445C13.9836 2.53212 15.2398 3.35518 16.219 4.4531C16.5254 4.79658 16.4399 5.32101 16.0675 5.59153C15.6952 5.86205 15.1776 5.77518 14.8627 5.43947C14.0966 4.62257 13.1337 4.00838 12.06 3.65954C10.7211 3.22449 9.27876 3.22449 7.93981 3.65954C6.60085 4.09459 5.43399 4.94237 4.60647 6.08135C3.94294 6.99462 3.52489 8.05753 3.38526 9.16873C3.32788 9.62537 2.96016 9.99992 2.49992 9.99992Z" fill="#4B4B51"/>
<path d="M4.16675 9.16659L2.50008 10.8333L0.833415 9.16659" stroke="#4B4B51" stroke-width="1.67" stroke-linecap="round" stroke-linejoin="round"/>
<path d="M15.8333 10.8334L17.4999 9.16675L19.1666 10.8334" stroke="#4B4B51" stroke-width="1.67" stroke-linecap="round" stroke-linejoin="round"/>
</svg>