<svg width="18" height="18" viewBox="0 0 18 18" fill="none" xmlns="http://www.w3.org/2000/svg">
<mask id="path-1-inside-1_7637_68089" fill="white">
<path d="M0.620307 0.00167192C0.44948 0.0195768 0.291408 0.100342 0.1768 0.228277C0.0621917 0.356211 -0.000769027 0.522181 0.000149566 0.693941V3.92453C-0.00114778 4.01626 0.0157998 4.10734 0.0500074 4.19247C0.084215 4.27759 0.135 4.35507 0.199412 4.4204C0.263824 4.48573 0.340578 4.53761 0.425212 4.57302C0.509847 4.60842 0.600676 4.62666 0.692419 4.62666C0.784162 4.62666 0.87499 4.60842 0.959625 4.57302C1.04426 4.53761 1.12101 4.48573 1.18542 4.4204C1.24984 4.35507 1.30062 4.27759 1.33483 4.19247C1.36904 4.10734 1.38598 4.01626 1.38469 3.92453V2.35971L5.2787 6.25373C5.34095 6.32502 5.41716 6.38279 5.50261 6.42347C5.58806 6.46415 5.68095 6.48688 5.77553 6.49025C5.87012 6.49362 5.96439 6.47757 6.05252 6.44308C6.14066 6.40859 6.22078 6.35639 6.28795 6.28971C6.35512 6.22304 6.40791 6.1433 6.44305 6.05542C6.47819 5.96754 6.49494 5.87339 6.49227 5.77879C6.48959 5.68418 6.46755 5.59113 6.4275 5.50538C6.38745 5.41963 6.33024 5.343 6.25942 5.28022L2.3654 1.38621H3.92301C4.01474 1.38751 4.10582 1.37056 4.19095 1.33635C4.27607 1.30214 4.35355 1.25136 4.41888 1.18695C4.48421 1.12254 4.53609 1.04578 4.57149 0.961147C4.6069 0.876512 4.62514 0.785684 4.62514 0.693941C4.62514 0.602198 4.6069 0.51137 4.57149 0.426735C4.53609 0.3421 4.48421 0.265346 4.41888 0.200935C4.35355 0.136523 4.27607 0.0857373 4.19095 0.0515297C4.10582 0.0173221 4.01474 0.00037457 3.92301 0.00167192H0.692419C0.668398 0.000419257 0.644328 0.000419257 0.620307 0.00167192ZM14.0042 0.00167192C13.9133 0.00639155 13.8242 0.0289752 13.742 0.068133C13.6598 0.107291 13.5861 0.162256 13.5251 0.22989C13.4642 0.297523 13.4172 0.3765 13.3867 0.46231C13.3563 0.54812 13.3431 0.639082 13.3478 0.730003C13.3526 0.820923 13.3752 0.91002 13.4143 0.992205C13.4535 1.07439 13.5085 1.14805 13.5761 1.20899C13.6438 1.26993 13.7228 1.31694 13.8086 1.34735C13.8944 1.37776 13.9854 1.39096 14.0763 1.38621H15.6339L11.7399 5.28022C11.669 5.343 11.6118 5.41963 11.5718 5.50538C11.5317 5.59113 11.5097 5.68418 11.507 5.77879C11.5043 5.87339 11.5211 5.96754 11.5562 6.05542C11.5914 6.1433 11.6442 6.22304 11.7113 6.28971C11.7785 6.35639 11.8586 6.40859 11.9468 6.44308C12.0349 6.47757 12.1292 6.49362 12.2238 6.49025C12.3183 6.48688 12.4112 6.46415 12.4967 6.42347C12.5821 6.38279 12.6583 6.32502 12.7206 6.25373L16.6146 2.35971V3.92453C16.6133 4.01626 16.6303 4.10734 16.6645 4.19247C16.6987 4.27759 16.7495 4.35507 16.8139 4.4204C16.8783 4.48573 16.955 4.53761 17.0397 4.57302C17.1243 4.60842 17.2151 4.62666 17.3069 4.62666C17.3986 4.62666 17.4894 4.60842 17.5741 4.57302C17.6587 4.53761 17.7355 4.48573 17.7999 4.4204C17.8643 4.35507 17.9151 4.27759 17.9493 4.19247C17.9835 4.10734 18.0004 4.01626 17.9991 3.92453V0.693941C17.9991 0.510345 17.9262 0.334275 17.7964 0.204453C17.6665 0.0746315 17.4905 0.00169027 17.3069 0.00167192H14.0763C14.0523 0.000419257 14.0282 0.000419257 14.0042 0.00167192ZM5.68974 11.5323C5.53285 11.553 5.38779 11.6268 5.2787 11.7414L1.38469 15.6354V14.0778C1.38662 13.9851 1.36989 13.8929 1.33552 13.8068C1.30114 13.7206 1.2498 13.6423 1.18456 13.5764C1.11932 13.5105 1.0415 13.4583 0.955716 13.4231C0.869936 13.3878 0.777946 13.3701 0.685207 13.3711C0.593682 13.3721 0.503252 13.3911 0.419149 13.4273C0.335046 13.4634 0.258939 13.5158 0.195232 13.5815C0.131524 13.6472 0.0814797 13.7249 0.0479944 13.8101C0.0145091 13.8953 -0.00175282 13.9863 0.000149566 14.0778V17.3084C0.000167923 17.492 0.0731092 17.6681 0.202931 17.7979C0.332752 17.9277 0.508823 18.0006 0.692419 18.0007H3.92301C4.01474 18.002 4.10582 17.985 4.19095 17.9508C4.27607 17.9166 4.35355 17.8658 4.41888 17.8014C4.48421 17.737 4.53609 17.6602 4.57149 17.5756C4.6069 17.491 4.62514 17.4001 4.62514 17.3084C4.62514 17.2167 4.6069 17.1258 4.57149 17.0412C4.53609 16.9566 4.48421 16.8798 4.41888 16.8154C4.35355 16.751 4.27607 16.7002 4.19095 16.666C4.10582 16.6318 4.01474 16.6148 3.92301 16.6161H2.35819L6.25942 12.7149C6.36327 12.6136 6.4327 12.4823 6.45789 12.3394C6.48308 12.1966 6.46277 12.0494 6.39981 11.9187C6.33686 11.7881 6.23445 11.6805 6.10704 11.6111C5.97963 11.5418 5.83366 11.5142 5.68974 11.5323ZM12.1509 11.5323C12.0205 11.5463 11.8967 11.597 11.7939 11.6787C11.6912 11.7603 11.6138 11.8694 11.5707 11.9934C11.5277 12.1173 11.5207 12.2509 11.5506 12.3787C11.5806 12.5064 11.6462 12.623 11.7399 12.7149L15.6411 16.6161H14.0763C13.9846 16.6148 13.8935 16.6318 13.8083 16.666C13.7232 16.7002 13.6457 16.751 13.5804 16.8154C13.5151 16.8798 13.4632 16.9566 13.4278 17.0412C13.3924 17.1258 13.3742 17.2167 13.3742 17.3084C13.3742 17.4001 13.3924 17.491 13.4278 17.5756C13.4632 17.6602 13.5151 17.737 13.5804 17.8014C13.6457 17.8658 13.7232 17.9166 13.8083 17.9508C13.8935 17.985 13.9846 18.002 14.0763 18.0007H17.3069C17.4905 18.0006 17.6665 17.9277 17.7964 17.7979C17.9262 17.6681 17.9991 17.492 17.9991 17.3084V14.0778C18.0011 13.9851 17.9844 13.8929 17.95 13.8068C17.9156 13.7206 17.8643 13.6423 17.799 13.5764C17.7338 13.5105 17.656 13.4583 17.5702 13.4231C17.4844 13.3878 17.3924 13.3701 17.2997 13.3711C17.2081 13.3721 17.1177 13.3911 17.0336 13.4273C16.9495 13.4634 16.8734 13.5158 16.8097 13.5815C16.746 13.6472 16.6959 13.7249 16.6624 13.8101C16.629 13.8953 16.6127 13.9863 16.6146 14.0778V15.6354L12.7206 11.7414C12.6477 11.6656 12.5586 11.6073 12.4599 11.5711C12.3612 11.5349 12.2555 11.5216 12.1509 11.5323Z"/>
</mask>
<path d="M0.620307 0.00167192C0.44948 0.0195768 0.291408 0.100342 0.1768 0.228277C0.0621917 0.356211 -0.000769027 0.522181 0.000149566 0.693941V3.92453C-0.00114778 4.01626 0.0157998 4.10734 0.0500074 4.19247C0.084215 4.27759 0.135 4.35507 0.199412 4.4204C0.263824 4.48573 0.340578 4.53761 0.425212 4.57302C0.509847 4.60842 0.600676 4.62666 0.692419 4.62666C0.784162 4.62666 0.87499 4.60842 0.959625 4.57302C1.04426 4.53761 1.12101 4.48573 1.18542 4.4204C1.24984 4.35507 1.30062 4.27759 1.33483 4.19247C1.36904 4.10734 1.38598 4.01626 1.38469 3.92453V2.35971L5.2787 6.25373C5.34095 6.32502 5.41716 6.38279 5.50261 6.42347C5.58806 6.46415 5.68095 6.48688 5.77553 6.49025C5.87012 6.49362 5.96439 6.47757 6.05252 6.44308C6.14066 6.40859 6.22078 6.35639 6.28795 6.28971C6.35512 6.22304 6.40791 6.1433 6.44305 6.05542C6.47819 5.96754 6.49494 5.87339 6.49227 5.77879C6.48959 5.68418 6.46755 5.59113 6.4275 5.50538C6.38745 5.41963 6.33024 5.343 6.25942 5.28022L2.3654 1.38621H3.92301C4.01474 1.38751 4.10582 1.37056 4.19095 1.33635C4.27607 1.30214 4.35355 1.25136 4.41888 1.18695C4.48421 1.12254 4.53609 1.04578 4.57149 0.961147C4.6069 0.876512 4.62514 0.785684 4.62514 0.693941C4.62514 0.602198 4.6069 0.51137 4.57149 0.426735C4.53609 0.3421 4.48421 0.265346 4.41888 0.200935C4.35355 0.136523 4.27607 0.0857373 4.19095 0.0515297C4.10582 0.0173221 4.01474 0.00037457 3.92301 0.00167192H0.692419C0.668398 0.000419257 0.644328 0.000419257 0.620307 0.00167192ZM14.0042 0.00167192C13.9133 0.00639155 13.8242 0.0289752 13.742 0.068133C13.6598 0.107291 13.5861 0.162256 13.5251 0.22989C13.4642 0.297523 13.4172 0.3765 13.3867 0.46231C13.3563 0.54812 13.3431 0.639082 13.3478 0.730003C13.3526 0.820923 13.3752 0.91002 13.4143 0.992205C13.4535 1.07439 13.5085 1.14805 13.5761 1.20899C13.6438 1.26993 13.7228 1.31694 13.8086 1.34735C13.8944 1.37776 13.9854 1.39096 14.0763 1.38621H15.6339L11.7399 5.28022C11.669 5.343 11.6118 5.41963 11.5718 5.50538C11.5317 5.59113 11.5097 5.68418 11.507 5.77879C11.5043 5.87339 11.5211 5.96754 11.5562 6.05542C11.5914 6.1433 11.6442 6.22304 11.7113 6.28971C11.7785 6.35639 11.8586 6.40859 11.9468 6.44308C12.0349 6.47757 12.1292 6.49362 12.2238 6.49025C12.3183 6.48688 12.4112 6.46415 12.4967 6.42347C12.5821 6.38279 12.6583 6.32502 12.7206 6.25373L16.6146 2.35971V3.92453C16.6133 4.01626 16.6303 4.10734 16.6645 4.19247C16.6987 4.27759 16.7495 4.35507 16.8139 4.4204C16.8783 4.48573 16.955 4.53761 17.0397 4.57302C17.1243 4.60842 17.2151 4.62666 17.3069 4.62666C17.3986 4.62666 17.4894 4.60842 17.5741 4.57302C17.6587 4.53761 17.7355 4.48573 17.7999 4.4204C17.8643 4.35507 17.9151 4.27759 17.9493 4.19247C17.9835 4.10734 18.0004 4.01626 17.9991 3.92453V0.693941C17.9991 0.510345 17.9262 0.334275 17.7964 0.204453C17.6665 0.0746315 17.4905 0.00169027 17.3069 0.00167192H14.0763C14.0523 0.000419257 14.0282 0.000419257 14.0042 0.00167192ZM5.68974 11.5323C5.53285 11.553 5.38779 11.6268 5.2787 11.7414L1.38469 15.6354V14.0778C1.38662 13.9851 1.36989 13.8929 1.33552 13.8068C1.30114 13.7206 1.2498 13.6423 1.18456 13.5764C1.11932 13.5105 1.0415 13.4583 0.955716 13.4231C0.869936 13.3878 0.777946 13.3701 0.685207 13.3711C0.593682 13.3721 0.503252 13.3911 0.419149 13.4273C0.335046 13.4634 0.258939 13.5158 0.195232 13.5815C0.131524 13.6472 0.0814797 13.7249 0.0479944 13.8101C0.0145091 13.8953 -0.00175282 13.9863 0.000149566 14.0778V17.3084C0.000167923 17.492 0.0731092 17.6681 0.202931 17.7979C0.332752 17.9277 0.508823 18.0006 0.692419 18.0007H3.92301C4.01474 18.002 4.10582 17.985 4.19095 17.9508C4.27607 17.9166 4.35355 17.8658 4.41888 17.8014C4.48421 17.737 4.53609 17.6602 4.57149 17.5756C4.6069 17.491 4.62514 17.4001 4.62514 17.3084C4.62514 17.2167 4.6069 17.1258 4.57149 17.0412C4.53609 16.9566 4.48421 16.8798 4.41888 16.8154C4.35355 16.751 4.27607 16.7002 4.19095 16.666C4.10582 16.6318 4.01474 16.6148 3.92301 16.6161H2.35819L6.25942 12.7149C6.36327 12.6136 6.4327 12.4823 6.45789 12.3394C6.48308 12.1966 6.46277 12.0494 6.39981 11.9187C6.33686 11.7881 6.23445 11.6805 6.10704 11.6111C5.97963 11.5418 5.83366 11.5142 5.68974 11.5323ZM12.1509 11.5323C12.0205 11.5463 11.8967 11.597 11.7939 11.6787C11.6912 11.7603 11.6138 11.8694 11.5707 11.9934C11.5277 12.1173 11.5207 12.2509 11.5506 12.3787C11.5806 12.5064 11.6462 12.623 11.7399 12.7149L15.6411 16.6161H14.0763C13.9846 16.6148 13.8935 16.6318 13.8083 16.666C13.7232 16.7002 13.6457 16.751 13.5804 16.8154C13.5151 16.8798 13.4632 16.9566 13.4278 17.0412C13.3924 17.1258 13.3742 17.2167 13.3742 17.3084C13.3742 17.4001 13.3924 17.491 13.4278 17.5756C13.4632 17.6602 13.5151 17.737 13.5804 17.8014C13.6457 17.8658 13.7232 17.9166 13.8083 17.9508C13.8935 17.985 13.9846 18.002 14.0763 18.0007H17.3069C17.4905 18.0006 17.6665 17.9277 17.7964 17.7979C17.9262 17.6681 17.9991 17.492 17.9991 17.3084V14.0778C18.0011 13.9851 17.9844 13.8929 17.95 13.8068C17.9156 13.7206 17.8643 13.6423 17.799 13.5764C17.7338 13.5105 17.656 13.4583 17.5702 13.4231C17.4844 13.3878 17.3924 13.3701 17.2997 13.3711C17.2081 13.3721 17.1177 13.3911 17.0336 13.4273C16.9495 13.4634 16.8734 13.5158 16.8097 13.5815C16.746 13.6472 16.6959 13.7249 16.6624 13.8101C16.629 13.8953 16.6127 13.9863 16.6146 14.0778V15.6354L12.7206 11.7414C12.6477 11.6656 12.5586 11.6073 12.4599 11.5711C12.3612 11.5349 12.2555 11.5216 12.1509 11.5323Z" fill="#A3A3A3" stroke="#A3A3A3" stroke-width="14" mask="url(#path-1-inside-1_7637_68089)"/>
</svg>