<svg width="18" height="18" viewBox="0 0 18 18" fill="none" xmlns="http://www.w3.org/2000/svg">
<g clip-path="url(#clip0_1453_238433)">
<mask id="path-1-inside-1_1453_238433" fill="white">
<path d="M12.13 11.5117C11.9592 11.5296 11.8011 11.6104 11.6865 11.7383C11.5719 11.8662 11.5089 12.0322 11.5098 12.204V15.4345C11.5085 15.5263 11.5255 15.6174 11.5597 15.7025C11.5939 15.7876 11.6447 15.8651 11.7091 15.9304C11.7735 15.9957 11.8503 16.0476 11.9349 16.083C12.0195 16.1184 12.1104 16.1367 12.2021 16.1367C12.2938 16.1367 12.3847 16.1184 12.4693 16.083C12.5539 16.0476 12.6307 15.9957 12.6951 15.9304C12.7595 15.8651 12.8103 15.7876 12.8445 15.7025C12.8787 15.6174 12.8957 15.5263 12.8944 15.4345V13.8697L16.7884 17.7637C16.8506 17.835 16.9268 17.8928 17.0123 17.9335C17.0977 17.9742 17.1906 17.9969 17.2852 18.0003C17.3798 18.0036 17.4741 17.9876 17.5622 17.9531C17.6503 17.9186 17.7305 17.8664 17.7976 17.7997C17.8648 17.733 17.9176 17.6533 17.9527 17.5654C17.9879 17.4776 18.0046 17.3834 18.002 17.2888C17.9993 17.1942 17.9772 17.1011 17.9372 17.0154C17.8971 16.9296 17.8399 16.853 17.7691 16.7902L13.8751 12.8962H15.4327C15.5244 12.8975 15.6155 12.8806 15.7006 12.8464C15.7858 12.8122 15.8632 12.7614 15.9286 12.697C15.9939 12.6325 16.0458 12.5558 16.0812 12.4712C16.1166 12.3865 16.1348 12.2957 16.1348 12.204C16.1348 12.1122 16.1166 12.0214 16.0812 11.9367C16.0458 11.8521 15.9939 11.7754 15.9286 11.7109C15.8632 11.6465 15.7858 11.5957 15.7006 11.5615C15.6155 11.5273 15.5244 11.5104 15.4327 11.5117H12.2021C12.1781 11.5104 12.154 11.5104 12.13 11.5117Z"/>
</mask>
<path d="M12.13 11.5117C11.9592 11.5296 11.8011 11.6104 11.6865 11.7383C11.5719 11.8662 11.5089 12.0322 11.5098 12.204V15.4345C11.5085 15.5263 11.5255 15.6174 11.5597 15.7025C11.5939 15.7876 11.6447 15.8651 11.7091 15.9304C11.7735 15.9957 11.8503 16.0476 11.9349 16.083C12.0195 16.1184 12.1104 16.1367 12.2021 16.1367C12.2938 16.1367 12.3847 16.1184 12.4693 16.083C12.5539 16.0476 12.6307 15.9957 12.6951 15.9304C12.7595 15.8651 12.8103 15.7876 12.8445 15.7025C12.8787 15.6174 12.8957 15.5263 12.8944 15.4345V13.8697L16.7884 17.7637C16.8506 17.835 16.9268 17.8928 17.0123 17.9335C17.0977 17.9742 17.1906 17.9969 17.2852 18.0003C17.3798 18.0036 17.4741 17.9876 17.5622 17.9531C17.6503 17.9186 17.7305 17.8664 17.7976 17.7997C17.8648 17.733 17.9176 17.6533 17.9527 17.5654C17.9879 17.4776 18.0046 17.3834 18.002 17.2888C17.9993 17.1942 17.9772 17.1011 17.9372 17.0154C17.8971 16.9296 17.8399 16.853 17.7691 16.7902L13.8751 12.8962H15.4327C15.5244 12.8975 15.6155 12.8806 15.7006 12.8464C15.7858 12.8122 15.8632 12.7614 15.9286 12.697C15.9939 12.6325 16.0458 12.5558 16.0812 12.4712C16.1166 12.3865 16.1348 12.2957 16.1348 12.204C16.1348 12.1122 16.1166 12.0214 16.0812 11.9367C16.0458 11.8521 15.9939 11.7754 15.9286 11.7109C15.8632 11.6465 15.7858 11.5957 15.7006 11.5615C15.6155 11.5273 15.5244 11.5104 15.4327 11.5117H12.2021C12.1781 11.5104 12.154 11.5104 12.13 11.5117Z" fill="#A3A3A3"/>
<path d="M12.13 11.5117L11.7654 4.52118L11.5825 4.53072L11.4003 4.54982L12.13 11.5117ZM11.5098 12.204H18.5098V12.1852L18.5097 12.1665L11.5098 12.204ZM11.5098 15.4345L18.5091 15.5335L18.5098 15.484V15.4345H11.5098ZM12.8944 15.4345H5.89437V15.484L5.89507 15.5335L12.8944 15.4345ZM12.8944 13.8697L17.8441 8.91997L5.89437 -3.02977V13.8697H12.8944ZM16.7884 17.7637L22.0612 13.1596L21.9055 12.9813L21.7381 12.814L16.7884 17.7637ZM17.7691 16.7902L12.8194 21.74L12.9684 21.8891L13.1262 22.0289L17.7691 16.7902ZM13.8751 12.8962V5.89622H-3.02441L8.92534 17.846L13.8751 12.8962ZM15.4327 12.8962L15.5317 5.89692L15.4822 5.89622H15.4327V12.8962ZM15.4327 11.5117V18.5117H15.4822L15.5317 18.511L15.4327 11.5117ZM12.2021 11.5117L11.8376 18.5022L12.0197 18.5117H12.2021V11.5117ZM11.4003 4.54982C9.5023 4.74875 7.74601 5.64611 6.47264 7.06755L16.9003 16.409C15.8562 17.5746 14.416 18.3104 12.8597 18.4735L11.4003 4.54982ZM6.47264 7.06755C5.19926 8.48899 4.49973 10.333 4.50993 12.2414L18.5097 12.1665C18.5181 13.7314 17.9445 15.2435 16.9003 16.409L6.47264 7.06755ZM4.50983 12.204V15.4345H18.5098V12.204H4.50983ZM4.51053 15.3356C4.49612 16.3548 4.68442 17.3667 5.06449 18.3125L18.0549 13.0924C18.3666 13.868 18.521 14.6978 18.5091 15.5335L4.51053 15.3356ZM5.06449 18.3125C5.44456 19.2583 6.00882 20.1192 6.72448 20.845L16.6937 11.0158C17.2806 11.611 17.7432 12.3169 18.0549 13.0924L5.06449 18.3125ZM6.72448 20.845C7.44015 21.5709 8.29293 22.1473 9.23327 22.5407L14.6365 9.62538C15.4076 9.94796 16.1069 10.4206 16.6937 11.0158L6.72448 20.845ZM9.23327 22.5407C10.1736 22.9341 11.1828 23.1367 12.2021 23.1367V9.13667C13.0379 9.13667 13.8654 9.30279 14.6365 9.62538L9.23327 22.5407ZM12.2021 23.1367C13.2214 23.1367 14.2306 22.9341 15.1709 22.5407L9.76768 9.62538C10.5388 9.30279 11.3663 9.13667 12.2021 9.13667V23.1367ZM15.1709 22.5407C16.1113 22.1473 16.9641 21.5709 17.6797 20.845L7.71049 11.0158C8.29734 10.4206 8.99662 9.94796 9.76768 9.62538L15.1709 22.5407ZM17.6797 20.845C18.3954 20.1192 18.9597 19.2583 19.3397 18.3125L6.34931 13.0924C6.66096 12.3169 7.12365 11.611 7.71049 11.0158L17.6797 20.845ZM19.3397 18.3125C19.7198 17.3667 19.9081 16.3548 19.8937 15.3356L5.89507 15.5335C5.88325 14.6978 6.03766 13.868 6.34931 13.0924L19.3397 18.3125ZM19.8944 15.4345V13.8697H5.89437V15.4345H19.8944ZM7.94463 18.8195L11.8386 22.7135L21.7381 12.814L17.8441 8.91997L7.94463 18.8195ZM11.5156 22.3679C12.2073 23.1599 13.0539 23.8018 14.0034 24.2538L20.0212 11.6131C20.7997 11.9838 21.494 12.5101 22.0612 13.1596L11.5156 22.3679ZM14.0034 24.2538C14.9529 24.7058 15.9849 24.9583 17.0358 24.9958L17.5347 11.0047C18.3964 11.0354 19.2426 11.2425 20.0212 11.6131L14.0034 24.2538ZM17.0358 24.9958C18.0866 25.0333 19.134 24.8549 20.1133 24.4717L15.0111 11.4345C15.8141 11.1202 16.673 10.974 17.5347 11.0047L17.0358 24.9958ZM20.1133 24.4717C21.0925 24.0884 21.9828 23.5085 22.7291 22.7677L12.8662 12.8317C13.4782 12.2243 14.2082 11.7487 15.0111 11.4345L20.1133 24.4717ZM22.7291 22.7677C23.4754 22.0269 24.0619 21.1409 24.4523 20.1646L11.4532 14.9663C11.7733 14.1657 12.2542 13.4392 12.8662 12.8317L22.7291 22.7677ZM24.4523 20.1646C24.8428 19.1882 25.0289 18.1421 24.9992 17.091L11.0047 17.4866C10.9804 16.6247 11.133 15.7669 11.4532 14.9663L24.4523 20.1646ZM24.9992 17.091C24.9694 16.0398 24.7245 15.0059 24.2795 14.0532L11.5948 19.9776C11.23 19.1963 11.0291 18.3486 11.0047 17.4866L24.9992 17.091ZM24.2795 14.0532C23.8346 13.1005 23.199 12.2491 22.412 11.5516L13.1262 22.0289C12.4809 21.4569 11.9597 20.7588 11.5948 19.9776L24.2795 14.0532ZM22.7188 11.8405L18.8248 7.94647L8.92534 17.846L12.8194 21.74L22.7188 11.8405ZM13.8751 19.8962H15.4327V5.89622H13.8751V19.8962ZM15.3337 19.8955C16.3529 19.9099 17.3649 19.7216 18.3107 19.3416L13.0906 6.35116C13.8662 6.0395 14.6959 5.8851 15.5317 5.89692L15.3337 19.8955ZM18.3107 19.3416C19.2565 18.9615 20.1173 18.3972 20.8432 17.6816L11.0139 7.71233C11.6091 7.1255 12.315 6.66281 13.0906 6.35116L18.3107 19.3416ZM20.8432 17.6816C21.569 16.9659 22.1454 16.1131 22.5388 15.1728L9.62353 9.76953C9.94612 8.99844 10.4188 8.29917 11.0139 7.71233L20.8432 17.6816ZM22.5388 15.1728C22.9322 14.2324 23.1348 13.2233 23.1348 12.204H9.13482C9.13482 11.3681 9.30093 10.5406 9.62353 9.76953L22.5388 15.1728ZM23.1348 12.204C23.1348 11.1846 22.9322 10.1755 22.5388 9.23511L9.62353 14.6384C9.30093 13.8673 9.13482 13.0398 9.13482 12.204H23.1348ZM22.5388 9.23511C22.1454 8.29476 21.569 7.44198 20.8432 6.72632L11.0139 16.6956C10.4188 16.1087 9.94613 15.4095 9.62353 14.6384L22.5388 9.23511ZM20.8432 6.72632C20.1173 6.01066 19.2565 5.4464 18.3107 5.06634L13.0906 18.0567C12.315 17.7451 11.6091 17.2824 11.0139 16.6956L20.8432 6.72632ZM18.3107 5.06634C17.3649 4.68626 16.3529 4.49797 15.3337 4.51238L15.5317 18.511C14.6959 18.5228 13.8662 18.3684 13.0906 18.0567L18.3107 5.06634ZM15.4327 4.51168H12.2021V18.5117H15.4327V4.51168ZM12.5667 4.52118C12.2998 4.50726 12.0323 4.50726 11.7654 4.52118L12.4945 18.5022C12.2757 18.5136 12.0564 18.5136 11.8376 18.5022L12.5667 4.52118Z" fill="#A3A3A3" mask="url(#path-1-inside-1_1453_238433)"/>
<mask id="path-3-inside-2_1453_238433" fill="white">
<path d="M5.87196 6.48978C6.04279 6.47188 6.20086 6.39111 6.31547 6.26318C6.43008 6.13524 6.49304 5.96927 6.49212 5.79751V2.56693C6.49342 2.47519 6.47647 2.38411 6.44226 2.29899C6.40805 2.21386 6.35727 2.13638 6.29286 2.07105C6.22844 2.00572 6.15169 1.95385 6.06706 1.91844C5.98242 1.88303 5.89159 1.8648 5.79985 1.8648C5.70811 1.8648 5.61728 1.88303 5.53264 1.91844C5.44801 1.95385 5.37125 2.00572 5.30684 2.07105C5.24243 2.13638 5.19165 2.21386 5.15744 2.29899C5.12323 2.38411 5.10628 2.47519 5.10758 2.56693V4.13174L1.21357 0.23773C1.15132 0.166439 1.07511 0.108669 0.989657 0.067987C0.904203 0.0273051 0.811316 0.00457668 0.716733 0.00120401C0.622149 -0.00216866 0.527879 0.0138865 0.439745 0.0483785C0.351611 0.0828705 0.271484 0.135066 0.204314 0.201742C0.137145 0.268417 0.0843592 0.348157 0.0492177 0.436034C0.0140762 0.523911 -0.00267506 0.618062 -4.76837e-07 0.712667C0.0026741 0.807272 0.0247178 0.900325 0.0647678 0.986077C0.104818 1.07183 0.162024 1.14846 0.232852 1.21123L4.12687 5.10525H2.56926C2.47753 5.10395 2.38645 5.1209 2.30132 5.1551C2.2162 5.18931 2.13872 5.2401 2.07339 5.30451C2.00806 5.36892 1.95618 5.44567 1.92077 5.53031C1.88537 5.61494 1.86713 5.70577 1.86713 5.79751C1.86713 5.88926 1.88537 5.98009 1.92077 6.06472C1.95618 6.14936 2.00806 6.22611 2.07339 6.29052C2.13872 6.35493 2.2162 6.40572 2.30132 6.43993C2.38645 6.47413 2.47753 6.49108 2.56926 6.48978H5.79985C5.82387 6.49104 5.84794 6.49104 5.87196 6.48978Z"/>
</mask>
<path d="M5.87196 6.48978C6.04279 6.47188 6.20086 6.39111 6.31547 6.26318C6.43008 6.13524 6.49304 5.96927 6.49212 5.79751V2.56693C6.49342 2.47519 6.47647 2.38411 6.44226 2.29899C6.40805 2.21386 6.35727 2.13638 6.29286 2.07105C6.22844 2.00572 6.15169 1.95385 6.06706 1.91844C5.98242 1.88303 5.89159 1.8648 5.79985 1.8648C5.70811 1.8648 5.61728 1.88303 5.53264 1.91844C5.44801 1.95385 5.37125 2.00572 5.30684 2.07105C5.24243 2.13638 5.19165 2.21386 5.15744 2.29899C5.12323 2.38411 5.10628 2.47519 5.10758 2.56693V4.13174L1.21357 0.23773C1.15132 0.166439 1.07511 0.108669 0.989657 0.067987C0.904203 0.0273051 0.811316 0.00457668 0.716733 0.00120401C0.622149 -0.00216866 0.527879 0.0138865 0.439745 0.0483785C0.351611 0.0828705 0.271484 0.135066 0.204314 0.201742C0.137145 0.268417 0.0843592 0.348157 0.0492177 0.436034C0.0140762 0.523911 -0.00267506 0.618062 -4.76837e-07 0.712667C0.0026741 0.807272 0.0247178 0.900325 0.0647678 0.986077C0.104818 1.07183 0.162024 1.14846 0.232852 1.21123L4.12687 5.10525H2.56926C2.47753 5.10395 2.38645 5.1209 2.30132 5.1551C2.2162 5.18931 2.13872 5.2401 2.07339 5.30451C2.00806 5.36892 1.95618 5.44567 1.92077 5.53031C1.88537 5.61494 1.86713 5.70577 1.86713 5.79751C1.86713 5.88926 1.88537 5.98009 1.92077 6.06472C1.95618 6.14936 2.00806 6.22611 2.07339 6.29052C2.13872 6.35493 2.2162 6.40572 2.30132 6.43993C2.38645 6.47413 2.47753 6.49108 2.56926 6.48978H5.79985C5.82387 6.49104 5.84794 6.49104 5.87196 6.48978Z" fill="#A3A3A3"/>
<path d="M5.87196 6.48978L6.23651 13.4803L6.41946 13.4707L6.60165 13.4516L5.87196 6.48978ZM6.49212 5.79751H-0.507882V5.81623L-0.507782 5.83495L6.49212 5.79751ZM6.49212 2.56693L-0.507182 2.46794L-0.507882 2.51743V2.56693H6.49212ZM5.10758 2.56693H12.1076V2.51743L12.1069 2.46794L5.10758 2.56693ZM5.10758 4.13174L0.157834 9.08149L12.1076 21.0312V4.13174H5.10758ZM1.21357 0.23773L-4.0592 4.84185L-3.90353 5.02012L-3.73618 5.18748L1.21357 0.23773ZM0.232852 1.21123L5.1826 -3.73851L5.03353 -3.88759L4.87576 -4.02741L0.232852 1.21123ZM4.12687 5.10525V12.1052H21.0264L9.07661 0.155498L4.12687 5.10525ZM2.56926 5.10525L2.47027 12.1045L2.51976 12.1052H2.56926V5.10525ZM2.56926 6.48978V-0.510217H2.51976L2.47027 -0.509517L2.56926 6.48978ZM5.79985 6.48978L6.1644 -0.500718L5.98225 -0.510217H5.79985V6.48978ZM6.60165 13.4516C8.49965 13.2527 10.2559 12.3554 11.5293 10.9339L1.10162 1.59244C2.14578 0.426868 3.58592 -0.308956 5.14227 -0.472081L6.60165 13.4516ZM11.5293 10.9339C12.8027 9.51248 13.5022 7.66845 13.492 5.76008L-0.507782 5.83495C-0.51615 4.2701 0.0574632 2.75801 1.10162 1.59244L11.5293 10.9339ZM13.4921 5.79751V2.56693H-0.507882V5.79751H13.4921ZM13.4914 2.66591C13.5058 1.64669 13.3175 0.634768 12.9375 -0.311055L-0.0529437 4.90903C-0.364599 4.13346 -0.519001 3.30369 -0.507182 2.46794L13.4914 2.66591ZM12.9375 -0.311055C12.5574 -1.25687 11.9931 -2.11772 11.2775 -2.84357L1.30823 6.98568C0.721399 6.39049 0.258711 5.6846 -0.0529437 4.90903L12.9375 -0.311055ZM11.2775 -2.84357C10.5618 -3.56944 9.70902 -4.14581 8.76869 -4.53921L3.36542 8.37609C2.59436 8.0535 1.89508 7.58088 1.30823 6.98568L11.2775 -2.84357ZM8.76869 -4.53921C7.82834 -4.93261 6.81917 -5.1352 5.79985 -5.1352V8.8648C4.96401 8.8648 4.1365 8.69868 3.36542 8.37609L8.76869 -4.53921ZM5.79985 -5.1352C4.78052 -5.1352 3.77136 -4.93261 2.83101 -4.53921L8.23427 8.37609C7.46319 8.69868 6.63569 8.8648 5.79985 8.8648V-5.1352ZM2.83101 -4.53921C1.89068 -4.14581 1.03789 -3.56944 0.322221 -2.84357L10.2915 6.98568C9.70462 7.58088 9.00534 8.0535 8.23427 8.37609L2.83101 -4.53921ZM0.322221 -2.84357C-0.393439 -2.11772 -0.957697 -1.25687 -1.33777 -0.311055L11.6526 4.90903C11.341 5.68459 10.8783 6.39048 10.2915 6.98568L0.322221 -2.84357ZM-1.33777 -0.311055C-1.71784 0.634766 -1.90613 1.64669 -1.89172 2.66591L12.1069 2.46794C12.1187 3.30369 11.9643 4.13346 11.6526 4.90903L-1.33777 -0.311055ZM-1.89242 2.56693V4.13174H12.1076V2.56693H-1.89242ZM10.0573 -0.818006L6.16331 -4.71202L-3.73618 5.18748L0.157834 9.08149L10.0573 -0.818006ZM6.48633 -4.36639C5.7947 -5.15847 4.94801 -5.80034 3.99855 -6.25234L-2.01924 6.38832C-2.79779 6.01767 -3.49207 5.49135 -4.0592 4.84185L6.48633 -4.36639ZM3.99855 -6.25234C3.04908 -6.70435 2.01704 -6.95688 0.966178 -6.99435L0.467288 6.99676C-0.394404 6.96603 -1.24067 6.75896 -2.01924 6.38832L3.99855 -6.25234ZM0.966178 -6.99435C-0.0846844 -7.03182 -1.13209 -6.85344 -2.11134 -6.47021L2.99083 6.56696C2.18785 6.88122 1.32898 7.02748 0.467288 6.99676L0.966178 -6.99435ZM-2.11134 -6.47021C-3.09057 -6.08698 -3.98083 -5.50705 -4.72713 -4.76624L5.13576 5.16972C4.5238 5.77719 3.79379 6.25272 2.99083 6.56696L-2.11134 -6.47021ZM-4.72713 -4.76624C-5.47344 -4.02542 -6.05992 -3.13946 -6.45036 -2.16309L6.5488 3.03516C6.22864 3.83577 5.74773 4.56225 5.13576 5.16972L-4.72713 -4.76624ZM-6.45036 -2.16309C-6.8408 -1.18673 -7.02692 -0.140669 -6.9972 0.910479L6.9972 0.514855C7.02157 1.37679 6.86895 2.23455 6.5488 3.03516L-6.45036 -2.16309ZM-6.9972 0.910479C-6.96749 1.96165 -6.72256 2.99552 -6.27759 3.94825L6.40713 -1.97609C6.77199 -1.19487 6.97284 -0.347106 6.9972 0.514855L-6.9972 0.910479ZM-6.27759 3.94825C-5.83262 4.90098 -5.19703 5.7524 -4.41005 6.44988L4.87576 -4.02741C5.52108 -3.45548 6.04226 -2.75733 6.40713 -1.97609L-6.27759 3.94825ZM-4.71689 6.16098L-0.822881 10.055L9.07661 0.155498L5.1826 -3.73851L-4.71689 6.16098ZM4.12687 -1.89475H2.56926V12.1052H4.12687V-1.89475ZM2.66825 -1.89405C1.64903 -1.90847 0.6371 -1.72017 -0.30872 -1.3401L4.91137 11.6503C4.1358 11.962 3.30603 12.1164 2.47027 12.1045L2.66825 -1.89405ZM-0.30872 -1.3401C-1.25454 -0.960032 -2.11539 -0.395773 -2.84124 0.319886L6.98801 10.2891C6.39282 10.876 5.68693 11.3387 4.91137 11.6503L-0.30872 -1.3401ZM-2.84124 0.319886C-3.56709 1.03554 -4.14347 1.88833 -4.53687 2.82868L8.37842 8.23194C8.05583 9.00302 7.5832 9.7023 6.98801 10.2891L-2.84124 0.319886ZM-4.53687 2.82868C-4.93029 3.76905 -5.13287 4.77821 -5.13287 5.79751H8.86713C8.86713 6.63333 8.70102 7.46084 8.37842 8.23194L-4.53687 2.82868ZM-5.13287 5.79751C-5.13287 6.81682 -4.93029 7.82598 -4.53687 8.76635L8.37842 3.36309C8.70102 4.13419 8.86713 4.9617 8.86713 5.79751H-5.13287ZM-4.53687 8.76635C-4.14347 9.7067 -3.56709 10.5595 -2.84124 11.2751L6.98801 1.3059C7.5832 1.89273 8.05583 2.59201 8.37842 3.36309L-4.53687 8.76635ZM-2.84124 11.2751C-2.11539 11.9908 -1.25454 12.5551 -0.30872 12.9351L4.91137 -0.0552788C5.68693 0.256375 6.39282 0.719064 6.98801 1.3059L-2.84124 11.2751ZM-0.30872 12.9351C0.637103 13.3152 1.64903 13.5035 2.66825 13.4891L2.47027 -0.509517C3.30602 -0.521337 4.1358 -0.366934 4.91137 -0.0552788L-0.30872 12.9351ZM2.56926 13.4898H5.79985V-0.510217H2.56926V13.4898ZM5.4353 13.4803C5.70219 13.4942 5.96962 13.4942 6.23651 13.4803L5.50741 -0.500718C5.72626 -0.51213 5.94555 -0.51213 6.1644 -0.500718L5.4353 13.4803Z" fill="#A3A3A3" mask="url(#path-3-inside-2_1453_238433)"/>
<mask id="path-5-inside-3_1453_238433" fill="white">
<path d="M5.87196 11.5117C6.04279 11.5296 6.20086 11.6104 6.31547 11.7383C6.43008 11.8662 6.49304 12.0322 6.49212 12.204V15.4345C6.49342 15.5263 6.47647 15.6174 6.44226 15.7025C6.40805 15.7876 6.35727 15.8651 6.29286 15.9304C6.22844 15.9957 6.15169 16.0476 6.06706 16.083C5.98242 16.1184 5.89159 16.1367 5.79985 16.1367C5.70811 16.1367 5.61728 16.1184 5.53264 16.083C5.44801 16.0476 5.37125 15.9957 5.30684 15.9304C5.24243 15.8651 5.19165 15.7876 5.15744 15.7025C5.12323 15.6174 5.10628 15.5263 5.10758 15.4345V13.8697L1.21357 17.7637C1.15132 17.835 1.07511 17.8928 0.989657 17.9335C0.904203 17.9742 0.811316 17.9969 0.716733 18.0003C0.622149 18.0036 0.527879 17.9876 0.439745 17.9531C0.351611 17.9186 0.271484 17.8664 0.204314 17.7997C0.137145 17.733 0.0843592 17.6533 0.0492177 17.5654C0.0140762 17.4776 -0.00267506 17.3834 -4.76837e-07 17.2888C0.0026741 17.1942 0.0247178 17.1011 0.0647678 17.0154C0.104818 16.9296 0.162024 16.853 0.232852 16.7902L4.12687 12.8962H2.56926C2.47753 12.8975 2.38645 12.8806 2.30132 12.8464C2.2162 12.8122 2.13872 12.7614 2.07339 12.697C2.00806 12.6325 1.95618 12.5558 1.92077 12.4712C1.88537 12.3865 1.86713 12.2957 1.86713 12.204C1.86713 12.1122 1.88537 12.0214 1.92077 11.9367C1.95618 11.8521 2.00806 11.7754 2.07339 11.7109C2.13872 11.6465 2.2162 11.5957 2.30132 11.5615C2.38645 11.5273 2.47753 11.5104 2.56926 11.5117H5.79985C5.82387 11.5104 5.84794 11.5104 5.87196 11.5117Z"/>
</mask>
<path d="M5.87196 11.5117C6.04279 11.5296 6.20086 11.6104 6.31547 11.7383C6.43008 11.8662 6.49304 12.0322 6.49212 12.204V15.4345C6.49342 15.5263 6.47647 15.6174 6.44226 15.7025C6.40805 15.7876 6.35727 15.8651 6.29286 15.9304C6.22844 15.9957 6.15169 16.0476 6.06706 16.083C5.98242 16.1184 5.89159 16.1367 5.79985 16.1367C5.70811 16.1367 5.61728 16.1184 5.53264 16.083C5.44801 16.0476 5.37125 15.9957 5.30684 15.9304C5.24243 15.8651 5.19165 15.7876 5.15744 15.7025C5.12323 15.6174 5.10628 15.5263 5.10758 15.4345V13.8697L1.21357 17.7637C1.15132 17.835 1.07511 17.8928 0.989657 17.9335C0.904203 17.9742 0.811316 17.9969 0.716733 18.0003C0.622149 18.0036 0.527879 17.9876 0.439745 17.9531C0.351611 17.9186 0.271484 17.8664 0.204314 17.7997C0.137145 17.733 0.0843592 17.6533 0.0492177 17.5654C0.0140762 17.4776 -0.00267506 17.3834 -4.76837e-07 17.2888C0.0026741 17.1942 0.0247178 17.1011 0.0647678 17.0154C0.104818 16.9296 0.162024 16.853 0.232852 16.7902L4.12687 12.8962H2.56926C2.47753 12.8975 2.38645 12.8806 2.30132 12.8464C2.2162 12.8122 2.13872 12.7614 2.07339 12.697C2.00806 12.6325 1.95618 12.5558 1.92077 12.4712C1.88537 12.3865 1.86713 12.2957 1.86713 12.204C1.86713 12.1122 1.88537 12.0214 1.92077 11.9367C1.95618 11.8521 2.00806 11.7754 2.07339 11.7109C2.13872 11.6465 2.2162 11.5957 2.30132 11.5615C2.38645 11.5273 2.47753 11.5104 2.56926 11.5117H5.79985C5.82387 11.5104 5.84794 11.5104 5.87196 11.5117Z" fill="#A3A3A3"/>
<path d="M5.87196 11.5117L6.23651 4.52118L6.41946 4.53072L6.60165 4.54982L5.87196 11.5117ZM6.49212 12.204H-0.507882V12.1852L-0.507782 12.1665L6.49212 12.204ZM6.49212 15.4345L-0.507182 15.5335L-0.507882 15.484V15.4345H6.49212ZM5.10758 15.4345H12.1076V15.484L12.1069 15.5335L5.10758 15.4345ZM5.10758 13.8697L0.157834 8.91997L12.1076 -3.02977V13.8697H5.10758ZM1.21357 17.7637L-4.0592 13.1596L-3.90353 12.9813L-3.73618 12.814L1.21357 17.7637ZM0.232852 16.7902L5.1826 21.74L5.03353 21.8891L4.87576 22.0289L0.232852 16.7902ZM4.12687 12.8962V5.89622H21.0264L9.07661 17.846L4.12687 12.8962ZM2.56926 12.8962L2.47027 5.89692L2.51976 5.89622H2.56926V12.8962ZM2.56926 11.5117V18.5117H2.51976L2.47027 18.511L2.56926 11.5117ZM5.79985 11.5117L6.1644 18.5022L5.98225 18.5117H5.79985V11.5117ZM6.60165 4.54982C8.49965 4.74875 10.2559 5.64611 11.5293 7.06755L1.10162 16.409C2.14578 17.5746 3.58592 18.3104 5.14227 18.4735L6.60165 4.54982ZM11.5293 7.06755C12.8027 8.48899 13.5022 10.333 13.492 12.2414L-0.507782 12.1665C-0.51615 13.7314 0.0574632 15.2435 1.10162 16.409L11.5293 7.06755ZM13.4921 12.204V15.4345H-0.507882V12.204H13.4921ZM13.4914 15.3356C13.5058 16.3548 13.3175 17.3667 12.9375 18.3125L-0.0529437 13.0924C-0.364599 13.868 -0.519001 14.6978 -0.507182 15.5335L13.4914 15.3356ZM12.9375 18.3125C12.5574 19.2583 11.9931 20.1192 11.2775 20.845L1.30823 11.0158C0.721399 11.611 0.258711 12.3169 -0.0529437 13.0924L12.9375 18.3125ZM11.2775 20.845C10.5618 21.5709 9.70902 22.1473 8.76869 22.5407L3.36542 9.62538C2.59436 9.94796 1.89508 10.4206 1.30823 11.0158L11.2775 20.845ZM8.76869 22.5407C7.82834 22.9341 6.81917 23.1367 5.79985 23.1367V9.13667C4.96401 9.13667 4.1365 9.30279 3.36542 9.62538L8.76869 22.5407ZM5.79985 23.1367C4.78052 23.1367 3.77136 22.9341 2.83101 22.5407L8.23427 9.62538C7.46319 9.30279 6.63569 9.13667 5.79985 9.13667V23.1367ZM2.83101 22.5407C1.89068 22.1473 1.03789 21.5709 0.322221 20.845L10.2915 11.0158C9.70462 10.4206 9.00534 9.94796 8.23427 9.62538L2.83101 22.5407ZM0.322221 20.845C-0.393439 20.1192 -0.957697 19.2583 -1.33777 18.3125L11.6526 13.0924C11.341 12.3169 10.8783 11.611 10.2915 11.0158L0.322221 20.845ZM-1.33777 18.3125C-1.71784 17.3667 -1.90613 16.3548 -1.89172 15.3356L12.1069 15.5335C12.1187 14.6978 11.9643 13.868 11.6526 13.0924L-1.33777 18.3125ZM-1.89242 15.4345V13.8697H12.1076V15.4345H-1.89242ZM10.0573 18.8195L6.16331 22.7135L-3.73618 12.814L0.157834 8.91997L10.0573 18.8195ZM6.48633 22.3679C5.7947 23.1599 4.94801 23.8018 3.99855 24.2538L-2.01924 11.6131C-2.79779 11.9838 -3.49207 12.5101 -4.0592 13.1596L6.48633 22.3679ZM3.99855 24.2538C3.04908 24.7058 2.01704 24.9583 0.966178 24.9958L0.467288 11.0047C-0.394404 11.0354 -1.24067 11.2425 -2.01924 11.6131L3.99855 24.2538ZM0.966178 24.9958C-0.0846844 25.0333 -1.13209 24.8549 -2.11134 24.4717L2.99083 11.4345C2.18785 11.1202 1.32898 10.974 0.467288 11.0047L0.966178 24.9958ZM-2.11134 24.4717C-3.09057 24.0884 -3.98083 23.5085 -4.72713 22.7677L5.13576 12.8317C4.5238 12.2243 3.79379 11.7487 2.99083 11.4345L-2.11134 24.4717ZM-4.72713 22.7677C-5.47344 22.0269 -6.05992 21.1409 -6.45036 20.1646L6.5488 14.9663C6.22864 14.1657 5.74773 13.4392 5.13576 12.8317L-4.72713 22.7677ZM-6.45036 20.1646C-6.8408 19.1882 -7.02692 18.1421 -6.9972 17.091L6.9972 17.4866C7.02157 16.6247 6.86895 15.7669 6.5488 14.9663L-6.45036 20.1646ZM-6.9972 17.091C-6.96749 16.0398 -6.72256 15.0059 -6.27759 14.0532L6.40713 19.9776C6.77199 19.1963 6.97284 18.3486 6.9972 17.4866L-6.9972 17.091ZM-6.27759 14.0532C-5.83262 13.1005 -5.19703 12.2491 -4.41005 11.5516L4.87576 22.0289C5.52108 21.4569 6.04226 20.7588 6.40713 19.9776L-6.27759 14.0532ZM-4.71689 11.8405L-0.822881 7.94647L9.07661 17.846L5.1826 21.74L-4.71689 11.8405ZM4.12687 19.8962H2.56926V5.89622H4.12687V19.8962ZM2.66825 19.8955C1.64903 19.9099 0.6371 19.7216 -0.30872 19.3416L4.91137 6.35116C4.1358 6.0395 3.30603 5.8851 2.47027 5.89692L2.66825 19.8955ZM-0.30872 19.3416C-1.25454 18.9615 -2.11539 18.3972 -2.84124 17.6816L6.98801 7.71233C6.39282 7.1255 5.68693 6.66281 4.91137 6.35116L-0.30872 19.3416ZM-2.84124 17.6816C-3.56709 16.9659 -4.14347 16.1131 -4.53687 15.1728L8.37842 9.76953C8.05583 8.99844 7.5832 8.29917 6.98801 7.71233L-2.84124 17.6816ZM-4.53687 15.1728C-4.93029 14.2324 -5.13287 13.2233 -5.13287 12.204H8.86713C8.86713 11.3681 8.70102 10.5406 8.37842 9.76953L-4.53687 15.1728ZM-5.13287 12.204C-5.13287 11.1846 -4.93029 10.1755 -4.53687 9.23511L8.37842 14.6384C8.70102 13.8673 8.86713 13.0398 8.86713 12.204H-5.13287ZM-4.53687 9.23511C-4.14347 8.29476 -3.56709 7.44198 -2.84124 6.72632L6.98801 16.6956C7.5832 16.1087 8.05583 15.4095 8.37842 14.6384L-4.53687 9.23511ZM-2.84124 6.72632C-2.11539 6.01066 -1.25454 5.4464 -0.30872 5.06634L4.91137 18.0567C5.68693 17.7451 6.39282 17.2824 6.98801 16.6956L-2.84124 6.72632ZM-0.30872 5.06634C0.637103 4.68626 1.64903 4.49797 2.66825 4.51238L2.47027 18.511C3.30602 18.5228 4.1358 18.3684 4.91137 18.0567L-0.30872 5.06634ZM2.56926 4.51168H5.79985V18.5117H2.56926V4.51168ZM5.4353 4.52118C5.70219 4.50726 5.96962 4.50726 6.23651 4.52118L5.50741 18.5022C5.72626 18.5136 5.94555 18.5136 6.1644 18.5022L5.4353 4.52118Z" fill="#A3A3A3" mask="url(#path-5-inside-3_1453_238433)"/>
<mask id="path-7-inside-4_1453_238433" fill="white">
<path d="M12.13 6.48978C11.9592 6.47188 11.8011 6.39111 11.6865 6.26318C11.5719 6.13524 11.5089 5.96927 11.5098 5.79751V2.56693C11.5085 2.47519 11.5255 2.38411 11.5597 2.29899C11.5939 2.21386 11.6447 2.13638 11.7091 2.07105C11.7735 2.00572 11.8503 1.95385 11.9349 1.91844C12.0195 1.88303 12.1104 1.8648 12.2021 1.8648C12.2938 1.8648 12.3847 1.88303 12.4693 1.91844C12.5539 1.95385 12.6307 2.00572 12.6951 2.07105C12.7595 2.13638 12.8103 2.21386 12.8445 2.29899C12.8787 2.38411 12.8957 2.47519 12.8944 2.56693V4.13174L16.7884 0.23773C16.8506 0.166439 16.9268 0.108669 17.0123 0.067987C17.0977 0.0273051 17.1906 0.00457668 17.2852 0.00120401C17.3798 -0.00216866 17.4741 0.0138865 17.5622 0.0483785C17.6503 0.0828705 17.7305 0.135066 17.7976 0.201742C17.8648 0.268417 17.9176 0.348157 17.9527 0.436034C17.9879 0.523911 18.0046 0.618062 18.002 0.712667C17.9993 0.807272 17.9772 0.900325 17.9372 0.986077C17.8971 1.07183 17.8399 1.14846 17.7691 1.21123L13.8751 5.10525H15.4327C15.5244 5.10395 15.6155 5.1209 15.7006 5.1551C15.7858 5.18931 15.8632 5.2401 15.9286 5.30451C15.9939 5.36892 16.0458 5.44567 16.0812 5.53031C16.1166 5.61494 16.1348 5.70577 16.1348 5.79751C16.1348 5.88926 16.1166 5.98009 16.0812 6.06472C16.0458 6.14936 15.9939 6.22611 15.9286 6.29052C15.8632 6.35493 15.7858 6.40572 15.7006 6.43993C15.6155 6.47413 15.5244 6.49108 15.4327 6.48978H12.2021C12.1781 6.49104 12.154 6.49104 12.13 6.48978Z"/>
</mask>
<path d="M12.13 6.48978C11.9592 6.47188 11.8011 6.39111 11.6865 6.26318C11.5719 6.13524 11.5089 5.96927 11.5098 5.79751V2.56693C11.5085 2.47519 11.5255 2.38411 11.5597 2.29899C11.5939 2.21386 11.6447 2.13638 11.7091 2.07105C11.7735 2.00572 11.8503 1.95385 11.9349 1.91844C12.0195 1.88303 12.1104 1.8648 12.2021 1.8648C12.2938 1.8648 12.3847 1.88303 12.4693 1.91844C12.5539 1.95385 12.6307 2.00572 12.6951 2.07105C12.7595 2.13638 12.8103 2.21386 12.8445 2.29899C12.8787 2.38411 12.8957 2.47519 12.8944 2.56693V4.13174L16.7884 0.23773C16.8506 0.166439 16.9268 0.108669 17.0123 0.067987C17.0977 0.0273051 17.1906 0.00457668 17.2852 0.00120401C17.3798 -0.00216866 17.4741 0.0138865 17.5622 0.0483785C17.6503 0.0828705 17.7305 0.135066 17.7976 0.201742C17.8648 0.268417 17.9176 0.348157 17.9527 0.436034C17.9879 0.523911 18.0046 0.618062 18.002 0.712667C17.9993 0.807272 17.9772 0.900325 17.9372 0.986077C17.8971 1.07183 17.8399 1.14846 17.7691 1.21123L13.8751 5.10525H15.4327C15.5244 5.10395 15.6155 5.1209 15.7006 5.1551C15.7858 5.18931 15.8632 5.2401 15.9286 5.30451C15.9939 5.36892 16.0458 5.44567 16.0812 5.53031C16.1166 5.61494 16.1348 5.70577 16.1348 5.79751C16.1348 5.88926 16.1166 5.98009 16.0812 6.06472C16.0458 6.14936 15.9939 6.22611 15.9286 6.29052C15.8632 6.35493 15.7858 6.40572 15.7006 6.43993C15.6155 6.47413 15.5244 6.49108 15.4327 6.48978H12.2021C12.1781 6.49104 12.154 6.49104 12.13 6.48978Z" fill="#A3A3A3"/>
<path d="M12.13 6.48978L11.7654 13.4803L11.5825 13.4707L11.4003 13.4516L12.13 6.48978ZM11.5098 5.79751H18.5098V5.81623L18.5097 5.83495L11.5098 5.79751ZM11.5098 2.56693L18.5091 2.46794L18.5098 2.51743V2.56693H11.5098ZM12.8944 2.56693H5.89437V2.51743L5.89507 2.46794L12.8944 2.56693ZM12.8944 4.13174L17.8441 9.08149L5.89437 21.0312V4.13174H12.8944ZM16.7884 0.23773L22.0612 4.84185L21.9055 5.02012L21.7381 5.18748L16.7884 0.23773ZM17.7691 1.21123L12.8194 -3.73851L12.9684 -3.88759L13.1262 -4.02741L17.7691 1.21123ZM13.8751 5.10525V12.1052H-3.02441L8.92534 0.155498L13.8751 5.10525ZM15.4327 5.10525L15.5317 12.1045L15.4822 12.1052H15.4327V5.10525ZM15.4327 6.48978V-0.510217H15.4822L15.5317 -0.509517L15.4327 6.48978ZM12.2021 6.48978L11.8376 -0.500718L12.0197 -0.510217H12.2021V6.48978ZM11.4003 13.4516C9.5023 13.2527 7.74601 12.3554 6.47264 10.9339L16.9003 1.59244C15.8562 0.426868 14.416 -0.308956 12.8597 -0.472081L11.4003 13.4516ZM6.47264 10.9339C5.19926 9.51248 4.49973 7.66845 4.50993 5.76008L18.5097 5.83495C18.5181 4.2701 17.9445 2.75801 16.9003 1.59244L6.47264 10.9339ZM4.50983 5.79751V2.56693H18.5098V5.79751H4.50983ZM4.51053 2.66591C4.49612 1.64669 4.68442 0.634768 5.06449 -0.311055L18.0549 4.90903C18.3666 4.13346 18.521 3.30369 18.5091 2.46794L4.51053 2.66591ZM5.06449 -0.311055C5.44456 -1.25687 6.00882 -2.11772 6.72448 -2.84357L16.6937 6.98568C17.2806 6.39049 17.7432 5.6846 18.0549 4.90903L5.06449 -0.311055ZM6.72448 -2.84357C7.44015 -3.56944 8.29293 -4.14581 9.23327 -4.53921L14.6365 8.37609C15.4076 8.0535 16.1069 7.58088 16.6937 6.98568L6.72448 -2.84357ZM9.23327 -4.53921C10.1736 -4.93261 11.1828 -5.1352 12.2021 -5.1352V8.8648C13.0379 8.8648 13.8654 8.69868 14.6365 8.37609L9.23327 -4.53921ZM12.2021 -5.1352C13.2214 -5.1352 14.2306 -4.93261 15.1709 -4.53921L9.76768 8.37609C10.5388 8.69868 11.3663 8.8648 12.2021 8.8648V-5.1352ZM15.1709 -4.53921C16.1113 -4.14581 16.9641 -3.56944 17.6797 -2.84357L7.71049 6.98568C8.29734 7.58088 8.99662 8.0535 9.76768 8.37609L15.1709 -4.53921ZM17.6797 -2.84357C18.3954 -2.11772 18.9597 -1.25687 19.3397 -0.311055L6.34931 4.90903C6.66096 5.68459 7.12365 6.39048 7.71049 6.98568L17.6797 -2.84357ZM19.3397 -0.311055C19.7198 0.634766 19.9081 1.64669 19.8937 2.66591L5.89507 2.46794C5.88325 3.30369 6.03766 4.13346 6.34931 4.90903L19.3397 -0.311055ZM19.8944 2.56693V4.13174H5.89437V2.56693H19.8944ZM7.94463 -0.818006L11.8386 -4.71202L21.7381 5.18748L17.8441 9.08149L7.94463 -0.818006ZM11.5156 -4.36639C12.2073 -5.15847 13.0539 -5.80034 14.0034 -6.25234L20.0212 6.38832C20.7997 6.01767 21.494 5.49135 22.0612 4.84185L11.5156 -4.36639ZM14.0034 -6.25234C14.9529 -6.70435 15.9849 -6.95688 17.0358 -6.99435L17.5347 6.99676C18.3964 6.96603 19.2426 6.75896 20.0212 6.38832L14.0034 -6.25234ZM17.0358 -6.99435C18.0866 -7.03182 19.134 -6.85344 20.1133 -6.47021L15.0111 6.56696C15.8141 6.88122 16.673 7.02748 17.5347 6.99676L17.0358 -6.99435ZM20.1133 -6.47021C21.0925 -6.08698 21.9828 -5.50705 22.7291 -4.76624L12.8662 5.16972C13.4782 5.77719 14.2082 6.25272 15.0111 6.56696L20.1133 -6.47021ZM22.7291 -4.76624C23.4754 -4.02542 24.0619 -3.13946 24.4523 -2.16309L11.4532 3.03516C11.7733 3.83577 12.2542 4.56225 12.8662 5.16972L22.7291 -4.76624ZM24.4523 -2.16309C24.8428 -1.18673 25.0289 -0.140669 24.9992 0.910479L11.0047 0.514855C10.9804 1.37679 11.133 2.23455 11.4532 3.03516L24.4523 -2.16309ZM24.9992 0.910479C24.9694 1.96165 24.7245 2.99552 24.2795 3.94825L11.5948 -1.97609C11.23 -1.19487 11.0291 -0.347106 11.0047 0.514855L24.9992 0.910479ZM24.2795 3.94825C23.8346 4.90098 23.199 5.7524 22.412 6.44988L13.1262 -4.02741C12.4809 -3.45548 11.9597 -2.75733 11.5948 -1.97609L24.2795 3.94825ZM22.7188 6.16098L18.8248 10.055L8.92534 0.155498L12.8194 -3.73851L22.7188 6.16098ZM13.8751 -1.89475H15.4327V12.1052H13.8751V-1.89475ZM15.3337 -1.89405C16.3529 -1.90847 17.3649 -1.72017 18.3107 -1.3401L13.0906 11.6503C13.8662 11.962 14.6959 12.1164 15.5317 12.1045L15.3337 -1.89405ZM18.3107 -1.3401C19.2565 -0.960032 20.1173 -0.395773 20.8432 0.319886L11.0139 10.2891C11.6091 10.876 12.315 11.3387 13.0906 11.6503L18.3107 -1.3401ZM20.8432 0.319886C21.569 1.03554 22.1454 1.88833 22.5388 2.82868L9.62353 8.23194C9.94612 9.00302 10.4188 9.7023 11.0139 10.2891L20.8432 0.319886ZM22.5388 2.82868C22.9322 3.76905 23.1348 4.77821 23.1348 5.79751H9.13482C9.13482 6.63333 9.30093 7.46084 9.62353 8.23194L22.5388 2.82868ZM23.1348 5.79751C23.1348 6.81682 22.9322 7.82598 22.5388 8.76635L9.62353 3.36309C9.30093 4.13419 9.13482 4.9617 9.13482 5.79751H23.1348ZM22.5388 8.76635C22.1454 9.7067 21.569 10.5595 20.8432 11.2751L11.0139 1.3059C10.4188 1.89273 9.94613 2.59201 9.62353 3.36309L22.5388 8.76635ZM20.8432 11.2751C20.1173 11.9908 19.2565 12.5551 18.3107 12.9351L13.0906 -0.0552788C12.315 0.256375 11.6091 0.719064 11.0139 1.3059L20.8432 11.2751ZM18.3107 12.9351C17.3649 13.3152 16.3529 13.5035 15.3337 13.4891L15.5317 -0.509517C14.6959 -0.521337 13.8662 -0.366934 13.0906 -0.0552788L18.3107 12.9351ZM15.4327 13.4898H12.2021V-0.510217H15.4327V13.4898ZM12.5667 13.4803C12.2998 13.4942 12.0323 13.4942 11.7654 13.4803L12.4945 -0.500718C12.2757 -0.51213 12.0564 -0.51213 11.8376 -0.500718L12.5667 13.4803Z" fill="#A3A3A3" mask="url(#path-7-inside-4_1453_238433)"/>
</g>
<defs>
<clipPath id="clip0_1453_238433">
<rect width="18" height="18" fill="white" transform="translate(0 0.000732422)"/>
</clipPath>
</defs>
</svg>