<svg height="21" viewBox="0 0 25 21" width="25" xmlns="http://www.w3.org/2000/svg"
  xmlns:xlink="http://www.w3.org/1999/xlink">
  <g fill="none" fill-rule="evenodd" transform="translate(-4 -6)">
    <path
      d="m24.314946 11.3729892h-4.6568528l-1.2250587-2.64304668-2.2484475 5.99380858-1.5684241-3.6332022-2.9951265 9.9094511-3.87184158-15.94818877-2.2551026 6.32279247h-4.70519379c-.39508641.0348636-.74474011-.2452306-.78095003-.6256269-.00112665-.0118314-.00193888-.023688-.0024367-.0355447-.0499917-.4236604.2450065-.70769.68502779-.75423359h3.725194l3.57846783-9.95919851 3.77350878 15.5261429 2.6467829-8.68342416 1.7201023 3.96380056 2.2000803-5.85099912 2.2551026 4.95393089h3.7251678c.3922567.05204308.6845824.37459413.685054.75584813-.048341.4252497-.3333566.70769-.685054.70769"
      fill="currentColor" transform="translate(4 6)" />
  </g>
</svg>