<svg xmlns="http://www.w3.org/2000/svg" width="20" height="20" viewBox="0 0 20 20" fill="none">
  <path fill-rule="evenodd" clip-rule="evenodd" d="M5.00166 3.3695L5.00167 16.6306C5.00577 16.6364 5.01111 16.6428 5.01752 16.6492C5.02392 16.6556 5.03035 16.6609 5.03613 16.665H7.49931L7.49998 18.335H5C4.52009 18.335 4.11008 18.1035 3.83664 17.8301C3.5632 17.5566 3.33167 17.1466 3.33167 16.6667L3.33167 3.33337C3.33167 2.85347 3.56321 2.44346 3.83664 2.17002C4.11008 1.89659 4.52009 1.66504 4.99999 1.66504H15C15.4799 1.66504 15.8899 1.89658 16.1633 2.17002C16.4368 2.44346 16.6683 2.85347 16.6683 3.33337V8.33332H14.9983V3.36951C14.9942 3.36372 14.9889 3.3573 14.9825 3.35089C14.9761 3.34448 14.9696 3.33914 14.9639 3.33504H5.03613C5.03035 3.33914 5.02392 3.34448 5.01752 3.35089C5.01111 3.3573 5.00577 3.36372 5.00166 3.3695ZM7.49998 18.335C7.96113 18.335 8.335 17.9612 8.335 17.5C8.335 17.0389 7.96047 16.665 7.49931 16.665L7.49998 18.335ZM5 16.665L5.00167 16.665L5 16.665ZM15.8333 9.16837C15.3722 9.16837 14.9983 8.79448 14.9983 8.33332H16.6683C16.6683 8.79448 16.2945 9.16837 15.8333 9.16837Z" fill="currentColor"/>
  <path fill-rule="evenodd" clip-rule="evenodd" d="M12.9167 11.6684C11.767 11.6684 10.835 12.6004 10.835 13.75C10.835 14.8997 11.767 15.8317 12.9167 15.8317C13.543 15.8317 14.104 15.5561 14.4868 15.1168C14.806 14.7506 14.9983 14.2738 14.9983 13.75C14.9983 12.6004 14.0663 11.6684 12.9167 11.6684ZM9.165 13.75C9.165 11.6781 10.8447 9.99837 12.9167 9.99837C14.9887 9.99837 16.6683 11.6781 16.6683 13.75C16.6683 14.3998 16.5026 15.0118 16.2116 15.5452L17.6529 16.8894C17.9901 17.204 18.0085 17.7323 17.694 18.0696C17.3794 18.4068 16.851 18.4252 16.5138 18.1107L15.1055 16.7972C14.4898 17.2401 13.7335 17.5017 12.9167 17.5017C10.8447 17.5017 9.165 15.822 9.165 13.75Z" fill="currentColor"/>
  <path fill-rule="evenodd" clip-rule="evenodd" d="M6.835 5.41671C6.835 5.04944 7.13273 4.75171 7.5 4.75171H12.5C12.8673 4.75171 13.165 5.04944 13.165 5.41671C13.165 5.78398 12.8673 6.08171 12.5 6.08171H7.5C7.13273 6.08171 6.835 5.78398 6.835 5.41671Z" fill="currentColor"/>
  <path fill-rule="evenodd" clip-rule="evenodd" d="M6.835 7.91671C6.835 7.54944 7.13273 7.25171 7.5 7.25171H10C10.3673 7.25171 10.665 7.54944 10.665 7.91671C10.665 8.28398 10.3673 8.58171 10 8.58171H7.5C7.13273 8.58171 6.835 8.28398 6.835 7.91671Z" fill="currentColor"/>
</svg>