<svg xmlns="http://www.w3.org/2000/svg" width="24" height="24" viewBox="0 0 24 24" fill="none">
  <path fill-rule="evenodd" clip-rule="evenodd" d="M6 19.9573L6 4.04272C6.005 4.03567 6.01181 4.0274 6.01961 4.0196C6.02741 4.0118 6.03567 4.005 6.04272 4L17.9577 4.0003C17.9648 4.0053 17.9726 4.01181 17.9804 4.01961C17.9882 4.02741 17.995 4.03618 18 4.04324V9.99994C18 10.5522 18.4477 11 19 11C19.5523 11 20 10.5521 20 9.99977V4C20 3.42477 19.7225 2.93324 19.3946 2.60539C19.0668 2.27755 18.5752 2 18 2H5.99999C5.42476 2 4.93323 2.27755 4.60539 2.6054C4.27754 2.93324 4 3.42477 4 4V20C4.00001 20.5752 4.27754 21.0668 4.60539 21.3946C4.93324 21.7225 5.42477 22 6 22H8.99997C9.55228 22 10 21.5523 10 21C10 20.4477 9.55194 20 8.99963 20L6.0423 19.9997C6.03524 19.9947 6.02741 19.9882 6.01961 19.9804C6.01181 19.9726 6.005 19.9643 6 19.9573ZM13 16.5C13 15.1193 14.1193 14 15.5 14C16.8807 14 18 15.1193 18 16.5C18 17.1291 17.769 17.7017 17.3857 18.1415C16.9259 18.6691 16.2522 19 15.5 19C14.1193 19 13 17.8807 13 16.5ZM15.5 12C13.0147 12 11 14.0147 11 16.5C11 18.9853 13.0147 21 15.5 21C16.4804 21 17.388 20.6858 18.1268 20.154L19.8179 21.7313C20.2218 22.108 20.8546 22.0859 21.2313 21.6821C21.608 21.2782 21.5859 20.6454 21.1821 20.2687L19.4514 18.6545C19.801 18.0145 20 17.2799 20 16.5C20 14.0147 17.9853 12 15.5 12ZM8.16501 6.50004C8.16501 6.03888 8.53885 5.66504 9.00001 5.66504H15C15.4612 5.66504 15.835 6.03888 15.835 6.50004C15.835 6.9612 15.4612 7.33504 15 7.33504H9.00001C8.53885 7.33504 8.16501 6.9612 8.16501 6.50004ZM9.00001 8.66504C8.53885 8.66504 8.16501 9.03888 8.16501 9.50004C8.16501 9.9612 8.53885 10.335 9.00001 10.335H12C12.4612 10.335 12.835 9.9612 12.835 9.50004C12.835 9.03888 12.4612 8.66504 12 8.66504H9.00001Z" fill="currentColor"/>
</svg>