<svg viewBox="0 0 33 33" xmlns="http://www.w3.org/2000/svg"><g fill="currentColor"><path d="m22.52 20.31a5.91 5.91 0 0 0 -5.69-4.31h-.4a5.92 5.92 0 0 0 -5.74 4.49 4.22 4.22 0 0 1 1.47 3.21v4.55h8.68v-4.55a4.26 4.26 0 0 1 1.68-3.39z"/><circle cx="16.63" cy="9.4" r="4.65"/><circle cx="25.23" cy="14.71" r="3.34"/><path d="m25.38 19.45h-.29a4.25 4.25 0 0 0 -2.57.86 5.69 5.69 0 0 1 .22 1.61v6.33h6.88v-4.55a4.25 4.25 0 0 0 -4.24-4.25z"/><circle cx="7.77" cy="14.71" r="3.34"/><path d="m10.69 20.49a4.23 4.23 0 0 0 -2.78-1h-.29a4.25 4.25 0 0 0 -4.24 4.21v4.55h7.13v-6.33a5.55 5.55 0 0 1 .18-1.43z"/></g></svg>