<svg width="20" height="20" viewBox="0 0 20 20" fill="none" xmlns="http://www.w3.org/2000/svg">
    <path fill-rule="evenodd" clip-rule="evenodd" d="M5.14529 12.9497C5.78999 12.1563 6.70609 11.665 7.70843 11.665H12.2917C13.294 11.665 14.2101 12.1563 14.8548 12.9497C15.4957 13.7385 15.835 14.7775 15.835 15.8333L15.835 16.6667C15.835 17.1278 15.4612 17.5017 15 17.5017C14.5389 17.5017 14.165 17.1278 14.165 16.6667L14.165 15.8333C14.165 15.1211 13.9337 14.4643 13.5587 14.0028C13.1876 13.5461 12.726 13.335 12.2917 13.335H7.70843C7.27417 13.335 6.81252 13.5461 6.4414 14.0028C6.06644 14.4643 5.83509 15.1211 5.83509 15.8333L5.83509 16.6667C5.8351 17.1278 5.46126 17.5017 5.0001 17.5017C4.53894 17.5017 4.1651 17.1278 4.16509 16.6667L4.16509 15.8333C4.16509 14.7775 4.50443 13.7385 5.14529 12.9497Z" fill="#3D3D42"/>
    <path fill-rule="evenodd" clip-rule="evenodd" d="M13.9567 9.16665C13.9567 8.7055 14.3305 8.33165 14.7917 8.33165C15.794 8.33165 16.7101 8.82294 17.3548 9.61642C17.9957 10.4052 18.335 11.4441 18.335 12.5L18.335 13.3333C18.335 13.7945 17.9612 14.1683 17.5 14.1683C17.0389 14.1683 16.665 13.7945 16.665 13.3333L16.665 12.5C16.665 11.7877 16.4337 11.131 16.0587 10.6695C15.6876 10.2127 15.226 10.0017 14.7917 10.0017C14.3305 10.0017 13.9567 9.62781 13.9567 9.16665Z" fill="#3D3D42"/>
    <path fill-rule="evenodd" clip-rule="evenodd" d="M6.04338 9.16664C6.04338 8.70548 5.66953 8.33164 5.20838 8.33164C4.20604 8.33164 3.28994 8.82293 2.64524 9.61641C2.00438 10.4052 1.66504 11.4441 1.66504 12.5L1.66504 13.3333C1.66504 13.7945 2.03888 14.1683 2.50004 14.1683C2.96119 14.1683 3.33504 13.7945 3.33504 13.3333L3.33504 12.5C3.33504 11.7877 3.56639 11.131 3.94135 10.6695C4.31247 10.2127 4.77412 10.0016 5.20838 10.0016C5.66953 10.0016 6.04338 9.6278 6.04338 9.16664Z" fill="#3D3D42"/>
    <path fill-rule="evenodd" clip-rule="evenodd" d="M10 6.66832C9.3106 6.66832 8.7517 7.22722 8.7517 7.91665C8.7517 8.60609 9.3106 9.16499 10 9.16499C10.6895 9.16499 11.2484 8.60609 11.2484 7.91665C11.2484 7.22722 10.6895 6.66832 10 6.66832ZM7.0817 7.91665C7.0817 6.3049 8.38829 4.99832 10 4.99832C11.6118 4.99832 12.9184 6.3049 12.9184 7.91665C12.9184 9.52841 11.6118 10.835 10 10.835C8.38829 10.835 7.0817 9.52841 7.0817 7.91665Z" fill="#3D3D42"/>
    <path fill-rule="evenodd" clip-rule="evenodd" d="M12.1248 3.7174C11.8942 3.31803 12.0311 2.80735 12.4304 2.57677C13.8263 1.7709 15.6111 2.24914 16.417 3.64496C17.2228 5.04077 16.7446 6.8256 15.3488 7.63147C14.9494 7.86205 14.4387 7.72522 14.2081 7.32584C13.9776 6.92647 14.1144 6.41579 14.5138 6.18521C15.1108 5.84049 15.3154 5.07703 14.9707 4.47996C14.626 3.88289 13.8625 3.67832 13.2654 4.02303C12.8661 4.25361 12.3554 4.11678 12.1248 3.7174Z" fill="#3D3D42"/>
    <path fill-rule="evenodd" clip-rule="evenodd" d="M7.80652 3.7508C8.0371 3.35143 7.90026 2.84075 7.50089 2.61017C6.10507 1.80429 4.32025 2.28254 3.51437 3.67835C2.7085 5.07417 3.18674 6.85899 4.58256 7.66487C4.98193 7.89545 5.49261 7.75861 5.72319 7.35924C5.95377 6.95986 5.81693 6.44919 5.41756 6.21861C4.82049 5.87389 4.61592 5.11042 4.96063 4.51335C5.30535 3.91628 6.06882 3.71171 6.66589 4.05643C7.06526 4.28701 7.57594 4.15017 7.80652 3.7508Z" fill="#3D3D42"/>
</svg>
