<svg xmlns="http://www.w3.org/2000/svg" width="24" height="24" viewBox="0 0 24 24" fill="none">
  <path fill-rule="evenodd" clip-rule="evenodd" d="M6.17585 15.5406C6.94917 14.5888 8.04794 13.9996 9.25006 13.9996H14.75C15.9521 13.9996 17.0509 14.5888 17.8242 15.5406C18.5929 16.4867 19 17.733 19 18.9996L19 19.9996C19 20.5519 18.5523 20.9996 18 20.9996C17.4477 20.9996 17 20.5519 17 19.9996L17 18.9996C17 18.1445 16.7222 17.356 16.272 16.8018C15.8263 16.2533 15.2718 15.9996 14.75 15.9996H9.25006C8.72828 15.9996 8.17375 16.2533 7.72808 16.8018C7.27781 17.356 7.00006 18.1445 7.00006 18.9996L7.00007 19.9996C7.00007 20.5519 6.55235 20.9996 6.00007 20.9996C5.44778 20.9996 5.00007 20.5519 5.00007 19.9996L5.00006 18.9996C5.00006 17.733 5.40714 16.4867 6.17585 15.5406Z" fill="currentColor"/>
  <path fill-rule="evenodd" clip-rule="evenodd" d="M16.75 10.9996C16.75 10.4474 17.1977 9.99964 17.75 9.99964C18.9521 9.99964 20.0509 10.5889 20.8242 11.5406C21.5929 12.4867 22 13.733 22 14.9996L22 15.9996C22 16.5519 21.5523 16.9997 21 16.9997C20.4477 16.9997 20 16.5519 20 15.9997L20 14.9996C20 14.1445 19.7223 13.356 19.272 12.8018C18.8263 12.2533 18.2718 11.9996 17.75 11.9996C17.1977 11.9996 16.75 11.5519 16.75 10.9996Z" fill="currentColor"/>
  <path fill-rule="evenodd" clip-rule="evenodd" d="M7.25 10.9996C7.25 10.4473 6.80229 9.99963 6.25 9.99963C5.04788 9.99963 3.94911 10.5888 3.17579 11.5406C2.40708 12.4867 2 13.733 2 14.9996L2 15.9996C2 16.5519 2.44771 16.9996 3 16.9996C3.55228 16.9996 4 16.5519 4 15.9996L4 14.9996C4 14.1445 4.27775 13.356 4.72802 12.8018C5.17369 12.2533 5.72822 11.9996 6.25 11.9996C6.80229 11.9996 7.25 11.5519 7.25 10.9996Z" fill="currentColor"/>
  <path fill-rule="evenodd" clip-rule="evenodd" d="M12 7.99964C11.1716 7.99964 10.5 8.67122 10.5 9.49964C10.5 10.3281 11.1716 10.9996 12 10.9996C12.8284 10.9996 13.5 10.3281 13.5 9.49964C13.5 8.67122 12.8284 7.99964 12 7.99964ZM8.5 9.49964C8.5 7.56665 10.067 5.99964 12 5.99964C13.933 5.99964 15.5 7.56665 15.5 9.49964C15.5 11.4326 13.933 12.9996 12 12.9996C10.067 12.9996 8.5 11.4326 8.5 9.49964Z" fill="currentColor"/>
  <path fill-rule="evenodd" clip-rule="evenodd" d="M14.5515 4.45954C14.2753 3.98125 14.4392 3.36966 14.9175 3.09352C16.5915 2.12702 18.7321 2.70058 19.6986 4.37461C20.6651 6.04863 20.0915 8.1892 18.4175 9.1557C17.9392 9.43184 17.3276 9.26796 17.0515 8.78967C16.7753 8.31138 16.9392 7.69979 17.4175 7.42365C18.1349 7.00943 18.3807 6.09205 17.9665 5.37461C17.5523 4.65717 16.6349 4.41136 15.9175 4.82557C15.4392 5.10171 14.8276 4.93784 14.5515 4.45954Z" fill="currentColor"/>
  <path fill-rule="evenodd" clip-rule="evenodd" d="M9.36605 4.49962C9.64219 4.02133 9.47831 3.40974 9.00002 3.13359C7.326 2.1671 5.18543 2.74066 4.21893 4.41468C3.25243 6.08871 3.826 8.22927 5.50002 9.19577C5.97831 9.47192 6.5899 9.30804 6.86605 8.82975C7.14219 8.35145 6.97831 7.73986 6.50002 7.46372C5.78258 7.04951 5.53677 6.13212 5.95098 5.41468C6.3652 4.69724 7.28258 4.45143 8.00002 4.86565C8.47831 5.14179 9.0899 4.97791 9.36605 4.49962Z" fill="currentColor"/>
</svg>