<svg version="1.1" id="Layer_1" xmlns="http://www.w3.org/2000/svg" xmlns:xlink="http://www.w3.org/1999/xlink" x="0px" y="0px"
	 viewBox="0 0 64 64" style="enable-background:new 0 0 64 64;" xml:space="preserve" fill="none">
	<desc>Community</desc>
	<circle id="background" class="outerCircle" stroke-width="2" cx="31.9" cy="31.9" r="29.9"></circle>
	<g id="feedback" class="insidePath" transform="translate(15.000000, 15.000000)">
		<path id="Stroke-1653" d="M18.9,15.1c0.6,1.2,1.9,1.9,3.1,1.9c1.3,0,2.4-0.9,3.1-1.9c8.7,0,8-12.5-0.1-12.5
			c-1.8,0-3.1,0.7-4.2,1.9c-3.3-1.7-7.2,0.4-8,3.7"/>
		<path id="Stroke-1654" d="M11.9,31.4h9.5v-3.1c0-0.6-3.8-2.5-6.9-3.8V22c0,0,1.2-0.4,1.2-3.1c0.9,0,1.2-2.5,0-2.5
			c0-0.3,1-1.6,0.6-3.1c-0.6-2.5-6.9-2.5-7.5,0c-2.6-0.5-0.6,2.8-0.6,3.1c-1.2,0-0.9,2.5,0,2.5c0,2.7,1.2,3.1,1.2,3.1v2.5
			c-3.1,1.2-6.9,3.1-6.9,3.8v3.1H11.9L11.9,31.4z"/>
		<path id="Stroke-1655" d="M24.5,20.8c0,0.7-0.6,1.2-1.2,1.2S22,21.4,22,20.8s0.6-1.2,1.2-1.2S24.5,20.1,24.5,20.8L24.5,20.8z"/>
		<path id="Stroke-1656" d="M19.5,9.5c0,0.3-0.3,0.6-0.6,0.6s-0.6-0.3-0.6-0.6s0.3-0.6,0.6-0.6S19.5,9.2,19.5,9.5L19.5,9.5z"/>
		<path id="Stroke-1657" d="M19.5,22.6c0,0.3-0.3,0.6-0.6,0.6s-0.6-0.3-0.6-0.6s0.3-0.6,0.6-0.6S19.5,22.3,19.5,22.6L19.5,22.6z"/>
		<path id="Stroke-1658" d="M23.2,9.5c0,0.3-0.3,0.6-0.6,0.6S22,9.8,22,9.5s0.3-0.6,0.6-0.6S23.2,9.2,23.2,9.5L23.2,9.5z"/>
		<path id="Stroke-1659" d="M27,9.5c0,0.3-0.3,0.6-0.6,0.6s-0.6-0.3-0.6-0.6s0.3-0.6,0.6-0.6S27,9.2,27,9.5L27,9.5z"/>
	</g>
</svg>
