<svg width="24" height="24" viewBox="0 0 24 24" fill="none" xmlns="http://www.w3.org/2000/svg">
    <path fill="currentColor" fill-rule="evenodd" clip-rule="evenodd" d="M6.17585 15.541C6.94917 14.5892 8.04794 14 9.25006 14H14.75C15.9521 14 17.0509 14.5892 17.8242 15.541C18.5929 16.4871 19 17.7334 19 19L19 20C19 20.5523 18.5523 21 18 21C17.4477 21 17 20.5523 17 20L17 19C17 18.1449 16.7222 17.3563 16.272 16.8022C15.8263 16.2537 15.2718 16 14.75 16H9.25006C8.72828 16 8.17375 16.2537 7.72808 16.8022C7.27781 17.3563 7.00006 18.1449 7.00006 19L7.00007 20C7.00007 20.5523 6.55235 21 6.00007 21C5.44778 21 5.00007 20.5523 5.00007 20L5.00006 19C5.00006 17.7334 5.40714 16.4871 6.17585 15.541Z"/>
    <path fill="currentColor" fill-rule="evenodd" clip-rule="evenodd" d="M16.75 11C16.75 10.4477 17.1977 10 17.75 10C18.9521 10 20.0509 10.5892 20.8242 11.541C21.5929 12.4871 22 13.7334 22 15L22 16C22 16.5523 21.5523 17 21 17C20.4477 17 20 16.5523 20 16L20 15C20 14.1449 19.7223 13.3564 19.272 12.8022C18.8263 12.2537 18.2718 12 17.75 12C17.1977 12 16.75 11.5523 16.75 11Z"/>
    <path fill="currentColor" fill-rule="evenodd" clip-rule="evenodd" d="M7.25 11C7.25 10.4477 6.80229 10 6.25 10C5.04788 10 3.94911 10.5892 3.17579 11.541C2.40708 12.4871 2 13.7334 2 15L2 16C2 16.5523 2.44771 17 3 17C3.55228 17 4 16.5523 4 16L4 15C4 14.1449 4.27775 13.3563 4.72802 12.8022C5.17369 12.2536 5.72822 12 6.25 12C6.80229 12 7.25 11.5523 7.25 11Z"/>
    <path fill="currentColor" fill-rule="evenodd" clip-rule="evenodd" d="M12 8.00001C11.1716 8.00001 10.5 8.67158 10.5 9.50001C10.5 10.3284 11.1716 11 12 11C12.8284 11 13.5 10.3284 13.5 9.50001C13.5 8.67158 12.8284 8.00001 12 8.00001ZM8.5 9.50001C8.5 7.56701 10.067 6.00001 12 6.00001C13.933 6.00001 15.5 7.56701 15.5 9.50001C15.5 11.433 13.933 13 12 13C10.067 13 8.5 11.433 8.5 9.50001Z"/>
    <path fill="currentColor" fill-rule="evenodd" clip-rule="evenodd" d="M14.5515 4.45991C14.2753 3.98162 14.4392 3.37003 14.9175 3.09389C16.5915 2.12739 18.7321 2.70095 19.6986 4.37497C20.6651 6.049 20.0915 8.18956 18.4175 9.15606C17.9392 9.43221 17.3276 9.26833 17.0515 8.79004C16.7753 8.31175 16.9392 7.70015 17.4175 7.42401C18.1349 7.0098 18.3807 6.09241 17.9665 5.37497C17.5523 4.65754 16.6349 4.41172 15.9175 4.82594C15.4392 5.10208 14.8276 4.9382 14.5515 4.45991Z"/>
    <path fill="currentColor" fill-rule="evenodd" clip-rule="evenodd" d="M9.36605 4.49999C9.64219 4.02169 9.47831 3.4101 9.00002 3.13396C7.326 2.16746 5.18543 2.74103 4.21893 4.41505C3.25243 6.08907 3.826 8.22964 5.50002 9.19614C5.97831 9.47228 6.5899 9.30841 6.86605 8.83011C7.14219 8.35182 6.97831 7.74023 6.50002 7.46409C5.78258 7.04987 5.53677 6.13249 5.95098 5.41505C6.3652 4.69761 7.28258 4.4518 8.00002 4.86601C8.47831 5.14215 9.0899 4.97828 9.36605 4.49999Z"/>
</svg>
