<svg width="20" height="20" viewBox="0 0 20 20" fill="none" xmlns="http://www.w3.org/2000/svg">
<path fill-rule="evenodd" clip-rule="evenodd" d="M3.54102 3.54108C3.67294 3.40915 3.85187 3.33504 4.03844 3.33504H10.9615C11.1481 3.33504 11.327 3.40915 11.4589 3.54108C11.5909 3.673 11.665 3.85193 11.665 4.0385V4.80773C11.665 5.26889 12.0388 5.64273 12.5 5.64273C12.9611 5.64273 13.335 5.26889 13.335 4.80773V4.0385C13.335 3.40902 13.0849 2.80532 12.6398 2.36021C12.1947 1.9151 11.591 1.66504 10.9615 1.66504H4.03844C3.40896 1.66504 2.80526 1.9151 2.36015 2.36021C1.91504 2.80532 1.66498 3.40902 1.66498 4.0385V10.9616C1.66498 11.5911 1.91504 12.1948 2.36015 12.6399C2.80526 13.085 3.40896 13.335 4.03844 13.335H4.80767C5.26883 13.335 5.64267 12.9612 5.64267 12.5C5.64267 12.0389 5.26883 11.665 4.80767 11.665H4.03844C3.85187 11.665 3.67294 11.5909 3.54102 11.459C3.40909 11.3271 3.33498 11.1481 3.33498 10.9616V4.0385C3.33498 3.85193 3.40909 3.673 3.54102 3.54108ZM8.33498 9.0385C8.33498 8.64999 8.64993 8.33504 9.03844 8.33504H15.9615C16.35 8.33504 16.665 8.64999 16.665 9.0385V15.9616C16.665 16.3501 16.35 16.665 15.9615 16.665H9.03844C8.64993 16.665 8.33498 16.3501 8.33498 15.9616V9.0385ZM9.03844 6.66504C7.72761 6.66504 6.66498 7.72767 6.66498 9.0385V15.9616C6.66498 17.2724 7.72761 18.335 9.03844 18.335H15.9615C17.2723 18.335 18.335 17.2724 18.335 15.9616V9.0385C18.335 7.72767 17.2723 6.66504 15.9615 6.66504H9.03844Z" fill="currentColor"/>
</svg>
