<svg xmlns="http://www.w3.org/2000/svg" width="24" height="24" viewBox="0 0 24 24">
    <g fill="none" fill-rule="evenodd" stroke="#666" stroke-linecap="round" stroke-linejoin="round" stroke-width="1.5">
        <path d="M4.636 3h14.728C20.267 3 21 3.733 21 4.636v14.728c0 .903-.733 1.636-1.636 1.636H4.636C3.733 21 3 20.267 3 19.364V4.636C3 3.733 3.733 3 4.636 3zM12 3L12 .545M6.273 3L6.273.545M17.727 3L17.727.545M12 23.455L12 21M6.273 23.455L6.273 21M17.727 23.455L17.727 21M23.455 12L21 12M23.455 17.727L21 17.727M23.455 6.273L21 6.273M3 12L.545 12M3 17.727L.545 17.727M3 6.273L.545 6.273"/>
        <path d="M7.91 6.273h8.18c.904 0 1.637.733 1.637 1.636v8.182c0 .903-.733 1.636-1.636 1.636H7.909c-.903 0-1.636-.733-1.636-1.636V7.909c0-.903.733-1.636 1.636-1.636zM14.455 14.455L12 14.455"/>
    </g>
</svg>
