<svg xmlns="http://www.w3.org/2000/svg" width="59" height="17" viewBox="0 0 85 24" fill="none">
  <path d="M37.3505 7.52204C38.232 7.52204 38.9742 7.61485 39.5309 7.84687C40.134 8.07889 40.5979 8.35731 40.9691 8.77494C41.3402 9.19258 41.5722 9.65661 41.7113 10.2135C41.8505 10.7703 41.9433 11.3736 41.9433 12.0696V18.9374C41.5258 19.0302 40.9227 19.123 40.0876 19.2622C39.2526 19.4014 38.3247 19.4478 37.3041 19.4478C36.6546 19.4478 36.0052 19.4014 35.4485 19.2622C34.8918 19.123 34.4278 18.9374 34.0103 18.6125C33.5928 18.3341 33.3144 17.9629 33.0825 17.4988C32.8505 17.0348 32.7577 16.478 32.7577 15.7819C32.7577 15.1323 32.8969 14.5754 33.1289 14.1114C33.4072 13.6473 33.732 13.2761 34.1495 12.9977C34.567 12.7193 35.0773 12.4872 35.6804 12.3944C36.2371 12.2552 36.8402 12.2088 37.4897 12.2088C37.768 12.2088 38.0928 12.2088 38.4175 12.2552C38.7423 12.3016 39.067 12.348 39.4381 12.4408V12.0232C39.4381 11.7448 39.3918 11.42 39.3454 11.1415C39.2526 10.8631 39.1598 10.6311 38.9742 10.3991C38.7887 10.1671 38.5567 10.0278 38.232 9.88863C37.9536 9.74942 37.5825 9.70302 37.1186 9.70302C36.5155 9.70302 35.9588 9.74942 35.4485 9.84223C34.9381 9.93504 34.5206 10.0278 34.1959 10.1207L33.8711 7.98608C34.1959 7.84687 34.7062 7.75406 35.3093 7.61485C35.9588 7.61485 36.6082 7.52204 37.3505 7.52204ZM37.5825 17.3596C38.4175 17.3596 39.0206 17.3132 39.4381 17.2204V14.297C39.299 14.2506 39.067 14.2042 38.7887 14.1578C38.5103 14.1114 38.1856 14.1114 37.8608 14.1114C37.5825 14.1114 37.2577 14.1114 36.9794 14.1578C36.701 14.2042 36.4227 14.297 36.1907 14.3898C35.9588 14.529 35.7732 14.6682 35.5876 14.9002C35.4485 15.1323 35.3557 15.3643 35.3557 15.6891C35.3557 16.3387 35.5412 16.7564 35.9588 16.9884C36.3763 17.2204 36.8866 17.3596 37.5825 17.3596ZM47.6959 4.5058C47.6959 5.01624 47.5567 5.38747 47.232 5.7123C46.9072 6.03712 46.5361 6.08353 46.0722 6.08353C45.6082 6.08353 45.2371 5.94432 44.9124 5.66589C44.5876 5.38747 44.4485 5.01624 44.4485 4.4594C44.4485 3.90255 44.5876 3.57773 44.9124 3.2529C45.2371 2.97448 45.6082 2.83527 46.0722 2.83527C46.4897 2.83527 46.9072 2.97448 47.1856 3.2529C47.5103 3.57773 47.6959 3.99536 47.6959 4.5058ZM47.4175 19.2158H44.7732V7.84687H47.4175V19.2158ZM53.6804 19.2158C52.9381 17.7309 52.1959 16.0139 51.4536 14.065C50.7113 12.116 50.0155 10.0278 49.366 7.84687H52.1959C52.335 8.49652 52.567 9.19258 52.7526 9.88863C52.9845 10.6311 53.1701 11.3736 53.4021 12.0696C53.634 12.8121 53.9124 13.5081 54.1443 14.2042C54.4227 14.9002 54.6546 15.5035 54.8402 16.0603C55.0722 15.5035 55.3041 14.9002 55.5361 14.2042C55.768 13.5081 56.0464 12.8121 56.2784 12.0696C56.5103 11.3271 56.7423 10.5847 56.9742 9.88863C57.2062 9.14617 57.3918 8.49652 57.5309 7.84687H60.2216C59.5722 10.0742 58.8763 12.1624 58.134 14.065C57.3918 16.0139 56.6031 17.7309 55.9072 19.2158C55.9536 19.2158 53.6804 19.2158 53.6804 19.2158ZM60.8711 13.5545C60.8711 12.58 61.0103 11.6984 61.3351 10.9095C61.6134 10.1671 62.0309 9.5174 62.5412 9.00696C63.0515 8.49652 63.6082 8.12529 64.2577 7.89327C64.9072 7.61485 65.5567 7.52204 66.2062 7.52204C67.7835 7.52204 68.9897 8.03248 69.8711 8.96056C70.7526 9.93504 71.2165 11.3736 71.2165 13.3225C71.2165 13.4617 71.2165 13.6009 71.2165 13.8329C71.2165 14.0186 71.2165 14.1578 71.1701 14.3434H63.6546C63.7474 15.2715 64.0722 15.9675 64.6289 16.478C65.1856 16.9884 66.0206 17.2204 67.0876 17.2204C67.7371 17.2204 68.2938 17.174 68.8505 17.0348C69.3608 16.8956 69.8247 16.8028 70.1031 16.6636L70.4742 18.7981C70.3351 18.891 70.1495 18.9374 69.8711 19.0302C69.5928 19.123 69.3608 19.1694 68.9897 19.2622C68.6649 19.3086 68.3402 19.4014 67.9227 19.4478C67.5516 19.4942 67.1804 19.4942 66.7629 19.4942C65.7887 19.4942 64.9072 19.355 64.1649 19.0302C63.4227 18.7517 62.8196 18.3341 62.3557 17.7773C61.8918 17.2668 61.5206 16.6172 61.2887 15.9211C60.9639 15.2251 60.8711 14.4362 60.8711 13.5545ZM68.4794 12.3944C68.4794 12.0232 68.433 11.6984 68.3402 11.3736C68.2474 11.0487 68.1082 10.7703 67.8763 10.5383C67.6907 10.3063 67.4588 10.1207 67.134 9.98144C66.8557 9.84223 66.5309 9.79582 66.1134 9.79582C65.6959 9.79582 65.3711 9.88863 65.0464 10.0278C64.768 10.1671 64.4897 10.3991 64.3041 10.6311C64.0722 10.8631 63.933 11.1415 63.7938 11.4664C63.6546 11.7912 63.6082 12.116 63.5619 12.4408C63.6082 12.3944 68.4794 12.3944 68.4794 12.3944ZM73.4897 8.17169C74 8.03248 74.6495 7.89327 75.4845 7.75406C76.3196 7.61485 77.201 7.56845 78.1753 7.56845C79.1031 7.56845 79.8918 7.70766 80.4948 7.93968C81.1443 8.2181 81.6082 8.54292 81.9794 9.00696C82.3505 9.471 82.6289 10.0278 82.768 10.6775C82.9072 11.3271 83 12.0232 83 12.8121V19.2158H80.3557V13.2297C80.3557 12.6265 80.3093 12.116 80.2165 11.652C80.1237 11.2343 79.9845 10.8631 79.799 10.6311C79.6134 10.3527 79.3814 10.1671 79.0567 10.0278C78.7784 9.88863 78.3608 9.84223 77.9433 9.84223C77.6186 9.84223 77.2938 9.84223 76.9227 9.88863C76.5515 9.93504 76.2732 9.98144 76.134 9.98144V19.1694H73.4897V8.17169Z" fill="currentColor"/>
  <path d="M20.8814 15.5035C21.299 15.5035 21.7165 15.5963 22.0876 15.7355C22.6907 15.0394 23.0155 14.2506 23.0155 13.4617C23.0155 12.1624 22.134 10.9095 20.5567 9.93504C18.8402 8.91415 16.5206 8.31091 14.1082 8.31091C11.6495 8.31091 9.37629 8.86775 7.65979 9.93504C6.03608 10.9095 5.20103 12.1624 5.20103 13.4617C5.20103 14.2506 5.52577 15.0394 6.12887 15.7355C6.54639 15.5963 6.91753 15.5035 7.33505 15.5035C8.30928 15.5035 9.19072 15.8747 9.8866 16.5708C10.3505 17.0348 10.6753 17.6381 10.8608 18.2413C11.8814 18.4733 12.9948 18.6125 14.1546 18.6125C15.3144 18.6125 16.3814 18.4733 17.4485 18.2413C17.5876 17.5916 17.9124 17.0348 18.4227 16.5708C19.0258 15.9211 19.9072 15.5035 20.8814 15.5035ZM14.1082 12.5336C12.9948 12.5336 12.1134 11.652 12.1134 10.5383H16.1031C16.1031 11.6056 15.2216 12.5336 14.1082 12.5336Z" fill="currentColor"/>
  <path d="M7.14948 8.96056C7.33505 8.82135 7.56701 8.72854 7.75258 8.63573C7.24227 8.2645 6.63918 8.07889 6.08247 8.07889C5.20103 8.07889 4.36598 8.45012 3.80928 9.19258L3.57732 9.471L5.15464 10.6775C5.61856 10.0742 6.31443 9.471 7.14948 8.96056Z" fill="currentColor"/>
  <path d="M5.15464 16.2459C4.64433 15.5499 4.2732 14.8074 4.18041 14.0186C4.13402 13.8329 4.13402 13.6473 4.13402 13.4617C4.13402 12.5336 4.41237 11.652 5.01546 10.8631H4.8299C3.25258 10.8631 2 12.116 2 13.6937V14.1114H4.08763C3.53093 14.5754 3.20619 15.2251 3.1134 15.9211C3.02062 16.6636 3.20619 17.406 3.6701 18.0093L3.85567 18.1949C4.04124 17.5916 4.31959 17.0348 4.78351 16.5708C4.87629 16.478 5.01546 16.3387 5.15464 16.2459Z" fill="currentColor"/>
  <path d="M23.0619 10.7239L24.6392 9.5174L24.4072 9.19258C23.8505 8.45012 23.0155 8.07889 22.134 8.07889C21.5309 8.07889 20.9278 8.2645 20.4639 8.63573C20.6495 8.72854 20.8814 8.86775 21.067 8.96056C21.9021 9.471 22.5515 10.0742 23.0619 10.7239Z" fill="currentColor"/>
  <path d="M26.1701 13.6937C26.1701 12.116 24.9175 10.8631 23.3402 10.8631H23.1546C23.7113 11.652 24.0361 12.5336 24.0361 13.4617C24.0361 13.6473 24.0361 13.8329 23.9897 14.0186C23.8969 14.8074 23.5722 15.5499 23.0155 16.2459C23.1546 16.3387 23.2938 16.478 23.433 16.5708C23.8969 17.0348 24.2216 17.5916 24.3608 18.1949L24.5464 17.9629C25.0103 17.3596 25.1959 16.6172 25.1031 15.8747C25.0103 15.1787 24.6392 14.529 24.1289 14.065H26.2165L26.1701 13.6937Z" fill="currentColor"/>
  <path d="M10.6753 7.66125C12.2526 7.66125 13.5052 6.40835 13.5052 4.83063C13.5052 3.2529 12.2526 2 10.6753 2C9.09794 2 7.84536 3.2529 7.84536 4.83063C7.84536 6.40835 9.14433 7.66125 10.6753 7.66125ZM10.6753 3.2993C10.7217 3.2993 10.7217 3.2993 10.6753 3.2993C10.4897 3.48492 10.3505 3.76334 10.3505 4.08817C10.3505 4.69142 10.8608 5.20186 11.4639 5.20186C11.7423 5.20186 12.0206 5.06265 12.2526 4.87703C12.2526 5.7587 11.5567 6.45476 10.6753 6.45476C9.79381 6.45476 9.09794 5.7587 9.09794 4.87703C9.14433 3.94896 9.84021 3.2993 10.6753 3.2993Z" fill="currentColor"/>
  <path d="M17.4948 7.66125C19.0722 7.66125 20.3247 6.40835 20.3247 4.83063C20.3247 3.2529 19.0258 2 17.4948 2C15.9175 2 14.6649 3.2529 14.6649 4.83063C14.6649 6.40835 15.9175 7.66125 17.4948 7.66125ZM17.4948 3.2993C17.3093 3.48492 17.1701 3.76334 17.1701 4.08817C17.1701 4.69142 17.6804 5.20186 18.2835 5.20186C18.5619 5.20186 18.8402 5.06265 19.0722 4.87703C19.0722 5.7587 18.3763 6.45476 17.4948 6.45476C16.6134 6.40835 15.9175 5.7123 15.9175 4.83063C15.9175 3.94896 16.6134 3.2993 17.4948 3.2993Z" fill="currentColor"/>
  <path d="M7.28866 16.2923C5.71134 16.2923 4.45876 17.5452 4.45876 19.123C4.45876 20.7007 5.71134 21.9536 7.28866 21.9536C7.6134 21.9536 7.93814 21.9072 8.21649 21.768L8.12371 21.6752C7.28866 20.8399 7.01031 19.819 7.52062 19.3086C8.03093 18.7981 9.05155 19.123 9.8866 19.9118L9.97938 20.0046C10.0722 19.7262 10.1649 19.4014 10.1649 19.0766C10.1186 17.5916 8.86598 16.2923 7.28866 16.2923Z" fill="currentColor"/>
  <path d="M20.8814 16.2923C19.3041 16.2923 18.0515 17.5452 18.0515 19.123C18.0515 19.4478 18.0979 19.7726 18.2371 20.051L18.3299 19.9582C19.1649 19.123 20.1856 18.8445 20.6959 19.355C21.2062 19.8654 20.8814 20.8863 20.0928 21.7216L20 21.8144C20.2784 21.9072 20.6031 22 20.9278 22C22.5052 22 23.7577 20.7471 23.7577 19.1694C23.7113 17.5916 22.4124 16.2923 20.8814 16.2923Z" fill="currentColor"/>
</svg>