<svg width="59" height="17" viewBox="0 0 59 17" fill="none" xmlns="http://www.w3.org/2000/svg">
<g clip-path="url(#clip0_1_776)">
<path d="M13.6502 10.7692C13.9607 10.7692 14.2601 10.8246 14.5373 10.9244C14.9809 10.4143 15.2137 9.85989 15.2137 9.28328C15.2137 8.34074 14.5706 7.43147 13.4174 6.72179C12.1754 5.96776 10.5121 5.54639 8.74902 5.54639C6.97483 5.54639 5.31152 5.96776 4.08067 6.72179C2.91636 7.43147 2.2843 8.34074 2.2843 9.28328C2.2843 9.85989 2.51716 10.4143 2.96071 10.9244C3.23793 10.8246 3.53733 10.7692 3.84781 10.7692C4.5464 10.7692 5.20063 11.0353 5.68854 11.5343C6.03229 11.878 6.26515 12.2994 6.37604 12.7651C7.11898 12.9426 7.91737 13.0313 8.74902 13.0313C9.58067 13.0313 10.368 12.9426 11.122 12.7651C11.2329 12.3105 11.4658 11.878 11.8095 11.5343C12.2974 11.0464 12.9516 10.7692 13.6502 10.7692ZM8.74902 8.59578C7.95063 8.59578 7.2964 7.94155 7.2964 7.14316H10.2016C10.2016 7.94155 9.54741 8.59578 8.74902 8.59578Z" fill="white"/>
<path d="M3.71473 6.04535C3.85889 5.95664 4.00304 5.87902 4.14719 5.8014H4.13611C3.77018 5.52418 3.33772 5.39111 2.90526 5.39111C2.28429 5.39111 1.67441 5.66833 1.27522 6.20059L1.10889 6.43345L2.26211 7.29837C2.62804 6.83265 3.11594 6.41127 3.71473 6.04535Z" fill="white"/>
<path d="M2.28427 11.2904C1.89617 10.7914 1.65222 10.248 1.58569 9.68249C1.56351 9.54942 1.55242 9.41636 1.55242 9.28329C1.55242 8.61797 1.77419 7.98591 2.18448 7.4093H2.04032C0.909274 7.4093 0 8.32966 0 9.44962V9.73793H1.51915C1.11996 10.0706 0.86492 10.5252 0.798387 11.0353C0.720766 11.5787 0.864919 12.1109 1.19758 12.5434L1.31956 12.7097C1.43044 12.2662 1.66331 11.867 1.99597 11.5343C2.08468 11.4456 2.18448 11.368 2.28427 11.2904Z" fill="white"/>
<path d="M15.2248 7.29837L16.378 6.43345L16.2117 6.20059C15.8125 5.66833 15.2026 5.39111 14.5817 5.39111C14.1492 5.39111 13.7278 5.52418 13.3508 5.8014H13.3397C13.4839 5.87902 13.6391 5.95664 13.7722 6.04535C14.3821 6.41127 14.87 6.83265 15.2248 7.29837Z" fill="white"/>
<path d="M17.498 9.44962C17.498 8.31858 16.5776 7.4093 15.4577 7.4093H15.3024C15.7238 7.98591 15.9345 8.62906 15.9345 9.28329C15.9345 9.41636 15.9234 9.54942 15.9012 9.68249C15.8236 10.248 15.5797 10.7914 15.2026 11.2904C15.3024 11.368 15.4022 11.4456 15.4909 11.5343C15.8236 11.867 16.0565 12.2662 16.1674 12.7097L16.2893 12.5434C16.622 12.1109 16.7661 11.5676 16.6885 11.0353C16.622 10.5252 16.367 10.0595 15.9678 9.73793H17.4869V9.44962H17.498Z" fill="white"/>
<path d="M6.28727 5.08065C7.41832 5.08065 8.32759 4.16028 8.32759 3.04032C8.32759 1.90927 7.40723 1 6.28727 1C5.15622 1 4.24695 1.92036 4.24695 3.04032C4.24695 4.16028 5.16731 5.08065 6.28727 5.08065ZM6.28727 1.92036C6.15421 2.06452 6.0655 2.26411 6.0655 2.48589C6.0655 2.91835 6.42034 3.27319 6.8528 3.27319C7.07457 3.27319 7.27417 3.18448 7.41832 3.04032V3.05141C7.41832 3.67238 6.91933 4.17137 6.29836 4.17137C5.67739 4.17137 5.1784 3.67238 5.1784 3.05141C5.16731 2.41935 5.6663 1.92036 6.28727 1.92036Z" fill="white"/>
<path d="M11.1996 5.08065C12.3307 5.08065 13.2399 4.16028 13.2399 3.04032C13.2399 1.90927 12.3196 1 11.1996 1C10.0686 1 9.1593 1.92036 9.1593 3.04032C9.1593 4.16028 10.0797 5.08065 11.1996 5.08065ZM11.1996 1.92036C11.2107 1.92036 11.2107 1.92036 11.1996 1.92036C11.0666 2.06452 10.9779 2.26411 10.9779 2.48589C10.9779 2.91835 11.3327 3.27319 11.7651 3.27319C11.9869 3.27319 12.1865 3.18448 12.3307 3.04032V3.05141C12.3307 3.67238 11.8317 4.17137 11.2107 4.17137C10.5897 4.17137 10.0908 3.67238 10.0908 3.05141C10.0797 2.41935 10.5897 1.92036 11.1996 1.92036Z" fill="white"/>
<path d="M3.84782 11.3347C2.71677 11.3347 1.8075 12.2439 1.8075 13.375C1.8075 14.506 2.71677 15.4153 3.84782 15.4153C4.08068 15.4153 4.31354 15.3709 4.52423 15.2933C4.50205 15.2711 4.47987 15.2601 4.46879 15.2379C3.88108 14.6502 3.6704 13.8851 4.02524 13.5413C4.36899 13.1976 5.13411 13.3972 5.72181 13.9849C5.74399 14.007 5.75508 14.0292 5.77725 14.0403C5.85487 13.8296 5.89923 13.6078 5.89923 13.3639C5.88814 12.255 4.96778 11.3347 3.84782 11.3347Z" fill="white"/>
<path d="M13.6502 11.3347C12.5191 11.3347 11.6099 12.2439 11.6099 13.375C11.6099 13.6078 11.6542 13.8407 11.7318 14.0514C11.754 14.0292 11.7651 14.007 11.7873 13.9959C12.375 13.4082 13.1401 13.1976 13.4839 13.5524C13.8276 13.8961 13.628 14.6613 13.0403 15.249C13.0181 15.2711 13.007 15.2822 12.9849 15.3044C13.1955 15.382 13.4173 15.4264 13.6613 15.4264C14.7923 15.4264 15.7016 14.5171 15.7016 13.3861C15.6905 12.255 14.7812 11.3347 13.6502 11.3347Z" fill="white"/>
<path d="M25.8136 5.58521C26.4456 5.58521 26.9779 5.66283 27.3993 5.81807C27.8317 5.97331 28.1755 6.19508 28.4305 6.48339C28.6855 6.7717 28.8741 7.11545 28.9849 7.51464C29.0958 7.91383 29.1513 8.35738 29.1513 8.84529V13.8352C28.863 13.9017 28.4194 13.9794 27.8206 14.0681C27.2329 14.1568 26.5565 14.2011 25.8136 14.2011C25.3257 14.2011 24.871 14.1568 24.4607 14.057C24.0505 13.9683 23.7067 13.813 23.4184 13.6023C23.1301 13.3917 22.9083 13.1144 22.742 12.7818C22.5757 12.4491 22.498 12.0277 22.498 11.5398C22.498 11.063 22.5868 10.6749 22.7753 10.3423C22.9638 10.0207 23.2077 9.75456 23.5182 9.54387C23.8287 9.34428 24.1946 9.18904 24.616 9.10033C25.0263 9.01162 25.4587 8.96726 25.9134 8.96726C26.1241 8.96726 26.3458 8.97835 26.5787 9.01162C26.8116 9.03379 27.0555 9.07815 27.3216 9.14468V8.8342C27.3216 8.61242 27.2995 8.40174 27.244 8.20214C27.1886 8.00254 27.0999 7.82512 26.9668 7.66988C26.8337 7.51464 26.6674 7.40375 26.4456 7.31504C26.2349 7.22633 25.9577 7.19307 25.6362 7.19307C25.1926 7.19307 24.7934 7.22633 24.4275 7.29287C24.0616 7.3594 23.7622 7.42593 23.5293 7.51464L23.2964 5.97331C23.5404 5.8846 23.8841 5.80698 24.3499 5.71827C24.7934 5.62956 25.2813 5.58521 25.8136 5.58521ZM25.9688 12.682C26.5565 12.682 27.0001 12.6487 27.3105 12.5933V10.4864C27.2107 10.4531 27.0555 10.4199 26.8559 10.3977C26.6563 10.3644 26.4345 10.3534 26.1906 10.3534C25.9799 10.3534 25.7692 10.3644 25.5585 10.3977C25.3478 10.431 25.1482 10.4864 24.9819 10.5751C24.8045 10.6638 24.6714 10.7747 24.5605 10.93C24.4607 11.0852 24.4053 11.2737 24.4053 11.5066C24.4053 11.9612 24.5495 12.2717 24.8267 12.438C25.1039 12.5933 25.4809 12.682 25.9688 12.682Z" fill="white"/>
<path d="M33.2874 3.38964C33.2874 3.74448 33.1765 4.03278 32.9436 4.24347C32.7107 4.45415 32.4446 4.55395 32.123 4.55395C31.8015 4.55395 31.5242 4.45415 31.2914 4.24347C31.0585 4.03278 30.9476 3.75556 30.9476 3.38964C30.9476 3.02371 31.0585 2.7354 31.2914 2.52472C31.5242 2.31403 31.8015 2.21423 32.123 2.21423C32.4335 2.21423 32.7107 2.31403 32.9436 2.52472C33.1654 2.7354 33.2874 3.02371 33.2874 3.38964ZM33.0767 14.0237H31.1694V5.79589H33.0767V14.0237Z" fill="white"/>
<path d="M37.623 14.0237C37.1018 12.9481 36.5585 11.7062 36.004 10.2979C35.4496 8.90074 34.9506 7.39267 34.496 5.7959H36.5252C36.6361 6.26162 36.7802 6.74953 36.9244 7.28178C37.0796 7.81404 37.2349 8.3463 37.4123 8.86747C37.5897 9.39973 37.7671 9.90981 37.9446 10.4088C38.1331 10.9078 38.2994 11.3513 38.4546 11.7505C38.6099 11.3513 38.7762 10.9078 38.9647 10.4088C39.1421 9.90981 39.3196 9.39973 39.497 8.86747C39.6744 8.33521 39.8407 7.80295 39.996 7.28178C40.1512 6.74953 40.2954 6.26162 40.4063 5.7959H42.369C41.9143 7.40376 41.4153 8.90074 40.8609 10.2979C40.3065 11.6951 39.7631 12.937 39.2419 14.0237H37.623Z" fill="white"/>
<path d="M42.8126 9.94305C42.8126 9.22228 42.9235 8.59023 43.1342 8.03579C43.3449 7.49244 43.6332 7.03781 43.988 6.67188C44.3429 6.30595 44.7531 6.03982 45.2189 5.85131C45.6846 5.66281 46.1503 5.5741 46.6382 5.5741C47.7693 5.5741 48.6564 5.92894 49.2884 6.62752C49.9205 7.32611 50.2421 8.37954 50.2421 9.77672C50.2421 9.87652 50.2421 9.99849 50.231 10.1316C50.231 10.2646 50.2199 10.3755 50.2088 10.4864H44.7864C44.8419 11.1517 45.0747 11.6618 45.485 12.0166C45.8953 12.3826 46.5052 12.56 47.2814 12.56C47.7471 12.56 48.1685 12.5156 48.5455 12.438C48.9336 12.3493 49.233 12.2606 49.4548 12.1719L49.7098 13.7243C49.61 13.7797 49.4658 13.8352 49.2773 13.8906C49.0888 13.9461 48.8892 14.0015 48.6453 14.0459C48.4124 14.0902 48.1574 14.1346 47.8802 14.1678C47.6029 14.2011 47.3257 14.2122 47.0485 14.2122C46.3277 14.2122 45.6957 14.1013 45.1634 13.8906C44.6312 13.6799 44.1876 13.3805 43.8439 12.9924C43.5001 12.6043 43.2451 12.1608 43.0677 11.6396C42.9013 11.1295 42.8126 10.564 42.8126 9.94305ZM48.3348 9.10031C48.3348 8.83418 48.3015 8.59023 48.2239 8.35736C48.1463 8.1245 48.0465 7.91381 47.9023 7.74748C47.7582 7.57006 47.5919 7.437 47.3812 7.3372C47.1816 7.2374 46.9376 7.19305 46.6493 7.19305C46.361 7.19305 46.0949 7.24849 45.8731 7.35938C45.6513 7.47027 45.4628 7.61442 45.3187 7.79184C45.1634 7.96926 45.0525 8.17994 44.9638 8.40172C44.8751 8.63458 44.8197 8.86744 44.7864 9.11139H48.3348V9.10031Z" fill="white"/>
<path d="M51.9386 6.06202C52.3045 5.96222 52.7813 5.86242 53.369 5.76262C53.9567 5.66282 54.611 5.61847 55.3207 5.61847C55.9971 5.61847 56.5515 5.70718 57.0061 5.89569C57.4608 6.0842 57.8156 6.33924 58.0817 6.6719C58.3479 7.00456 58.5364 7.40375 58.6473 7.86948C58.7582 8.3352 58.8136 8.84528 58.8136 9.39972V14.0237H56.9063V9.69911C56.9063 9.25557 56.8731 8.87855 56.8176 8.57916C56.7622 8.26867 56.6624 8.01363 56.5293 7.82512C56.3963 7.63661 56.2188 7.49246 55.9971 7.40375C55.7753 7.31504 55.4981 7.27069 55.1765 7.27069C54.9326 7.27069 54.6886 7.28178 54.4225 7.31504C54.1563 7.34831 53.9678 7.37049 53.8459 7.39266V14.0237H51.9386V6.06202Z" fill="white"/>
</g>
<defs>
<clipPath id="clip0_1_776">
<rect width="58.8135" height="16.4264" fill="white"/>
</clipPath>
</defs>
</svg>
