<svg xmlns="http://www.w3.org/2000/svg" width="66" height="24" viewBox="0 0 66 24" fill="none">
  <path d="M16.4334 15.5434C16.7617 15.5434 17.0783 15.6203 17.3714 15.7587C17.8404 15.0515 18.0866 14.2829 18.0866 13.4834C18.0866 12.1768 17.4065 10.9162 16.1871 9.93237C14.874 8.88701 13.1152 8.30285 11.2509 8.30285C9.37492 8.30285 7.61617 8.88701 6.31469 9.93237C5.08357 10.9162 4.41525 12.1768 4.41525 13.4834C4.41525 14.2829 4.66147 15.0515 5.13047 15.7587C5.4236 15.6203 5.74018 15.5434 6.06847 15.5434C6.80715 15.5434 7.49892 15.9124 8.01483 16.6042C8.3783 17.0807 8.62452 17.6649 8.74178 18.3105C9.52735 18.5565 10.3715 18.6794 11.2509 18.6794C12.1303 18.6794 12.9628 18.5565 13.76 18.3105C13.8773 17.6803 14.1235 17.0807 14.487 16.6042C15.0029 15.9278 15.6947 15.5434 16.4334 15.5434ZM11.2509 12.5304C10.4067 12.5304 9.71495 11.6234 9.71495 10.5165H12.7869C12.7869 11.6234 12.0951 12.5304 11.2509 12.5304Z" fill="currentColor"/>
  <path d="M5.9279 8.99458C6.08032 8.8716 6.23274 8.76399 6.38517 8.65638H6.37345C5.98652 8.27206 5.52924 8.08759 5.07197 8.08759C4.41537 8.08759 3.77049 8.47191 3.34839 9.20979L3.17252 9.53263L4.39191 10.7317C4.77884 10.086 5.29475 9.50188 5.9279 8.99458Z" fill="currentColor"/>
  <path d="M4.41535 16.2658C4.00497 15.574 3.74702 14.8208 3.67668 14.0367C3.65322 13.8523 3.6415 13.6678 3.6415 13.4833C3.6415 12.5609 3.876 11.6847 4.30983 10.8853H4.15739C2.96145 10.8853 2 12.1613 2 13.714V14.1136H3.60633C3.18422 14.5747 2.91455 15.2051 2.8442 15.9123C2.76212 16.6655 2.91455 17.4034 3.2663 18.0029L3.39528 18.2334C3.51253 17.6186 3.75875 17.0652 4.1105 16.6039C4.2043 16.481 4.30983 16.3734 4.41535 16.2658Z" fill="currentColor"/>
  <path d="M18.0986 10.7317L19.3179 9.53263L19.1421 9.20979C18.72 8.47191 18.0751 8.08759 17.4185 8.08759C16.9612 8.08759 16.5157 8.27206 16.117 8.65638H16.1053C16.2578 8.76399 16.4219 8.8716 16.5626 8.99458C17.2074 9.50188 17.7233 10.086 18.0986 10.7317Z" fill="currentColor"/>
  <path d="M20.5021 13.714C20.5021 12.1459 19.5289 10.8853 18.3446 10.8853H18.1805C18.6261 11.6847 18.8489 12.5763 18.8489 13.4833C18.8489 13.6678 18.8371 13.8523 18.8137 14.0367C18.7316 14.8208 18.4736 15.574 18.075 16.2658C18.1805 16.3734 18.286 16.481 18.3798 16.6039C18.7316 17.0652 18.9778 17.6186 19.095 18.2334L19.224 18.0029C19.5758 17.4034 19.7282 16.6501 19.6461 15.9123C19.5758 15.2051 19.3061 14.5594 18.884 14.1136H20.4904V13.714H20.5021Z" fill="currentColor"/>
  <path d="M8.64817 7.65717C9.84412 7.65717 10.8056 6.38124 10.8056 4.82859C10.8056 3.26056 9.83239 2 8.64817 2C7.45223 2 6.49077 3.27594 6.49077 4.82859C6.49077 6.38124 7.46394 7.65717 8.64817 7.65717ZM8.64817 3.27594C8.50747 3.47578 8.41367 3.75249 8.41367 4.05994C8.41367 4.65948 8.78887 5.15141 9.24615 5.15141C9.48064 5.15141 9.6917 5.02843 9.84412 4.82859V4.84396C9.84412 5.70482 9.3165 6.39661 8.65989 6.39661C8.0033 6.39661 7.47567 5.70482 7.47567 4.84396C7.46394 3.96771 7.99158 3.27594 8.64817 3.27594Z" fill="currentColor"/>
  <path d="M13.8422 7.65717C15.0381 7.65717 15.9996 6.38124 15.9996 4.82859C15.9996 3.26056 15.0263 2 13.8422 2C12.6462 2 11.6847 3.27594 11.6847 4.82859C11.6847 6.38124 12.6579 7.65717 13.8422 7.65717ZM13.8422 3.27594C13.8539 3.27594 13.8539 3.27594 13.8422 3.27594C13.7014 3.47578 13.6077 3.75249 13.6077 4.05994C13.6077 4.65948 13.9828 5.15141 14.4401 5.15141C14.6747 5.15141 14.8857 5.02843 15.0381 4.82859V4.84396C15.0381 5.70482 14.5105 6.39661 13.8539 6.39661C13.1973 6.39661 12.6697 5.70482 12.6697 4.84396C12.6579 3.96771 13.1973 3.27594 13.8422 3.27594Z" fill="currentColor"/>
  <path d="M6.06874 16.3275C4.87279 16.3275 3.91134 17.5881 3.91134 19.1561C3.91134 20.7241 4.87279 21.9846 6.06874 21.9846C6.31496 21.9846 6.56119 21.9232 6.78396 21.8156C6.76052 21.7848 6.73707 21.7694 6.72534 21.7387C6.10392 20.9239 5.88114 19.8632 6.25634 19.3866C6.61982 18.9101 7.42884 19.1868 8.05026 20.0016C8.07372 20.0324 8.08544 20.063 8.10889 20.0784C8.19097 19.7863 8.23786 19.4789 8.23786 19.1407C8.22614 17.6033 7.25296 16.3275 6.06874 16.3275Z" fill="currentColor"/>
  <path d="M16.4334 16.3275C15.2375 16.3275 14.276 17.5881 14.276 19.1561C14.276 19.4789 14.323 19.8017 14.405 20.0938C14.4285 20.063 14.4402 20.0324 14.4636 20.017C15.085 19.2022 15.8941 18.9101 16.2576 19.402C16.6211 19.8786 16.41 20.9393 15.7886 21.7541C15.7651 21.7848 15.7534 21.8002 15.7299 21.8309C15.9527 21.9386 16.1872 22 16.4451 22C17.6411 22 18.6026 20.7394 18.6026 19.1714C18.5909 17.6033 17.6294 16.3275 16.4334 16.3275Z" fill="currentColor"/>
  <path d="M29.2948 8.35634C29.9631 8.35634 30.5259 8.46394 30.9714 8.67916C31.4288 8.89438 31.7922 9.20184 32.0619 9.60152C32.3316 10.0012 32.5309 10.4778 32.6481 11.0312C32.7654 11.5846 32.824 12.1995 32.824 12.8759V19.7936C32.5191 19.886 32.0502 19.9935 31.417 20.1165C30.7956 20.2395 30.0804 20.301 29.2948 20.301C28.7789 20.301 28.2982 20.2395 27.8643 20.1011C27.4305 19.9782 27.0671 19.7629 26.7622 19.4709C26.4574 19.1788 26.2229 18.7945 26.047 18.3333C25.8711 17.872 25.789 17.288 25.789 16.6116C25.789 15.9504 25.8828 15.4124 26.0821 14.9513C26.2814 14.5054 26.5394 14.1365 26.8678 13.8444C27.1961 13.5677 27.583 13.3525 28.0285 13.2295C28.4623 13.1065 28.9196 13.045 29.4003 13.045C29.6231 13.045 29.8576 13.0604 30.1039 13.1065C30.35 13.1373 30.608 13.1988 30.8894 13.291V12.8606C30.8894 12.5531 30.8659 12.261 30.8073 11.9843C30.7487 11.7076 30.6549 11.4616 30.5142 11.2464C30.3735 11.0312 30.1977 10.8775 29.9631 10.7545C29.7403 10.6315 29.4472 10.5854 29.1072 10.5854C28.6382 10.5854 28.2161 10.6315 27.8291 10.7237C27.4422 10.816 27.1256 10.9082 26.8795 11.0312L26.6332 8.89438C26.8911 8.77139 27.2546 8.66379 27.7471 8.5408C28.2161 8.41782 28.732 8.35634 29.2948 8.35634ZM29.459 18.1949C30.0804 18.1949 30.5493 18.1487 30.8777 18.0719V15.151C30.7721 15.105 30.608 15.0589 30.397 15.0281C30.1859 14.9821 29.9514 14.9667 29.6934 14.9667C29.4707 14.9667 29.2479 14.9821 29.0251 15.0281C28.8023 15.0742 28.5913 15.151 28.4154 15.274C28.2279 15.3971 28.0871 15.5507 27.9699 15.766C27.8643 15.9812 27.8058 16.2425 27.8058 16.5654C27.8058 17.1956 27.9581 17.6261 28.2512 17.8566C28.5444 18.0719 28.9431 18.1949 29.459 18.1949Z" fill="currentColor"/>
  <path d="M37.1975 5.31269C37.1975 5.80462 37.0803 6.2043 36.8341 6.49639C36.5878 6.78848 36.3065 6.92682 35.9664 6.92682C35.6264 6.92682 35.3332 6.78848 35.0871 6.49639C34.8408 6.2043 34.7236 5.81999 34.7236 5.31269C34.7236 4.80538 34.8408 4.4057 35.0871 4.11361C35.3332 3.82152 35.6264 3.68318 35.9664 3.68318C36.2947 3.68318 36.5878 3.82152 36.8341 4.11361C37.0686 4.4057 37.1975 4.80538 37.1975 5.31269ZM36.9747 20.0552H34.9581V8.64858H36.9747V20.0552Z" fill="currentColor"/>
  <path d="M41.782 20.055C41.2309 18.5638 40.6564 16.8421 40.0701 14.8897C39.4839 12.9528 38.9563 10.8621 38.4756 8.64842H40.6212C40.7385 9.29408 40.8908 9.97048 41.0433 10.7084C41.2074 11.4463 41.3716 12.1842 41.5592 12.9067C41.7468 13.6445 41.9344 14.3517 42.122 15.0435C42.3214 15.7352 42.4972 16.3502 42.6613 16.9037C42.8255 16.3502 43.0014 15.7352 43.2007 15.0435C43.3883 14.3517 43.5759 13.6445 43.7635 12.9067C43.9511 12.1688 44.127 11.4309 44.2912 10.7084C44.4553 9.97048 44.6076 9.29408 44.7249 8.64842H46.8002C46.3195 10.8775 45.7919 12.9528 45.2057 14.8897C44.6194 16.8267 44.0449 18.5484 43.4938 20.055H41.782Z" fill="currentColor"/>
  <path d="M47.2692 14.398C47.2692 13.3987 47.3863 12.5225 47.6091 11.7538C47.8319 11.0006 48.1368 10.3703 48.512 9.863C48.8872 9.35569 49.321 8.98676 49.8135 8.72542C50.3059 8.46408 50.7984 8.3411 51.3143 8.3411C52.5102 8.3411 53.4482 8.83303 54.1166 9.80151C54.7848 10.77 55.1249 12.2304 55.1249 14.1674C55.1249 14.3058 55.1249 14.4748 55.1132 14.6593C55.1132 14.8438 55.1014 14.9976 55.0897 15.1512H49.3562C49.4148 16.0737 49.6611 16.7807 50.0948 17.2727C50.5287 17.78 51.1736 18.0259 51.9943 18.0259C52.4867 18.0259 52.9323 17.9645 53.3309 17.8569C53.7413 17.7338 54.0579 17.6108 54.2924 17.4879L54.562 19.64C54.4565 19.717 54.3042 19.7938 54.1048 19.8707C53.9055 19.9475 53.6945 20.0245 53.4365 20.0859C53.1903 20.1474 52.9206 20.2088 52.6275 20.255C52.3344 20.3012 52.0413 20.3164 51.7481 20.3164C50.986 20.3164 50.3176 20.1628 49.7549 19.8707C49.192 19.5786 48.7231 19.1635 48.3596 18.6255C47.9961 18.0875 47.7264 17.4725 47.5388 16.75C47.363 16.0429 47.2692 15.2589 47.2692 14.398ZM53.1082 13.2296C53.1082 12.8607 53.0731 12.5225 52.991 12.1997C52.9088 11.8768 52.8033 11.5848 52.6509 11.3542C52.4985 11.1082 52.3226 10.9237 52.0998 10.7854C51.8888 10.647 51.6309 10.5855 51.326 10.5855C51.0211 10.5855 50.7397 10.6624 50.5052 10.8161C50.2708 10.9698 50.0715 11.1697 49.919 11.4156C49.7549 11.6616 49.6376 11.9537 49.5438 12.2612C49.45 12.584 49.3914 12.9068 49.3562 13.245H53.1082V13.2296Z" fill="currentColor"/>
  <path d="M56.9187 9.01761C57.3057 8.87925 57.8099 8.74091 58.4313 8.60255C59.0527 8.46419 59.7445 8.4027 60.4949 8.4027C61.2101 8.4027 61.7963 8.52568 62.2771 8.78702C62.7578 9.04836 63.1331 9.40193 63.4144 9.86311C63.6958 10.3243 63.8951 10.8777 64.0124 11.5234C64.1296 12.169 64.1882 12.8762 64.1882 13.6448V20.0552H62.1716V14.0599C62.1716 13.445 62.1364 12.9223 62.0778 12.5072C62.0191 12.0768 61.9136 11.7232 61.773 11.4619C61.6322 11.2005 61.4446 11.0007 61.2101 10.8777C60.9756 10.7547 60.6825 10.6932 60.3424 10.6932C60.0845 10.6932 59.8265 10.7086 59.5452 10.7547C59.2638 10.8008 59.0645 10.8316 58.9355 10.8623V20.0552H56.9187V9.01761Z" fill="currentColor"/>
</svg>