<?xml version="1.0" encoding="iso-8859-1"?>
<!-- Generator: Adobe Illustrator 18.0.0, SVG Export Plug-In . SVG Version: 6.00 Build 0)  -->
<!DOCTYPE svg PUBLIC "-//W3C//DTD SVG 1.1//EN" "http://www.w3.org/Graphics/SVG/1.1/DTD/svg11.dtd">
<svg version="1.1" id="Capa_1" xmlns="http://www.w3.org/2000/svg" xmlns:xlink="http://www.w3.org/1999/xlink" x="0px" y="0px"
	 viewBox="0 0 47 47" width="14" height="14" style="enable-background:new 0 0 47 47;" xml:space="preserve">
<g>
	<path fill="currentColor" d="M46,29c-0.553,0-1-0.448-1-1V1c0-0.552,0.447-1,1-1s1,0.448,1,1v27C47,28.552,46.553,29,46,29z"/>
	<path fill="currentColor" d="M46,2H19c-0.553,0-1-0.448-1-1s0.447-1,1-1h27c0.553,0,1,0.448,1,1S46.553,2,46,2z"/>
	<path fill="currentColor" d="M1,47c-0.256,0-0.512-0.098-0.707-0.293c-0.391-0.391-0.391-1.023,0-1.414l45-45
		c0.391-0.391,1.023-0.391,1.414,0s0.391,1.023,0,1.414l-45,45C1.512,46.902,1.256,47,1,47z"/>
</g>
</svg>
