<svg xmlns="http://www.w3.org/2000/svg" width="20" height="24" viewBox="0 0 20 24">
    <g fill="none" fill-rule="evenodd" stroke="#666" stroke-linecap="round" stroke-linejoin="round" stroke-width="1.5">
        <path d="M4.316 12.612c-2.07-2.55-1.653-6.273.934-8.314 2.587-2.042 6.363-1.63 8.434.92 2.07 2.55 1.653 6.273-.934 8.315-.217.171-.446.327-.685.467" transform="translate(1 1)"/>
        <path d="M8.5 8.125c-.207 0-.375.168-.375.375s.168.375.375.375.375-.168.375-.375-.168-.375-.375-.375h0" transform="translate(1 1)"/>
        <path d="M1.5 0h15c.828 0 1.5.657 1.5 1.467v19.066c0 .81-.672 1.467-1.5 1.467h-15C.672 22 0 21.343 0 20.533V1.467C0 .657.672 0 1.5 0z" transform="translate(1 1)"/>
        <path d="M3.869 15.68c-.847.507-1.122 1.605-.614 2.452.508.846 1.606 1.12 2.452.613.252-.15.463-.361.614-.613L10 12l-6.131 3.68zM15.5 18L15.5 17M12.5 18L12.5 17" transform="translate(1 1)"/>
    </g>
</svg>
