<svg width="24" height="24" viewBox="0 0 24 24" fill="none" xmlns="http://www.w3.org/2000/svg">
<path fill-rule="evenodd" clip-rule="evenodd" d="M6.33211 4.33211C6.09745 4.56676 6 4.82523 6 5V17.0557C6.03557 17.0485 6.0694 17.0423 6.10123 17.037C6.20666 17.0195 6.2967 17.0103 6.3643 17.0055C6.39827 17.003 6.42706 17.0017 6.44984 17.0009L6.47957 17.0002L6.49098 17L6.49579 17L6.49797 17L6.49901 17L6.5 17.9921C6.5 17 6.49951 17 6.49901 17L18 17L18 5C18 4.82523 17.9025 4.56676 17.6679 4.33211C17.4332 4.09745 17.1748 4 17 4H7C6.82523 4 6.56676 4.09745 6.33211 4.33211ZM20 17.9999V5C20 4.17477 19.5975 3.43324 19.0821 2.91789C18.5668 2.40255 17.8252 2 17 2H7C6.17477 2 5.43324 2.40255 4.91789 2.91789C4.40255 3.43324 4 4.17477 4 5V19.5C4 20.05 4.14037 20.529 4.40232 20.9219C4.66011 21.3086 4.99666 21.5539 5.30279 21.7069C5.605 21.858 5.89511 21.9286 6.10123 21.963C6.20666 21.9805 6.2967 21.9897 6.3643 21.9945C6.39827 21.997 6.42706 21.9983 6.44984 21.9991L6.47957 21.9998L6.49098 22L6.49579 22L6.49901 22C6.49951 22 6.5 22 6.5 21L6.50007 22H19C19.5523 22 20 21.5523 20 21C20 20.4477 19.5523 20 19 20L19 19C19.5523 19 20 18.5522 20 17.9999ZM17 19H6.51278L6.50679 19.0004C6.49236 19.0014 6.46522 19.004 6.43002 19.0098C6.35489 19.0224 6.27 19.0455 6.19721 19.0819C6.12834 19.1164 6.08989 19.1523 6.06643 19.1875C6.04713 19.2165 6 19.3 6 19.5C6 19.7 6.04713 19.7835 6.06643 19.8125C6.08989 19.8477 6.12834 19.8836 6.19721 19.9181C6.27 19.9545 6.35489 19.9776 6.43002 19.9902C6.46522 19.996 6.49236 19.9986 6.50679 19.9996L6.51278 20H17V19ZM8 8C8 7.44772 8.44772 7 9 7H15C15.5523 7 16 7.44772 16 8C16 8.55228 15.5523 9 15 9H9C8.44772 9 8 8.55228 8 8ZM10 10C9.44772 10 9 10.4477 9 11C9 11.5523 9.44772 12 10 12H14C14.5523 12 15 11.5523 15 11C15 10.4477 14.5523 10 14 10H10Z" fill="currentColor"/>
</svg>
