<svg xmlns="http://www.w3.org/2000/svg" width="16" height="16" viewBox="0 0 16 16" fill="none">
  <path fill-rule="evenodd" clip-rule="evenodd" d="M4.22023 2.88685C4.06356 3.04352 3.99834 3.21624 3.99834 3.33329V11.3725C4.02276 11.3675 4.04596 11.3633 4.06776 11.3596C4.13799 11.3479 4.19796 11.3418 4.24299 11.3386C4.26561 11.337 4.28478 11.3361 4.29995 11.3356L4.31974 11.3351L4.32733 11.335L4.33054 11.335L4.33199 11.335C4.33232 11.335 4.33333 11.335 4.33333 11.9946V11.335H12.0017L12.0017 3.3333C12.0017 3.21624 11.9364 3.04352 11.7798 2.88685C11.6231 2.73018 11.4504 2.66496 11.3333 2.66496H4.66667C4.54961 2.66496 4.3769 2.73018 4.22023 2.88685ZM13.3317 11.9999V3.33329C13.3317 2.78368 13.0636 2.28973 12.7202 1.9464C12.3769 1.60307 11.8829 1.33496 11.3333 1.33496H4.66667C4.11706 1.33496 3.62311 1.60307 3.27978 1.9464C2.93645 2.28973 2.66833 2.78368 2.66833 3.33329V13C2.66833 13.3663 2.76184 13.6853 2.93627 13.947C3.10793 14.2045 3.33205 14.3678 3.53594 14.4698C3.73722 14.5704 3.93046 14.6174 4.06776 14.6403C4.13799 14.652 4.19796 14.6581 4.24299 14.6613C4.26561 14.6629 4.28478 14.6638 4.29995 14.6643L4.31974 14.6648L4.32733 14.6649L4.33054 14.665L4.33199 14.665C4.33232 14.665 4.33334 14.665 4.33333 14L4.33338 14.665H12.6667C13.0339 14.665 13.3317 14.3672 13.3317 14C13.3317 13.6327 13.0339 13.335 12.6667 13.335H12.6653L12.665 12.665H12.6667C13.0339 12.665 13.3317 12.3672 13.3317 11.9999ZM11.335 13.335H4.3425L4.33774 13.3347C4.32808 13.334 4.30993 13.3323 4.28641 13.3284C4.23621 13.32 4.17945 13.3045 4.13073 13.2802C4.08462 13.2571 4.05874 13.233 4.0429 13.2092C4.02983 13.1896 3.99834 13.1336 3.99834 13C3.99834 12.8663 4.02983 12.8103 4.0429 12.7907C4.05874 12.767 4.08462 12.7428 4.13073 12.7198C4.17945 12.6954 4.23621 12.6799 4.28641 12.6715C4.30993 12.6676 4.32808 12.6659 4.33774 12.6652L4.34181 12.665H11.335V13.335ZM5.33331 5.33504C5.33331 4.96777 5.63104 4.67004 5.99831 4.67004H10.0016C10.3689 4.67004 10.6666 4.96777 10.6666 5.33504C10.6666 5.70231 10.3689 6.00004 10.0016 6.00004H5.99831C5.63104 6.00004 5.33331 5.70231 5.33331 5.33504ZM6.665 6.67004C6.29773 6.67004 6 6.96777 6 7.33504C6 7.70231 6.29773 8.00004 6.665 8.00004H9.335C9.70227 8.00004 10 7.70231 10 7.33504C10 6.96777 9.70227 6.67004 9.335 6.67004H6.665Z" fill="currentColor"/>
</svg>