<svg width="16" height="16" viewBox="0 0 16 16" fill="none" xmlns="http://www.w3.org/2000/svg">
<path fill-rule="evenodd" clip-rule="evenodd" d="M5.27793 3.61131C5.08262 3.80662 5.00167 4.02161 5.00167 4.16671V14.2111C5.0306 14.2053 5.05814 14.2003 5.08408 14.1959C5.172 14.1813 5.24709 14.1736 5.30346 14.1696C5.33179 14.1676 5.35581 14.1664 5.37481 14.1658L5.39961 14.1652L5.40913 14.1651L5.41315 14.165L5.41497 14.165C5.41539 14.165 5.41666 14.165 5.41667 14.9936V14.165H14.9983L14.9983 4.16671C14.9983 4.02161 14.9174 3.80662 14.7221 3.61131C14.5268 3.416 14.3118 3.33504 14.1667 3.33504H5.83333C5.68823 3.33504 5.47324 3.416 5.27793 3.61131ZM14.165 15.835H5.42734L5.42244 15.8354C5.41046 15.8362 5.3879 15.8383 5.35862 15.8432C5.29612 15.8536 5.22555 15.8729 5.16509 15.9031C5.10789 15.9317 5.0761 15.9615 5.05674 15.9906C5.04086 16.0144 5.00167 16.0837 5.00167 16.25C5.00167 16.4164 5.04086 16.4857 5.05674 16.5095C5.0761 16.5386 5.10789 16.5683 5.16509 16.5969C5.22555 16.6272 5.29612 16.6465 5.35862 16.6569C5.3879 16.6617 5.41046 16.6639 5.42244 16.6647L5.42735 16.665H14.165V15.835ZM15.835 16.665C16.2954 16.6659 16.6683 17.0394 16.6683 17.5C16.6683 17.9612 16.2945 18.335 15.8333 18.335H5.4169L5.41667 17.5C5.41667 18.335 5.41625 18.335 5.41583 18.335L5.41315 18.335L5.40913 18.335L5.39961 18.3349L5.37481 18.3343C5.35581 18.3336 5.33179 18.3325 5.30346 18.3305C5.24709 18.3265 5.172 18.3188 5.08408 18.3041C4.91221 18.2755 4.67028 18.2167 4.41824 18.0906C4.16294 17.963 3.88223 17.7584 3.66722 17.4359C3.44872 17.1081 3.33167 16.7087 3.33167 16.25V4.16671C3.33167 3.47847 3.66738 2.86013 4.09706 2.43044C4.52675 2.00075 5.1451 1.66504 5.83333 1.66504H14.1667C14.8549 1.66504 15.4732 2.00075 15.9029 2.43044C16.3326 2.86013 16.6683 3.47847 16.6683 4.1667V15C16.6683 15.4606 16.2954 15.8341 15.835 15.835V16.665ZM6.66669 6.66496C6.66669 6.2038 7.04053 5.82996 7.50169 5.82996H12.4984C12.9595 5.82996 13.3334 6.2038 13.3334 6.66496C13.3334 7.12611 12.9595 7.49996 12.4984 7.49996H7.50169C7.04053 7.49996 6.66669 7.12611 6.66669 6.66496ZM8.335 8.32996C7.87384 8.32996 7.5 8.7038 7.5 9.16496C7.5 9.62611 7.87384 9.99996 8.335 9.99996H11.665C12.1262 9.99996 12.5 9.62611 12.5 9.16496C12.5 8.7038 12.1262 8.32996 11.665 8.32996H8.335Z" fill="currentColor"/>
</svg>