<svg width="16" height="16" viewBox="0 0 12 14" fill="none" xmlns="http://www.w3.org/2000/svg">
<path fill-rule="evenodd" clip-rule="evenodd" d="M2.22023 1.88685C2.06356 2.04352 1.99834 2.21624 1.99834 2.33329V10.3725C2.02276 10.3675 2.04596 10.3633 2.06776 10.3596C2.13799 10.3479 2.19796 10.3418 2.24299 10.3386C2.26561 10.337 2.28478 10.3361 2.29995 10.3356L2.31974 10.3351L2.32733 10.335L2.33054 10.335L2.33199 10.335C2.33232 10.335 2.33333 10.335 2.33333 10.9946V10.335H10.0017L10.0017 2.3333C10.0017 2.21624 9.93645 2.04352 9.77978 1.88685C9.62311 1.73018 9.45039 1.66496 9.33333 1.66496H2.66667C2.54961 1.66496 2.3769 1.73018 2.22023 1.88685ZM11.3317 10.9999V2.33329C11.3317 1.78368 11.0636 1.28973 10.7202 0.946401C10.3769 0.603072 9.88295 0.334961 9.33333 0.334961H2.66667C2.11706 0.334961 1.62311 0.603072 1.27978 0.946402C0.936445 1.28973 0.668335 1.78368 0.668335 2.33329V12C0.668335 12.3663 0.761837 12.6853 0.936271 12.947C1.10793 13.2045 1.33205 13.3678 1.53594 13.4698C1.73722 13.5704 1.93046 13.6174 2.06776 13.6403C2.13799 13.652 2.19796 13.6581 2.24299 13.6613C2.26561 13.6629 2.28478 13.6638 2.29995 13.6643L2.31974 13.6648L2.32733 13.6649L2.33054 13.665L2.33199 13.665C2.33232 13.665 2.33334 13.665 2.33333 13L2.33338 13.665H10.6667C11.0339 13.665 11.3317 13.3672 11.3317 13C11.3317 12.6327 11.0339 12.335 10.6667 12.335H10.6653L10.665 11.665H10.6667C11.0339 11.665 11.3317 11.3672 11.3317 10.9999ZM9.335 12.335H2.3425L2.33774 12.3347C2.32808 12.334 2.30993 12.3323 2.28641 12.3284C2.23621 12.32 2.17945 12.3045 2.13073 12.2802C2.08462 12.2571 2.05874 12.233 2.0429 12.2092C2.02983 12.1896 1.99834 12.1336 1.99834 12C1.99834 11.8663 2.02983 11.8103 2.0429 11.7907C2.05874 11.767 2.08462 11.7428 2.13073 11.7198C2.17945 11.6954 2.23621 11.6799 2.28641 11.6715C2.30993 11.6676 2.32808 11.6659 2.33774 11.6652L2.34181 11.665H9.335V12.335ZM3.33331 4.33504C3.33331 3.96777 3.63104 3.67004 3.99831 3.67004H8.00165C8.36892 3.67004 8.66665 3.96777 8.66665 4.33504C8.66665 4.70231 8.36892 5.00004 8.00165 5.00004H3.99831C3.63104 5.00004 3.33331 4.70231 3.33331 4.33504ZM4.665 5.67004C4.29773 5.67004 4 5.96777 4 6.33504C4 6.70231 4.29773 7.00004 4.665 7.00004H7.335C7.70227 7.00004 8 6.70231 8 6.33504C8 5.96777 7.70227 5.67004 7.335 5.67004H4.665Z" fill="currentColor"/>
</svg>