<svg xmlns="http://www.w3.org/2000/svg" width="16" height="20" viewBox="0 0 16 20" fill="none">
  <path fill-rule="evenodd" clip-rule="evenodd" d="M8 0C8.55228 0 9 0.447715 9 1V10.5858L12.2929 7.29289C12.6834 6.90237 13.3166 6.90237 13.7071 7.29289C14.0976 7.68342 14.0976 8.31658 13.7071 8.70711L8.70711 13.7071C8.31658 14.0976 7.68342 14.0976 7.29289 13.7071L2.29289 8.70711C1.90237 8.31658 1.90237 7.68342 2.29289 7.29289C2.68342 6.90237 3.31658 6.90237 3.70711 7.29289L7 10.5858V1C7 0.447715 7.44772 0 8 0ZM0 19C0 18.4477 0.447715 18 1 18H15C15.5523 18 16 18.4477 16 19C16 19.5523 15.5523 20 15 20H1C0.447715 20 0 19.5523 0 19Z" fill="currentColor"/>
</svg>