<svg xmlns="http://www.w3.org/2000/svg" width="16" height="16" viewBox="0 0 16 16" fill="none">
  <path d="M7.33325 3C7.33325 3.55228 6.88554 4 6.33325 4C5.78097 4 5.33325 3.55228 5.33325 3C5.33325 2.44772 5.78097 2 6.33325 2C6.88554 2 7.33325 2.44772 7.33325 3Z" fill="currentColor"/>
  <path d="M7.33325 6.33337C7.33325 6.88566 6.88554 7.33337 6.33325 7.33337C5.78097 7.33337 5.33325 6.88566 5.33325 6.33337C5.33325 5.78109 5.78097 5.33337 6.33325 5.33337C6.88554 5.33337 7.33325 5.78109 7.33325 6.33337Z" fill="currentColor"/>
  <path d="M7.33325 9.66663C7.33325 10.2189 6.88554 10.6666 6.33325 10.6666C5.78097 10.6666 5.33325 10.2189 5.33325 9.66663C5.33325 9.11434 5.78097 8.66663 6.33325 8.66663C6.88554 8.66663 7.33325 9.11434 7.33325 9.66663Z" fill="currentColor"/>
  <path d="M7.33325 13C7.33325 13.5523 6.88554 14 6.33325 14C5.78097 14 5.33325 13.5523 5.33325 13C5.33325 12.4477 5.78097 12 6.33325 12C6.88554 12 7.33325 12.4477 7.33325 13Z" fill="currentColor"/>
  <path d="M10.6667 3C10.6667 3.55228 10.219 4 9.66675 4C9.11446 4 8.66675 3.55228 8.66675 3C8.66675 2.44772 9.11446 2 9.66675 2C10.219 2 10.6667 2.44772 10.6667 3Z" fill="currentColor"/>
  <path d="M10.6667 6.33337C10.6667 6.88566 10.219 7.33337 9.66675 7.33337C9.11446 7.33337 8.66675 6.88566 8.66675 6.33337C8.66675 5.78109 9.11446 5.33337 9.66675 5.33337C10.219 5.33337 10.6667 5.78109 10.6667 6.33337Z" fill="currentColor"/>
  <path d="M10.6667 9.66663C10.6667 10.2189 10.219 10.6666 9.66675 10.6666C9.11446 10.6666 8.66675 10.2189 8.66675 9.66663C8.66675 9.11434 9.11446 8.66663 9.66675 8.66663C10.219 8.66663 10.6667 9.11434 10.6667 9.66663Z" fill="currentColor"/>
  <path d="M10.6667 13C10.6667 13.5523 10.219 14 9.66675 14C9.11446 14 8.66675 13.5523 8.66675 13C8.66675 12.4477 9.11446 12 9.66675 12C10.219 12 10.6667 12.4477 10.6667 13Z" fill="currentColor"/>
</svg>