<svg xmlns="http://www.w3.org/2000/svg" width="20" height="20" viewBox="0 0 20 20">
    <defs>
        <filter id="puq2nd7nga">
            <feColorMatrix in="SourceGraphic" values="0 0 0 0 0.212993 0 0 0 0 0.512599 0 0 0 0 0.861076 0 0 0 1.000000 0"/>
        </filter>
    </defs>
    <g fill="none" fill-rule="evenodd" stroke-linecap="round" stroke-linejoin="round">
        <g>
            <g>
                <g filter="url(#puq2nd7nga)" transform="translate(-1191 -135) translate(200 120) translate(991 15)">
                    <g stroke="#3683DC" stroke-width="1.25">
                        <path d="M18.493 1.512C17.921.942 17.146.625 16.34.63c-.808.005-1.579.333-2.143.91L2.142 13.59.625 19.376l5.785-1.516L18.464 5.81c.577-.565.905-1.336.91-2.143.006-.807-.311-1.583-.88-2.154h0zM13.851 1.886L18.119 6.152M12.11 3.626L16.378 7.893"/>
                        <path d="M2.142 13.592L5.133 14.868 6.413 17.855M14.244 5.759L5.133 14.867"/>
                    </g>
                </g>
            </g>
        </g>
    </g>
</svg>
