<svg width="80" height="80" viewBox="0 0 80 80" fill="none" xmlns="http://www.w3.org/2000/svg">
  <path fill-rule="evenodd" clip-rule="evenodd" d="M51.0191 11.0747C51.2517 10.2797 52.0849 9.82371 52.88 10.0564C56.4142 11.0905 59.2102 12.8083 61.2287 15.2138C63.187 17.5477 64.4519 19.8589 65.0004 22.1553C65.1929 22.9611 64.6958 23.7703 63.89 23.9628C63.0842 24.1552 62.275 23.6581 62.0825 22.8523C61.6515 21.0477 60.6084 19.1418 58.9306 17.1422C57.3129 15.2144 55.0283 13.8108 52.0375 12.9356C51.2424 12.703 50.7864 11.8698 51.0191 11.0747ZM24.7459 25.467L24.6281 25.625L24.5576 25.6269C18.1963 25.7768 13.0326 28.5602 9.19374 33.9052C3.39923 41.973 3.602 53.9367 9.33976 59.8026C12.9291 63.472 16.6205 65.3589 20.3996 65.3589H65.3434C65.7043 65.3589 66.0532 65.2287 66.3259 64.9923C73.3827 58.875 76.0999 52.0308 74.2911 44.6343L74.2007 44.2789C72.3967 37.4616 67.3923 33.774 59.5219 33.3265L59.3171 33.316L59.3045 33.0536C58.8061 24.3338 54.4502 18.7345 46.3887 16.5723C38.1001 14.3492 30.8113 17.3874 24.7459 25.467ZM45.6115 19.4699C52.8335 21.4069 56.3528 26.383 56.3528 34.7802C56.3528 35.6087 57.0243 36.2802 57.8528 36.2802C65.5221 36.2802 69.8873 39.2553 71.377 45.347L71.4575 45.6919C72.7606 51.547 70.6737 56.9745 65.04 62.1212L64.7761 62.358L20.3996 62.3589C17.5203 62.3589 14.5534 60.8423 11.4844 57.7048C6.82112 52.9375 6.64583 42.5953 11.6304 35.6553C15.0716 30.8641 19.6044 28.5471 25.3738 28.6223C25.8656 28.6287 26.3293 28.3936 26.6148 27.9931C32.1092 20.2854 38.3596 17.5249 45.6115 19.4699ZM31.5001 42.9999C32.8808 42.9999 34.0001 41.8807 34.0001 40.4999C34.0001 39.1192 32.8808 37.9999 31.5001 37.9999C30.1193 37.9999 29.0001 39.1192 29.0001 40.4999C29.0001 41.8807 30.1193 42.9999 31.5001 42.9999ZM51.0001 40.4999C51.0001 41.8807 49.8808 42.9999 48.5001 42.9999C47.1194 42.9999 46.0001 41.8807 46.0001 40.4999C46.0001 39.1192 47.1194 37.9999 48.5001 37.9999C49.8808 37.9999 51.0001 39.1192 51.0001 40.4999ZM66.0001 29.9999C67.1046 29.9999 68.0001 29.1045 68.0001 27.9999C68.0001 26.8954 67.1046 25.9999 66.0001 25.9999C64.8955 25.9999 64.0001 26.8954 64.0001 27.9999C64.0001 29.1045 64.8955 29.9999 66.0001 29.9999ZM40.6836 46.4999C37.8208 46.4999 35.5001 48.8207 35.5001 51.6834C35.5001 54.5462 37.8208 56.8669 40.6836 56.8669C43.5463 56.8669 45.8671 54.5462 45.8671 51.6834C45.8671 48.8207 43.5463 46.4999 40.6836 46.4999ZM40.6836 49.4999C41.8895 49.4999 42.8671 50.4775 42.8671 51.6834C42.8671 52.8894 41.8895 53.8669 40.6836 53.8669C39.4776 53.8669 38.5001 52.8894 38.5001 51.6834C38.5001 50.4775 39.4776 49.4999 40.6836 49.4999Z" fill="url(#paint0_linear_2146_27913)"/>
  <defs>
    <linearGradient id="paint0_linear_2146_27913" x1="74.8347" y1="9.99561" x2="4.94116" y2="9.99561" gradientUnits="userSpaceOnUse">
      <stop stop-color="#00B050"/>
      <stop offset="0.510417" stop-color="#18B5AC"/>
      <stop offset="1" stop-color="#017AC6"/>
    </linearGradient>
  </defs>
</svg>
