<svg xmlns="http://www.w3.org/2000/svg" width="24" height="24" viewBox="0 0 24 24" fill="none">
  <path d="M19.2002 9.4502C19.4339 9.45029 19.6255 9.62844 19.6475 9.85645L19.6504 9.90039V20.4189C19.6504 20.9704 19.2146 21.419 18.6689 21.4482L18.6123 21.4502H5.3877C4.83487 21.4502 4.3812 21.0195 4.35156 20.4756L4.34961 20.4189V9.90039C4.34961 9.65193 4.55137 9.4503 4.7998 9.4502C5.03364 9.4502 5.22615 9.62835 5.24805 9.85645L5.25 9.90039V20.4189C5.25 20.4819 5.29758 20.5364 5.3623 20.5479L5.3877 20.5498H18.6123C18.681 20.5498 18.7366 20.5027 18.748 20.4424L18.75 20.4189V9.90039C18.75 9.65186 18.9517 9.4502 19.2002 9.4502ZM21.9004 10.3584C22.1341 10.3586 22.3259 10.5376 22.3477 10.7656L22.3496 10.8086V16.5332C22.3496 16.7816 22.1487 16.9832 21.9004 16.9834C21.6665 16.9834 21.474 16.8044 21.4521 16.5762L21.4502 16.5332V10.8086C21.4503 10.5602 21.652 10.3584 21.9004 10.3584ZM12.2051 13.3242C13.1924 13.3242 13.993 14.124 13.9932 15.1113C13.9932 16.0988 13.1925 16.8994 12.2051 16.8994C11.2176 16.8994 10.417 16.0988 10.417 15.1113C10.4172 14.124 11.2177 13.3242 12.2051 13.3242ZM12.2051 14.2236C11.7148 14.2236 11.3176 14.6211 11.3174 15.1113C11.3174 15.6017 11.7147 16 12.2051 16C12.6955 16 13.0928 15.6017 13.0928 15.1113C13.0926 14.6211 12.6953 14.2236 12.2051 14.2236ZM9.4502 10.7998C9.86425 10.7999 10.2001 11.1357 10.2002 11.5498C10.2002 11.964 9.86432 12.2997 9.4502 12.2998C9.03598 12.2998 8.7002 11.964 8.7002 11.5498C8.7003 11.1357 9.03605 10.7998 9.4502 10.7998ZM14.5498 10.7998C14.964 10.7998 15.2997 11.1357 15.2998 11.5498C15.2998 11.964 14.964 12.2998 14.5498 12.2998C14.1357 12.2997 13.7998 11.964 13.7998 11.5498C13.7999 11.1357 14.1357 10.7999 14.5498 10.7998ZM2.25 4.05957C2.48391 4.05957 2.67644 4.2386 2.69824 4.4668L2.7002 4.50977V8.12207C2.7002 8.3706 2.49853 8.57227 2.25 8.57227C2.01622 8.57227 1.82374 8.39403 1.80176 8.16602L1.7998 8.12207V4.50977C1.79995 4.26136 2.00156 4.05957 2.25 4.05957ZM4.7998 7.2002C5.13111 7.2002 5.40029 7.46852 5.40039 7.7998C5.40039 8.13118 5.13118 8.40039 4.7998 8.40039C4.46852 8.40029 4.2002 8.13111 4.2002 7.7998C4.2003 7.46859 4.46859 7.2003 4.7998 7.2002ZM14.4844 2.5498C14.7105 2.54986 14.9299 2.62329 15.0986 2.74902L15.1475 2.78906L19.291 6.05176C19.5026 6.23337 19.6312 6.49172 19.6484 6.76758L19.6504 6.83203V7.7998C19.6504 8.04827 19.4486 8.24989 19.2002 8.25C18.9664 8.25 18.7739 8.07176 18.752 7.84375L18.75 7.7998V6.83203C18.75 6.80272 18.7391 6.77368 18.7275 6.75684L18.7188 6.74707L14.5762 3.4834C14.5574 3.4674 14.5344 3.45658 14.5098 3.45215L14.4844 3.4502L5.25 3.44922V5.79785C5.25 6.04638 5.04833 6.24805 4.7998 6.24805C4.56606 6.24795 4.37444 6.06983 4.35254 5.8418L4.34961 5.79785V3.2998C4.34971 2.90225 4.65962 2.57715 5.05078 2.55176L5.09961 2.5498H14.4844ZM12 7.0498C12.2485 7.0498 12.4502 7.25147 12.4502 7.5C12.4502 7.73391 12.2712 7.92644 12.043 7.94824L12 7.9502H8.09961C7.85126 7.94998 7.65039 7.7484 7.65039 7.5C7.65039 7.26609 7.82844 7.07356 8.05664 7.05176L8.09961 7.0498H12Z" fill="currentColor"/>
</svg>