<svg xmlns="http://www.w3.org/2000/svg" width="24" height="24" viewBox="0 0 24 24">
  <g fill="none" fill-rule="evenodd">
    <path fill="#3683DC" d="M12,0.75 C18.213,0.75 23.25,5.787 23.25,12 C23.25,18.213 18.213,23.25 12,23.25 C5.787,23.25 0.75,18.213 0.75,12 C0.75,5.787 5.787,0.75 12,0.75 Z"/>
    <path fill="#FFF" d="M18.475,9.48 L12.575,16.559 C12.309,16.877 11.835,16.919 11.517,16.653 C11.483,16.624 11.451,16.593 11.423,16.559 L5.525,9.48 C5.26,9.162 5.303,8.689 5.621,8.424 C5.756,8.312 5.925,8.25 6.1,8.25 L8.279,8.25 C8.735,8.25 9.165,8.457 9.45,8.813 L12,12 L14.55,8.813 C14.835,8.457 15.265,8.25 15.721,8.25 L17.9,8.25 C18.314,8.251 18.649,8.587 18.649,9.001 C18.648,9.176 18.587,9.346 18.475,9.48 Z"/>
  </g>
</svg>
