<svg width="16" height="16" viewBox="0 0 16 16" fill="none" xmlns="http://www.w3.org/2000/svg">
<path fill-rule="evenodd" clip-rule="evenodd" d="M10 2.66502C9.63273 2.66502 9.335 2.36729 9.335 2.00002C9.335 1.63275 9.63273 1.33502 10 1.33502H14H14C14.0923 1.33502 14.1802 1.35383 14.2601 1.38783C14.3287 1.41693 14.3933 1.45806 14.4509 1.51122C14.4645 1.52382 14.4777 1.537 14.4902 1.5507C14.5413 1.60628 14.5811 1.66844 14.6098 1.73429C14.6453 1.81567 14.665 1.90555 14.665 2.00002V6.00002C14.665 6.36729 14.3673 6.66502 14 6.66502C13.6327 6.66502 13.335 6.36729 13.335 6.00002V3.60546L7.13688 9.80358C6.87718 10.0633 6.45613 10.0633 6.19643 9.80358C5.93673 9.54388 5.93673 9.12283 6.19643 8.86313L12.3945 2.66502H10ZM3.33333 4.66502C3.15608 4.66502 2.98609 4.73544 2.86075 4.86077C2.73541 4.98611 2.665 5.1561 2.665 5.33336V12.6667C2.665 12.8439 2.73541 13.0139 2.86075 13.1393C2.98609 13.2646 3.15608 13.335 3.33333 13.335H10.6667C10.8439 13.335 11.0139 13.2646 11.1392 13.1393C11.2646 13.0139 11.335 12.8439 11.335 12.6667V8.66669C11.335 8.29942 11.6327 8.00169 12 8.00169C12.3673 8.00169 12.665 8.29942 12.665 8.66669V12.6667C12.665 13.1967 12.4545 13.705 12.0797 14.0797C11.7049 14.4545 11.1967 14.665 10.6667 14.665H3.33333C2.80334 14.665 2.29506 14.4545 1.9203 14.0797C1.54554 13.705 1.335 13.1967 1.335 12.6667V5.33336C1.335 4.80336 1.54554 4.29508 1.9203 3.92032C2.29506 3.54556 2.80334 3.33502 3.33333 3.33502H7.33333C7.7006 3.33502 7.99833 3.63275 7.99833 4.00002C7.99833 4.36729 7.7006 4.66502 7.33333 4.66502H3.33333Z" fill="currentColor"/>
</svg>
