<svg width="16" height="16" viewBox="0 0 16 16" fill="none" xmlns="http://www.w3.org/2000/svg">
<path fill-rule="evenodd" clip-rule="evenodd" d="M9.99996 2.66496C9.63269 2.66496 9.33496 2.36723 9.33496 1.99996C9.33496 1.63269 9.63269 1.33496 9.99996 1.33496H14H14C14.0923 1.33496 14.1802 1.35377 14.2601 1.38777C14.3287 1.41687 14.3933 1.458 14.4508 1.51115C14.4645 1.52376 14.4776 1.53694 14.4902 1.55064C14.5412 1.60622 14.5811 1.66837 14.6097 1.73422C14.6453 1.81561 14.665 1.90549 14.665 1.99996V5.99996C14.665 6.36723 14.3672 6.66496 14 6.66496C13.6327 6.66496 13.335 6.36723 13.335 5.99996V3.6054L7.13684 9.80352C6.87714 10.0632 6.45609 10.0632 6.19639 9.80352C5.93669 9.54382 5.93669 9.12277 6.19639 8.86307L12.3945 2.66496H9.99996ZM3.33329 4.66496C3.15604 4.66496 2.98605 4.73537 2.86071 4.86071C2.73537 4.98605 2.66496 5.15604 2.66496 5.33329V12.6666C2.66496 12.8439 2.73537 13.0139 2.86071 13.1392C2.98605 13.2645 3.15604 13.335 3.33329 13.335H10.6666C10.8439 13.335 11.0139 13.2645 11.1392 13.1392C11.2645 13.0139 11.335 12.8439 11.335 12.6666V8.66663C11.335 8.29936 11.6327 8.00163 12 8.00163C12.3672 8.00163 12.665 8.29936 12.665 8.66663V12.6666C12.665 13.1966 12.4544 13.7049 12.0797 14.0797C11.7049 14.4544 11.1966 14.665 10.6666 14.665H3.33329C2.8033 14.665 2.29502 14.4544 1.92026 14.0797C1.5455 13.7049 1.33496 13.1966 1.33496 12.6666V5.33329C1.33496 4.8033 1.5455 4.29502 1.92026 3.92026C2.29502 3.5455 2.8033 3.33496 3.33329 3.33496H7.33329C7.70056 3.33496 7.99829 3.63269 7.99829 3.99996C7.99829 4.36723 7.70056 4.66496 7.33329 4.66496H3.33329Z" fill="currentColor"/>
</svg>
