<svg 
  version="1.1"
  xmlns="http://www.w3.org/2000/svg"
  xmlns:xlink="http://www.w3.org/1999/xlink"
  x="0px"
  y="0px"
  viewBox="0 0 60 60" style="enable-background:new 0 0 60 60;" 
  xml:space="preserve"
  width="24px"
  height="24px"
  >
  <rect x="16.5" y="31" style="fill:#606469;" width="10" height="6"/>
  <path style="fill:#606469;" d="M3.5,0c-0.552,0-1,0.447-1,1v3v55c0,0.553,0.448,1,1,1s1-0.447,1-1V4V1C4.5,0.447,4.052,0,3.5,0z"/>
  <rect x="4.5" y="4" style="fill:#4D99F1;" width="22" height="29"/>
  <path style="fill:#3683DC;" d="M26.5,9v24h-6c-2.209,0-4,1.791-4,4c0,2.209,1.791,4,4,4h4h33l-11-16l11-16H26.5z"/>
  <path style="fill:#5F88EA;" d="M16.5,37c0,2.209,1.791,4,4,4h4h2v-8h-6C18.291,33,16.5,34.791,16.5,37z"/>
</svg>
