<svg xmlns="http://www.w3.org/2000/svg" width="18" height="20" viewBox="0 0 18 20" fill="none">
  <path fill-rule="evenodd" clip-rule="evenodd" d="M1.50453 0.571552C2.2605 0.269157 3.3883 0 5.00089 0C6.69435 0 8.0976 0.561495 9.31626 1.04913L9.37205 1.07145C10.6399 1.5786 11.7191 1.9996 12.9991 1.9996C14.3859 1.9996 15.2576 1.76886 15.7514 1.57135C15.9991 1.47225 16.1563 1.3797 16.2395 1.32427C16.2808 1.29672 16.3044 1.27792 16.3123 1.27144C16.5986 1.00244 17.0169 0.925 17.3816 1.07606C17.7559 1.23112 18 1.59641 18 2.0016V12.9994C18 13.2651 17.8945 13.5199 17.7066 13.7078L16.9983 12.9995C17.7066 13.7078 17.7061 13.7083 17.7055 13.7088L17.7045 13.7099L17.7022 13.7121L17.6975 13.7168L17.6867 13.7272L17.6743 13.7388L17.6601 13.7519C17.6401 13.7701 17.6156 13.7915 17.5862 13.8157C17.5275 13.8641 17.4497 13.9233 17.3508 13.9892C17.1528 14.1212 16.8726 14.2786 16.4955 14.4294C15.7395 14.7318 14.6117 15.001 12.9991 15.001C11.3056 15.001 9.9024 14.4395 8.68374 13.9519L8.62795 13.9295C7.3601 13.4224 6.28086 13.0014 5.00089 13.0014C3.61414 13.0014 2.74238 13.2321 2.24863 13.4296C2.15405 13.4675 2.07266 13.5044 2.00355 13.5386V18.9982C2.00355 19.5515 1.55504 20 1.00178 20C0.448511 20 0 19.5515 0 18.9982V12.9994V2.0016C0 1.73591 0.105544 1.48109 0.293414 1.29322L1.00149 2.00131C0.293414 1.29322 0.293937 1.2927 0.294464 1.29217L0.29554 1.2911L0.297768 1.28889L0.302532 1.28421L0.313299 1.27382C0.321032 1.26644 0.329879 1.25818 0.339869 1.2491C0.359854 1.23093 0.3844 1.2095 0.413757 1.18532C0.472506 1.13694 0.550329 1.07773 0.649171 1.01183C0.847218 0.879799 1.12743 0.722395 1.50453 0.571552Z" fill="currentColor"/>
</svg>