<svg xmlns="http://www.w3.org/2000/svg" width="20" height="20" viewBox="0 0 20 20">
    <g fill="none" fill-rule="evenodd" stroke="#E3E5E8" stroke-linecap="round" stroke-linejoin="round" stroke-width="1.2">
        <path d="M8.184 1.408c.604.671 1.639.726 2.31.12.043-.038.083-.078.12-.12l.791-.868c.606-.671 1.642-.724 2.313-.117.366.33.563.807.538 1.298l-.06 1.17c-.045.904.65 1.673 1.553 1.718.054.003.108.003.162 0l1.17-.06c.904-.044 1.672.653 1.717 1.556.024.49-.173.966-.538 1.296l-.871.786c-.671.607-.724 1.642-.118 2.314.037.04.076.08.118.118l.871.786c.671.606.724 1.642.117 2.313-.33.365-.807.563-1.298.537l-1.17-.059c-.903-.047-1.672.648-1.72 1.551-.002.056-.002.112 0 .168l.06 1.17c.04.904-.66 1.67-1.563 1.71-.484.021-.953-.173-1.28-.53l-.787-.871c-.606-.671-1.642-.724-2.313-.118-.041.038-.081.077-.118.118l-.79.87c-.609.67-1.644.718-2.313.11-.36-.328-.556-.8-.534-1.287l.06-1.17c.047-.903-.648-1.672-1.55-1.72-.057-.002-.113-.002-.169 0l-1.17.06c-.903.047-1.673-.646-1.72-1.55-.026-.49.17-.968.536-1.298l.87-.786c.672-.607.724-1.643.118-2.314-.037-.041-.076-.08-.118-.118l-.87-.79c-.67-.608-.72-1.643-.113-2.313.329-.362.803-.558 1.291-.535l1.17.06c.903.047 1.673-.647 1.72-1.549.004-.058.004-.115 0-.174L4.552 1.72C4.508.815 5.206.049 6.11.006c.487-.023.96.173 1.288.534l.786.868z" transform="translate(.6 .6)"/>
        <path d="M9.4 6.267c1.73 0 3.133 1.403 3.133 3.133S11.13 12.533 9.4 12.533 6.267 11.13 6.267 9.4 7.67 6.267 9.4 6.267z" transform="translate(.6 .6)"/>
    </g>
</svg>
