<svg width="24" height="24" viewBox="0 0 24 24" fill="none" xmlns="http://www.w3.org/2000/svg">
    <path fill="currentColor" d="M11.0166 13.0225V13.6104H13.1152V13.2617C13.1152 13.1159 13.1471 12.986 13.2109 12.8721C13.2793 12.7581 13.391 12.6396 13.5459 12.5166C13.7054 12.3936 13.9219 12.2454 14.1953 12.0723C14.5827 11.8216 14.8949 11.5664 15.1318 11.3066C15.3688 11.0469 15.542 10.7689 15.6514 10.4727C15.7607 10.1764 15.8154 9.85059 15.8154 9.49512C15.8154 8.74772 15.5306 8.14616 14.9609 7.69043C14.3913 7.23014 13.5892 7 12.5547 7C11.8665 7 11.2308 7.08887 10.6475 7.2666C10.0641 7.43978 9.51497 7.67448 9 7.9707L9.9502 9.83008C10.4059 9.58854 10.8343 9.40625 11.2354 9.2832C11.641 9.16016 12.0169 9.09863 12.3633 9.09863C12.6413 9.09863 12.8669 9.1556 13.04 9.26953C13.2132 9.37891 13.2998 9.5293 13.2998 9.7207C13.2998 9.84375 13.277 9.9668 13.2314 10.0898C13.1859 10.2083 13.0902 10.3405 12.9443 10.4863C12.7985 10.6276 12.5706 10.7962 12.2607 10.9922C11.9372 11.1973 11.6842 11.4023 11.502 11.6074C11.3197 11.8125 11.1921 12.029 11.1191 12.2568C11.0508 12.4847 11.0166 12.7399 11.0166 13.0225Z"/>
    <path fill="currentColor" d="M11.1396 14.9844C10.8617 15.1803 10.7227 15.5199 10.7227 16.0029C10.7227 16.4632 10.8617 16.7959 11.1396 17.001C11.4222 17.2061 11.764 17.3086 12.165 17.3086C12.5479 17.3086 12.8783 17.2061 13.1562 17.001C13.4388 16.7959 13.5801 16.4632 13.5801 16.0029C13.5801 15.5199 13.4388 15.1803 13.1562 14.9844C12.8783 14.7884 12.5479 14.6904 12.165 14.6904C11.764 14.6904 11.4222 14.7884 11.1396 14.9844Z"/>
    <path fill="currentColor" fill-rule="evenodd" clip-rule="evenodd" d="M12 2C6.47715 2 2 6.47715 2 12C2 17.5228 6.47715 22 12 22C17.5228 22 22 17.5228 22 12C22 6.47715 17.5228 2 12 2ZM4 12C4 7.58172 7.58172 4 12 4C16.4183 4 20 7.58172 20 12C20 16.4183 16.4183 20 12 20C7.58172 20 4 16.4183 4 12Z"/>
</svg>
