<svg width="20" height="20" viewBox="0 0 20 20" xmlns="http://www.w3.org/2000/svg">
    <path d="M9.18049 10.852V11.3419H10.9294V11.0514C10.9294 10.9299 10.9559 10.8216 11.0091 10.7267C11.0661 10.6317 11.1591 10.533 11.2882 10.4305C11.4212 10.3279 11.6016 10.2045 11.8294 10.0602C12.1522 9.8513 12.4124 9.63863 12.6099 9.42216C12.8073 9.20569 12.9516 8.97403 13.0428 8.72717C13.1339 8.48032 13.1795 8.20878 13.1795 7.91256C13.1795 7.28973 12.9422 6.78842 12.4674 6.40865C11.9927 6.02508 11.3243 5.83329 10.4622 5.83329C9.88877 5.83329 9.35898 5.90735 8.87287 6.05546C8.38676 6.19977 7.92913 6.39536 7.49999 6.64221L8.29182 8.19169C8.67159 7.99041 9.02858 7.8385 9.36278 7.73596C9.70078 7.63342 10.0141 7.58215 10.3027 7.58215C10.5344 7.58215 10.7224 7.62963 10.8667 7.72457C11.011 7.81571 11.0832 7.94104 11.0832 8.10054C11.0832 8.20308 11.0642 8.30562 11.0262 8.40816C10.9882 8.5069 10.9085 8.61704 10.7869 8.73857C10.6654 8.8563 10.4755 8.99681 10.2173 9.16012C9.94764 9.33101 9.73686 9.50191 9.58495 9.67281C9.43304 9.84371 9.3267 10.0241 9.26594 10.214C9.20897 10.4039 9.18049 10.6166 9.18049 10.852Z" fill="#3D3D42"/>
    <path d="M9.28303 12.4869C9.05137 12.6502 8.93554 12.9332 8.93554 13.3357C8.93554 13.7193 9.05137 13.9965 9.28303 14.1674C9.51849 14.3383 9.80332 14.4238 10.1375 14.4238C10.4565 14.4238 10.7319 14.3383 10.9635 14.1674C11.199 13.9965 11.3167 13.7193 11.3167 13.3357C11.3167 12.9332 11.199 12.6502 10.9635 12.4869C10.7319 12.3236 10.4565 12.242 10.1375 12.242C9.80332 12.242 9.51849 12.3236 9.28303 12.4869Z" fill="#3D3D42"/>
    <path fill-rule="evenodd" clip-rule="evenodd" d="M9.99999 1.66663C5.39762 1.66663 1.66666 5.39759 1.66666 9.99996C1.66666 14.6023 5.39762 18.3333 9.99999 18.3333C14.6024 18.3333 18.3333 14.6023 18.3333 9.99996C18.3333 5.39759 14.6024 1.66663 9.99999 1.66663ZM3.33332 9.99996C3.33332 6.31806 6.31809 3.33329 9.99999 3.33329C13.6819 3.33329 16.6667 6.31806 16.6667 9.99996C16.6667 13.6819 13.6819 16.6666 9.99999 16.6666C6.31809 16.6666 3.33332 13.6819 3.33332 9.99996Z" fill="#3D3D42"/>
</svg>
