<svg xmlns="http://www.w3.org/2000/svg" width="24" height="25" viewBox="0 0 24 25">
    <g fill="none" fill-rule="evenodd" stroke="#3683DC" stroke-linecap="round" stroke-linejoin="round" stroke-width="1.5">
        <path d="M20.952 10.476H2.095V20.56c0 .795.65 1.44 1.45 1.44h15.957c.8 0 1.45-.645 1.45-1.44V10.476zM20.533 6.286H1.467C.657 6.286 0 6.91 0 7.683v2.095c0 .385.329.698.733.698h20.534c.404 0 .733-.313.733-.698V7.683c0-.772-.657-1.397-1.467-1.397zM10.476 6.286C7.39 6.286 4.19 3.472 4.19 0M4.19 0c3.087 0 6.286 2.814 6.286 6.286M11.524 6.286c3.086 0 6.286-2.814 6.286-6.286M17.81 0c-3.087 0-6.286 2.814-6.286 6.286" transform="translate(1 1.917)"/>
        <path d="M9.429 6.286L13.619 6.286 13.619 22 9.429 22z" transform="translate(1 1.917)"/>
    </g>
</svg>
