<svg xmlns="http://www.w3.org/2000/svg" width="20" height="20" viewBox="0 0 20 20" fill="none">
  <path fill-rule="evenodd" clip-rule="evenodd" d="M1.66499 5.00004C1.66499 4.53888 2.03884 4.16504 2.49999 4.16504H2.50833C2.96948 4.16504 3.34333 4.53888 3.34333 5.00004C3.34333 5.4612 2.96948 5.83504 2.50833 5.83504H2.49999C2.03884 5.83504 1.66499 5.4612 1.66499 5.00004ZM5.83162 5.00004C5.83162 4.53888 6.20546 4.16504 6.66662 4.16504H17.5C17.9611 4.16504 18.335 4.53888 18.335 5.00004C18.335 5.4612 17.9611 5.83504 17.5 5.83504H6.66662C6.20546 5.83504 5.83162 5.4612 5.83162 5.00004ZM1.66499 10C1.66499 9.53888 2.03884 9.16504 2.49999 9.16504H2.50833C2.96948 9.16504 3.34333 9.53888 3.34333 10C3.34333 10.4612 2.96948 10.835 2.50833 10.835H2.49999C2.03884 10.835 1.66499 10.4612 1.66499 10ZM5.83162 10C5.83162 9.53888 6.20546 9.16504 6.66662 9.16504H17.5C17.9611 9.16504 18.335 9.53888 18.335 10C18.335 10.4612 17.9611 10.835 17.5 10.835H6.66662C6.20546 10.835 5.83162 10.4612 5.83162 10ZM1.66499 15C1.66499 14.5389 2.03884 14.165 2.49999 14.165H2.50833C2.96948 14.165 3.34333 14.5389 3.34333 15C3.34333 15.4612 2.96948 15.835 2.50833 15.835H2.49999C2.03884 15.835 1.66499 15.4612 1.66499 15ZM5.83162 15C5.83162 14.5389 6.20546 14.165 6.66662 14.165H17.5C17.9611 14.165 18.335 14.5389 18.335 15C18.335 15.4612 17.9611 15.835 17.5 15.835H6.66662C6.20546 15.835 5.83162 15.4612 5.83162 15Z" fill="currentColor"/>
</svg>