<svg enable-background="new 0 0 15.4 16.9" width="20" height="20" viewBox="0 0 15.4 16.9" xmlns="http://www.w3.org/2000/svg"><path d="m13.8 11.5-8.4-8.4c-.1-.1-.2-.1-.3-.1l-4.2.3c-.3 0-.5.2-.6.6l-.3 4.1c0 .1 0 .3.1.4l8.4 8.4c.2.2.5.2.7 0l4.6-4.6c.2-.2.2-.5 0-.7zm-10.1-4.8c-.4.4-1 .4-1.3 0s-.4-1 0-1.3c.4-.4 1-.4 1.3 0 .4.3.4.9 0 1.3zm11.7 2c0 .3-.1.6-.3.8l-1.1 1.1-.5-.5 1.1-1.1c.1-.1.1-.2.1-.3s0-.2-.1-.3l-7.6-7.6c-.1-.1-.2-.1-.3-.1l-3.7.3c-.3 0-.5.2-.5.5l-.1.9h-.7l.1-1c.1-.6.5-1 1.1-1.1l3.7-.3c.4 0 .7.1.9.3l7.6 7.6c.2.2.3.5.3.8z" fill="currentColor"/></svg>
