<svg xmlns="http://www.w3.org/2000/svg" width="20" height="20" viewBox="0 0 20 20" fill="none">
  <path fill-rule="evenodd" clip-rule="evenodd" d="M2.50004 1.66498C2.03888 1.66498 1.66504 2.03882 1.66504 2.49998V9.99998C1.66504 10.2285 1.7587 10.447 1.92418 10.6046L10.6742 18.938C11.0024 19.2505 11.52 19.2442 11.8405 18.9237L18.9238 11.8404C19.2443 11.5199 19.2506 11.0023 18.938 10.6741L10.6047 1.92412C10.4471 1.75864 10.2286 1.66498 10 1.66498H2.50004ZM3.33504 9.64212V3.33498H9.64218L17.1667 11.2358L11.2358 17.1667L3.33504 9.64212ZM7.83667 7.08333C7.83667 7.49939 7.49939 7.83667 7.08333 7.83667C6.66728 7.83667 6.33 7.49939 6.33 7.08333C6.33 6.66728 6.66728 6.33 7.08333 6.33C7.49939 6.33 7.83667 6.66728 7.83667 7.08333ZM9.16667 7.08333C9.16667 8.23393 8.23393 9.16667 7.08333 9.16667C5.93274 9.16667 5 8.23393 5 7.08333C5 5.93274 5.93274 5 7.08333 5C8.23393 5 9.16667 5.93274 9.16667 7.08333Z" fill="currentColor"/>
</svg>