<svg width="17" height="18" viewBox="0 0 17 18" fill="none" xmlns="http://www.w3.org/2000/svg">
<path d="M8.5 0.666992C10.1107 0.66708 11.4158 1.97238 11.416 3.58301C11.416 4.9041 10.5376 6.01824 9.33301 6.37695V9.0752L12.4805 11.9082C12.9044 11.6678 13.3939 11.5294 13.916 11.5293C15.5268 11.5293 16.833 12.8355 16.833 14.4463C16.833 16.0571 15.5268 17.3633 13.916 17.3633C12.3054 17.363 11 16.0569 11 14.4463C11 13.971 11.1158 13.5234 11.3174 13.127C10.5397 12.5689 9.09499 11.0843 8.5 11.084C7.90499 11.084 6.45934 12.5691 5.68164 13.127C5.88335 13.5235 6 13.9709 6 14.4463C5.99996 16.0571 4.69381 17.3633 3.08301 17.3633C1.47228 17.3632 0.166059 16.057 0.166016 14.4463C0.166016 12.8355 1.47225 11.5294 3.08301 11.5293C3.60479 11.5293 4.09381 11.6682 4.51758 11.9082L7.66602 9.0752V6.37695C6.46178 6.01805 5.58301 4.90388 5.58301 3.58301C5.58318 1.97232 6.88927 0.666992 8.5 0.666992Z" fill="currentColor"/>
</svg>
