<svg width="21" height="20" viewBox="0 0 21 20" fill="none" xmlns="http://www.w3.org/2000/svg">
<path d="M13.417 4.58366C13.417 6.19449 12.1112 7.50033 10.5003 7.50033C8.88949 7.50033 7.58366 6.19449 7.58366 4.58366C7.58366 2.97283 8.88949 1.66699 10.5003 1.66699C12.1112 1.66699 13.417 2.97283 13.417 4.58366Z" fill="currentColor"/>
<path d="M18.8337 15.4465C18.8337 17.0574 17.5278 18.3632 15.917 18.3632C14.3062 18.3632 13.0003 17.0574 13.0003 15.4465C13.0003 13.8357 14.3062 12.5299 15.917 12.5299C17.5278 12.5299 18.8337 13.8357 18.8337 15.4465Z" fill="currentColor"/>
<path d="M8.00033 15.4465C8.00033 17.0574 6.69449 18.3632 5.08366 18.3632C3.47283 18.3632 2.16699 17.0574 2.16699 15.4465C2.16699 13.8357 3.47283 12.5299 5.08366 12.5299C6.69449 12.5299 8.00033 13.8357 8.00033 15.4465Z" fill="currentColor"/>
<path d="M11.3337 10.0754L15.2244 13.5772L14.1095 14.8158L13.4341 14.2079C12.6935 13.73 11.1264 12.0839 10.5003 12.0839C9.87404 12.0839 8.30609 13.7305 7.56575 14.2079L6.89111 14.8158L5.7762 13.5772L9.66699 10.0754V4.19653H11.3337V10.0754Z" fill="currentColor"/>
</svg>
