<svg xmlns="http://www.w3.org/2000/svg" width="24" height="24" viewBox="0 0 24 24" fill="none">
  <path fill-rule="evenodd" clip-rule="evenodd" d="M3 2C2.44772 2 2 2.44772 2 3V12C2 12.2737 2.11216 12.5354 2.31034 12.7241L12.8103 22.7241C13.2034 23.0985 13.8233 23.0909 14.2071 22.7071L22.7071 14.2071C23.0909 13.8233 23.0985 13.2034 22.7241 12.8103L12.7241 2.31034C12.5354 2.11216 12.2737 2 12 2H3ZM4 11.5714V4H11.5714L20.6028 13.483L13.483 20.6028L4 11.5714ZM9.33 8.5C9.33 8.9584 8.9584 9.33 8.5 9.33C8.0416 9.33 7.67 8.9584 7.67 8.5C7.67 8.0416 8.0416 7.67 8.5 7.67C8.9584 7.67 9.33 8.0416 9.33 8.5ZM11 8.5C11 9.88071 9.88071 11 8.5 11C7.11929 11 6 9.88071 6 8.5C6 7.11929 7.11929 6 8.5 6C9.88071 6 11 7.11929 11 8.5Z" fill="currentColor"/>
</svg>