<svg xmlns="http://www.w3.org/2000/svg" width="16" height="16" viewBox="0 0 16 16">
    <g fill="none" fill-rule="evenodd" stroke="#3683DC" stroke-width="1.5">
        <path stroke-linecap="round" stroke-linejoin="round" d="M9.6 11.2h-.533C8.477 11.2 8 10.722 8 10.133V7.467c0-.295-.239-.534-.533-.534h-.534M7.733 4.267c-.147 0-.266.12-.266.266 0 .148.12.267.266.267.148 0 .267-.12.267-.267 0-.147-.12-.266-.267-.266h0"/>
        <path d="M8 .75c-2.002 0-3.814.812-5.126 2.124C1.562 4.186.75 5.998.75 8c0 2.002.812 3.814 2.124 5.126C4.186 14.438 5.998 15.25 8 15.25c2.002 0 3.814-.812 5.126-2.124C14.438 11.814 15.25 10.002 15.25 8c0-2.002-.812-3.814-2.124-5.126C11.814 1.562 10.002.75 8 .75z"/>
    </g>
</svg>
