<svg xmlns="http://www.w3.org/2000/svg" width="24" height="25" viewBox="0 0 24 25">
    <g fill="none" fill-rule="evenodd" transform="translate(0 2.517)">
        <path stroke="currentColor" stroke-linecap="round" stroke-linejoin="round" stroke-width="1.5" d="M23.25 19.202c0 .752-.61 1.362-1.363 1.362H2.083c-.752 0-1.333-.61-1.333-1.362V1.632C.75.88 1.33.136 2.083.136h19.804c.71 0 1.363.502 1.363 1.496v17.57z"/>
        <g stroke="currentColor" stroke-linecap="round" stroke-linejoin="round" stroke-width="1.2">
            <path d="M.247 9.726c.532.84 1.374 1.314 2.252 1.271C3.88 10.997 5 9.99 5 8.75 5 7.507 3.88 6.5 2.5 6.5c-1.381 0-2.5-1.007-2.5-2.25s1.119-2.248 2.5-2.248c.878-.043 1.72.431 2.252 1.271M2.454 0L2.502 13" transform="translate(4.5 3.4)"/>
        </g>
        <rect width="8" height="1.5" x="12" y="4.4" fill="currentColor" rx=".75"/>
        <rect width="8" height="1.5" x="12" y="7.4" fill="currentColor" rx=".75"/>
        <rect width="8" height="1.5" x="12" y="10.4" fill="currentColor" rx=".75"/>
        <rect width="8" height="1.5" x="12" y="13.4" fill="currentColor" rx=".75"/>
    </g>
</svg>
