<svg xmlns="http://www.w3.org/2000/svg" width="20" height="20" viewBox="0 0 20 20">
    <g fill="none" fill-rule="evenodd">
        <path fill="currentColor" d="M10 8c.54 0 1.008.198 1.405.595.397.397.595.865.595 1.405s-.198 1.008-.595 1.405c-.397.397-.865.595-1.405.595s-1.008-.198-1.405-.595C8.198 11.008 8 10.54 8 10s.198-1.008.595-1.405C8.992 8.198 9.46 8 10 8zm8 0c.54 0 1.008.198 1.405.595.397.397.595.865.595 1.405s-.198 1.008-.595 1.405c-.397.397-.865.595-1.405.595s-1.008-.198-1.405-.595C16.198 11.008 16 10.54 16 10s.198-1.008.595-1.405C16.992 8.198 17.46 8 18 8zM2 8c.54 0 1.008.198 1.405.595C3.802 8.992 4 9.46 4 10s-.198 1.008-.595 1.405C3.008 11.802 2.54 12 2 12s-1.008-.198-1.405-.595C.198 11.008 0 10.54 0 10s.198-1.008.595-1.405C.992 8.198 1.46 8 2 8z"/>
    </g>
</svg>
