<svg version="1.1" height="20" width="20" xmlns="http://www.w3.org/2000/svg" xmlns:xlink="http://www.w3.org/1999/xlink" x="0px" y="0px"
	 viewBox="0 0 460.485 460.485" style="enable-background:new 0 0 460.485 460.485;" xml:space="preserve">
<g>
	<g>
		<path d="M439.6,134.599c-4.567-2.637-9.593-4.385-14.81-5.151l-0.007-0.004c-22.801-3.367-44.015,12.387-47.382,35.188
			c-1.662,11.253,1.342,22.697,8.315,31.683l-49.425,44.872c-14.628-17.84-40.948-20.444-58.787-5.816
			c-5.082,4.167-9.109,9.473-11.754,15.489l-56.475-45.584c1.718-22.999-15.533-43.036-38.531-44.754
			c-22.999-1.718-43.036,15.533-44.754,38.531c-0.246,3.292-0.101,6.602,0.433,9.86l-52.81,54.037
			c-14.826-17.623-41.131-19.891-58.755-5.065c-17.623,14.826-19.891,41.131-5.065,58.755c14.826,17.623,41.131,19.891,58.755,5.065
			c12.771-10.744,17.906-28.068,13.053-44.036l51.252-52.442c0.41,0.615,0.834,1.223,1.278,1.82
			c6.589,8.913,16.47,14.818,27.44,16.4c17.39,2.566,34.523-6.044,42.84-21.531l57.839,46.682
			c0.546,23.059,19.682,41.308,42.741,40.762s41.308-19.682,40.762-42.741c-0.087-3.677-0.66-7.326-1.703-10.853l53.793-48.84
			c19.972,11.531,45.511,4.688,57.043-15.284C466.415,171.669,459.572,146.13,439.6,134.599z"/>
	</g>
</g>
</svg>
