<svg xmlns="http://www.w3.org/2000/svg" width="20" height="20" viewBox="0 0 20 20" fill="none">
  <path fill-rule="evenodd" clip-rule="evenodd" d="M10.8351 2.50004C10.8351 2.03888 10.4613 1.66504 10.0001 1.66504C9.53894 1.66504 9.1651 2.03888 9.1651 2.50004V10.4842L6.42385 7.74298C6.09776 7.41689 5.56907 7.41689 5.24298 7.74298C4.91689 8.06907 4.91689 8.59776 5.24298 8.92385L9.40965 13.0905C9.50504 13.1859 9.61777 13.2534 9.73769 13.293C9.79196 13.3109 9.84871 13.3235 9.90728 13.3299C9.96724 13.3366 10.0278 13.3368 10.0878 13.3305C10.2714 13.3112 10.4498 13.2312 10.5905 13.0905L14.7572 8.92385C15.0833 8.59776 15.0833 8.06907 14.7572 7.74298C14.4311 7.41689 13.9024 7.41689 13.5763 7.74298L10.8351 10.4842V2.50004ZM3.33179 17.5C3.33179 17.0389 3.70563 16.665 4.16679 16.665H15.8335C16.2946 16.665 16.6685 17.0389 16.6685 17.5C16.6685 17.9612 16.2946 18.335 15.8335 18.335H4.16679C3.70563 18.335 3.33179 17.9612 3.33179 17.5Z" fill="currentColor"/>
</svg>