<svg width="16" height="16" viewBox="0 0 16 16" fill="none" xmlns="http://www.w3.org/2000/svg">
<title>Encrypted</title>
<path fill-rule="evenodd" clip-rule="evenodd" d="M6.11325 3.4465C6.61366 2.94609 7.29236 2.66496 8.00004 2.66496C8.70773 2.66496 9.38643 2.94609 9.88684 3.4465C10.3872 3.94691 10.6684 4.62561 10.6684 5.33329V6.66827H5.33171V5.33329C5.33171 4.62561 5.61284 3.94691 6.11325 3.4465ZM4.66149 7.99827C4.66323 7.99829 4.66497 7.99829 4.66671 7.99829C4.66845 7.99829 4.67019 7.99829 4.67192 7.99827H11.3282C11.3299 7.99829 11.3316 7.99829 11.3334 7.99829C11.3351 7.99829 11.3369 7.99829 11.3386 7.99827H12.6666C13.0357 7.99827 13.335 8.2975 13.335 8.66661V12.6666C13.335 13.0357 13.0357 13.3349 12.6666 13.3349H3.33329C2.96418 13.3349 2.66496 13.0357 2.66496 12.6666V8.66661C2.66496 8.2975 2.96418 7.99827 3.33329 7.99827H4.66149ZM4.00171 6.66827V5.33329C4.00171 4.27287 4.42296 3.25588 5.17279 2.50605C5.92263 1.75621 6.93962 1.33496 8.00004 1.33496C9.06047 1.33496 10.0775 1.75621 10.8273 2.50605C11.5771 3.25588 11.9984 4.27287 11.9984 5.33329V6.66827H12.6666C13.7703 6.66827 14.665 7.56296 14.665 8.66661V12.6666C14.665 13.7703 13.7703 14.6649 12.6666 14.6649H3.33329C2.22965 14.6649 1.33496 13.7703 1.33496 12.6666V8.66661C1.33496 7.56296 2.22965 6.66827 3.33329 6.66827H4.00171Z" fill="#888F91"/>
</svg>
