<svg height="496pt" viewBox="0 0 496 496" width="496pt" xmlns="http://www.w3.org/2000/svg"><path d="m48 448h16v16h-16zm0 0"/><path d="m80 448h16v16h-16zm0 0"/><path d="m112 448h16v16h-16zm0 0"/><path d="m384 448h64v16h-64zm0 0"/><path d="m480 416v-264c0-22.054688-17.945312-40-40-40h-24c0-61.761719-50.238281-112-112-112s-112 50.238281-112 112h-136c-22.054688 0-40 17.945312-40 40v264h-16v40c0 22.054688 17.945312 40 40 40h416c22.054688 0 40-17.945312 40-40v-40zm-40-288c13.230469 0 24 10.769531 24 24v264h-16v-256c0-8.824219-7.175781-16-16-16h-20.71875c1.542969-5.183594 2.65625-10.535156 3.4375-16zm-227.351562-45.398438 84.910156 35.382813 29.074218 87.207031c-7.273437 1.769532-14.824218 2.808594-22.632812 2.808594-52.9375 0-96-43.0625-96-96 0-10.257812 1.65625-20.128906 4.648438-29.398438zm129.183593 117.597657-28.679687-86.039063 64.078125-64.082031c14.175781 16.730469 22.769531 38.328125 22.769531 61.921875 0 39.503906-24 73.488281-58.167969 88.199219zm-37.832031-184.199219c23.59375 0 45.191406 8.59375 61.929688 22.761719l-63.792969 63.789062-83.289063-34.695312c16.007813-30.765625 48.136719-51.855469 85.152344-51.855469zm-272 136c0-13.230469 10.769531-24 24-24h137.28125c.78125 5.464844 1.886719 10.816406 3.4375 16h-132.71875c-8.824219 0-16 7.175781-16 16v256h-16zm448 304c0 13.230469-10.769531 24-24 24h-416c-13.230469 0-24-10.769531-24-24v-24h164.816406c11.503906 10.34375 26.222656 16 41.816406 16h50.742188c15.59375 0 30.3125-5.65625 41.816406-16h100.808594v-16h-107.3125l-2.34375 2.34375c-8.808594 8.808594-20.511719 13.65625-32.976562 13.65625h-50.742188c-12.457031 0-24.167969-4.847656-32.976562-13.65625l-2.335938-2.34375h-123.3125v-256h138.960938c18.023437 37.777344 56.472656 64 101.039062 64s83.015625-26.222656 101.039062-64h26.960938v272h48zm0 0"/><path d="m392 336c-4.910156 0-9.480469 1.496094-13.289062 4.039062l-27.910157-20.925781c.710938-2.265625 1.199219-4.625 1.199219-7.113281 0-13.230469-10.769531-24-24-24s-24 10.769531-24 24c0 2.753906.558594 5.359375 1.414062 7.824219l-44.804687 35.847656c-3.671875-2.289063-7.96875-3.671875-12.609375-3.671875-5.382812 0-10.304688 1.847656-14.3125 4.847656l-34.496094-23c.480469-1.878906.808594-3.816406.808594-5.847656 0-13.230469-10.769531-24-24-24s-24 10.769531-24 24c0 2.03125.328125 3.96875.808594 5.847656l-34.496094 23c-4.007812-3.007812-8.929688-4.847656-14.3125-4.847656-13.230469 0-24 10.769531-24 24s10.769531 24 24 24 24-10.769531 24-24c0-2.03125-.328125-3.96875-.808594-5.847656l34.496094-23c4.007812 3.007812 8.929688 4.847656 14.3125 4.847656s10.304688-1.839844 14.3125-4.847656l34.496094 23c-.480469 1.878906-.808594 3.824218-.808594 5.847656 0 13.230469 10.769531 24 24 24s24-10.769531 24-24c0-2.753906-.558594-5.359375-1.414062-7.824219l44.804687-35.847656c3.671875 2.289063 7.96875 3.671875 12.609375 3.671875 4.910156 0 9.480469-1.496094 13.289062-4.039062l27.910157 20.925781c-.710938 2.265625-1.199219 4.625-1.199219 7.113281 0 13.230469 10.769531 24 24 24s24-10.769531 24-24-10.769531-24-24-24zm-288 48c-4.40625 0-8-3.59375-8-8s3.59375-8 8-8 8 3.59375 8 8-3.59375 8-8 8zm72-48c-4.40625 0-8-3.59375-8-8s3.59375-8 8-8 8 3.59375 8 8-3.59375 8-8 8zm72 48c-4.40625 0-8-3.59375-8-8s3.59375-8 8-8 8 3.59375 8 8-3.59375 8-8 8zm80-64c-4.40625 0-8-3.59375-8-8s3.59375-8 8-8 8 3.59375 8 8-3.59375 8-8 8zm64 48c-4.40625 0-8-3.59375-8-8s3.59375-8 8-8 8 3.59375 8 8-3.59375 8-8 8zm0 0"/><path d="m208 176h-128v112h128zm-16 96h-96v-80h96zm0 0"/><path d="m112 208h64v16h-64zm0 0"/><path d="m112 240h64v16h-64zm0 0"/><path d="m224 256h16v16h-16zm0 0"/><path d="m256 256h160v16h-160zm0 0"/></svg>