<svg height="21" viewBox="0 0 20 21" width="20" xmlns="http://www.w3.org/2000/svg"
  xmlns:xlink="http://www.w3.org/1999/xlink">
  <g fill="none" fill-rule="evenodd" transform="translate(-6 -6)">
    <path
      d="m12.5998192 15.6740711c.2002411 0 1.740457-.594259 1.6305438-1.3752034l-.102378.0590921c.1459363-.0936129.0991667-.0905295.0855587-.1382101-.2608412-.9131468-1.7272305-.6005211-3.0370324-.3887875-1.2110485.1959672-1.0299476.1352221-1.63515393-.1354129-1.44674037-.646962-2.20478234-.7823749-2.77577788-.8130494-1.66319661-.0891309-2.77072257 1.0268174-4.60777093 2.8969136-.31451015-.2933628-.7028151-.5892049-1.06940448-.3662187-.01564284.0095361-1.09162876 1.0459849-1.07315622 1.4723765-.31845266.2279768 4.45372708 4.0285964 4.73765103 4.0964299.46318075.1109051.73909251-.3061093 1.15906468-.8276396.40811285-.5065585.55093328-.950433-.00232099-1.3013939 2.60971575-2.5637852 7.01654612.7821205 10.34246242-1.377365 1.4205735-.9219837 3.1185214-1.5172281 3.6359434-2.8448464-.1125839-2.0262342-3.8228945 1.7278174-7.2882292 1.0433148m-7.18699584-4.0754504v-7.7209175l6.71793314-3.8777032 6.7179013 3.8777032v7.7554064l-3.3549127 1.9365312c-.923818-2.1329434-3.6513638-1.2166497-5.1228402-1.0690624-1.61388347-.7194365-3.28798555-1.3465315-4.95808154-.9019577"
      fill="currentColor" transform="translate(6 6)" />
  </g>
</svg>