<svg xmlns="http://www.w3.org/2000/svg" width="24" height="25" viewBox="0 0 24 25">
    <g fill="none" fill-rule="evenodd" stroke="#666" stroke-width="1.5">
        <path d="M9.474 5.487c-1.101 0-2.098.446-2.82 1.168-.72.721-1.167 1.718-1.167 2.819 0 1.1.446 2.097 1.168 2.819.721.721 1.718 1.168 2.819 1.168 1.1 0 2.097-.447 2.819-1.168.721-.722 1.168-1.719 1.168-2.82 0-1.1-.447-2.097-1.168-2.818-.722-.722-1.719-1.168-2.82-1.168z" transform="translate(3 .216)"/>
        <path d="M9.474.75c-2.41 0-4.59.976-6.17 2.555C1.727 4.884.75 7.065.75 9.474c0 2.91.947 5.349 2.223 7.315 2.209 3.405 5.399 5.415 6.52 6.033 1.082-.618 4.272-2.626 6.481-6.031 1.276-1.967 2.223-4.405 2.223-7.317 0-2.41-.976-4.59-2.555-6.17C14.064 1.727 11.882.75 9.474.75z" transform="translate(3 .216)"/>
    </g>
</svg>
