<svg xmlns="http://www.w3.org/2000/svg" width="24" height="24" viewBox="0 0 24 24" fill="none">
  <path fill-rule="evenodd" clip-rule="evenodd" d="M3.10454 4.21111L5.34187 17.1293C5.53092 18.2222 6.48773 19.0001 7.58218 19H16C16.5523 19 17 18.5523 17 18C17 17.4477 16.5523 17 16 17H7.58218C7.43525 17 7.33154 16.8979 7.31267 16.7887L5.07515 3.86952C4.88561 2.777 3.92897 1.99987 2.83491 2H2.5C1.94772 2 1.5 2.44772 1.5 3C1.5 3.55228 1.94771 4 2.5 4H2.83491C2.98169 3.99997 3.08552 4.10205 3.10454 4.21111Z" fill="currentColor"/>
  <path fill-rule="evenodd" clip-rule="evenodd" d="M19.8833 8H4.99997C4.44768 8 3.99997 7.55228 3.99997 7C3.99997 6.44772 4.44768 6 4.99997 6H20.3851C20.8589 5.9999 21.3272 6.2025 21.6451 6.58185C21.9673 6.96631 22.092 7.4856 21.9584 7.98362L20.749 12.4927C20.3424 14.008 18.9134 14.9998 17.3562 15H6.2769C5.72462 15 5.2769 14.5523 5.2769 14C5.2769 13.4477 5.72462 13 6.2769 13H17.356C18.0945 12.9999 18.6668 12.5353 18.8173 11.9746L19.8833 8Z" fill="currentColor"/>
  <path d="M9.5 20.5C9.5 21.1904 8.94036 21.75 8.25 21.75C7.55964 21.75 7 21.1904 7 20.5C7 19.8096 7.55964 19.25 8.25 19.25C8.94036 19.25 9.5 19.8096 9.5 20.5Z" fill="currentColor"/>
  <path d="M16.5 20.5C16.5 21.1904 15.9404 21.75 15.25 21.75C14.5596 21.75 14 21.1904 14 20.5C14 19.8096 14.5596 19.25 15.25 19.25C15.9404 19.25 16.5 19.8096 16.5 20.5Z" fill="currentColor"/>
</svg>