<svg xmlns="http://www.w3.org/2000/svg" width="24" height="24" viewBox="0 0 24 24">
    <g fill="none" fill-rule="evenodd" stroke="#666" stroke-linecap="round" stroke-linejoin="round" stroke-width="1.5">
        <path d="M1.217 3.924l9.1-3.568c.694-.275 1.468-.275 2.162 0l9.1 3.568c.663.283 1.087.941 1.071 1.662v11.628c.017.72-.405 1.378-1.067 1.662l-9.1 3.569c-.695.273-1.467.273-2.162 0l-9.1-3.569C.558 18.593.134 17.935.15 17.214V5.586c-.017-.72.405-1.378 1.067-1.662zM11.4 8.753L.504 4.481M11.4 8.753L22.296 4.481M11.4 22.65L11.4 8.753" transform="translate(.6 .6)"/>
    </g>
</svg>
