<?xml version="1.0" encoding="utf-8"?>
<!-- Generator: Adobe Illustrator 22.0.1, SVG Export Plug-In . SVG Version: 6.00 Build 0)  -->
<svg version="1.1" id="Layer_1" xmlns="http://www.w3.org/2000/svg" xmlns:xlink="http://www.w3.org/1999/xlink" x="0px" y="0px"
	 viewBox="0 0 185 170" style="enable-background:new 0 0 185 170;" xml:space="preserve" fill="none" stroke="currentColor" stroke-width="2">
<style type="text/css">
	.st0{fill:#FFFFFF;stroke:#3683DC;stroke-width:2;}
	.st1{fill:none;stroke:#3683DC;stroke-width:2;}
</style>
<g id="_x30_3_x5F_Mobile_x5F_Friendly">
	<g id="Desktop">
		<path id="Shape" class="st0" d="M161.3,116.3c0,5.7-4.7,10.4-10.4,10.4H12.4c-5.7,0-10.4-4.7-10.4-10.4V12.7C2,7,6.7,2.3,12.4,2.3
			h138.5c5.7,0,10.4,4.7,10.4,10.4V116.3z"/>
		<path id="Shape_1_" class="st1" d="M33.2,147.5h96.9"/>
		<polygon id="Shape_2_" class="st1" points="105.9,147.5 57.5,147.5 64.4,126.7 99,126.7 		"/>
		<rect id="Rectangle-path" x="15.9" y="16.1" class="st1" width="131.5" height="82.9"/>
		<path id="Shape_3_" class="st0" d="M26.9,34.8l11.9-9"/>
		<path id="Shape_4_" class="st0" d="M27.8,42.8l18.6-14"/>
		<ellipse id="Oval" class="st1" cx="81.7" cy="112.9" rx="3.5" ry="3.5"/>
	</g>
	<g id="Mobile" transform="translate(134.826531, 95.405028)" class="imp">
		<path id="Shape_5_" class="st0" d="M47.8,66.1c0,2.9-2.4,5.3-5.4,5.3H7.7c-3,0-5.4-2.4-5.4-5.3V7.3C2.3,4.4,4.7,2,7.7,2h34.7
			c3,0,5.4,2.4,5.4,5.3V66.1z"/>
		<rect id="Rectangle-path_1_" x="7.7" y="10" class="st0" width="34.7" height="49"/>
		<path id="Shape_6_" class="st2" d="M25,4.7c-0.7,0-1.3,0.6-1.3,1.3s0.6,1.3,1.3,1.3s1.3-0.6,1.3-1.3S25.8,4.7,25,4.7z"/>
		<path id="Shape_7_" class="st0" d="M27,65.5c0,1.1-0.9,2-2,2c-1.1,0-2-0.9-2-2c0-1.1,0.9-2,2-2C26.1,63.6,27,64.5,27,65.5z"/>
	</g>
</g>
</svg>
