<?xml version="1.0" encoding="UTF-8"?>
<svg width="14px" height="31px" viewBox="0 0 14 31" version="1.1" xmlns="http://www.w3.org/2000/svg" xmlns:xlink="http://www.w3.org/1999/xlink">
    <title>Path</title>
    <g id="Databases-multi-engine-options" stroke="none" stroke-width="1" fill="none" fill-rule="evenodd">
        <g id="Create-Database-Copy-9" transform="translate(-230.000000, -522.000000)" fill="#4FAA41">
            <path d="M238.872847,525.11225 C238.39404,524.60963 237.861817,524.149164 237.52781,523.523947 C237.316723,523.128158 237.11561,522.726899 236.909994,522.328537 L236.779351,522 L236.74299,522.129355 C236.725936,522.77935 236.35782,523.219865 235.899606,523.631421 C235.383472,524.09414 234.903378,524.596759 234.407837,525.082324 L232.883891,527.086688 L231.651798,529.352658 L230.827721,531.577762 L230.802944,531.612192 C230.349557,533.101708 230.12592,534.633378 230.016193,536.179849 C229.974684,536.761305 230.022307,537.350804 230.054807,537.935156 C230.101465,538.770495 230.246587,539.591354 230.46411,540.399985 C231.254722,543.336543 232.859435,545.772091 235.053649,547.841776 C235.461021,548.226302 235.901537,548.576076 236.326608,548.941617 L236.514848,549.58775 L236.689896,550.590415 L236.773559,551.637163 C236.772594,551.849537 236.763906,552.062877 236.776455,552.274608 C236.779995,552.328988 236.850786,552.379186 236.890687,552.431314 L237.245931,552.556165 L237.615656,552.7 L237.552265,551.769736 L237.549369,550.853308 L237.677115,549.45743 L237.769788,549.15367 L238.035256,548.68355 C238.362827,548.420335 238.713888,548.180931 239.012178,547.88779 C239.551802,547.35782 240.09046,546.820448 240.573451,546.239637 C241.199955,545.486351 241.739258,544.664205 242.172373,543.78253 C242.461652,543.192708 242.734521,542.590981 242.960088,541.974773 C243.158948,541.43161 243.282189,540.860452 243.438896,540.301521 L243.480084,540.180854 C243.803472,538.672352 243.857853,537.148405 243.739116,535.614805 C243.643548,534.378851 243.352981,533.186015 242.948826,532.017312 C242.110913,529.408325 240.76684,527.099237 238.872847,525.11225 Z" id="Path"></path>
        </g>
    </g>
</svg>