<svg width="10" height="22" viewBox="0 0 10 22" fill="none" xmlns="http://www.w3.org/2000/svg">
<path d="M9.58778 8.65312C8.44168 3.6 6.05106 2.25469 5.44637 1.30312C5.1159 0.785156 4.78075 0 4.78075 0C4.74793 0.447656 4.68934 0.73125 4.30731 1.07344C3.53856 1.75547 0.285434 4.40625 0.0112148 10.1484C-0.244254 15.5016 3.94403 18.8039 4.50184 19.1461C4.92606 19.3547 5.44872 19.1508 5.69715 18.9586C7.71512 17.5711 10.4784 13.875 9.58543 8.65312" fill="#10AA50"/>
<path d="M4.95205 16.2939C4.84658 17.6205 4.77158 18.3916 4.50439 19.1463C4.50439 19.1463 4.68018 20.4072 4.80205 21.7432H5.23799C5.34111 20.801 5.50049 19.8682 5.71377 18.9447C5.15127 18.6682 4.97314 17.4564 4.95205 16.2939Z" fill="#B8C4C2"/>
<path d="M5.71602 18.9473C5.14414 18.6824 4.98008 17.4473 4.9543 16.2941C5.09492 14.3934 5.13476 12.4855 5.07617 10.5824C5.0457 9.58398 5.09023 1.32461 4.83008 0.115234C4.93555 0.351953 5.19102 0.907422 5.44648 1.30352C6.05586 2.25508 8.44414 3.60039 9.58789 8.65351C10.4785 13.8613 7.73164 17.5527 5.71602 18.9473Z" fill="#12924F"/>
</svg>
