<svg xmlns="http://www.w3.org/2000/svg" width="24" height="24" viewBox="0 0 24 24" fill="none">
  <path d="M2 12C2 6.47715 6.47715 2 12 2C17.5228 2 22 6.47715 22 12C22 17.5228 17.5228 22 12 22C6.47715 22 2 17.5228 2 12ZM3.5 12C3.5 16.6944 7.30558 20.5 12 20.5C16.6944 20.5 20.5 16.6944 20.5 12C20.5 7.30558 16.6944 3.5 12 3.5C7.30558 3.5 3.5 7.30558 3.5 12ZM17.5303 7.70801C18.4515 8.89328 19 10.3826 19 12C19 15.866 15.866 19 12 19C10.3826 19 8.89328 18.4515 7.70801 17.5303L17.5303 7.70801ZM5 12C5 8.13401 8.13401 5 12 5C13.6174 5 15.1067 5.54852 16.292 6.46973L6.46973 16.292C5.54852 15.1067 5 13.6174 5 12Z" fill="#A3A3AB"/>
</svg>