<svg width="20" height="20" viewBox="0 0 20 20" fill="none" xmlns="http://www.w3.org/2000/svg">
<path fill-rule="evenodd" clip-rule="evenodd" d="M4.16814 10L4.16782 10.0009C4.16748 10.0017 4.16735 10.0016 4.1678 10.0012C4.168 10.001 4.16812 10.0009 4.16814 10.0009L4.16753 10.0012L4.16662 10.0015L4.16572 10.0012L4.16511 10.0009C4.16513 10.0009 4.16525 10.001 4.16545 10.0012C4.16563 10.0014 4.16571 10.0015 4.16574 10.0015L4.16543 10.0009L4.16511 10L4.16543 9.99909L4.16552 9.99889L4.16572 9.9988L4.16662 9.99849L4.16753 9.9988L4.16773 9.99889L4.16782 9.99909L4.16814 10ZM4.16662 8.33167C3.24523 8.33167 2.49829 9.0786 2.49829 10C2.49829 10.9214 3.24523 11.6683 4.16662 11.6683C5.08802 11.6683 5.83496 10.9214 5.83496 10C5.83496 9.0786 5.08802 8.33167 4.16662 8.33167ZM10.0012 10.0009L10.0015 10L10.0012 9.99909L10.0009 9.99848C10.0009 9.99848 10.001 9.99861 10.0012 9.99882L10.0014 9.99901L10.0009 9.9988L10 9.99849L9.99909 9.9988L9.99889 9.99889L9.99881 9.99909L9.99849 10L9.99881 10.0009L9.99889 10.0011L9.99909 10.0012L10 10.0015L10.0009 10.0012L10.0015 10.0009L10.0012 10.0012C10.001 10.0014 10.0009 10.0015 10.0009 10.0015L10.0012 10.0009ZM8.33167 10C8.33167 9.0786 9.0786 8.33167 10 8.33167C10.9214 8.33167 11.6683 9.0786 11.6683 10C11.6683 10.9214 10.9214 11.6683 10 11.6683C9.0786 11.6683 8.33167 10.9214 8.33167 10ZM15.8346 10.0009L15.8349 10L15.8346 9.99909L15.8343 9.99848C15.8343 9.99848 15.8343 9.99861 15.8346 9.99882L15.8343 9.9988L15.8334 9.99849L15.8325 9.9988L15.8323 9.99889L15.8322 9.99909L15.8319 10L15.8322 10.0009L15.8323 10.0011L15.8325 10.0012L15.8334 10.0015L15.8343 10.0012L15.8346 10.0012L15.8346 10.0009ZM14.165 10C14.165 9.0786 14.912 8.33167 15.8334 8.33167C16.7548 8.33167 17.5017 9.0786 17.5017 10C17.5017 10.9214 16.7548 11.6683 15.8334 11.6683C14.912 11.6683 14.165 10.9214 14.165 10Z" fill="currentColor"/>
</svg>
