<svg xmlns="http://www.w3.org/2000/svg" width="20" height="20" viewBox="0 0 20 20" fill="none">
  <path d="M18.4185 15.4785C17.3271 15.4481 16.494 15.552 15.7811 15.858C15.5787 15.9453 15.2561 15.9471 15.223 16.2058C15.3343 16.3248 15.3513 16.5022 15.4401 16.6487C15.61 16.9285 15.8973 17.3048 16.1536 17.5025C16.4335 17.7174 16.7222 17.948 17.0223 18.1343C17.5566 18.4664 18.1527 18.6559 18.6662 18.988C18.9695 19.1842 19.2701 19.4309 19.5661 19.6522C19.7122 19.7614 19.8107 19.9313 20 20V19.9689C19.9003 19.8393 19.8747 19.661 19.783 19.5259L19.3795 19.1146C18.9851 18.5812 18.4845 18.1127 17.9527 17.7238C17.5285 17.413 16.5784 16.9935 16.4017 16.4908L16.3706 16.459C16.6714 16.4241 17.0236 16.3133 17.3017 16.2371C17.768 16.11 18.1851 16.1431 18.6662 16.016L19.3178 15.8266V15.7001C19.0745 15.4458 18.9009 15.1087 18.6356 14.8782C17.9406 14.2752 17.1826 13.6732 16.4019 13.171C15.969 12.8924 15.4341 12.7111 14.9751 12.475C14.8204 12.3959 14.5496 12.3541 14.4475 12.222C14.2067 11.9092 14.0753 11.5124 13.8895 11.1472C13.5001 10.3826 13.1179 9.5484 12.7725 8.74394C12.5371 8.19569 12.3838 7.65478 12.0903 7.16315C10.6818 4.80281 9.1658 3.37786 6.81704 1.97764C6.31699 1.67983 5.71544 1.5621 5.07959 1.40817L4.05558 1.34516C3.84712 1.25663 3.63068 0.996779 3.43505 0.870281C2.65709 0.368928 0.661084 -0.720879 0.0845353 0.712204C-0.279173 1.61634 0.628682 2.49861 0.953269 2.95722C1.18129 3.27817 1.47285 3.63882 1.63545 4.00029C1.74313 4.23829 1.76144 4.47628 1.85314 4.72752C2.0782 5.34691 2.27492 6.02103 2.56664 6.59304C2.7139 6.88272 2.8765 7.18755 3.06305 7.44677C3.17683 7.60565 3.37292 7.67616 3.40423 7.92101C3.2122 8.19458 3.20125 8.61888 3.09372 8.96471C2.60889 10.5232 2.79231 12.4597 3.49719 13.6125C3.71363 13.9671 4.22351 14.7259 4.92401 14.4349C5.53716 14.18 5.40027 13.3919 5.57563 12.6959C5.61545 12.5384 5.59099 12.4224 5.66862 12.3165V12.3482L6.22735 13.486C6.64068 14.1646 7.37352 14.8737 7.99535 15.3522C8.31753 15.6002 8.57127 16.0288 8.98819 16.174V16.1423H8.95705C8.87626 16.0138 8.74981 15.9609 8.64714 15.8581C8.40442 15.6153 8.13432 15.3136 7.93366 15.0357C7.36826 14.2537 6.86871 13.3974 6.4139 12.5066C6.19621 12.081 6.00733 11.6119 5.82387 11.1788C5.753 11.0118 5.75425 10.7588 5.60685 10.6728C5.40636 10.9899 5.11039 11.2467 4.95515 11.6211C4.70756 12.2199 4.67517 12.9508 4.58346 13.7079C4.529 13.7279 4.55295 13.7141 4.52117 13.7396C4.08892 13.6331 3.93743 13.1801 3.77654 12.7907C3.37058 11.8074 3.29483 10.2241 3.65244 9.09138C3.74478 8.79847 4.16295 7.87635 3.99361 7.60533C3.91285 7.33558 3.64633 7.17911 3.49719 6.97285C3.31252 6.71794 3.12863 6.38217 3.00077 6.08739C2.6682 5.32091 2.51358 4.45986 2.16317 3.68477C1.99572 3.31405 1.71324 2.93887 1.48099 2.60996C1.22354 2.24482 0.935741 1.97556 0.736355 1.5345C0.665466 1.37754 0.569529 1.1263 0.674072 0.965675C0.707718 0.856567 0.754826 0.811103 0.860462 0.775695C1.04013 0.634201 1.54155 0.823065 1.72857 0.902184C2.22624 1.11274 2.64128 1.31342 3.06305 1.59816C3.26478 1.73454 3.46964 1.99886 3.7141 2.07239H3.99345C4.42993 2.17464 4.919 2.1035 5.32732 2.22999C6.04864 2.45363 6.69485 2.80137 7.2817 3.17895C9.06923 4.32984 10.5316 5.96727 11.5316 7.92196C11.6924 8.23669 11.7621 8.53644 11.9039 8.87027C12.1894 9.5433 12.5495 10.2356 12.8337 10.8942C13.1179 11.5503 13.3943 12.2134 13.7959 12.7597C14.0068 13.047 14.8211 13.2009 15.1915 13.3604C15.4514 13.472 15.8769 13.5886 16.1225 13.7399C16.592 14.0285 17.0469 14.3724 17.4877 14.6883C17.7072 14.8465 18.3848 15.1932 18.4185 15.4785ZM4.55169 3.43194C4.3243 3.42763 4.16357 3.45682 3.99361 3.49495V3.52669H4.02412C4.13289 3.75352 4.3243 3.89995 4.45873 4.09552L4.7686 4.75974L4.79974 4.72863C4.99177 4.59033 5.07976 4.36973 5.07851 4.03267C5.00147 3.94972 4.99052 3.84699 4.92322 3.74793C4.83527 3.61649 4.66359 3.54217 4.55169 3.43194Z" fill="#00618A"/>
</svg>