<svg width="20" height="20" viewBox="0 0 20 20" fill="none" xmlns="http://www.w3.org/2000/svg">
    <path fill-rule="evenodd" clip-rule="evenodd" d="M9.99999 1.66501C8.45245 1.66501 6.9683 2.27977 5.87402 3.37404C4.77975 4.46832 4.16499 5.95247 4.16499 7.50001C4.16499 10.2999 3.56535 11.7925 3.05523 12.5577C2.79951 12.9413 2.55744 13.156 2.40173 13.2684C2.3231 13.3252 2.26433 13.3575 2.23399 13.3726C2.22399 13.3776 2.21704 13.3808 2.21343 13.3824C1.83831 13.5193 1.61145 13.9041 1.67578 14.3004C1.74137 14.7047 2.09046 15.0017 2.49999 15.0017H17.5C17.9095 15.0017 18.2586 14.7047 18.3242 14.3004C18.3885 13.9041 18.1617 13.5193 17.7866 13.3824C17.7829 13.3808 17.776 13.3776 17.766 13.3726C17.7357 13.3575 17.6769 13.3252 17.5983 13.2684C17.4425 13.156 17.2005 12.9413 16.9448 12.5577C16.4346 11.7925 15.835 10.2999 15.835 7.50001C15.835 5.95247 15.2202 4.46832 14.126 3.37404C13.0317 2.27977 11.5475 1.66501 9.99999 1.66501ZM14.165 7.50001C14.165 10.3987 14.7588 12.2082 15.4572 13.3317H4.54282C5.24115 12.2082 5.83499 10.3987 5.83499 7.50001C5.83499 6.39538 6.2738 5.336 7.05489 4.55491C7.83598 3.77382 8.89537 3.33501 9.99999 3.33501C11.1046 3.33501 12.164 3.77382 12.9451 4.55491C13.7262 5.336 14.165 6.39538 14.165 7.50001ZM9.28062 16.2477C9.04922 15.8488 8.53826 15.713 8.13936 15.9444C7.74046 16.1758 7.60467 16.6868 7.83607 17.0857C8.05598 17.4648 8.37162 17.7795 8.75139 17.9982C9.13117 18.2169 9.56174 18.3321 10 18.3321C10.4383 18.3321 10.8688 18.2169 11.2486 17.9982C11.6284 17.7795 11.944 17.4648 12.1639 17.0857C12.3953 16.6868 12.2596 16.1758 11.8607 15.9444C11.4618 15.713 10.9508 15.8488 10.7194 16.2477C10.6463 16.3737 10.5414 16.4784 10.4151 16.5511C10.2889 16.6238 10.1457 16.6621 10 16.6621C9.85431 16.6621 9.71117 16.6238 9.58491 16.5511C9.45866 16.4784 9.35373 16.3737 9.28062 16.2477Z" fill="#3D3D42"/>
</svg>
