<svg width="24" height="24" viewBox="0 0 24 24" fill="none" xmlns="http://www.w3.org/2000/svg">
    <path fill="currentColor" fill-rule="evenodd" clip-rule="evenodd" d="M12 2C10.1435 2 8.36304 2.7375 7.05028 4.05025C5.73753 5.36301 5.00003 7.14348 5.00003 9C5.00003 12.3601 4.2804 14.1517 3.66798 15.0703C3.36098 15.5308 3.07032 15.7886 2.88329 15.9237C2.78884 15.9919 2.71822 16.0307 2.68172 16.0489C2.66959 16.055 2.66118 16.0588 2.65685 16.0607C2.2076 16.2247 1.93591 16.6855 2.01294 17.1602C2.09151 17.6443 2.50957 18 3.00003 18H21C21.4905 18 21.9086 17.6443 21.9871 17.1602C22.0642 16.6855 21.7925 16.2247 21.3432 16.0607C21.3389 16.0588 21.3305 16.055 21.3183 16.0489C21.2818 16.0307 21.2112 15.9919 21.1168 15.9237C20.9297 15.7886 20.6391 15.5308 20.3321 15.0703C19.7197 14.1517 19 12.3601 19 9C19 7.14349 18.2625 5.36301 16.9498 4.05025C15.637 2.7375 13.8565 2 12 2ZM18.5522 16H5.44782C6.2864 14.6525 7.00003 12.4808 7.00003 9C7.00003 7.67392 7.52681 6.40215 8.46449 5.46447C9.40218 4.52678 10.6739 4 12 4C13.3261 4 14.5979 4.52678 15.5356 5.46447C16.4732 6.40215 17 7.67392 17 9C17 12.4808 17.7137 14.6525 18.5522 16ZM11.135 19.4982C10.8579 19.0205 10.246 18.8579 9.76828 19.135C9.29055 19.4121 9.12793 20.024 9.40505 20.5018C9.66876 20.9564 10.0473 21.3337 10.5027 21.5961C10.9581 21.8584 11.4745 21.9965 12 21.9965C12.5256 21.9965 13.042 21.8584 13.4974 21.5961C13.9528 21.3337 14.3313 20.9564 14.595 20.5018C14.8722 20.024 14.7095 19.4121 14.2318 19.135C13.7541 18.8579 13.1422 19.0205 12.865 19.4982C12.7771 19.6498 12.651 19.7756 12.4992 19.863C12.3474 19.9504 12.1752 19.9965 12 19.9965C11.8249 19.9965 11.6527 19.9504 11.5009 19.863C11.3491 19.7756 11.223 19.6498 11.135 19.4982Z"/>
</svg>
