<svg version="1.1" viewBox="0 0 21.03 26.34" xmlns="http://www.w3.org/2000/svg"><g transform="translate(-5.97,-3.33)" fill="currentColor"><path d="m16.5 29.67a2.63 2.63 0 0 1-2.3-1.37c0.94 0 1.75 0.05 2.3 0.05s1.36 0 2.3-0.05a2.63 2.63 0 0 1-2.3 1.37z"/><path d="m16.5 27c-6 0-10.53-1-10.53-2a2.52 2.52 0 0 1 0.62-1.44c0.8-1.19 2-3 2-7.78v-2a7.9 7.9 0 0 1 15.8 0v2c0 4.78 1.21 6.59 2 7.78a2.52 2.52 0 0 1 0.61 1.5c0 0.94-4.47 1.94-10.5 1.94z"/><path d="m17.82 4.76a8 8 0 0 0-2.64 0v-0.11a1.32 1.32 0 1 1 2.64 0z"/></g></svg>
