<svg xmlns="http://www.w3.org/2000/svg" width="24" height="24" viewBox="0 0 24 24" fill="none">
  <path fill-rule="evenodd" clip-rule="evenodd" d="M3.17579 14.5412C3.94911 13.5894 5.04788 13.0002 6.25 13.0002H12.75C13.9521 13.0002 15.0509 13.5894 15.8242 14.5412C16.5929 15.4873 17 16.7336 17 18.0002V20.0002C17 20.5525 16.5523 21.0002 16 21.0002C15.4477 21.0002 15 20.5525 15 20.0002V18.0002C15 17.1451 14.7223 16.3566 14.272 15.8024C13.8263 15.2539 13.2718 15.0002 12.75 15.0002H6.25C5.72821 15.0002 5.17369 15.2539 4.72802 15.8024C4.27775 16.3566 4 17.1451 4 18.0002V20.0002C4 20.5525 3.55228 21.0002 3 21.0002C2.44772 21.0002 2 20.5525 2 20.0002V18.0002C2 16.7336 2.40707 15.4873 3.17579 14.5412Z" fill="currentColor"/>
  <path fill-rule="evenodd" clip-rule="evenodd" d="M9.5 5.00022C8.11929 5.00022 7 6.11951 7 7.50022C7 8.88093 8.11929 10.0002 9.5 10.0002C10.8807 10.0002 12 8.88093 12 7.50022C12 6.11951 10.8807 5.00022 9.5 5.00022ZM5 7.50022C5 5.01494 7.01472 3.00022 9.5 3.00022C11.9853 3.00022 14 5.01494 14 7.50022C14 9.9855 11.9853 12.0002 9.5 12.0002C7.01472 12.0002 5 9.9855 5 7.50022Z" fill="currentColor"/>
  <path fill-rule="evenodd" clip-rule="evenodd" d="M17.0318 13.7502C17.1698 13.2155 17.7153 12.8939 18.25 13.032C19.3227 13.3089 20.273 13.9343 20.9517 14.8099C21.6304 15.6854 21.9992 16.7616 22 17.8695V19.8702C22 20.4225 21.5523 20.8702 21 20.8702C20.4477 20.8702 20 20.4225 20 19.8702V17.871C19.9994 17.2064 19.7782 16.5605 19.371 16.0352C18.9638 15.5099 18.3936 15.1346 17.75 14.9685C17.2153 14.8304 16.8937 14.285 17.0318 13.7502Z" fill="currentColor"/>
  <path fill-rule="evenodd" clip-rule="evenodd" d="M14.0258 3.77435C14.1506 3.23634 14.6879 2.90132 15.2259 3.02607C16.2795 3.27037 17.2313 3.82918 17.9212 4.6341C18.6129 5.44106 19 6.44898 19 7.50022C19 8.55147 18.6129 9.55938 17.9212 10.3663C17.2313 11.1713 16.2795 11.7301 15.2259 11.9744C14.6879 12.0991 14.1506 11.7641 14.0258 11.2261C13.9011 10.6881 14.2361 10.1508 14.7741 10.0261C15.4368 9.8724 16.0063 9.52727 16.4027 9.06476C16.7974 8.60431 17 8.05341 17 7.50022C17 6.94703 16.7974 6.39614 16.4027 5.93568C16.0063 5.47318 15.4368 5.12804 14.7741 4.97438C14.2361 4.84963 13.9011 4.31236 14.0258 3.77435Z" fill="currentColor"/>
</svg>