<svg xmlns="http://www.w3.org/2000/svg" width="24" height="24" viewBox="0 0 24 24" fill="none">
  <path d="M12 22C17.5228 22 22 17.5228 22 12C22 6.47715 17.5228 2 12 2C6.47715 2 2 6.47715 2 12C2 17.5228 6.47715 22 12 22Z" fill="#00B050"/>
  <path d="M16.0214 6.8986C16.3887 6.8986 16.6865 7.19637 16.6865 7.56364C16.6865 7.93091 16.3887 8.22867 16.0214 8.22867H8.02143C7.65416 8.22867 7.35639 7.93091 7.35639 7.56364C7.35639 7.19637 7.65416 6.8986 8.02143 6.8986H16.0214Z" fill="white"/>
  <path d="M14.2646 6.8986C14.6961 6.89724 15.0935 7.09854 15.3574 7.42692C15.6203 7.75407 15.7296 8.17868 15.6708 8.58903L15.6689 8.60075C15.5105 9.58231 15.14 10.3394 14.5224 10.9318C13.9228 11.5068 13.1371 11.8802 12.2392 12.1916C12.0981 12.2405 11.9448 12.2405 11.8037 12.1916C10.9058 11.8802 10.12 11.5068 9.52045 10.9318C8.90285 10.3394 8.53241 9.58231 8.37397 8.60075L8.37201 8.58903C8.31324 8.17868 8.4226 7.75407 8.68549 7.42692C8.94939 7.09854 9.34672 6.89822 9.77826 6.89957L14.2646 6.8986ZM9.77436 8.22867C9.76687 8.22863 9.74566 8.23138 9.7226 8.25992C9.69804 8.29049 9.68017 8.34144 9.68744 8.39762C9.80857 9.13936 10.0678 9.61357 10.4414 9.97184C10.7993 10.3152 11.3047 10.5906 12.0214 10.8556C12.7381 10.5906 13.2435 10.3152 13.6015 9.97184C13.975 9.6136 14.2333 9.13927 14.3544 8.39762C14.3618 8.34139 14.3448 8.29051 14.3203 8.25992C14.2972 8.23138 14.276 8.22863 14.2685 8.22867H9.77436Z" fill="white"/>
  <path d="M11.9111 10.9074C12.0205 10.889 12.1333 10.899 12.2392 10.9357C14.1622 11.6032 15.23 13.4187 15.6035 15.1769L15.6689 15.5275L15.6708 15.5392C15.7293 15.9494 15.6193 16.3734 15.3564 16.7004C15.0925 17.0285 14.6959 17.229 14.2646 17.2277L9.77826 17.2287C9.34694 17.23 8.95037 17.0285 8.68647 16.7004C8.42359 16.3734 8.31352 15.9494 8.37201 15.5392L8.37397 15.5275C8.67436 13.666 9.75245 11.6477 11.8037 10.9357L11.9111 10.9074ZM12.0214 12.2785C10.7397 12.8361 9.93481 14.2195 9.68842 15.7267C9.68026 15.784 9.69765 15.8363 9.7226 15.8673C9.74565 15.8959 9.76686 15.8986 9.77436 15.8986H14.2685C14.276 15.8986 14.2972 15.8959 14.3203 15.8673C14.3452 15.8363 14.3626 15.784 14.3544 15.7267C14.108 14.2196 13.3032 12.8361 12.0214 12.2785Z" fill="white"/>
  <path d="M16.0214 15.8986C16.3887 15.8986 16.6865 16.1964 16.6865 16.5636C16.6865 16.9309 16.3887 17.2287 16.0214 17.2287H8.02143C7.65416 17.2287 7.35639 16.9309 7.35639 16.5636C7.35639 16.1964 7.65416 15.8986 8.02143 15.8986H16.0214Z" fill="white"/>
</svg>