<svg xmlns="http://www.w3.org/2000/svg" width="64" height="64" viewBox="0 0 64 64">
  <g fill="none" fill-rule="evenodd">
    <circle cx="32" cy="32" r="32" fill="#00B159"/>
    <g fill="#FFF" fill-rule="nonzero" transform="translate(21.3 17)">
      <path d="M-1.41042404,3.66141207 C-0.315926826,9.97839328 3.60220664,14.2944776 10.2056189,16.4273874 C10.50536,16.5242042 10.8279733,16.5242042 11.1277145,16.4273874 C17.7311267,14.2944776 21.6492602,9.97839328 22.7437574,3.66141207 C23.0983022,1.35863415 21.5375554,-0.769032307 19.2627524,-1.11900199 C19.050523,-1.15165268 18.8353855,-1.16679261 18.6151111,-1.16679261 L2.71822222,-1.16679261 C0.425755708,-1.18050948 -1.45143169,0.675982066 -1.46307549,2.9783457 C-1.46526586,3.19045842 -1.44896656,3.41264942 -1.41500199,3.63341911 L-1.41042404,3.66141207 Z M1.53689931,3.00272271 C1.54031573,2.34899543 2.06571112,1.82939249 2.70921493,1.83319318 L18.6151111,1.83319318 C18.6885111,1.83319318 18.7521563,1.83774009 18.8065809,1.8461131 C19.4439818,1.94417478 19.881222,2.54023633 19.7832202,3.17724756 C18.9130924,8.19773546 15.9444689,11.5814142 10.6666632,13.4180074 C5.39459231,11.583386 2.42656444,8.20430221 1.54839226,3.16569599 C1.54019251,3.1087829 1.5364648,3.05421153 1.53689931,3.00272271 Z"/>
      <path d="M-1.46266667,27.0142222 C-1.46266667,26.7941304 -1.4476612,26.5806436 -1.41042404,26.3403657 C-0.315990009,20.0237492 3.60177627,15.7075744 10.2052445,13.5727335 C10.505216,13.4757555 10.8281173,13.4757555 11.1280889,13.5727335 C17.7315571,15.7075744 21.6493233,20.0237492 22.7486064,26.3701275 C23.0957228,28.6444345 21.535024,30.7691483 19.2609747,31.119002 C19.0396601,31.1530504 18.8167866,31.1693755 18.6151111,31.1666667 L2.72226074,31.1666667 C0.42298041,31.1778378 -1.45154773,29.3222389 -1.46266667,27.0142222 Z M1.5501131,26.8245302 C1.54168473,26.8793146 1.53731587,26.9412232 1.53731587,27.0069847 C1.5404236,27.6510612 2.06571444,28.1705796 2.70916442,28.166694 L2.71822222,28.1666667 L18.6343403,28.1667899 C18.6863616,28.1674569 18.7440778,28.1632292 18.8048031,28.1538869 C19.4428996,28.0557182 19.8802549,27.4603087 19.7877982,26.8525232 C18.9132684,21.8051025 15.944706,18.4204172 10.6666658,16.5821347 C5.38863022,18.4203961 2.42019285,21.80432 1.5501131,26.8245302 Z"/>
    </g>
  </g>
</svg>
