<svg width="20" height="20" viewBox="0 0 20 20" fill="none" xmlns="http://www.w3.org/2000/svg">
<path d="M7.50004 8.33334C7.50004 8.33334 6.25003 4.16668 6.25004 2.50001C9.16669 2.08333 10.8334 2.08333 13.75 2.50001C13.75 4.16667 12.5 8.33334 12.5 8.33334C12.5 8.33334 15.4167 10 14.5834 12.0834H5.41671C4.58337 10 7.50004 8.33334 7.50004 8.33334Z" fill="currentColor"/>
<path fill-rule="evenodd" clip-rule="evenodd" d="M6.13188 1.67338C9.12686 1.24551 10.8731 1.24551 13.8681 1.67338C14.2794 1.73214 14.585 2.08445 14.585 2.49999C14.585 3.45406 14.2426 5.01375 13.935 6.24416C13.7763 6.87919 13.6178 7.46028 13.4991 7.8823C13.4898 7.91545 13.4807 7.94762 13.4719 7.97878C13.7559 8.18743 14.1224 8.48662 14.4677 8.86071C15.1592 9.60987 15.96 10.8899 15.3586 12.3934C15.2318 12.7104 14.9247 12.9183 14.5833 12.9183H5.41664C5.07521 12.9183 4.76817 12.7105 4.64136 12.3934C4.03993 10.8899 4.84071 9.60987 5.53224 8.8607C5.87754 8.48662 6.24404 8.18743 6.52806 7.97878C6.51925 7.94762 6.51017 7.91545 6.50084 7.88231C6.38215 7.46028 6.22365 6.87919 6.0649 6.24417C5.75729 5.01376 5.41496 3.45406 5.41497 2.49998C5.41498 2.08444 5.72053 1.73214 6.13188 1.67338ZM8.29976 8.09337L8.29659 8.08278L8.28658 8.04907C8.27773 8.01917 8.26462 7.97467 8.24786 7.91722C8.21434 7.80228 8.16625 7.63561 8.10847 7.43016C7.99279 7.01885 7.83878 6.45411 7.68504 5.83913C7.45526 4.92005 7.24369 3.95517 7.14438 3.22212C9.26992 2.95593 10.73 2.95593 12.8555 3.22212C12.7562 3.95517 12.5447 4.92005 12.3149 5.83913C12.1612 6.45411 12.0071 7.01885 11.8915 7.43016C11.8337 7.63561 11.7856 7.80229 11.7521 7.91722C11.7353 7.97468 11.7222 8.01917 11.7134 8.04908L11.7034 8.08279L11.7003 8.09296C11.7003 8.09297 11.7003 8.09296 11.7003 8.09296C11.5887 8.46496 11.7482 8.86518 12.0853 9.05804" fill="currentColor"/>
<path fill-rule="evenodd" clip-rule="evenodd" d="M10 11.2484C10.4612 11.2484 10.835 11.6222 10.835 12.0834V17.5C10.835 17.9612 10.4612 18.335 10 18.335C9.53888 18.335 9.16504 17.9612 9.16504 17.5V12.0834C9.16504 11.6222 9.53888 11.2484 10 11.2484Z" fill="currentColor"/>
</svg>
