<svg width="20" height="20" viewBox="0 0 20 20" fill="none" xmlns="http://www.w3.org/2000/svg">
<path fill-rule="evenodd" clip-rule="evenodd" d="M12.6722 1.91612C15.0924 3.73125 16.327 4.96588 18.1421 7.38609C18.391 7.71786 18.358 8.1821 18.0647 8.47535C17.3903 9.1498 16.0455 10.0105 14.9579 10.6631C14.3967 10.9998 13.8737 11.2986 13.4914 11.5131C13.4286 11.5483 13.3695 11.5813 13.3147 11.6118C13.3147 11.6557 13.3145 11.7016 13.3139 11.7496C13.3089 12.1513 13.2793 12.704 13.1775 13.2941C12.9877 14.3949 12.4845 15.9825 11.0273 16.607C10.7141 16.7412 10.3507 16.6712 10.1098 16.4303L3.62795 9.94847C3.387 9.70752 3.31702 9.34416 3.45125 9.03095C4.07576 7.57374 5.66335 7.0705 6.7641 6.88072C7.3542 6.77898 7.90691 6.74933 8.3087 6.74437C8.35663 6.74378 8.40259 6.74354 8.4464 6.74358C8.47693 6.68872 8.5099 6.62967 8.54513 6.56687C8.75961 6.18454 9.05842 5.66159 9.39518 5.10032C10.0477 4.01274 10.9084 2.66799 11.5829 1.99352C11.8762 1.70029 12.3404 1.6673 12.6722 1.91612ZM8.86734 8.42234L8.86372 8.42209L8.83934 8.42056C8.81643 8.41922 8.7806 8.41735 8.73344 8.41556C8.63899 8.41199 8.49998 8.40881 8.32927 8.41091C7.98528 8.41516 7.52519 8.44075 7.04727 8.52315C6.28545 8.6545 5.66758 8.8953 5.29098 9.25448L10.8035 14.767C11.1627 14.3904 11.4037 13.7728 11.5351 13.011C11.6175 12.533 11.6431 12.073 11.6473 11.729C11.6494 11.5583 11.6463 11.4193 11.6427 11.3248C11.6409 11.2776 11.639 11.2418 11.6377 11.2189L11.6359 11.1909L12.0717 10.3933L12.1124 10.3713C12.1398 10.3564 12.1805 10.3342 12.233 10.3054C12.338 10.2478 12.4898 10.164 12.676 10.0595C13.0486 9.8505 13.5569 9.56005 14.1004 9.2339C14.9134 8.74614 15.746 8.21299 16.3347 7.76456C15.019 6.072 13.9862 5.03919 12.2937 3.72351C11.8452 4.31226 11.3121 5.14486 10.8243 5.95781C10.4982 6.50139 10.2077 7.00964 9.99871 7.38229C9.89428 7.56843 9.81042 7.72029 9.75285 7.82527C9.72408 7.87775 9.70188 7.91848 9.687 7.94589L9.67024 7.97681L9.66519 7.98616M8.86734 8.42234C8.86734 8.42234 9.42053 8.42234 9.66519 7.98616L8.86734 8.42234ZM12.0717 10.3933C11.7816 10.5495 11.6108 10.8624 11.6359 11.1909L12.0717 10.3933Z" fill="currentColor"/>
<path fill-rule="evenodd" clip-rule="evenodd" d="M8.04739 12.0109C8.37282 12.3363 8.37282 12.864 8.04739 13.1894L3.9226 17.3142C3.59716 17.6396 3.06952 17.6396 2.74408 17.3142C2.41865 16.9888 2.41865 16.4611 2.74408 16.1357L6.86887 12.0109C7.19431 11.6854 7.72195 11.6854 8.04739 12.0109Z" fill="currentColor"/>
</svg>
