<svg width="24" height="24" viewBox="0 0 24 24" fill="none" xmlns="http://www.w3.org/2000/svg">
<path d="M17.3438 16.6592C17.475 15.574 17.4352 15.417 18.2414 15.5928L18.4453 15.6115C19.0664 15.6397 19.8774 15.5108 20.3555 15.2905C21.3821 14.8147 21.9914 14.0178 20.9789 14.2264C18.668 14.7022 18.5086 13.9217 18.5086 13.9217C20.9485 10.303 21.968 5.70686 21.0867 4.58186C18.6867 1.51389 14.5289 2.96467 14.461 3.00217L14.4399 3.00686C13.9828 2.91311 13.4719 2.85451 12.8977 2.84514C11.8524 2.82873 11.0578 3.11936 10.4578 3.57639C10.4578 3.57639 3.04456 0.522481 3.38909 7.41779C3.46175 8.88498 5.49143 18.5178 7.91253 15.6092C8.79612 14.5451 9.65159 13.6451 9.65159 13.6451C10.0758 13.9264 10.5844 14.0717 11.1164 14.0201L11.1586 13.985C11.1446 14.1162 11.1516 14.2451 11.175 14.3998C10.5516 15.0959 10.7344 15.2178 9.48752 15.4756C8.22659 15.7358 8.96721 16.1975 9.45003 16.3194C10.036 16.467 11.393 16.6733 12.3094 15.3912L12.2719 15.5365C12.5156 15.7311 12.4992 16.9428 12.5344 17.8076C12.5696 18.6725 12.6281 19.4811 12.8039 19.9569C12.9797 20.4326 13.1883 21.6584 14.8266 21.3069C16.2024 21.0092 17.25 20.5873 17.3438 16.6592Z" fill="black" stroke="black" stroke-width="3.57868"/>
<path d="M20.9839 14.2244C18.6729 14.7002 18.5136 13.9197 18.5136 13.9197C20.9534 10.2987 21.9729 5.7049 21.0917 4.5799C18.6917 1.51193 14.5339 2.96272 14.4659 3.00022L14.4425 3.0049C13.9854 2.91115 13.4745 2.85256 12.9003 2.84318C11.855 2.82678 11.0628 3.1174 10.4604 3.57443C10.4604 3.57443 3.04481 0.520528 3.39168 7.41584C3.46434 8.88303 5.49403 18.5158 7.91512 15.6072C8.79872 14.5432 9.65418 13.6432 9.65418 13.6432C10.0784 13.9244 10.587 14.0697 11.119 14.0182L11.1612 13.983C11.1495 14.1143 11.1542 14.2432 11.1776 14.3979C10.5542 15.094 10.737 15.2158 9.49012 15.4737C8.22918 15.7338 8.96981 16.1955 9.45262 16.3174C10.0386 16.4651 11.3956 16.6713 12.312 15.3893L12.2745 15.5346C12.5182 15.7291 12.6893 16.8072 12.6612 17.7846C12.6331 18.7619 12.6143 19.4322 12.8065 19.9549C12.9987 20.4776 13.1909 21.6565 14.8292 21.3049C16.1979 21.0119 16.9081 20.2502 17.0065 18.9822C17.0768 18.0799 17.2362 18.2135 17.2456 17.4072L17.3722 17.0252C17.5198 15.8018 17.3956 15.408 18.2393 15.5908L18.4432 15.6096C19.0643 15.6377 19.8776 15.5088 20.3534 15.2885C21.387 14.8127 21.9964 14.0158 20.9839 14.2244Z" fill="#336791"/>
<path d="M12.4151 14.9248C12.3518 17.1982 12.4315 19.4904 12.6541 20.0459C12.8768 20.6037 13.3526 21.6842 14.9932 21.335C16.3619 21.042 16.8611 20.4725 17.0768 19.2186C17.2361 18.2951 17.5432 15.7334 17.583 15.2084" stroke="white" stroke-width="1.19289" stroke-linecap="round" stroke-linejoin="round"/>
<path d="M10.451 3.52264C10.451 3.52264 3.03064 0.489824 3.37752 7.38514C3.45017 8.85232 5.47986 18.4851 7.90095 15.5765C8.78455 14.5125 9.58611 13.6781 9.58611 13.6781" stroke="white" stroke-width="1.19289" stroke-linecap="round" stroke-linejoin="round"/>
<path d="M14.4586 2.96954C14.2008 3.04923 18.586 1.36642 21.0774 4.55157C21.9563 5.67657 20.9368 10.2703 18.4969 13.8914" stroke="white" stroke-width="1.19289" stroke-linecap="round" stroke-linejoin="round"/>
<path d="M18.4971 13.8917C18.4971 13.8917 18.6565 14.6745 20.9675 14.1964C21.98 13.9878 21.3706 14.7823 20.344 15.2605C19.5003 15.6519 17.6112 15.7527 17.5807 15.2113C17.5011 13.8167 18.5745 14.2409 18.4971 13.8917ZM18.4971 13.8917C18.4268 13.5777 17.9464 13.2683 17.63 12.4972C17.3534 11.8245 13.8261 6.67063 18.6073 7.43703C18.7831 7.40188 17.3604 2.89016 12.8862 2.81516C8.41199 2.7425 8.55965 8.31594 8.55965 8.31594" stroke="white" stroke-width="1.19289" stroke-linecap="round" stroke-linejoin="bevel"/>
<path d="M11.1612 14.367C10.5377 15.0631 10.7205 15.185 9.47365 15.4428C8.21271 15.703 8.95334 16.1647 9.43615 16.2866C10.0221 16.4342 11.3791 16.6405 12.2955 15.3584C12.5744 14.967 12.2932 14.3436 11.9112 14.1842C11.7283 14.1069 11.4799 14.0108 11.1612 14.367Z" stroke="white" stroke-width="1.19289" stroke-linecap="round" stroke-linejoin="round"/>
<path d="M11.1211 14.3552C11.0578 13.945 11.2547 13.4575 11.468 12.888C11.7867 12.0325 12.5203 11.177 11.932 8.46296C11.4937 6.44031 8.5617 8.04109 8.55936 8.31531C8.55702 8.58953 8.69295 9.70515 8.51014 11.0036C8.27342 12.6981 9.58826 14.1325 11.1047 13.9872" stroke="white" stroke-width="1.19289" stroke-linecap="round" stroke-linejoin="round"/>
<path d="M10.4226 8.27544C10.4086 8.36919 10.5937 8.61997 10.8351 8.65278C11.0765 8.68559 11.2804 8.49106 11.2945 8.39731C11.3086 8.30356 11.1234 8.20044 10.882 8.16763C10.6406 8.13247 10.4367 8.18169 10.4226 8.27544Z" fill="white" stroke="white" stroke-width="0.397627"/>
<path d="M17.7469 8.08403C17.761 8.17778 17.5758 8.42856 17.3344 8.46138C17.093 8.49419 16.8891 8.29966 16.875 8.20591C16.8633 8.11216 17.0461 8.00903 17.2875 7.97622C17.5266 7.94106 17.7329 7.99028 17.7469 8.08403Z" fill="white" stroke="white" stroke-width="0.198813"/>
<path d="M18.607 7.43652C18.6469 8.17012 18.4477 8.67168 18.4242 9.45449C18.3867 10.5912 18.9656 11.892 18.0938 13.1951" stroke="white" stroke-width="1.19289" stroke-linecap="round" stroke-linejoin="round"/>
</svg>
