<?xml version="1.0" encoding="UTF-8"?>
<svg width="27px" height="28px" viewBox="0 0 27 28" version="1.1" xmlns="http://www.w3.org/2000/svg" xmlns:xlink="http://www.w3.org/1999/xlink">
    <title>postgresql</title>
    <g id="Databases-multi-engine-options" stroke="none" stroke-width="1" fill="none" fill-rule="evenodd">
        <g id="Create-Database-Copy-9" transform="translate(-223.000000, -596.000000)" fill-rule="nonzero">
            <g id="postgresql" transform="translate(223.000000, 596.000000)">
                <polygon id="Path" fill="#000000" points="24.5038185 17.1381615 24.5083873 17.1335927 24.5015341 17.1381615 24.5026763 17.1381615"></polygon>
                <path d="M21.1206179,16.9211433 L21.1229023,16.9234277 L21.1229023,16.9245699 L21.1194757,16.9257121 C20.9538565,16.9862487 20.8167923,17.0113772 20.7014299,17.0627762 C20.5837832,17.1096065 20.4889805,17.1952716 20.4330126,17.3049229 L20.4318704,17.3072073 C20.3610539,17.4385605 20.299375,17.6715696 20.3176503,18.0679135 C20.3644805,18.1021795 20.4215906,18.1284502 20.4798429,18.1467254 L20.4844117,18.1478676 C20.6774437,18.2072621 21.0006867,18.2460969 21.3616224,18.2403859 C22.0812093,18.2323905 22.9675576,18.0622025 23.4381446,17.8406154 C23.8436261,17.6475834 24.1908553,17.4145743 24.5003919,17.1381615 C22.9287227,17.4671155 22.0412322,17.379166 21.4964021,17.1518679 C21.3547692,17.0901891 21.2302692,17.0136616 21.1206179,16.9211433 Z" id="Path" fill="#31648C"></path>
                <polygon id="Path" fill="#000000" points="19.5089716 4.84122081 19.5158248 4.85150062 19.5238203 4.86063823"></polygon>
                <path d="M13.4975654,22.1432882 C13.4964232,22.1147332 13.4975654,22.085036 13.4964232,22.0564809 C13.4964232,22.0450589 13.495281,22.0370635 13.495281,22.0256415 L13.4975654,22.1432882 Z M12.2925429,17.1027533 C12.2262952,17.0696294 12.1486255,17.0456432 12.0652448,17.0342212 L12.0618182,17.0342212 L12.0618182,17.0319368 L12.037832,17.0319368 C11.9784375,17.0376478 11.8916302,17.0582074 11.7225844,17.2466707 C11.3296671,17.6921292 11.1926029,17.9719686 10.8682177,18.2335327 C10.5438325,18.4939546 10.1235024,18.6333032 9.28284213,18.80806 C9.0167092,18.8628857 8.8636542,18.9234224 8.76314048,18.972537 C8.79626432,18.9999499 8.79283771,19.0068031 8.84195237,19.0330737 C8.96531013,19.1016058 9.12293393,19.1621425 9.25086049,19.1952663 C9.61179615,19.2866424 10.2057409,19.3928672 10.8248141,19.2866424 C11.4438873,19.1792755 12.0880889,18.8788765 12.6374878,18.0987529 C12.7322905,17.9639732 12.7425703,17.7652301 12.6649006,17.5516384 C12.5872309,17.3380468 12.4136163,17.1541523 12.2925429,17.1027533 Z M20.0823568,7.98113257 C19.3159396,7.99141238 18.8864718,8.19129764 18.660316,8.45286177 C18.3404996,8.82407723 18.3108023,9.47513206 18.5095454,10.2769575 C18.7071462,11.0799251 19.1149121,11.9776954 19.4986918,12.723553 C19.6905817,13.0970528 19.8767605,13.43286 20.0263889,13.7058462 C20.1771595,13.9799745 20.287953,14.1741488 20.3553429,14.339768 C20.4170218,14.492823 20.4866961,14.6276028 20.5563704,14.7532449 C20.8533427,14.1193231 20.905884,13.4968233 20.8761868,12.8480529 C20.8373519,12.0450853 20.6523153,11.2238425 20.6797281,10.3923198 C20.7105676,9.42030639 20.900173,8.78752679 20.9161638,8.03595824 C20.6660217,8.0016922 20.3759025,7.98113257 20.0823568,7.98113257 Z M20.2239897,8.5590865 L20.2228475,8.56822411 C20.2228475,8.57165072 20.2228475,8.57507732 20.2228475,8.57964613 C20.2228475,8.63218739 20.2079989,8.68244426 20.1817283,8.72356351 L20.1828705,8.72242131 C20.1474622,8.78752679 20.106343,8.84463686 20.0583705,8.89375152 C19.9464348,9.01825148 19.7968064,9.10505879 19.6277606,9.13475603 L19.6231918,9.13589823 C19.5992055,9.13932483 19.5717927,9.14046703 19.5432377,9.14046703 C19.3993203,9.14046703 19.2668249,9.09477898 19.1583158,9.01710928 L19.1606002,9.01825148 C19.1046323,8.97941663 19.0555177,8.93487077 19.0155406,8.88461391 L19.0143984,8.88347171 C18.9789902,8.84463686 18.9538617,8.79438 18.9435819,8.74069653 L18.9435819,8.73841213 C18.9435819,8.73270112 18.9424397,8.72699011 18.9424397,8.7212791 C18.9424397,8.67216444 18.9607149,8.62647638 18.9915544,8.59221034 C19.0281048,8.54994889 19.0715085,8.51568284 19.1217653,8.49055441 L19.1240497,8.48941221 C19.2325589,8.42773333 19.3787607,8.38204528 19.5443799,8.35691684 C19.6060588,8.34777923 19.6677376,8.34321043 19.7248477,8.34206823 L19.7248477,8.34549483 L19.7808156,8.34549483 C19.8550587,8.34777923 19.9235908,8.35577464 19.9841274,8.37062326 C20.0446641,8.38432968 20.0972054,8.4048893 20.1394668,8.43344434 C20.1817283,8.46199938 20.2137099,8.50540303 20.2239897,8.5590865 L20.2239897,8.5590865 Z M7.5124299,13.0148143 C7.5124299,12.8092181 7.52842072,12.6081906 7.55811796,12.4105898 L7.55583355,12.4322916 C7.6723381,11.5882047 7.68832892,10.7989435 7.6746225,10.1753015 C7.66091608,9.56765037 7.61751243,9.16331106 7.61751243,8.91088454 C7.61751243,8.90745794 7.61751243,8.90403133 7.61751243,8.90060473 C7.61751243,8.89717813 7.61751243,8.89260932 7.61751243,8.88918272 L7.61751243,8.88347171 L7.61637023,8.8766185 L7.61637023,8.8754763 C7.61637023,8.8731919 7.61637023,8.87204969 7.61637023,8.86976529 C7.61637023,7.51739879 7.85394813,6.22100015 8.28455807,5.01826203 C8.60094787,4.16846416 9.07153486,3.30610207 9.77627315,2.60707479 C9.08295688,2.3763501 7.85394813,2.02455205 6.52214125,1.95830437 C6.39421469,1.95145116 6.2445863,1.94688236 6.09495791,1.94688236 L6.09381571,1.94688236 L6.09381571,1.94802456 C5.95104053,1.94802456 5.80712315,1.95259336 5.66549017,1.96058877 C4.52557313,2.02683646 3.44733497,2.36150148 2.6774912,3.18845532 C1.90536302,4.01540917 1.39708338,5.37120228 1.50787692,7.61562811 C1.52957875,8.04052705 1.71233098,9.23070095 2.02529417,10.6447463 C2.33939957,12.0587917 2.78143153,13.7229792 3.3136974,15.1929925 C3.84710547,16.6630057 4.49359149,17.9422713 5.10809586,18.5476381 C5.41763245,18.8503215 5.68604979,18.972537 5.9293387,18.9622572 C6.17376981,18.9508352 6.46845778,18.80806 6.82825123,18.3705969 C7.53527393,17.509377 8.20346177,16.7475286 8.89335144,16.0073821 L8.87050741,16.0313683 C8.03670036,15.2946484 7.5124299,14.2175524 7.5124299,13.0148143 Z" id="Shape" fill="#31648C"></path>
                <path d="M13.5877994,1.89091449 L13.5877994,1.88863008 C12.2537081,1.89205669 11.2976855,2.2998226 10.5712454,2.91090037 C9.82310341,3.54253777 9.32167698,4.40718426 8.99158076,5.29239038 C8.59980567,6.3432157 8.4661681,7.35977499 8.41248463,8.04966466 L8.42733325,8.04052705 C8.83053036,7.81208676 9.35936963,7.58364647 9.92590154,7.4511511 C10.4924335,7.31865573 11.102369,7.27867868 11.6551945,7.49569696 C12.20802,7.71271523 12.6649006,8.22327928 12.8305198,8.99769185 C13.6243498,12.7178419 12.5838043,14.1010479 12.2000246,15.14502 C12.0778091,15.445419 11.9510247,15.8314831 11.8448,16.2255426 L11.8265247,16.3020701 C11.8744972,16.2906481 11.9236119,16.2769416 11.9715843,16.2723728 C12.2422861,16.2495288 12.4547355,16.3409049 12.5803777,16.3957306 C12.9664418,16.5579232 13.2314325,16.8982992 13.3742077,17.2866477 C13.4119003,17.3883036 13.438171,17.497955 13.4541618,17.6110329 C13.4690104,17.6498678 13.4770058,17.6955558 13.4770058,17.7423861 C13.4770058,17.7469549 13.4770058,17.7515237 13.4770058,17.7560925 C13.4587306,18.3271932 13.4473086,18.9976655 13.4473086,19.6715643 C13.4473086,20.4699631 13.4632994,21.2649353 13.4929966,22.0564809 C13.5192673,22.6572789 13.5569599,23.1895448 13.6037902,23.6087327 C13.6529048,24.035916 13.7214369,24.359159 13.7648406,24.4688104 C13.908758,24.8343148 14.1200652,25.3128972 14.5015605,25.6384246 C14.8830558,25.9628099 15.4301703,26.1798281 16.4295965,25.9628099 C17.2965274,25.7743466 17.8310777,25.5127825 18.1885868,25.1369982 C18.5460958,24.7612139 18.7585453,24.2380857 18.8944673,23.4374025 C19.0989213,22.238091 19.5089716,18.7600876 19.5592285,18.1056061 C19.5363845,17.6121751 19.6083432,17.2329642 19.7648248,16.9439873 C19.924733,16.6470149 20.1737329,16.4654049 20.3873245,16.3671756 C20.4946915,16.3180609 20.5952052,16.284937 20.6774437,16.2609508 C20.57693,16.1158912 20.4866961,15.9948179 20.3930355,15.8771711 L20.4033154,15.8897353 C20.1074852,15.5287997 19.8550587,15.1141806 19.664311,14.6675798 L19.6517468,14.634456 C19.5363845,14.3957359 19.4392973,14.215268 19.3376414,14.0382268 L19.3616276,14.0827727 C19.2119993,13.8086443 19.0223938,13.4659839 18.8236508,13.081062 C18.4261647,12.310076 17.9944125,11.3757553 17.7693988,10.4654207 C17.5455274,9.55622836 17.5135457,8.61505437 18.0869308,7.95143533 C18.5940683,7.36205939 19.4861276,7.11762828 20.8236455,7.25469245 C20.7848106,7.1347613 20.7608244,7.03538978 20.6934345,6.87548158 C20.3679071,6.11020661 19.976132,5.45001418 19.511256,4.85150062 C18.37705,3.38719837 16.5438167,1.93774474 13.7134415,1.89091449 L13.5877994,1.89091449 Z" id="Shape" fill="#31648C"></path>
                <polygon id="Path" fill="#000000" points="8.39649381 8.97484782 8.39877822 8.97370562 8.40220482 8.97027902"></polygon>
                <path d="M15.683739,0.580809433 C15.7031564,0.575098426 15.7237161,0.572814023 15.7419913,0.568245217 L15.7648353,0.561392008 L15.683739,0.580809433 Z" id="Path" fill="#000000"></path>
                <polygon id="Path" fill="#000000" points="10.0755299 8.20157745 10.0869519 8.20043525 10.0960896 8.19700864"></polygon>
                <polygon id="Path" fill="#000000" points="10.9047682 8.54195348 10.9024838 8.54195348 10.9024838 8.54195348"></polygon>
                <path d="M11.4907175,14.8766027 C11.9487403,13.6270343 12.8499372,12.7155575 12.0915155,9.15874226 C11.9670155,8.57621952 11.7214422,8.34092602 11.3833506,8.20843066 C11.2188736,8.14789398 11.0281259,8.11248574 10.8282407,8.11248574 C10.8156765,8.11248574 10.80197,8.11248574 10.7894058,8.11248574 L10.7916902,8.11248574 C10.5484013,8.11477014 10.3131078,8.14560958 10.0869519,8.20043525 C9.60722734,8.3215086 9.18461281,8.49283882 8.79169551,8.71214149 C8.64435153,8.79323779 8.51756717,8.8777607 8.39877822,8.97256342 L8.37707639,8.99312305 C8.3839296,9.15988446 8.41591124,9.56422377 8.42961765,10.1593107 C8.44332407,10.8103655 8.42733325,11.640746 8.30283329,12.5396585 C8.03327375,14.492823 9.43361272,16.1101802 11.0783828,16.1124646 C11.1754699,15.7115519 11.3330937,15.3049282 11.4907175,14.8766027 Z M10.5187041,9.20100371 L10.5187041,9.20100371 C10.4650206,9.14617804 10.421617,9.08449916 10.3862087,9.01710928 L10.3839243,9.01254047 C10.3542271,8.96456801 10.3370941,8.90631574 10.3370941,8.84349466 C10.3370941,8.83207264 10.3382363,8.82065063 10.3393785,8.80922862 L10.3393785,8.81037082 C10.3565115,8.68701306 10.4570252,8.62304978 10.5541123,8.58764154 C10.6443462,8.5579443 10.74486,8.54081128 10.8522269,8.54081128 C10.8682177,8.54081128 10.8842086,8.54081128 10.9024838,8.54195348 L10.9013416,8.53738467 C10.960736,8.53738467 11.0246993,8.54309568 11.0886626,8.55223329 C11.261135,8.57621952 11.4153322,8.62304978 11.5318368,8.69158187 C11.590089,8.72356351 11.6403459,8.76354056 11.680323,8.81151302 L11.6814652,8.81265522 C11.7203,8.85720108 11.743144,8.91545335 11.743144,8.98055883 C11.743144,8.98969644 11.743144,8.99883405 11.7420018,9.00797167 L11.7420018,9.00682946 C11.7305798,9.07536155 11.6997404,9.13475603 11.6574789,9.18272849 C11.6106487,9.23983856 11.5581074,9.28895322 11.4987129,9.33007247 L11.4964285,9.33121467 C11.3810662,9.41573758 11.2360066,9.46599444 11.079525,9.46599444 C11.0486856,9.46599444 11.0178461,9.46371004 10.9881489,9.46028344 L10.9915755,9.46028344 C10.80197,9.4283018 10.6397774,9.33464128 10.5187041,9.20100371 Z" id="Shape" fill="#31648C"></path>
                <path d="M20.1200494,4.38548243 C20.6146226,5.01940423 21.0429482,5.74127554 21.3730444,6.51568812 L21.3970306,6.5785092 C21.5215306,6.88005038 21.6049113,7.1347613 21.6517415,7.33236215 C21.6757278,7.43173368 21.6917186,7.51511438 21.6974296,7.60192169 C21.699714,7.64532535 21.7019984,7.6898712 21.6837232,7.7663987 C21.6837232,7.7698253 21.6780122,7.77782071 21.67687,7.78124732 C21.711136,8.78181578 21.4655627,9.46028344 21.4370077,10.4151638 C21.4141636,11.1073379 21.5889205,11.9205853 21.6323241,12.8080759 C21.6734434,13.6418829 21.5740718,14.5579285 21.0383794,15.456841 C21.0840674,15.5116667 21.1240445,15.5664923 21.1674481,15.621318 C22.5826357,13.3654702 23.6026216,10.86976 24.1463095,8.74183873 C24.4375709,7.59621068 24.591768,6.55794957 24.6054745,5.73556454 C24.6168965,4.9131795 24.4649837,4.31695035 24.2730938,4.06795043 C22.7585347,2.10793276 20.7105676,1.60879073 18.9926966,1.59508431 L18.9926966,1.59622651 L18.8282196,1.59622651 C18.1657427,1.60650633 17.5261099,1.68303382 16.908179,1.81667139 C18.3108023,2.44716659 19.3730497,3.41803781 20.1200494,4.38548243 Z" id="Shape" fill="#31648C"></path>
                <path d="M13.7762626,0.394630598 L13.7648406,0.394630598 C12.4353181,0.371786569 11.2942589,0.698456181 10.3725023,1.24214407 C9.46559436,0.923469865 7.58438859,0.374070972 5.60038468,0.48372231 C4.21946314,0.560249807 2.71175724,0.985148743 1.59468423,2.17874925 C0.481037825,3.37234976 -0.107195917,5.21928949 0.0161618389,7.73213266 C0.0504278821,8.42544893 0.245744329,9.55622836 0.568987336,11.0205306 C0.893372546,12.4848329 1.34796872,14.1992772 1.91564284,15.762951 C2.48331695,17.327767 3.10467454,18.7326747 4.07668796,19.6875551 C4.56212357,20.1661375 5.23031142,20.5681925 6.01728821,20.5350686 C6.57011371,20.5122246 7.06925574,20.2666513 7.50100788,19.9045734 C7.71117295,20.1844128 7.93504443,20.3066283 8.13949849,20.4197063 C8.39649381,20.5624814 8.64663593,20.6595686 8.90591566,20.7235318 C9.37193384,20.8411786 10.1691904,20.9988024 11.1035112,20.837752 C11.4221854,20.7840685 11.7568505,20.678986 12.0903733,20.5293576 C12.1029375,20.9062841 12.1177861,21.2752151 12.1314925,21.648715 C12.1783228,22.8320357 12.2068778,23.9251225 12.5575337,24.8834295 C12.6135015,25.0399111 12.7688409,25.8463053 13.3776343,26.5578968 C13.9864277,27.2706305 15.1811704,27.7149469 16.5403901,27.4202589 C17.4998393,27.2123782 18.7185682,26.8377362 19.5295313,25.6704063 C20.3302145,24.5167828 20.6911501,22.8617329 20.7631088,20.1775596 C20.781384,20.0325 20.8030859,19.9091422 20.8247877,19.7937799 L21.0155353,19.8109129 L21.0383794,19.8109129 C22.0617919,19.8577432 23.1720117,19.7103992 24.0994792,19.2740782 C24.9207221,18.8891563 25.5420796,18.4996656 25.9955336,17.8086338 C26.1086116,17.6373036 26.2319693,17.4305651 26.2662354,17.0741982 C26.3005014,16.7178314 26.0983317,16.1604371 25.7625245,15.9034418 C25.0909101,15.3871667 24.6694377,15.5836254 24.217126,15.6784281 C23.8139289,15.7732308 23.3479107,15.8326253 22.8704705,15.8451895 L22.8613329,15.8451895 C24.1657269,13.6213233 25.1011899,11.2592507 25.634598,9.16902207 C25.9509878,7.93544451 26.128029,6.79781188 26.1417354,5.80295442 C26.156584,4.80809697 26.0766299,3.92745966 25.487254,3.16561129 C23.6471675,0.785263491 21.0600812,0.127355461 19.0578021,0.104511432 C18.9961232,0.10336923 18.9333021,0.102227029 18.8716232,0.10336923 L18.8716232,0.0999426261 C17.7819631,0.109080238 16.7334221,0.273557245 15.7408491,0.567103016 L15.6940188,0.583093836 C15.1206337,0.4757269 14.4547303,0.407194814 13.7762626,0.394630598 Z M16.4821378,1.12221292 C17.1811651,0.949740498 17.9852749,0.845800167 18.8122288,0.835520354 L18.819082,0.835520354 L18.8202242,0.830951548 C20.7139942,0.812676325 23.1320346,1.3506532 24.869323,3.59736344 C25.2599559,4.10221648 25.3764604,4.84007861 25.362754,5.74927095 C25.3479054,6.6573211 25.1822862,7.74469687 24.8784606,8.93601298 C24.2890847,11.2432599 23.1765805,13.9331443 21.6094801,16.3466159 C21.6608791,16.3843086 21.7202736,16.4174324 21.7819525,16.4425608 L21.7876635,16.4448452 C22.1143331,16.5819094 22.8601907,16.6995562 24.3484791,16.3900196 C24.7231212,16.3100655 24.9972496,16.256382 25.2816577,16.4756847 C25.4095843,16.585336 25.4895384,16.7475286 25.4895384,16.9291387 C25.4895384,16.9405607 25.4895384,16.9519827 25.4883962,16.9634047 L25.4883962,16.9622625 C25.4712632,17.1073221 25.4198641,17.237533 25.3410522,17.3460422 C25.0532174,17.7835053 24.4855433,18.1981245 23.7591032,18.5396427 C23.1149016,18.8434683 22.1908606,19.0022343 21.3719022,19.0113719 C20.9607097,19.0159407 20.582641,18.9839591 20.2605402,18.8823031 L20.2399806,18.8743077 C20.1154806,20.0850412 19.8299302,22.4756689 19.6437514,23.5664712 C19.4952652,24.4459663 19.2348433,25.1449936 18.7368435,25.6681219 C18.2399858,26.1912501 17.5375319,26.5064977 16.5917892,26.712094 C15.4210327,26.9668049 14.566666,26.6926766 14.0161249,26.2232318 C13.466726,25.7549292 13.2154417,25.1335716 13.0635289,24.7532185 C12.9595886,24.4905122 12.9059051,24.1501362 12.8533638,23.69554 C12.8008226,23.2409438 12.7631299,22.6846917 12.7368593,22.0576231 C12.7117309,21.4202747 12.6980244,20.6709906 12.6980244,19.9182798 C12.6980244,19.6704221 12.7003088,19.4237066 12.7025932,19.1758489 C12.2308641,19.6144542 11.6346349,19.9228486 10.9721581,20.0404954 L10.9515984,20.043922 C10.1737593,20.1775596 9.48044298,20.0462064 9.06582386,19.9411239 C8.84537898,19.885156 8.65348914,19.8063441 8.47302131,19.7081148 C8.28341587,19.6053166 8.10294804,19.4876699 7.98187469,19.2580874 C7.93390223,19.1701379 7.90534719,19.0639132 7.90534719,18.9519774 C7.90534719,18.9074316 7.909916,18.8628857 7.91905361,18.8217664 C7.96017286,18.6687115 8.04583797,18.5385005 8.16348472,18.4471244 L8.16462692,18.4459822 C8.3884984,18.2620877 8.68318637,18.1592896 9.12978714,18.0656291 C9.94075016,17.8965833 10.2240161,17.7812209 10.3964885,17.6430146 C10.5426903,17.5242256 10.7094517,17.2843633 11.0018553,16.9325653 C11.0007131,16.9222855 10.9995709,16.9051524 10.9984287,16.8891616 L10.9984287,16.885735 C10.4456032,16.8697442 9.93047035,16.7201158 9.48044298,16.4676893 L9.497576,16.4768269 C9.32853019,16.6572947 8.4638837,17.5824779 7.41077397,18.8663123 C6.96759981,19.403147 6.47759539,19.7115414 5.96132034,19.7332432 C5.44504529,19.754945 4.9778849,19.4922387 4.5803988,19.102748 C3.7865688,18.3226244 3.1537892,16.9805377 2.6021059,15.4636942 C2.05156481,13.9468507 1.60382184,12.2575348 1.28514764,10.818361 C0.965331237,9.37918713 0.7780102,8.21871047 0.750597366,7.65903176 C0.631808416,5.28096836 1.18120731,3.67845974 2.1235235,2.66761147 C3.06698189,1.65676319 4.35995392,1.27412571 5.61980211,1.20102482 C7.88250316,1.06967165 10.0298419,1.86807046 10.4650206,2.03940067 C11.3033965,1.46373115 12.3827768,1.10507989 13.7294323,1.12792392 C14.4079,1.13820374 15.060097,1.22843765 15.683739,1.38948805 L15.6266289,1.37692384 L15.649473,1.36664402 C15.8676334,1.28440552 16.1463306,1.20102482 16.431881,1.13249273 L16.4821378,1.12221292 Z" id="Shape" fill="#31648C"></path>
            </g>
        </g>
    </g>
</svg>