<svg xmlns="http://www.w3.org/2000/svg" xmlns:xlink="http://www.w3.org/1999/xlink" width="24" height="24" viewBox="0 0 24 24">
    <defs>
        <path id="prefix__a" d="M0 0H24V24H0z"/>
    </defs>
    <g fill="none" fill-rule="evenodd">
        <mask id="prefix__b" fill="#fff">
            <use xlink:href="#prefix__a"/>
        </mask>
        <g stroke-linecap="round" stroke-linejoin="round" mask="url(#prefix__b)">
            <g stroke="#666" stroke-width="1.5">
                <g>
                    <path d="M21.261 7.493L7.493 21.26c-.582.586-1.527.587-2.112.006l-.006-.006-4.236-4.236c-.586-.582-.587-1.527-.006-2.112l.006-.006 5.825-5.826.445.094c.81.162 1.6-.364 1.763-1.175.04-.195.04-.396-.001-.591l-.093-.445 5.83-5.825c.58-.586 1.526-.587 2.111-.006l.006.006 4.236 4.236c.586.582.587 1.527.006 2.112l-.006.006z" transform="translate(-4 -11) rotate(45 7.53 19.547)"/>
                    <path d="M5.375 17.025L6.434 18.084 8.552 15.966 7.493 14.907M14.907 7.493L15.966 8.552 18.084 6.434 17.025 5.375M9.611 12.789L10.671 13.848 13.848 10.671 12.789 9.611M2.198 13.848L3.256 14.907M4.316 11.729L5.375 12.789M11.729 4.316L12.789 5.375M13.848 2.198L14.907 3.256" transform="translate(-4 -11) rotate(45 7.53 19.547)"/>
                </g>
                <g>
                    <path d="M21.261 7.493L7.493 21.26c-.582.586-1.527.587-2.112.006l-.006-.006-4.236-4.236c-.586-.582-.587-1.527-.006-2.112l.006-.006 5.825-5.826.445.094c.81.162 1.6-.364 1.763-1.175.04-.195.04-.396-.001-.591l-.093-.445 5.83-5.825c.58-.586 1.526-.587 2.111-.006l.006.006 4.236 4.236c.586.582.587 1.527.006 2.112l-.006.006z" transform="translate(-4 -11) rotate(45 -8.76 26.311)"/>
                    <path d="M5.375 17.025L6.434 18.084 8.552 15.966 7.493 14.907M14.907 7.493L15.966 8.552 18.084 6.434 17.025 5.375M9.611 12.789L10.671 13.848 13.848 10.671 12.789 9.611M2.198 13.848L3.256 14.907M4.316 11.729L5.375 12.789M11.729 4.316L12.789 5.375M13.848 2.198L14.907 3.256" transform="translate(-4 -11) rotate(45 -8.76 26.311)"/>
                </g>
            </g>
        </g>
    </g>
</svg>
