<svg xmlns="http://www.w3.org/2000/svg" width="16" height="16" viewBox="0 0 16 16">
    <g fill="none" fill-rule="evenodd" stroke="#3683DC" stroke-linecap="round" stroke-linejoin="round">
        <path d="M11.655 5.846L9.072 1.304C8.509.328 7.262-.008 6.286.554c-.311.18-.57.438-.75.75l-.719 1.244M7.303 13.257h5.138c1.126 0 2.04-.912 2.04-2.039 0-.358-.093-.71-.273-1.02l-.883-1.53M2.987 5.607L.404 10.196c-.563.976-.23 2.223.746 2.786.31.18.663.273 1.021.273h2.075" transform="translate(.7 .2)"/>
        <path d="M9.342 11.216L7.303 13.255 9.342 15.295M12.401 3.058L11.655 5.844 8.869 5.097M.201 6.354L2.987 5.607 3.734 8.393" transform="translate(.7 .2)"/>
    </g>
</svg>
