<svg width="21" height="18" viewBox="0 0 21 18" fill="none" xmlns="http://www.w3.org/2000/svg">
<path fill-rule="evenodd" clip-rule="evenodd" d="M1.92348 7.57618L2.24023 7.89293C2.42309 6.52861 2.94204 5.22469 3.7579 4.10175C4.7923 2.67802 6.25087 1.6183 7.92457 1.07449C9.59826 0.530672 11.4012 0.530672 13.0749 1.07449C14.4834 1.53216 15.7396 2.35522 16.7188 3.45314C17.0252 3.79662 16.9397 4.32105 16.5673 4.59157C16.195 4.86209 15.6773 4.77522 15.3625 4.43951C14.5964 3.62261 13.6334 3.00842 12.5598 2.65958C11.2209 2.22453 9.77855 2.22453 8.4396 2.65958C7.10064 3.09464 5.93378 3.94241 5.10626 5.08139C4.53891 5.86228 4.15104 6.75257 3.96323 7.6889L4.07595 7.57618C4.40203 7.25009 4.93073 7.25009 5.25681 7.57618C5.5829 7.90227 5.5829 8.43096 5.25681 8.75705L3.59015 10.4237C3.26406 10.7498 2.73537 10.7498 2.40928 10.4237L0.742613 8.75705C0.416525 8.43096 0.416525 7.90227 0.742613 7.57618C1.0687 7.25009 1.59739 7.25009 1.92348 7.57618ZM17.0361 10.311L16.9234 10.4237C16.5973 10.7498 16.0686 10.7498 15.7425 10.4237C15.4164 10.0976 15.4164 9.56893 15.7425 9.24285L17.4092 7.57618C17.7353 7.25009 18.264 7.25009 18.5901 7.57618L20.2567 9.24285C20.5828 9.56893 20.5828 10.0976 20.2567 10.4237C19.9306 10.7498 19.4019 10.7498 19.0759 10.4237L18.7591 10.107C18.5763 11.4713 18.0573 12.7752 17.2414 13.8981C16.207 15.3219 14.7485 16.3816 13.0748 16.9254C11.4011 17.4692 9.59818 17.4692 7.92449 16.9254C6.51593 16.4677 5.25973 15.6447 4.28051 14.5468C3.97417 14.2033 4.05966 13.6788 4.432 13.4083C4.80434 13.1378 5.32199 13.2247 5.63682 13.5604C6.40293 14.3773 7.3659 14.9915 8.43952 15.3403C9.77847 15.7754 11.2208 15.7754 12.5597 15.3403C13.8987 14.9053 15.0656 14.0575 15.8931 12.9185C16.4604 12.1376 16.8483 11.2473 17.0361 10.311Z" fill="#3D3D42"/>
</svg>
