<svg 
  version="1.1" 
  xmlns="http://www.w3.org/2000/svg" 
  xmlns:xlink="http://www.w3.org/1999/xlink" 
  x="0px" 
  y="0px"
  width="12px"
  height="12px"
  fill="currentColor"
  stroke-width="1"
  viewBox="0 0 467.871 467.871" xml:space="preserve">
  <g>
    <path d="M392.098,344.131c-6.597-5.014-16.007-3.729-21.019,2.868c-0.962,1.266-1.948,2.516-2.957,3.751
      c-15.046,18.411-35.315,33.36-60.321,44.474c-0.124,0.055-0.247,0.111-0.369,0.17c-39.456,18.831-85.618,21.405-129.896,7.274
      c-38.875-12.657-70.505-37.162-94.017-72.837c-17.462-27.997-26.613-58.428-27.264-90.524c-0.016-0.781-0.015-1.564-0.021-2.346
      h18.402c6.919,0,10.384-8.365,5.491-13.257L46.7,190.277c-3.033-3.033-7.95-3.033-10.983,0L2.29,223.704
      c-4.892,4.892-1.427,13.257,5.491,13.257H26.21c0.24,38.722,10.983,75.351,31.963,108.92c0.062,0.099,0.125,0.196,0.188,0.294
      c27.356,41.581,64.327,70.186,109.971,85.046c21.87,6.979,44.152,10.447,66.102,10.447c29.833-0.001,59.045-6.407,85.737-19.113
      c31.267-13.929,56.432-33.243,74.793-57.405C399.977,358.554,398.693,349.144,392.098,344.131z"/>
    <path d="M460.09,233.876h-18.428c-0.001-4.112-0.123-8.271-0.364-12.362c-1.913-32.411-11.568-64.326-27.921-92.295
      c-15.945-27.271-38.292-50.932-64.626-68.426c-26.774-17.787-57.774-29.226-89.649-33.079
      c-35.426-4.283-71.452,0.578-104.185,14.052c-32.1,13.213-60.653,34.522-82.572,61.623c-5.21,6.44-4.211,15.886,2.229,21.096
      c6.442,5.209,15.886,4.211,21.096-2.23c1.12-1.385,2.264-2.75,3.424-4.1c18.274-21.253,41.418-38.016,67.242-48.646
      c27.995-11.523,58.83-15.678,89.166-12.011c27.25,3.294,53.754,13.074,76.648,28.284c22.546,14.979,41.679,35.234,55.329,58.58
      c13.98,23.91,22.235,51.2,23.871,78.92c0.104,1.763,0.182,3.54,0.235,5.32c0.052,1.76,0.077,3.522,0.078,5.275h-18.426
      c-6.919,0-10.384,8.365-5.491,13.257l33.427,33.427c3.033,3.033,7.95,3.033,10.983,0l33.427-33.427
      C470.473,242.241,467.008,233.876,460.09,233.876z"/>
  </g>
</svg>
