<svg xmlns="http://www.w3.org/2000/svg" width="24" height="24" viewBox="0 0 24 24" fill="none">
  <path fill-rule="evenodd" clip-rule="evenodd" d="M4.15549 10.4303L4.29289 10.2929C4.68342 9.90239 5.31658 9.90239 5.70711 10.2929C6.09763 10.6834 6.09763 11.3166 5.70711 11.7071L3.70711 13.7071C3.31658 14.0977 2.68342 14.0977 2.29289 13.7071L0.292893 11.7071C-0.0976311 11.3166 -0.0976311 10.6834 0.292893 10.2929C0.683417 9.90239 1.31658 9.90239 1.70711 10.2929L2.08827 10.6741C2.34241 8.77424 3.13899 6.97724 4.39594 5.50554C5.9423 3.69499 8.08394 2.49561 10.4357 2.12314C12.7874 1.75066 15.1948 2.22954 17.225 3.47362C19.2551 4.71771 20.7748 6.64536 21.5106 8.90985C22.2463 11.1743 22.15 13.6271 21.2388 15.8269C20.3276 18.0266 18.6614 19.8291 16.5399 20.9101C14.4184 21.9911 11.9808 22.2796 9.66555 21.7237C7.67578 21.246 5.88862 20.1716 4.53708 18.6562C4.16947 18.2441 4.27204 17.6147 4.71885 17.2901C5.16566 16.9655 5.78684 17.0697 6.16464 17.4726C7.22861 18.6071 8.606 19.4125 10.1324 19.779C11.9846 20.2237 13.9347 19.9928 15.6319 19.1281C17.3291 18.2633 18.6621 16.8213 19.391 15.0615C20.12 13.3017 20.1971 11.3395 19.6085 9.52789C19.0198 7.71629 17.8041 6.17417 16.18 5.1789C14.5559 4.18363 12.6299 3.80053 10.7485 4.09852C8.86715 4.3965 7.15384 5.356 5.91675 6.80444C5.02418 7.84951 4.42179 9.09962 4.15549 10.4303Z" fill="currentColor"/>
</svg>