<svg xmlns="http://www.w3.org/2000/svg" width="20" height="20" viewBox="0 0 20 20" fill="none">
  <path fill-rule="evenodd" clip-rule="evenodd" d="M3.46517 8.68899L3.5779 8.57626C3.90399 8.25018 4.43268 8.25018 4.75877 8.57626C5.08486 8.90235 5.08486 9.43104 4.75877 9.75713L3.0921 11.4238C2.76601 11.7499 2.23732 11.7499 1.91123 11.4238L0.244566 9.75713C-0.0815219 9.43104 -0.0815219 8.90235 0.244566 8.57626C0.570653 8.25018 1.09935 8.25018 1.42543 8.57626L1.74217 8.893C1.95426 7.31057 2.61795 5.81385 3.66495 4.58797C4.95358 3.07918 6.73828 2.0797 8.69804 1.7693C10.6578 1.45891 12.664 1.85797 14.3558 2.89471C16.0476 3.93144 17.314 5.53782 17.9271 7.4249C18.5403 9.31198 18.46 11.3559 17.7007 13.1891C16.9413 15.0222 15.5528 16.5243 13.7849 17.4251C12.017 18.3259 9.98566 18.5663 8.05629 18.1031C6.39815 17.705 4.90885 16.8097 3.78256 15.5469C3.47623 15.2034 3.5617 14.6789 3.93404 14.4084C4.30638 14.1379 4.82403 14.2248 5.13886 14.5605C6.02551 15.5059 7.17333 16.1771 8.44536 16.4825C9.98886 16.8531 11.6139 16.6607 13.0283 15.9401C14.4426 15.2194 15.5534 14.0178 16.1609 12.5513C16.7683 11.0847 16.8326 9.44959 16.342 7.93993C15.8515 6.43026 14.8384 5.14516 13.485 4.31577C12.1315 3.48638 10.5266 3.16713 8.95877 3.41545C7.39096 3.66377 5.96319 4.46335 4.93229 5.67039C4.18914 6.5405 3.68738 7.58119 3.46517 8.68899Z" fill="currentColor"/>
</svg>