 <?xml version="1.0" encoding="utf-8"?>
<!-- Generator: Adobe Illustrator 22.0.1, SVG Export Plug-In . SVG Version: 6.00 Build 0)  -->
<svg version="1.1" id="Layer_1" xmlns="http://www.w3.org/2000/svg" xmlns:xlink="http://www.w3.org/1999/xlink" x="0px" y="0px"
	 viewBox="0 0 185 170" style="enable-background:new 0 0 185 170;" xml:space="preserve" fill="none" stroke="currentColor" stroke-width="2">
<style type="text/css">
	.st0{fill:#FFFFFF;stroke:#3683DC;stroke-width:2;}
	.st1{fill:none;stroke:#3683DC;stroke-width:2;}
	.st2{fill:#3683DC;stroke:#3683DC;}
	.st3{fill:none;stroke:#3683DC;stroke-width:2;stroke-dasharray:5.0249,5.0249;}
	.st4{fill:none;stroke:#3683DC;stroke-width:2;stroke-dasharray:4.6103,4.6103;}
	.st5{fill:none;stroke:#3683DC;stroke-width:2;stroke-dasharray:5.5243;}
</style>
<g id="_x30_2_x5F_Resource_x5F_Center">
	<g id="Community" transform="translate(68.132992, 0.000000)">
		<path id="Shape" class="st0" d="M24.2,19c0.8,1.7,2.5,2.5,4.2,2.5c1.7,0,3.3-1.2,4.2-2.5c11.8,0,10.7-16.9-0.2-16.9
			c-2.4,0-4.1,0.9-5.7,2.5c-4.5-2.3-9.6,0.5-10.7,5"/>
		<path id="Shape_1_" class="st1" d="M14.8,40.9h12.8c0,0,0-1.7,0-4.2c0-0.8-5.1-3.4-9.3-5.1v-3.4c0,0,1.7-0.6,1.7-4.2
			c1.2,0,1.7-3.4,0-3.4c0-0.4,1.3-2.2,0.8-4.2c-0.8-3.4-9.3-3.4-10.1,0c-3.5-0.7-0.8,3.7-0.8,4.2c-1.7,0-1.2,3.4,0,3.4
			c0,3.6,1.7,4.2,1.7,4.2v3.4c-4.2,1.7-9.3,4.2-9.3,5.1c0,1.7,0,4.2,0,4.2H14.8z"/>
		<ellipse id="Oval" class="st1" cx="30.1" cy="26.6" rx="1.7" ry="1.7"/>
		<path id="Shape_2_" class="st2" d="M25.1,11.4c0,0.5-0.4,0.8-0.8,0.8s-0.8-0.4-0.8-0.8c0-0.5,0.4-0.8,0.8-0.8S25.1,10.9,25.1,11.4
			z"/>
		<path id="Shape_3_" class="st1" d="M25.1,29.1c0,0.5-0.4,0.8-0.8,0.8s-0.8-0.4-0.8-0.8s0.4-0.8,0.8-0.8S25.1,28.6,25.1,29.1z"/>
		<path id="Shape_4_" class="st2" d="M30.1,11.4c0,0.5-0.4,0.8-0.8,0.8s-0.8-0.4-0.8-0.8c0-0.5,0.4-0.8,0.8-0.8S30.1,10.9,30.1,11.4
			z"/>
		<path id="Shape_5_" class="st2" d="M35.1,11.4c0,0.5-0.4,0.8-0.8,0.8s-0.8-0.4-0.8-0.8c0-0.5,0.4-0.8,0.8-0.8S35.1,10.9,35.1,11.4
			z"/>
	</g>
	<g id="Documents" transform="translate(0.000000, 23.044693)">
		<polygon id="Shape_6_" class="st0" points="33.7,33.5 9.8,33.5 9.8,2.2 24.5,2.2 33.7,11.4 		"/>
		<polyline id="Shape_7_" class="st1" points="30,33.5 30,37.3 6.1,37.3 6.1,5.9 9.8,5.9 		"/>
		<polyline id="Shape_8_" class="st1" points="26.4,37.3 26.4,40.9 2.4,40.9 2.4,9.6 6.1,9.6 		"/>
		<polyline id="Shape_9_" class="st1" points="25.2,2.2 25.2,10 33,10 		"/>
	</g>
	<g id="Ada" transform="translate(139.028133, 23.044693)">
		<polygon id="Shape_10_" class="st0" points="42.8,16.3 19.1,16.3 11.2,22.5 11.2,16.3 2.4,16.3 2.4,2.2 42.8,2.2 		"/>
		<polyline id="Shape_11_" class="st0" points="6.7,21.6 2.4,21.6 2.4,33.9 26.1,33.9 34,40.9 34,33.9 42.8,33.9 42.8,21.6 20,21.6 
					"/>
	</g>
	<g id="Browser" transform="translate(38.209719, 71.438547)">
		<g>
			<path id="Shape_12_" class="st0" d="M100.7,95.4H7.8c-3,0-5.5-2.5-5.5-5.5V7.9c0-3,2.5-5.5,5.5-5.5h92.9c3,0,5.5,2.5,5.5,5.5
				v81.9C106.3,92.9,103.8,95.4,100.7,95.4z"/>
			<path id="Shape_13_" class="st0" d="M106.3,16.5H2.3V7.6c0-3,2.5-5.5,5.5-5.5h92.9c3,0,5.5,2.5,5.5,5.5V16.5z"/>
			<ellipse id="Oval_1_" class="st1" cx="12.3" cy="9.3" rx="2.6" ry="2.6"/>
			<ellipse id="Oval_2_" class="st1" cx="22" cy="9.3" rx="2.6" ry="2.6"/>
			<ellipse id="Oval_3_" class="st1" cx="31.6" cy="9.3" rx="2.6" ry="2.6"/>
		</g>
		<g id="Search" transform="translate(12.429668, 29.497207)">
			<ellipse id="Oval_4_" class="st0" cx="36.3" cy="20.4" rx="18.2" ry="18.3"/>
			<path id="Shape_14_" class="st0" d="M23.5,33.3L2.1,54.6"/>
		</g>
		<path id="Shape_15_" class="st0" d="M36.3,43.8h14.9"/>
		<path id="Shape_16_" class="st0" d="M36.3,49.3h23.3"/>
		<path id="Shape_17_" class="st0" d="M36.3,55.5h13.8"/>
	</g>
	<g id="Lines" transform="translate(11.969309, 42.368715)">
		<path id="Shape_18_" class="st1" d="M2.4,26v2.8"/>
		<path id="Shape_19_" class="st3" d="M2.4,33.8v27.7"/>
		<polyline id="Shape_20_" class="st1" points="2.4,64 2.4,66.7 5.2,66.7 		"/>
		<path id="Shape_21_" class="st4" d="M9.8,66.7h6.9"/>
		<path id="Shape_22_" class="st1" d="M19,66.7h2.8"/>
		<path id="Shape_23_" class="st5" d="M69.5,2.3V26"/>
		<path id="Shape_24_" class="st5" d="M147.5,21.4v45.3h-11.4"/>
	</g>
</g>
</svg>
