<svg width="20" height="20" viewBox="0 0 20 20" fill="none" xmlns="http://www.w3.org/2000/svg">
    <path fill="currentColor" fill-rule="evenodd" clip-rule="evenodd" d="M3.33341 9.16667C3.33341 5.94501 5.94509 3.33334 9.16675 3.33334C12.3884 3.33334 15.0001 5.94501 15.0001 9.16667C15.0001 10.7383 14.3786 12.1648 13.3679 13.2137C13.3394 13.2356 13.312 13.2596 13.2858 13.2857C13.2597 13.3119 13.2357 13.3393 13.2137 13.3678C12.1648 14.3785 10.7384 15 9.16675 15C5.94509 15 3.33341 12.3883 3.33341 9.16667ZM13.8482 15.0266C12.5651 16.0529 10.9376 16.6667 9.16675 16.6667C5.02461 16.6667 1.66675 13.3088 1.66675 9.16667C1.66675 5.02454 5.02461 1.66667 9.16675 1.66667C13.3089 1.66667 16.6667 5.02454 16.6667 9.16667C16.6667 10.9375 16.053 12.565 15.0267 13.8481L18.0893 16.9107C18.4148 17.2362 18.4148 17.7638 18.0893 18.0893C17.7639 18.4147 17.2363 18.4147 16.9108 18.0893L13.8482 15.0266Z"/>
</svg>
