<svg xmlns="http://www.w3.org/2000/svg" width="24" height="24" viewBox="0 0 24 24">
  <g fill="none" fill-rule="evenodd" stroke-linecap="round" stroke-linejoin="round" stroke-width="1.5">
    <path d="M12.7499997,9.807 C12.749,6.493 10.062,3.808 6.748,3.80899972 C3.435,3.80899972 0.749,6.496 0.749999721,9.81 C0.751,12.545 2.601,14.934 5.24999972,15.618 L5.24999972,21.754 C5.24999972,22.582 5.922,23.254 6.74999972,23.254 C7.578,23.254 8.24999972,22.582 8.24999972,21.754 L8.24999972,15.618 C10.9,14.934 12.751,12.544 12.7499997,9.807 Z"/>
    <path d="M13.563 15.75C14.347 15.642 15.101 15.379 15.782 14.977L20.689 19.883C21.285 20.459 22.234 20.442 22.81 19.846 23.371 19.265 23.371 18.343 22.81 17.762L17.9 12.856C19.585 10.002 18.637 6.324 15.784 4.639 13.923 3.54 11.615 3.527 9.741 4.605M6.75 7.557C7.578 7.557 8.25 8.229 8.25 9.057 8.25 9.885 7.578 10.557 6.75 10.557 5.922 10.557 5.25 9.885 5.25 9.057 5.25 8.229 5.922 7.557 6.75 7.557z"/>
    <path d="M6.75,7.557 L6.75,3 C6.75,1.757 7.757,0.75 9,0.75 C10.243,0.75 11.25,1.757 11.25,3 L11.25,3.989"/>
  </g>
</svg>
