<svg xmlns="http://www.w3.org/2000/svg" width="20" height="20" viewBox="0 0 20 20" fill="none">
  <path fill-rule="evenodd" clip-rule="evenodd" d="M17.6301 2.3695C16.6904 1.43005 15.1671 1.43025 14.2276 2.36992L8.10647 8.49119C6.02852 7.87852 3.75885 8.67023 2.5234 10.5027C1.17922 12.4965 1.43627 15.1632 3.13653 16.8635C4.83681 18.5638 7.5035 18.8209 9.49724 17.4767C11.3297 16.2412 12.1214 13.9715 11.5087 11.8935L12.4914 10.9107L13.1937 11.0991L13.1948 11.0994C13.8441 11.2726 14.5364 11.0867 15.0116 10.6115C15.4867 10.1364 15.6727 9.44402 15.4995 8.79476L15.3692 8.30904L15.854 8.4391C16.5036 8.6131 17.1966 8.42737 17.6721 7.95186C18.1476 7.47639 18.3333 6.78327 18.1593 6.13376L17.9549 5.37003C18.5535 4.43846 18.4452 3.18434 17.6301 2.3695ZM15.4086 3.55069C15.696 3.26322 16.1619 3.26315 16.4494 3.55053C16.7369 3.83792 16.7369 4.30395 16.4496 4.59143C16.2387 4.80232 16.1564 5.10963 16.2335 5.39769L16.5462 6.56587C16.5658 6.63917 16.5449 6.71736 16.4912 6.77101C16.4376 6.82465 16.3594 6.8456 16.2861 6.82597L15.1184 6.51271C14.8302 6.43539 14.5226 6.51775 14.3116 6.72876L13.7889 7.25145C13.5779 7.46245 13.4956 7.77001 13.5729 8.05822L13.8861 9.22564C13.9054 9.29894 13.8843 9.37702 13.8307 9.43065C13.777 9.48432 13.6985 9.50528 13.6252 9.48584L12.4584 9.17281C12.1701 9.09549 11.8626 9.17786 11.6516 9.38887L9.95486 11.0856C9.71428 11.3262 9.64373 11.6887 9.77654 12.002C10.4031 13.4799 9.89465 15.1946 8.56367 16.092C7.23269 16.9894 5.45248 16.8178 4.31742 15.6827C3.18234 14.5476 3.01074 12.7673 3.9081 11.4363C4.80546 10.1053 6.52011 9.59676 7.99798 10.2234C8.31125 10.3562 8.67377 10.2856 8.91437 10.045L15.4086 3.55069ZM6.66829 13.3334C6.66829 13.411 6.60536 13.474 6.52774 13.474C6.45011 13.474 6.38718 13.411 6.38718 13.3334C6.38718 13.2558 6.45011 13.1928 6.52774 13.1928C6.60536 13.1928 6.66829 13.2558 6.66829 13.3334ZM6.52774 11.804C5.68305 11.804 4.99829 12.4887 4.99829 13.3334C4.99829 14.1781 5.68305 14.8628 6.52774 14.8628C7.37242 14.8628 8.05718 14.1781 8.05718 13.3334C8.05718 12.4887 7.37242 11.804 6.52774 11.804Z" fill="currentColor"/>
</svg>