<svg xmlns="http://www.w3.org/2000/svg" width="24" height="24" viewBox="0 0 24 24" fill="none">
  <path fill-rule="evenodd" clip-rule="evenodd" d="M21.1547 2.84476C20.0278 1.71821 18.2011 1.71845 17.0745 2.84527L9.72829 10.1916C7.23527 9.45606 4.51196 10.4057 3.02969 12.6043C1.41721 14.9961 1.72556 18.1951 3.76521 20.2348C5.80486 22.2745 9.00383 22.5828 11.3955 20.9703C13.5941 19.488 14.5437 16.7646 13.8082 14.2716L14.9891 13.0906L15.8343 13.3174C16.6127 13.525 17.4428 13.302 18.0124 12.7323C18.5821 12.1627 18.805 11.3326 18.5974 10.5542L18.4402 9.96797L19.0253 10.1249C19.8041 10.3336 20.635 10.1109 21.2051 9.54078C21.7752 8.97068 21.9978 8.13976 21.7892 7.36098L21.5437 6.44365C22.262 5.32646 22.1323 3.82211 21.1547 2.84476ZM18.4888 4.25936C18.8345 3.91362 19.3949 3.91354 19.7407 4.25917C20.0864 4.60483 20.0865 5.16533 19.7408 5.51108C19.4884 5.76365 19.3897 6.13169 19.4821 6.47666L19.8573 7.87848C19.8811 7.96713 19.8557 8.0617 19.7908 8.12658C19.726 8.19137 19.6313 8.21663 19.5428 8.19305L18.1415 7.81713C17.7964 7.72453 17.428 7.82318 17.1753 8.07588L16.5481 8.70311C16.2954 8.9558 16.1968 9.32414 16.2893 9.6693L16.6651 11.0699C16.6886 11.1587 16.6631 11.2532 16.5982 11.3181C16.5332 11.3831 16.4384 11.4085 16.3497 11.3849L14.9495 11.0093C14.6043 10.9167 14.2359 11.0153 13.9832 11.268L11.9472 13.3041C11.6591 13.5922 11.5746 14.0264 11.7336 14.4015C12.4859 16.1759 11.8754 18.2346 10.2775 19.312C8.67951 20.3894 6.54219 20.1833 5.17944 18.8206C3.81667 17.4578 3.61064 15.3204 4.68801 13.7224C5.76538 12.1243 7.82399 11.5138 9.59831 12.2661C9.97348 12.4252 10.4076 12.3407 10.6958 12.0526L18.4888 4.25936ZM8 16C8 16.0921 7.92538 16.1667 7.83333 16.1667C7.74129 16.1667 7.66667 16.0921 7.66667 16C7.66667 15.908 7.74129 15.8334 7.83333 15.8334C7.92538 15.8334 8 15.908 8 16ZM7.83333 14.1667C6.82081 14.1667 6 14.9875 6 16C6 17.0125 6.82081 17.8334 7.83333 17.8334C8.84586 17.8334 9.66667 17.0125 9.66667 16C9.66667 14.9875 8.84586 14.1667 7.83333 14.1667Z" fill="currentColor"/>
</svg>