<svg version="1.1" id="Layer_1" xmlns="http://www.w3.org/2000/svg" xmlns:xlink="http://www.w3.org/1999/xlink" x="0px" y="0px"
	 viewBox="0 0 64 64" style="enable-background:new 0 0 64 64;" xml:space="preserve" fill="none">
	 <desc>Customer Support</desc>
	<circle id="background" class="outerCircle" stroke-width="2" cx="31.9" cy="31.9" r="29.9"></circle>
	<g id="mail" class="insidePath" transform="translate(15.000000, 15.000000)">
		<path id="Stroke-541" d="M26.4,12.9l5,3.4v13.1c0,1-0.8,1.9-1.9,1.9h-25c-1,0-1.9-0.8-1.9-1.9V16.4l5-3.4"/>
		<polyline id="Stroke-542" points="6.4,27.6 12.6,22.6 21.4,22.6 27.6,27.6"/>
		<path id="Stroke-543" d="M31.4,16.4l-7.5,5"/>
		<path id="Stroke-544" d="M2.6,16.4l7.5,5"/>
		<polyline id="Stroke-545" points="26.4,19.5 26.4,2.6 7.6,2.6 7.6,19.5"/>
		<path id="Stroke-546" d="M11.4,6.4h2.5"/>
		<path id="Stroke-547" d="M13.9,10.1h8.8"/>
		<path id="Stroke-548" d="M11.4,13.9h11.2"/>
		<path id="Stroke-549" d="M11.4,17.6h11.2"/>
	</g>
</svg>
