<svg width="16" height="16" viewBox="0 0 16 16" fill="none" xmlns="http://www.w3.org/2000/svg">
<path fill-rule="evenodd" clip-rule="evenodd" d="M4.80352 2.19649C5.06322 2.45619 5.06322 2.87724 4.80351 3.13694L3.60543 4.335L11.3333 4.335C11.7006 4.335 11.9983 4.63273 11.9983 5C11.9983 5.36727 11.7006 5.665 11.3333 5.665L3.60539 5.665L4.80352 6.86315C5.06322 7.12286 5.06322 7.54391 4.80351 7.80361C4.54381 8.0633 4.12276 8.0633 3.86306 7.8036L1.52973 5.47022C1.27003 5.21052 1.27004 4.78947 1.52974 4.52977L3.86307 2.19648C4.12277 1.93678 4.54383 1.93679 4.80352 2.19649ZM11.1964 8.19648C11.4561 7.93678 11.8772 7.93678 12.1369 8.19648L14.4701 10.5298C14.7298 10.7895 14.7298 11.2105 14.4702 11.4702L12.1369 13.8036C11.8772 14.0633 11.4561 14.0633 11.1964 13.8036C10.9367 13.5439 10.9367 13.1229 11.1964 12.8632L12.3945 11.665L4.66658 11.665C4.29932 11.665 4.00159 11.3673 4.00159 11C4.00159 10.6327 4.29932 10.335 4.66658 10.335L12.3945 10.335L11.1964 9.13694C10.9367 8.87724 10.9367 8.45618 11.1964 8.19648Z" fill="#3D3D42"/>
</svg>
