<svg enable-background="new 0 0 14.8 17.6" width="20" height="20" viewBox="0 0 14.8 17.6" xmlns="http://www.w3.org/2000/svg"><g fill="currentColor"><path d="m2.8 1.4c0 .8-.6 1.4-1.4 1.4s-1.4-.6-1.4-1.4.6-1.4 1.4-1.4 1.4.7 1.4 1.4zm12 0c0-.4-.3-.7-.8-.7h-8.8c-.4 0-.7.3-.7.7s.3.8.8.8h8.7c.4 0 .8-.4.8-.8z"/><path d="m2.8 6.3c0 .8-.6 1.4-1.4 1.4s-1.4-.6-1.4-1.4.6-1.4 1.4-1.4 1.4.7 1.4 1.4zm12 0c0-.4-.3-.8-.8-.8h-8.8c-.4 0-.8.3-.8.8s.3.8.8.8h8.8c.4 0 .8-.3.8-.8z"/><path d="m2.8 11.3c0 .8-.6 1.4-1.4 1.4s-1.4-.7-1.4-1.4c0-.8.6-1.4 1.4-1.4s1.4.6 1.4 1.4zm12 0c0-.4-.3-.8-.8-.8h-8.8c-.4 0-.8.3-.8.8s.3.8.8.8h8.8c.4-.1.8-.4.8-.8z"/><path d="m2.8 16.2c0 .8-.6 1.4-1.4 1.4s-1.4-.7-1.4-1.4c0-.8.6-1.4 1.4-1.4s1.4.6 1.4 1.4zm12 0c0-.4-.3-.8-.8-.8h-8.8c-.4 0-.8.3-.8.8s.3.8.8.8h8.8c.4-.1.8-.4.8-.8z"/></g></svg>
