<svg xmlns="http://www.w3.org/2000/svg" width="20" height="20" viewBox="0 0 20 20" fill="none">
  <path fill-rule="evenodd" clip-rule="evenodd" d="M3.88066 8.24496C3.85951 8.08699 3.83939 7.8987 3.8262 7.68762C3.7839 7.01092 3.81555 6.14288 4.07949 5.29827C4.33922 4.46715 4.81848 3.67053 5.68044 3.0709C6.54893 2.46674 7.89617 2 10 2C12.1038 2 13.4511 2.46674 14.3196 3.07091C15.1815 3.67053 15.6608 4.46715 15.9205 5.29827C16.1845 6.14289 16.2161 7.01093 16.1738 7.68762C16.1606 7.89871 16.1405 8.08699 16.1194 8.24496C15.8573 8.26804 15.6195 8.3078 15.421 8.34914C15.1995 8.39531 15.014 8.44622 14.8814 8.48648C14.8148 8.50668 14.7609 8.52441 14.7216 8.53784C14.7019 8.54456 14.6859 8.55022 14.6737 8.55459L14.6583 8.56017L14.6528 8.56219L14.6507 8.563L14.6497 8.56335C14.6493 8.56351 14.6489 8.56367 15 9.5L14.6497 8.56335C14.2594 8.70972 14 9.08315 14 9.5V14.5C14 14.9168 14.2586 15.29 14.6489 15.4363L15 14.5C14.6489 15.4363 14.6484 15.4362 14.6489 15.4363L14.6528 15.4378L14.6583 15.4398L14.6737 15.4454C14.6859 15.4498 14.7019 15.4554 14.7216 15.4622C14.7609 15.4756 14.8148 15.4933 14.8814 15.5135C15.014 15.5538 15.1995 15.6047 15.421 15.6509C15.8123 15.7324 16.3565 15.8077 16.9381 15.7613C16.9004 15.951 16.8508 16.0737 16.805 16.1524C16.7406 16.2628 16.6517 16.3469 16.4178 16.4156C16.1409 16.4971 15.7403 16.5312 15.1313 16.5312C14.8532 16.5312 14.5538 16.5246 14.2203 16.5173L14.1556 16.5159C13.8879 16.51 13.6019 16.504 13.301 16.5014C13.1262 16.0955 12.8519 15.7741 12.5417 15.5389C12.0502 15.1663 11.4617 15 11 15H9C8.53831 15 7.94976 15.1663 7.45834 15.5389C6.92645 15.9422 6.5 16.599 6.5 17.5C6.5 18.401 6.92645 19.0578 7.45834 19.4611C7.94976 19.8337 8.53831 20 9 20H11C11.4617 20 12.0502 19.8337 12.5417 19.4611C12.8512 19.2264 13.125 18.9059 13.2998 18.5014C13.5793 18.504 13.849 18.5096 14.1116 18.5154C14.1354 18.5159 14.1591 18.5164 14.1827 18.517C14.5095 18.5242 14.8302 18.5312 15.1313 18.5312C15.7597 18.5312 16.4091 18.5029 16.9822 18.3344C17.5983 18.1531 18.1594 17.7997 18.5325 17.1601C18.8797 16.565 19 15.8284 19 15C19 14.9591 18.9975 14.9188 18.9928 14.8792C19.0368 14.8357 19.0801 14.7901 19.1224 14.7425C19.7073 14.0844 20 13.1631 20 12C20 10.8369 19.7073 9.91554 19.1224 9.2575C18.8161 8.91296 18.4625 8.67745 18.1004 8.5195C18.1277 8.31738 18.1533 8.07881 18.1699 7.81238C18.2214 6.98907 18.1905 5.85711 17.8295 4.70173C17.4642 3.53285 16.756 2.32947 15.4617 1.42909C14.1739 0.533261 12.3962 0 10 0C7.60383 0 5.82607 0.533261 4.53831 1.4291C3.24403 2.32947 2.5358 3.53285 2.17053 4.70173C1.80948 5.85712 1.77863 6.98908 1.83009 7.81238C1.84674 8.0788 1.87231 8.31737 1.89957 8.51949C1.53753 8.67744 1.18386 8.91296 0.877592 9.2575C0.292672 9.91554 0 10.8369 0 12C0 13.1631 0.292672 14.0844 0.87759 14.7425C1.46155 15.3994 2.21785 15.66 2.87596 15.7423C3.52657 15.8236 4.14622 15.741 4.57895 15.6509C4.80054 15.6047 4.98599 15.5538 5.1186 15.5135C5.18516 15.4933 5.2391 15.4756 5.27839 15.4622C5.29806 15.4554 5.31411 15.4498 5.3263 15.4454L5.34168 15.4398L5.34715 15.4378L5.34933 15.437L5.35027 15.4366C5.3507 15.4365 5.35112 15.4363 5 14.5L5.35027 15.4366C5.74058 15.2903 6 14.9168 6 14.5V9.5C6 9.08315 5.74143 8.71003 5.35112 8.56367L5 9.5C5.35112 8.56367 5.35156 8.56383 5.35112 8.56367L5.34933 8.563L5.34716 8.56219L5.34168 8.56017L5.3263 8.55459C5.31411 8.55022 5.29806 8.54456 5.27839 8.53784C5.2391 8.52441 5.18516 8.50668 5.11861 8.48648C4.98599 8.44622 4.80054 8.39531 4.57896 8.34914C4.38049 8.3078 4.14271 8.26804 3.88066 8.24496ZM4 10.275C3.7222 10.2288 3.41256 10.2062 3.12403 10.2423C2.78215 10.285 2.53845 10.3994 2.37241 10.5862C2.20733 10.7719 2 11.1631 2 12C2 12.8369 2.20733 13.228 2.37241 13.4138C2.53845 13.6005 2.78215 13.715 3.12404 13.7577C3.41256 13.7938 3.72221 13.7711 4 13.7249V10.275ZM4.65252 13.5623C4.65282 13.5622 4.65222 13.5624 4.65075 13.563L4.65252 13.5623ZM4.65248 10.4377C4.65259 10.4377 4.65262 10.4377 4.65248 10.4377V10.4377ZM16 13.7249C16.2778 13.7711 16.5874 13.7938 16.876 13.7577C17.2178 13.715 17.4615 13.6005 17.6276 13.4138C17.7927 13.228 18 12.8369 18 12C18 11.1631 17.7927 10.7719 17.6276 10.5862C17.4616 10.3994 17.2179 10.285 16.876 10.2423C16.5874 10.2062 16.2778 10.2288 16 10.275V13.7249ZM15.3475 10.4377C15.3474 10.4377 15.3474 10.4377 15.3475 10.4377V10.4377ZM8.54841 17.2665C8.52561 17.3097 8.5 17.3804 8.5 17.5C8.5 17.6196 8.52561 17.6904 8.54841 17.7335C8.57296 17.78 8.61069 17.8249 8.66666 17.8674C8.72467 17.9113 8.79578 17.9474 8.86906 17.9717C8.90469 17.9835 8.93653 17.991 8.96197 17.9954C8.98546 17.9995 8.99842 17.9999 8.99995 18C9.0001 18 9.00013 18 8.99995 18L11 18C10.9998 18 10.9999 18 11 18C11.0015 17.9999 11.0145 17.9995 11.038 17.9954C11.0635 17.991 11.0953 17.9835 11.1309 17.9717C11.2042 17.9474 11.2753 17.9113 11.3333 17.8674C11.3893 17.8249 11.427 17.78 11.4516 17.7335C11.4744 17.6904 11.5 17.6196 11.5 17.5C11.5 17.3804 11.4744 17.3097 11.4516 17.2665C11.427 17.22 11.3893 17.1751 11.3333 17.1327C11.2753 17.0887 11.2042 17.0526 11.1309 17.0284C11.0953 17.0166 11.0635 17.009 11.038 17.0046C11.0145 17.0005 11.0016 17.0001 11 17C11 17 11.0001 17 11 17L9.00007 17C9.00084 17 8.98774 17.0002 8.96197 17.0046C8.93653 17.009 8.90469 17.0165 8.86906 17.0283C8.79578 17.0526 8.72467 17.0887 8.66666 17.1327C8.61069 17.1751 8.57296 17.22 8.54841 17.2665Z" fill="currentColor"/>
</svg>