<svg xmlns="http://www.w3.org/2000/svg" width="24" height="24" viewBox="0 0 24 24">
    <g fill="none" fill-rule="evenodd" stroke="#3683DC" stroke-linecap="round" stroke-linejoin="round" stroke-width="1.5">
        <path d="M.55 5.755L21.046 1.399M12.373.183l-4.39.933c-.81.17-1.328.963-1.157 1.773l.001.005.311 1.464 7.32-1.556-.311-1.464c-.17-.81-.965-1.326-1.774-1.155 0 0 0 0 0 0zM9.53 17.362L9.53 9.878M14.02 17.362L14.02 9.878M17.388 5.388h2.619l-1.382 15.84c-.065.778-.716 1.375-1.497 1.372H6.417c-.778 0-1.427-.597-1.49-1.373L3.89 8.757" transform="translate(1.1 .6)"/>
    </g>
</svg>
