<svg xmlns="http://www.w3.org/2000/svg" width="16" height="16" viewBox="0 0 16 16" fill="none">
  <path fill-rule="evenodd" clip-rule="evenodd" d="M3.80352 2.19642C4.06322 2.45612 4.06322 2.87718 3.80352 3.13687L3.60541 3.33498L9.99997 3.33499C11.875 3.33501 13.0821 4.10058 13.7947 5.11864C14.4805 6.09829 14.665 7.24618 14.665 8C14.665 8.75478 14.4772 9.90086 13.7904 10.8792C13.0771 11.8953 11.8711 12.6615 10.0012 12.665L9.99996 12.665H8.66663C8.29936 12.665 8.00163 12.3673 8.00163 12C8.00163 11.6327 8.29936 11.335 8.66663 11.335L9.99872 11.335C9.99889 11.335 9.99905 11.335 9.99922 11.335C11.4521 11.3321 12.246 10.7643 12.7019 10.115C13.1843 9.42783 13.335 8.57702 13.335 8C13.335 7.42045 13.1861 6.56836 12.7052 5.88135C12.2512 5.23276 11.4583 4.66501 9.99996 4.66499L3.60541 4.66498L3.80352 4.86309C4.06322 5.12279 4.06322 5.54384 3.80352 5.80354C3.54382 6.06324 3.12277 6.06324 2.86307 5.80354L1.52973 4.47021C1.27004 4.21051 1.27004 3.78945 1.52973 3.52976L2.86307 2.19642C3.12277 1.93672 3.54382 1.93672 3.80352 2.19642Z" fill="currentColor"/>
</svg>