<svg xmlns="http://www.w3.org/2000/svg" width="24" height="24" viewBox="0 0 24 24" fill="none">
  <path fill-rule="evenodd" clip-rule="evenodd" d="M5.70711 3.29289C6.09763 3.68342 6.09763 4.31658 5.70711 4.70711L5.41422 5L15 5.00001C17.8133 5.00005 19.6248 6.14877 20.6942 7.67656C21.7232 9.14657 22 10.869 22 12C22 13.1325 21.7183 14.8522 20.6877 16.3202C19.6172 17.8451 17.8075 18.9948 15.0019 19L15 19H13C12.4477 19 12 18.5523 12 18C12 17.4477 12.4477 17 13 17H14.9991C17.1775 16.9957 18.3675 16.1443 19.0508 15.1711C19.774 14.1409 20 12.8652 20 12C20 11.131 19.7768 9.85345 19.0558 8.82349C18.3752 7.8513 17.1867 7.00004 15 7.00001L5.41421 7L5.70711 7.29289C6.09763 7.68342 6.09763 8.31658 5.70711 8.70711C5.31658 9.09763 4.68342 9.09763 4.29289 8.70711L2.29289 6.70711C1.90237 6.31658 1.90237 5.68342 2.29289 5.29289L4.29289 3.29289C4.68342 2.90237 5.31658 2.90237 5.70711 3.29289Z" fill="currentColor"/>
</svg>