<svg width="16" height="16" viewBox="0 0 16 16" fill="none" xmlns="http://www.w3.org/2000/svg">
<title>Not Encrypted</title>
<path fill-rule="evenodd" clip-rule="evenodd" d="M3.3335 7.99967C2.96531 7.99967 2.66683 8.29815 2.66683 8.66634V12.6663C2.66683 13.0345 2.96531 13.333 3.3335 13.333H12.6668C13.035 13.333 13.3335 13.0345 13.3335 12.6663V8.66634C13.3335 8.29815 13.035 7.99967 12.6668 7.99967H3.3335ZM1.3335 8.66634C1.3335 7.56177 2.22893 6.66634 3.3335 6.66634H12.6668C13.7714 6.66634 14.6668 7.56177 14.6668 8.66634V12.6663C14.6668 13.7709 13.7714 14.6663 12.6668 14.6663H3.3335C2.22893 14.6663 1.3335 13.7709 1.3335 12.6663V8.66634Z" fill="currentColor"/>
<path fill-rule="evenodd" clip-rule="evenodd" d="M4.66683 3.06679C5.00016 2.66679 5.39514 2.27352 5.42745 2.24454C6.10626 1.63592 7.21295 1.31957 8.00016 1.33345C8.66683 1.33345 10.6668 1.66679 10.6668 2.66679C10.6668 3.33345 10.0002 3.33345 10.0002 3.33345C9.3335 3.33345 9.3335 2.66679 8.00016 2.66679C7.00016 2.66679 6.25335 3.28906 6.02116 3.54614C5.81045 3.77944 5.64454 4.04598 5.5285 4.33251C5.40043 4.64875 5.33315 4.98924 5.3335 5.33618L5.3335 7.33685C5.3335 7.70504 5.03502 8.00352 4.66683 8.00352C4.29864 8.00352 4.00016 7.70504 4.00016 7.33685C4.00016 7.33685 4.00016 6.00012 4.00016 5.33345C4.00016 4.97179 4.00016 4.66679 4.3335 3.66679" fill="currentColor"/>
</svg>
