<svg width="20" height="20" viewBox="0 0 20 20" fill="none" xmlns="http://www.w3.org/2000/svg">
<path fill-rule="evenodd" clip-rule="evenodd" d="M13.7499 1.66492C13.9714 1.66492 14.1838 1.75289 14.3404 1.90949L17.2571 4.82624C17.5831 5.15233 17.5831 5.68103 17.2571 6.00711C16.931 6.3332 16.4023 6.33319 16.0762 6.0071L14.5849 4.51581V14.1666C14.5849 14.6278 14.2111 15.0016 13.7499 15.0016C13.2888 15.0016 12.9149 14.6278 12.9149 14.1666V4.51585L11.4237 6.00709C11.0977 6.33319 10.569 6.3332 10.2429 6.00712C9.91678 5.68104 9.91676 5.15235 10.2428 4.82625L13.1595 1.9095C13.3161 1.7529 13.5285 1.66492 13.7499 1.66492ZM6.24992 4.99838C6.71107 4.99838 7.08492 5.37222 7.08492 5.83338V15.4842L8.57619 13.9929C8.90228 13.6668 9.43097 13.6668 9.75706 13.9929C10.0831 14.319 10.0831 14.8477 9.75706 15.1738L6.84035 18.0905C6.68376 18.2471 6.47137 18.335 6.24991 18.335C6.02845 18.335 5.81607 18.2471 5.65947 18.0905L2.74285 15.1738C2.41677 14.8477 2.41677 14.319 2.74287 13.9929C3.06896 13.6668 3.59765 13.6668 3.92373 13.9929L5.41492 15.4841V5.83338C5.41492 5.37222 5.78876 4.99838 6.24992 4.99838Z" fill="#3D3D42"/>
</svg>
