<svg xmlns="http://www.w3.org/2000/svg" width="25" height="25" viewBox="0 0 25 25">
  <g fill="none" fill-rule="evenodd" stroke="#4B4C4E" stroke-linecap="round" stroke-linejoin="round" stroke-width="1.5" transform="translate(1 1)">
    <path d="M15.354 13.29L11.678 19.907C11.2906712 20.6039386 11.3011205 21.4538186 11.7054675 22.1410235 12.1098145 22.8282283 12.8476625 23.2501115 13.645 23.25L21 23.25C21.7973375 23.2501115 22.5351855 22.8282283 22.9395325 22.1410235 23.3438795 21.4538186 23.3543288 20.6039386 22.967 19.907L19.287 13.29C18.890499 12.5754963 18.1376466 12.1322739 17.3205 12.1322739 16.5033534 12.1322739 15.750501 12.5754963 15.354 13.29zM17.25 15.75L17.25 18"/>
    <path d="M17.321 19.875C17.1138932 19.875 16.946 20.0428932 16.946 20.25 16.946 20.4571068 17.1138932 20.625 17.321 20.625 17.5281068 20.625 17.696 20.4571068 17.696 20.25 17.696 20.0428932 17.5281068 19.875 17.321 19.875L17.321 19.875M7.82608696 20.3478261L1.56521739 20.3478261C.700771696 20.3478261 0 19.6470544 0 18.7826087L0 1.56521739C0 .700771696.700771696 0 1.56521739 0L12.6563478 0C13.0711797 0 13.4690104.164850524 13.7624348.458086957L16.7593043 3.45495652C17.0525408 3.74838093 17.2173913 4.14621161 17.2173913 4.56104348L17.2173913 7.82608696"/>
  </g>
</svg>
