<svg xmlns="http://www.w3.org/2000/svg" width="24" height="24" viewBox="0 0 24 24" fill="none">
  <path fill-rule="evenodd" clip-rule="evenodd" d="M4.17251 12C4.2424 12.1067 4.32442 12.2282 4.41833 12.3615C4.78881 12.8874 5.33816 13.5876 6.05139 14.285C7.4904 15.692 9.50279 17 12 17C14.4972 17 16.5096 15.692 17.9486 14.285C18.6618 13.5876 19.2112 12.8874 19.5817 12.3615C19.6756 12.2282 19.7576 12.1067 19.8275 12C19.7576 11.8933 19.6756 11.7718 19.5817 11.6385C19.2112 11.1126 18.6618 10.4124 17.9486 9.71501C16.5096 8.30798 14.4972 7 12 7C9.50279 7 7.4904 8.30798 6.05139 9.71501C5.33816 10.4124 4.78881 11.1126 4.41833 11.6385C4.32442 11.7718 4.2424 11.8933 4.17251 12ZM21 12C21.8779 11.5211 21.8777 11.5208 21.8775 11.5204L21.8759 11.5175L21.8727 11.5117L21.8626 11.4936C21.8543 11.4788 21.8427 11.4583 21.8279 11.4327C21.7983 11.3814 21.7558 11.3092 21.7005 11.2192C21.5901 11.0392 21.4283 10.787 21.2166 10.4865C20.7945 9.88738 20.1677 9.08761 19.3468 8.28499C17.7177 6.69203 15.2301 5 12 5C8.76994 5 6.28233 6.69203 4.65316 8.28499C3.8323 9.08761 3.20551 9.88738 2.78337 10.4865C2.57172 10.787 2.40994 11.0392 2.29949 11.2192C2.24423 11.3092 2.2017 11.3814 2.1721 11.4327C2.15729 11.4583 2.14571 11.4788 2.13737 11.4936L2.1273 11.5117L2.12409 11.5175L2.12295 11.5196C2.12275 11.52 2.1221 11.5211 3 12L2.1221 11.5211C1.9593 11.8196 1.9593 12.1804 2.1221 12.4789L3 12C2.1221 12.4789 2.12191 12.4785 2.1221 12.4789L2.12295 12.4804L2.12409 12.4825L2.1273 12.4883L2.13737 12.5064C2.14571 12.5212 2.15729 12.5417 2.1721 12.5673C2.2017 12.6186 2.24423 12.6908 2.29949 12.7808C2.40994 12.9608 2.57172 13.213 2.78337 13.5135C3.20551 14.1126 3.8323 14.9124 4.65316 15.715C6.28233 17.308 8.76994 19 12 19C15.2301 19 17.7177 17.308 19.3468 15.715C20.1677 14.9124 20.7945 14.1126 21.2166 13.5135C21.4283 13.213 21.5901 12.9608 21.7005 12.7808C21.7558 12.6908 21.7983 12.6186 21.8279 12.5673C21.8427 12.5417 21.8543 12.5212 21.8626 12.5064L21.8727 12.4883L21.8759 12.4825L21.8771 12.4804C21.8773 12.48 21.8779 12.4789 21 12ZM21 12L21.8779 12.4789C22.0407 12.1804 22.0403 11.8189 21.8775 11.5204L21 12ZM12 11C11.4477 11 11 11.4477 11 12C11 12.5523 11.4477 13 12 13C12.5523 13 13 12.5523 13 12C13 11.4477 12.5523 11 12 11ZM9 12C9 10.3431 10.3431 9 12 9C13.6569 9 15 10.3431 15 12C15 13.6569 13.6569 15 12 15C10.3431 15 9 13.6569 9 12Z" fill="currentColor"/>
</svg>