<svg width="16" height="16" viewBox="0 0 16 16" fill="none" xmlns="http://www.w3.org/2000/svg">
<path d="M11 11C10.0676 11.7058 9.17224 11.981 8 12C4.18182 12 2 8 2 8C2.67849 6.74436 3.5262 5.86484 4.66667 5.00001M6.84259 4.13001C7.21805 4.04274 7.60245 3.99911 7.98805 4.00001C11.8062 4.00001 14 8 14 8C13.6689 8.61512 13.3809 8.94659 12.9287 9.48028M8.74171 9.33985C8.54098 9.42867 8.3243 9.47643 8.10458 9.48028C7.88487 9.48413 7.66662 9.44399 7.46287 9.36226C7.25911 9.28053 7.07402 9.15889 6.91863 9.00458C6.76325 8.85027 6.64075 8.66647 6.55845 8.46412C6.47615 8.26178 6.43573 8.04505 6.43961 7.82687C6.44348 7.60868 6.49158 7.3935 6.58101 7.19417" stroke="#3D3D42" stroke-width="1.33" stroke-linecap="round" stroke-linejoin="round"/>
<path d="M2 2L14 14" stroke="#3D3D42" stroke-width="1.33" stroke-linecap="round" stroke-linejoin="round"/>
</svg>
