<?xml version="1.0" encoding="UTF-8"?>
<svg width="18px" height="18px" viewBox="0 0 18 18" version="1.1" xmlns="http://www.w3.org/2000/svg" xmlns:xlink="http://www.w3.org/1999/xlink">
    <title>Rectangle 2</title>
    <g id="Final-Options" stroke="none" stroke-width="1" fill="none" fill-rule="evenodd">
        <g id="Linodes-landing-22" transform="translate(-882.000000, -670.000000)" stroke="currentColor">
            <g id="Group-12" transform="translate(169.500000, 670.000000)">
                <path d="M726.5,0.5 C727.466498,0.5 728.341498,0.891750844 728.974874,1.52512627 C729.608249,2.15850169 730,3.03350169 730,4 L730,14 C730,14.9664983 729.608249,15.8414983 728.974874,16.4748737 C728.341498,17.1082492 727.466498,17.5 726.5,17.5 L716.5,17.5 C715.533502,17.5 714.658502,17.1082492 714.025126,16.4748737 C713.391751,15.8414983 713,14.9664983 713,14 L713,4 C713,3.03350169 713.391751,2.15850169 714.025126,1.52512627 C714.658502,0.891750844 715.533502,0.5 716.5,0.5 L726.5,0.5 Z M718,4.69097409 L718,13.3090081 L726.618034,9.00009722 L718,4.69097409 Z" id="Rectangle-2"></path>
            </g>
        </g>
    </g>
</svg>
