<svg xmlns="http://www.w3.org/2000/svg" width="24" height="24" viewBox="0 0 24 24" fill="none">
  <path fill-rule="evenodd" clip-rule="evenodd" d="M2 4C2 3.44772 2.44772 3 3 3H21C21.5523 3 22 3.44772 22 4V20C22 20.5523 21.5523 21 21 21H3C2.44772 21 2 20.5523 2 20V4ZM4 5V6H20V5H4ZM20 8H4V19H20V8Z" fill="currentColor"/>
  <path d="M10.5 15.5V11.5L14.5 13.5L10.5 15.5Z" fill="currentColor"/>
  <path fill-rule="evenodd" clip-rule="evenodd" d="M9.97427 10.6493C10.2691 10.4671 10.6372 10.4506 10.9472 10.6056L14.9472 12.6056C15.286 12.775 15.5 13.1212 15.5 13.5C15.5 13.8788 15.286 14.225 14.9472 14.3944L10.9472 16.3944C10.6372 16.5494 10.2691 16.5329 9.97427 16.3507C9.67945 16.1684 9.5 15.8466 9.5 15.5V11.5C9.5 11.1534 9.67945 10.8316 9.97427 10.6493ZM11.5 13.118V13.882L12.2639 13.5L11.5 13.118Z" fill="currentColor"/>
</svg>