<svg xmlns="http://www.w3.org/2000/svg" width="20" height="20" viewBox="0 0 20 20" fill="none">
  <path fill-rule="evenodd" clip-rule="evenodd" d="M1.66504 3.33335C1.66504 2.87219 2.03888 2.49835 2.50004 2.49835H17.5C17.9612 2.49835 18.335 2.87219 18.335 3.33335V16.6667C18.335 17.1278 17.9612 17.5017 17.5 17.5017H2.50004C2.03888 17.5017 1.66504 17.1278 1.66504 16.6667V3.33335ZM3.33504 4.16835V4.99835H16.665V4.16835H3.33504ZM16.665 6.66835H3.33504V15.8317H16.665V6.66835Z" fill="currentColor"/>
  <path d="M8.75004 12.9167V9.58335L12.0834 11.25L8.75004 12.9167Z" fill="currentColor"/>
  <path fill-rule="evenodd" clip-rule="evenodd" d="M8.31105 8.87306C8.55723 8.72092 8.86462 8.70709 9.12346 8.83651L12.4568 10.5032C12.7397 10.6446 12.9184 10.9337 12.9184 11.25C12.9184 11.5663 12.7397 11.8554 12.4568 11.9969L9.12346 13.6635C8.86462 13.793 8.55723 13.7791 8.31105 13.627C8.06488 13.4748 7.91504 13.2061 7.91504 12.9167V9.58335C7.91504 9.29396 8.06488 9.0252 8.31105 8.87306ZM9.58504 10.9344V11.5656L10.2163 11.25L9.58504 10.9344Z" fill="currentColor"/>
</svg>