<svg width="80" height="80" viewBox="0 0 80 80" fill="none" xmlns="http://www.w3.org/2000/svg">
<path fill-rule="evenodd" clip-rule="evenodd" d="M51.019 11.0748C51.2517 10.2797 52.0848 9.82377 52.8799 10.0564C56.4142 11.0906 59.2101 12.8083 61.2286 15.2139C63.187 17.5478 64.4518 19.859 65.0004 22.1554C65.1929 22.9611 64.6957 23.7703 63.8899 23.9628C63.0842 24.1553 62.2749 23.6581 62.0825 22.8524C61.6514 21.0478 60.6083 19.1418 58.9305 17.1423C57.3129 15.2144 55.0282 13.8108 52.0374 12.9357C51.2423 12.703 50.7864 11.8699 51.019 11.0748ZM24.7458 25.4671L24.628 25.625L24.5576 25.627C18.1963 25.7769 13.0326 28.5603 9.19368 33.9052C3.39917 41.973 3.60194 53.9368 9.3397 59.8026C12.929 63.472 16.6204 65.3589 20.3995 65.3589H65.3433C65.7043 65.3589 66.0531 65.2288 66.3259 64.9924C73.3827 58.8751 76.0998 52.0309 74.291 44.6344L74.2006 44.279C72.3966 37.4616 67.3922 33.774 59.5218 33.3266L59.317 33.316L59.3045 33.0537C58.8061 24.3338 54.4501 18.7345 46.3886 16.5724C38.1001 14.3493 30.8113 17.3875 24.7458 25.4671ZM45.6114 19.4699C52.8334 21.4069 56.3527 26.3831 56.3527 34.7803C56.3527 35.6087 57.0243 36.2803 57.8527 36.2803C65.5221 36.2803 69.8872 39.2554 71.3769 45.347L71.4575 45.6919C72.7605 51.5471 70.6737 56.9745 65.04 62.1213L64.776 62.358L20.3995 62.3589C17.5202 62.3589 14.5534 60.8424 11.4843 57.7048C6.82106 52.9375 6.64577 42.5954 11.6303 35.6553C15.0715 30.8641 19.6043 28.5471 25.3737 28.6223C25.8655 28.6287 26.3292 28.3937 26.6147 27.9932C32.1091 20.2855 38.3595 17.5249 45.6114 19.4699ZM31.5 43C32.8807 43 34 41.8807 34 40.5C34 39.1193 32.8807 38 31.5 38C30.1193 38 29 39.1193 29 40.5C29 41.8807 30.1193 43 31.5 43ZM51 40.5C51 41.8807 49.8807 43 48.5 43C47.1193 43 46 41.8807 46 40.5C46 39.1193 47.1193 38 48.5 38C49.8807 38 51 39.1193 51 40.5ZM66 30C67.1046 30 68 29.1046 68 28C68 26.8954 67.1046 26 66 26C64.8954 26 64 26.8954 64 28C64 29.1046 64.8954 30 66 30ZM40.6835 46.5C37.8207 46.5 35.5 48.8207 35.5 51.6835C35.5 54.5463 37.8207 56.867 40.6835 56.867C43.5463 56.867 45.867 54.5463 45.867 51.6835C45.867 48.8207 43.5463 46.5 40.6835 46.5ZM40.6835 49.5C41.8894 49.5 42.867 50.4776 42.867 51.6835C42.867 52.8894 41.8894 53.867 40.6835 53.867C39.4776 53.867 38.5 52.8894 38.5 51.6835C38.5 50.4776 39.4776 49.5 40.6835 49.5Z" fill="url(#paint0_linear_2638_64001)"/>
<defs>
<linearGradient id="paint0_linear_2638_64001" x1="74.8347" y1="37.6773" x2="4.9411" y2="37.6773" gradientUnits="userSpaceOnUse">
<stop stop-color="#00B050"/>
<stop offset="0.5" stop-color="#12A594"/>
<stop offset="1" stop-color="#009CDE"/>
</linearGradient>
</defs>
</svg>
