<svg width="80" height="80" viewBox="0 0 80 80" fill="none" xmlns="http://www.w3.org/2000/svg">
  <path fill-rule="evenodd" clip-rule="evenodd" d="M52.8799 10.0564C52.0848 9.82377 51.2517 10.2797 51.019 11.0748C50.7864 11.8699 51.2423 12.703 52.0374 12.9357C55.0282 13.8108 57.3129 15.2144 58.9305 17.1423C60.6083 19.1418 61.6514 21.0478 62.0825 22.8524C62.2749 23.6581 63.0842 24.1553 63.8899 23.9628C64.6957 23.7703 65.1929 22.9611 65.0004 22.1554C64.4518 19.859 63.187 17.5478 61.2286 15.2139C59.2101 12.8083 56.4142 11.0906 52.8799 10.0564ZM24.7457 25.4671L24.628 25.625L24.5575 25.627C18.1962 25.7769 13.0325 28.5603 9.19362 33.9052C3.39911 41.973 3.60188 53.9368 9.33964 59.8026C12.9289 63.472 16.6204 65.3589 20.3995 65.3589H65.3433C65.7042 65.3589 66.0531 65.2288 66.3258 64.9924C73.3826 58.8751 76.0997 52.0309 74.291 44.6344L74.2005 44.279C72.3966 37.4616 67.3921 33.774 59.5218 33.3266L59.317 33.316L59.3044 33.0537C58.806 24.3338 54.4501 18.7345 46.3885 16.5724C38.1 14.3493 30.8112 17.3875 24.7457 25.4671ZM45.6114 19.4699C52.8333 21.4069 56.3526 26.3831 56.3526 34.7803C56.3526 35.6087 57.0242 36.2803 57.8526 36.2803C65.522 36.2803 69.8872 39.2554 71.3768 45.347L71.4574 45.6919C72.7605 51.5471 70.6736 56.9745 65.0399 62.1213L64.776 62.358L20.3995 62.3589C17.5202 62.3589 14.5533 60.8424 11.4842 57.7048C6.821 52.9375 6.64571 42.5954 11.6303 35.6553C15.0714 30.8641 19.6043 28.5471 25.3737 28.6223C25.8655 28.6287 26.3291 28.3937 26.6146 27.9932C32.1091 20.2855 38.3595 17.5249 45.6114 19.4699ZM31.5 43C32.8807 43 34 41.8807 34 40.5C34 39.1193 32.8807 38 31.5 38C30.1193 38 29 39.1193 29 40.5C29 41.8807 30.1193 43 31.5 43ZM51 40.5C51 41.8807 49.8807 43 48.5 43C47.1193 43 46 41.8807 46 40.5C46 39.1193 47.1193 38 48.5 38C49.8807 38 51 39.1193 51 40.5ZM66 30C67.1046 30 68 29.1046 68 28C68 26.8954 67.1046 26 66 26C64.8954 26 64 26.8954 64 28C64 29.1046 64.8954 30 66 30ZM39.9999 53.3965C36.9241 53.3965 34.265 52.5458 32.0776 50.84C31.4243 50.3306 31.3076 49.3881 31.8171 48.7348C32.3265 48.0815 33.2691 47.9649 33.9223 48.4743C35.5637 49.7543 37.5713 50.3965 39.9999 50.3965C42.4286 50.3965 44.4361 49.7543 46.0776 48.4743C46.7308 47.9649 47.6734 48.0815 48.1828 48.7348C48.6922 49.3881 48.5756 50.3306 47.9223 50.84C45.7348 52.5458 43.0758 53.3965 39.9999 53.3965Z" fill="url(#paint0_linear_2252_59008)"/>
  <defs>
  <linearGradient id="paint0_linear_2252_59008" x1="74.8346" y1="37.6773" x2="4.94104" y2="37.6773" gradientUnits="userSpaceOnUse">
    <stop stop-color="#00B050"/>
    <stop offset="0.5" stop-color="#12A594"/>
    <stop offset="1" stop-color="#009CDE"/>
  </linearGradient>
  </defs>
</svg>
