<svg width="18" height="18" viewBox="0 0 18 18" fill="none" xmlns="http://www.w3.org/2000/svg">
<path fill-rule="evenodd" clip-rule="evenodd" d="M16.502 6.50063C16.502 6.96179 16.1281 7.33563 15.667 7.33563H11.5003C11.0391 7.33563 10.6653 6.96179 10.6653 6.50063V2.33397C10.6653 1.87281 11.0391 1.49897 11.5003 1.49897C11.9614 1.49897 12.3353 1.87281 12.3353 2.33397V5.66563H15.667C16.1281 5.66563 16.502 6.03947 16.502 6.50063Z" fill="#3D3D42"/>
<path fill-rule="evenodd" clip-rule="evenodd" d="M1.49805 6.50063C1.49805 6.96179 1.87189 7.33563 2.33305 7.33563H6.49971C6.96087 7.33563 7.33471 6.96179 7.33471 6.50063V2.33397C7.33471 1.87281 6.96087 1.49897 6.49971 1.49897C6.03856 1.49897 5.66471 1.87281 5.66471 2.33397V5.66563H2.33305C1.87189 5.66563 1.49805 6.03947 1.49805 6.50063Z" fill="#3D3D42"/>
<path fill-rule="evenodd" clip-rule="evenodd" d="M6.49996 16.5024C6.0388 16.5024 5.66496 16.1285 5.66496 15.6674V12.3357H2.33329C1.87214 12.3357 1.49829 11.9619 1.49829 11.5007C1.49829 11.0396 1.87214 10.6657 2.33329 10.6657H6.49996C6.96112 10.6657 7.33496 11.0396 7.33496 11.5007V15.6674C7.33496 16.1285 6.96112 16.5024 6.49996 16.5024Z" fill="#3D3D42"/>
<path fill-rule="evenodd" clip-rule="evenodd" d="M11.5 16.5024C11.9612 16.5024 12.335 16.1285 12.335 15.6674V12.3357H15.6667C16.1279 12.3357 16.5017 11.9619 16.5017 11.5007C16.5017 11.0396 16.1279 10.6657 15.6667 10.6657H11.5C11.0389 10.6657 10.665 11.0396 10.665 11.5007V15.6674C10.665 16.1285 11.0389 16.5024 11.5 16.5024Z" fill="#3D3D42"/>
<path fill-rule="evenodd" clip-rule="evenodd" d="M10.9095 7.09107C10.5834 6.76498 10.5834 6.23629 10.9095 5.9102L15.9095 0.910198C16.2356 0.58411 16.7643 0.58411 17.0904 0.910198C17.4165 1.23629 17.4165 1.76498 17.0904 2.09107L12.0904 7.09107C11.7643 7.41715 11.2356 7.41715 10.9095 7.09107Z" fill="#3D3D42"/>
<path fill-rule="evenodd" clip-rule="evenodd" d="M7.09047 7.09107C7.41656 6.76498 7.41656 6.23629 7.09047 5.9102L2.09047 0.910198C1.76439 0.58411 1.23569 0.58411 0.909605 0.910198C0.583517 1.23629 0.583517 1.76498 0.909605 2.09107L5.90961 7.09107C6.23569 7.41715 6.76439 7.41715 7.09047 7.09107Z" fill="#3D3D42"/>
<path fill-rule="evenodd" clip-rule="evenodd" d="M0.909527 17.0911C0.583439 16.765 0.583439 16.2363 0.909527 15.9102L5.90953 10.9102C6.23561 10.5841 6.76431 10.5841 7.0904 10.9102C7.41648 11.2363 7.41648 11.765 7.0904 12.0911L2.09039 17.0911C1.76431 17.4172 1.23561 17.4172 0.909527 17.0911Z" fill="#3D3D42"/>
<path fill-rule="evenodd" clip-rule="evenodd" d="M17.0905 17.0911C17.4166 16.765 17.4166 16.2363 17.0905 15.9102L12.0905 10.9102C11.7644 10.5841 11.2357 10.5841 10.9096 10.9102C10.5835 11.2363 10.5835 11.765 10.9096 12.0911L15.9096 17.0911C16.2357 17.4172 16.7644 17.4172 17.0905 17.0911Z" fill="#3D3D42"/>
</svg>
