<svg xmlns="http://www.w3.org/2000/svg" width="24" height="24" viewBox="0 0 24 24" fill="none">
  <path fill-rule="evenodd" clip-rule="evenodd" d="M14.5 4C14.5 3.44772 14.9477 3 15.5 3H20C20.5523 3 21 3.44772 21 4V8.5C21 9.05228 20.5523 9.5 20 9.5C19.4477 9.5 19 9.05228 19 8.5V5H15.5C14.9477 5 14.5 4.55228 14.5 4Z" fill="currentColor"/>
  <path fill-rule="evenodd" clip-rule="evenodd" d="M9.5 4C9.5 3.44772 9.05228 3 8.5 3H4C3.44772 3 3 3.44772 3 4V8.5C3 9.05228 3.44772 9.5 4 9.5C4.55228 9.5 5 9.05228 5 8.5V5H8.5C9.05228 5 9.5 4.55228 9.5 4Z" fill="currentColor"/>
  <path fill-rule="evenodd" clip-rule="evenodd" d="M4 14.5C4.55228 14.5 5 14.9477 5 15.5V19H8.5C9.05228 19 9.5 19.4477 9.5 20C9.5 20.5523 9.05228 21 8.5 21H4C3.44772 21 3 20.5523 3 20V15.5C3 14.9477 3.44772 14.5 4 14.5Z" fill="currentColor"/>
  <path fill-rule="evenodd" clip-rule="evenodd" d="M20 14.5C19.4477 14.5 19 14.9477 19 15.5V19H15.5C14.9477 19 14.5 19.4477 14.5 20C14.5 20.5523 14.9477 21 15.5 21H20C20.5523 21 21 20.5523 21 20V15.5C21 14.9477 20.5523 14.5 20 14.5Z" fill="currentColor"/>
  <path fill-rule="evenodd" clip-rule="evenodd" d="M20.7071 3.29289C21.0976 3.68342 21.0976 4.31658 20.7071 4.70711L14.2071 11.2071C13.8166 11.5976 13.1834 11.5976 12.7929 11.2071C12.4024 10.8166 12.4024 10.1834 12.7929 9.79289L19.2929 3.29289C19.6834 2.90237 20.3166 2.90237 20.7071 3.29289Z" fill="currentColor"/>
  <path fill-rule="evenodd" clip-rule="evenodd" d="M3.29289 3.29289C2.90237 3.68342 2.90237 4.31658 3.29289 4.70711L9.79289 11.2071C10.1834 11.5976 10.8166 11.5976 11.2071 11.2071C11.5976 10.8166 11.5976 10.1834 11.2071 9.79289L4.70711 3.29289C4.31658 2.90237 3.68342 2.90237 3.29289 3.29289Z" fill="currentColor"/>
  <path fill-rule="evenodd" clip-rule="evenodd" d="M11.2071 12.7929C11.5976 13.1834 11.5976 13.8166 11.2071 14.2071L4.70711 20.7071C4.31658 21.0976 3.68342 21.0976 3.29289 20.7071C2.90237 20.3166 2.90237 19.6834 3.29289 19.2929L9.79289 12.7929C10.1834 12.4024 10.8166 12.4024 11.2071 12.7929Z" fill="currentColor"/>
  <path fill-rule="evenodd" clip-rule="evenodd" d="M12.7929 12.7929C12.4024 13.1834 12.4024 13.8166 12.7929 14.2071L19.2929 20.7071C19.6834 21.0976 20.3166 21.0976 20.7071 20.7071C21.0976 20.3166 21.0976 19.6834 20.7071 19.2929L14.2071 12.7929C13.8166 12.4024 13.1834 12.4024 12.7929 12.7929Z" fill="currentColor"/>
</svg>