<svg width="68" height="66" viewBox="0 0 68 66" fill="currentColor" xmlns="http://www.w3.org/2000/svg">
<path fill-rule="evenodd" clip-rule="evenodd" d="M54 0.5C54.8284 0.5 55.5 1.17157 55.5 2C55.5 2.7797 54.9051 3.42045 54.1445 3.49313L54 3.5H35C34.1716 3.5 33.5 2.82843 33.5 2C33.5 1.2203 34.0949 0.579551 34.8555 0.506867L35 0.5H54ZM61.2647 7.5C63.5032 7.5 65.3829 9.14459 65.4947 11.2811L65.5 11.4828V30.4759C65.5 31.3044 64.8284 31.9759 64 31.9759C63.2203 31.9759 62.5796 31.3811 62.5069 30.6204L62.5 30.4759V11.4828C62.5 11.0081 62.0449 10.5634 61.4046 10.5062L61.2647 10.5H5C4.2203 10.5 3.57955 11.0949 3.50687 11.8555L3.5 12V22.814C3.5 23.6424 2.82843 24.314 2 24.314C1.2203 24.314 0.579551 23.7191 0.506867 22.9584L0.5 22.814V12C0.5 9.58573 2.40124 7.61551 4.78816 7.5049L5 7.5H61.2647ZM58.5 21.5C58.5 20.6716 57.8284 20 57 20H7L6.85554 20.0069C6.09489 20.0796 5.5 20.7203 5.5 21.5C5.5 22.3284 6.17157 23 7 23H57L57.1445 22.9931C57.9051 22.9204 58.5 22.2797 58.5 21.5ZM54.5 36C61.9558 36 68 42.0442 68 49.5C68 56.9558 61.9558 63 54.5 63C47.0442 63 41 56.9558 41 49.5C41 42.0442 47.0442 36 54.5 36ZM54.5 39C48.701 39 44 43.701 44 49.5C44 55.299 48.701 60 54.5 60C60.299 60 65 55.299 65 49.5C65 43.701 60.299 39 54.5 39ZM3.49313 35.8555C3.42045 35.0949 2.7797 34.5 2 34.5C1.17157 34.5 0.5 35.1716 0.5 36V54.5172L0.505265 54.7189C0.617131 56.8554 2.49683 58.5 4.73529 58.5H34.293L34.4374 58.4931C35.1981 58.4204 35.793 57.7797 35.793 57C35.793 56.1716 35.1214 55.5 34.293 55.5H4.73529L4.59535 55.4938C3.95505 55.4366 3.5 54.9919 3.5 54.5172V36L3.49313 35.8555ZM4 29C4 30.1046 3.10457 31 2 31C0.895431 31 0 30.1046 0 29C0 27.8954 0.895431 27 2 27C3.10457 27 4 27.8954 4 29ZM23.5 64.5C23.5 63.6716 22.8284 63 22 63H8L7.85554 63.0069C7.09489 63.0796 6.5 63.7203 6.5 64.5C6.5 65.3284 7.17157 66 8 66H22L22.1445 65.9931C22.9051 65.9204 23.5 65.2797 23.5 64.5ZM55.9931 43.8555C55.9204 43.0949 55.2797 42.5 54.5 42.5C53.6716 42.5 53 43.1716 53 44V48H49L48.8555 48.0069C48.0949 48.0796 47.5 48.7203 47.5 49.5C47.5 50.3284 48.1716 51 49 51H53V55L53.0069 55.1445C53.0796 55.9051 53.7203 56.5 54.5 56.5C55.3284 56.5 56 55.8284 56 55V51H60L60.1445 50.9931C60.9051 50.9204 61.5 50.2797 61.5 49.5C61.5 48.6716 60.8284 48 60 48H56V44L55.9931 43.8555Z" fill="url(#paint0_linear_3563_87)"/>
<defs>
<linearGradient id="paint0_linear_3563_87" x1="68" y1="0.5" x2="0" y2="0.5" gradientUnits="userSpaceOnUse">
<stop stop-color="#00B050"/>
<stop offset="0.510417" stop-color="#18B5AC"/>
<stop offset="1" stop-color="#017AC6"/>
</linearGradient>
</defs>
</svg>