<svg width="44" height="45" viewBox="0 0 44 45" fill="none" xmlns="http://www.w3.org/2000/svg">
<rect width="44" height="45" fill="#1E1E1E"/>
<path d="M-5034 -865C-5034 -866.105 -5033.1 -867 -5032 -867H76348C76349.1 -867 76350 -866.105 76350 -865V4594C76350 4595.1 76349.1 4596 76348 4596H-5032C-5033.11 4596 -5034 4595.1 -5034 4594V-865Z" fill="black"/>
<path d="M-5032 -866H76348V-868H-5032V-866ZM76349 -865V4594H76351V-865H76349ZM76348 4595H-5032V4597H76348V4595ZM-5033 4594V-865H-5035V4594H-5033ZM-5032 4595C-5032.55 4595 -5033 4594.55 -5033 4594H-5035C-5035 4595.66 -5033.66 4597 -5032 4597V4595ZM76349 4594C76349 4594.55 76348.6 4595 76348 4595V4597C76349.7 4597 76351 4595.66 76351 4594H76349ZM76348 -866C76348.6 -866 76349 -865.553 76349 -865H76351C76351 -866.656 76349.7 -868 76348 -868V-866ZM-5032 -868C-5033.66 -868 -5035 -866.657 -5035 -865H-5033C-5033 -865.552 -5032.55 -866 -5032 -866V-868Z" fill="white" fill-opacity="0.1"/>
<g clip-path="url(#clip0_182_31355)">
<rect width="1280" height="900" transform="translate(-644 -433)" fill="#F4F5F6"/>
<rect width="1196" height="672" transform="translate(-576 -263)" fill="white"/>
<g clip-path="url(#clip1_182_31355)">
<path d="M18.332 9.66667C18.332 8.69421 18.7183 7.76158 19.406 7.07394C20.0936 6.38631 21.0262 6 21.9987 6C22.9712 6 23.9038 6.38631 24.5914 7.07394C25.2791 7.76158 25.6654 8.69421 25.6654 9.66667C27.7708 10.6622 29.5656 12.2119 30.8575 14.1497C32.1493 16.0875 32.8895 18.3403 32.9987 20.6667V26.1667C33.1367 27.3065 33.5403 28.3979 34.1772 29.3532C34.814 30.3085 35.6663 31.1009 36.6654 31.6667H7.33203C8.33109 31.1009 9.18335 30.3085 9.82021 29.3532C10.4571 28.3979 10.8607 27.3065 10.9987 26.1667V20.6667C11.1079 18.3403 11.8481 16.0875 13.1399 14.1497C14.4318 12.2119 16.2266 10.6622 18.332 9.66667Z" stroke="#4B4B51" stroke-width="3" stroke-linecap="round" stroke-linejoin="round"/>
<path d="M16.5 31.6666V33.5C16.5 34.9587 17.0795 36.3576 18.1109 37.389C19.1424 38.4205 20.5413 39 22 39C23.4587 39 24.8576 38.4205 25.8891 37.389C26.9205 36.3576 27.5 34.9587 27.5 33.5V31.6666" stroke="#4B4B51" stroke-width="3" stroke-linecap="round" stroke-linejoin="round"/>
<path d="M38.5012 12.8328C37.2987 10.2171 35.5525 7.88777 33.3789 6" stroke="#4B4B51" stroke-width="3" stroke-linecap="round" stroke-linejoin="round"/>
<path d="M5.5 12.8328C6.70147 10.2175 8.44644 7.88814 10.6187 6" stroke="#4B4B51" stroke-width="3" stroke-linecap="round" stroke-linejoin="round"/>
</g>
</g>
<defs>
<clipPath id="clip0_182_31355">
<rect width="1280" height="900" fill="white" transform="translate(-644 -433)"/>
</clipPath>
<clipPath id="clip1_182_31355">
<rect width="44" height="44" fill="white" transform="translate(0 0.5)"/>
</clipPath>
</defs>
</svg>
