<svg width="64" height="64" viewBox="0 0 64 64" fill="none" xmlns="http://www.w3.org/2000/svg">
<path fill-rule="evenodd" clip-rule="evenodd" d="M48.8 6C49.4627 6 50 6.53726 50 7.2C50 7.82376 49.5241 8.33636 48.9156 8.39451L48.8 8.4H33.6C32.9373 8.4 32.4 7.86274 32.4 7.2C32.4 6.57624 32.8759 6.06364 33.4844 6.00549L33.6 6H48.8ZM53.0118 11.6C54.8025 11.6 56.3063 12.9157 56.3958 14.6248L56.4 14.7862V15.568L56.3945 15.6162C56.34 16.1867 55.8861 16.6407 55.3156 16.6952L55.2 16.7007C54.5762 16.7007 54.0636 16.2248 54.0055 15.6162L54.0032 15.568L54 14.7862C54 14.4064 53.636 14.0507 53.1237 14.005L53.0118 14H8C7.37624 14 6.86364 14.4759 6.80549 15.0844L6.8 15.2V23.8512C6.8 24.5139 6.26274 25.0512 5.6 25.0512C4.97624 25.0512 4.46364 24.5753 4.40549 23.9667L4.4 23.8512V15.2C4.4 13.2686 5.92099 11.6924 7.83053 11.6039L8 11.6H53.0118ZM55.8797 19.3986L55.9547 19.4656L60.0257 23.5839C60.3101 23.8716 60.332 24.321 60.0914 24.6336L60.0257 24.7087L42.1779 42.7636L36.775 43.5444C36.6746 43.5589 36.5724 43.5542 36.4739 43.5306C36.0749 43.4348 35.8182 43.0556 35.8661 42.658L35.8826 42.566L37.1332 37.3544L54.8233 19.4591C55.1134 19.1724 55.5673 19.1528 55.8797 19.3986ZM50.8155 26.9272L39.3104 38.5656L38.7664 40.8312L41.0368 40.5032L52.6467 28.7584L50.8155 26.9272ZM52.5027 25.22L55.3856 22.304L57.2064 24.1456L54.3339 27.0512L52.5027 25.22ZM6.79451 34.2844C6.73636 33.6759 6.22376 33.2 5.6 33.2C4.93726 33.2 4.4 33.7373 4.4 34.4V49.2138L4.40421 49.3751C4.4937 51.0843 5.99747 52.4 7.78823 52.4H53.0118L53.1788 52.3962C54.9505 52.3148 56.4 50.9467 56.4 49.2138V36.876L56.3945 36.7605C56.3364 36.1519 55.8238 35.676 55.2 35.676C54.5373 35.676 54 36.2133 54 36.876V49.2138L53.9945 49.2947C53.9436 49.6696 53.5441 50 53.0118 50H7.78823L7.67628 49.995C7.16404 49.9493 6.8 49.5935 6.8 49.2138V34.4L6.79451 34.2844ZM46 20.8C46.6627 20.8 47.2 21.3373 47.2 22C47.2 22.6238 46.7241 23.1364 46.1156 23.1945L46 23.2H12.8C12.1373 23.2 11.6 22.6627 11.6 22C11.6 21.3762 12.0759 20.8636 12.6844 20.8055L12.8 20.8H46ZM24.4 57.2C24.4 56.5373 23.8627 56 23.2 56H12L11.8844 56.0055C11.2759 56.0636 10.8 56.5762 10.8 57.2C10.8 57.8627 11.3373 58.4 12 58.4H23.2L23.3156 58.3945C23.9241 58.3364 24.4 57.8238 24.4 57.2ZM5.6 30.4C6.48366 30.4 7.2 29.6837 7.2 28.8C7.2 27.9163 6.48366 27.2 5.6 27.2C4.71634 27.2 4 27.9163 4 28.8C4 29.6837 4.71634 30.4 5.6 30.4Z" fill="url(#paint0_linear_3129_31041)"/>
<defs>
<linearGradient id="paint0_linear_3129_31041" x1="60.2568" y1="6" x2="4" y2="6" gradientUnits="userSpaceOnUse">
<stop stop-color="#00B050"/>
<stop offset="0.510417" stop-color="#18B5AC"/>
<stop offset="1" stop-color="#017AC6"/>
</linearGradient>
</defs>
</svg>