<svg viewBox="0 0 108.0734 108.0735" xmlns="http://www.w3.org/2000/svg"><path fill="currentColor" d="m81.0551 7.2396c-16.719-9.6528-37.3177-9.6528-54.0367 0-16.7191 9.6527-27.0184 27.4917-27.0184 46.7971 0 19.3055 10.2993 37.1445 27.0183 46.7972 16.719 9.6528 37.3177 9.6528 54.0367 0 16.719-9.6528 27.0183-27.4917 27.0183-46.7972 0-19.3055-10.2993-37.1445-27.0183-46.7972zm-3.1797 25.5284c-.1304 1.4814-.4482 2.8398-.9551 4.0737-.5068 1.2349-1.1763 2.3721-2.0078 3.4111-.832 1.0396-1.7871 1.9819-2.8652 2.8262-1.0786.8447-2.2417 1.605-3.4888 2.2808 1.3252.6235 2.4619 1.4033 3.4106 2.3389s1.7217 1.9883 2.3198 3.1577c.5713 1.1694.9678 2.4238 1.189 3.7617.2207 1.3389.2788 2.7231.1753 4.1519-.208 2.6509-.8184 5.0552-1.832 7.2119-1.0137 2.1577-2.3525 3.9897-4.0156 5.4971-1.6631 1.5337-3.6191 2.7031-5.8667 3.5083-2.2485.8052-4.6978 1.1821-7.3486 1.1304-1.1694-.0259-2.3193-.1431-3.4502-.3506-1.1304-.2085-2.2158-.5068-3.2549-.8965-.6499-.2339-1.2935-.5195-1.9297-.8579-.6372-.3374-1.2671-.7017-1.8906-1.0913l-3.4307 18.0103h-10.5259l9.5903-56.1367c.3633-2.5728 1.1558-4.918 2.3779-7.0361 1.2212-2.1182 2.7544-3.9438 4.6001-5.4775 1.8188-1.5068 3.8984-2.6636 6.2373-3.4692s4.7949-1.1826 7.3682-1.1309c2.2607.0527 4.3789.416 6.354 1.0918s3.6772 1.6372 5.1069 2.8848c1.4292 1.2734 2.5205 2.8398 3.2749 4.6973.7534 1.8584 1.0391 3.9961.8574 6.4131zm-10.9351-1.9883c.1948.8574.2402 1.7676.1367 2.729-.1304 1.1694-.3901 2.2354-.7798 3.1968s-.8965 1.793-1.5205 2.4946c-.7539.832-1.6699 1.4756-2.748 1.9297-1.0791.4551-2.3198.6958-3.7231.7212l-2.4561-.0391-1.1694 7.9917 4.4443.0391c1.2471.0522 2.2998.3252 3.1577.8188.8574.4937 1.5327 1.144 2.0269 1.9492.4937.8057.8188 1.7285.9746 2.7676.1558 1.04.1558 2.1313 0 3.2749-.1821 1.3252-.5786 2.5337-1.189 3.6255-.6108 1.0913-1.3711 2.0142-2.2808 2.7676-.9355.7798-1.9878 1.3779-3.1572 1.7935-1.1699.416-2.417.6235-3.7427.6235-.7798 0-1.5659-.0518-2.3584-.1558-.793-.1035-1.5532-.2856-2.2808-.5459-.5718-.1816-1.1304-.4219-1.6763-.7212-.5459-.2983-1.0522-.6558-1.5205-1.0718l5.1851-30.2124c.1816-1.1436.5322-2.2349 1.0527-3.2749.5195-1.0391 1.1821-1.9492 1.9878-2.729.7798-.7534 1.6826-1.3447 2.7095-1.7734 1.0264-.4287 2.1636-.6299 3.4111-.6045 1.0137.0264 1.897.2339 2.6509.624.7534.3896 1.3774.8965 1.8711 1.52.4678.6499.7993 1.4038.9941 2.2612z"/></svg>