<svg width="20" height="20" viewBox="0 0 20 20" fill="none" xmlns="http://www.w3.org/2000/svg">
<path fill-rule="evenodd" clip-rule="evenodd" d="M9.59087 1.77223C9.84505 1.62925 10.1554 1.62925 10.4096 1.77223L17.0762 5.52223C17.3392 5.67012 17.5019 5.94833 17.5019 6.24999V13.75C17.5019 14.0517 17.3392 14.3299 17.0762 14.4778L10.4096 18.2278C10.1554 18.3707 9.84505 18.3707 9.59087 18.2278L2.92417 14.4778C2.66125 14.3299 2.49854 14.0517 2.49854 13.75V6.24999C2.49854 5.94833 2.66125 5.67012 2.92417 5.52223L9.59087 1.77223ZM4.16854 6.73834V13.2616L10.0002 16.542L15.8319 13.2616V6.73834L10.0002 3.45803L4.16854 6.73834Z" fill="currentColor"/>
</svg>
