<svg width="24" height="24" viewBox="0 0 24 24" fill="none" xmlns="http://www.w3.org/2000/svg">
<path fill-rule="evenodd" clip-rule="evenodd" d="M4.96447 14.4645C5.90215 13.5268 7.17392 13 8.5 13H15.5C16.8261 13 18.0979 13.5268 19.0355 14.4645C19.9732 15.4021 20.5 16.6739 20.5 18V20C20.5 20.5523 20.0523 21 19.5 21C18.9477 21 18.5 20.5523 18.5 20V18C18.5 17.2044 18.1839 16.4413 17.6213 15.8787C17.0587 15.3161 16.2956 15 15.5 15H8.5C7.70435 15 6.94129 15.3161 6.37868 15.8787C5.81607 16.4413 5.5 17.2044 5.5 18V20C5.5 20.5523 5.05228 21 4.5 21C3.94772 21 3.5 20.5523 3.5 20V18C3.5 16.6739 4.02678 15.4021 4.96447 14.4645Z" fill="currentColor"/>
<path fill-rule="evenodd" clip-rule="evenodd" d="M12 5C10.6193 5 9.5 6.11929 9.5 7.5C9.5 8.88071 10.6193 10 12 10C13.3807 10 14.5 8.88071 14.5 7.5C14.5 6.11929 13.3807 5 12 5ZM7.5 7.5C7.5 5.01472 9.51472 3 12 3C14.4853 3 16.5 5.01472 16.5 7.5C16.5 9.98528 14.4853 12 12 12C9.51472 12 7.5 9.98528 7.5 7.5Z" fill="currentColor"/>
</svg>
