<svg width="66" height="66" viewBox="0 0 66 66" fill="none" xmlns="http://www.w3.org/2000/svg">
<circle cx="33" cy="33" r="33" fill="#00B159"/>
<rect opacity="0.01" x="12" y="11" width="43" height="43" fill="#D8D8D8"/>
<path fill-rule="evenodd" clip-rule="evenodd" d="M53.4898 34.2004H45.5436L43.4532 29.6905L39.6166 39.918L36.9403 33.7185L31.8295 50.6275L25.2228 23.4143L21.3748 34.2032H13.3461C12.672 34.2627 12.0753 33.7847 12.0136 33.1356C12.0116 33.1154 12.0103 33.0952 12.0094 33.075C11.9241 32.3521 12.4275 31.8674 13.1783 31.788H19.5348L25.6409 14.7941L32.0798 41.2872L36.5962 26.4702L39.5313 33.2338L43.2854 23.25L47.1334 31.7031H53.4898C54.1591 31.7919 54.6579 32.3423 54.6587 32.9929C54.5762 33.7185 54.0899 34.2004 53.4898 34.2004Z" fill="white"/>
</svg>
