<svg width="20" height="20" viewBox="0 0 20 20" fill="none" xmlns="http://www.w3.org/2000/svg">
<path fill-rule="evenodd" clip-rule="evenodd" d="M2.49829 2.49998C2.49829 2.03882 2.87213 1.66498 3.33329 1.66498H16.6666C17.1278 1.66498 17.5016 2.03882 17.5016 2.49998V17.5C17.5016 17.9611 17.1278 18.335 16.6666 18.335H3.33329C2.87213 18.335 2.49829 17.9611 2.49829 17.5V2.49998ZM4.16829 3.33498V16.665H15.8316V3.33498H4.16829Z" fill="currentColor"/>
<path d="M15 5C15 5.46024 14.6269 5.83333 14.1666 5.83333C13.7064 5.83333 13.3333 5.46024 13.3333 5C13.3333 4.53976 13.7064 4.16667 14.1666 4.16667C14.6269 4.16667 15 4.53976 15 5Z" fill="currentColor"/>
<path fill-rule="evenodd" clip-rule="evenodd" d="M2.49829 7.49998C2.49829 7.03882 2.87213 6.66498 3.33329 6.66498H16.6666C17.1278 6.66498 17.5016 7.03882 17.5016 7.49998C17.5016 7.96114 17.1278 8.33498 16.6666 8.33498H3.33329C2.87213 8.33498 2.49829 7.96114 2.49829 7.49998ZM2.49829 12.5C2.49829 12.0388 2.87213 11.665 3.33329 11.665H16.6666C17.1278 11.665 17.5016 12.0388 17.5016 12.5C17.5016 12.9611 17.1278 13.335 16.6666 13.335H3.33329C2.87213 13.335 2.49829 12.9611 2.49829 12.5Z" fill="currentColor"/>
<path d="M15 10C15 10.4602 14.6269 10.8333 14.1666 10.8333C13.7064 10.8333 13.3333 10.4602 13.3333 10C13.3333 9.53976 13.7064 9.16667 14.1666 9.16667C14.6269 9.16667 15 9.53976 15 10Z" fill="currentColor"/>
<path d="M15 15C15 15.4602 14.6269 15.8333 14.1666 15.8333C13.7064 15.8333 13.3333 15.4602 13.3333 15C13.3333 14.5398 13.7064 14.1667 14.1666 14.1667C14.6269 14.1667 15 14.5398 15 15Z" fill="currentColor"/>
<path d="M12.5 5C12.5 5.46024 12.1269 5.83333 11.6666 5.83333C11.2064 5.83333 10.8333 5.46024 10.8333 5C10.8333 4.53976 11.2064 4.16667 11.6666 4.16667C12.1269 4.16667 12.5 4.53976 12.5 5Z" fill="currentColor"/>
<path d="M12.5 10C12.5 10.4602 12.1269 10.8333 11.6666 10.8333C11.2064 10.8333 10.8333 10.4602 10.8333 10C10.8333 9.53976 11.2064 9.16667 11.6666 9.16667C12.1269 9.16667 12.5 9.53976 12.5 10Z" fill="currentColor"/>
<path d="M12.5 15C12.5 15.4602 12.1269 15.8333 11.6666 15.8333C11.2064 15.8333 10.8333 15.4602 10.8333 15C10.8333 14.5398 11.2064 14.1667 11.6666 14.1667C12.1269 14.1667 12.5 14.5398 12.5 15Z" fill="currentColor"/>
</svg>
