<svg viewBox="0 0 33 33" xmlns="http://www.w3.org/2000/svg"><g fill="currentColor"><path d="m5.76 21.65v5.7c.15.18.94.67 3.23 1.08a44.52 44.52 0 0 0 7.51.57 44.52 44.52 0 0 0 7.5-.57c2.29-.41 3.08-.9 3.23-1.08v-5.7a38 38 0 0 1 -10.73 1.55 38 38 0 0 1 -10.74-1.55zm11.93 3.84a27.35 27.35 0 0 0 8.08-1v1.37a29.1 29.1 0 0 1 -8.08 1z"/><path d="m27.24 14a39.06 39.06 0 0 1 -10.74 1.5 39.06 39.06 0 0 1 -10.74-1.5v6 .11a36.83 36.83 0 0 0 10.72 1.6 36.83 36.83 0 0 0 10.72-1.6v-.11zm-9.55 5.3v-1.3a27.35 27.35 0 0 0 8.08-1v1.36a28.73 28.73 0 0 1 -8.08.97z"/><path d="m16.5 7.2a44.44 44.44 0 0 0 7.5-.58q.91-.17 1.53-.33a5.32 5.32 0 0 0 1.58-.64.08.08 0 0 0 0-.11 5.41 5.41 0 0 0 -1.58-.63c-.41-.11-.92-.23-1.53-.34a44.52 44.52 0 0 0 -7.5-.57 44.52 44.52 0 0 0 -7.5.57c-.61.11-1.12.23-1.53.34a5.41 5.41 0 0 0 -1.58.63.08.08 0 0 0 0 .11 5.32 5.32 0 0 0 1.58.64q.61.17 1.53.33a44.44 44.44 0 0 0 7.5.58z"/><path d="m27.24 7.15a12.53 12.53 0 0 1 -2.52.74 44.13 44.13 0 0 1 -8.22.68 44.13 44.13 0 0 1 -8.22-.68 12.53 12.53 0 0 1 -2.52-.74v5.42a37.56 37.56 0 0 0 10.74 1.56 37.56 37.56 0 0 0 10.74-1.56zm-9.55 4.85v-1.34a27.35 27.35 0 0 0 8.08-1v1.34a29.1 29.1 0 0 1 -8.08 1z"/></g></svg>