<svg version="1.1" viewBox="0 0 21.48 25.003" xmlns="http://www.w3.org/2000/svg"><g transform="translate(-5.76 -3.9983)" fill="currentColor"><path d="m5.76 21.65v5.7c0.15 0.18 0.94 0.67 3.23 1.08a44.52 44.52 0 0 0 7.51 0.57 44.52 44.52 0 0 0 7.5-0.57c2.29-0.41 3.08-0.9 3.23-1.08v-5.7a38 38 0 0 1-10.73 1.55 38 38 0 0 1-10.74-1.55zm11.93 3.84a27.35 27.35 0 0 0 8.08-1v1.37a29.1 29.1 0 0 1-8.08 1z"/><path d="m27.24 14a39.06 39.06 0 0 1-10.74 1.5 39.06 39.06 0 0 1-10.74-1.5v6.11a36.83 36.83 0 0 0 10.72 1.6 36.83 36.83 0 0 0 10.72-1.6v-0.11zm-9.55 5.3v-1.3a27.35 27.35 0 0 0 8.08-1v1.36a28.73 28.73 0 0 1-8.08 0.97z"/><path d="m16.5 7.2a44.44 44.44 0 0 0 7.5-0.58q0.91-0.17 1.53-0.33a5.32 5.32 0 0 0 1.58-0.64 0.08 0.08 0 0 0 0-0.11 5.41 5.41 0 0 0-1.58-0.63c-0.41-0.11-0.92-0.23-1.53-0.34a44.52 44.52 0 0 0-7.5-0.57 44.52 44.52 0 0 0-7.5 0.57c-0.61 0.11-1.12 0.23-1.53 0.34a5.41 5.41 0 0 0-1.58 0.63 0.08 0.08 0 0 0 0 0.11 5.32 5.32 0 0 0 1.58 0.64q0.61 0.17 1.53 0.33a44.44 44.44 0 0 0 7.5 0.58z"/><path d="m27.24 7.15a12.53 12.53 0 0 1-2.52 0.74 44.13 44.13 0 0 1-8.22 0.68 44.13 44.13 0 0 1-8.22-0.68 12.53 12.53 0 0 1-2.52-0.74v5.42a37.56 37.56 0 0 0 10.74 1.56 37.56 37.56 0 0 0 10.74-1.56zm-9.55 4.85v-1.34a27.35 27.35 0 0 0 8.08-1v1.34a29.1 29.1 0 0 1-8.08 1z"/></g></svg>
