<svg viewBox="0 0 457 457.4" xmlns="http://www.w3.org/2000/svg"><path d="m379.2 50.21a275.57 275.57 0 0 0 -29.2-6.7c-34.36-6.16-78.78-9.51-125.14-9.51s-90.79 3.4-125.09 9.56a275 275 0 0 0 -29.25 6.7 114.29 114.29 0 0 0 -16.7 6.16 4.66 4.66 0 0 0 0 8.39h.11c7.8 3.73 21.94 8.53 45.88 12.83q5.16.93 10.62 1.77c32.62 5 72.76 7.79 114.47 7.79s81.85-2.75 114.47-7.79c3.63-.56 7.18-1.15 10.62-1.77 23.94-4.3 38.08-9.1 45.88-12.83h.1a4.65 4.65 0 0 0 0-8.39 113.63 113.63 0 0 0 -16.77-6.21z"/><path d="m397.64 111.56a10.18 10.18 0 0 1 -.12-1.11 614.53 614.53 0 0 1 -172.66 24.81 614.47 614.47 0 0 1 -172.66-24.81 10.36 10.36 0 0 1 -.12 1.12v113.08a14.55 14.55 0 0 1 0 4.27v10.74l.85.25a607.43 607.43 0 0 0 343.86 0l.85-.25v-10.74a14.48 14.48 0 0 1 0-4.26zm-60.42 103.5a27.46 27.46 0 1 1 27.46-27.46 27.45 27.45 0 0 1 -27.46 27.46z"/><path d="m397.52 283.11a614.51 614.51 0 0 1 -172.66 24.8 614.46 614.46 0 0 1 -172.66-24.8 10.93 10.93 0 0 1 -.12 1.12v105.69a29.4 29.4 0 0 0 22.08 28.49 607.22 607.22 0 0 0 301.4 0 29.4 29.4 0 0 0 22.08-28.49v-105.7a10.46 10.46 0 0 1 -.12-1.11zm-60.3 104.61a27.46 27.46 0 1 1 27.46-27.46 27.46 27.46 0 0 1 -27.46 27.46z"/></svg>