<?xml version="1.0" encoding="UTF-8"?>
<svg width="348px" height="404px" viewBox="0 0 348 404" version="1.1" xmlns="http://www.w3.org/2000/svg" xmlns:xlink="http://www.w3.org/1999/xlink">
    <g id="DBaaS-Icon-1C-BLK" transform="translate(0.189181, -0.000000)" fill="currentColor" fill-rule="nonzero">
        <path d="M328.010819,16.21 C318.406175,13.448844 308.658441,11.2122063 298.810819,9.51 C264.450819,3.35 220.030819,0 173.670819,0 C127.310819,0 82.8808191,3.4 48.5808191,9.56 C38.716146,11.2593205 28.951613,13.4959828 19.3308191,16.26 C13.6124778,17.876067 8.02888171,19.9356449 2.63081913,22.42 C1.02203516,23.1981916 0,24.8278884 0,26.615 C0,28.4021116 1.02203516,30.0318084 2.63081913,30.81 L2.74081913,30.81 C10.5408191,34.54 24.6808191,39.34 48.6208191,43.64 C52.0608191,44.26 55.6008191,44.85 59.2408191,45.41 C91.8608191,50.41 132.000819,53.2 173.710819,53.2 C215.420819,53.2 255.560819,50.45 288.180819,45.41 C291.810819,44.85 295.360819,44.26 298.800819,43.64 C322.740819,39.34 336.880819,34.54 344.680819,30.81 L344.780819,30.81 C346.396368,30.0374214 347.42471,28.4057749 347.42471,26.615 C347.42471,24.8242251 346.396368,23.1925786 344.780819,22.42 C339.362639,19.9126596 333.755278,17.836231 328.010819,16.21 L328.010819,16.21 Z" id="Path"></path>
        <path d="M346.450819,77.56 C346.390545,77.1924737 346.350484,76.8219165 346.330819,76.45 C290.249943,92.8876951 232.111064,101.241834 173.670819,101.26 C115.230516,101.242652 57.0915213,92.8884966 1.01081913,76.45 C0.991159426,76.8252332 0.951100231,77.1991191 0.890819131,77.57 L0.890819131,190.65 C1.100809,192.065588 1.100809,193.504412 0.890819131,194.92 L0.890819131,205.66 L1.74081913,205.91 C113.968302,239.029803 233.373337,239.029803 345.600819,205.91 L346.450819,205.66 L346.450819,194.92 C346.240796,193.507766 346.240796,192.072234 346.450819,190.66 L346.450819,77.56 Z M286.030819,181.060002 C274.924286,181.060002 264.911373,174.369586 260.661087,164.108487 C256.410801,153.847388 258.760162,142.036353 266.613667,134.182848 C274.467172,126.329343 286.278207,123.979982 296.539306,128.230268 C306.800405,132.480554 313.490821,142.493467 313.490821,153.6 C313.493473,160.883658 310.601226,167.869759 305.450902,173.020083 C300.300578,178.170407 293.314477,181.062654 286.030819,181.060002 L286.030819,181.060002 Z" id="Shape"></path>
        <path d="M346.330819,249.11 C290.249511,265.544579 232.110603,273.895355 173.670819,273.91 C115.230987,273.896036 57.0919824,265.545247 1.01081913,249.11 C0.990095764,249.485148 0.950042589,249.858977 0.890814815,250.23 L0.890814815,355.92 C0.883585719,369.343784 9.96976436,381.067753 22.9708191,384.41 C121.840904,409.740081 225.500734,409.740081 324.370819,384.41 C337.371874,381.067753 346.458053,369.343784 346.450823,355.92 L346.450823,250.22 C346.391087,249.8524 346.35103,249.481872 346.330819,249.11 L346.330819,249.11 Z M286.030819,353.72 C274.924286,353.72 264.911373,347.029586 260.661087,336.768487 C256.410801,326.507388 258.760162,314.696353 266.613667,306.842848 C274.467172,298.989343 286.278207,296.639982 296.539306,300.890268 C306.800405,305.140554 313.490819,315.153467 313.490819,326.26 C313.490819,341.425739 301.196558,353.72 286.030819,353.72 L286.030819,353.72 Z" id="Shape"></path>
    </g>
</svg>