<svg viewBox="0 0 300 300" xmlns="http://www.w3.org/2000/svg">
  <g fill="currentcolor">
    <path
      d="m150 248.54a98.54 98.54 0 1 1 98.54-98.54 98.52 98.52 0 0 1 -98.54 98.54zm0-188.95a90.41 90.41 0 1 0 90.41 90.41 90.31 90.31 0 0 0 -90.41-90.41z" />
    <path
      d="m225.88 144.83a76.31 76.31 0 0 0 -70.95-71v-.25h-10.1v.25a76.29 76.29 0 0 0 -71 71h-.25v10.1h.25a76.3 76.3 0 0 0 71 70.95v.24h10.1v-.24a76.31 76.31 0 0 0 70.95-70.95h.24zm-108.64-48a92.78 92.78 0 0 0 -7.39 16.26 1.87 1.87 0 0 1 -1.73 1.23h-10.12a2.12 2.12 0 0 1 -2-2c0-.49.25-.74.25-1a67.46 67.46 0 0 1 18.23-17.24 1.91 1.91 0 0 1 2.46.74c.79.74.79 1.48.3 1.97zm-26.86 27.8h14.29a1.94 1.94 0 0 1 2 2v.24a104.9 104.9 0 0 0 -2 16.26 1.91 1.91 0 0 1 -2 1.73h-16.23a2.13 2.13 0 0 1 -2-2 65.93 65.93 0 0 1 4.19-17 1.85 1.85 0 0 1 1.75-1.23zm-4.18 30.54h16.25a2.1 2.1 0 0 1 2 1.73 120.24 120.24 0 0 0 2 16.26 1.92 1.92 0 0 1 -1.48 2.21h-14.59a1.85 1.85 0 0 1 -1.72-1.23 59.07 59.07 0 0 1 -4.19-17 1.91 1.91 0 0 1 1.73-2.21zm11.8 30.55h10.1a1.87 1.87 0 0 1 1.73 1.23 77.52 77.52 0 0 0 7.39 16.26 2 2 0 0 1 -.74 2.71 2.68 2.68 0 0 1 -2 0 63.84 63.84 0 0 1 -18.18-17.24 1.93 1.93 0 0 1 0-2.71 2 2 0 0 1 1.7-.25zm44.34 28.82c-8.87-3.69-16.26-13.3-21.18-26.36a1.79 1.79 0 0 1 1-2.46c.25 0 .5-.25.74-.25h20.45a2 2 0 0 1 2 2v25.12a1.94 1.94 0 0 1 -2 2zm.74-39.17h-24.37a2.16 2.16 0 0 1 -2-1.47 84.28 84.28 0 0 1 -2.21-16.76 1.88 1.88 0 0 1 1.72-2h26.61a2 2 0 0 1 2 2v16.51a1.69 1.69 0 0 1 -1.73 1.72zm0-30.54h-26.58a1.94 1.94 0 0 1 -2-2 .92.92 0 0 1 0-.25 79.83 79.83 0 0 1 2.21-16.75 1.87 1.87 0 0 1 2-1.48h24.39a1.94 1.94 0 0 1 2 2v16.51c-.27 1.23-1.01 1.97-2 1.97zm0-30.55h-20.42a2 2 0 0 1 -2-2v-.74c4.93-13.06 12.57-22.66 21.19-26.36a1.79 1.79 0 0 1 2.46 1c0 .24.25.49.25.73v25.38c.25 1.23-.49 2.22-1.48 2zm58.88 0h-10.1a1.87 1.87 0 0 1 -1.73-1.23 92.78 92.78 0 0 0 -7.39-16.26 2 2 0 0 1 .74-2.71 2.68 2.68 0 0 1 2 0 63.84 63.84 0 0 1 18.23 17.24 1.93 1.93 0 0 1 0 2.71 1.44 1.44 0 0 1 -1.71.25zm-44.32-28.82c8.87 3.69 16.26 13.3 21.43 26.36a2.16 2.16 0 0 1 -1.23 2.46h-20.94a1.94 1.94 0 0 1 -2-2v-24.85a1.94 1.94 0 0 1 2-2zm-.74 39.17h24.39a1.87 1.87 0 0 1 2 1.47 80 80 0 0 1 2.21 16.76 1.88 1.88 0 0 1 -1.72 2h-26.88a1.94 1.94 0 0 1 -2-2v-16.51a2.37 2.37 0 0 1 2-1.72zm0 30.54h26.36a2.11 2.11 0 0 1 2 2 80.68 80.68 0 0 1 -2.26 16.73 1.86 1.86 0 0 1 -2 1.47h-24.35a2 2 0 0 1 -2-2v-16.72a2.82 2.82 0 0 1 2.25-1.48zm-1.73 57.65v-25.37a2 2 0 0 1 2-2h20.45a1.94 1.94 0 0 1 2 2v.73c-4.93 13.06-12.56 22.67-21.43 26.36a1.79 1.79 0 0 1 -2.46-1c-.56-.23-.8-.47-.56-.72zm27.59-9.61a92.78 92.78 0 0 0 7.39-16.21 1.87 1.87 0 0 1 1.73-1.23h10.12a1.94 1.94 0 0 1 2 2c0 .49 0 .74-.25 1a67.46 67.46 0 0 1 -18.23 17.24 2.25 2.25 0 0 1 -2.71-.49 1.57 1.57 0 0 1 -.05-2.31zm26.86-27.84h-14.29a1.94 1.94 0 0 1 -2-2v-.24a106.13 106.13 0 0 0 2-16.26 1.91 1.91 0 0 1 2-1.73h16.26a2.13 2.13 0 0 1 2 2 65.93 65.93 0 0 1 -4.19 17 1.85 1.85 0 0 1 -1.78 1.23zm-14.29-32.27a123.53 123.53 0 0 0 -2-16.26 1.91 1.91 0 0 1 1.48-2.21h14.53a1.84 1.84 0 0 1 1.72 1.23 65.93 65.93 0 0 1 4.19 17 1.91 1.91 0 0 1 -1.72 2h-16.48a2.06 2.06 0 0 1 -1.72-1.76z" />
  </g>
</svg>