<svg height="22" viewBox="0 0 22 22" width="22" xmlns="http://www.w3.org/2000/svg"
  xmlns:xlink="http://www.w3.org/1999/xlink">
  <g fill="none" fill-rule="evenodd" transform="translate(-6 -6)">
    <path
      d="m20.2965578 13.9830218h-5.5438067c.092599-.9566995.1406933-1.9590336.1406933-2.9830052 0-.9138235-.0384223-1.81026393-.1124748-2.67260301h5.6092508c.2429643.8585168.3690332 1.75582141.3690332 2.67260301 0 1.0278936-.1584752 2.0313246-.4626958 2.9830052m-2.3957075 3.9178014c-1.3947346 1.3947325-3.1373968 2.3148379-5.0321525 2.6803141.3605244-.5105566.7149996-1.2267185 1.0360714-2.2213416.3242959-1.0044946.5742732-2.1745104.7418222-3.4462321h5.2988814c-.4817739 1.1003839-1.1696852 2.1123236-2.0446225 2.9872596m-6.9008503 2.6175955c-.417061 0-1.11883222-.6651428-1.72401603-2.5397872-.28856578-.8938812-.51444611-1.9328095-.67125945-3.0650679h4.79058418c-.1568133 1.1322916-.3826937 2.1711867-.6712927 3.0650679-.6051838 1.8746444-1.3069218 2.5397872-1.724016 2.5397872m-6.90081703-2.6175955c-.8749373-.874936-1.56288185-1.8868757-2.04462252-2.9872596h5.29884818c.1675822 1.2717217.41755954 2.4417375.74182213 3.4462321.32110504.9946231.67554705 1.710785 1.03607148 2.2213416-1.89475577-.3654762-3.63738466-1.2855816-5.03211927-2.6803141m-2.85843652-6.9008066c0-.9167816.12606888-1.81408621.36906639-2.67260301h5.60925084c-.07405259.86233908-.11247485 1.75877951-.11247485 2.67260301 0 1.0239716.0480943 2.0263057.14069327 2.9830052h-5.54380669c-.30425377-.9516806-.46272896-1.9551116-.46272896-2.9830052m2.85843652-6.90083982c1.39473461-1.39473251 3.1373635-2.31483785 5.03211927-2.68031407-.36052443.51055659-.71496644 1.22671848-1.03607148 2.22134161-.35048678 1.08569305-.6141911 2.36476011-.78077618 3.75666746h-5.38912055c.48436641-1.22066931 1.21728096-2.34112847 2.17384894-3.297695m6.90081703-2.61759548c.4170942 0 1.1188322.6651428 1.724016 2.5397872.31479.97501318.5550621 2.12239446.712374 3.37550328h-4.87274671c.15731189-1.25310882.39758395-2.4004901.71234068-3.37550328.60518381-1.8746444 1.30695503-2.5397872 1.72401603-2.5397872m2.652698 9.5184353c0 1.0285916-.0500886 2.0316902-.1462439 2.9830052h-5.01287493c-.09615536-.951315-.14624389-1.9544136-.14624389-2.9830052 0-.9173134.03975175-1.81445182.11652979-2.67260301h5.07230313c.076778.85815119.1165298 1.75528961.1165298 2.67260301m4.2481523-6.90083982c.956568.95656653 1.6894825 2.07702569 2.1738489 3.297695h-5.3891205c-.1666184-1.39190735-.4302894-2.67097441-.7808095-3.75666746-.3210718-.99462313-.675547-1.71078502-1.0360714-2.22134161 1.8947557.36547622 3.6374179 1.28558156 5.0321525 2.68031407m3.7722614 4.22823681c-.0784067-.31372591-.1711386-.62399514-.2775643-.93054181-.0792376-.22833955-.1654882-.45478457-.2602144-.67877005-.5540649-1.30994442-1.3471056-2.48624206-2.3571523-3.49625401-1.0100135-1.01004519-2.1863129-1.80308472-3.4962926-2.3571488-1.3565118-.57377373-2.797147-.86469892-4.2818881-.86469892-1.48470784 0-2.9253431.29092519-4.28188812.86469892-1.30994639.55406408-2.48624582 1.34710361-3.4962593 2.3571488-1.01004671 1.01001195-1.80308743 2.18630959-2.35715235 3.49625401-.09472615.22398548-.18097681.4504305-.26024765.67877005-.10639243.30654667-.19912435.6168159-.27753101.93054181-.21697275.86815559-.32692157 1.76203681-.32692157 2.67260301 0 1.0194181.13720336 2.0180962.40891786 2.9830052.08841107.3139918.19181215.6241614.30864108.9305418.0470307.1233433.09552385.2462877.14714129.3683347.55406492 1.3099444 1.34710564 2.486242 2.35715235 3.496254 1.01001348 1.0100452 2.18631291 1.8030847 3.4962593 2.3571488 1.35654502.5737737 2.79718028.8646989 4.28188812.8646989 1.4847411 0 2.9253763-.2909252 4.2818881-.8646989 1.3099797-.5540641 2.4862791-1.3471036 3.4962926-2.3571488 1.0100467-1.010012 1.8030874-2.1863096 2.3571523-3.496254.0516175-.122047.1001106-.2449914.1471413-.3683347.1167957-.3063804.22023-.61655.3086411-.9305418.2717145-.964909.4088846-1.9635871.4088846-2.9830052 0-.9105662-.1099156-1.80444742-.3268883-2.67260301"
      fill="currentColor" transform="translate(6 6)" />
  </g>
</svg>