<svg height="33" viewBox="0 0 33 33" width="33" xmlns="http://www.w3.org/2000/svg"
  xmlns:xlink="http://www.w3.org/1999/xlink">
  <g fill="currentColor" fill-rule="evenodd">
    <path
      d="m11.1476052 10.8337139h6.6211847v-2.31331286h-6.6211847zm-7.43162755 0h6.62085695v-2.31331286h-6.62085695zm-3.71597765-3.11632117h6.62118463v-2.31331284h-6.62118463zm3.71597765-3.11599671h6.62085695v-2.31363729h-6.62085695zm3.71597766 3.11599671h6.62085689v-2.31331284h-6.62085689zm13.39148029 6.28260727h-15.62224666c-2.32613188-.1031744-4.14856347-1.9846472-4.16606269-4.27038199-.00314692-.41918657.05551434-.82474632.16529937-1.20921697h1.70478136v3.11599666h15.67435362v-3.91900497h-3.7159777v-3.11599671h-3.7159777v-2.91256794c1.3973833-1.39934337 3.4744506-2.02033647 5.492529-1.5141979 3.0549734.77348357 4.9124706 3.8495732 4.1311945 6.89127136 1.7011764.1547616 3.0376044 1.46066401 3.2112942 3.11048106.1910587 1.9074287-1.2148452 3.6344643-3.1591873 3.8236174z"
      fill="currentColor" transform="translate(4 9)" />
  </g>
</svg>