<svg viewBox="0 0 300 300" xmlns="http://www.w3.org/2000/svg">
  <path
    d="m251.4 149.86v50.84a16.9 16.9 0 0 1 -16.9 16.9h-169a16.9 16.9 0 0 1 -16.9-16.9v-50.84a19.7 19.7 0 0 1 3.23-9.94l36.77-50.56a19 19 0 0 1 13.67-7h95.46a19 19 0 0 1 13.67 7l36.77 50.56a19.7 19.7 0 0 1 3.23 9.94zm-16.9.14h-169a5.63 5.63 0 0 0 -5.63 5.63v45.07a5.63 5.63 0 0 0 5.63 5.63h169a5.63 5.63 0 0 0 5.63-5.63v-45.07a5.63 5.63 0 0 0 -5.63-5.63zm-45.07 36.62a8.46 8.46 0 1 1 8.45-8.46 8.45 8.45 0 0 1 -8.45 8.46zm22.54 0a8.46 8.46 0 1 1 8.45-8.46 8.47 8.47 0 0 1 -8.45 8.46z"
    fill="currentColor" /></svg>