<svg viewBox="0 0 300 300" xmlns="http://www.w3.org/2000/svg">
  <path
    d="m248.13 169.64-30.53-6.43a68.68 68.68 0 0 0 .52-8.28 67.6 67.6 0 0 0 -11-37l24.68-19.2a5.87 5.87 0 0 0 -7.21-9.27l-24.69 19.2a68 68 0 0 0 -44.16-21.59v-31.45a5.89 5.89 0 1 0 -11.77 0v31.47a68 68 0 0 0 -43.31 21l-24.08-19.37a5.85 5.85 0 1 0 -7.5 9l24.26 19.5a67.66 67.66 0 0 0 -11.46 37.73 68.76 68.76 0 0 0 .73 9.9l-30.74 7.15a5.72 5.72 0 0 0 1.13 11.32 2.47 2.47 0 0 0 1.33-.29l30.82-7.18a68.52 68.52 0 0 0 28.91 36.91l-14.06 28.24a5.59 5.59 0 0 0 2.5 7.65 5 5 0 0 0 2.5.44 6.26 6.26 0 0 0 5.15-3.09l14.2-28a67.74 67.74 0 0 0 49.89.57l13.89 28.31a6 6 0 0 0 5.15 3.39 15.8 15.8 0 0 0 2.5-.44 5.53 5.53 0 0 0 2.5-7.66l-13.67-28.61a68.5 68.5 0 0 0 30.54-38.72l30.5 6.42h1.35a5.65 5.65 0 0 0 5.59-4.56 5.93 5.93 0 0 0 -4.46-7.06zm-41.63-14.56a57.1 57.1 0 0 1 -.29 5.73l-25.21-5.29v-.44a30 30 0 0 0 -3.49-14.08l20.35-15.82a56.06 56.06 0 0 1 8.64 29.9zm-15.89-39.19-20.31 15.79a31 31 0 0 0 -14.56-7.21v-25.6a56.41 56.41 0 0 1 34.87 17.02zm-26.49 27.86 3.54 15.15-9.72 12.36h-15.74l-10-12.06 3.68-15.45 14.12-6.62zm-20.12-44.85v25.72a28.36 28.36 0 0 0 -14.13 6.92l-20-16.13a56.34 56.34 0 0 1 34.13-16.51zm-50.5 56.18a56.19 56.19 0 0 1 9-30.53l19.86 16a30.5 30.5 0 0 0 -3.53 14.57v1.32l-24.83 5.75a55.61 55.61 0 0 1 -.5-7.11zm3 18.13 24.81-5.78a30.51 30.51 0 0 0 9.42 12.07l-11.48 22.95a56.61 56.61 0 0 1 -22.75-29.24zm53.5 38.36a56.29 56.29 0 0 1 -20.46-3.84l11.63-22.93a33.48 33.48 0 0 0 8.39 1.32 38.24 38.24 0 0 0 8.24-1l11.35 23.14a56.27 56.27 0 0 1 -19.15 3.31zm29.63-8.4-11.09-23.23a30.45 30.45 0 0 0 10-12.8l25.22 5.31a56.62 56.62 0 0 1 -24.13 30.72z"
    fill="currentColor" /></svg>