<svg viewBox="0 0 196.1 192.9408" xmlns="http://www.w3.org/2000/svg"><path d="m13.5275 83.1763c0-28.5591-1.8179-34.3229 5.6065-38.5 24.5911-14.1279 28.3119-18.0494 31.2261-12.7529 3.0069 5.1945-2.1727 6.4595-23.3098 18.6901l16.7335 9.615c-1.6852 2.5203-3.1766 5.1493-4.4843 7.8621l-16.7564-9.6705v25.0679c0 5.9947-9.0157 6.023-9.0157-.3117zm34.9769 71.6157-21.3999-12.3829 16.8312-9.7123c-1.6965-2.5148-3.2003-5.1378-4.5193-7.8462l-16.8732 9.7371c0-22.5276 1.6463-29.7455-4.8488-29.2023-5.6237.4673-4.1669 4.1413-4.1669 33.113 0 8.6244 6.3347 10.1258 30.4142 24.0065 4.876 3.2443 9.8306-4.8128 4.5627-7.713zm23.6379-129.7669 21.3998-12.3828v18.7118c3.3544-.2278 5.6613-.2278 9.0157 0v-18.7118c21.3341 12.3454 24.4365 15.8787 27.5893 10.7534 3.0006-5.1783-1.7685-6.1632-26.5035-20.4211-7.3268-4.2534-11.3698.1677-35.9543 14.3389-4.9166 2.702-.9652 10.6947 4.4529 7.7116zm104.8901 19.8167c-24.3797-14.0538-28.0742-17.953-30.9578-12.7095-2.8575 5.1992 1.7961 6.1802 23.0278 18.4665l-16.7599 9.6727c1.6562 2.481 3.124 5.0672 4.4146 7.7344l16.7996-9.6942v24.8741c.259 6.0168 9.0157 5.8515 9.0157-.3077 0-28.8447 1.6322-33.6388-5.54-38.0364zm.5504 60.1981c-5.3613.5445-4.0261 4.2996-4.0261 29.5507l-16.908-9.6714c-1.3217 2.7054-2.8281 5.3252-4.5269 7.837l16.7068 9.6409-21.6602 12.5347c-3.9878 2.193-2.3128 8.4653 2.3098 8.4653 1.6445 0 .3285.4826 27.4862-15.1725 7.2781-4.0935 5.6078-9.4336 5.6078-38.3902 0-2.7246-2.2785-5.071-4.9896-4.7945zm-53.8812 63.1016-21.1437 12.2351v-19.023c-3.3539.2278-5.6618.2278-9.0157 0v19.0229l-21.145-12.2351c-5.3578-2.948-9.257 4.9501-4.4 7.6208 36.2489 20.8933 23.8556 20.8933 60.1045 0 4.981-2.7389.7534-10.6055-4.4-7.6208zm12.8326-110.2722c21.2715 21.2713 21.2728 55.6995 0 76.9695-21.2681 21.2708-55.7 21.2695-76.9695 0-21.2708-21.2708-21.2695-55.6974 0-76.9695 21.2721-21.2696 55.6987-21.2709 76.9695 0zm-74.7277 9.1217c3.2501.9402 6.8873 1.742 10.8146 2.3933 1.9047-5.8566 4.6886-11.767 8.4947-16.5144-7.5621 2.9411-14.19 7.826-19.3092 14.1211zm-3.7534 5.3044c-3.8084 6.3132-6.0549 13.4515-6.5421 20.9301h17.151c.736-24.8148 8.3023-14.876-10.6089-20.9301zm-.3379 47.4794c18.9569-5.8055 11.7581 3.4788 10.9579-20.3572h-17.1621c.4725 7.2546 2.6014 14.186 6.2042 20.3572zm23.829 20.2274c-4.0758-4.8936-6.9973-11.0823-8.966-17.1657-4.0546.6341-7.8215 1.425-11.1904 2.359 5.1489 6.5181 12.0371 11.7408 20.1564 14.8067zm13.5091-18.9677c-5.5823.0783-11.0129.4101-16.1178.972 2.7044 7.8625 8.0836 17.9445 16.1178 20.1944zm0-21.6169h-20.2042c.207 5.8272.961 11.4401 2.2159 16.6246 5.6864-.6672 11.7584-1.0589 17.9883-1.1434zm0-21.9083c-6.2177-.1224-12.2383-.5497-17.8525-1.2511-1.2841 5.2837-2.0469 11.0154-2.2341 16.9674h20.0866zm0-27.362c-8.0058 2.2419-13.3748 12.26-16.0921 20.1172 5.0694.5962 10.4889.961 16.0921 1.0749zm43.1886 22.4775c-18.9278 5.7279-11.5316-3.8142-10.8036 20.6008h17.1498c-.4787-7.3489-2.6578-14.3684-6.3462-20.6008zm-23.2574-19.7549c3.0836 3.8492 6.1807 9.3365 8.5559 16.7005 3.9688-.6195 7.6635-1.3882 10.981-2.2941-5.0954-6.3678-11.784-11.3904-19.537-14.4064zm-13.7392 61.9481c6.2129.1187 12.2309.5411 17.844 1.2389 1.2645-5.1857 2.0247-10.8035 2.2317-16.6393h-20.0757zm20.0868-21.5924c-.1862-5.8982-.9353-11.5797-2.1999-16.8229-5.6559.6611-11.6935 1.0455-17.8869 1.1275v15.6955h20.0868zm-20.0868-21.9266c5.5872-.0759 11.0251-.4052 16.1362-.9647-2.6996-7.8746-8.0853-17.9938-16.1362-20.2483v21.2129zm0 70.9019c7.9807-2.2348 13.3546-12.2083 16.0799-20.0842-5.0657-.5925-10.4816-.9536-16.0799-1.0639v21.148zm33.27-16.7605c-3.3102-.9647-7.0281-1.7849-11.0459-2.4484-1.9503 5.9856-4.8532 12.1339-8.9146 17.0102 7.5909-2.8658 14.5195-7.7732 19.9605-14.5618zm3.7032-5.3828c3.7032-6.2422 5.8897-13.2752 6.3695-20.64h-17.1621c-.8125 24.3029-8.0876 14.5708 10.7926 20.64z" fill="currentColor"/></svg>