<svg version="1.1" xmlns="http://www.w3.org/2000/svg" xmlns:xlink="http://www.w3.org/1999/xlink" x="0px" y="0px" viewBox="0 0 540.129 540.129" style="enable-background:new 0 0 540.129 540.129;" xml:space="preserve"> 
<g>
  <path d="M28.074,204.831C64.043,70.586,202.483-9.364,336.746,26.623C403.513,44.5,461.549,94.572,494.991,162.196l-51.11-13.696
			l-4.663,17.409l69.562,18.633c0.756,0.198,1.548,0.306,2.322,0.306c1.566,0,3.114-0.414,4.519-1.225
			c2.071-1.206,3.583-3.151,4.195-5.473l18.633-69.562l-17.391-4.645l-12.235,45.66C472.75,79.709,411.622,28.017,341.409,9.215
			C197.64-29.275,49.209,56.346,10.683,200.168c-6.139,22.917-9.271,46.411-9.271,69.886h18.002
			C19.433,248.163,22.331,226.2,28.074,204.831z"/>
		<path d="M520.714,270.054c0,21.891-2.916,43.836-8.641,65.223c-35.97,134.246-174.41,214.195-308.673,178.208
			c-66.766-17.877-124.803-67.949-158.245-135.572l51.113,13.696l4.663-17.409l-69.562-18.633c-2.304-0.576-4.753-0.306-6.823,0.918
			c-2.071,1.206-3.583,3.151-4.195,5.473L1.718,431.52l17.39,4.644l12.22-45.651c36.073,69.89,97.199,121.579,167.41,140.381
			c23.313,6.247,46.735,9.235,69.814,9.235c119.232,0,228.634-79.697,260.894-200.189c6.139-22.917,9.271-46.411,9.271-69.886
			H520.714L520.714,270.054z"/>
	</g>
</svg>
