<svg version="1.1" viewBox="0 0 215.24 215.24" xmlns="http://www.w3.org/2000/svg">
  <path d="m75.572 98.066v-42.81l61.8-35.68 61.8 35.68v57.38c-1.56 0.76-4.16 2.33-12 6.32-11.8 6-24.59 8.81-24.52 8.34 1.45-9.74-4.5-20.66-19.9-20.66-10.29 0-25.69 3.06-31.82 3.64-32.45-11.93-29.31-11.55-35.36-12.21zm139.67 28.68c-0.64-21.94-43 19.12-78.85 11.29 9.34-2.28 26.05-12 12.76-21.48-13.08-2.91-26.58 2.42-39.73 2.81-44.29-20.37-52.79-14-86 19.81-3.29-3.07-8.11-7-12.46-3.32-2.31 3.2-10.91 10.91-10.72 15.29-4.19 3 47.5 40.89 48.55 43a6.85 6.85 0 0 0 9.07-0.41c4.35-5.85 16.19-14.93 6.15-21.3 28.74-28.24 77.44 9.79 113.74-16.16 13.78-8.64 32-15.44 37.49-29.53z" fill="#fff"/><path d="m75.572 98.066v-42.81l61.8-35.68 61.8 35.68v57.38c-1.56 0.76-4.16 2.33-12 6.32-11.8 6-24.59 8.81-24.52 8.34 1.45-9.74-4.5-20.66-19.9-20.66-10.29 0-25.69 3.06-31.82 3.64-32.45-11.93-29.31-11.55-35.36-12.21zm139.67 28.68c-0.64-21.94-43 19.12-78.85 11.29 9.34-2.28 26.05-12 12.76-21.48-13.08-2.91-26.58 2.42-39.73 2.81-44.29-20.37-52.79-14-86 19.81-3.29-3.07-8.11-7-12.46-3.32-2.31 3.2-10.91 10.91-10.72 15.29-4.19 3 47.5 40.89 48.55 43a6.85 6.85 0 0 0 9.07-0.41c4.35-5.85 16.19-14.93 6.15-21.3 28.74-28.24 77.44 9.79 113.74-16.16 13.78-8.64 32-15.44 37.49-29.53z" fill="currentColor"/>
  </svg>
