<svg width="20" height="20" viewBox="0 0 20 20" fill="none" xmlns="http://www.w3.org/2000/svg">
<path fill-rule="evenodd" clip-rule="evenodd" d="M3.33504 4.16666C3.33504 3.70734 3.70739 3.33499 4.16671 3.33499H15.8334C16.2927 3.33499 16.665 3.70734 16.665 4.16666V12.5C16.665 12.9593 16.2927 13.3317 15.8334 13.3317H10H4.16671C3.70739 13.3317 3.33504 12.9593 3.33504 12.5V4.16666ZM15.8334 15.0017H10.835V16.665H13.3334C13.7945 16.665 14.1684 17.0388 14.1684 17.5C14.1684 17.9611 13.7945 18.335 13.3334 18.335H10H6.66671C6.20555 18.335 5.83171 17.9611 5.83171 17.5C5.83171 17.0388 6.20555 16.665 6.66671 16.665H9.16504V15.0017H4.16671C2.78507 15.0017 1.66504 13.8816 1.66504 12.5V4.16666C1.66504 2.78503 2.78507 1.66499 4.16671 1.66499H15.8334C17.215 1.66499 18.335 2.78503 18.335 4.16666V12.5C18.335 13.8816 17.215 15.0017 15.8334 15.0017ZM11.8915 4.82502C11.81 4.52603 11.5327 4.323 11.2231 4.33554C10.9134 4.34807 10.6535 4.57284 10.5963 4.87744L9.79428 9.15514L8.95825 6.85607C8.86156 6.59017 8.60721 6.41456 8.32431 6.41839C8.0414 6.42221 7.79189 6.60462 7.70242 6.87303L7.02065 8.91833H5.83329C5.46602 8.91833 5.16829 9.21606 5.16829 9.58333C5.16829 9.95059 5.46602 10.2483 5.83329 10.2483H7.49996C7.78619 10.2483 8.04032 10.0652 8.13083 9.79362L8.3606 9.10432L9.37499 11.8939C9.47741 12.1756 9.75555 12.3539 10.0542 12.3294C10.3529 12.305 10.5983 12.0838 10.6536 11.7892L11.3701 7.96782L11.8584 9.7583C11.9373 10.0476 12.2001 10.2483 12.5 10.2483H14.1666C14.5339 10.2483 14.8316 9.95059 14.8316 9.58333C14.8316 9.21606 14.5339 8.91833 14.1666 8.91833H13.0079L11.8915 4.82502Z" fill="currentColor"/>
</svg>
