<svg width="20" height="20" viewBox="0 0 20 20" fill="none" xmlns="http://www.w3.org/2000/svg">
<path fill-rule="evenodd" clip-rule="evenodd" d="M14.5835 3.33499C14.1241 3.33499 13.7518 3.70734 13.7518 4.16666C13.7518 4.62598 14.1241 4.99833 14.5835 4.99833C15.0428 4.99833 15.4151 4.62598 15.4151 4.16666C15.4151 3.70734 15.0428 3.33499 14.5835 3.33499ZM12.0818 4.16666C12.0818 2.78503 13.2018 1.66499 14.5835 1.66499C15.9651 1.66499 17.0851 2.78503 17.0851 4.16666C17.0851 5.25549 16.3895 6.18184 15.4185 6.52558V8.42491C17.0885 8.8045 18.3351 10.2983 18.3351 12.0833C18.3351 14.1553 16.6554 15.835 14.5835 15.835C13.1669 15.835 11.9338 15.0499 11.2953 13.8912L6.6592 15.2158C6.54981 16.4964 5.47565 17.5017 4.16671 17.5017C2.78507 17.5017 1.66504 16.3816 1.66504 15C1.66504 13.6184 2.78507 12.4983 4.16671 12.4983C5.02917 12.4983 5.78969 12.9348 6.23947 13.5989L10.8371 12.2852C10.8336 12.2184 10.8318 12.1511 10.8318 12.0833C10.8318 11.6973 10.8901 11.325 10.9983 10.9746L6.39837 7.90794C5.99916 8.17756 5.51794 8.33498 4.99996 8.33498C3.61833 8.33498 2.49829 7.21495 2.49829 5.83332C2.49829 4.45168 3.61833 3.33165 4.99996 3.33165C6.38159 3.33165 7.50162 4.45168 7.50162 5.83332C7.50162 6.08754 7.4637 6.33291 7.39321 6.56407L11.8375 9.52695C12.3411 8.98623 13.0026 8.59444 13.7485 8.42491V6.52558C12.7774 6.18184 12.0818 5.25549 12.0818 4.16666ZM4.99996 5.00165C4.54064 5.00165 4.16829 5.374 4.16829 5.83332C4.16829 6.29263 4.54064 6.66498 4.99996 6.66498C5.45927 6.66498 5.83162 6.29263 5.83162 5.83332C5.83162 5.374 5.45927 5.00165 4.99996 5.00165ZM14.5835 10.0016C13.4338 10.0016 12.5018 10.9336 12.5018 12.0833C12.5018 13.233 13.4338 14.165 14.5835 14.165C15.7331 14.165 16.6651 13.233 16.6651 12.0833C16.6651 10.9336 15.7331 10.0016 14.5835 10.0016ZM4.16671 14.1683C3.70739 14.1683 3.33504 14.5407 3.33504 15C3.33504 15.4593 3.70739 15.8317 4.16671 15.8317C4.62602 15.8317 4.99837 15.4593 4.99837 15C4.99837 14.5407 4.62602 14.1683 4.16671 14.1683Z" fill="currentColor"/>
</svg>
