<svg viewBox="0 0 300 300" xmlns="http://www.w3.org/2000/svg">
  <path
    d="m155.75 89.07a11.1 11.1 0 0 0 -11.5 0l-.81.54v-27.84l-16.59 9.9a7 7 0 1 1 -9.64-10.17 5.12 5.12 0 0 1 1.87-1.34c.27-.26.54-.26.81-.53l26.76-15.79a6.53 6.53 0 0 1 7 0l27 15.79a6.93 6.93 0 0 1 2.14 9.63 6.78 6.78 0 0 1 -5.62 3.22 5.39 5.39 0 0 1 -3.48-1.07l-16.6-9.64v27.57zm-55.4 25.16-25.16-13.65 16.32-9.37a7.18 7.18 0 0 0 2.15-1.87 6.92 6.92 0 0 0 -1.88-9.64 6.49 6.49 0 0 0 -7.23-.26l-25.42 14.45a6.21 6.21 0 0 0 -2.41 1.61 6.43 6.43 0 0 0 -2.28 5.08v31.32a7.21 7.21 0 0 0 7.1 7 7.08 7.08 0 0 0 6.95-7l-.26-19.81 26 14.19v-1.88a11.47 11.47 0 0 1 5.89-10.17zm-6.43 58.89-25.69 14.72.26-19.84a6.83 6.83 0 0 0 -8-5.62c-2.93.58-5.48 2.68-5.75 5.62v31.32a7.28 7.28 0 0 0 3.35 6.16l27 15.52a5.22 5.22 0 0 0 3.48.81c3.75-.27 7-3.48 6.69-7.23a7.28 7.28 0 0 0 -3.21-5.58l-16.33-9.37 24.36-13.92a11.47 11.47 0 0 1 -5.89-10.17v-2.41zm111.89-46.57 26-14.19-.26 19.54a7.08 7.08 0 0 0 7 7 7.21 7.21 0 0 0 7.1-7v-31.32a7.27 7.27 0 0 0 -3.35-6.15s-28.46-16.07-29-16.33a7 7 0 0 0 -8.56 5.08 6.85 6.85 0 0 0 2.94 7.5l16.32 9.37-24.88 13.65.53.26a12 12 0 0 1 5.89 9.91v2.68zm-62.64 84v27.84l-16.86-9.9c-.27-.27-.53-.27-.8-.54a7.05 7.05 0 0 0 -8.57 4.82 6.67 6.67 0 0 0 2.68 7.5l27.3 15.79a7.65 7.65 0 0 0 3.48 1.07 5.39 5.39 0 0 0 3.48-1.07l27-15.79c.26-.27.53-.27.8-.54a7.07 7.07 0 0 0 -5.89-12.85 4.75 4.75 0 0 0 -1.87 1.34l-17.13 10.17v-27.8l-1.34.81a11.12 11.12 0 0 1 -11.51 0zm102.12-42.25a7.12 7.12 0 0 0 -14 0l.27 19.81-25.7-14.72v2.41a11.47 11.47 0 0 1 -5.94 10.2l24.63 13.92-16.55 9.34a6.93 6.93 0 0 0 -2.14 9.63 6.77 6.77 0 0 0 5.62 3.21 7.35 7.35 0 0 0 3.48-.8l27-15.52a7 7 0 0 0 3.35-6.16zm-39.48 5.09v-46.84l-41.76 23zm-106 12.31 43.36 24.89v-49.78zm99.58-71.47-42.56-24.62v48.18zm-105.47 12.32v46.84l41.76-23.82zm62.91 84 43.09-24.89-43.09-24.63zm-13.66-121-42.82 24.62 42.82 23.56z"
    fill="currentColor" /></svg>