<svg xmlns="http://www.w3.org/2000/svg" width="24" height="24" viewBox="0 0 24 24">
  <g fill="none" fill-rule="evenodd" stroke="#939598" stroke-linecap="round" stroke-linejoin="round" transform="matrix(1 0 0 -1 0 24)">
    <path d="M13.629,23.25 L2.25,23.25 C1.422,23.25 0.75,22.578 0.75,21.75 L0.75,2.25 C0.75,1.422 1.422,0.75 2.25,0.75 L21.75,0.75 C22.578,0.75 23.25,1.422 23.25,2.25 L23.25,13.629 C23.25,14.027 23.092,14.408 22.811,14.689 L14.689,22.811 C14.408,23.092 14.027,23.25 13.629,23.25 Z"/>
    <path d="M14.25,23.115 L14.25,15.75 C14.25,14.922 14.922,14.25 15.75,14.25 L23.115,14.25"/>
  </g>
</svg>
