<svg viewBox="0 0 300 300" xmlns="http://www.w3.org/2000/svg">
  <path
    d="m223.39 114.88-13.32 13.27v121.71l13.32-19.86zm-18.39-8.13h-6.75c1.79-19.44-4.29-38.6-15.95-49.42-5.74-5.33-12.3-8.13-19.14-8.13s-13.41 2.8-19.16 8.13c-.71.66-1.4 1.35-2.06 2.06a35.47 35.47 0 0 1 20 9.69c13 12.07 19.88 33.07 18.1 54.34h-6.74c1.79-19.42-4.3-38.61-15.95-49.42-5.72-5.32-12.33-8.13-19.12-8.13-.42 0-.83 0-1.25 0-7 11-10.29 25.83-8.81 40.85h-6.74a74.71 74.71 0 0 1 6.82-38.72 31.82 31.82 0 0 0 -9.15 6c-11.66 10.81-17.78 30-15.86 49.42h-6.74c-1.84-21.27 5.09-42.27 18.09-54.34a35.91 35.91 0 0 1 18.65-9.5 48.14 48.14 0 0 1 6.28-7.16c7-6.48 15.19-9.92 23.68-9.92s16.67 3.4 23.68 9.92c13.01 12.06 19.89 33.06 18.12 54.33zm-32 63.94v22.43h-66.76v-22.43a11 11 0 0 1 10.94-10.95h44.91a11 11 0 0 1 10.91 10.95zm-96.39-40.53v127.34h126.76v-127.34zm103.57 85.43a18.12 18.12 0 0 1 -18.09 18.1h-44.91a18.11 18.11 0 0 1 -18.09-18.1v-44.9a18.11 18.11 0 0 1 18.09-18.1h44.91a18.12 18.12 0 0 1 18.09 18.1z"
    fill="currentColor" /></svg>