<svg width="191" height="101" viewBox="0 0 185 101" fill="currentColor" xmlns="http://www.w3.org/2000/svg">
  <path fill-rule="evenodd" clip-rule="evenodd" d="M89.1251 5.9424C89.1251 2.97058 92.2815 0.00309818 95.4379 -2.59723e-07C98.594 -0.00309846 101.75 2.97058 101.75 5.94248C101.75 39.849 101.75 25.9407 101.75 95.0589C101.75 98.3401 98.924 101 95.4379 101C91.9518 101 89.1257 98.3401 89.1257 95.0589C89.1257 25.9407 89.1248 54.7022 89.1251 5.9424Z" />
  <path fill-rule="evenodd" clip-rule="evenodd" d="M38.625 6.3125L71.4257 25.25V63.125L38.625 82.0625L5.82429 63.125V25.25L38.625 6.3125Z" />
  <path fill-rule="evenodd" clip-rule="evenodd" d="M152.25 6.3125L185.051 25.25V63.125L152.25 82.0625L119.449 63.125V25.25L152.25 6.3125Z" />
</svg>
