<svg viewBox="0 0 300 300" xmlns="http://www.w3.org/2000/svg">
  <path
    d="m229.23 53.87c-4.4-.19-8.8 0-13.2 0h-94.24c-13.85 0-22.63 7.56-24.79 21-.51 3.19-.88 6.38-1.12 9.6-2.45 33.63-9 114.05-9.76 120.88-8.93 0-17.16.23-25.36-.07-5.2-.19-8.64 1.66-8.61 7v5.23c-.32 18.21 5.36 27.81 23.92 28.65 2.05.09 6.16.12 6.16.12h99.77a25.86 25.86 0 0 0 12.31-2.29 16.23 16.23 0 0 0 9.6-13v-.13c.1-.83 5.46-65.65 5.46-65.65h.06l.77-9.38h-.1c.29-3 4.57-53.5 5.24-61.44h32.54l-.26-4.69v-15c.05-12.25-6.14-20.31-18.39-20.83zm-71.9 183h-77.43a39.62 39.62 0 0 1 -8.61-1.21c-8.68-2-13.16-9.48-10.27-17.68.54-1.53 2.58-3 4.24-3.5 1.85-.61 4-.2 6.12-.2h87.16a4.57 4.57 0 0 1 4.56 4.57v12.34a5.7 5.7 0 0 1 -5.71 5.71zm49.41-149.76c-1.72 18.31-9.43 115.23-10.65 133.6-.6 9-5.27 14.35-13.11 14.65-6.73.25-10.72-3.67-10.88-10.4v-9.54c1.4-8.27.64-10-7.75-10h-61.67c-2 0-4-.19-7-.35.63-10.59 9.78-125.63 10.71-131.09 1.14-6.67 7.41-11 16.91-11.16h86.27c-1.01 8.75-2.09 16.53-2.83 24.29zm33.15-2.24h-22.11l2.08-19.62c3.76-2.23 11.68-3.35 16-.25 7.39 5.34 3.58 12.63 4.03 19.87zm-50.56 4.79h-71a3.35 3.35 0 0 1 0-6.7h71a3.35 3.35 0 0 1 0 6.7zm-1.54 19.17h-71a3.35 3.35 0 0 1 0-6.7h71a3.35 3.35 0 0 1 0 6.7zm-1.56 19.17h-70.95a3.35 3.35 0 0 1 0-6.7h70.95a3.35 3.35 0 1 1 0 6.7zm-1.53 19.14h-70.95a3.35 3.35 0 1 1 0-6.7h70.95a3.35 3.35 0 1 1 0 6.7zm-1.53 19.17h-70.95a3.35 3.35 0 0 1 0-6.7h70.95a3.35 3.35 0 1 1 0 6.7zm-1.53 19.14h-70.95a3.35 3.35 0 0 1 0-6.7h70.95a3.35 3.35 0 0 1 0 6.7z"
    fill="currentColor" /></svg>