<svg width="20" height="20" viewBox="0 0 20 20" fill="none" xmlns="http://www.w3.org/2000/svg">
<path fill-rule="evenodd" clip-rule="evenodd" d="M3.33614 8.42172L3.33587 8.41967C3.33386 8.40346 3.3313 8.38172 3.32848 8.3548C3.32285 8.30099 3.31612 8.2263 3.31045 8.13368C3.29913 7.94883 3.2919 7.69031 3.30658 7.38213C3.33569 6.77085 3.45226 5.93613 3.81586 5.08772C4.18313 4.23076 4.804 3.35847 5.82777 2.70698C6.84868 2.05731 8.21072 1.66498 10 1.66498C11.7893 1.66498 13.1513 2.05731 14.1722 2.70698C15.196 3.35847 15.8169 4.23076 16.1841 5.08772C16.5478 5.93613 16.6643 6.77085 16.6934 7.38213C16.7081 7.69031 16.7009 7.94883 16.6896 8.13368C16.6839 8.2263 16.6772 8.30099 16.6715 8.3548C16.6687 8.38172 16.6662 8.40346 16.6641 8.41967L16.6639 8.42174C16.663 8.43063 16.662 8.43972 16.6608 8.449L15.8321 16.3211C15.8307 16.3379 15.8289 16.3557 15.8264 16.3743C15.82 16.4221 15.8095 16.4754 15.7931 16.533C15.7598 16.6495 15.704 16.7773 15.6166 16.9084C15.4407 17.1724 15.16 17.416 14.7484 17.6218C13.9489 18.0216 12.5426 18.335 10 18.335C7.45735 18.335 6.05105 18.0216 5.25155 17.6218C4.83999 17.4161 4.55928 17.1724 4.38333 16.9085C4.29589 16.7773 4.24011 16.6495 4.20684 16.5331C4.19038 16.4755 4.17986 16.4222 4.17349 16.3744C4.171 16.3557 4.16914 16.338 4.16781 16.3212L3.33924 8.44906C3.33805 8.43975 3.33702 8.43063 3.33614 8.42172ZM5.17537 9.93979L5.81508 16.0175C5.85021 16.0446 5.90802 16.0829 5.99838 16.1281C6.44892 16.3534 7.54265 16.665 10 16.665C12.4574 16.665 13.551 16.3534 14.0015 16.1281C14.0919 16.083 14.1497 16.0446 14.1848 16.0176L14.8246 9.93977C13.8682 10.2164 12.3721 10.4183 9.99993 10.4183C7.62785 10.4183 6.13174 10.2164 5.17537 9.93979ZM14.9479 6.76383C14.8903 6.43862 14.7968 6.08991 14.6492 5.74557C14.3914 5.14419 13.9706 4.55815 13.2757 4.11589C12.5778 3.67181 11.544 3.33498 10 3.33498C8.45597 3.33498 7.42219 3.67181 6.72435 4.11589C6.02937 4.55815 5.60857 5.14419 5.35083 5.74557C5.20326 6.0899 5.10975 6.4386 5.05216 6.7638C6.0017 6.46834 7.52341 6.24831 9.99993 6.24831C12.4765 6.24831 13.9983 6.46836 14.9479 6.76383ZM14.3689 8.33331C13.6529 8.12462 12.3415 7.91831 9.99993 7.91831C7.65835 7.91831 6.34696 8.12462 5.63097 8.33331C6.34696 8.542 7.65835 8.74831 9.99993 8.74831C12.3415 8.74831 13.6529 8.54201 14.3689 8.33331ZM14.232 15.9753C14.232 15.9753 14.2318 15.9756 14.2313 15.9762L14.232 15.9753Z" fill="currentColor"/>
</svg>
