<svg viewBox="0 0 300 300" xmlns="http://www.w3.org/2000/svg">
  <g fill="currentColor">
    <path
      d="m157.79 82.38v10a62.29 62.29 0 0 1 47 92l12.9 9.24a22.88 22.88 0 0 1 12.66-3.89 19.55 19.55 0 0 1 6.57 1v-83.73l-65.75-37.76a21.72 21.72 0 0 1 -13.38 13.14z" />
    <path
      d="m207.68 212.35a19.05 19.05 0 0 1 1-6.33l-12.9-9.25a62.41 62.41 0 0 1 -91 0l-12.95 9.23a26.19 26.19 0 0 1 1 6.33 24.3 24.3 0 0 1 -2.43 10.22l59.87 34.56 59.88-34.56a21.07 21.07 0 0 1 -2.47-10.2z" />
    <path
      d="m70.17 189.71a22.91 22.91 0 0 1 12.66 3.89l12.9-9.24a62.29 62.29 0 0 1 47-92v-10a21.51 21.51 0 0 1 -13.42-13.36l-65.71 38v83.72a27 27 0 0 1 6.57-1.01z" />
    <path
      d="m230.07 194.58a17.48 17.48 0 0 0 -12.41 5.11l-19.47-14.12a57.3 57.3 0 0 0 -45.27-88.83v-18.26a17.58 17.58 0 0 0 14.85-17.48 17.77 17.77 0 1 0 -20.69 17.52v18.22a57.52 57.52 0 0 0 -54.76 57.44 55.57 55.57 0 0 0 9.49 31.39l-19.47 14.12a17.48 17.48 0 0 0 -12.41-5.11 17.81 17.81 0 1 0 15.82 9.73l19.47-14.11a57.17 57.17 0 0 0 44.78 21.42 57.92 57.92 0 0 0 44.78-21.42l19.47 14.11a17.75 17.75 0 1 0 15.82-9.73zm-159.9 29.69a12.17 12.17 0 1 1 12.17-12.17 12.2 12.2 0 0 1 -12.17 12.17zm67.9-163.07a12.17 12.17 0 1 1 12.17 12.17 12.05 12.05 0 0 1 -12.17-12.17zm12.17 144.8a51.86 51.86 0 0 1 -40.16-19.23 32.73 32.73 0 0 1 -3.16-4.62 50.46 50.46 0 0 1 -8.27-28 51.64 51.64 0 0 1 49.16-51.6c1 0 1.95-.24 2.68-.24a12 12 0 0 1 2.92.24 51.76 51.76 0 0 1 48.92 51.6 51 51 0 0 1 -8.28 28c-1 1.47-2.19 3.16-3.16 4.62a52.86 52.86 0 0 1 -40.65 19.23zm77.89 18.25a12.29 12.29 0 0 1 -9.74-9 11.35 11.35 0 0 1 .49-7.55v-.24a11.16 11.16 0 0 1 3.12-4.36 12.3 12.3 0 0 1 11.44-2.44 11.92 11.92 0 0 1 8 8.28c2.39 8.79-4.56 16.63-13.31 15.33z" />
  </g>
</svg>