<svg height="23" viewBox="0 0 21 23" width="21" xmlns="http://www.w3.org/2000/svg"
  xmlns:xlink="http://www.w3.org/1999/xlink">
  <mask id="a" fill="currentColor">
    <path d="m0 0h21v23h-21z" fill="currentColor" fill-rule="evenodd" />
  </mask>
  <path
    d="m14.4433886 15.0783995c.0937455-.1409032.2124808-.3042697.3047066-.4461539.5004712-.7696393.7970054-1.6907705.7970054-2.7005034 0-2.65354686-2.0862083-4.83739392-4.7115882-4.9782971-.0937455-.02347822-.1875248-.02347822-.281304-.02347822-.0703091 0-.1640546.02347822-.2578338.02347822-2.64878255.14090318-4.73502466 2.30127202-4.73502466 4.9782971 0 .9862546.28130398 1.9255528.79700541 2.7005034.09374548.1643814.18840274.3045403.30470657.4461539.92117764 1.1214405 2.2972032 1.8551181 3.86774388 1.8551181 1.5470705 0 2.9535228-.7044483 3.9145828-1.8551181m6.5566114 3.107042c0 1.0466417-.8619451 1.9101261-1.9067209 1.9101261s-1.9067208-.8634844-1.9067208-1.9101261c0-.3140128.0783463-.601841.2089349-.8634845l-2.0895516-1.517627c-1.1231222 1.3868053-2.8731165 2.3025914-4.8059416 2.3025914-1.93282507 0-3.68285321-.8896353-4.80597536-2.3025914l-2.08955156 1.517627c.13058853.2616435.20896866.5495055.20896866.8634845 0 1.0466417-.86194509 1.9101261-1.90672087 1.9101261s-1.90672087-.8634844-1.90672087-1.9101261.86194509-1.9101261 1.90672087-1.9101261c.52235412 0 .99253362.209308 1.33205704.5494716l2.08955157-1.517627c-.65294265-.9681216-1.01863782-2.1194342-1.01863782-3.3754178 0-3.32308223 2.61193946-6.01820655 5.87685534-6.17517912v-1.96246161c-.88804928-.1570064-1.59326787-.94197075-1.59326787-1.88397533 0-1.04664168.86194509-1.91012614 1.90672087-1.91012614 1.0447758 0 1.9066871.86348446 1.9066871 1.91012614 0 .9681554-.6790806 1.72696893-1.5932679 1.88397533v1.96246161c3.2649159.15697257 5.8768891 2.87824771 5.8768891 6.17517912 0 1.2559836-.3917993 2.4072962-1.0186715 3.3754178l2.0895515 1.517627c.3395572-.3401636.8097029-.5494716 1.3320908-.5494716 1.0447758 0 1.9067209.8634844 1.9067209 1.9101261m-5.2613974 0c0-.0895826.0035796-.1787593.0107389-.2674623l-.2864033-.2079887c-1.3752488 1.1734038-3.1511785 1.8474725-4.9629382 1.8474725-1.85869995 0-3.6095048-.6582699-4.97259646-1.8405034l-.2767788.2010196c.00719301.088703.01077263.1778797.01077263.2674623 0 .5590456-.13778154 1.0862231-.37984479 1.5504763l5.64455162 3.2640822 5.6042978-3.2407732c-.2496953-.4698351-.3917994-1.0054025-.3917994-1.5737853m-3.1931546-13.61145023c1.3130445.36377717 2.5123517 1.07894961 3.4774304 2.09040779 1.3641385 1.42960062 2.1153856 3.30024681 2.1153856 5.26734314 0 1.0058762-.2054904 2.0023476-.6012071 2.938601l.2819119.2047071c.3982156-.1642123.8293908-.2503104 1.2742766-.2503104.2512486 0 .4957771.028722.7313565.0814296v-8.0506631l-6.2517359-3.59534849c-.226833.51814481-.5807424.97018522-1.027418 1.31383336m-11.31784152 10.32006693v-8.0385518l6.20692317-3.5925744c.13278358.2983832.30892782.57897167.52603505.83110887.151661.17612052.32020699.33532589.5021259.47562012-3.24583584.88794377-5.60095457 3.854996-5.60095457 7.36208121 0 1.0270201.20248483 2.0250815.59246061 2.9449273l-.2731654.1984146c-.3982832-.1642461-.82939082-.2503442-1.27434414-.2503442-.23260765 0-.4597108.0239519-.67908062.0693183"
    fill="currentColor" fill-rule="evenodd" />
</svg>