<svg height="18" viewBox="0 0 18 18" width="18" xmlns="http://www.w3.org/2000/svg"
  xmlns:xlink="http://www.w3.org/1999/xlink">
  <g fill="currentColor" fill-rule="evenodd">
    <path
      d="m13.8408 5.480919c-.8277143 0-1.4991429-.63423-1.4991429-1.41669s.6714286-1.41669 1.4991429-1.41669 1.4988571.63423 1.4988571 1.41669-.6711428 1.41669-1.4988571 1.41669m3.174-5.38083h-16.046c-.53514286 0-.96857143.40986-.96857143.9153v6.09768c0 .50544.43342857.91557.96857143.91557h16.046c.5348571 0 .9688571-.41013.9688571-.91557v-6.09768c0-.50544-.434-.9153-.9688571-.9153" />
    <path
      d="m13.9275714 5.552388c-.8277143 0-1.4991428-.63423-1.4991428-1.41669s.6714285-1.41642 1.4991428-1.41642 1.4991429.63396 1.4991429 1.41642-.6714286 1.41669-1.4991429 1.41669m3.0874286-5.38083h-16.046c-.53542857 0-.96885714.40986-.96885714.9153v6.09768c0 .50544.43342857.91557.96885714.91557h16.046c.5348571 0 .9685714-.41013.9685714-.91557v-6.09768c0-.50544-.4337143-.9153-.9685714-.9153"
      transform="translate(0 9.9)" />
  </g>
</svg>