<svg viewBox="0 0 300 300" xmlns="http://www.w3.org/2000/svg" xmlns:xlink="http://www.w3.org/1999/xlink">
  <clipPath id="a">
    <path clip-rule="evenodd"
      d="m74.08 219.65a18.88 18.88 0 0 0 7.47 13.71 20.51 20.51 0 0 0 12.38 4.14 21.86 21.86 0 0 0 3.23-.25l29-57.74zm75.92 10.77a92.5 92.5 0 0 1 -14-1.08 10.36 10.36 0 0 1 -8.88-11.79 10.7 10.7 0 0 1 12.25-8.55 69.68 69.68 0 0 0 10.63.82c36.43 0 66.06-28.44 66.06-63.39s-29.63-63.36-66.06-63.36-66.06 28.43-66.06 63.39a60.59 60.59 0 0 0 6.8 28 10.1 10.1 0 0 1 -4.86 13.77 10.93 10.93 0 0 1 -14.36-4.66 80.33 80.33 0 0 1 -9-37.16 81.73 81.73 0 0 1 25.61-59.32 90.13 90.13 0 0 1 123.74 0 81.57 81.57 0 0 1 0 118.73 88.81 88.81 0 0 1 -61.87 24.6z" />
  </clipPath>
  <path
    d="m74.08 219.65a18.88 18.88 0 0 0 7.47 13.71 20.51 20.51 0 0 0 12.38 4.14 21.86 21.86 0 0 0 3.23-.25l29-57.74zm75.92 10.77a92.5 92.5 0 0 1 -14-1.08 10.36 10.36 0 0 1 -8.88-11.79 10.7 10.7 0 0 1 12.25-8.55 69.68 69.68 0 0 0 10.63.82c36.43 0 66.06-28.44 66.06-63.39s-29.63-63.36-66.06-63.36-66.06 28.43-66.06 63.39a60.59 60.59 0 0 0 6.8 28 10.1 10.1 0 0 1 -4.86 13.77 10.93 10.93 0 0 1 -14.36-4.66 80.33 80.33 0 0 1 -9-37.16 81.73 81.73 0 0 1 25.61-59.32 90.13 90.13 0 0 1 123.74 0 81.57 81.57 0 0 1 0 118.73 88.81 88.81 0 0 1 -61.87 24.6z"
    fill="currentColor" fill-rule="evenodd" />
  <g clip-path="url(#a)">
    <path d="m16.45 16.45h267.11v267.11h-267.11z" fill="currentColor" />
  </g>
</svg>