<svg width="24" height="19" viewBox="0 0 24 19" xmlns="http://www.w3.org/2000/svg">
<path d="M4.59883 5.80765C4.8061 5.80765 5.00795 5.82646 5.20822 5.85359C5.38275 2.59091 8.0497 0 11.3149 0C13.9793 0 16.009 1.96509 16.8477 4.37348C17.2955 4.25456 18.0007 3.95205 18.4844 3.95205C21.5305 3.95205 24 6.45326 24 9.53863C24 12.6239 21.5305 15.1251 18.4844 15.1251C18.1603 15.1251 17.7573 15.1251 17.2991 15.1251V15.6039C17.3017 17.5763 16.002 18.9082 13.9463 19H10.0455C9.1127 19 8.30896 18.6819 7.72098 18.0811C6.7872 17.1288 6.69681 15.8156 6.70123 15.3045V15.1251C5.75487 15.1251 5.008 15.1251 4.59888 15.1251C2.05914 15.1251 4.76837e-05 13.0401 4.76837e-05 10.4658C0 7.89375 2.05909 5.80765 4.59883 5.80765ZM7.63674 15.3045C7.62699 16.4081 8.14551 18.057 10.0534 18.0519H13.9463C15.5018 17.983 16.3656 17.0579 16.3638 15.6049V15.1251V12.8669C16.3715 11.4004 15.5026 11.0614 15.5026 11.0614V9.08803C15.5026 8.67292 14.8597 6.19359 11.947 6.21342C9.08337 6.23117 8.42354 8.67292 8.42354 9.08803V11.0614C8.42354 11.0614 7.65167 11.4568 7.63679 12.8669V15.1251V15.3045H7.63674Z" fill="currentColor"/>
<path d="M12.0337 12.6562C12.7223 12.6562 13.2812 13.2226 13.2812 13.9193C13.2812 14.4534 12.9535 14.9102 12.4911 15.0938V15.1251V16.336C12.4911 16.5906 12.2869 16.7971 12.0357 16.7971C11.7842 16.7971 11.5794 16.5906 11.5794 16.336V15.1251V15.0948C11.1163 14.9113 10.7878 14.4554 10.7878 13.9193C10.7879 13.2226 11.3458 12.6562 12.0337 12.6562Z" fill="currentColor"/>
<path d="M11.9112 7.42328C13.0771 7.40247 14.3544 8.13779 14.3397 9.44997V11.0344C14.3397 11.0437 14.3384 11.0521 14.3384 11.0614H9.58901C9.58901 11.0521 9.58848 11.0437 9.58848 11.0344V9.44997C9.59645 8.30674 10.7444 7.44414 11.9112 7.42328Z" fill="currentColor"/>
</svg>
