<?xml version="1.0" encoding="utf-8"?>
<!-- Generator: Adobe Illustrator 23.0.3, SVG Export Plug-In . SVG Version: 6.00 Build 0)  -->
<svg version="1.1" id="Layer_1" xmlns="http://www.w3.org/2000/svg" xmlns:xlink="http://www.w3.org/1999/xlink" x="0px" y="0px"
	 viewBox="0 0 208 208" style="enable-background:new 0 0 208 208;" xml:space="preserve">
<style type="text/css">
</style>
<title>linode</title>
<desc>Created with Sketch.</desc>
<g id="UI-Kit">
	<g id="sticker-sheet-" transform="translate(-288.000000, -3133.000000)">
		<g id="icons" transform="translate(254.000000, 2699.000000)">
			<g id="null-state-icons" transform="translate(0.000000, 365.000000)">
				<g id="linode" transform="translate(40.000000, 75.000000)">
					<circle id="background" class="outerCircle" stroke="currentColor" fill-rule="evenodd" clip-rule="evenodd" stroke-width="11" cx="98" cy="98" r="98"/>
				</g>
			</g>
		</g>
	</g>
</g>
<g class="insidePath">
	<g>
		<g>
			<path d="M104,130.4c-28.4,0-51.5-23.1-51.5-51.5v-10c0-1.1,0.9-2,2-2h6.8c1.1,0,2,0.9,2,2s-0.9,2-2,2h-4.7v7.9
				c0,26.2,21.3,47.5,47.5,47.5s47.5-21.3,47.5-47.5v-7.9h-4.7c-1.1,0-2-0.9-2-2s0.9-2,2-2h6.8c1.1,0,2,0.9,2,2v10
				C155.5,107.3,132.4,130.4,104,130.4z"/>
		</g>
		<g>
			<path d="M131.2,153.8H76.8c-4.6,0-8.3-4.2-8.6-9.6l-9.5-87.7c-0.1-0.6,0.1-1.2,0.5-1.6c0.4-0.4,1-0.7,1.5-0.7
				l86.4,0.5c0.6,0,1.1,0.3,1.5,0.7c0.4,0.4,0.6,1,0.5,1.6l-9.4,87.2C139.5,149.6,135.8,153.8,131.2,153.8z M63.1,58.3l9.2,85.5
				c0,0,0,0.1,0,0.1c0.2,3.2,2.2,5.7,4.5,5.7h54.4c2.4,0,4.4-2.5,4.5-5.7c0,0,0-0.1,0-0.1l9.2-85L63.1,58.3z"/>
		</g>
	</g>
	<g>
		<path d="M78.2,112.6c-1,0-1.9-0.8-2-1.8l-4.8-44.6c-0.1-1.1,0.7-2.1,1.8-2.3c1.1-0.1,2.1,0.7,2.3,1.8l4.8,44.6
			c0.1,1.1-0.7,2.1-1.8,2.3C78.4,112.6,78.3,112.6,78.2,112.6z"/>
	</g>
	<g>
		<path stroke-width="4.1" stroke-linecap="round" stroke-linejoin="round" stroke-miterlimit="10" d="M78.4,111.9"/>
	</g>
	<g>
		<path d="M81.5,143.5c-1,0-1.9-0.8-2-1.8l-1.1-10.1c-0.1-1.1,0.7-2.1,1.8-2.3c1.1-0.1,2.1,0.7,2.3,1.8l1.1,10.1
			c0.1,1.1-0.7,2.1-1.8,2.3C81.7,143.4,81.6,143.5,81.5,143.5z"/>
	</g>
</g>
</svg>
