<?xml version="1.0" encoding="UTF-8"?>
<svg width="48px" height="48px" viewBox="0 0 48 48" version="1.1" xmlns="http://www.w3.org/2000/svg" xmlns:xlink="http://www.w3.org/1999/xlink">
    <!-- Generator: Sketch 54.1 (76490) - https://sketchapp.com -->
    <title>LKE_dropdown</title>
    <desc>Created with Sketch.</desc>
    <g id="LKE_dropdown" stroke="none" stroke-width="1" fill="none" fill-rule="evenodd">
        <g id="linode">
            <g id="Oval-2">
                <g id="path-1-link">
                    <circle id="path-1" cx="24" cy="24" r="24"></circle>
                </g>
                <circle id="Oval" stroke="currentColor" stroke-width="2" cx="24" cy="24" r="23" class="outerCircle"></circle>
            </g>
        </g>
        <g id="LKE_icon" transform="translate(12.000000, 12.000000)" stroke="#939598" stroke-linecap="round" stroke-linejoin="round" class="insidePath">
            <polygon id="Path" stroke-width="0.875" points="12.5 2.42553191 8.29081633 0 4.08163265 2.42553191 4.08163265 2.42553191 8.29081633 4.85106383 8.29081633 4.85106383"></polygon>
            <polygon id="Path" stroke-width="0.875" points="12.5 2.4 8.41836735 4.78222318 8.41836735 9.54893617 12.5 7.16444636"></polygon>
            <polygon id="Path" stroke-width="0.875" points="4.09 2.4 4.09 7.16444636 8.17163265 9.54893617 8.17163265 4.78222318"></polygon>
            <polygon id="Path" stroke-width="0.875" points="8.41836735 9.57562145 4.20802762 7.14893617 0 9.57562145 0 9.57562145 4.20802762 12 4.20802762 12"></polygon>
            <polygon id="Path" stroke-width="0.875" points="8.16326531 9.70212766 4.08163265 12.0851064 4.08163265 16.8510638 8.16326531 14.4680851"></polygon>
            <polygon id="Path" stroke-width="0.875" points="0 9.70212766 0 14.4680851 4.08163265 16.8510638 4.08163265 12.0851064"></polygon>
            <polygon id="Path" stroke-width="0.875" points="12.5 16.7245576 8.29081633 14.2978723 4.08163265 16.7245576 4.08163265 16.7245576 8.29081633 19.1489362 8.29081633 19.1489362"></polygon>
            <polygon id="Path" stroke-width="0.875" points="12.5 16.8510638 8.41836735 19.233287 8.41836735 24 12.5 21.6155102"></polygon>
            <polygon id="Path" stroke-width="0.875" points="4.08163265 16.8510638 4.08163265 21.6155102 8.16326531 24 8.16326531 19.233287"></polygon>
            <polygon id="Path" stroke-width="0.875" points="20.9183673 2.42553191 16.7091837 0 12.5 2.42553191 12.5 2.42553191 16.7091837 4.85106383 16.7091837 4.85106383"></polygon>
            <polygon id="Path" stroke-width="0.875" points="20.9183673 2.4 16.8367347 4.78222318 16.8367347 9.54893617 20.9183673 7.16444636"></polygon>
            <polygon id="Path" stroke-width="0.875" points="12.5 2.4 12.5 7.16444636 16.5816327 9.54893617 16.5816327 4.78222318"></polygon>
            <polygon id="Path" stroke-width="0.875" points="20.9183673 16.7245576 16.7091837 14.2978723 12.5 16.7245576 12.5 16.7245576 16.7091837 19.1489362 16.7091837 19.1489362"></polygon>
            <polygon id="Path" stroke-width="0.875" points="20.9183673 16.8510638 16.8367347 19.233287 16.8367347 24 20.9183673 21.6155102"></polygon>
            <polygon id="Path" stroke-width="0.875" points="12.5 16.8510638 12.5 21.6155102 16.5816327 24 16.5816327 19.233287"></polygon>
            <polygon id="Path" stroke-width="0.875" points="25 9.57562145 20.7908163 7.14893617 16.5816327 9.57562145 16.5816327 9.57562145 20.7908163 12 20.7908163 12"></polygon>
            <polygon id="Path" stroke-width="0.875" points="25 9.70212766 20.9183673 12.0851064 20.9183673 16.8510638 25 14.4680851"></polygon>
            <polygon id="Path" stroke-width="0.875" points="16.8367347 9.70212766 16.8367347 14.4680851 20.9183673 16.8510638 20.9183673 12.0851064"></polygon>
            <polygon id="Path" stroke-width="0.98" fill="#FFFFFF" fill-rule="nonzero" points="16.8367347 9.57562145 12.627551 7.14893617 8.41836735 9.57562145 8.41836735 9.57562145 12.627551 12 12.627551 12"></polygon>
            <polygon id="Path" stroke-width="0.98" fill="#FFFFFF" fill-rule="nonzero" points="16.5816327 9.70212766 12.5 12.0851064 12.5 16.8510638 16.5816327 14.4680851"></polygon>
            <polygon id="Path" stroke-width="0.98" fill="#FFFFFF" fill-rule="nonzero" points="8.41836735 9.70212766 8.41836735 14.4680851 12.5 16.8510638 12.5 12.0851064"></polygon>
        </g>
    </g>
</svg>