<svg height="50px" enable-background="new 0 0 72 72" viewBox="0 0 72 72" xmlns="http://www.w3.org/2000/svg"><path d="m22.3 32.2c1.3-.2 2.2-.7 2.7-1.7.3-.5.4-1.3.4-2.2 0-2-.7-3.4-2.1-4.3s-3.4-1.3-6-1.3c-3 0-5.2.8-6.4 2.5-.9.8-1.3 2.1-1.5 3.9h-5.5c.1-4.3 1.5-7.2 4.1-8.9 2.7-1.7 5.7-2.5 9.2-2.5 4.1 0 7.4.8 9.9 2.3 2.5 1.6 3.8 4 3.8 7.2v19.9c0 .6.1 1.1.4 1.5.2.4.8.5 1.6.5h.9c.3 0 .7-.1 1-.1v4.3c-.9.3-1.6.4-2.1.5s-1.1.1-1.9.1c-2 0-3.5-.7-4.4-2.1-.5-.8-.8-1.8-1-3.2-1.2 1.5-2.9 2.9-5.1 4s-4.7 1.7-7.3 1.7c-3.2 0-5.8-1-7.9-2.9-2-1.9-3.1-4.4-3.1-7.3 0-3.2 1-5.7 3-7.4 2-1.8 4.6-2.8 7.9-3.3zm-12.3 15.7c1.2 1 2.7 1.4 4.4 1.4 2 0 4-.5 5.9-1.4 3.2-1.6 4.8-4.1 4.8-7.7v-4.7c-.7.5-1.6.8-2.7 1.1s-2.2.5-3.3.6l-3.5.5c-2.1.3-3.7.7-4.7 1.3-1.8 1-2.7 2.6-2.7 4.8 0 1.8.6 3.1 1.8 4.1zm47.3-15.7c1.3-.2 2.2-.7 2.7-1.7.3-.5.4-1.3.4-2.2 0-2-.7-3.4-2.1-4.3s-3.4-1.3-6-1.3c-3 0-5.2.8-6.4 2.5-.7.9-1.2 2.3-1.4 4.1h-5.5c.1-4.3 1.5-7.2 4.1-8.9 2.7-1.7 5.7-2.5 9.2-2.5 4.1 0 7.4.8 9.9 2.3 2.5 1.6 3.8 4 3.8 7.2v19.9c0 .6.1 1.1.4 1.5.2.4.8.5 1.6.5h.9c.3 0 .7-.1 1-.1v4.3c-.9.3-1.6.4-2.1.5s-1.1.1-1.9.1c-2 0-3.5-.7-4.4-2.1-.5-.8-.8-1.8-1-3.2-1.2 1.5-2.9 2.9-5.1 4s-4.7 1.7-7.3 1.7c-3.2 0-5.8-1-7.9-2.9-2-1.9-3.1-4.4-3.1-7.3 0-3.2 1-5.7 3-7.4s4.6-2.8 7.9-3.3zm-12.2 15.7c1.2 1 2.7 1.4 4.4 1.4 2 0 4-.5 5.9-1.4 3.2-1.6 4.8-4.1 4.8-7.7v-4.7c-.7.5-1.6.8-2.7 1.1s-2.2.5-3.3.6l-3.5.5c-2.1.3-3.7.7-4.8 1.3-1.8 1-2.7 2.6-2.7 4.8 0 1.8.7 3.1 1.9 4.1z" fill="#20a53a"/></svg>