<svg height="40px" enable-background="new 0 0 72 72" viewBox="0 0 72 72" xmlns="http://www.w3.org/2000/svg"><g fill="#6da252"><path d="m21.3 52.1c-4.2-3.8-6.8-9.2-7.1-15.3h-13.7c.3 10.2 4.8 19.3 11.9 25.7z"/><path d="m45.3 55.7c-2.8 1.3-6 2.1-9.3 2.1-5.1 0-9.7-1.7-13.4-4.6l-8.9 10.4c6.1 4.9 13.9 7.9 22.3 7.9 5.7 0 11-1.3 15.7-3.7z"/><path d="m36 .5c-19.3 0-35 15.4-35.5 34.6h13.7c.5-11.6 10-20.9 21.8-20.9 12 0 21.8 9.8 21.8 21.8 0 8.1-4.4 15.2-11 18.9l6.5 12.1c1.6-.9 3.1-1.9 4.5-3v7.5h13.7v-35.5c0-19.6-15.9-35.5-35.5-35.5z"/></g></svg>