<svg viewBox="0 0 1000 1000" xmlns="http://www.w3.org/2000/svg"><path d="m881 502.4c-.8-1.7-1.2-2.6-1.6-3.4-11.5-21.9-23-43.8-34.6-65.7s-1-3.5.6-5.4c18.2-21.5 36.4-42.9 54.7-64.2.6-.8 1.2-1.5 1.5-2.9-5.3 1.4-60.4 15.9-82.3 21.8s-3 0-4-1.8l-37.9-62.7c-.7-1.1-1.4-2.1-2.7-3-1 5.6-10.1 56.1-13.6 75.9-.4 2.1-.9 4.3-1.1 6.4s-1.2 2.8-3.1 3.4l-78.1 24.7c-1.1.4-2.3.8-3.5 1.9l64.2 25.5c-.8.6-1.3 1.1-1.9 1.5-13.3 8.6-26.7 17.2-40 25.9-1.6 1-2.9 1.2-4.6.4-15.9-7.2-32-14.2-47.9-21.3s-13.6-7.4-18.6-13.6c-11.3-13.9-9.1-29.6 6-39.4s10.6-5.5 16.2-7.3c25.5-8.3 51.2-16.3 76.6-24.4s3.1-1.6 3.6-4c3.5-19.8 7-39.6 10.5-59.2s2.9-21.4 8-31.1 4.3-7.4 7.2-10.5c10.2-11.3 24.4-11.7 35.2-1s6.7 7.9 9.4 12.3c11.8 19.3 23.5 38.8 35.2 58.3s2.6 2.8 5.1 2.1c28.6-7.6 57.1-15.2 85.8-22.8s11.9-2.1 17.9-1c13.2 2.5 18.9 12.5 14.5 25.2s-5.5 10.7-9.5 15.3l-59.8 70.4c-1.6 1.9-1.7 3.3-.5 5.4l35.8 67.8c2.8 5.4 5 11 5.1 17.2.1 14.1-10.2 25.6-24.2 27.7s-15.1-.5-22.5-2.8c-17.9-5.5-35.8-11-53.9-16.4-1.7-.5-2.3-1.2-2.6-2.9-2.1-12.6-4.4-25.2-6.5-37.9s0-.7.1-1.5l61.8 17-.3-.3z" fill="#e25a1c" fill-rule="evenodd"/><g fill="#3c3a3e"><path d="m845.5 687.4c-16.2 0-32.3 0-48.5 0s-3.3-.6-4.5-2.4c-19.1-29.2-58.7-89.1-59.8-90.7l-12.2 92.9h-42.3c.5-4.1 21.8-167.1 25.8-197.3.1-.9.7-2 1.4-2.5 14.6-9.5 29.2-18.8 43.8-28.3s.5-.2 1.3-.4l-13.2 100.6c.2.1.3.2.5.4 22.9-25.4 45.9-50.9 69.2-76.6.7 3.9 5 29.8 6.8 39.3s-.2 3.1-1.4 4.5c-14.8 15.6-45.7 48.1-46.4 49 .5.7.9 1.5 1.4 2.1l76.4 107.4c.5.6 1.1 1.2 1.7 1.7v.6-.2z" fill-rule="evenodd"/><path d="m345.4 592.7c-.6-3.3-1.1-8.1-2.6-12.7-7.1-21.9-29.5-33.8-52.7-28.4s-43.7 26-46.2 52.1 8.4 37.8 27.6 44.7 30.5 3.3 44.4-5.1c18.4-11 28.3-27.4 29.6-50.6h-.2zm-111.9 81.4c-1.2 9.4-6.7 50.7-8.2 62.6s-.6 2-2.1 2c-11.6 0-23.3 0-34.9 0-.3 0-.5-.1-1.2-.3.7-5.6 7.2-55.8 9.8-75.3s5.3-44.7 9.1-66.9c6.8-39.4 40.2-73.2 79.3-81.7 22.7-4.9 44.4-2.6 64.2 10.2 19.8 12.7 31.1 31.4 33.7 54.5 3.7 32.8-8.4 60.2-31.7 82.9s-33.7 24.3-54.7 27.4-42.3-.3-60.7-13.2-1.4-.9-2.6-1.6l-.3-.5z" fill-rule="evenodd"/><path d="m214 487.6-38.2 28.4c-2-3.2-3.8-6.4-6-9.4-5.5-7.7-12.3-13.4-22.2-14.1s-15.3 2.1-20.9 8.2-5.7 13.1-1 19.3 10.8 13.1 16.5 19.4c9.6 10.4 19.5 20.3 29 30.8s15.5 20.1 17.6 33.1-.5 29.9-7.8 43.5c-13.4 25-34.6 39.6-62.7 44.1s-24.7 1.6-36.7-1.9-27.2-15.2-34.3-29.9-4.5-10.8-6.7-16.4l41.4-22.2c.5 1.1.8 2.1 1.3 3 2.3 4.7 4.3 9.7 7.2 14.1 8.6 12.9 22.6 16.8 36.7 10.4 3.6-1.6 7.2-3.9 10.2-6.6 9.1-8.1 10.8-19.4 4.1-29.6s-8.7-11.1-13.5-16.4c-11.3-12.5-23-24.7-34-37.6s-12.8-19.1-14.4-30.8.8-25 7.5-35.8c16.7-26.9 40.8-41 72.8-40s32.8 9.2 44.1 23.4 6.5 8.6 9.9 13.1l.2-.3z" fill-rule="evenodd"/><path d="m522.9 631.2c-2.1 16.2-4.1 31.7-6.2 47.1s-.7 1.8-1.4 2.2c-31.7 14.6-73.1 12.5-98.8-16.8-13.9-15.8-19.7-34.6-18.9-55.3 2-48.2 42-90.6 90-96.5 28-3.4 52.4 4.1 71.3 25.9s18.9 32.6 18 52.1c-.6 12.9-2.6 25.7-4.2 38.5-2.3 18.2-7.4 55.7-7.5 56.6h-37.6c.5-4.2 7.2-54.4 9.6-75.4 1.5-13.1.5-26.1-5.4-38.2s-17-19.7-31.1-21.2c-29.1-3.1-56.7 17.1-62.7 45.6-4 18.9 2.3 37 17.4 47.1s30.2 9.8 46.2 3.5 15-8.3 21.5-15.1v.2z" fill-rule="evenodd"/><path d="m682.7 516.6-5.1 39.1c-8 0-15.8 0-23.6 0s-12.1 4.1-14 10.1-1 4.8-1.3 7.2c-4 30.2-13.8 105.1-14.8 112.8h-39.4c.7-5.8 14.1-109 16.7-125.9 3.5-22.5 25.9-42.6 48.5-43.5 10.8-.4 21.7 0 32.8 0l.2.3z" fill-rule="evenodd"/><path d="m892.8 687.4v-16.6l-6.5 16.6h-2.1l-6.5-16.6h-.1v16.6h-3.3v-19.9h5.1l5.9 15.1 5.8-15.1h5v19.9zm-28.8-17.2v17.2h-3.3v-17.2h-6.2v-2.7h15.7v2.7z"/><path d="m266.3 459.8h9.7l-2.3-14.7zm11.3 9.5h-16.2l-5.1 10.1h-11.5l25.3-47.3h11.1l8.6 47.3h-10.6l-1.5-10.1z"/><path d="m335.6 441.8h-5.8s-1.9 10.9-1.9 10.9h5.8c3.5 0 6.2-2.3 6.2-6.6s-1.7-4.3-4.3-4.3zm-14-9.6h15.2c7.9 0 13.5 4.7 13.5 12.8s-7.2 17.1-17.5 17.1h-6.5l-3.1 17.3h-9.9l8.3-47.3z"/><path d="m383.8 459.8h9.7l-2.3-14.7zm11.3 9.5h-16.2l-5.1 10.1h-11.5l25.3-47.3h11.1l8.6 47.3h-10.6l-1.5-10.1z"/><path d="m457.8 477.9c-3.3 1.5-7 2.4-10.7 2.4-12.5 0-20.4-9.4-20.4-21.1s12.6-27.7 27.7-27.7 7.2.9 9.9 2.4l-1.4 11.3c-2.1-2.3-5.4-3.9-9.6-3.9-8.6 0-16.3 7.8-16.3 16.8s4.3 12.3 11.1 12.3 8.2-1.6 10.9-3.8l-1.3 11.2z"/><path d="m520 460.4h-20.6l-3.3 19h-9.9l8.3-47.3h9.9l-3.3 18.7h20.6l3.3-18.7h9.9l-8.3 47.3h-9.9z"/><path d="m555.5 479.3 8.3-47.3h26.2l-1.7 9.5h-16.3l-1.7 9.2h15l-1.7 9.5h-15l-1.7 9.5h16.3l-1.7 9.5h-26.2z"/></g></svg>