<?xml version="1.0" encoding="UTF-8"?>
<svg xmlns="http://www.w3.org/2000/svg" version="1.1" viewBox="0 0 1000 1000">
  <defs>
    <style>
      .cls-1, .cls-2 {
        opacity: .4;
      }

      .cls-1, .cls-2, .cls-3, .cls-4, .cls-5, .cls-6, .cls-7 {
        stroke-width: 0px;
      }

      .cls-1, .cls-7 {
        fill: #231f20;
      }

      .cls-2, .cls-4, .cls-5 {
        fill: #fff;
      }

      .cls-3 {
        fill: #b8e4fa;
      }

      .cls-8 {
        isolation: isolate;
      }

      .cls-5 {
        mix-blend-mode: soft-light;
      }

      .cls-6 {
        fill: #0082ae;
      }
    </style>
  </defs>
  <g class="cls-8">
    <g id="Layer_1" data-name="Layer 1">
      <g>
        <path class="cls-3" d="M799.3,348.3c7.3,85.5-127.2,166.9-300.6,181.8-173.3,14.9-319.8-42.4-327.2-127.9-7.3-85.5,127.2-166.9,300.6-181.8,173.4-14.9,319.8,42.4,327.2,127.9Z"/>
        <path class="cls-2" d="M477.2,230.4c-66.1-1.1-143.5,25.2-201.1,49.8-6,17.3-9.2,35.6-9.2,54.7,0,101.4,91.6,183.7,204.6,183.7s204.6-82.2,204.6-183.7-9.2-62.3-25.3-88.5c-46.1-7.2-109.4-14.9-173.6-15.9Z"/>
        <path class="cls-4" d="M471.5,230.4c-36.6-2.2-99.7,16.9-152.3,35.9-8,18.9-12.4,39.5-12.4,61.2,0,88.9,80.6,160.9,165.8,160.9s159.6-72.2,165.8-160.9c2-28.9-7.9-56.1-21.7-79.6-54.6-9.6-112.4-15.5-145.2-17.5Z"/>
        <g>
          <path class="cls-7" d="M377.6,315.8c4.5-9.9,11.3-14.8,17.9-23.2-.7-2-2.3-8.4-2.3-10.7,0-10,8.1-18.1,18.1-18.1s4.6.5,6.7,1.3c30-22.8,69.4-32.8,109-23.9,3.6.8,7.2,1.8,10.7,2.9-39.2-5.4-83.3,8.4-113.4,32.7.9,2.2,3.5,8.4,3.5,10.8,0,10-6.5,12.4-16.5,12.4s-4.4-.4-6.4-1.2c-6.8,9.1-15.1,26.5-19.2,37.3,16.6,14.9,31.6,20.2,51.2,27.5,0-.9.7-1.8.7-2.7,0-30.1,26.5-54.6,56.7-54.6s49.4,19.6,53.7,45.4c13.5-8.6,26.5-15.1,36.4-27.9-2.3-2.8-4.8-10.8-4.8-14.8,0-9.1,7.4-16.4,16.4-16.4s2.5.2,3.7.5c5-10.4,8.8-21.3,11.3-32.7-47.1-34.9-138.3-30.1-138.3-30.1,0,0-72.6-3.8-121.7,20.2,3.3,23.7,12.7,46.2,26.7,65.3Z"/>
          <path class="cls-7" d="M602.8,302.2c3.3,3,5.2,5.6,6.6,8.2,4.4,7.9-4.4,15.2-13.5,15.2s-1.8-.1-2.7-.3c-10.2,16-28.1,36.4-44,46.8,24.4,4,47.4,13.8,65.7,28.9,13.3-23.9,23.5-58.3,23.5-87.6s-9.8-38.6-24.7-50.6c-.8,11.9-7.2,28.6-10.9,39.5Z"/>
          <path class="cls-7" d="M404.9,453.4c8.1-22.4,28.1-39.8,47-55.1-2.8-3.8-6.9-13.2-8.6-17.6-23.1-7-43.5-20.1-59.3-37.5-.1.5-.3,1-.4,1.5-3,13.4-3.5,26.7-2,39.8,11,2.1,19.4,11.7,19.4,23.4s-6,16.9-10.7,21.3c5.1,11,8.6,16.3,14.7,24.3Z"/>
          <path class="cls-7" d="M403.5,472.3c-9.7-9.6-16.4-28.9-22.7-40.9-1.2.2-2.4.3-3.6.3-13.1,0-26.9-11-23.8-23.8,1.7-7.1,6.6-11.7,14.5-15.5-1.8-14.6-2.3-35.7,1.1-50.9,1-4.3,3-6.4,4.4-10.5-14.5-21.2-23.9-49.1-23.9-76.7s0-2,0-3c-24.5,12.3-42.9,31.7-42.9,62.1,0,67.4,38.8,133.6,96.6,159.5,0-.2,0-.4.1-.5Z"/>
          <path class="cls-7" d="M545.6,379.1c-7.5,21.2-27.7,36.5-51.4,36.5s-24.4-4.4-33.7-11.7c-19.1,14.9-36.5,41.1-45.3,63.8,4,4.3,6.7,7.8,11.2,11.5,13.4,3.5,31.8,0,46.3,0,58.3,0,109.9-25.9,139.4-71.4-19.7-13.6-42.9-26.6-66.5-28.7Z"/>
        </g>
        <g>
          <path class="cls-6" d="M376.1,323.7c4.5-9.9,10.1-19.1,16.7-27.5-.7-2-1.2-4.1-1.2-6.3,0-10,8.1-18.1,18.1-18.1s4.6.5,6.7,1.3c30-22.8,69.4-32.8,109-23.9,3.6.8,7.2,1.8,10.7,2.9-39.2-5.4-79.7,6.6-109.7,30.8.9,2.2,1.4,4.5,1.4,7,0,10-8.1,18.1-18.1,18.1s-4.4-.4-6.4-1.2c-6.8,9.1-12.3,19.2-16.4,30,14.3,15.4,31.8,27.5,51.3,34.8,0-.9-.1-1.9-.1-2.8,0-30.1,24.4-54.6,54.6-54.6s49.4,19.6,53.7,45.4c13.5-8.6,25.5-19.6,35.4-32.3-2.3-2.8-3.8-6.4-3.8-10.3,0-9.1,7.4-16.4,16.4-16.4s2.5.2,3.7.5c5-10.4,8.8-21.3,11.3-32.7-47.1-34.9-138.3-30.1-138.3-30.1,0,0-72.6-3.8-121.7,20.2,3.3,23.7,12.7,46.2,26.7,65.3Z"/>
          <path class="cls-6" d="M605.4,304.9c3.3,3,5.5,7.3,5.5,12.1,0,9.1-7.4,16.4-16.4,16.4s-1.8-.1-2.7-.3c-10.2,16-23.8,29.6-39.7,39.9,23.5,3.7,45.6,13.7,63.9,28.7,13.3-23.9,20.9-51.4,20.9-80.7s-9.8-38.6-24.7-50.6c-.8,11.9-3.1,23.4-6.8,34.3Z"/>
          <path class="cls-6" d="M407.4,458.8c8.1-22.4,22.2-42.6,41.1-57.9-2.8-3.8-5-7.9-6.8-12.4-23.1-7-43.5-20.1-59.3-37.5-.1.5-.3,1-.4,1.5-3,13.4-3.5,26.7-2,39.8,11,2.1,19.4,11.7,19.4,23.4s-3,13.1-7.7,17.5c4.3,9,9.5,17.6,15.6,25.6Z"/>
          <path class="cls-6" d="M403.4,472c-9.7-9.6-17.8-20.7-24.1-32.8-1.2.2-2.4.3-3.6.3-13.1,0-23.8-10.7-23.8-23.8s5.5-17.5,13.4-21.4c-1.8-14.6-1.2-29.8,2.2-45,1-4.3,2.2-8.6,3.5-12.7-14.5-21.2-23-46.9-23-74.5s0-2,0-3c-24.5,12.3-42.9,31.7-42.9,62.1,0,67.4,40.3,125.4,98,151.3,0-.2,0-.4.1-.5Z"/>
          <path class="cls-6" d="M544.1,387c-7.5,21.2-27.7,36.5-51.4,36.5s-24.4-4.4-33.7-11.7c-19.1,14.9-33.6,35.2-42.4,57.9,4,4.3,8.2,8.3,12.6,12,13.4,3.5,27.4,5.3,41.9,5.3,58.3,0,109.5-30.1,139.1-75.5-19.7-13.6-42.5-22.4-66.1-24.6Z"/>
        </g>
        <polygon class="cls-5" points="546 372.9 596.4 360.9 545.8 358.3 587 326.8 540.2 343.5 572 299.5 528.1 328.7 543.5 277.2 513.3 319.6 512.7 266 492.8 313.8 476.3 265.4 477.2 322.4 448.6 271.3 464.1 325.5 417.8 291.8 454.1 337.5 396.5 316.3 441.9 349.9 383.7 351.7 443.2 367 383.7 379.9 442.5 384.2 392.9 415.9 443.9 397.4 408.5 442.3 453.3 406.2 437.2 466.4 471.7 417.4 466.9 475.3 486.5 422.8 503.2 477.9 507.3 422.6 532 469.8 517.4 415.8 562.8 451 533.5 406.2 583.3 425.6 545.2 388.2 596.3 392.2 546 372.9"/>
        <g>
          <path class="cls-1" d="M9.2,469.4c156.4-156.4,281.3-204.6,394.6-226.7,15-2.9,17.8-35.7,17.8-35.7,0,0,2.1,24.1,12.6,27.3,10.5,3.2,24.1-37.8,24.1-37.8,0,0-12.6,36.7,0,38.8,12.6,2.1,35.7-35.7,35.7-35.7,0,0-9.4,32.5-3.1,34.6,6.3,2.1,37.8-47.2,37.8-47.2,0,0-18.9,32.5-1,35.7,17.8,3.1,43.9-22.2,43.9-22.2,0,0-20.5,23.2-11.3,26.4,38.8,13.6,70.3-36.8,70.3-36.8,0,0-7.3,22.1-26.2,46.3,40.9,10.5,71.3-51.2,71.3-51.2l-30.4,61.7c15.7,8.4,78.7-64,78.7-64,0,0-32.5,56.7-51.4,68.2,10.5,8.4,48.3-25.2,48.3-25.2,0,0-30.4,37.8-18.9,39.9,16.8,13.6,78.7-70.3,78.7-70.3,0,0-24.1,49.3-59.8,88.2,29.8,14.9,103.9-80.8,103.9-80.8,0,0-2.1,30.4-55.6,78.7,39.9-5.2,91.3-80.8,91.3-80.8,0,0-18.9,56.7-64,96.5,39.2-4.1,101.8-100.7,101.8-100.7,0,0-24.1,67.2-73.5,106,54.6,12.1,133.3-69.3,133.3-69.3,0,0-31,57.7-71.4,81.3,45.1,17.3,107-54,107-54,0,0-61.9,95.5-160.6,91.3-32.4-1.4-130.3-98.2-340-90.3-277,10.5-335.8,128-483.8,207.8Z"/>
          <path class="cls-7" d="M15.6,457.5c156.4-156.4,281.2-204.6,394.6-226.7,15-2.9,17.8-35.7,17.8-35.7,0,0,2.1,24.1,12.6,27.3,10.5,3.1,24.1-37.8,24.1-37.8,0,0-12.6,36.7,0,38.8,12.6,2.1,35.7-35.7,35.7-35.7,0,0-9.4,32.5-3.2,34.6,6.3,2.1,37.8-47.2,37.8-47.2,0,0-18.9,32.5-1,35.7,17.8,3.2,43.9-22.2,43.9-22.2,0,0-20.5,23.2-11.3,26.4,38.8,13.6,70.2-36.8,70.2-36.8,0,0-7.3,22.1-26.2,46.3,40.9,10.5,71.3-51.2,71.3-51.2l-30.4,61.7c15.7,8.4,78.7-64,78.7-64,0,0-32.5,56.7-51.4,68.2,10.5,8.4,48.3-25.2,48.3-25.2,0,0-30.4,37.8-18.9,39.9,16.8,13.6,78.7-70.3,78.7-70.3,0,0-24.1,49.3-59.8,88.2,29.8,14.9,103.9-80.8,103.9-80.8,0,0-2.1,30.4-55.6,78.7,39.9-5.2,91.3-80.8,91.3-80.8,0,0-18.9,56.7-64,96.6,39.2-4.1,101.8-100.7,101.8-100.7,0,0-24.1,67.2-73.5,106,54.6,12.1,133.3-69.3,133.3-69.3,0,0-31,57.7-71.4,81.3,45.1,17.3,107-54,107-54,0,0-61.9,95.5-160.6,91.3-32.4-1.4-130.3-98.2-340-90.3-277,10.5-335.8,128-483.8,207.8Z"/>
        </g>
        <g>
          <path class="cls-1" d="M5.1,486.5c82.6,41.5,158.2-6.3,253.4,20.5,72.4,20.4,160.6,45.6,280.2,28.3,119.6-17.3,222-69.3,270.8-162.1,15.2-41.4,77.1,9.4,77.1,9.4,0,0-45.1-18.9-44.1-10,1.1,8.9,67.7,39.9,67.7,39.9,0,0-60.3-18.9-56.7-4.7,3.7,14.2,75.6,70.8,75.6,70.8,0,0-81.3-61.9-88.1-53.5-6.8,8.4,34.6,42.5,34.6,42.5,0,0-68.7-42.5-92.9-30-17.4,9,71.4,67.2,71.4,67.2,0,0-57.7-44.1-71.4-32.5-13.6,11.5,65.1,106,65.1,106,0,0-89.2-96.6-98.1-91.8-8.9,4.7,24.7,50.9,24.7,50.9,0,0-44.1-48.3-56.1-39.9-12.1,8.4,63,133.8,63,133.8,0,0-81.3-128.6-114.9-107,52.7,115.7,33.1,132.2,33.1,132.2,0,0-6.7-118-72.4-114.9-33.1,1.6,15.7,88.2,15.7,88.2,0,0-44.9-79.1-74.8-77.5,55.1,104.3,35.5,146.8,35.5,146.8,0,0,9.1-89.1-65.7-138.7,28.3,25.2-17.8,138.7-17.8,138.7,0,0,40.6-167.3-29.9-135.4-11.1,5-.8,83.4-.8,83.4,0,0-14.2-89.7-35.4-85-12.4,2.8-78.7,124.4-78.7,124.4,0,0,54.3-131.4,37.8-125.9-12,4-34.6,58.2-34.6,58.2,0,0,11-53.5,0-56.7-11-3.2-72.4,56.7-72.4,56.7,0,0,45.7-53.5,37.8-64.5-11.9-16.7-25.9-17.5-42.5-11-24.1,9.4-56.7,53.5-56.7,53.5,0,0,32.4-44.7,26.8-61.4-9.1-26.9-102.3,51.9-102.3,51.9,0,0,55.1-51.9,42.5-63-12.6-11-81-7.6-102.3-7.7-63-.2-84.8-15-103.9-30.1Z"/>
          <path class="cls-7" d="M2,477c82.6,41.5,158.2-6.3,253.4,20.5,72.4,20.4,160.6,45.6,280.2,28.3,119.6-17.3,222-69.3,270.8-162.1,15.2-41.5,77.1,9.4,77.1,9.4,0,0-45.1-18.9-44.1-10,1.1,8.9,67.7,39.9,67.7,39.9,0,0-60.3-18.9-56.7-4.7,3.7,14.2,75.6,70.8,75.6,70.8,0,0-81.3-61.9-88.2-53.5-6.8,8.4,34.6,42.5,34.6,42.5,0,0-68.7-42.5-92.9-30-17.4,9,71.4,67.2,71.4,67.2,0,0-57.7-44.1-71.4-32.5-13.6,11.5,65.1,106,65.1,106,0,0-89.2-96.6-98.1-91.8-8.9,4.7,24.7,50.9,24.7,50.9,0,0-44.1-48.3-56.1-39.9-12.1,8.4,63,133.8,63,133.8,0,0-81.3-128.6-114.9-107,52.7,115.7,33.1,132.2,33.1,132.2,0,0-6.7-118-72.4-114.9-33.1,1.6,15.7,88.2,15.7,88.2,0,0-44.9-79.1-74.8-77.5,55.1,104.3,35.5,146.8,35.5,146.8,0,0,9.1-89.1-65.7-138.7,28.3,25.2-17.8,138.7-17.8,138.7,0,0,40.6-167.3-29.9-135.4-11.1,5-.8,83.4-.8,83.4,0,0-14.2-89.7-35.4-85-12.4,2.8-78.7,124.4-78.7,124.4,0,0,54.3-131.4,37.8-125.9-12,4-34.6,58.2-34.6,58.2,0,0,11-53.5,0-56.7-11-3.1-72.4,56.7-72.4,56.7,0,0,45.7-53.5,37.8-64.5-11.9-16.7-25.9-17.5-42.5-11-24.1,9.4-56.7,53.5-56.7,53.5,0,0,32.4-44.7,26.8-61.4-9.1-26.9-102.3,51.9-102.3,51.9,0,0,55.1-51.9,42.5-63-12.6-11-81-7.6-102.3-7.7-63-.2-84.8-15-103.9-30.1Z"/>
        </g>
        <g>
          <path class="cls-7" d="M106.9,725.3c8.5,0,16.5,2,20.5,6,.7,6.2-4.9,16.2-8.5,16.2-4.2-1.6-8.2-2.4-13.1-2.4-20.2,0-30.3,20.9-30.3,41.6s4.4,20.7,14.7,20.7,22-7.3,28.3-12.9c1.6,1.1,3.6,4.7,3.6,8.7s-1.3,8.7-5.3,12.7c-7.1,7.1-19.1,13.1-36.5,13.1s-33.8-11.3-33.8-37.8,22.9-65.9,60.3-65.9h.2Z"/>
          <path class="cls-7" d="M136.5,796.3c0-13.1,4.4-36,21.1-52.7,14.2-14.7,31.6-18.2,47.4-18.2s24.7,3.3,33.6,5.1c-2.2,9.8-7.6,46.7-10,68.1-1.1,9.1-1.6,21.8-1.1,26.5-7.3,3.1-21.1,4-24.9,4s-2.4-9.1-1.8-17.8c.2-2.9.7-7.1.9-8.9-8.7,14.5-25.8,26.7-43.8,26.7s-21.4-10.7-21.4-32.5v-.2ZM172.3,806.3c10.9,0,30.7-19.1,36.3-55.6.2-2.2.4-2.9.9-5.1-2.4-.9-5.8-1.6-9.1-1.6-8.2,0-16.7,2.4-24.2,12.7-7.8,10.9-11.1,24.5-11.1,35.4s2.7,14.2,7.1,14.2h.2Z"/>
          <path class="cls-7" d="M294,725.3c9.1,0,17.8,3.3,21.8,7.6-.2,6.2-5.1,16.7-12.9,13.8-3.3-1.1-6.7-2-11.1-2s-11.1,2.7-11.1,8.2,3.1,7.3,18,17.8c10.7,7.8,14.9,14.7,14.9,24.5,0,16.2-15.4,33.8-42,33.8s-20.5-4.2-23.6-8.7c-4-6.7-.9-19.8,3.6-17.6,5.8,2.9,15.3,6,23.1,6s12-3.3,12-7.8-3.3-7.1-16.9-16.7c-11.3-8.4-14.9-16.2-14.9-25.1,0-18.5,15.8-33.8,38.9-33.8h.2Z"/>
          <path class="cls-7" d="M370.8,725.3c9.1,0,17.8,3.3,21.8,7.6-.2,6.2-5.1,16.7-12.9,13.8-3.3-1.1-6.7-2-11.1-2s-11.1,2.7-11.1,8.2,3.1,7.3,18,17.8c10.7,7.8,14.9,14.7,14.9,24.5,0,16.2-15.4,33.8-42,33.8s-20.5-4.2-23.6-8.7c-4-6.7-.9-19.8,3.6-17.6,5.8,2.9,15.3,6,23.1,6s12-3.3,12-7.8-3.3-7.1-16.9-16.7c-11.3-8.4-14.9-16.2-14.9-25.1,0-18.5,15.8-33.8,38.9-33.8h.2Z"/>
          <path class="cls-7" d="M405,796.3c0-13.1,4.5-36,21.1-52.7,14.2-14.7,31.6-18.2,47.4-18.2s24.7,3.3,33.6,5.1c-2.2,9.8-7.6,46.7-10,68.1-1.1,9.1-1.6,21.8-1.1,26.5-7.3,3.1-21.1,4-24.9,4s-2.4-9.1-1.8-17.8c.2-2.9.7-7.1.9-8.9-8.7,14.5-25.8,26.7-43.8,26.7s-21.4-10.7-21.4-32.5v-.2ZM440.8,806.3c10.9,0,30.7-19.1,36.3-55.6.2-2.2.4-2.9.9-5.1-2.4-.9-5.8-1.6-9.1-1.6-8.2,0-16.7,2.4-24.3,12.7-7.8,10.9-11.1,24.5-11.1,35.4s2.7,14.2,7.1,14.2h.2Z"/>
          <path class="cls-7" d="M557.4,754.3c10.2-16.5,23.6-28.9,42.3-28.9s20.9,14.7,18,35.6c-1.6,9.8-4.2,23.8-6,36.7-1.6,10.9-2.7,20.7-2.4,27.4-5.8,2.9-22.7,4-26.5,4s-1.8-12.2.2-25.1c1.8-10.7,5.6-30,7.3-41.2,1.1-6.4.9-14.2-5.3-14.2s-27.8,13.1-37.6,67c-.7,4.4-2.4,7.1-4.9,8.7-3.3,2-10.5,3.8-24.9,4,2.7-13.6,6.9-41.4,10-61.8,2.9-18.7,4-30.7,3.3-35.4,3.8-1.3,23.6-5.6,25.8-5.6s2.9,6.9.7,23.6c-.2,1.6-.4,4-.7,5.3h.7Z"/>
          <path class="cls-7" d="M655.7,829c-14.2,0-23.1-12.7-23.1-34.5,0-36,22.5-69.2,60.3-69.2s12.7,1.8,16.5,4c2-10.2,6.7-41.8,6.9-51.2,6.2-1.1,19.6-3.1,25.6-3.1s3.1,2.4,2.2,8c-5.3,33.4-14.9,97.4-16.7,111.7-1.3,12-1.6,23.8-1.3,30.5-7.1,3.1-21.6,3.8-25.4,3.8s-2.5-10.2-2-19.4c.2-2.9.7-7.1.7-7.8-11.1,18.2-26.5,27.1-43.4,27.1h-.2ZM670.4,806.1c9.8,0,29.6-18.2,35.1-50.5.2-1.8.9-5.1,1.3-7.1-2.9-2.7-6.7-4.4-12.7-4.4-22.5,0-32.5,26.9-32.5,46.3s3.6,15.8,8.5,15.8h.2Z"/>
          <path class="cls-7" d="M786.1,757.4c11.8-26.3,25.8-32,34.9-32s7.3,1.8,9.3,4c.9,7.3-4.9,22-10,27.6-2.7-1.3-6-2.7-9.8-2.7-7.6,0-22.5,11.8-31.8,62.5-.7,4.2-2,6-4.4,7.1-3.8,2.2-18.7,4-25.8,4.2,3.3-18.2,9.1-55.4,11.3-77.2.7-5.6.9-15.8.4-19.8,4.2-2,20.9-5.8,24.7-5.8s3.6,12.2.4,32h.7Z"/>
          <path class="cls-7" d="M828.8,796.3c0-13.1,4.5-36,21.1-52.7,14.2-14.7,31.6-18.2,47.4-18.2s24.7,3.3,33.6,5.1c-2.2,9.8-7.6,46.7-10,68.1-1.1,9.1-1.6,21.8-1.1,26.5-7.3,3.1-21.1,4-24.9,4s-2.4-9.1-1.8-17.8c.2-2.9.7-7.1.9-8.9-8.7,14.5-25.8,26.7-43.8,26.7s-21.4-10.7-21.4-32.5v-.2ZM864.6,806.3c10.9,0,30.7-19.1,36.3-55.6.2-2.2.4-2.9.9-5.1-2.4-.9-5.8-1.6-9.1-1.6-8.2,0-16.7,2.4-24.2,12.7-7.8,10.9-11.1,24.5-11.1,35.4s2.7,14.2,7.1,14.2h.2Z"/>
        </g>
      </g>
    </g>
  </g>
</svg>