<svg enable-background="new 0 0 243.7 243.7" viewBox="0 0 243.7 243.7" xmlns="http://www.w3.org/2000/svg"><g transform="translate(.486 .486)"><path d="m3.4 242.2 116.7-119.6c.7-.7.9-1.9.3-2.8-7.1-9.9-20.2-11.6-25-18.3-14.4-19.6-18.1-30.8-24.3-30.1-.4.1-.8.3-1.1.6l-42.1 43.2c-24.3 24.8-27.8 79.6-28.4 125.4 0 1.3 1 2.3 2.3 2.3.6 0 1.2-.2 1.6-.7z" fill="#017cee"/><path d="m242.2 239.3-119.6-116.7c-.7-.7-1.9-.9-2.8-.3-9.9 7.1-11.6 20.2-18.3 25-19.7 14.4-30.9 18-30.2 24.2.1.4.3.8.6 1.1l43.2 42.1c24.8 24.2 79.6 27.7 125.4 28.4 1.3 0 2.3-1 2.3-2.3.1-.5-.1-1.1-.6-1.5z" fill="#00ad46"/><path d="m115.2 214.9c-13.6-13.2-19.9-39.4 6.2-93.5-42.3 18.9-57.1 43.8-49.8 50.9z" fill="#04d659"/><path d="m239.3.5-116.7 119.6c-.7.7-.9 1.9-.3 2.8 7.1 9.9 20.2 11.6 25 18.3 14.4 19.7 18 30.9 24.2 30.2.4-.1.8-.3 1.1-.6l42.1-43.2c24.2-24.8 27.7-79.6 28.4-125.4 0-1.3-1-2.3-2.3-2.3-.5-.1-1.1.1-1.5.6z" fill="#00c7d4"/><path d="m214.9 127.5c-13.2 13.6-39.4 19.9-93.5-6.2 18.9 42.3 43.8 57.1 50.9 49.8z" fill="#11e1ee"/><path d="m.5 3.4 119.6 116.7c.7.7 1.9.9 2.8.3 9.9-7.1 11.6-20.2 18.3-25 19.7-14.4 30.9-18 30.2-24.2-.1-.4-.3-.8-.6-1.1l-43.2-42.1c-24.9-24.4-79.7-27.9-125.5-28.5-1.3 0-2.3 1-2.3 2.3 0 .6.2 1.2.7 1.6z" fill="#e43921"/><path clip-rule="evenodd" d="m127.5 27.9c13.6 13.2 19.9 39.4-6.2 93.5 42.3-18.9 57.1-43.8 49.8-50.9z" fill="#ff7557" fill-rule="evenodd"/><path d="m27.9 115.2c13.2-13.6 39.4-19.9 93.5 6.2-18.9-42.3-43.8-57.1-50.9-49.8z" fill="#0cb6ff"/><circle cx="121.4" cy="121.3" fill="#4a4848" r="5.2"/></g></svg>