<svg viewBox="0 0 1000 1000" xmlns="http://www.w3.org/2000/svg"><path d="m-979.4 297.6 1.2-.5c-.4.2-.8.4-1.2.5z" fill="#939598"/><path d="m408.2 104.5c-10.5-10.7-25-17.3-41.1-17.3s-30.5 6.6-40.9 17.3h-.3c-10.4 10.6-16.9 25.4-16.9 41.8s6.5 31.2 16.9 41.7l.3.3c10.3 10.6 24.7 17.1 40.9 17.1s30.7-6.5 41.1-17.1v-.3c10.6-10.5 17-25.2 17-41.7s-6.4-31.2-16.9-41.8zm-41.1 808.3c16.2 0 30.7-6.7 41.1-17.2v-.3c10.6-10.5 17-25.3 17-41.6s-6.4-31.2-16.9-41.9h-.1c-10.5-10.8-25-17.3-41.1-17.3s-30.5 6.5-40.9 17.3h-.3c-10.4 10.7-16.9 25.4-16.9 41.9s6.5 31.1 16.9 41.6l.3.3c10.3 10.5 24.7 17.2 40.9 17.2zm316.1-178.9c14.4-3.8 27.4-13.2 35.3-27.4l1.1-2.1c7.1-13.4 8.3-29 4.6-42.8s-13.1-27.8-27.1-35.9l-.8-.6c-13.6-7.6-29-9.1-43.2-5.3s-27.3 13.5-35.3 27.5-9.8 30.1-5.8 44.9c3.9 14.6 13.2 27.7 27 35.9 13.9 8.1 29.6 9.6 44.1 5.7zm-256.6-294.4c-15.2-15.5-36.3-25.1-59.5-25.1s-44.2 9.7-59.4 25.1-24.5 36.7-24.5 60.4 9.3 45.1 24.5 60.7c15.1 15.4 36.2 25 59.4 25s44.4-9.5 59.5-25 24.5-37 24.5-60.7-9.3-45-24.5-60.4zm-33.5-100.7c33.8 5.7 64.1 22.1 87.3 45.9h.2c3.7 3.7 7.3 7.9 10.6 12l57.9-34.1c-7.8-24-8.1-49-1.9-72.5 8.3-31.4 28.3-59.6 58.3-77.2l1-.6c29.7-17.1 63.5-20.6 94-12.3s58.7 28.9 76 59.4c17.3 30.4 20.7 65.3 12.5 96.6-8.2 31.4-28.3 59.8-58.3 77.3l-7.9 4.8h-.8c-27.8 13.4-58.3 15.6-86.3 8s-44.1-19.3-60.7-37.8l-57.8 34c6.6 17.9 10.3 37.2 10.3 57.6s-3.7 39.9-10.3 57.9l57.8 33.9c16.5-18.8 37.7-31.5 60.7-37.8 30.9-8.5 65.1-4.9 95 12.8l1.9.9c28.9 17.9 48.3 45.4 56.4 76.5 8.2 31.2 4.7 66-12.5 96.4l-1 2.1v-.2c-17.4 29.3-44.7 49.3-74.9 57.6-30.9 8.4-65.2 4.8-95-12.7v-.2c-30-17.7-50-45.9-58.3-77.3s-5.9-48.4 1.9-72.4l-57.9-34c-3.3 4.1-6.9 8.1-10.6 11.8l-.2.2c-23.2 23.7-53.5 40.1-87.3 45.6v68.1c24.1 5.1 45.6 17.4 62.5 34.5v.2c22.7 22.9 36.7 54.8 36.7 89.9s-14 66.7-36.6 89.8v.4c-22.9 23-54.1 37.3-88.6 37.3s-65.7-14.3-88.4-37.3v-.4c-22.7-23-36.7-54.8-36.7-89.8s14-67 36.7-89.9v-.2c16.9-17.2 38.5-29.4 62.4-34.5v-68.1c-33.8-5.5-64-21.9-87.2-45.6l-.2-.2c-28.9-29.5-47-70.2-47-115.3s18.1-85.7 47-115.2h.2c23.1-23.8 53.4-40.2 87.2-45.9v-67.8c-24-5.3-45.6-17.5-62.4-34.6v-.2c-22.7-23.1-36.7-54.8-36.7-90s14-66.9 36.7-89.9c22.7-23.2 54.1-37.5 88.4-37.5s65.8 14.3 88.5 37.4c22.6 23 36.6 55 36.6 89.9s-14 66.8-36.6 90v.2c-17 17.1-38.5 29.3-62.6 34.6v67.8zm325.5-45.2-.5-.7c-8-13.7-20.7-22.9-34.8-26.8-14.5-4-30.2-2.3-44.2 5.9-13.9 8-23.3 21.2-27.1 35.9-3.8 14.6-2.2 30.8 5.8 44.9l.3.4c8 13.9 20.8 23.1 35 27s30.3 2.4 44-5.8l.7-.4c13.5-8.2 22.6-21.2 26.3-35.5s2.3-30.8-5.7-44.9z" fill="#231f20"/></svg>