<svg width="300" height="55" viewBox="0 0 300 55" fill="none" xmlns="http://www.w3.org/2000/svg">
<path d="M55.552 37.3459V49.7945H24.4362C15.3709 49.7945 7.45554 44.7879 3.22068 37.3459C2.60504 36.264 2.06622 35.1289 1.61424 33.9508C0.726963 31.6421 0.169216 29.1649 0 26.5801V23.2144C0.0367378 22.6384 0.0946276 22.0669 0.17033 21.5022C0.325074 20.3433 0.558859 19.2094 0.866121 18.1071C3.77286 7.65703 13.2245 0 24.4362 0C35.6479 0 45.0984 7.65703 48.0051 18.1071H34.7005C32.5163 14.7007 28.7356 12.4486 24.4362 12.4486C20.1368 12.4486 16.3561 14.7007 14.1719 18.1071C13.5061 19.1426 12.9896 20.2845 12.6512 21.5022C12.3506 22.5818 12.1903 23.7203 12.1903 24.8972C12.1903 28.4655 13.6665 31.6818 16.0333 33.9508C18.2264 36.0569 21.1832 37.3459 24.4362 37.3459H55.552Z" fill="#FD366E"/>
<path d="M55.5521 21.502V33.9506H32.8392C35.206 31.6815 36.6822 28.4653 36.6822 24.897C36.6822 23.7201 36.5219 22.5816 36.2213 21.502H55.5521Z" fill="#FD366E"/>
<path fill-rule="evenodd" clip-rule="evenodd" d="M247.924 8.15676C247.924 10.4177 246.198 12.1403 243.88 12.1403C241.561 12.1403 239.836 10.4177 239.836 8.15676C239.836 5.94966 241.561 4.22705 243.88 4.22705C246.198 4.22705 247.924 5.94966 247.924 8.15676ZM269.343 44.2626H264.382C258.882 44.2626 255.27 41.7864 255.27 35.811V21.6533H250.363V16.0548H255.647V8.14159H261.686V16.0548H269.666V21.6533H261.686V35.7572C261.686 37.749 262.495 38.6103 264.436 38.6103H269.343V44.2626ZM96.0935 40.0547C95.0151 41.7773 92.5348 44.3074 87.6281 44.3074C80.0254 44.3074 74.3099 38.0629 74.3099 29.5037C74.3099 20.9445 79.9176 14.7 87.4663 14.7C92.2113 14.7 94.7994 17.1224 96.0395 18.845H96.5248V15.3998H102.887V36.9863C102.887 37.7399 103.319 38.2244 104.181 38.2244H105.422V43.6076H100.623C98.0885 43.6076 96.7944 41.885 96.5787 40.0547H96.0935ZM80.7803 29.5575C80.7803 34.8869 84.2851 38.1706 88.7604 38.1706C93.5592 38.1706 96.6327 34.3486 96.6327 29.5575C96.6327 23.959 93.02 20.783 88.7065 20.783C84.1772 20.783 80.7803 24.3359 80.7803 29.5575ZM115.541 54.5455H109.178V15.3998H115.487V18.7912H115.972C117.104 17.3378 119.477 14.7 124.329 14.7C131.932 14.7 137.809 20.9983 137.809 29.5037C137.809 37.9553 132.31 44.3074 124.761 44.3074C119.746 44.3074 117.212 41.7773 116.026 40.0547H115.541V54.5455ZM115.433 29.5037C115.433 35.1022 119.045 38.3321 123.413 38.3321C127.888 38.3321 131.285 34.7254 131.285 29.5037C131.285 24.1744 127.78 20.6753 123.305 20.6753C118.506 20.6753 115.433 24.7127 115.433 29.5037ZM141.092 54.5455H147.455V40.0547H147.94C149.126 41.7773 151.661 44.3074 156.675 44.3074C164.224 44.3074 169.2 37.9553 169.2 29.5037C169.2 20.9983 163.847 14.7 156.244 14.7C151.391 14.7 149.019 17.3378 147.886 18.7912H147.401V15.3998H141.092V54.5455ZM155.327 38.3321C150.96 38.3321 147.347 35.1022 147.347 29.5037C147.347 24.7127 150.421 20.6753 155.219 20.6753C159.695 20.6753 163.199 24.1744 163.199 29.5037C163.199 34.7254 159.803 38.3321 155.327 38.3321ZM186.615 44.2626H177.61L170.169 16.0548H176.963L182.032 38.2335H182.517L187.693 16.0548H196.158L201.281 38.2335H201.766L206.888 16.0548H213.301L206.134 44.2626H197.183L192.061 22.1378H191.737L186.615 44.2626ZM216.524 44.2626H222.887V30.3202C222.887 24.9909 225.367 21.7072 230.004 21.7072H232.808V15.355H230.705C227.093 15.355 224.343 17.8313 223.264 20.1999H222.833V16.0548H216.524V44.2626ZM286.412 44.3074C292.289 44.3074 297.466 41.4005 299.299 35.5328L293.476 34.1332C292.451 37.2555 289.486 38.8704 286.358 38.8704C281.721 38.8704 278.648 35.8558 278.594 31.1187H300V29.3422C300 20.9445 294.77 14.7 286.143 14.7C278.54 14.7 272.016 20.6753 272.016 29.5575C272.016 38.1706 277.785 44.3074 286.412 44.3074ZM278.648 26.4891C279.025 23.0977 282.099 20.2447 286.143 20.2447C290.025 20.2447 293.206 22.6671 293.53 26.4891H278.648ZM241.171 44.2626H247.534V16.0548H236.211V21.6533H241.171V44.2626Z" fill="#EDEDF0"/>
</svg>