<?xml version="1.0" encoding="UTF-8"?>
<svg id="Layer_1" xmlns="http://www.w3.org/2000/svg" version="1.1" viewBox="0 0 243.7 243.7">
  <!-- Generator: Adobe Illustrator 29.6.1, SVG Export Plug-In . SVG Version: 2.1.1 Build 9)  -->
  <defs>
    <style>
      .st0 {
        fill: #dde072;
      }

      .st1 {
        fill: #5e3108;
      }

      .st2 {
        fill: #a3b34f;
      }

      .st3 {
        fill: #577138;
      }
    </style>
  </defs>
  <g>
    <path class="st3" d="M236.1,122.3c-2.2-7.3-3.3-10.9-4.9-14.8-3.1-7.5-6.9-13.6-12.8-21.1-13.6-17.6-20.5-26.4-31.6-33.5-24.1-15.3-49.5-12.6-52.4-12.2-8.7,1-27.7,4.8-44.1,20.6-9.3,8.9-15.1,21.8-17.8,28.3-3,52.2,48.2,73.1,60.2,81.8,3.9,1.8,12.8,5.8,20,9.5,16.7,8.6,28.3,10.4,34.2,11.4,13,2.3,33.3-2.9,42.9-13.6,9.2-10.3,11.9-24.2,9.7-36.6-.7-3.8-.7-10.6-3.5-19.9h0Z"/>
    <path class="st2" d="M228.8,116.7c-3.5-9.3-7.6-15.5-12.4-22.8-5.9-9-11.2-15.1-15.5-19.9-9.1-10.4-13.6-15.6-19.8-19.3-10.7-6.5-21-7.7-26.8-8.3-13.8-1.4-24.4,1.5-29.5,3-5.3,1.5-15.8,4.6-26.7,13.2-9.9,7.8-16,19.5-19.3,25.8-3,5.7,15.7,51.3,59,78.3,2.2,1.1,8.4,4,12.2,5.9,1.2.6,2.4,1.2,3.4,1.7,1.7.8,3.3,1.5,4.8,2.3,4.9,2.2,7.9,3.3,11.9,5.4,13.8,7.2,28.4,5.2,30.5,4.8,2.9-.4,22.8-3.5,31-19.4,4.3-8.4,3.6-16.7,2.6-28.1-.3-3.2-1.3-12-5.3-22.6"/>
    <path class="st0" d="M161.9,172.6c14.5,5.6,19.3,8.5,25.5,9.2,2,.2,21.5,1.5,32.9-9.3,8.5-8,8.9-16.1,9.4-20,1.7-13.2-2.1-30.1-6.4-38.4-5.7-10.9-7.2-13.2-22.6-33.6-11.4-15.1-17.1-17.9-23.1-21.8-10.2-6.7-22.1-6.8-30.1-7.2-5.9-.2-17,1.9-27.6,5.6-16.6,5.8-26.3,15.6-33.1,29.4-7.6,16,30.6,68,57.2,78.6"/>
    <path class="st2" d="M166.9,141.4c9.2-1.6,15.4-11.1,17.3-18.8,2.6-10.9-2.8-19.9-6.5-26-3.4-5.7-9.5-13.7-20.4-18.1-10.1-4.1-17.9.9-21.6,2.9-16.1,23.8-3.6,47.9,20,60,3,.3,8.8.4,11.1,0"/>
    <path class="st3" d="M140.1,163.8c4.1-4.8,11.9-14.9,15-21.1.2-.4.4-.8.6-1.3,3.4-7.4,6.8-20.2,7.1-30.3.3-9-2.8-15.1-2.8-15.1-3.2-8.2-12.2-11-16.2-12.5-3.3-1.2-6.2-1.8-9.2-2.1-5.8-.5-13.9.1-28,2.2-13.9,1.9-27.7,4.6-40.5,7.7-15.5,3.8-24,5.8-33.8,10.6-11.4,5.5-22.1,10.7-26.7,22.1-2.8,7-2.6,14-1.9,18.7,0,0,3.1,30.6,24.1,46.1,17.6,13.1,43.6,17.9,62.9,12.6,15.3-2.9,29.8-17.2,41.9-29.7,2.5-2.5,5.5-5.4,7.3-7.7h0Z"/>
    <path class="st2" d="M121,158.7c-14.2,8.4-35.1,19.7-61.2,19.4-.8,0-1.7,0-2.5,0-8.8-.4-32-1.3-44-16.9-3.3-4.3-5.3-9.1-6.3-12.3h0c0,0,0,0,0,0-.6-2-.9-3.1-.9-3.2-.2-.8-.3-1.7-.5-2.5h0c0,0,0,0,0,0h0s0,0,0,0c-.7-4.5-.9-11.2,1.8-17.8,4.4-10.8,14.4-15.6,25.9-21.2,9.7-4.7,18.1-6.7,33.5-10.5,2-.5,3.9-.9,5.7-1.3,2.1-.5,4-.9,5.9-1.3,3.7-.8,7.3-1.5,10.9-2.1h0c6.6-1.2,12.4-2.1,17.8-2.8,13.9-2,21.9-2.7,27.6-2.1,3.1.3,5.7.9,8.7,2,4.1,1.6,11.6,4.5,15.3,11.8,1.1,2.2,1.8,4.6,1.9,7.2,0,.3,0,.5,0,.8.2,6.6-2.5,13-3.9,16.5-8.2,19.5-23.4,29.4-35.7,36.6"/>
    <path class="st0" d="M112,159.6c13.5-7,24.5-15,30.2-21.2,9.4-10.4,13.3-20.9,14.1-29.5.9-9.6-5.1-13.2-7.2-14.9-7.6-6.5-18-6.4-27.4-6.4-4.3,0-10.4.3-29.2,4.4-15,3.4-18,4.2-36.1,9.1-12.1,3.4-18.9,5.6-24.4,9.1-7.8,4.9-17.4,10.9-19.9,22.7-3,14.5,7.7,26.6,9.9,28.9,10.5,11,25,12.3,35,12.3,3.9,0,7.6-.2,10.9-.4,20.3-1.1,34.3-9,44.1-14.1"/>
  </g>
  <path class="st1" d="M118,104.3c-4.7-4.4-13.4-8.8-15.6-9.6-1.1-.3-2.3-.8-4.5-1.1-1.1-.2-2.2-.4-3.3-.5-.5,0-1-.1-1.6-.2-.5,0-1.1,0-1.6-.1-11.1-.7-21,2.2-28.7,7.1-.6.4-1.3.8-1.9,1.3-.3.2-.6.4-.9.7h0c-1.6,1.2-4.1,3.7-5.4,5l-3.6,4c-6.4,8-11,23.6-7.5,27.7,1.8,2.1,2.7,2.4,3.4,2.8,8.9,4.3,17,10.2,30.3,11h11c.9,0,2.2-.1,3.1-.2,2.5-.2,1.4-.2,3.1-.4,15.3-2.5,35.6-13.3,34.8-28.4-.3-5.7-6.8-14.9-11.1-19.1Z"/>
</svg>