<svg enable-background="new 0 0 55 39" viewBox="0 0 55 39" xmlns="http://www.w3.org/2000/svg"><g fill="#68696b"><path d="m15.3 21.6c0-.5-.4-.9-.8-.9s-.8.4-.8.9.4.9.8.9.8-.4.8-.9z"/><path d="m0 39h10.4c.1 0-5.4-8.6-5.4-8.6z"/><path d="m13.9 25c0 .5.4.8.8.8.5 0 .8-.4.8-.8 0-.5-.4-.8-.8-.8s-.8.4-.8.8z"/><path d="m16 22.4c-.1 0-.1 0 0 0-.1-.1-.3-.1-.4-.1-.4 0-.8.4-.8.9s.4.9.8.9.8-.4.8-.9c0-.4-.2-.7-.4-.8z"/><path d="m32.2 2h-10.4l5.4 8.6z"/><path d="m40.3 18.1-9.1-12.5-3.7 6.2 5.2 8v-.1h.5c.2 0 .5.1.6.3l4 5.7c.1.2.2.4.2.6l-.1 1.2h-.1l3.8 5.9 1.4-3.8c-.3-.2-.5-.5-.5-.9 0-.6.5-1 1-1s1 .4 1 .9l3.5-.2-6.5-8.8-2.2.6c-.1 0-.2-.1-.1-.2zm1 7.9c.1-.1.3-.1.5-.1.6 0 1 .5 1 1 0 .6-.5 1-1 1-.6 0-1-.5-1-1 0-.3.2-.6.4-.8l-2.1-3.2-1.9-.1.7-2-1.9-2.7c-.3.2-.6.3-1 .3-1.1 0-1.9-.9-1.9-1.9 0-1.1.9-1.9 1.9-1.9 1.1 0 1.9.9 1.9 1.9 0 .6-.3 1.2-.8 1.6l1.9 2.8-.6 1.8 1.8.1z"/><path d="m33.6 20.2c-.1-.2-.3-.3-.5-.3h-.4l4.9 7.6.1-1.1c0-.2 0-.3-.1-.5z"/><path d="m36.8 16.4c0-1-.8-1.7-1.7-1.7-1 0-1.7.8-1.7 1.7 0 1 .8 1.7 1.7 1.7.9.1 1.7-.7 1.7-1.7z"/><path d="m48.1 28.8-3.6.2c0 .3-.2.6-.5.8l2.8 4.1 2-3.5c.1-.2.1-.5 0-.7z"/><path d="m16.8 23.1v.1l.6-1c-.3.2-.6.5-.6.9z"/><path d="m31.6 25.6.5-.4-.5-.1z"/><path d="m29.9 18.9c0-.1-.1 0-.1 0v3.9c0 .2-.1.3-.3.3h-9.2c-.2 0-.3-.2-.2-.3l6.7-11-3.9-6-.9 1 1.4 1.7v.1l-1.8-.2c-.4-.1-.8.1-1 .4l-6.3 9 .3 2.1-.9-.6c-.1-.1-.3 0-.4.1l-7 9.6c-.3.4-.3.9-.1 1.3l4.5 7.3c.2.4.7.6 1.1.6h.9l-1.7-3.4 5.2-7.3h7.6v-2.1l-1.3-1.4v-.1l.1-.1h2.8s.1 0 .1.1 0 .1 0 .1l-1.2 1.6h-.1v-.1l1.2-1.5h-2.6l1.3 1.5v2.2h7.4v-2.7l1.1.2-.9.7v2h-15.3l-5.1 7.1 1.7 3.3h-.1 1.1c.2 0 .4-.3.3-.5l-1.3-2.4c-.1-.3-.1-.6 0-.8l4-6.1h17c.2 0 .4-.2.3-.4zm-14.3 5.3c-.1 0-.2 0-.2 0 .3.2.4.5.4.8 0 .6-.5 1-1 1-.6 0-1-.5-1-1s.5-1 1-1h.3c-.3-.2-.4-.5-.4-.9 0-.2.1-.4.2-.6-.1 0-.2.1-.3.1-.5 0-1-.5-1-1.1s.4-1.1 1-1.1c.5 0 1 .5 1 1.1 0 .2-.1.4-.2.6.1 0 .2-.1.3-.1s.3 0 .4.1l6.1-9.2c.6-.1 1.1-.5 1.3-1 .2-.6 0-1.2-.5-1.6s-1.1-.4-1.6-.1-.8.9-.7 1.5l-4.5 6.5s0 0-.1 0v-.1l4.4-6.5c-.1-.6.2-1.3.8-1.6s1.3-.3 1.8.1.7 1.1.6 1.7c-.2.6-.7 1.1-1.4 1.2l-6.1 9.2c.3.2.5.5.5.9-.1.7-.6 1.1-1.1 1.1zm5.2-11.3v-.1h.1s.4.4.3.8c0 .2-.2.4-.6.4-.1 0-.2 0-.3 0-.2 0-.7.1-.8.3-.1.1 0 .3.1.6v.1h-.1c-.2-.3-.2-.5-.1-.7.2-.3.7-.4 1-.4h.3c.2 0 .5-.1.6-.3-.1-.3-.4-.6-.5-.7zm.1-1.5c0-.6.5-1.1 1.1-1.1s1.1.5 1.1 1.1-.5 1.1-1.1 1.1-1.1-.5-1.1-1.1zm-2.5 12.3c-.2.3-.5.4-.8.4s-.6-.2-.8-.4h-.3l.1-.3c0-.1-.1-.2-.1-.4 0-.5.4-1 .9-1l.1-.2.1.2c.5.1.9.5.9 1 0 .1 0 .2-.1.4l.1.3zm9.5 2.1-3.1.1s-.1 0-.1-.1v-.1l1.4-1.6h.1.1l1.6 1.7c0-.1 0-.1 0 0z"/><path d="m25 25.6h2.6l-1.4-1.4zm1.3-.9.6.6c.1.1 0 .2-.1.2h-1.2c-.1 0-.2-.1-.1-.2l.5-.6c.2-.1.3-.1.3 0z"/><path d="m49.9 30.6-4.6 8.2h9.7z"/><path d="m17.6 24c.2 0 .4-.1.6-.3h-1.2c.2.2.4.3.6.3z"/><path d="m17.9 22.2.6 1v-.1c-.1-.4-.3-.7-.6-.9z"/><path d="m46.7 34-2.8-4.1c-.1.1-.3.1-.4.1s-.3 0-.4-.1l-1.4 3.8h-.1l.9 1.4c.1.2.1.4 0 .6l-1.3 2.1c-.1.1 0 .3.2.3h2.6c.3 0 .5-.2.7-.4z"/><path d="m17.6 22.2-.7 1.3v.1h1.4s0 0 0-.1z"/></g></svg>