<svg width="50px" height="50px" enable-background="new 0 0 1024 1024" viewBox="0 0 1024 1024" xmlns="http://www.w3.org/2000/svg"><path d="m909.4 280.5c1.1-.1 2.1-.1 3.2.1v459.4l-1.6.1-1.6-.1c0-153.1 0-306.3 0-459.5z" fill="#5e6998"/><path d="m909.4 280.5v459.6c-88 51.1-343.9 199.2-383.6 222.5-7.6 4.5-13.3 5.7-21.9.7-124.9-72.6-250-144.8-375.2-216.7-8.8-5-11.4-10.7-11.4-20.5.3-143.9.4-287.7-.1-431.6 0-10.9 3.8-16.1 12.9-21.3 124.5-71.4 248.7-143.2 372.9-215.2 7.7-4.5 13.4-5.7 21.9-.8 126.7 73.8 253.8 147 380.8 220.4 1.3.7 2.5 1.9 3.7 2.9zm-567.5 68.7c.2-31.5.7-63 1.1-94.5 9.3-25.1 27.7-38.8 53.4-44.8 32.1-7.5 64-16.2 96-24.3 38.5-9.8 76.9-19.5 118.7-30.1-32.6-18.9-62.1-35.9-91.5-53-6.3-3.6-11.3-.6-16.6 2.5-25.8 15-247.4 142.9-332.4 192-6.3 3.7-13.4 6.1-13.3 16.2.7 48.8.1 352.9.1 390.3 0 4.7-1.3 10.6 4.6 12.6 5 1.7 7.5-3.4 10.5-6.2 9.9-9.4 21.1-16.9 33.5-22.4 40.2-17.9 81.4-20.6 123.4-7.6 8.8 2.7 13.1 2.2 13-8.6-.3-54.2-.8-268.9-.5-322.1zm183.7 9.1c-27.3 4.2-53.7 12.7-80.4 19.4-35.5 8.9-34.6 9-33.8 46.3.8 35.9-.2 295.4-.5 345.3-.2 23.4-5.3 45.6-21.8 62.9-9.2 9.6-5.7 13.2 3.7 18.5 37.3 21.1 74.3 42.5 111.2 64.4 7.9 4.7 13.6 3.1 20.8-1.1 109.2-63.4 218.4-126.7 328-189.5 12.1-6.9 17.4-14.4 17.3-29.1-.7-111.3-2.8-222.6.8-333.8 1.4-43.1-8.1-71.5-50.2-85.1-5.4-1.8-10.1-9.5-15.5-6.7-5.7 3-2.4 10.9-2.4 16.5-.2 126.5-.5 253 .2 379.4.2 30.8-9.5 56-31.8 76.9-48.8 45.8-148.4 48.2-198.9 4.5-53.6-46.4-49.5-112.7 9.7-151.5 43.3-28.3 90.3-30.9 138.9-17.8 8.1 2.2 13.3 4.2 13.3-7.6-.2-84.7-.2-169.4-.1-254 0-7.6-2.3-11.5-10.5-9-47.6 12-95.1 24.8-142.9 36-18.6 4.3-37.3 7.7-55.1 15.1z" fill="#0c1c65"/><path d="m723.6 307.2c8.2-2.5 10.5 1.3 10.5 9-.1 84.7-.2 169.4.1 254 0 11.8-5.2 9.8-13.3 7.6-48.6-13.1-95.7-10.5-138.9 17.8-59.2 38.7-63.3 105.1-9.7 151.5 50.4 43.7 150.1 41.4 198.9-4.5 22.3-20.9 31.9-46.1 31.8-76.9-.7-126.5-.3-252.9-.2-379.4 0-5.6-3.3-13.6 2.4-16.5 5.4-2.8 10.1 4.9 15.5 6.7 42.1 13.6 51.6 42 50.2 85.1-3.6 111.2-1.5 222.5-.8 333.8.1 14.8-5.2 22.2-17.3 29.1-109.6 62.8-218.8 126.1-328.1 189.5-7.2 4.2-12.9 5.7-20.8 1.1-36.8-21.9-73.9-43.3-111.2-64.4-9.4-5.3-12.9-8.9-3.7-18.5 16.6-17.3 21.7-39.6 21.8-62.9.3-49.9.4-99.9.6-149.8 10.2 1.7 17.9 9.5 28.8 10.1 25.8 1.5 42.6-11.3 56.4-31.3 23.8-34.4 54.9-59 95.5-71.3 18.3-5.6 37.4-3.8 55.8-8.1 21.9-5.1 33.6-19.3 40.4-39.7 6.4-19.2.1-34.8-12.4-49-19-21.6-44.9-18.3-68.3-15-81.1 11.5-147 50.4-196.4 116.3 0-35.9 0-71.8 0-107.6 20.1-12.4 39.1-26.6 59.2-39 17.6-10.8 38.5-14.1 55-26.6 17.7-7.3 36.4-11.1 55.1-15.1 2.4 2.8 5.8 3.1 9 2.4 28.3-6.2 57-2.1 85.5-3 23.3-.6 40.6-12.8 48.6-35.4z" fill="#236ae6"/><path d="m341.7 508.8c.3 54.2.4 108.3.9 162.5.1 10.7-4.3 11.3-13 8.6-42-13-83.2-10.3-123.4 7.6-12.5 5.5-23.6 13.1-33.5 22.4-3 2.8-5.4 7.9-10.5 6.2-5.9-2-4.6-7.9-4.6-12.6-.1-37.4.5-199.9.8-243.8 5.4-.5 6.3-5.4 8.3-9 29.7-55 66-105 112.6-147 20-18 40-36 63.9-49-.4 31.5-.7 63-1.1 94.5-8.7 1-14.3 6.9-20.2 12.6-40.5 39.7-73.2 84.9-97.5 136.1-12.7 26.8-2.7 58.1 23 70.5 28.7 13.8 58 4.8 72-22.4 6.4-13 12.9-26 22.3-37.2z" fill="#236ae6"/><path d="m411.5 531.5c49.4-65.9 115.3-104.9 196.4-116.3 23.4-3.3 49.3-6.6 68.3 15 12.4 14.2 18.7 29.8 12.4 49-6.8 20.3-18.5 34.6-40.4 39.7-18.4 4.3-37.5 2.5-55.8 8.1-40.6 12.3-71.7 36.9-95.5 71.3-13.8 20-30.7 32.8-56.4 31.3-10.9-.6-18.7-8.4-28.8-10.1-.2-29.4-.2-58.7-.2-88z" fill="#1f8cf4"/><path d="m343 254.7c-23.8 13-43.9 31.1-63.9 49-46.6 42-82.9 92-112.6 147-2 3.6-2.8 8.5-8.3 9-.2-48.8-.2-97.7-.9-146.5-.1-10.1 7-12.6 13.3-16.2 85-49.1 306.6-177 332.4-192 5.3-3.1 10.3-6.2 16.6-2.5 29.4 17.1 58.9 34.1 91.5 53-41.8 10.6-182.6 46.9-214.8 54.4-25.5 6-44 19.7-53.3 44.8z" fill="#1f8bf2"/><path d="m341.7 508.8c-9.4 11.3-15.9 24.3-22.5 37.2-13.9 27.2-43.3 36.3-72 22.4-25.7-12.4-35.7-43.7-23-70.5 24.3-51.3 57.1-96.4 97.5-136.1 5.8-5.7 11.4-11.6 20.2-12.6-.1 53.2-.1 106.4-.2 159.6z" fill="#1f8cf4"/><g fill="#1f8bf2"><path d="m723.6 307.2c-8 22.6-25.3 34.7-48.4 35.4-28.5.9-57.2-3.2-85.5 3-3.1.7-6.5.4-9-2.4 47.6-12 95.3-24 142.9-36z"/><path d="m525.6 358.3c-16.5 12.5-37.4 15.7-55 26.6-20.2 12.4-39.1 26.6-59.2 39-1.7-37.2-1.7-37.4 33.8-46.3 26.8-6.7 53.1-15.1 80.4-19.3z"/></g></svg>