<svg height="40px" enable-background="new 0 0 72 72" viewBox="0 0 72 72" xmlns="http://www.w3.org/2000/svg"><path d="m40.5 26.6h.3c-1.6 2-2.1 4-2.1 6.1 0 .6 0 1.2.1 1.8-7.3 3.7-5.8 2.2-16 17.7 1.1.2 1.8.4 2.6.6 4.2.8 5.6 4.5 5.6 5.9 0 .7-.2 1.4-.4 2.1-1.4-3.8-4.9-5.8-6.9-5.8-.9 0-1.8.2-2.6.2-.3 0-1.3-.1-2.7-.1s-2.1.1-2.4.1c-.5 0-.5-.1-1-.9.7-1.7 2.2-1.4 3.5-1.7 1.8-4.6 2.8-6.5 2.8-8.6 0-1.6-.4-2.1-.4-3.4-.2-6.3 8.8-14 19.6-14z" fill="#5188b0"/><path d="m65.7 27.6c0-15-21.8-13.6-26.7-27.6 0 0-.9 2.1-.9 4.8 0 8 10.7 13.6 11.3 17.2-1 2.1-3.4 1.5-10.1 2.6-12.1 2-13.2 3.9-20.8 12-.1 0-.2 0-.3 0-4.4 0-4.8-9.4-12-13.1 1.5 18.2.7 18.9 12.2 23.3-.7 1.8-1.3 3.3-1.9 4.8-.4.1-3.2.4-3.2 2.8 0 1 .6 1.8 1.3 2.6-.9 1-2.3 2.3-2.3 5.2s1.7 5.8 5.4 6.5c2.6.5 4.8 3.3 8.5 3.3 5.6 0 8.2-7.6 19.2-10.5 2.1-.5 4.1-1.3 6.1-2.1 3.4-1.4 5.4-6.4 5.4-10.4 0-4.8-2.9-6.9-2.9-8.6 0-3.5 11.7-4.8 11.7-12.8zm-48.7 13.6c-2.6 0-4.2-3.7-6.5-7.4-.2.5-.3.9-.3 1.4 0 1.1.5 2.2.5 3.3 0 .5-.1 1-.4 1.5-1.9-3-1.8-4.4-2.7-13h.2c1.2 0 1.7.7 4.5 5.5 1.5 2.6 2.5 5.9 5.5 5.9.5 0 1.1-.1 1.8-.3-.3 1.1-.6 1.9-.9 2.7-.6.2-1.1.4-1.7.4zm9.9 21.4c0 2.3-2.8 4.6-6.9 4.6-3 0-6.1-1.4-6.1-4.5 0-1.6.9-2.8 3.1-3.9-.3 1.1-.7 2.1-.7 3 0 2 2.2 3 4 3 2.3 0 4.5-1.4 4.5-3.7 0-.5-.1-1.1-.4-1.8 1.7.7 2.5 1.9 2.5 3.3zm11.2-21.7c0 .9-.8 3.2-4 3.2-.6 0-1.4-.1-2.2-.3 3.3-3.5 2-2 4.8-5.4.9 1 1.4 1.7 1.4 2.5zm-15.3 11.3c1.1.2 1.8.4 2.6.6 4.2.8 5.6 4.5 5.6 5.9 0 .7-.2 1.4-.4 2.1-1.4-3.8-4.9-5.8-6.9-5.8-.9 0-1.8.2-2.6.2-.3 0-1.3-.1-2.7-.1s-2.1.1-2.4.1-.4 0-.5-.2c-.4-.4-.3-1.1.1-1.5.8-.7 1.9-.6 3-.9 1.8-4.6 2.8-6.5 2.8-8.6 0-1.6-.4-2.1-.4-3.4 0-6.4 8.9-14.1 19.8-14.1h.3c-1.6 2-2.1 4-2.1 6.1 0 .6 0 1.2.1 1.8-7.6 3.7-6.1 2.3-16.3 17.8zm40.2-27.2c-7-8.4-13.3-10.2-14.2-10.4 2.2 2.8 7.4 6.8 7.4 10 0 3.4-4.4 4-16.5 7.9 0-.2 0-.4 0-.6 0-2.1.8-3.9 2.4-5.6 5.2-.8 9.7-.9 9.7-3.6 0-4.4-13-11.5-13-18.4 0-.4 0-1 .1-2.7 1.3 3.4 1.8 4.9 6.8 8.1 13.5 8.5 14.3 7.4 17.6 14.8 0 .3-.2.4-.3.5z" fill="#07132b"/></svg>