<svg enable-background="new 0 0 72 72" viewBox="0 0 72 72" xmlns="http://www.w3.org/2000/svg"><g fill="#939598"><path d="m68.4 34.3c-.9 0-1.7.4-2.3 1 1.3.4 2.2 1.6 2.2 3h.1c1 0 1.9.4 2.5 1.2.3.3.9.2 1-.3l.1-.9c0-2.2-1.6-4-3.6-4z"/><path d="m65.2 41.5c-1.2 0-2.2-.7-2.7-1.7-.1.1-.2.3-.3.4-.3.4 0 .9.5.9 1 0 1.9.3 2.6 1s1 1.7 1 2.7c0 .5.5.8.9.5.2-.2.5-.3.7-.6 1.5-1.5 1.6-3.8.4-5.3-.6 1.3-1.7 2.1-3.1 2.1z"/><path d="m64.9 38.3c0-.8.2-1.5.6-2.2-.1 0-.1 0-.2 0-1.2 0-2.1 1-2.1 2.2 0 .3.1.6.2.8.4-.3.9-.6 1.5-.8 0 .1 0 .1 0 0z"/><path d="m67.3 38.8c0-.1 0-.2 0-.2-.1 0-.2.1-.3.1.1 0 .2 0 .3.1z"/><path d="m64.9 38.4c.7-.1 1.5-.1 2.2.2.1 0 .2-.1.3-.1 0-.1 0-.1 0-.2 0-1.1-.8-2.1-1.9-2.2-.4.7-.6 1.4-.6 2.3z"/><path d="m65.2 40.5c1 0 1.9-.7 2.1-1.7-.1 0-.2-.1-.3-.1-.4.2-.8.5-1.1.9-.3.3-.9.2-1-.3-.1-.3-.1-.5-.1-.8-.6.1-1.1.3-1.6.7.4.7 1.2 1.3 2 1.3z"/><path d="m64.9 38.4c0 .3 0 .5.1.8.1.5.7.6 1 .3.3-.4.7-.6 1.1-.9-.7-.3-1.5-.3-2.2-.2z"/><path d="m1.2 31.2h62.7v17.3h-62.7z"/><path d="m63.9 18.2c0-5-4.1-9.1-9.1-9.1h-44.6c-5 0-9.1 4.1-9.1 9.1v11.9h62.8z"/><path d="m1.2 53.8c0 5 4.1 9.1 9.1 9.1h44.6c5 0 9.1-4.1 9.1-9.1v-4.3h-62.8z"/></g><path d="m25.2 44.5h-6.3c-1.2 0-2.1-.8-2.1-1.8v-4.9c0-1.2 1.4-2.1 2.7-1.8l6.3 1.7c.9.2 1.5 1 1.5 1.8v3.2c0 1-.9 1.8-2.1 1.8" fill="#fff"/><path d="m46.2 44.5h-6.3c-1.2 0-2.1-.8-2.1-1.8v-3.2c0-.8.6-1.5 1.5-1.8l6.3-1.7c1.3-.4 2.7.5 2.7 1.8v4.9c-.1 1-1 1.8-2.1 1.8" fill="#fff"/></svg>