<?xml version="1.0" encoding="UTF-8" standalone="no"?>
<svg
   xmlns:dc="http://purl.org/dc/elements/1.1/"
   xmlns:cc="http://creativecommons.org/ns#"
   xmlns:rdf="http://www.w3.org/1999/02/22-rdf-syntax-ns#"
   xmlns:svg="http://www.w3.org/2000/svg"
   xmlns="http://www.w3.org/2000/svg"
   xmlns:sodipodi="http://sodipodi.sourceforge.net/DTD/sodipodi-0.dtd"
   xmlns:inkscape="http://www.inkscape.org/namespaces/inkscape"
   version="1.1"
   id="Layer_1"
   x="0px"
   y="0px"
   viewBox="0 0 150 150"
   xml:space="preserve"
   sodipodi:docname="budibase-dark-150.svg"
   width="150"
   height="150"
   inkscape:version="0.92.5 (2060ec1f9f, 2020-04-08)"><metadata
   id="metadata19"><rdf:RDF><cc:Work
       rdf:about=""><dc:format>image/svg+xml</dc:format><dc:type
         rdf:resource="http://purl.org/dc/dcmitype/StillImage" /><dc:title></dc:title></cc:Work></rdf:RDF></metadata><defs
   id="defs17" /><sodipodi:namedview
   pagecolor="#ffffff"
   bordercolor="#666666"
   borderopacity="1"
   objecttolerance="10"
   gridtolerance="10"
   guidetolerance="10"
   inkscape:pageopacity="0"
   inkscape:pageshadow="2"
   inkscape:window-width="1279"
   inkscape:window-height="1336"
   id="namedview15"
   showgrid="false"
   inkscape:zoom="3.776"
   inkscape:cx="95.426783"
   inkscape:cy="101.69492"
   inkscape:window-x="1280"
   inkscape:window-y="33"
   inkscape:window-maximized="0"
   inkscape:current-layer="g12" />
<style
   type="text/css"
   id="style2">
	.st0{fill:none;}
	.st1{fill:#FFFFFF;}
</style>
<g
   id="g12"
   transform="matrix(0.2993986,0,0,0.2993986,0,0.10593223)">
	<path
   class="st0"
   d="m 396.1,237.4 c -6.4,-7.2 -14.2,-12.9 -23.3,-17.1 -9.1,-4.2 -19.1,-6.4 -30.1,-6.4 -18.4,0 -33.8,6.6 -46.1,19.8 V 125 h -52.1 v 126.4 c -2.8,-5 -5.9,-9.8 -9.7,-14 -6.4,-7.2 -14.2,-12.9 -23.3,-17.1 -9.1,-4.2 -19.1,-6.4 -30.1,-6.4 -18.4,0 -33.8,6.6 -46.1,19.8 V 125 h -52 v 245.3 h 52.1 v -16.8 c 11.1,14.4 26.3,21.6 45.5,21.6 10.6,0 20.4,-2.1 29.5,-6.4 9.1,-4.2 17,-10 23.7,-17.3 4.1,-4.4 7.4,-9.5 10.4,-14.8 v 33.7 h 52.1 v -16.8 c 11.1,14.4 26.3,21.6 45.5,21.6 10.6,0 20.4,-2.1 29.5,-6.4 9.1,-4.2 17,-10 23.7,-17.3 6.7,-7.3 11.9,-15.9 15.7,-25.7 3.7,-9.9 5.6,-20.4 5.6,-31.6 0,-11 -1.8,-21.4 -5.5,-31.2 -3.6,-9.8 -8.6,-18.3 -15,-25.5 z"
   id="path4"
   inkscape:connector-curvature="0"
   style="fill:none" />
	<path
   class="st1"
   d="M 458.3,0 H 41.7 C 18.7,0 0,18.7 0,41.7 v 416.7 c 0,23 18.7,41.7 41.7,41.7 h 416.7 c 23,0 41.7,-18.7 41.7,-41.7 V 41.7 C 500,18.7 481.3,0 458.3,0 Z M 411,325.6 c -3.7,9.9 -9,18.4 -15.7,25.7 -6.7,7.3 -14.6,13.1 -23.7,17.3 -9.1,4.2 -18.9,6.4 -29.5,6.4 -19.2,0 -34.3,-7.2 -45.5,-21.6 v 16.8 h -52.1 v -33.7 c -3,5.4 -6.3,10.4 -10.4,14.8 -6.7,7.3 -14.6,13.1 -23.7,17.3 -9.1,4.2 -18.9,6.4 -29.5,6.4 -19.2,0 -34.3,-7.2 -45.5,-21.6 v 16.8 H 83.3 V 125 h 52.1 V 233.8 C 147.7,220.6 163,214 181.5,214 c 10.9,0 21,2.1 30.1,6.4 9.1,4.2 16.9,10 23.3,17.1 3.7,4.2 6.9,8.9 9.7,14 V 125 h 52.1 V 233.8 C 309,220.6 324.3,214 342.8,214 c 10.9,0 21,2.1 30.1,6.4 9.1,4.2 16.9,10 23.3,17.1 6.4,7.2 11.5,15.7 15.1,25.4 3.6,9.8 5.5,20.1 5.5,31.2 -0.1,11.2 -2,21.7 -5.8,31.5 z"
   id="path6"
   inkscape:connector-curvature="0"
   style="fill:#333333" />
	<path
   class="st1"
   d="m 352.5,270.4 c -3.1,-3.2 -6.6,-5.7 -10.7,-7.5 -4,-1.9 -8.4,-2.8 -13.2,-2.8 -4.6,0 -8.9,0.9 -12.9,2.7 -4,1.8 -7.5,4.2 -10.5,7.4 -3,3.2 -5.4,6.8 -7.2,11.1 -1.8,4.2 -2.7,8.7 -2.7,13.4 0,4.7 0.9,9.2 2.6,13.3 1.7,4.1 4.1,7.7 7.2,10.8 3.1,3.1 6.7,5.5 10.8,7.4 4.1,1.9 8.5,2.8 13.1,2.8 4.6,0 8.9,-0.9 12.9,-2.7 4,-1.8 7.5,-4.2 10.5,-7.4 3,-3.1 5.4,-6.8 7.2,-10.9 1.8,-4.2 2.7,-8.5 2.7,-13 0,-4.7 -0.9,-9.2 -2.6,-13.4 -1.8,-4.4 -4.2,-8.1 -7.2,-11.2 z"
   id="path8"
   inkscape:connector-curvature="0"
   style="fill:#333333" />
	<path
   class="st1"
   d="m 191.3,270.4 c -3.1,-3.2 -6.6,-5.7 -10.7,-7.5 -4,-1.9 -8.4,-2.8 -13.2,-2.8 -4.6,0 -8.9,0.9 -12.9,2.7 -4,1.8 -7.5,4.2 -10.5,7.4 -3,3.2 -5.4,6.8 -7.2,11.1 -1.8,4.2 -2.7,8.7 -2.7,13.4 0,4.7 0.9,9.2 2.6,13.3 1.7,4.1 4.1,7.7 7.2,10.8 3.1,3.1 6.7,5.5 10.8,7.4 4.1,1.9 8.5,2.8 13.1,2.8 4.6,0 8.9,-0.9 12.9,-2.7 4,-1.8 7.5,-4.2 10.5,-7.4 3,-3.1 5.4,-6.8 7.2,-10.9 1.8,-4.2 2.7,-8.5 2.7,-13 0,-4.7 -0.9,-9.2 -2.6,-13.4 -1.8,-4.4 -4.2,-8.1 -7.2,-11.2 z"
   id="path10"
   inkscape:connector-curvature="0"
   style="fill:#333333" />
</g>
</svg>