<svg height="40px" enable-background="new 0 0 72 72" viewBox="0 0 72 72" xmlns="http://www.w3.org/2000/svg"><g clip-rule="evenodd" fill-rule="evenodd"><path d="m0 36v36h36 36v-36-36h-36-36z" fill="#23a8e0"/><path d="m44.7 16.3c-2 .6-3.9 1.7-5.7 3.4l-.6.6.2.7c.7 2.5.6 5.2-.7 14.4-.4 2.5-.4 2.9-1 3.7-4.5 7.1-12.2 12.3-16.7 11.1-4.4-1.2-5.6-6.4-3-12.8 1.8-4.5 5.3-7.1 7.2-5.4 1.1 1 .6 3.8-1.3 7.1l-.1.3.3.3c1 1.1 3 1.1 4.8.1 5-2.7 3.6-10.6-2.2-12.3-6-1.7-12.6 2-16.2 9.2-2.3 4.7-2.7 10.6-.9 14.3 3.2 6.4 13.1 6.5 21.3.3.8-.6 1.4-1.2 4-3.4 1.7-1.5 1.5-1.6 1.3.7-.3 4.3.3 6.2 2.3 6.8 1.5.5 4 .1 4.9-.9l.2-.2.7-3.7c1.2-6.5 1.3-7.4 2.3-11.1.7-2.8.7-2.7 1.5-3.2 3.3-2.1 6.6-1.7 6.9.9.1.9-.2 3.2-.8 5.6l-1 3.8c-.9 3.7-.9 5.2.1 7 1.3 2.4 5 2.7 8.5.6 1.4-.8 1.9-1.6 2.6-3.6.8-2.4.9-4.3.2-3.8-.8.6-2.1.8-2.7.5-.5-.3-.7-.8-.5-1.8.2-1.5.4-2 2.1-6.5 1.8-4.7 2-6.3 1-8.4s-2.6-3.1-5.2-3.2c-4.4-.2-8.8 1.4-10.5 3.8-.2.3-.4.6-.4.6s.3-1 .6-2.3c2.1-7.6 2.4-9.5 1.7-11.1-.9-1.7-3.3-2.7-5.2-2.1" fill="#fbfbfb"/></g></svg>