<?xml version="1.0" encoding="utf-8"?>
<!-- Generator: Adobe Illustrator 23.1.1, SVG Export Plug-In . SVG Version: 6.00 Build 0)  -->
<svg width="150px" version="1.1" id="Layer_1" xmlns="http://www.w3.org/2000/svg" xmlns:xlink="http://www.w3.org/1999/xlink" x="0px" y="0px"
	 viewBox="0 0 500 500" style="enable-background:new 0 0 500 500;" xml:space="preserve">
<style type="text/css">
	.st0{fill:#939598;}
</style>
<g>
	<g>
		<g>
			<path class="st0" d="M102.8,224.2h21.5l-3.3,12.7c-0.5,1.8-1.5,3.2-2.9,4.3c-1.4,1.1-3,1.6-4.8,1.6h-10c-2.3,0-4.3,0.7-6,2
				c-1.7,1.3-3,3.1-3.7,5.4c-0.4,1.7-0.5,3.3-0.1,4.8c0.3,1.5,1,2.9,1.9,4c0.9,1.2,2,2.1,3.4,2.8c1.4,0.7,2.9,1,4.6,1h6.1
				c1.1,0,2.1,0.5,2.8,1.4c0.7,0.9,0.9,1.9,0.6,3.1l-3.8,14.1h-6.6c-4.6,0-8.8-1-12.6-3c-3.8-2-7-4.6-9.5-7.9
				c-2.5-3.3-4.3-7-5.2-11.3c-0.9-4.2-0.8-8.5,0.3-13l0.4-1.4c0.8-3,2.1-5.8,3.8-8.4c1.7-2.6,3.8-4.8,6.2-6.6c2.4-1.8,5-3.2,7.9-4.2
				C96.6,224.7,99.6,224.2,102.8,224.2z"/>
			<path class="st0" d="M113.6,281.5l18.7-70.1c0.5-1.8,1.5-3.2,2.9-4.3c1.4-1.1,3-1.6,4.8-1.6h19.9c4.6,0,8.8,1,12.6,3
				c3.8,2,7,4.6,9.5,7.9c2.5,3.3,4.3,7,5.2,11.3c0.9,4.2,0.8,8.5-0.4,13l-0.4,1.4c-0.8,3-2.1,5.8-3.8,8.4c-1.7,2.6-3.8,4.8-6.1,6.6
				c-2.4,1.8-5,3.3-7.9,4.3c-2.9,1-6,1.5-9.1,1.5h-17.2l3.4-12.8c0.5-1.7,1.5-3.1,2.9-4.2c1.4-1.1,3-1.6,4.8-1.6h5.5
				c2.3,0,4.3-0.7,6.1-2.1c1.8-1.4,3-3.2,3.6-5.4c0.4-1.6,0.5-3.1,0.1-4.7c-0.3-1.5-1-2.9-1.9-4c-0.9-1.2-2-2.1-3.4-2.9
				c-1.4-0.7-2.9-1.1-4.6-1.1h-10.6l-13.9,51.6c-0.5,1.7-1.5,3.1-2.8,4.2c-1.4,1.1-3,1.6-4.8,1.6H113.6z"/>
			<path class="st0" d="M232.1,244.1l0.3-1c0.1-0.5,0-0.9-0.2-1.3c-0.3-0.3-0.7-0.5-1.2-0.5h-30.9c-1.3,0-2.5-0.3-3.6-0.9
				c-1.1-0.6-2-1.3-2.7-2.2c-0.7-0.9-1.2-2-1.4-3.2c-0.3-1.2-0.2-2.4,0.1-3.7l1.9-7.2h41.8c2.6,0,5,0.6,7.1,1.7
				c2.2,1.1,3.9,2.6,5.4,4.5c1.4,1.8,2.4,3.9,2.9,6.3c0.5,2.4,0.5,4.8-0.1,7.4l-7.5,27.9c-0.8,2.9-2.3,5.2-4.6,6.9
				c-2.3,1.8-5,2.7-7.9,2.7l-30.9-0.1c-2.7,0-5.2-0.6-7.5-1.8c-2.3-1.2-4.1-2.7-5.6-4.7c-1.5-1.9-2.5-4.1-3-6.6
				c-0.6-2.5-0.5-5,0.2-7.6l0.4-1.4c0.4-1.8,1.2-3.4,2.2-4.9c1-1.5,2.3-2.8,3.7-3.9c1.4-1.1,2.9-1.9,4.7-2.5
				c1.7-0.6,3.5-0.9,5.4-0.9h25.9l-1.9,7.1c-0.5,1.7-1.5,3.1-2.8,4.2c-1.4,1.1-3,1.6-4.8,1.6h-11.6c-1.1,0-1.8,0.5-2.1,1.6
				c-0.2,0.7-0.1,1.3,0.4,1.9c0.4,0.5,1,0.8,1.7,0.8h18.7c0.7,0,1.3-0.2,1.8-0.6c0.5-0.4,0.8-0.9,1-1.5l0.2-0.8L232.1,244.1z"/>
			<path class="st0" d="M287.4,224.2c4.6,0,8.8,1,12.7,3c3.8,2,7,4.6,9.5,7.9c2.5,3.3,4.3,7.1,5.2,11.3c0.9,4.2,0.8,8.6-0.4,13
				l-4.8,17.9c-0.3,1.3-1,2.3-2,3c-1,0.8-2.2,1.1-3.5,1.1h-10.3c-1.2,0-2.2-0.5-2.9-1.4c-0.7-0.9-0.9-1.9-0.6-3.1l5.7-21.6
				c0.4-1.6,0.5-3.1,0.1-4.7c-0.3-1.5-1-2.9-1.9-4c-0.9-1.2-2-2.1-3.4-2.8c-1.4-0.7-2.9-1.1-4.6-1.1h-10.6l-9.2,34.5
				c-0.3,1.3-1,2.3-2,3c-1,0.8-2.2,1.1-3.6,1.1h-10.2c-1.1,0-2.1-0.5-2.8-1.4c-0.7-0.9-0.9-1.9-0.6-3.1l14.1-52.8H287.4z"/>
			<path class="st0" d="M343.3,242.3c-0.8,0.6-1.3,1.4-1.6,2.3l-4.3,16.2c-0.3,0.9-0.1,1.7,0.5,2.5c0.6,0.8,1.3,1.1,2.3,1.1h39.3
				l-3,11.3c-0.5,1.7-1.5,3.1-2.9,4.2c-1.4,1.1-3,1.6-4.8,1.6h-35.8c-2.6,0-5-0.6-7.1-1.7c-2.2-1.1-3.9-2.6-5.4-4.5
				c-1.4-1.9-2.4-4-2.9-6.4c-0.5-2.4-0.5-4.8,0.2-7.3l5.8-21.6c0.6-2.3,1.6-4.5,2.9-6.5c1.3-2,2.9-3.6,4.7-5
				c1.8-1.4,3.8-2.5,6.1-3.3c2.2-0.8,4.6-1.2,7-1.2h25.4c2.6,0,5,0.6,7.1,1.7c2.2,1.1,3.9,2.6,5.4,4.5c1.4,1.8,2.4,4,2.9,6.4
				c0.5,2.4,0.4,4.8-0.2,7.3l-1.7,6.5c-0.8,2.9-2.3,5.1-4.6,6.9c-2.3,1.7-4.9,2.6-7.8,2.6h-28.7l1.9-7c0.4-1.7,1.4-3.1,2.8-4.2
				c1.4-1.1,3-1.6,4.8-1.6h11.6c1.1,0,1.8-0.5,2.1-1.6l0.4-1.4c0.2-0.7,0.1-1.3-0.4-1.9c-0.4-0.6-1-0.9-1.7-0.9h-17.7
				C344.9,241.4,344.1,241.7,343.3,242.3z"/>
			<path class="st0" d="M379.4,281.5l19.1-71.7c0.3-1.3,1-2.3,2-3.1c1-0.8,2.2-1.2,3.6-1.2h10.2c1.2,0,2.2,0.5,2.9,1.4
				c0.7,0.9,0.9,1.9,0.6,3.1l-14.2,52.9c-0.7,2.8-1.8,5.3-3.4,7.6c-1.6,2.3-3.4,4.2-5.5,5.8c-2.1,1.6-4.5,2.9-7.1,3.8
				C385,281,382.3,281.5,379.4,281.5z"/>
		</g>
	</g>
	<g>
		<path class="st0" d="M421.1,212.2c0-1.2,0.3-2.2,0.9-3.3c0.6-1,1.4-1.8,2.4-2.4c1-0.6,2.1-0.9,3.3-0.9c1.2,0,2.2,0.3,3.3,0.9
			c1,0.6,1.8,1.4,2.4,2.4c0.6,1,0.9,2.1,0.9,3.3c0,1.1-0.3,2.2-0.8,3.2c-0.6,1-1.4,1.8-2.4,2.4c-1,0.6-2.1,0.9-3.3,0.9
			c-1.2,0-2.3-0.3-3.3-0.9c-1-0.6-1.8-1.4-2.4-2.4C421.4,214.4,421.1,213.3,421.1,212.2z M422,212.2c0,1,0.3,1.9,0.8,2.8
			c0.5,0.9,1.2,1.6,2.1,2.1c0.9,0.5,1.8,0.8,2.8,0.8c1,0,1.9-0.3,2.8-0.8c0.9-0.5,1.5-1.2,2.1-2c0.5-0.9,0.8-1.8,0.8-2.8
			c0-1-0.3-1.9-0.8-2.8c-0.5-0.9-1.2-1.5-2-2.1c-0.9-0.5-1.8-0.8-2.8-0.8c-1,0-1.9,0.3-2.8,0.8c-0.9,0.5-1.5,1.2-2.1,2
			C422.2,210.2,422,211.2,422,212.2z M430.3,210.6c0,0.5-0.1,0.9-0.4,1.2c-0.2,0.4-0.6,0.6-1,0.8l2.1,3.4h-1.5l-1.8-3.1h-1.2v3.1
			h-1.3v-7.7h2.3c1,0,1.7,0.2,2.1,0.6C430,209.2,430.3,209.8,430.3,210.6z M426.5,211.9h0.9c0.5,0,0.8-0.1,1.1-0.4
			c0.3-0.2,0.4-0.5,0.4-0.9c0-0.4-0.1-0.7-0.4-0.9c-0.2-0.2-0.6-0.3-1.2-0.3h-0.9V211.9z"/>
	</g>
</g>
</svg>
