<svg enable-background="new 0 0 39 39" viewBox="0 0 39 39" xmlns="http://www.w3.org/2000/svg"><g fill="#939598"><path d="m5.1 17.6h2.2l-.3 1.2c0 .2-.1.3-.3.4-.1.1-.3.2-.5.2h-1c-.2 0-.4.1-.6.2s-.3.3-.4.5v.5c0 .1.1.3.2.4l.3.3c.1.1.3.1.5.1h.6c.1 0 .2 0 .3.1s.1.2.1.3l-.4 1.4h-.7c-.4 0-.9-.1-1.3-.3s-.7-.5-1-.8-.4-.7-.5-1.1-.1-.9 0-1.3v-.1c.2-.6.5-1.1 1-1.5.2-.2.5-.3.8-.4.4-.1.7-.1 1-.1z"/><path d="m6.2 23.3 1.9-7c0-.2.1-.3.3-.4.1-.1.3-.2.5-.2h2c.4 0 .9.1 1.3.3.8.4 1.3 1.1 1.5 1.9.1.4.1.9 0 1.3v.1c-.1.3-.2.6-.4.8-.5.8-1.4 1.2-2.3 1.2h-1.9l.3-1.3c0-.2.1-.3.3-.4.1-.1.3-.2.5-.2h.6c.5 0 .9-.3 1-.8 0-.2 0-.3 0-.5 0-.1-.1-.3-.2-.4s-.2-.2-.3-.3-.3-.1-.5-.1h-1.1l-1.4 5.2c0 .2-.1.3-.3.4-.1.1-.3.2-.5.2h-1.3z"/><path d="m18.1 19.6v-.1-.1s-.1-.1-.1-.1h-3.1c-.1 0-.3 0-.4-.1s-.2-.1-.3-.2-.1-.2-.1-.3 0-.2 0-.4l.2-.7h4.2c.2 0 .5.1.7.2s.4.3.5.4c.1.2.2.4.3.6s0 .5 0 .7l-.8 2.8c-.1.6-.7 1-1.3 1h-3.1c-.5 0-1-.2-1.3-.6-.1-.2-.3-.4-.3-.7-.1-.3-.1-.5 0-.8v-.1c0-.2.1-.3.2-.5.1-.1.2-.3.4-.4.1-.1.3-.2.5-.3s.4-.1.5-.1h2.6l-.2.7c0 .2-.1.3-.3.4-.1.1-.3.2-.5.2h-1.2c-.1 0-.2.1-.2.2v.2c0 .1.1.1.2.1h1.9c.1 0 .1 0 .2-.1 0 0 .1-.1.1-.2v-.1z"/><path d="m23.6 17.6c.4 0 .9.1 1.3.3s.7.5 1 .8.4.7.5 1.1.1.9 0 1.3l-.5 1.8c0 .1-.1.2-.2.3s-.2.1-.3.1h-1c-.2 0-.4-.1-.4-.3v-.1l.6-2.2c0-.2 0-.3 0-.5 0-.1-.1-.3-.2-.4s-.2-.2-.3-.3-.3-.1-.5-.1h-1.1l-.9 3.5c0 .1-.1.2-.2.3s-.2.1-.4.1h-1c-.1 0-.2 0-.3-.1s-.1-.2-.1-.3l1.4-5.3z"/><path d="m29.2 19.4c-.1.1-.1.1-.2.2l-.4 1.6c0 .2 0 .3.2.4h.1 3.9l-.3 1.1c0 .2-.1.3-.3.4-.1.1-.3.2-.5.2h-3.6c-.2 0-.5-.1-.7-.2s-.4-.3-.5-.4c-.1-.2-.2-.4-.3-.6s0-.5 0-.7l.6-2.2c.1-.2.2-.4.3-.6.3-.4.6-.7 1.1-.8.2-.1.5-.1.7-.1h2.5c.2 0 .5.1.7.2s.4.3.5.4c.1.2.2.4.3.6s0 .5 0 .7l-.2.6c-.1.3-.2.5-.5.7-.2.2-.5.3-.8.3h-2.9l.2-.7c0-.2.1-.3.3-.4.1-.1.3-.2.5-.2h1.2c.1 0 .2-.1.2-.2v-.1c0-.1 0-.2-.2-.3 0 0 0 0-.1 0h-1.8c.2 0 .1 0 0 .1z"/><path d="m32.8 23.3 1.9-7.2c0-.1.1-.2.2-.3s.2-.1.4-.1h1c.1 0 .2 0 .3.1s.1.2.1.3l-1.4 5.3c-.1.3-.2.5-.3.8-.2.2-.3.4-.6.6-.2.2-.5.3-.7.4-.3.1-.6.1-.9.1z"/></g></svg>