<?xml version="1.0" encoding="UTF-8"?><svg id="Layer_1" xmlns="http://www.w3.org/2000/svg" viewBox="0 0 243.7 243.7"><defs><style>.cls-1{fill:#0cc;}</style></defs><path class="cls-1" d="M113.71,54c1.34.77,1.25,1.85-.2,2.38l-85.01,31.49c-.91.45-2,.08-2.45-.82-.16-.31-.22-.66-.18-1.01V6.09c0-1.55,1.1-2.18,2.44-1.41l85.41,49.32ZM133.93,65.67c-1.57-.79-3.39-.95-5.07-.43L28.48,102.43c-1.53.66-2.56,2.12-2.64,3.79v6c0,1.55,1.26,2.81,2.81,2.81h187.92c1.55,0,1.72-.63.38-1.4l-83.02-47.96Z"/><path class="cls-1" d="M28.29,239.02c-1.34.77-2.44.14-2.44-1.41v-79.96c-.04-.35.02-.7.18-1.01.45-.91,1.55-1.27,2.45-.82l85.01,31.5c1.45.54,1.54,1.61.2,2.38l-85.41,49.32Z"/><path class="cls-1" d="M216.95,130.06c1.34-.76,1.17-1.4-.38-1.4H28.65c-1.55,0-2.81,1.26-2.81,2.81v6c.08,1.66,1.11,3.13,2.64,3.79l100.38,37.19c1.68.52,3.5.36,5.07-.43l83.01-47.96Z"/></svg>