<svg width="50px" height="50px" enable-background="new 0 0 160 160" viewBox="0 0 160 160" xmlns="http://www.w3.org/2000/svg"><g fill="#fff"><path d="m61.4 17.9c.1.3.3.6.6.8l24.9 24.9c-2.3-.4-4.6-.6-6.8-.6-9.9 0-19.2 3.8-26.2 10.8l-40.3 40c-.1.1-.2.2-.3.3l-9.6-9.6c-2.5-2.5-2.5-6.5 0-9zm0-1.8c-.5 0-.9.2-1.2.5l-57.7 57.7c-3.2 3.2-3.2 8.3 0 11.5l9.6 9.6c.3.3.8.5 1.2.5h.1c.5 0 1-.3 1.3-.7 0-.1.1-.1.1-.2l40.2-40.1c6.7-6.6 15.5-10.3 25-10.3 2.2 0 4.3.2 6.5.6h.3c.6 0 1.2-.4 1.5-.9.4-.7.2-1.5-.3-2.1l-24.8-24.8c-.1-.1-.2-.2-.2-.4-.3-.5-.7-.8-1.3-.9-.1 0-.2 0-.3 0z"/><path d="m80 1.9c1.7 0 3.3.7 4.5 1.9l57.6 57.6c-.1.1-.3.2-.4.3l-25.2 25.3c2.2-12-1.6-24.4-10.2-33.1l-3.2-3.2 5.7-7.2s0 0 0-.1c2.4-3.1 1.7-5.8 1-7.2 0 0 0-.1-.1-.1-1.1-2.1-3.3-3.5-5.7-3.5-1.6 0-3 .5-4.5 1.7l-7.3 5.6-25.6-25.9c-.2-.2-.5-.4-.8-.5l9.7-9.7c1.2-1.2 2.8-1.9 4.5-1.9zm0-1.7c-2.2 0-4.2.8-5.7 2.4l-9.7 9.7c-.4.4-.6 1-.5 1.5.1.6.5 1 1 1.3.2.1.2.1.3.2l25.9 25.9c.3.3.8.5 1.2.5s.7-.1 1.1-.4l7.3-5.6c1.1-.9 2.2-1.3 3.4-1.3 1.7 0 3.3 1 4.1 2.5v.1c.6 1.2.9 3.1-.8 5.3v.1l-5.7 7.2c-.5.7-.5 1.7.1 2.3l3.2 3.2c8.2 8.3 11.8 20 9.7 31.5-.1.8.2 1.5.9 1.9.3.1.5.2.8.2.5 0 .9-.2 1.2-.5l25.2-25.2s0 0 .1-.1c.5-.3.7-.8.8-1.3s-.1-1.1-.5-1.4l-57.6-57.6c-1.6-1.6-3.6-2.4-5.8-2.4z"/><path d="m43.3 73.3c-2.3 11.9 1.4 24 9.9 32.8l3.4 3.4-5.6 7.1c-1.8 2.3-2.2 4.9-1 7.3 0 0 0 .1.1.2 1 1.9 3 3.2 5.2 3.4h.3c2 0 3.4-.9 4.5-1.6l7.2-5.5 25.8 25.6c.3.3.6.5 1 .7l-9.6 9.6c-1.2 1.2-2.8 1.9-4.5 1.9s-3.3-.7-4.5-1.9l-57.6-57.7c.1-.1.2-.2.3-.3zm0-1.8c-.5 0-.9.2-1.2.5l-25.1 25.1s0 0-.1.1c-.4.3-.7.8-.7 1.3s.1 1 .5 1.4l57.6 57.6c1.5 1.5 3.6 2.4 5.7 2.4s4.2-.8 5.8-2.4l9.6-9.6c.4-.4.6-1 .5-1.5s-.5-1-1-1.3c-.2-.1-.3-.2-.4-.3l-25.9-25.8c-.3-.3-.8-.5-1.2-.5s-.8.1-1.1.4l-7.2 5.5c-.9.7-1.9 1.3-3.4 1.3h-.1c-.1 0-.1 0-.2 0-1.5-.1-3-1-3.8-2.4 0 0 0 0 0-.1v-.1c-1.1-2.2-.1-4.2.8-5.4l5.6-7.1c.5-.7.5-1.7-.1-2.3l-3.4-3.4c-8.1-8.4-11.6-19.8-9.4-31.2.1-.8-.2-1.5-.9-1.9-.3-.2-.6-.3-.9-.3z"/><path d="m146.7 66 9.5 9.5c2.5 2.5 2.5 6.5 0 9l-57.8 57.8c-.2-.4-.4-.7-.7-1l-24.7-24.7c2.3.4 4.6.6 6.8.6 9.9 0 19.2-3.8 26.2-10.8l40.2-40.2c.3 0 .4-.1.5-.2zm0-1.8h-.1c-.5 0-1 .3-1.3.7-.1.1-.1.2-.1.2l-40.2 40.2c-6.7 6.6-15.6 10.3-25 10.3-2.1 0-4.3-.2-6.5-.6-.1 0-.2 0-.3 0-.6 0-1.2.4-1.5.9-.4.7-.2 1.5.3 2.1l24.7 24.7c.1.1.2.3.3.5.2.5.7.9 1.3 1h.3c.5 0 .9-.2 1.2-.5l57.8-57.8c3.2-3.2 3.2-8.3 0-11.5l-9.5-9.5c-.5-.5-.9-.7-1.4-.7z"/><path d="m104.2 37.9c.4 0 .8.3 1 .6.3.5.1 1-.4 1.7l-23.6 30s6 8.5 13.4 19.3c.4.6.6 2.8-.6 3.7l-36.9 28.3c-.6.4-.9.6-1.3.6-.4 0-.8-.3-.9-.6-.1-.2-.4-.8.4-1.8l23.6-29.9-13.5-19.1c-.9-1.2-.6-3 .6-3.9l37-28.4c.6-.5.9-.5 1.2-.5zm0-1.8c-.8 0-1.5.3-2.3.9l-36.9 28.4c-1.9 1.5-2.4 4.3-1 6.3l12.6 18.1-22.8 28.9c-1 1.3-1.2 2.5-.6 3.7v.1c.4.8 1.4 1.4 2.4 1.5h.1c.9 0 1.6-.4 2.4-.9l36.9-28.5c2-1.5 2-4.7 1-6.1-7.3-10.6-12.7-18.3-12.7-18.3l22.8-28.9c.4-.5 1.4-1.9.7-3.6 0 0 0 0 0-.1-.5-.9-1.5-1.5-2.6-1.5z"/></g><path d="m80 42.9c2.3 0 4.6.2 6.8.6l-24.8-24.9c-.2-.2-.4-.5-.6-.8l-57.6 57.7c-2.5 2.5-2.5 6.5 0 9l9.6 9.6c.1-.1.2-.2.3-.3l40.1-40.1c7-7 16.3-10.8 26.2-10.8z" fill="#b5d8f2"/><path d="m92.5 39.9 7.3-5.6c1.4-1.1 2.9-1.7 4.5-1.7 2.4 0 4.6 1.3 5.7 3.5 0 0 0 .1.1.1.6 1.3 1.4 4.1-1 7.2v.1l-5.7 7.2 3.2 3.2c8.4 8.6 12.2 21.1 9.9 33.1l25.2-25.2c.1-.1.3-.2.4-.3l-57.6-57.7c-1.2-1.2-2.8-1.9-4.5-1.9s-3.3.7-4.5 1.9l-9.7 9.7c.3.1.6.3.8.5z" fill="#61d2b4"/><path d="m67.4 120.2-7.2 5.5c-1 .8-2.4 1.6-4.5 1.6-.1 0-.2 0-.3 0-2.2-.1-4.2-1.5-5.2-3.4 0 0-.1-.1-.1-.2-1.1-2.4-.8-4.9 1-7.3l5.6-7.1-3.4-3.4c-8.5-8.8-12.2-20.9-9.9-32.8l-25.2 25.3c-.1.1-.2.2-.3.3l57.6 57.6c1.2 1.2 2.8 1.9 4.5 1.9s3.3-.7 4.5-1.9l9.6-9.6c-.3-.2-.7-.4-1-.7z" fill="#61d2b4"/><path d="m156.2 75.5-9.5-9.5c-.1.1-.2.3-.3.4l-40.2 40.2c-7 7-16.3 10.8-26.2 10.8-2.3 0-4.6-.2-6.8-.6l24.7 24.7c.3.3.5.6.7 1l57.8-57.8c2.3-2.7 2.3-6.7-.2-9.2z" fill="#b5d8f2"/><path d="m104.8 40.2-23.6 30s6 8.5 13.4 19.3c.4.6.6 2.8-.6 3.7l-36.9 28.3c-.6.4-.9.6-1.3.6-.4 0-.8-.3-.9-.6-.1-.2-.4-.8.4-1.8l23.6-29.9-13.5-19.1c-.9-1.2-.6-3 .6-3.9l37-28.4c.6-.5 1-.6 1.3-.6.4 0 .8.3 1 .6.2.6.1 1.1-.5 1.8z" fill="#f5d10a"/></svg>