<svg width="50px" height="50px" viewBox="0 0 1024 1024" xmlns="http://www.w3.org/2000/svg"><path d="m515.41 109.78c-218.22 0-401.95 176.91-401.95 395.21v409.23l401.87-.38c218.22 0 395.21-183.74 395.21-402s-177.14-402.06-395.13-402.06z" fill="#231f20"/><path d="m519.28 262.75c-135.32.08-245 109.84-244.88 245.17a245 245 0 0 0 29.53 116.48l-44.32 142.6 159.17-36c123.34 55.57 268.38.63 324-122.71s.63-268.38-122.71-324a244.78 244.78 0 0 0 -100.5-21.62z" fill="#fff9ae"/><path d="m713.63 358.68c82 107.53 61.34 261.2-46.2 343.21a244.83 244.83 0 0 1 -248.65 28.75l-159.17 36.43 162-19.14c116.7 68.35 266.71 29.17 335.07-87.52a244.88 244.88 0 0 0 -43.05-301.73z" fill="#00aeef"/><path d="m668.53 313.5c92.8 98.39 88.26 253.37-10.12 346.16a244.89 244.89 0 0 1 -244.28 54.56l-154.52 52.85 159.17-36c123.25 55.68 268.29.89 324-122.36a244.88 244.88 0 0 0 -74.25-295.21z" fill="#00a94f"/><path d="m318.58 629.83c-51.84-124.96 7.42-268.28 132.42-320.12a245 245 0 0 1 262.79 48.89c-82-107.6-235.69-128.36-343.3-46.37a245 245 0 0 0 -66.56 312.17l-44.32 142.6z" fill="#f15d22"/><path d="m303.93 624.4c-64.4-119-20.17-267.62 98.79-332a245 245 0 0 1 265.81 21.1c-93.16-98.09-248.2-102.09-346.3-8.93a245 245 0 0 0 -33.41 316l-29.13 146.5z" fill="#e31b23"/></svg>