<?xml version="1.0" encoding="utf-8"?>
<!-- Generator: Adobe Illustrator 24.0.3, SVG Export Plug-In . SVG Version: 6.00 Build 0)  -->
<svg width="50px" height="50px" version="1.1" id="Layer_1" xmlns="http://www.w3.org/2000/svg" xmlns:xlink="http://www.w3.org/1999/xlink" x="0px" y="0px"
	 viewBox="0 0 1024 1024" style="enable-background:new 0 0 1024 1024;" xml:space="preserve">
<style type="text/css">
	.st0{fill:#092E20;}
</style>
<path class="st0" d="M483.1,105.5h133v615.4C547.8,733.8,497.8,739,443.4,739c-162.3,0-246.9-73.4-246.9-214.1
	c0-135.5,89.8-223.6,228.8-223.6c21.6,0,38,1.7,57.8,6.9C483.1,308.2,483.1,105.5,483.1,105.5z M483.1,415.2
	c-15.5-5.2-28.5-6.9-44.9-6.9c-67.3,0-106.2,41.4-106.2,114c0,70.8,37.1,109.6,105.3,109.6c14.7,0,26.8-0.9,45.8-3.4V415.2z
	 M827.5,310.8V619c0,106.2-7.8,157.1-31.1,201.2c-21.6,42.3-50.1,69.1-108.8,98.4l-123.5-58.7c58.7-27.6,87.2-51.8,105.3-88.9
	c19-38,25-82,25-197.7V310.8H827.5z M694.6,106.2h132.9v136.4H694.6V106.2z"/>
</svg>
