<svg enable-background="new 0 0 1024 1024" viewBox="0 0 1024 1024" xmlns="http://www.w3.org/2000/svg"><path d="m566.3 489.7h85.3v-77.2h-85.3zm-101.5 0h85.3v-77.2h-85.3zm-99.6 0h85.3v-77.2h-85.3zm-99.5 0h83.3v-77.2h-83.3zm-101.5 0h85.3v-77.2h-85.3zm101.5-93.5h83.3v-77.2h-83.3zm99.5 0h85.3v-77.2h-85.3zm99.6 0h85.3v-77.2h-85.3zm0-93.4h85.3v-77.2h-85.3zm458.9 152.3s-36.6-34.5-111.7-22.3c-8.1-58.9-71.1-93.4-71.1-93.4s-58.9 71.1-16.2 150.3c-12.2 6.1-32.5 14.2-63 14.2h-558.4c-10.2 38.6-10.2 294.5 270.1 294.5 201.1 0 351.3-93.4 422.4-264 105.6 8.1 127.9-79.3 127.9-79.3z" fill="#7b7d7f"/></svg>