<svg  width="40px" viewBox="0 0 186.52541 243.71308" xmlns="http://www.w3.org/2000/svg"><path d="m131.64024 51.90954c-17.149-17.14088-33.51079-33.48096-38.38024-51.90954-4.86976 18.42858-21.23417 34.76866-38.3803 51.90954-25.71933 25.70309-54.8797 54.83366-54.8797 98.52446a93.26271 93.26271 0 1 0 186.52541 0c0-43.688-29.158-72.8214-54.88517-98.52449m-92.00068 120.25627c-5.71847-.19418-26.82308-36.57089 12.32937-75.303l25.90873 28.30088a2.21467 2.21467 0 0 1 -.173 3.30485c-6.18245 6.34085-32.53369 32.7658-35.809 41.90292-.676 1.886-1.66339 1.81463-2.25619 1.79436m53.62336 47.94341a32.07521 32.07521 0 0 1 -32.07544-32.07543 33.42322 33.42322 0 0 1 7.99471-21.18667c5.7836-7.07224 24.07643-26.96358 24.07643-26.96358s18.01279 20.18332 24.03326 26.89607a31.36794 31.36794 0 0 1 8.04647 21.25418 32.07551 32.07551 0 0 1 -32.07543 32.07543m61.3923-52.015c-.69131 1.51192-2.25954 4.036-4.37617 4.113-3.77288.13741-4.176-1.79579-6.96465-5.92291-6.12235-9.06007-59.55167-64.89991-69.54517-75.69925-8.79026-9.49851-1.23783-16.195 2.26549-19.70431 4.39526-4.40305 17.22486-17.22473 17.22486-17.22473s38.25479 36.29607 54.19029 61.09626 10.44364 46.26024 7.20535 53.342" fill="#009cde"/></svg>