<svg width="40px" enable-background="new 0 0 186.5 243.7" viewBox="0 0 186.5 243.7" xmlns="http://www.w3.org/2000/svg"><path d="m131.6 51.9c-17.1-17.1-33.5-33.5-38.3-51.9-4.9 18.4-21.3 34.8-38.4 51.9-25.7 25.7-54.9 54.8-54.9 98.5 0 51.5 41.7 93.3 93.2 93.3s93.3-41.7 93.3-93.2v-.1c0-43.7-29.1-72.8-54.9-98.5m-92 120.3c-5.7-.2-26.8-36.6 12.4-75.3l25.9 28.3c.9.9.9 2.3 0 3.1-.1.1-.1.1-.2.2-6.2 6.3-32.5 32.8-35.8 41.9-.7 1.9-1.7 1.8-2.3 1.8m53.7 47.9c-17.7 0-32.1-14.4-32.1-32.1.1-7.8 2.9-15.3 8-21.2 5.8-7.1 24.1-27 24.1-27s18 20.2 24 26.9c5.2 5.8 8.1 13.4 8 21.3 0 17.7-14.3 32.1-32 32.1m61.4-52c-.7 1.5-2.3 4-4.4 4.1-3.8.1-4.2-1.8-7-5.9-6.1-9.1-59.6-64.9-69.5-75.7-8.8-9.5-1.3-16.2 2.2-19.7 4.4-4.4 17.2-17.2 17.2-17.2s38.3 36.3 54.2 61.1 10.5 46.2 7.3 53.3" fill="#939598"/></svg>