<svg height="40px" enable-background="new 0 0 243.7 243.7" viewBox="0 0 243.7 243.7" xmlns="http://www.w3.org/2000/svg" xmlns:xlink="http://www.w3.org/1999/xlink"><linearGradient id="a" gradientTransform="matrix(1 0 0 -1 564 444)" gradientUnits="userSpaceOnUse" x1="-375.8104" x2="-508.4891" y1="437.0531" y2="207.2466"><stop offset="0" stop-color="#12cd87"/><stop offset="1" stop-color="#12abcd"/></linearGradient><path clip-rule="evenodd" d="m241 113.2c3.6-6.3 3.6-14 0-20.3l-45.4-78.6c-3.6-6.2-10.3-10.1-17.5-10.1h-90.8c-7.2 0-13.9 3.9-17.6 10.1l-29.6 51.5-37.4 64.7c-3.6 6.3-3.6 14 0 20.3l45.4 78.6c3.6 6.3 10.3 10.1 17.6 10.1h90.7c7.2 0 13.9-3.9 17.6-10.1l29.7-51.4zm-37.4 64.7 1.8-3.1c3.6-6.3 3.6-14 0-20.3l-45.4-78.6c-3.6-6.3-10.3-10.1-17.6-10.1h-102.3l-1.8 3.1c-3.6 6.3-3.6 14 0 20.3l45.4 78.6c3.6 6.3 10.3 10.1 17.6 10.1z" fill="url(#a)" fill-rule="evenodd"/></svg>