<svg width="50px" height="50px" enable-background="new 0 0 480 480" viewBox="0 0 480 480" xmlns="http://www.w3.org/2000/svg"><path d="m400.3 4.7c-120.9 23-231.4 56.3-325.2 102.2-4.2 0-6.3 4.2-6.3 8.3v18.8 20.8 18.8 6.3 18.8 20.8 18.8 14.6 37.5 22.9 37.5c0 22.9 12.5 43.8 31.3 54.2l108.4 62.5c18.8 10.4 43.8 10.4 62.5 0l108.4-62.5c18.8-10.4 31.3-31.3 31.3-54.2v-62.5-14.6-62.5-50-18.8-43.9-18.7-8.3-58.4c2.1-4.2-4.2-8.4-10.4-8.4z" fill="#0068ad"/><g fill="#fff"><path d="m348.2 54.8c-87.5 16.7-168.8 43.8-237.6 77.1-2.1 0-4.2 4.2-4.2 6.3v12.5 14.6 12.5 14.6s0 0 0-2.1c70.9-35.4 154.2-62.5 248-79.2v-50.1c2.1-4.2-2.1-6.2-6.2-6.2z"/><path d="m264.8 156.9c-56.3 14.6-108.4 33.3-154.2 56.3-2.1 2.1-4.2 4.2-4.2 6.3v12.5 14.6 12.4 14.6s0 0 0-2.1c45.9-22.9 100-41.7 156.3-58.4z"/><path d="m173.1 267.3c-20.8 8.3-41.7 16.7-62.5 27.1-2.1 2.1-4.2 4.2-4.2 6.3v14.6 14.6 12.5 14.6s0 0 0-2.1c20.8-10.4 43.8-20.8 66.7-29.2z"/></g></svg>