<svg width="50px" height="50px" viewBox="0 0 1024 1024" xmlns="http://www.w3.org/2000/svg"><path d="m235.8 250.54c-65.21-.18-152.61 46.46-147.8 163.3 7.56 182.61 173.91 199.55 240.42 201 7.3 34.25 85.54 152.38 143.48 158.61h253.83c152.19-11.39 266.16-517.53 181.67-519.45-319.59 16.93-341.54 14.61-605.28 0-17.04-.19-40.8-3.39-66.32-3.46zm17 64.62c9.24 93.54 24.3 148.27 54.78 231.89-77.76-10.28-143.94-35.69-156.11-130.55-6.47-50.63 16.35-103.62 101.35-101.34z" fill="#609926" stroke="#428f29" stroke-miterlimit="15.12" stroke-width="6.83"/><rect fill="#fff" height="237.48" rx="37.45" transform="matrix(.43695878 -.89948153 .89948153 .43695878 -168.55 837.19)" width="237.48" x="465.77" y="434.5"/><path d="m591.7 412.73 22.14 11v-162h-22.29z" fill="#fff"/><g fill="#609926"><circle cx="570.29" cy="486.37" r="23.74"/><circle cx="519.35" cy="592.03" r="23.74"/><circle cx="603.13" cy="629.65" r="23.74"/><path d="m464.11 502.06h186.24v18.26h-186.24z" transform="matrix(.43868486 -.89864097 .89864097 .43868486 -146.61 787.64)"/></g><path d="m569.52 486.22c88.64 43.69 88.89 28 33.41 142.83" fill="none" stroke="#609926" stroke-miterlimit="15.12" stroke-width="18.31"/></svg>