<svg enable-background="new 0 0 243.7 243.7" viewBox="0 0 243.7 243.7" xmlns="http://www.w3.org/2000/svg"><g fill="#3b5cfd"><path d="m113.4 128c2.6-.6 5.2-1.3 7.8-1.3s5.2.6 7.8 1.3c4.5 1.9 20.7 7.8 25.3 9.1v-25.9c0-3.9-3.2-7.1-7.1-7.1h-18.2v-12.4c0-3.9-3.2-7.1-7.1-7.1s-7.1 3.2-7.1 7.1v12.3h-18.2c-3.9 0-7.1 3.2-7.1 7.1v25.9c3.2-1.2 19.4-7.1 23.9-9z"/><path d="m166.5 157.8-21.4-7.8-21.4-7.8c-.6 0-1.9-.6-2.6-.6-.6 0-1.9 0-2.6.6l-42.7 15.5c-3.9 1.3-5.8 5.8-4.5 9.7l20.1 55.7c1.3 3.2 3.9 5.2 7.1 5.2h46.6c3.2 0 5.8-1.9 7.1-5.2l20.1-55.7c.1-4.4-1.9-8.3-5.8-9.6z"/><path d="m233.9 128h-20.7c-1.9-19.4-9.7-37.6-21.4-51.8l14.9-14.9c3.2-3.2 3.2-7.8 0-11s-7.8-3.2-11 0l-14.9 14.9c-14.2-12.3-32.4-20.1-51.8-21.4v-20.7c0-4.5-3.2-7.8-7.8-7.8-4.5 0-7.8 3.2-7.8 7.8v20.7c-19.4 2-37.5 9.7-51.8 21.4l-14.9-14.9c-2.6-3.2-7.8-3.2-11 0s-3.2 8.4 0 11l14.9 14.9c-12.3 14.2-20.1 32.4-21.3 51.8h-20.8c-4.5 0-7.8 3.2-7.8 7.8s3.2 7.8 7.8 7.8h20.7c1.9 19.4 9.7 37.6 21.4 51.8l-14.9 14.9c-3.2 3.2-3.2 7.8 0 11 1.3 1.3 3.2 2.6 5.8 2.6 1.9 0 3.9-.6 5.8-2.6l14.9-14.9c7.8 6.5 16.2 11.7 25.9 15.5l-7.8-21.4c-2.6-1.3-4.5-3.2-7.1-5.2-3.9-3.2-7.8-7.1-11-11-9.1-11-15.5-25.3-16.8-40.8 0-2.6-.6-5.2-.6-7.8s0-5.2.6-7.8c1.3-15.5 7.8-29.1 16.8-40.8 3.2-3.9 7.1-7.8 11-11 11-9.1 25.3-15.5 40.8-16.8 2.6 0 5.2-.6 7.8-.6s5.2 0 7.8.6c15.5 1.3 29.1 7.8 40.8 16.8 3.9 3.2 7.8 7.1 11 11 9.1 11 15.5 25.3 16.8 40.8 0 2.6.6 5.2.6 7.8s0 5.2-.6 7.8c-1.3 15.5-7.8 29.1-16.8 40.8-3.2 3.9-7.1 7.8-11 11-1.9 1.9-4.5 3.2-7.1 5.2l-7.8 21.4c9.7-3.9 18.1-9.1 25.9-15.5l14.9 14.9c1.3 1.3 3.2 2.6 5.8 2.6 1.9 0 3.9-.6 5.8-2.6 3.2-3.2 3.2-7.8 0-11l-14.9-14.9c12.3-14.2 20.1-32.4 21.4-51.8h20.7c4.5 0 7.8-3.2 7.8-7.8-1.3-4.6-4.5-7.8-9-7.8z"/></g></svg>