<svg width="150px" enable-background="new 0 0 1024 1024" viewBox="0 0 1024 1024" xmlns="http://www.w3.org/2000/svg" xmlns:xlink="http://www.w3.org/1999/xlink"><linearGradient id="a" gradientUnits="userSpaceOnUse" x1="512.0499" x2="512.0499" y1="960.4999" y2="63.6"><stop offset="0" stop-color="#fabf0d"/><stop offset=".9979" stop-color="#f05a28"/></linearGradient><path d="m821.3 253.8c12.4-49.5-15.5-92.8-15.5-92.8-47.9-3.1-78.9 15.5-89.7 23.2-3.7-3.7-60.6-24.7-89.6-24.7-20.1-68-80.4-95.9-80.4-95.9-56.9 37-80.4 91.6-80.4 105.2-3.5 1.7-38.7 7.7-71.2 29.4-26.2 13-26.1 20-30.9 15.5-92.8-35.6-176.3 7.7-176.3 7.7-7.7 99 37.1 160.8 46.4 173.2 0 .1-16.3 44.9-21.7 88.2 0 3.1-1.5 6.2-1.5 10.8-86.7 41.6-111.4 129.8-111.4 129.8 71.1 82 154.7 88.2 154.7 88.2 20.8 35.8 38.1 56.6 55.7 74.2-26.3 74.2 3.1 137.6 3.1 137.6 80.4 3.1 133-35.6 143.8-43.3 39.1 15.8 89.4 18.5 131.3 18.5 37.1 54.1 103.6 61.9 103.6 61.9 52.6-55.7 49.5-111.4 49.5-111.4-2.5-2.5-5.2 2.7 27.9-24.7 24.5-22.4 52.6-58.6 52.6-63.4 52.6 3.1 91.2-32.5 91.2-32.5-8.3-55.3-43.5-88.2-49.4-88.2 0-3.2 4.6-59.3-1.6-83.5-51.5-192.6-273.8-224.4-361.9-114.3-54.1 67.6-50 143.6-13.9 191.7 36.8 49.1 80.7 52.5 120.4 52.5 13.2 0 34.1-7.8 46.3-20 10.4-7-2.8-20.4-9.3-13.9-4.1-4.1-3.2-.9-15.4 3.1-3.1 1.5-7.7 1.5-12.4 3.1-2.7 0-9.7 0-12.4 0-50.8 0-95.4-38.2-95.4-103.4 0-21.6 19.1-86.3 86.6-103.7 67.4-16.3 152.4 25.3 173.2 119.2 0 6.2 1.5-4.1 1.5 35.6 0 67.2-63.2 176.4-196.4 176.4-137.9 0-244.3-121-244.3-235.2 0-31.1-2.6-64.5 29.3-143.8 26.6-59.2 74.3-104.8 109.8-119.1 15.4-7.5 72.9-25.9 89.7-25.9 1.5 0 3.1 0 6.2-1.5 1.5 0 4.6 0 6.2-1.5 58.2 0 71.3-1.2 97.4 4.6 76.2 12.6 135.6 54.1 184.2 114.4 46 63.1 53.4 104.9 60.2 125.4 4.4 9 13.9 3.9 13.9-1.6-7-38.9-.4-141.8-103.7-245.1z" fill="url(#a)"/></svg>
