<svg width="50px" height="50px" viewBox="0 0 1024 1024" xmlns="http://www.w3.org/2000/svg"><path d="m563.81 100.73c307.54 40.92 463.71 386.64 291.51 644.69-197.19 284.04-627.8 222.38-737.93-105.42-91.82-289.24 145.12-575.6 446.42-539.27zm141.63 321.79c-2.87-14.86-1.33-31.18-16.13-39.51-4.61-2.48-10.52-6.08-11.86-10.41-5.21-23.47-39-23.12-32.34-36 16.77-50.86 25.87-35.33-6.2-59.78-14.06-11.63-33.12-9.73-50.18-10.56-17.23.15-33.85-2.41-50-8.71-9.43-3.69-19-6.17-29.57-4.43-14 2.33-28.31 3.37-39.78 13.26-39.72 21.35-76.83-4.07-110.23 38.72-13.69 12.77-30.53 20.14-47.5 27.08-9.29 3.8-14.93 9.88-18.13 19.45-6.68 24.59-36.84 42.48-28.51 70.11 61 124.14 361.47 116.52 463.09 46.48 26-16 54-47.48 36-79.31zm-435.34-96.73-2.2-1.66c-39 21.35-87.07 52.6-84.47 102.9 1.09 18-1.66 37.62 9.83 53.13 6.92 20.56-1.65 48 16.39 63.72 150.94 117.75 371.12 122.35 541.45 44.67 27.39-14.51 61-27.81 77.36-55.34 9.08-52 40.63-129.26-11.14-167.15-8.41-6.22-16 6.56-22.73 9.89 30.39 53.24-14.85 104.13-61 127.31-85.92 44.94-186.32 53.5-281.59 44.07-79.3-7.52-263.58-56.33-214.7-166.39 11.13-18.28 21.89-36.76 32.8-55.15zm-41.78 296c97.07 204 458.52 205.86 564.34 8l-1.47-1.16c-158.08 111.87-408.11 109.8-562.87-6.85zm450.68-294.49c13.31 7.18 13.13 7.27 20.23 21.68 8.44 10.18 20.12 16.06 25.2 29.38 31-21.63 66.07-36.67 90.86-65.23 7.47-8.7 7.38-12.88-1.39-20.22-12-10.07-24.46-20-38-27.75-14.85-8.48-30.93-15-46.93-21.16-19.32-14-43.88 69.46-49.97 83.3z" fill="#010101"/><path d="m705.44 422.52 58.72-33.6c7.87 14.65 7.41 28.83 0 42.88-8.32 15.71-21.38 27-36 36.43-34.81 22.51-73.77 33.92-114 41.5a514.62 514.62 0 0 1 -110.64 8.73c-54.14-1.62-107.27-9.28-157.94-29.57-23-9.2-44.53-20.81-62.32-38.49-8.23-8.18-14.62-17.51-18.16-28.65-3.63-11.41-.74-21.69 5.68-31.27 4.09-6.09 8.62-11.9 12.36-18.19 3.93-6.64 8.05-13.4 10.47-20.65 3.2-9.57 8.84-15.65 18.13-19.45 17-6.94 33.81-14.31 47.5-27.09 1.89-1.76 4.09-3.27 5.7-5.26 15.68-19.4 37.46-23.27 60.43-23.26 13.82 0 27.05-1.7 39.53-7.81 1.55-.75 3.31-1.28 4.57-2.38 11.47-9.89 25.75-10.93 39.78-13.26 10.52-1.74 20.14.74 29.57 4.43 16.11 6.3 32.73 8.86 50 8.71 8.82-.07 17.67.62 26.47 1.38s16.74 3.44 23.71 9.18a229.93 229.93 0 0 0 18.76 13.78c3.15 2.1 3.6 3.92 2.22 7.37-5.09 12.81-9.7 25.81-14.78 38.63-1.63 4.13-1.31 7 2.92 8.92 1 .45 1.77 1.26 2.74 1.71 11.7 5.47 22.37 11.47 26.68 25.36 1.34 4.33 7.25 7.93 11.85 10.41 8.62 4.64 11.61 12.26 13.25 20.92 1.02 5.86 1.75 11.78 2.8 18.59z" fill="#588c36"/><path d="m679 327.3c9.29-26.61 18.95-53.09 34.12-77.13 5.16-8.18 7-9.6 15.84-6.17 16 6.19 32.08 12.68 46.93 21.16 13.55 7.74 26 17.68 38 27.75 8.77 7.34 8.86 11.52 1.39 20.22-6.54 7.62-13.77 15.12-22 20.74-22.4 15.27-45.49 29.5-68.85 44.49-1.94-3.83-2.69-6.47-4.34-8.31-4.34-4.87-9-9.42-13.67-14-2.39-2.38-5.79-4.19-7.19-7-7.13-14.48-6.95-14.57-20.23-21.75z" fill="#d5b743"/></svg>