<svg enable-background="new 0 0 72 72" viewBox="0 0 72 72" xmlns="http://www.w3.org/2000/svg" xmlns:xlink="http://www.w3.org/1999/xlink"><linearGradient id="a" gradientUnits="userSpaceOnUse" x1="29.0567" x2="60.3697" y1="20.4805" y2="4.5258"><stop offset="0" stop-color="#499fdf"/><stop offset=".293" stop-color="#7dbae8"/><stop offset=".9644" stop-color="#fff"/></linearGradient><path d="m20.2 60.6c.2-1.8.3-3.5.5-5.3 4.8 2.1 9.5 4.2 14.2 6.2.1 1.2.2 2.5.3 3.7-3.2.1-9.1-.5-15-4.6zm1.3-33.5v6.7c-.4 0-.7.1-1.1.1v3.3h1.8c-.1 1.6-.3 3.2-.4 4.7 3.9 1.7 7.8 3.5 11.8 5.2-.3-3.4-.5-6.7-.8-10h1.5c0-1.1 0-2.2 0-3.3-.4 0-.7-.1-1-.1 0-2.3 0-4.5 0-6.7.4 0 .7-.1 1.1-.1 0-.3 0-.6 0-.9 0-.4 0-.5 0-.6 0-1.2-6.2-5.7-6.4-7.1 0-.2-.3-.5-.5-.5s-.5.2-.6.4c-.1.1-.1.4-.1.6-2.1 2.1-4.2 4.1-6.3 6.2v2c.3.1.7.1 1 .1zm2 0h7.9v6.7c-.6 0-1.2 0-1.8 0 0-.3 0-.6 0-.8 0-.3 0-.5 0-.5 0-.3 0-.6 0-.9 0 0 .3-2.8-2.1-2.8s-2.1 3-2.1 3.1v1.2.7c-.6 0-1.2 0-1.8 0-.1-2.2-.1-4.5-.1-6.7zm11.2 32.7c-.1-.9-.1-1.7-.2-2.5-4.5-2-9-3.9-13.5-5.9-.1.8-.1 1.5-.2 2.3 4.6 2 9.2 4.1 13.9 6.1zm-13.4-12.3c-.1.8-.1 1.5-.2 2.3 4.4 1.9 8.8 3.9 13.2 5.8-.1-.9-.1-1.7-.2-2.5-4.2-1.8-8.5-3.7-12.8-5.6zm12.7 3.9c-.1-.9-.1-1.7-.2-2.5-4-1.8-8-3.5-12.1-5.3-.1.8-.1 1.5-.2 2.3 4.1 1.8 8.3 3.6 12.5 5.5z" fill="#939598"/><path d="m34.8 30.4 26.9-8.5c-1-1.8-2.2-3.5-3.6-5.1l-23.4 12 16.9-17.5c-4.7-3-10.1-4.6-15.8-4.6-15.4 0-29.1 12.6-29.1 29.4 0 15.6 12.6 29.2 29.5 29.2 14.1 0 25.7-10.2 28.5-23.1l-29.9-10.4 30.5 2.2c-.1-1.6-.3-3.1-.7-4.6z" fill="none"/><g fill="#939598"><path d="m58.2 16.9c1.4 1.5 2.6 3.2 3.6 5.1l6.5-2c-1.1-2.3-3.9-6.2-3.9-6.2z"/><path d="m65.3 34 6.6.5s0 .5.1 1.2c0-2.2-.3-4.4-.7-6.5l-6.7.2c.3 1.5.5 3 .7 4.6z"/><path d="m36.2 65.3c-17 0-29.5-13.6-29.5-29.2 0-16.8 13.8-29.4 29.3-29.4 5.6 0 11.1 1.7 15.8 4.6l4.8-4.9c-8-5.4-16-6.1-20.3-6.1-16.5 0-36.3 11.9-36.3 35.7 0 23.7 19.4 35.7 36.2 35.7 9.1 0 29.7-4.8 34.8-27.2l-6.4-2.2c-2.7 12.9-14.3 23-28.4 23z"/></g><path d="m56.5 6.4s.1.1.1.1c-.1 0-.1-.1-.1-.1z" fill="url(#a)"/><path d="m34.8 30.4 26.9-8.5c1.3 2.3 2.2 4.8 2.9 7.5zm29.9 11.8c.4-2 .7-4 .7-6.1 0-.7 0-1.4-.1-2.1l-30.5-2.2zm-6.5-25.3c-1.9-2.1-4-4-6.4-5.5l-17 17.5z" fill="#939598"/></svg>