<svg height="40px" enable-background="new 0 0 72 72" viewBox="0 0 72 72" xmlns="http://www.w3.org/2000/svg" xmlns:xlink="http://www.w3.org/1999/xlink"><linearGradient id="a" gradientUnits="userSpaceOnUse" x1="20.1647" x2="35.1785" y1="41.5932" y2="41.5932"><stop offset="0" stop-color="#69c120"/><stop offset=".9644" stop-color="#428e32"/></linearGradient><linearGradient id="b" gradientUnits="userSpaceOnUse" x1="38.2199" x2="69.5329" y1="38.4643" y2="22.5096"><stop offset="0" stop-color="#499fdf"/><stop offset=".293" stop-color="#7dbae8"/><stop offset=".9644" stop-color="#fff"/></linearGradient><circle cx="36" cy="36" fill="#fff" r="29.8"/><path d="m36.2 65.3c-17 0-29.5-13.6-29.5-29.2 0-16.8 13.8-29.4 29.3-29.4 15.3 0 29.4 12.2 29.4 29.4-.1 15.7-12.9 29.2-29.2 29.2zm-15.1-61.8c-28.9 12.7-27.9 55 2.1 65.9 10 3.7 21.1 3 30.5-2 27-14.5 23.4-55.5-5.9-65.2-8.8-2.9-18.3-2.4-26.7 1.3z" fill="#747071"/><path d="m26.8 63.9c-2.9-1-5.1-2.2-6.7-3.3.2-1.8.3-3.5.5-5.3 4.8 2.1 9.5 4.2 14.2 6.2.1 1.2.2 2.5.3 3.7-2 .1-4.9-.2-8.3-1.3zm-5.3-36.8v6.7c-.4 0-.7.1-1.1.1v3.3h1.8c-.1 1.6-.3 3.2-.4 4.7 3.9 1.7 7.8 3.5 11.8 5.2-.3-3.4-.5-6.7-.8-10h1.5c0-1.1 0-2.2 0-3.3-.4 0-.7-.1-1-.1 0-2.3 0-4.5 0-6.7.4 0 .7-.1 1.1-.1 0-.5 0-1 0-1.4s-.1-.7-.4-.9c-1.9-1.8-3.7-3.6-5.6-5.4-.2-.2-.4-.4-.4-.8 0-.2-.3-.5-.5-.5s-.5.2-.6.4c-.1.1-.1.4-.1.6-2.1 2.1-4.2 4.1-6.3 6.2v2zm2 0h7.9v6.7c-.6 0-1.2 0-1.8 0 0-.5 0-.9 0-1.3 0-.5 0-1 0-1.4 0-1.3-.9-2.2-2.1-2.2s-2.1.9-2.1 2.2v2.4.4c-.6 0-1.2 0-1.8 0-.1-2.3-.1-4.6-.1-6.8zm11.2 32.7c-.1-.9-.1-1.7-.2-2.5-4.5-2-9-3.9-13.5-5.9-.1.8-.1 1.5-.2 2.3 4.6 2 9.2 4.1 13.9 6.1zm-13.4-12.3c-.1.8-.1 1.5-.2 2.3 4.4 1.9 8.8 3.9 13.2 5.8-.1-.9-.1-1.7-.2-2.5-4.2-1.8-8.5-3.7-12.8-5.6zm12.7 3.9c-.1-.9-.1-1.7-.2-2.5-4-1.8-8-3.5-12.1-5.3-.1.8-.1 1.5-.2 2.3 4.1 1.8 8.3 3.6 12.5 5.5z" fill="url(#a)"/><path d="m34.8 28.9 21.7-22.5s6.3 4.5 7.8 7.3zm36.5.3c0-2.8-3.1-9.3-3.1-9.3l-33.4 10.5zm-.2 15.3c1.4-4.2.8-10 .8-10l-37.1-2.7z" fill="url(#b)"/></svg>