<svg width="170" height="80" viewBox="0 0 170 80" fill="none" xmlns="http://www.w3.org/2000/svg">
<path fill-rule="evenodd" clip-rule="evenodd" d="M30 0H52V80H30V0ZM0 30H22V80H0V30ZM82 0H60V80H82V0Z" fill="#654AEC"/>
<rect width="22" height="22" fill="#FF58BE"/>
<path fill-rule="evenodd" clip-rule="evenodd" d="M148 40C148 49.9411 139.941 58 130 58C120.059 58 112 49.9411 112 40C112 30.0589 120.059 22 130 22C139.941 22 148 30.0589 148 40ZM148 75.7308V80H170V40C170 17.9086 152.091 0 130 0C107.909 0 90 17.9086 90 40C90 62.0914 107.909 80 130 80C136.474 80 142.59 78.4618 148 75.7308Z" fill="#654AEC"/>
</svg>
