<svg width="150px" enable-background="new 0 0 1024 1024" viewBox="0 0 1024 1024" xmlns="http://www.w3.org/2000/svg"><g transform="matrix(1.25 0 0 -1.25 0 312)"><path clip-rule="evenodd" d="m627.3-150.9c0-140.3-111.2-254.1-248.4-254.1s-248.4 113.7-248.4 254.1c0 140.3 111.2 254.1 248.4 254.1s248.4-113.8 248.4-254.1" fill="#d33833" fill-rule="evenodd"/><path d="m140.7-213.8s-18 264.9 226.1 272.5l-17 28.4-132.5-44.5-37.9-43.5-33.1-63.4-18.9-73.8 5.7-49.2" fill="#ef3d3a"/><path d="m208.8 22.4c-43.6-44.6-70.5-106.2-70.5-174.3 0-68.1 27-129.7 70.5-174.3 43.6-44.6 103.7-72.1 170.1-72.1 66.4 0 126.5 27.5 170.1 72.1 43.6 44.6 70.6 106.2 70.6 174.3 0 68.1-27 129.7-70.6 174.3-43.6 44.6-103.7 72.1-170.1 72.1-66.4 0-126.5-27.5-170.1-72.1zm-11-359.3c-46.3 47.4-74.9 112.8-74.9 185 0 72.2 28.6 137.7 74.9 185 46.3 47.4 110.4 76.7 181.2 76.7 70.8 0 134.9-29.4 181.2-76.7 46.3-47.4 75-112.8 75-185 0-72.2-28.6-137.7-75-185-46.3-47.4-110.4-76.7-181.2-76.7-70.8 0-134.9 29.3-181.2 76.7z" fill="#231f20"/><path clip-rule="evenodd" d="m483.5-152.3-37.9-5.7-51.1-5.7-33.1-.9-32.2.9-24.6 7.6-21.8 23.7-17 48.3-3.8 10.4-22.7 7.6-13.2 21.8-9.5 31.2 10.4 27.3 24.6 8.5 19.9-9.5 9.5-20.7 11.4 1.9 3.8 4.7-3.8 21.8-.9 27.4 5.7 37.8-.2 21.6 17.3 27.6 30.3 21.8 53 22.7 58.7-8.5 51.1-36.9 23.7-37.8 15.1-27.4 3.5-68.2-11.4-58.7-20.8-52-19.9-27.4" fill="#f0d6b7" fill-rule="evenodd"/><path clip-rule="evenodd" d="m451.3-316-135.3-5.7v-22.7l11.4-79.5-5.7-6.6-94.7 32.2-6.6 11.4-9.4 106.8-21.8 64.3-4.7 15.1 75.7 52 23.7 9.5 20.8-25.5 18-16.1 20.8-6.6 9.5-2.8 11.4-49.2 8.5-10.4 21.8 7.6-15.1-29.3 82.3-38.8z" fill="#335061" fill-rule="evenodd"/><path clip-rule="evenodd" d="m227 14.2 24.6 8.5 19.9-9.5 9.5-20.7 11.4 1.9 2.8 11.4-5.7 21.8 5.7 52-4.7 28.4 17 19.9 36.9 29.3-10.4 14.1-52-25.5-21.8-17-12.3-26.5-18.9-25.5-5.7-30.3z" fill="#6d6b6d" fill-rule="evenodd"/><path clip-rule="evenodd" d="m265.8 103.2s14.2 35 71 52 2.8 12.3 2.8 12.3l-61.5-23.7-23.7-23.7-10.4-18.9z" fill="#dcd9d8" fill-rule="evenodd"/><path clip-rule="evenodd" d="m237.5 20.8s-19.9 66.2 55.8 75.7l-2.8 11.4-52-12.3-15.1-49.2 3.8-32.2z" fill="#dcd9d8" fill-rule="evenodd"/><path clip-rule="evenodd" d="m267.7-67.2 12.4 12s5.6-.7 6.5-7.3 3.8-66.2 44.5-98.4c3.7-2.9-30.3 4.7-30.3 4.7l-30.3 47.3" fill="#f7e4cd" fill-rule="evenodd"/><path clip-rule="evenodd" d="m441.8-49.2s2.2 28.7 9.9 26.5 7.7-9.9 7.7-9.9-18.7-12.2-17.6-16.6" fill="#f7e4cd" fill-rule="evenodd"/><path d="m520.4 55.9s-15.6-3.3-17-17 17-2.8 19.9-1.9" fill="#f7e4cd"/><path d="m405.9 54.9s-20.8-2.8-20.8-16.1c0-13.2 23.7-12.3 30.3-6.6" fill="#f7e4cd"/><path clip-rule="evenodd" d="m277.2-6.6s-36 21.8-39.7.9c-3.8-20.8-12.3-36 5.7-57.7l-12.3 3.8-11.4 29.3-3.8 28.4 21.8 22.7 24.6-1.9 14.2-11.4z" fill="#f7e4cd" fill-rule="evenodd"/><path clip-rule="evenodd" d="m294.2 53s16.1 83.3 97.5 99.4c67 13.2 102.2-2.8 115.4-18 0 0-59.6 71-116.4 49.2s-98.4-61.5-97.5-87.1c1.7-43.5 1-43.5 1-43.5" fill="#f7e4cd" fill-rule="evenodd"/><path clip-rule="evenodd" d="m513.8 124.9s-27.4.9-28.4-23.7c0 0 0-3.8 1.9-7.6 0 0 21.8 24.6 35 11.4" fill="#f7e4cd" fill-rule="evenodd"/><path clip-rule="evenodd" d="m393.6 91.1s-4.7 37.8-36.9 15.8c-20.8-14.2-18.9-34.1-15.1-37.8 3.8-3.8 2.8-11.4 5.6-6.2 2.9 5.2 1.9 22.3 12.3 27s27.5 10 34.1 1.2" fill="#f7e4cd" fill-rule="evenodd"/><path clip-rule="evenodd" d="m304.6-164.6-88.9-39.7s36.9-146.7 18-192.1l-13.2 4.7-.9 55.8-24.6 106-10.4 29.3 92.7 62.4z" fill="#49728b" fill-rule="evenodd"/><path clip-rule="evenodd" d="m313.8-245.7 12.6-15.4v-56.8h-15.1s-1.9 39.7-1.9 44.5c0 4.7 1.9 21.8 1.9 21.8" fill="#49728b" fill-rule="evenodd"/><path clip-rule="evenodd" d="m314.1-326.4-42.6-1.9 12.3-8.5 30.3-4.7" fill="#49728b" fill-rule="evenodd"/><path clip-rule="evenodd" d="m459.8-317 35 .9 8.5-87.1-36-4.7z" fill="#335061" fill-rule="evenodd"/><path clip-rule="evenodd" d="m469.3-317 53 2.8s21.8 54.9 21.8 57.7 18.9 79.5 18.9 79.5l-42.6 44.5-8.5 7.6-22.7-22.7v-88z" fill="#335061" fill-rule="evenodd"/><path clip-rule="evenodd" d="m492.9-310.3-33.1-6.6 4.7-26.5c12.3-5.7 33.1 9.5 33.1 9.5" fill="#49728b" fill-rule="evenodd"/><path clip-rule="evenodd" d="m493.9-144.8 66.2-49.2 1.9 22.7-50.2 46.4z" fill="#49728b" fill-rule="evenodd"/><path clip-rule="evenodd" d="m346.9-503.4-19.6 79.5-9.7 58.7-1.6 43.5 88.7 4.7h55.2l-5-99.4 8.5-76.6-.9-14.2-71.9-5.7z" fill="#fff" fill-rule="evenodd"/><path clip-rule="evenodd" d="m447.5-316s-4.7-98.4 9.5-168.4c0 0-28.4-18-70-22.7l79.5 2.8 9.5 5.7-11.4 155.2-2.8 33.1" fill="#dcd9d8" fill-rule="evenodd"/><path clip-rule="evenodd" d="m505-395.5 36.9 10.4 70 3.8 10.4 32.2-18.9 55.8-21.8 2.8-30.3-9.5-29.1-14.2-15.4 2.8-12-4.7" fill="#fff" fill-rule="evenodd"/><path clip-rule="evenodd" d="m504.3-376.6s24.6 11.4 28.4 10.4l-10.4 52 12.3 4.7s8.5-49.2 8.5-54.9c0 0 53-2.8 57.7-2.8 0 0 11.4 21.8 8.5 44.5l10.4-30.3.9-17-15.1-22.7-17-3.8-28.4.9-9.5 12.3-33.1-4.7-10.4-3.8" fill="#dcd9d8" fill-rule="evenodd"/><path d="m467.1-309.4-20.8 53-21.8 31.2s4.7 13.2 11.4 13.2h21.8l20.8-7.6-1.9-35z" fill="#fff"/><path clip-rule="evenodd" d="m471.2-291.4s-26.5 51.1-26.5 58.7c0 0 4.7 11.4 11.4 8.5 6.6-2.8 20.8-10.4 20.8-10.4v18l-32.2 6.6-21.8-2.8 36.9-87.1 7.6-.9" fill="#dcd9d8" fill-rule="evenodd"/><path d="m355.5-166.5-26.2 2.9-24.6 7.6v-8.5l12-13.3 37.8-17" fill="#fff"/><path clip-rule="evenodd" d="m313.2-169.4s29.3-12.3 38.8-9.5l.9-11.3-26.5 5.7-16.1 11.4z" fill="#dcd9d8" fill-rule="evenodd"/><path clip-rule="evenodd" d="m504.9-215.2c-16.1.5-30.6 2.4-43.3 6 .9 5.2-.8 10.3.5 14.1 3.5 2.5 9.5 2.5 14.8 3.1-4.6 2.3-11.1 3.2-16.5 1.9-.1 3.6-1.7 5.9-2.7 8.7 9 3.2 30.3 24.3 42.3 17.4 5.7-3.3 8.1-22.3 8.6-31.6.4-7.8-.6-15.5-3.7-19.6" fill="#d33833" fill-rule="evenodd"/><path d="m504.9-215.2c-16.1.5-30.6 2.4-43.3 6 .9 5.2-.8 10.3.5 14.1 3.5 2.5 9.5 2.5 14.8 3.1-4.6 2.3-11.1 3.2-16.5 1.9-.1 3.6-1.7 5.9-2.7 8.7 9 3.2 30.3 24.3 42.3 17.4 5.7-3.3 8.1-22.3 8.6-31.6.4-7.8-.6-15.5-3.7-19.6z" fill="none" stroke="#d33833" stroke-miterlimit="5" stroke-width="7.0968"/><path clip-rule="evenodd" d="m428.1-188.9c0-1.2-.1-2.4-.1-3.7-5-3.3-13.1-3.3-18.6-6 8.1-.4 14.5-2.3 20-5.1-.1-3.1-.2-6.1-.4-9.2-9.2-6.3-17.6-15.7-28.4-21.6-5.1-2.8-23.1-10-28.5-8.7-3.1.7-3.4 4.5-4.6 8.1-2.6 7.7-8.7 20-9.2 31.6-.7 14.7-2.2 39.2 13.7 36.2 12.7-2.4 27.6-8.3 37.4-13.7 6-3.1 9.5-7.2 18.7-7.9" fill="#d33833" fill-rule="evenodd"/><path d="m428.1-188.9c0-1.2-.1-2.4-.1-3.7-5-3.3-13.1-3.3-18.6-6 8.1-.4 14.5-2.3 20-5.1-.1-3.1-.2-6.1-.4-9.2-9.2-6.3-17.6-15.7-28.4-21.6-5.1-2.8-23.1-10-28.5-8.7-3.1.7-3.4 4.5-4.6 8.1-2.6 7.7-8.7 20-9.2 31.6-.7 14.7-2.2 39.2 13.7 36.2 12.7-2.4 27.6-8.3 37.4-13.7 6-3.1 9.5-7.2 18.7-7.9z" fill="none" stroke="#d33833" stroke-miterlimit="5" stroke-width="7.0968"/><path clip-rule="evenodd" d="m437.2-206.4c-1.4 8-3 10.3-2.4 17.2 21.3 14.2 25.3-24.4 2.4-17.2" fill="#d33833" fill-rule="evenodd"/><path d="m437.2-206.4c-1.4 8-3 10.3-2.4 17.2 21.3 14.2 25.3-24.4 2.4-17.2z" fill="none" stroke="#d33833" stroke-miterlimit="5" stroke-width="7.0968"/><g clip-rule="evenodd" fill-rule="evenodd"><path d="m468.1-212.9s-6.6 9.5-1.9 12.3 9.5 0 12.3 4.7 0 7.6.9 13.2c.9 5.7 5.7 6.6 10.4 7.6 4.7.9 18 2.8 19.9-1.9l-5.7 17-11.4 3.8-36-20.8-1.9-10.4v-20.8" fill="#ef3d3a"/><path d="m368.7-244.1c-1.1 14.8-2.3 29.5-3.7 44.3-2 22 5.3 18.2 24.4 18.2 2.9 0 18-3.5 19-5.7 5.2-10.5-8.6-8.2 5.9-16.1 12.3-6.7 34 4.1 29.1 19-2.8 3.3-14.5 1-18.7 3.2-7.4 3.8-14.8 7.7-22.2 11.5-9.4 4.9-31.1 12-41.2 5.2-25.4-17.3 1.6-60.5 10.7-78.5" fill="#ef3d3a"/><path d="m393.6 91.1c-25.8 6-38.6-10.8-46.4-28.2-7 1.7-4.2 11.2-2.4 16 4.6 12.7 23.2 29.6 38.4 27.3 6.5-.9 15.3-6.9 10.4-15.1" fill="#231f20"/><path d="m519.3 61.8h1.2c5.8-12.1 10.9-24.9 18.2-35.6-4.9-11.5-37.3-21.6-36.8-1 7 3.1 19.1.6 25.3 4.5-3.6 9.8-8.8 18.1-7.9 32.1" fill="#231f20"/><path d="m406.8 61.5c5.5-10.1 7.3-20.8 15.2-28.4 3.5-3.4 10.4-7.7 7-17.2-.8-2.3-6.6-7.3-10-8.3-12.3-3.6-40.9-.7-31.2 14.6 10.2-.5 23.8-6.6 31.4.8-5.8 9.1-16.2 27.6-12.4 38.5" fill="#231f20"/><path d="m514.6-41.6c-18.5-11.9-39.1-24.8-69.5-21.8-6.5 5.6-8.9 18.2-2.7 26.4 3.3-5.6 1.2-16 10.3-17.5 17.2-2.9 37.2 10.5 49.6 15.2 7.7 12.9-.7 17.7-7.6 26-13.9 17.1-32.9 38.3-32.2 63.8 5.7 4.1 6.2-6.3 7-8.2 7.4-17.3 26-39.4 39.6-54.2 3.3-3.6 8.8-7.1 9.4-9.6 1.7-7-4.6-15.4-3.9-20.1" fill="#231f20"/><path d="m270.7-29.1c-5.8 3.3-7.2 17.9-14 18.3-9.7.6-8-18.9-7.9-30.3-6.7 6.1-7.9 24.8-3 34.4-5.6 2.8-8.1-3-11.2-5.1 4 29.1 42.5 13.5 36.1-17.3" fill="#231f20"/><path d="m526.4-53.7c-8.6-16.4-20.8-34.4-46.1-35-.5 5.3-.9 13.4 0 16.5 19.4 2 31.3 11.8 46.1 18.5" fill="#231f20"/><path d="m405.3-64.3c16.1-8.5 45.7-9.4 67.7-8.7 1.2-4.8 1.1-10.7 1.2-16.6-28.2-1.4-61.5 5.5-68.9 25.3" fill="#231f20"/><path d="m402.3-80.1c11.1-28 49.5-24.8 81.8-24-1.4-3.6-4.5-7.9-8.3-9.5-10.4-4.2-38.9-7.4-53.3.2-9.1 4.8-15 15.8-20 22.2-2.4 3.2-14.5 11.1-.2 11.1" fill="#231f20"/><path d="m513.3-234.5c-13.1-22.4-25.6-45.4-41.1-65.2 6.5 19.1 9.3 51.1 10.3 75.6 13.6 6.4 25.2-1.4 30.8-10.4" fill="#81b0c4"/><path d="m583.7-315c-14.6-2.9-24.9-17.2-39.2-16.3 7.8 11.1 21.6 15.8 39.2 16.3" fill="#231f20"/><path d="m590.1-337.9c-11.9-1.3-26-3.2-38.1-2.2 5.8 8.7 27.9 5.7 38.1 2.2" fill="#231f20"/><path d="m594.3-357.7c-13.4-.3-30.1 0-42.8 1 7.5 8.2 34.1 3.1 42.8-1" fill="#231f20"/><path d="m488.1-411.8c1.9-16.8 8.6-33.9 7.8-52.4-7.4-2.5-11.7-4.7-21.6-4.7-.7 15.7-2.8 39.7-2.2 54.6 4.8-.2 12 3.6 16 2.5" fill="#dcd9d8"/><path d="m466.4-163.4c-6.7-4.4-12.5-9.9-18.9-14.6-14.3-.7-22.2 1-32.7 9.2.2.7 1.2.4 1.3 1.2 15.3-6.9 34.8 2.8 50.3 4.2" fill="#f0d6b7"/><path d="m385.8-268.1c4.2 18.3 20.8 27.8 35.8 37.8 15.5-19.7 24.9-45 35.3-69.4-24.5 7.4-49.6 19.4-71.1 31.6" fill="#81b0c4"/><path d="m472-414.2c-.6-14.9 1.5-38.9 2.2-54.6 9.9 0 14.2 2.2 21.6 4.7.8 18.5-5.8 35.5-7.8 52.4-3.9 1-11.1-2.8-16-2.5zm-154.7 85c6.6-60.2 16-110.9 33.5-164.2 38.6-11.7 85.2-12.8 119.4-2.2-6.3 30.1-3.5 66.8-7.2 98.9-2.8 24.2-1.4 48.5-5.1 73.1-41.5 8.6-100 2-140.6-5.6zm150.3 5.2c-.3-25.9 1.2-51.4 3.1-77.3 9.9 1.5 16.7 2.5 25.9 4.5-3 24.9-2.6 53-8.7 75.1-7.1-.1-13.3.1-20.3-2.3zm50.4 4.2c-4.7 1.1-10.2 0-14.7 0 2.1-21.1 7.3-44.4 9.1-66.5 7.1-.2 10.9 3.1 16.7 4.2.2 19.4-1.8 46.2-11.1 62.3zm76.3-69.7c14.8 3.6 24.1 21.7 19.9 40.3-2.8 12.5-7.7 36-13 44-3.9 5.9-14.5 13.6-23 8.2-13.8-8.8-38-11.4-48-22 5-16.7 6.6-39.8 8.7-61 17.2-1.1 38.3 4.7 52.6-1.4-10-3.2-22.9-3.3-31.5-8 7-3.4 23.5-2.7 34.3-.1zm-137.4 89.8c-10.4 24.4-19.8 49.7-35.3 69.4-15-10.1-31.5-19.5-35.8-37.8 21.5-12.2 46.6-24.2 71.1-31.6zm25.6 75.6c-1-24.4-3.8-56.4-10.3-75.6 15.5 19.8 28 42.8 41.1 65.2-5.6 9-17.2 16.8-30.8 10.4zm-29 10.3c-5.9.6-10.9-6.8-18.5-3.6-1.8-1.9-3.3-4-5.1-5.9 16.9-20.3 24.6-49.2 37.6-73.1 7 23 6.2 48.1 7.7 73.2-9.7-.6-15 8.7-21.7 9.4zm-18.7 24.6c-.6-7 1-9.2 2.4-17.2 22.9-7.2 18.9 31.4-2.4 17.2zm-25.4 8.4c-9.9 5.4-24.7 11.3-37.4 13.7-15.8 3-14.3-21.6-13.7-36.2.5-11.6 6.6-23.9 9.2-31.6 1.2-3.6 1.5-7.4 4.6-8.1 5.4-1.3 23.4 5.9 28.5 8.7 10.8 5.9 19.2 15.3 28.4 21.6.1 3.1.2 6.1.4 9.2-5.5 2.8-11.9 4.7-20 5.1 5.5 2.8 13.6 2.7 18.6 6 0 1.2.1 2.4.1 3.7-9.2.5-12.7 4.6-18.7 7.9zm-94.3 17.1c-8.2-8.3 23-19.7 32.9-20.3-.1 5.3 3 10.2 2.4 14-11.8 2.1-27.3.7-35.3 6.3zm100.9-3.9c0-.8-1.1-.5-1.3-1.2 10.5-8.2 18.4-9.9 32.7-9.2 6.5 4.7 12.2 10.2 18.9 14.6-15.4-1.4-34.9-11.1-50.3-4.2zm92.7-28.1c-.4 9.2-2.9 28.2-8.6 31.6-12 7-33.3-14.1-42.3-17.4 1-2.8 2.6-5.1 2.7-8.7 5.3 1.3 11.8.4 16.5-1.9-5.4-.6-11.3-.6-14.8-3.1-1.3-3.7.3-8.9-.5-14.1 12.7-3.6 27.2-5.5 43.3-6 3 4.2 4 11.9 3.7 19.6zm-207.4 23.9c-2.6 1.8-20 24.5-22.4 23.5-31.5-12.4-60.9-33.9-87.3-54.2 25.1-53.8 35.2-119.8 37-183.4 28.7-13.4 54-32.8 93-34.8-4.5 31.9-8.6 60.4-11.2 90.5-9.8 4.1-23.9-.2-33 1.3-.1 11.1 14 4.8 15.2 12.3.9 5.6-7.7 6-4.9 14.9 7.2-2.6 10.9-8.4 18.6-10.5 7 15.3-.1 42.3.9 55.1.2 2.4 1.2 13.3 6.6 11.4 4.8-1.7-.3-29 .2-41.1.5-11.1-1.3-21.9 3.2-28.9 37.7 5.1 76 8.4 116.8 9.6-9 3.8-19.6 7.5-31.3 14.1-6.3 3.6-26.3 11-28.1 17-2.9 9.6 7.7 14.7 9.5 22.9-19-10.4-22.7 9.9-27.2 24.3-4.1 13-6.4 22.8-7.4 30.3-16.5 7.8-34.1 15.7-48.2 25.7zm190.7 20.8c26.2 12.7 31-47.6 20.7-67 1.6-5.8 7.1-8 9.3-13.2-14.6-26.2-30.9-50.7-45.8-76.6 11.1 6.9 27 1.2 40.1 6.4 4.8 1.9 8.2 12.8 11.9 21.6 10 24.1 20.4 54.5 25.1 77.4 1.1 5.2 3.9 16.6 3.3 21.3-1.1 8.3-12.5 14.5-18.2 19.7-10.6 9.5-17.3 17.9-28.4 26.8-4.7-6.5-14.3-11-18-16.4zm-250.7 232.7c-12.5-13.8-9.9-39.5-8.4-57.9 22.6 14.2 52.6-1.1 52.3-25.3 10.8.3 4 13.5 2.1 22-6.4 27.8 10.7 57.9.8 83.3-19.3-1.5-35.2-9.4-46.8-22.1zm89.5 79.9c-28.3-8-64.6-28.6-76.2-54 9 1.3 15.3 5.9 24.1 6.4 3.4.2 7.8-1.4 11.6-.4 7.7 1.9 14.2 19.2 20 25.6 5.7 6.3 12.5 8.9 17.1 14.7 3 1.4 7.4 1.3 7.6 5.8-1.3 1.3-2.7 2.3-4.2 1.9zm147.3-7.6c-29.4 16.6-79.1 29-110.4 13.5-25.2-12.6-59.3-33.4-70.9-59.7 10.9-25.4-3.2-48.7-4.1-74.6-.5-13.7 6.5-25.7 7-40.7-3.7-6.1-15.1-6.9-22.9-6.5-2.6 13.2-7.3 28.1-20.9 29.6-19.3 2.1-33.4-13.9-34.3-30.5-1-19.6 15.1-52.1 37.9-49.9 8.8.9 11 9.7 20.6 9.6 5.2-10.4-8-13.6-9.4-21.1-.4-1.9 1.1-9.4 1.9-12.9 4.1-17.1 13.4-39.3 22.5-52.3 11.5-16.5 34.2-19 58.6-20.7 4.4 9.4 20.4 8.6 30.9 6.2-12.5 5-24.2 17-33.8 27.7-11.1 12.2-22.3 25.3-22.9 41.3 21-29.1 38.3-54.5 76.4-67.3 28.8-9.7 62.5 4.4 84.7 20 9.2 6.5 14.7 16.7 21.2 26.1 24.5 35.2 35.9 85.4 33.4 134.1-1 20.1-1 40.1-7.7 53.6-7 14.1-30.9 26.8-44.8 14-2.6 13.7 11.6 22.2 28.2 17.3-11.8 15.3-24.3 33.7-41.2 43.2zm54.8-452.9c23 11.4 65.8 30.7 80.2 0 5.3-11.3 11.5-30.5 14.3-42.2 3.9-16.5-4.2-51.2-21.2-56.8-15-4.9-32.5-4.6-50.5-1-2.1 1.8-4.5 4.9-6.1 8.1-12.9.5-25-.7-35.2-6 1-9.5-5.5-11.1-11.5-13-4.5-17.8 9-41 5.7-57.2-2.3-11.5-16.5-13.3-26.9-15.5-.3-6.4.5-11.8 1.2-17.2-2.4-8.8-13.1-13.8-23.2-15-33.4-4-84.1-5.8-116.2 5.7-9 22-16 48.7-23.5 73.8-31.3-3.3-56.6 13.5-80.5 24.6-8.3 3.8-19.7 5.9-22.8 12.5-3 6.4-1.8 18.6-2.5 30.1-1.9 29.5-3.5 57.9-11.3 88-3.5 13.5-9.6 25.5-13.8 38.5-3.9 12.1-10.8 27-12.6 39.1-2.7 17.9 14.2 18.9 24.9 26.6 16.6 12 29.7 18.6 47.7 29.4 5.3 3.2 21.4 11.3 23.2 15 3.6 7.4-6.2 17.8-8.9 23.6-4.2 9.2-6.4 17-7 26-15.1 2.4-26.6 11.4-33.5 21.5-11.4 16.8-19.4 47.8-9.5 71.4.8 1.9 4.6 5.5 5.2 8.4 1.1 5.6-2.1 13.1-2.3 19.1-1 30.7 5.2 57.1 25.9 66.4 8.4 33.4 38.4 44.5 66.7 61.1 10.6 6.2 22.2 10.2 34.3 14.6 43.2 15.9 109.4 12.9 145.2-14.2 15.2-11.5 39.5-35.8 48.2-53.3 22.9-46.4 21.3-123.9 5.3-180.3-2.2-7.6-5.3-18.7-9.7-27.8-3-6.4-12.5-19.1-11.4-24.7 1.2-5.8 21.6-21.3 26-25.5 7.9-7.6 22.8-17.7 24.1-27.3 1.3-10.2-4.5-24.2-7.4-34-9.9-32.9-19.5-63.2-30.6-92.5" fill="#231f20"/><path d="m379.7-71.5c1.2 1.7 8.1 4.2 17.7-.4 0 0-11.4-1.9-10.4-20.8l-4.7.9c-.1 0-5 17.2-2.6 20.3" fill="#f7e4cd"/><path d="m462.7-234.2c0-2.9-2.3-5.2-5.2-5.2s-5.2 2.3-5.2 5.2 2.3 5.2 5.2 5.2c2.8 0 5.2-2.3 5.2-5.2" fill="#1d1919"/><path d="m467.9-258.3c0-2.9-2.3-5.2-5.2-5.2s-5.2 2.3-5.2 5.2 2.3 5.2 5.2 5.2c2.8 0 5.2-2.3 5.2-5.2" fill="#1d1919"/></g></g></svg>
