<svg width="150px" enable-background="new 0 0 1024 1024" viewBox="0 0 1024 1024" xmlns="http://www.w3.org/2000/svg"><g fill="#68696b" transform="matrix(1.25 0 0 -1.25 0 312)"><path d="m209.7-328c-43.2 44.2-69.9 105.2-69.9 172.6 0 67.5 26.7 128.5 69.9 172.6 4.9 5 10.1 9.8 15.4 14.4l-1.1 9.3 2.1 11.2c-9.7-7.4-18.8-15.5-27.4-24.3-45.8-46.8-74.2-111.7-74.2-183.2s28.4-136.4 74.3-183.3c6.2-6.4 12.8-12.4 19.7-18.1l-2 22.2c-2.3 2.1-4.6 4.3-6.8 6.6z"/><path d="m592.5-294.5c25 40.2 39.5 87.9 39.5 139.1 0 71.5-28.4 136.4-74.3 183.3-4.1 4.2-8.3 8.2-12.7 12.1l1.2-22.3c.2-.2.4-.4.5-.5 43.2-44.2 69.9-105.2 69.9-172.6 0-51.6-15.6-99.4-42.3-138.8l4.7 1.5z"/><path d="m492.4-369.7 1.3-16.7s2.9 1.8 7.5 4.8l-2.1 16.3c-4.1-2.7-6.7-4.4-6.7-4.4z"/><path d="m355-169.9-26 2.8-24.4 7.5v-8.4l11.9-13.1 37.5-16.9"/><g clip-rule="evenodd" fill-rule="evenodd"><path d="m392.8 85.3c-25.6 6-38.2-10.7-46-28-6.9 1.7-4.2 11.1-2.4 15.9 4.6 12.6 23 29.3 38.1 27 6.5-.9 15.2-6.8 10.3-14.9"/><path d="m517.3 56.2h1.2c5.8-12 10.8-24.7 18.1-35.3-4.9-11.4-36.9-21.4-36.5-1 6.9 3 18.9.6 25.1 4.5-3.6 9.7-8.7 18-7.9 31.8"/><path d="m405.9 55.9c5.5-10 7.3-20.6 15-28.2 3.5-3.4 10.3-7.6 6.9-17.1-.8-2.2-6.6-7.2-9.9-8.2-12.2-3.6-40.5-.7-30.9 14.4 10.1-.5 23.6-6.5 31.1.8-5.7 9.3-16 27.6-12.2 38.3"/><path d="m512.7-46.1c-18.3-11.8-38.8-24.6-68.8-21.6-6.4 5.6-8.9 18-2.6 26.2 3.2-5.6 1.2-15.8 10.3-17.4 17-2.9 36.9 10.4 49.1 15.1 7.6 12.8-.7 17.5-7.5 25.8-14 16.9-32.8 37.8-32.1 63.1 5.7 4.1 6.2-6.3 7-8.2 7.3-17.1 25.7-39 39.2-53.7 3.3-3.6 8.7-7.1 9.3-9.5 1.7-6.9-4.6-15.2-3.9-19.8"/><path d="m271.1-33.7c-5.7 3.3-7.1 17.7-13.9 18.1-9.6.6-7.9-18.7-7.8-30-6.6 6-7.8 24.6-2.9 34.1-5.6 2.7-8-3-11.1-5 3.9 28.7 42 13.3 35.7-17.2"/><path d="m524.4-58.1c-8.5-16.2-20.6-34.1-45.6-34.6-.5 5.2-.9 13.2 0 16.4 19.1 1.7 31 11.5 45.6 18.2"/><path d="m404.5-68.7c16-8.4 45.3-9.3 67-8.7 1.2-4.8 1.1-10.6 1.2-16.4-27.9-1.3-60.9 5.6-68.2 25.1"/><path d="m401.4-84.3c11-27.7 49-24.5 81-23.8-1.4-3.6-4.5-7.9-8.3-9.4-10.3-4.2-38.5-7.3-52.8.2-9 4.8-14.8 15.6-19.8 22-2.3 3.1-14.2 11-.1 11"/><path d="m581.1-317c-14.5-2.9-24.7-17-38.9-16.1 7.9 10.9 21.5 15.6 38.9 16.1"/><path d="m587.5-339.7c-11.8-1.2-25.7-3.2-37.7-2.2 5.7 8.7 27.6 5.7 37.7 2.2"/><path d="m591.6-359.3c-13.3-.3-29.8 0-42.4 1 7.5 8 33.8 3 42.4-1"/><path d="m317.2-331.1c6.5-59.7 15.9-109.9 33.1-162.7 38.3-11.6 84.4-12.6 118.3-2.1-6.2 29.8-3.5 66.1-7.1 98-2.7 23.9-1.3 48-5.1 72.4-41 8.5-98.9 1.9-139.2-5.6zm148.9 5.2c-.3-25.6 1.1-50.9 3.1-76.6 9.8 1.5 16.5 2.5 25.7 4.5-3 24.7-2.6 52.5-8.7 74.4-7-.1-13.1 0-20.1-2.3zm49.9 4.1c-4.7 1.1-10.1 0-14.6 0 2.1-20.9 7.2-44 9-65.9 7-.2 10.8 3.1 16.6 4.2.3 19.2-1.7 45.8-11 61.7zm75.6-69.1c14.6 3.6 23.8 21.5 19.7 39.9-2.7 12.4-7.6 35.7-12.9 43.6-3.9 5.9-14.4 13.5-22.7 8.2-13.6-8.7-37.6-11.3-47.6-21.8 5-16.6 6.5-39.4 8.6-60.4 17-1.1 38 4.7 52.1-1.4-9.9-3.2-22.7-3.2-31.3-7.9 7.1-3.4 23.5-2.8 34.1-.2zm-136.1 89c-10.3 24.2-19.6 49.2-35 68.7-14.9-10-31.3-19.4-35.4-37.5 21.3-11.9 46.1-23.8 70.4-31.2zm25.4 74.9c-1-24.2-3.7-55.9-10.2-74.9 15.4 19.6 27.8 42.4 40.7 64.6-5.5 8.9-17.1 16.6-30.5 10.3zm-28.8 10.2c-5.8.6-10.8-6.7-18.3-3.5-1.7-1.9-3.3-4-5.1-5.9 16.7-20.2 24.3-48.8 37.3-72.5 6.9 22.8 6.1 47.7 7.7 72.5-9.6-.5-14.9 8.7-21.6 9.4zm-18.5 24.4c-.6-6.9 1-9.2 2.4-17.1 22.7-7.1 18.8 31.2-2.4 17.1zm-25.1 8.3c-9.8 5.3-24.5 11.2-37.1 13.6-15.7 3-14.2-21.4-13.5-35.9.5-11.5 6.5-23.7 9.1-31.3 1.2-3.6 1.5-7.4 4.5-8.1 5.4-1.3 23.2 5.9 28.2 8.6 10.7 5.8 19 15.1 28.1 21.4.1 3 .2 6.1.4 9.1-5.5 2.7-11.8 4.7-19.8 5 5.5 2.7 13.5 2.7 18.4 6 0 1.2.1 2.4.1 3.6-9 .7-12.4 4.7-18.4 8zm-93.4 16.9c-8.1-8.2 22.8-19.5 32.6-20.1-.1 5.2 3 10.1 2.4 13.9-11.7 2.1-27.1.7-35 6.2zm100-3.8c0-.8-1.1-.5-1.3-1.2 10.4-8.2 18.2-9.8 32.4-9.1 6.4 4.7 12.1 10.1 18.8 14.4-15.4-1.4-34.7-10.9-49.9-4.1zm91.7-27.9c-.4 9.2-2.8 28-8.5 31.3-11.9 6.9-33-14-41.9-17.2 1-2.8 2.6-5 2.7-8.6 5.3 1.3 11.7.4 16.3-1.8-5.3-.6-11.2-.6-14.7-3.1-1.3-3.7.3-8.8-.5-13.9 12.6-3.5 27-5.4 42.9-5.9 3 4 4.1 11.7 3.7 19.2zm-30.2 346.5c-29.1 16.4-78.4 28.8-109.3 13.3-25-12.5-58.8-33.1-70.3-59.2 10.8-25.2-3.2-48.3-4.1-73.9-.5-13.6 6.4-25.5 6.9-40.3-3.7-6.1-14.9-6.8-22.7-6.4-2.6 13.1-7.2 27.8-20.7 29.3-19.1 2.1-33.1-13.7-33.9-30.2-1-19.4 14.9-51.6 37.5-49.4 8.7.9 10.9 9.6 20.4 9.5 5.2-10.3-8-13.5-9.3-20.9-.4-1.9 1.1-9.3 1.9-12.8 4.1-17 13.3-38.9 22.3-51.8 11.4-16.4 33.9-18.9 58.1-20.5 4.3 9.3 20.2 8.5 30.6 6.1-12.4 4.9-24 16.8-33.5 27.4-11 12.1-22.1 25.1-22.7 40.9 20.8-28.8 37.9-54 75.7-66.7 28.6-9.6 62 4.4 83.9 19.8 9.1 6.4 14.6 16.6 21 25.9 24.2 34.9 35.5 84.6 33.1 132.8-1 19.9-1 39.7-7.7 53.1-7 14-30.6 26.5-44.4 13.9-2.6 13.6 11.5 22 28 17.1-11.8 15.4-24.1 33.6-40.8 43zm54.2-448.7c22.7 11.3 65.2 30.4 79.5 0 5.3-11.2 11.4-30.2 14.2-41.8 3.9-16.4-4.2-50.7-21-56.2-14.9-4.8-32.2-4.6-50.1-1-2.1 1.8-4.5 4.8-6.1 8-12.8.5-24.7-.7-34.8-5.9 1-9.4-5.4-11-11.4-12.9-4.4-17.6 8.9-40.6 5.7-56.7-2.3-11.4-16.3-13.2-26.7-15.3-.3-6.4.5-11.7 1.2-17-2.4-8.7-13-13.7-23-14.9-33.1-4-83.3-5.8-115.1 5.7-8.9 21.8-15.9 48.3-23.3 73.1-31-3.3-56.1 13.4-79.8 24.3-8.2 3.8-19.5 5.9-22.6 12.4-3 6.3-1.8 18.4-2.5 29.8-1.9 29.2-3.5 57.3-11.2 87.2-3.5 13.4-9.5 25.2-13.7 38.2-3.9 12-10.7 26.8-12.5 38.7-2.6 17.7 14 18.7 24.7 26.4 16.5 11.9 29.4 18.4 47.2 29.1 5.3 3.2 21.2 11.2 23 14.9 3.6 7.3-6.2 17.7-8.8 23.4-4.1 9.1-6.3 16.8-6.9 25.8-15 2.4-26.3 11.3-33.2 21.3-11.3 16.6-19.2 47.4-9.4 70.8.8 1.8 4.6 5.5 5.2 8.3 1.1 5.6-2.1 13-2.3 18.9-1 30.4 5.1 56.6 25.6 65.8 8.3 33.1 38 44.1 66.1 60.6 10.5 6.1 22 10.1 33.9 14.5 42.8 15.7 108.4 12.8 143.9-14.1 15.1-11.4 39.1-35.4 47.7-52.8 22.7-45.9 21.1-122.7 5.2-178.6-2.1-7.5-5.2-18.5-9.6-27.5-3-6.3-12.4-18.9-11.3-24.4 1.2-5.7 21.4-21.1 25.7-25.3 7.8-7.5 22.6-17.5 23.8-27 1.3-10.1-4.5-23.9-7.4-33.7-9.4-33-18.9-63.1-29.9-92.1"/><path d="m461.2-237c0-2.8-2.3-5.2-5.2-5.2-2.8 0-5.2 2.3-5.2 5.2 0 2.8 2.3 5.2 5.2 5.2s5.2-2.3 5.2-5.2"/><path d="m466.4-260.9c0-2.8-2.3-5.2-5.2-5.2-2.8 0-5.2 2.3-5.2 5.2s2.3 5.2 5.2 5.2 5.2-2.3 5.2-5.2"/></g></g></svg>
