<svg width="50px" height="50px" enable-background="new 0 0 1024 1024" viewBox="0 0 1024 1024" xmlns="http://www.w3.org/2000/svg" xmlns:xlink="http://www.w3.org/1999/xlink"><linearGradient id="a" gradientTransform="matrix(4.2071 0 0 -4.2071 -109.4126 4427.1475)" gradientUnits="userSpaceOnUse" x1="57.8568" x2="83.3481" y1="862.731" y2="775.5119"><stop offset="0" stop-color="#0f3060"/><stop offset=".2712" stop-color="#0575ce"/><stop offset=".7327" stop-color="#0575ce"/><stop offset="1" stop-color="#0f3060"/></linearGradient><linearGradient id="b" gradientTransform="matrix(4.2071 0 0 -4.2071 -109.4126 4427.1475)" gradientUnits="userSpaceOnUse" x1="53.5237" x2="23.2909" y1="840.5374" y2="789.4088"><stop offset="0" stop-color="#092d61"/><stop offset="1" stop-color="#0575ce"/></linearGradient><linearGradient id="c" gradientTransform="matrix(4.2071 0 0 -4.2071 -109.4126 4427.1475)" gradientUnits="userSpaceOnUse" x1="62.0496" x2="79.6135" y1="832.1819" y2="946.469"><stop offset="0" stop-color="#0f3060"/><stop offset=".457" stop-color="#0575ce"/><stop offset=".7383" stop-color="#0575ce"/><stop offset="1" stop-color="#0f3060"/></linearGradient><linearGradient id="d" gradientTransform="matrix(1.0338 0 0 -1.0338 .3634 1727.2336)" gradientUnits="userSpaceOnUse" x1="206.8211" x2="137.9012" y1="811.3133" y2="1104.8271"><stop offset="0" stop-color="#ff8000"/><stop offset=".6627" stop-color="#fff4e1"/><stop offset=".75" stop-color="#fff4e1"/><stop offset="1" stop-color="#ff8400"/></linearGradient><linearGradient id="e"><stop offset="0" stop-color="#fff"/><stop offset="1" stop-color="#fff" stop-opacity="0"/></linearGradient><linearGradient id="f" gradientTransform="matrix(4.2071 0 0 -4.2071 -109.4126 4427.1475)" gradientUnits="userSpaceOnUse" x1="86.073" x2="25.9218" xlink:href="#e" y1="851.3348" y2="838.1768"/><linearGradient id="g" gradientTransform="matrix(1.0338 0 0 -1.0338 .3634 1727.2336)" gradientUnits="userSpaceOnUse" x1="120.8634" x2="77.5688" y1="810.4237" y2="740.2247"><stop offset="0" stop-color="#ffc768"/><stop offset=".3784" stop-color="#ff8400"/><stop offset=".7742" stop-color="#ff8400"/><stop offset="1" stop-color="#ffc768"/></linearGradient><linearGradient id="h" gradientTransform="matrix(4.3476 0 0 -4.2653 -112.2683 4477.3574)" gradientUnits="userSpaceOnUse" x1="62.6155" x2="71.0741" xlink:href="#e" y1="859.9818" y2="811.0475"/><linearGradient id="i"><stop offset="0" stop-color="#ff8000"/><stop offset=".3414" stop-color="#ffc768"/><stop offset=".712" stop-color="#ffc768"/><stop offset="1" stop-color="#ff8400"/></linearGradient><linearGradient id="j" gradientTransform="matrix(1.0338 0 0 -1.0338 .3634 1727.2336)" gradientUnits="userSpaceOnUse" x1="164.1613" x2="213.9148" xlink:href="#i" y1="842.4261" y2="742.6704"/><linearGradient id="k" gradientTransform="matrix(1.0338 0 0 -1.0338 .3634 1727.2336)" gradientUnits="userSpaceOnUse" x1="184.5116" x2="238.6305" y1="922.0275" y2="928.5072"><stop offset="0" stop-color="#ff8000"/><stop offset=".5" stop-color="#fff4e1"/><stop offset=".75" stop-color="#fff4e1"/><stop offset="1" stop-color="#ff8400"/></linearGradient><linearGradient id="l" gradientTransform="matrix(1.0338 0 0 -1.0338 .3634 1727.2336)" gradientUnits="userSpaceOnUse" x1="177.0829" x2="112.0347" xlink:href="#i" y1="870.621" y2="956.7294"/><linearGradient id="m" gradientTransform="matrix(4.2071 0 0 -4.2071 -109.4126 4427.1475)" gradientUnits="userSpaceOnUse" x1="74.5189" x2="61.3498" xlink:href="#e" y1="856.8761" y2="875.6733"/><linearGradient id="n" gradientTransform="matrix(4.2071 0 0 -4.2071 -109.4126 4427.1475)" gradientUnits="userSpaceOnUse" x1="57.8005" x2="102.2372" xlink:href="#e" y1="857.1941" y2="871.2368"/><linearGradient id="o" gradientTransform="matrix(4.2071 0 0 -4.2071 -109.4126 4427.1475)" gradientUnits="userSpaceOnUse" x1="57.8076" x2="35.3549" xlink:href="#e" y1="837.2042" y2="853.0767"/><linearGradient id="p"><stop offset="0" stop-color="#212a3a"/><stop offset="1" stop-color="#404e67" stop-opacity="0"/></linearGradient><linearGradient id="q" gradientTransform="matrix(1.0338 0 0 -1.0338 .3634 1727.2336)" gradientUnits="userSpaceOnUse" x1="151.4875" x2="162.9465" xlink:href="#p" y1="822.9351" y2="783.0021"/><linearGradient id="r" gradientTransform="matrix(.3916 0 0 -.7827 53.0636 1424.6376)" gradientUnits="userSpaceOnUse" x1="334.6367" x2="437.7298" xlink:href="#p" y1="799.0136" y2="848.4905"/><linearGradient id="s" gradientTransform="matrix(-.3905 -.02961418 -.05919454 .7805 110.5236 158.2286)" gradientUnits="userSpaceOnUse" x1="-342.5067" x2="-285.3113" xlink:href="#p" y1="821.0791" y2="813.5361"/><linearGradient id="t" gradientTransform="matrix(1.0338 0 0 -1.0338 64.3217 1646.8306)" gradientUnits="userSpaceOnUse" x1="126.6701" x2="218.1301" xlink:href="#p" y1="802.1371" y2="819.8257"/><linearGradient id="u" gradientTransform="matrix(1.0338 0 0 -1.0338 -8.4382 1664.9637)" gradientUnits="userSpaceOnUse" x1="149.8472" x2="88.3469" xlink:href="#p" y1="807.3739" y2="777.7974"/><g transform="matrix(4.2070673 0 0 4.2070673 -152.93197 -3059.7049)"><path d="m97 946.1c-.5-1.1-.9-2.1-.9-2.2s-1.8-9.5-2-11.9c-.9-10.5-2.3-11.5-1.9-20.9.2-5.7-.6-7.6 1.1-12.2 3.4-9.5 6-13.3 10.5-15.5 3.6-1.8 7-1.6 10.2.7.8.6 12 8.1 13.2 8.9s3.2 2 4.4 2.7c2.2 1.1 2.2 1.1 2.7.6 1-1.2 3.3-4.7 4.5-6.4 6.3-8.4.4-7.4-1.1-7.9-2.3-.7-3.3-1.7-5.5-4.2-5.1-5.9-7.5-12.5-7.8-20.7-.4-9.5.5-17.1 4.7-21.5 1.8-1.9 5.6-4.6 9-6.5 2.9-1.6 20.8-4.9 22.4-4.2.8.3-3.1-10-.9-23.3.4-2.7 3.5-10.9 3.8-11.5.8-1.4 13.8-5.8 17.5-8 4.1-2.4 13.1-8.3 13.7-12.6 1.5-9.6 1.7-13.6 2.4-14 .9-.5 7.1 12.1 2.9 24.1-.8 2.4-4.7 7.8-6.5 10.1-1.3 1.6 1.5 2.4 3.1 4.8 1.4 2.2 2.4 7.4 2.6 10.2s-.7 8.5-1.5 9.7c-.3.5-.5.9-.3 1s1.2 0 2.4-.3c1.1-.3 3.6-.7 5.5-.9 3.4-.4 3.5-.4 5.8.3 3.4 1.1 20.1 5.1 9.5 51.7-3.5 15.5-20 35.8-22.1 34.3l-5.1-3.9-5.9 8.7c-3 3.1-6.2 6.1-8.1 7.5-3 2.3-9 5.8-9.8 5.8-.2 0-1.4.5-2.6 1.1-3.6 1.7-9 3.1-14.7 3.5-22 1.4-13.6-1.2-31.9-10.1-1.4-.7-4.8 2.8-8.7 6.5-4.3 3.9-6.5 6.8-8.2 10.8-.6 1.3-1.5 3.4-2 4.6-1.4 3.2-2.6 7.6-2.7 10.5-.1 1.4-.3 2.6-.4 2.7-.2-.2-.8-1-1.3-2.1zm24.2-39.3c2.8-.7 3.1-.9 6.2-3.1 2.2-1.6 3.5-4.6 4.1-4.8 3.8-1.7-2.8-3.2-5.3-4.9s-5.7-2.9-7.9-4.6-4.1-3-4.2-2.9-.2 1.2-.2 2.5c0 3.8-.5 7.6-1.2 9.1-.4.8-.7 2.4-.8 3.5-.2 2.5.4 3.8 2.5 5.1 1.7 1.2 2.4 1.2 6.8.1zm102.4-71.5c-.9-6.2-.2-14.7-5-17.8-11.1-7.1-12.3-.1-13 1.5-1.1 2.6-1.8 4.7-1 7.5 2.6 8.7 6 16.4 7.5 22.6 1.8 7.1 3.8 11.6 4 17.1.1 3.9.1 4.4-.5 5.3-.8 1.3-13.3 4.5-19.6 6.3-2.2.6-.2 5.2-.5 6.7-.2 1.5-3.6 10-2.5 11.7 10.8 16.9 34.5-34.3 30.6-60.9zm-23.1 41.3c1.7-.4 3.2-.9 3.5-1.1.2-.2.8-.3 1.4-.3.9.1 4.4-1 4.7-1.5.1-.1 3.2-1.8 2.6-2.2s-12.9-9.5-14.7-10.4c-20.3-10.6-31-11.3-37.7-10-11.5 2.3-21.4 8.1-22.6 9.6-.4.4 18-5.7 31 .7 2.4 1.2 7.4 3.2 11.1 7.2 3.4 3.7 6.5 7.5 9 8.2 2.6.9 8 .7 11.7-.2zm-24.5-43.7c6.4-1.1 16.4-14.5 15.6-15.7-.1-.2 1.9-3.5 1.6-3.6-12-2.4-11.8-14.4-11.9-14.5-.2-.1-17.8 8.3-21.8 10.1-3.4 1.5.5 10.3 2.6 15.8.9 2.4 6 5.7 8 7 2.4 1.6 5.4 1 5.9.9zm13.9-40.8c3.5-2.7 12.7-16.4 11.7-22-4-22.7-5.7-8.6-6-6.6-.1.8-.4 2.7-.7 4.1s-.6 3.5-.7 4.6-.6 3-.9 4.3c-.4 1.3-.9 3.4-1.2 4.7s-1.4 4.5-2.4 7.1-1.8 4.8-1.8 4.9c-.1.4.6 0 2-1.1z" fill="url(#a)"/><g clip-rule="evenodd" fill-rule="evenodd"><path d="m97.9 945.3c5.4-22.5 10.3-25 23.3-33.4-2.8-1.6-9.8-7-9.8-9.8.1-8.3 1.4-22.8-7.8-16.8-17.4 11.5-11.1 47.9-5.7 60z" fill="url(#b)"/><path d="m117 909.1c7.7 5.8 14.5 10.9 19.3 13.7 47 2.4 58.7-23.6 59.6-44.9-4.2.2-11.3-.8-15.1-6.6-9.6 3.1-38.6 12-39.1 14-2.7 10.2-10.5 18.5-24.7 23.8z" fill="url(#c)"/><path d="m198.6 900.4c28.4-21.1 24.7-63.4 25.2-65.6 1.2-5.5-5.7-24.2-13.9-20.7-13.7 5.7 9.6 38 6.5 55.7-.7 3.7-12 6.4-19.6 7.6-.9.1-.1 12.1-4 17.5-.6.9 5.2 5.9 5.8 5.5z" fill="url(#d)"/><path d="m202.5 897.5c36.3-35.7 17.9-99.4 5.3-80.8 17.4-3.5 20.2 55-5.3 80.8z" fill="url(#f)"/><path d="m133.5 898c.7-.9-11.9-5.2-19.4-12-.8-.8-1 11-1.8 16-.5 3.1 4.7 6.1 5.9 6.5 1 .3 12.6-6.8 15.3-10.5z" fill="url(#g)"/><path d="m123.6 864c-4.4-22.1 3.6-35.1 35.4-39.7.2.5 35.3-11.3 47.7-11.4-3.4 5.3 0 18.5 4.1 29.3 0 .1-29.8 7.8-87.2 21.8z" fill="url(#h)"/><path d="m139 860.5c3.8-1.4 14.5-4.6 27.4-.1 8.8 3.1 13.9 10.8 17.7 13.8 9 7 25.5-.8 28.5-.7 1.2 0-22.2-21-39.9-22.1-23.7-1.5-38.5 10.8-33.7 9.1z" fill="url(#j)"/><path d="m197 755.8c-.1 7.2-2.4 24.3-9.7 36.1-3.3 5.4 12.4-7.1 14.1-17.8.9-5.9-4.3-24-4.4-18.3z" fill="url(#k)"/><path d="m173.3 834.2c7.9-4 15.1-9.3 19.7-19.2.8-1.7-3.8-.1-7.2-5-3.5-4.9-2.6-9.9-5.6-9.5-9.2 1.2-21.5 10-21.5 10s.7 9.5 3.2 13.4c5.1 8 11.4 10.3 11.4 10.3z" fill="url(#l)"/><path d="m185.6 809.1c2.3 8.5 15.3 6.9 12.6-9.5-1.2 1.7-4.1 11-12.6 9.5z" fill="url(#m)" opacity=".5522"/><path d="m172.2 833.5c-4.4-3-8.1-6.7-10.5-10.6s-3.5-23.8.6-28.8c2.2-5.4 10.1-10.7 18.9-13-16.7 19.3-11.3 48.6 3.5 45.8.7-.1-11 6.6-12.5 6.6z" fill="url(#n)"/><path d="m113.9 885.4c3.3 2.4 17.3 13.3 20.4 11.6-7.1 17.5-26.1 2.7-20.4-11.6z" fill="url(#o)"/></g><path d="m171.9 786.7c-3.4 2-7.4 4.2-8.2 6.2-2.7 5.7-3.7 15.9-2.9 15.3 8-5.7 17.3-7.3 20.7-10.3 10-9.1 13.9-27.8 11.8-25-6.9 8.9-18 11.8-21.4 13.8zm-52.5 125.7s-9.5-6.6-9.3-8.7c1.5-17.5-1.6-18.5-3.2-18.3-1.9.2-11.7 6.4-13.6 23.9-1.4 12.7 3.6 32.5 4.4 33.6 3.9-10.6 2.3-19.2 21.7-30.5zm103.5-77.4c-.5-13.1-8.4-22.1-13.7-20-2.3.9-3.8 7-3 10.8.7 3.4 5.5 16.3 5.9 17.4.8 2.6 6.4 18.5 5.4 26.1-.9 6.7-20.3 9-20.3 9s-.3 5.5-1 9.1c-.8 4.5-2.5 8.1-2.5 8.1s4.2 3.9 4.4 3.9c.1.1 26.6-14.2 24.8-64.4zm-20.3 40.6c1.4-.4 9.4-2.5 9-2.8-3-2-6.4-4.4-12.1-8.9-31.7-24.6-60.4-3.9-59.9-4.1 5.3-1.7 10.8-2.7 18.5-2.2 6.2.4 16 3.6 24.5 13.8 3.3 3.7 6.9 6.3 20 4.2zm-14.1-53.5c1-.8 4.3-7.1 3.7-7.3-8.4-2-9.2-5.8-10-9.8-.8-3.8-.7-4.3-2.2-3.8-12.9 4.2-16.4 6.6-18.4 8.2-3.1 2.6-.9 9.4.3 12.2 1.7 3.8 7.9 10.7 10.7 11.3 4.1.8 14-7.8 15.9-10.8zm9.3-23.2c-.7-2.9-2.9-6.5-3.5-6.5s-6.5 4.6-8.1 6.2c-3.5 3.6-1.8 10.2 2.1 12.5 6.6 3.8 11.4-4.6 9.5-12.2zm-4.9-10.9c2.9-2.9 6.7-7.6 7.7-14.7.4-2.8.6-5.3-1.1-10.8-.4-1.3-1.6-5-1.7-4.5-.9 9.6-2.2 20.3-8.5 31.6-2 3.5-.9 2.9 3.6-1.6zm-67.2 57.1c-3.2 14.4 5.6 33.1 13 34.2 7.1 1 27.4-5.1 38.1-8.1 2.8-.8 4.3-.4-1.9-5.5-9.7-6.6-17.5-7.4-25.3-6.5-8.6 1-15 3.5-14.4 3 3.9-3.3 11-9.2 24.5-11.9 5.9-1.2 15-1.3 26 3 13.6 5.3 20.7 13.2 26.5 15.9 2.1 1 2.8.5 3.6-1.9 1.4-4-6.9-28.9-9.9-36.2-4.6-11.1.8-16.4-.4-16.1-5.6 1.2-10.6 4.9-14.8 8.6-10.2 9.1-16.4 11.1-17.3 11-2.9-.2-8.4-5.4-10.3-8-1.3-1.7-23.9 2.7-30.5 8.5-.4.2-5.5 3.5-6.9 10zm-7.3 62.4c7.5-3.1 14.8-9.8 14.1-9.9-3.9-.7-18.2-10.5-18.1-10.4.5 5.1-.6 9.6-1.1 14.6-.2 2.1 2.6 5.3 5.1 5.7zm24.1-21.9c-1.4 3.2-2.9 15.7-23.5 23.7-.6.2 17.3 12.5 18.3 12.5 59 2.6 58.5-42.4 57.8-43.5-.1-.2-5.2 0-9.1-1.8-.3-.1-3-1.5-4.5-3.6-.5-.7-.6-1.1-2.6-.5-9.4 2.7-36.8 12.5-36.4 13.2zm-18.4-21.9c-10.8-36.8 26.5-38.5 32.3-40 4.5-1.1 3.5-1.5 2.6-5.8-1.3-6-.9-11.3.2-16.9 1.1-5.3 1.7-8 4-10.7 1.9-2.2 12.3-7.1 14.9-8.3 11-5.3 15.2-11.1 16.5-15.7.9-3.2 2.1-11.2 1.6-16.9-.1-1.4.8.8 5.3 14.7 2.3 7.1 1.2 15.7-6.1 23.4-1 1-.5 1.3.8 3.4 2.7 4.5 4.3 10.2 3.8 14.3-.4 3.4-1.8 6.6.3 6.3.3 0 9.4-1.4 15.7 2.6 4.2 2.7 10.3 7.8 8.7 29.4-3.4 47.2-26.5 57.4-26.6 57.4-.4 0-4.7-4.5-5-3.9-13.2 27.3-40.5 26.3-55.7 26.6-3 .1-15.7-10.6-16.8-9.9-13.5 9.2-17.2 11.5-22.4 35-.2-.4-7.2-12.8-6.9-37.8.2-20.5 11.4-30.1 16.4-29.6 6 .7 9.1 3.8 17.6 9.4 1.5 1 6.9 4.2 8.1 4.2 3-.1 5.1-5.7 5.6-9.3s1-2.8-1.9-3.7c-3.7-.9-9.9-7.6-13-18.2z" fill="#2c3b54"/><path clip-rule="evenodd" d="m142.8 885.2c5.5-3 37-12.8 37.2-13.5.2-.5-36.9 14.8-45.3 9.1-.5-.3 2 1.5 4.2 1.9.2 0 .1 5.9-2 9.2-.4 1.1 4.7-6 5.9-6.7z" fill="url(#q)" fill-rule="evenodd"/><path clip-rule="evenodd" d="m194 792.3c-3.4 2.4-8.2 5.8-9.2 8.4-.6 1.5-1-4.3 3-7.7 2.2-2 7-1.1 6.2-.7z" fill="url(#r)" fill-rule="evenodd"/><path clip-rule="evenodd" d="m189.4 811.7c3.9 1.2 6.9-1.2 8.6-6.4.2-.6-.5 4.5-2.9 6.4-2.3 1.9-6.5-.2-5.7 0z" fill="url(#s)" fill-rule="evenodd"/><path clip-rule="evenodd" d="m199.3 817c5.5-3 11.2-2.6 16-2.3 3.2.1-6-3.6-16.5-3-1.1 1-4.5 6.5-9.2 12.2-.6.8 8.4-6.2 9.7-6.9z" fill="url(#t)" fill-rule="evenodd"/><path clip-rule="evenodd" d="m146.6 829c3.3-.7 7.3-1.8 10-2 2.3-.2 5.1-1.5 7.2.8-1.2-1.7-3.5-5-4.2-7.2.7 2.6-2.3 2.9-3 3-16.3 2.6-26.2 7-31.1 15.2 9.4-7.3 20.5-9.7 21.1-9.8z" fill="url(#u)" fill-rule="evenodd"/></g></svg>