<?xml version="1.0" encoding="utf-8"?>
<!-- Generator: Adobe Illustrator 26.0.3, SVG Export Plug-In . SVG Version: 6.00 Build 0)  -->
<svg height="40px" version="1.1" id="Layer_1" xmlns="http://www.w3.org/2000/svg" xmlns:xlink="http://www.w3.org/1999/xlink" x="0px" y="0px"
	 viewBox="0 0 243.7 243.7" style="enable-background:new 0 0 243.7 243.7;" xml:space="preserve">
<style type="text/css">
	.st0{fill:url(#path28_00000137128145445938356950000006022055081158589364_);}
	.st1{fill:#FFFFFF;}
</style>
<g>
	
		<linearGradient id="path28_00000069393983077295272980000007870713712376836271_" gradientUnits="userSpaceOnUse" x1="62.4151" y1="166.9868" x2="62.7721" y2="166.9868" gradientTransform="matrix(-585.0547 -585.0547 -585.0547 585.0547 134438.9531 -60953.9023)">
		<stop  offset="0" style="stop-color:#004CAF"/>
		<stop  offset="1" style="stop-color:#1F95F8"/>
	</linearGradient>
	<path id="path28" style="fill:url(#path28_00000069393983077295272980000007870713712376836271_);" d="M184.4,243.7H59.3
		C26.7,243.7,0,217,0,184.4V59.3C0,26.7,26.7,0,59.3,0h125.1c32.6,0,59.3,26.7,59.3,59.3v125.1C243.7,217,217,243.7,184.4,243.7z"/>
	<path id="path30" class="st1" d="M188.6,32.6h-66.2c-0.6,0-1.1,0.5-1.1,1.1v21c0,0.7,0.6,1.3,1.3,1.3h9.1c3.7,0,6.7,2.8,7,6.4V162
		c0,0.8,0,1.6-0.1,2.4c0,0.1,0,0.2,0,0.3c-0.1,0.5-0.1,0.9-0.2,1.3c0,0.3-0.1,0.5-0.2,0.7c-0.1,0.3-0.1,0.7-0.2,1
		c-0.6,1.9-1.5,3.7-2.9,5.3c0,0.1-0.1,0.1-0.2,0.2c-0.4,0.5-0.8,0.9-1.3,1.3c-0.5,0.4-1,0.8-1.5,1.2c-3.7,2.6-8.7,3.8-14.3,3.2
		c-7.1-0.7-14.2-3.9-19.8-9.1c-5.7-5.2-9.2-11.6-10-18.1c-0.7-5.8,1.1-10.9,4.9-14.3l0,0c0.1-0.1,0.3-0.2,0.5-0.4
		c2.7-2.3,6.3-3.7,10.3-4c0,0,0.1,0,0.1,0c0.4,0,0.9-0.1,1.3-0.1c0.2,0,0.5,0,0.7,0c0.1,0,0.2,0,0.2,0c0.1,0,0.3,0,0.4,0
		c0.6,0,1.3,0,1.9,0.1c0.1,0,0.2,0,0.2,0c0.1,0,0.1,0,0.2,0c3.7,0.4,7.4,1.5,10.9,3.2c0.1,0,0.2,0,0.3,0.1c1.1,0.6,1.3,0,1.3-0.5
		v-31.7c0-0.9-0.6-1.7-1.5-1.9c-18.8-4.1-37.2,0.2-50.2,12c-11.4,10.3-16.9,25.3-15.1,40.9c1.6,14,8.8,27.4,20.2,37.8
		c11.1,10.1,25.3,16.5,39.9,17.8c2,0.2,4,0.3,6,0.3c14,0,26.9-4.8,36.5-13.5c9.1-8.2,14.5-19.6,15.3-31.9V84.9V63.3l0-0.4
		c0.1-3.8,3.2-6.9,7-6.9h9.1c0.7,0,1.3-0.6,1.3-1.3v-21C189.7,33.1,189.2,32.6,188.6,32.6z"/>
</g>
</svg>
