<?xml version="1.0" encoding="utf-8"?>
<!-- Generator: Adobe Illustrator 28.1.0, SVG Export Plug-In . SVG Version: 6.00 Build 0)  -->
<svg version="1.1" id="Layer_1" xmlns="http://www.w3.org/2000/svg" xmlns:xlink="http://www.w3.org/1999/xlink" x="0px" y="0px"
	 viewBox="0 0 243.7 243.7" style="enable-background:new 0 0 243.7 243.7;" xml:space="preserve">
<style type="text/css">
	.st0{fill:#4E4E4E;}
	.st1{fill:#767677;}
	.st2{fill:#F37726;}
	.st3{fill:#9E9E9E;}
	.st4{fill:#616262;}
</style>
<g>
	<g id="g">
		<path id="path0_fill" class="st0" d="M27.9,127.5c0,7.7-0.5,10.1-1.9,11.5c-1.9,1.4-3.8,2.4-6.2,2.4l0.5,4.3
			c3.4,0,7.2-1.4,9.6-3.4c1.4-1.9,2.4-3.8,3.4-6.2c0.5-2.4,1-4.3,0.5-6.7v-28.3h-5.8V127.5L27.9,127.5z"/>
		<path id="path1_fill" class="st0" d="M70.5,124.2c0,3.4,0,6.2,0.5,8.6h-5.3l-0.5-5.3c-1,1.9-2.4,3.4-4.3,4.3s-3.8,1.4-5.8,1.4
			c-4.8,0-11-2.9-11-13.4v-18.2h5.8v17.3c0,5.8,1.9,10.1,7.2,10.1c1,0,1.9,0,2.9-0.5c1-0.5,1.9-1,2.4-1.9c1-1,1.4-1.4,1.9-2.4
			s0.5-1.9,0.5-2.9v-19.2h5.8V124.2L70.5,124.2z"/>
		<path id="path2_fill" class="st0" d="M81.1,111.7c0-3.8,0-7.2-0.5-10.1h5.3l0.5,5.3c1-1.9,2.9-3.4,4.8-4.8c1.9-1,4.3-1.4,6.2-1.4
			c7.7,0,13.4,6.2,13.4,15.8c0,11-6.7,16.8-14.4,16.8c-1.9,0-3.8-0.5-5.3-1c-1.9-1-3.4-1.9-4.3-3.8l0,0v17.3h-5.8V111.7L81.1,111.7z
			 M86.8,120.3c0,1,0,1.4,0.5,2.4c0.5,1.9,1.4,3.4,3.4,4.8c1.4,1,3.4,1.9,5.3,1.9c6.2,0,9.6-4.8,9.6-12c0-6.2-3.4-11.5-9.1-11.5
			c-2.4,0-4.8,1.4-6.2,2.9s-2.4,3.8-2.9,6.2v5.3H86.8z"/>
		<path id="path3_fill" class="st0" d="M120.9,101.6l6.7,18.2c1,1.9,1.4,4.3,1.9,6.2c0.5-1.9,1.4-4.3,1.9-6.7l6.2-18.2h6.2
			l-8.2,22.5c-4.3,10.6-6.7,16.3-11,19.7c-1.9,1.9-4.3,2.9-7.2,3.8l-1.4-4.8c1.9-0.5,3.4-1.4,4.8-2.9c1.9-1.9,3.8-3.8,4.8-6.2
			c0-0.5,0.5-1,0.5-1.4c0-0.5,0-1-0.5-1.4l-11.5-28.8L120.9,101.6L120.9,101.6z"/>
		<path id="path4_fill" class="st0" d="M159.3,92.5v9.1h8.2v4.3h-8.2v16.8c0,3.8,1,6.2,4.3,6.2c1,0,2.4,0,3.4-0.5l0.5,4.3
			c-1.9,0.5-3.4,1-5.3,0.5c-1,0-2.4,0-3.4-0.5s-1.9-1-2.9-1.9c-1.9-2.4-2.4-5.3-2.4-8.2v-17.3h-4.8v-4.3h4.8v-7.7L159.3,92.5z"/>
		<path id="path5_fill" class="st0" d="M178,118.4c0,1.4,0,2.9,0.5,4.3s1.4,2.4,2.4,3.8c1,1,2.4,1.9,3.8,2.4
			c1.4,0.5,2.9,0.5,4.3,0.5c2.9,0,5.8-0.5,8.6-1.4l1,4.3c-3.4,1.4-6.7,1.9-10.6,1.9c-1.9,0-4.3,0-6.2-1c-1.9-1-3.8-1.9-5.3-3.4
			c-1.4-1.4-2.4-3.4-3.4-5.3c-0.5-1.9-1-3.8-1-6.2c0-9.6,5.8-16.8,14.9-16.8c10.1,0,12.9,9.1,12.9,14.9c0,1,0,1.9,0,2.9L178,118.4
			L178,118.4z M194.7,114.1c0-1,0-2.4-0.5-3.4s-1-1.9-1.4-2.9c-1-1-1.9-1.4-2.9-1.9c-1-0.5-2.4-1-3.4-1c-2.4,0-4.3,1.4-6.2,2.9
			c-1.4,1.9-2.4,3.8-2.4,6.2C178,114.1,194.7,114.1,194.7,114.1z"/>
		<path id="path6_fill" class="st0" d="M208.7,111.2c0-3.8,0-6.7-0.5-9.6h5.3v6.2h0.5c0.5-1.9,1.4-3.4,3.4-4.8
			c1.4-1.4,3.4-1.9,5.3-1.9c0.5,0,1,0,1.4,0v5.3c-0.5,0-1.4,0-1.9,0c-1.9,0-3.8,1-5.3,2.4c-1.4,1.4-2.4,3.4-2.4,5.3
			c0,1-0.5,1.9-0.5,2.9v16.8h-5.3V111.2L208.7,111.2z"/>
	</g>
	<g>
		<path id="path7_fill" class="st1" d="M206.3,15.8c0,2.9-0.5,5.8-1.9,8.2c-1.4,2.4-3.8,4.3-6.2,5.8s-5.3,1.9-8.2,1.4
			c-2.9-0.5-5.3-1.4-7.7-3.4c-2.4-1.9-3.8-4.8-4.3-7.7c-0.5-2.9-0.5-5.8,0.5-8.6s2.9-5.3,5.3-6.7c2.4-1.9,5.3-2.9,8.2-2.9
			c1.9,0,3.8,0,5.8,1c1.9,0.5,3.4,1.4,4.8,2.9c1.4,1.4,2.4,2.9,3.4,4.3C206.7,11.5,206.3,13.9,206.3,15.8L206.3,15.8z"/>
		<path id="path8_fill" class="st2" d="M121.9,183.1c-38.4,0-72.4-13.9-89.7-34.1c6.7,18.2,19.2,34.1,35,45.1s35,17.3,54.7,17.3
			s38.4-5.8,54.7-17.3c15.8-11,28.3-26.9,35-45.1C194.3,169.2,160.7,183.1,121.9,183.1z"/>
		<path id="path9_fill" class="st2" d="M121.9,50.8c38.4,0,72.4,13.9,89.7,34.1c-6.7-18.2-19.2-34.1-35-45.1
			c-15.8-11.5-35-17.3-54.7-17.3s-38.4,5.8-54.7,17.3c-15.8,11-28.3,26.9-35,45.1C49.9,64.2,83.5,50.8,121.9,50.8z"/>
		<path id="path10_fill" class="st3" d="M69.1,223c0,3.8-0.5,7.2-2.4,10.6c-1.9,2.9-4.8,5.3-8.2,6.7c-3.4,1.4-6.7,1.9-10.6,1.4
			c-3.4-0.5-6.7-1.9-9.6-4.3s-4.8-5.8-5.3-9.1c-1-3.4-0.5-7.2,0.5-10.6c1.4-3.4,3.4-6.2,6.2-8.6c2.9-1.9,6.2-3.4,10.1-3.4
			c2.4,0,4.8,0,7.2,1c2.4,1,4.3,1.9,6.2,3.8c1.9,1.9,3.4,3.4,4.3,5.8C68.1,218.2,68.6,220.6,69.1,223L69.1,223z"/>
		<path id="path11_fill" class="st4" d="M36.5,46c-1.9,0-4.3-0.5-5.8-1.4c-1.9-1-3.4-2.9-3.8-4.8c-1-1.9-1.4-3.8-1-5.8
			c0.5-1.9,1.4-3.8,2.9-5.3c1.4-1.4,3.4-2.4,5.3-2.9c1.9-1,3.8-1,5.8,0c1.9,1,3.8,1.9,4.8,3.8c1.4,1.4,1.9,3.8,1.9,5.8
			c0,2.9-1,5.8-2.9,7.7C42.2,44.5,39.4,46,36.5,46z"/>
	</g>
</g>
</svg>
