<svg height="40px" enable-background="new 0 0 243.7 243.7" viewBox="0 0 243.7 243.7" xmlns="http://www.w3.org/2000/svg"><path d="m215.9 199.1c-3.8 4.6-7.8 8.8-12.2 12.8-15-17.6-29.5-27.3-30.5-28.3h.5c.5 0 21.4 2.7 42.2 15.5zm-157.3-179c0 15.7 8.3 35.5 39.6 35.5h6.6c.2 0 10.2-.3 37.2 11.5v-4c3.5 5 8.2 8 14.1 9.9l-.8-5.4.1-.1c1.6 1.6 8.2 9.5 15.5 13.1-.2-2.6-.8-4.9-1.1-7.6 14.3 15 14 14.1 15.6 14.1 1.1 0 1.1-.4 5.9-.4h.7c10.3 15.6 11.5 16.3 11.5 17.7 0 .6-.4 1-1.4 1.6.1.2.2.5.4.7 9.3 9.6 17.2 10.5 20.7 11.3-5.3 4.2-7.1 4.9-11.4 9-20.7-21.9-34.8-18.7-34.8-27.9 0-1.7-.1-3.3-.2-5-.1-.1-48.2-26.4-82-26.4-19.8 0-46 18.6-46 50.2 0 77.5 92.8 22.7 170.6 76.5 15.1-20.3 24-45.4 24-72.6.1-67.1-54.4-121.6-121.6-121.6-23.1 0-44.8 6.5-63.2 17.7zm84.2 160.4c-28.7-6.6-106.5 8.8-106.5-60 0-45 30.3-57 33.1-58.4-.7-1.9-11.5-24.1-15.7-41-.4.3-.9.6-1.3.9l.2.9c-.5 0-.9 0-1.4-.1-3 2.1-5.8 4.3-8.6 6.7.8-.1 9.3-1.1 9.9-1.1h1.1l2.6 8.5c-5 .4-6.8-.3-22.7 1.3-20.6 21.8-33.3 51.2-33.3 83.7 0 67.2 54.5 121.6 121.6 121.6 29.8 0 57.2-10.8 78.3-28.6-9-10.3-26.9-27.4-57.3-34.4zm55.5-77.1c0-.1 0-.2 0-.3 0 0 0 0 0-.1-4.7-6.4-4-5.5-5-6.2-.2.6-.2 1.2-.2 1.7v1.1c.1.2 2.3 2.9 5.2 3.8z" fill="#939598"/></svg>