<svg height="40px" enable-background="new 0 0 243.7 243.7" viewBox="0 0 243.7 243.7" xmlns="http://www.w3.org/2000/svg" xmlns:xlink="http://www.w3.org/1999/xlink"><linearGradient id="a" gradientUnits="userSpaceOnUse" x1="35.8305" x2="207.8695" y1="35.6305" y2="207.6695"><stop offset=".04334504" stop-color="#2aa1c1"/><stop offset=".06333438" stop-color="#2aa0c3"/><stop offset=".3783" stop-color="#278de4"/><stop offset=".5507" stop-color="#2686f1"/><stop offset=".5915" stop-color="#2683f4"/><stop offset=".7666" stop-color="#2879fc"/><stop offset="1" stop-color="#2876ff"/></linearGradient><linearGradient id="b" gradientUnits="userSpaceOnUse" x1="35.8305" x2="207.8695" y1="35.6305" y2="207.6695"><stop offset=".04334504" stop-color="#8fc5c1"/><stop offset=".06540749" stop-color="#89c2c4"/><stop offset=".2902" stop-color="#54a2dc"/><stop offset=".4588" stop-color="#338eeb"/><stop offset=".5507" stop-color="#2686f1"/><stop offset=".5637" stop-color="#2682eb"/><stop offset=".634" stop-color="#276ece"/><stop offset=".7088" stop-color="#275fb7"/><stop offset=".7894" stop-color="#2854a7"/><stop offset=".8797" stop-color="#284e9d"/><stop offset="1" stop-color="#284c9a"/></linearGradient><circle cx="121.8" cy="121.6" fill="url(#a)" r="121.6"/><path d="m121.8 0c-67.1 0-121.6 54.5-121.6 121.7s54.5 121.6 121.6 121.6 121.7-54.5 121.7-121.6-54.5-121.7-121.7-121.7zm0 235.1c-62.7 0-113.4-50.8-113.4-113.4s50.8-113.5 113.4-113.5 113.5 50.8 113.5 113.5-50.8 113.4-113.5 113.4z" fill="url(#b)"/><path d="m131.1 167.4c-21.3-1.7-82.1 5.5-82.1-48.8 0-31.9 26.4-50.5 46.2-50.5 34 0 82.4 26.4 82.5 26.5.1 1.7.2 3.4.2 5.1 0 9.2 14.2 6.2 35 28.1 4.3-4.2 6.2-4.9 11.5-9.1-3.5-.9-11.5-1.8-20.8-11.4-.2-.2-.3-.4-.4-.7 1-.5 1.4-1 1.4-1.6 0-1.4-1.2-2.1-11.5-17.8-.2 0-.5 0-.7 0-4.8 0-4.9.4-6 .4-1.6 0-1.3 1-15.7-14.2.3 2.7.9 5 1.1 7.6-7.3-3.6-14-11.6-15.6-13.2l-.1.1.8 5.4c-5.9-1.9-10.7-5-14.1-10v4c-27.2-11.9-37.3-11.5-37.5-11.5-.3 0-2.4 0-6.7 0-27.1 0-37-14.8-39.2-28.9-.4-2.3-.5-4.6-.5-6.8 0-.9 0-1.8.1-2.6-1.7 1-3.3 2.1-5 3.2 1.4 2.3 2.6 4.7 3.7 7.4 3.8 9 6.4 20.1 12.1 34.3-2.9 1.4-33.3 13.4-33.3 58.7 0 69.2 77.2 53.5 107.1 60.4 21.4 4.9 38 15.1 50.8 27.4 2 1.9 3.9 3.9 5.7 5.9 1.2-1 2.4-2 3.5-3-1.9-2.1-3.7-4.2-5.5-6.1-12.5-13-23.3-20.4-23.9-21h.5c4.6 0 18.3 3 33.5 10.7 2.4 1.2 4.9 2.6 7.3 4.1 1.2-1.5 2.4-2.9 3.5-4.4-2.2-1.5-4.5-3-7-4.4-19.1-11.3-45.3-20.4-80.9-23.3zm63.3-70.1c1 .7.3-.2 5 6.3v.1.3c-2.9-.9-5.2-3.6-5.2-3.7 0-.4 0-.8 0-1.1-.1-.7 0-1.3.2-1.9zm-148.6-59.9c-3.5.2-7.7.4-12.6.9 3-3.2 6.2-6.3 9.6-9.1 3.9-.5 7.3-.7 10-.7h1.1l2.6 8.5c-2.1.2-5.6.2-10.7.4zm7-14.5-1.9-.1c.5-.4 1.1-.8 1.6-1.1z" fill="#fff"/></svg>