<?xml version="1.0" encoding="utf-8"?>
<!-- Generator: Adobe Illustrator 25.0.0, SVG Export Plug-In . SVG Version: 6.00 Build 0)  -->
<svg width="50px" height="50px" version="1.1" id="Layer_1" xmlns="http://www.w3.org/2000/svg" xmlns:xlink="http://www.w3.org/1999/xlink" x="0px" y="0px"
	 viewBox="0 0 1024 1024" style="enable-background:new 0 0 1024 1024;" xml:space="preserve">
<style type="text/css">
	.st0{fill:#0166FF;}
</style>
<g id="I6UOhl.tif">
	<g>
		<path class="st0" d="M552.3,871.9c-42.5-7.5-34.7-5.7-41.1-6.9c-122.5-23.9-245-47.4-367.5-71.5c-31.2-6.1-46.3-23.6-46.4-54.5
			c-0.4-150-0.4-299.9,0-449.9c0.1-29.7,15.6-47.3,44.8-53.6c125.7-27.1,251.4-54.3,377.1-81c55.1-11.7,80.6,9.8,80.6,67
			c0,184.6-0.9,369.3,0.7,553.9C601.1,818,594.8,879.4,552.3,871.9z"/>
		<path class="st0" d="M711.7,765.6c0-171.1,0-339,0-511.2c-11,0-21.9-0.3-32.7,0.1c-12,0.4-21.6-1.6-20.3-16.8
			c1.1-12.2-5.8-26.8,16.5-30.1c58.5-8.8,87.7,14.8,87.7,73.9c0,152.3,0,304.6,0,456.9c0,59.4-35.4,87-92.7,72.9
			c-17.3-4.3-11.9-17.8-10.8-27.4c0.7-6.5,7.8-16,13.6-17.5C684.3,763.6,696.8,765.6,711.7,765.6z"/>
		<path class="st0" d="M874.9,711.2c0-135.8,0-267.4,0-402.5c-9.8,0-18.5,0.1-27.2,0c-12.5-0.2-26.4,3.2-26.4-17.7
			c0-17.1,2.8-24.4,23.2-29.4c50.5-12.4,83.7,26,82.5,75.4c-3,117.4-0.9,235-1,352.5c0,53.7-40.1,82.4-92,66.4
			c-16.7-5.2-13.4-19.2-11.4-29.9c1.1-5.8,10.4-12.6,17.1-14.1C850.2,709.5,861.7,711.2,874.9,711.2z"/>
	</g>
</g>
</svg>
