<svg width="90px" enable-background="new 0 0 500 500" viewBox="0 0 500 500" xmlns="http://www.w3.org/2000/svg"><g stroke-linecap="round" stroke-miterlimit="10"><path d="m221.8 304.2h58" fill="none" stroke="#25b05f" stroke-width="5"/><path d="m192.7 334.2h115.6" fill="none" stroke="#25b05f" stroke-width="7.8"/><path d="m163.7 364.2h173.2" fill="none" stroke="#25b05f" stroke-width="10.6"/><path d="m134.6 394.2h230.8" fill="none" stroke="#25b05f" stroke-width="13.4"/><path d="m105.6 424.2h288.4" fill="none" stroke="#25b05f" stroke-width="16.2"/><path d="m76.5 454.2h346" fill="none" stroke="#25b05f" stroke-width="19"/><path d="m56.5 469.5 193-193 193 193" fill="none" stroke="#343333" stroke-width="19"/><path d="m220.2 53.5h59.5v137h-59.5z" fill="#25b05f" stroke="#343333" stroke-width="13.4769"/></g><path d="m392.1 365.7h-284.2v-91.4c0-31.4 25.4-56.8 56.8-56.8h170.5c31.4 0 56.8 25.4 56.8 56.8v91.4z" fill="#343333"/><path d="m141.6 162.4v82h216.8v-82c-61.4-55.9-155.4-55.9-216.8 0z" fill="#25b05f" stroke="#343333" stroke-linecap="round" stroke-miterlimit="10" stroke-width="13.4769"/><path d="m249.4 469v-196.5" fill="#25b05f" stroke="#343333" stroke-linecap="round" stroke-miterlimit="10" stroke-width="13.4769"/><path d="m250 272.5-175.2 114.5 175.2 82 175.2-82z" fill="#25b05f" stroke="#343333" stroke-linecap="round" stroke-miterlimit="10" stroke-width="13.4769"/><path d="m154 424.1 95.4-151.6" fill="#25b05f" stroke="#343333" stroke-linecap="round" stroke-miterlimit="10" stroke-width="13.4769"/><path d="m346 424.1-95.4-151.6" fill="#25b05f" stroke="#343333" stroke-linecap="round" stroke-miterlimit="10" stroke-width="13.4769"/><path d="m249.4 272.5v196.5" fill="#25b05f" stroke="#343333" stroke-linecap="round" stroke-miterlimit="10" stroke-width="13.4769"/><circle cx="250" cy="276.4" fill="#25b05f" r="100.5" stroke="#343333" stroke-linecap="round" stroke-miterlimit="10" stroke-width="13.4769"/><circle cx="250" cy="276.4" fill="#fff" r="56.7" stroke="#343333" stroke-linecap="round" stroke-miterlimit="10" stroke-width="13.4769"/><path d="m200 31h100v22.5h-100z" fill="#343333"/><path d="m269 276.4h-20.4c-3.1 0-5.7 2.5-5.7 5.7 0 3.1 2.5 5.7 5.7 5.7h13.9l-3 5.2h-19l-9.5-16.5 9.5-16.5h19l5 8.7h13.1l-11.6-20.1h-32l-16 27.8 16 27.8h32l16-27.8z" fill="#343333"/><path d="m220.2 88.3h59.6" fill="#25b05f" stroke="#343333" stroke-linecap="round" stroke-miterlimit="10" stroke-width="13.4769"/></svg>
