<svg enable-background="new 0 0 1000 1000" viewBox="0 0 1000 1000" xmlns="http://www.w3.org/2000/svg" xmlns:xlink="http://www.w3.org/1999/xlink"><linearGradient id="a" gradientUnits="userSpaceOnUse" x1="499.14976072" x2="499.14976072" y1="18.00475116" y2="986.41051189"><stop offset="0"/><stop offset="1" stop-color="#4c4c4c"/></linearGradient><g transform="translate(-699.606288 -402.59665)"><g transform="translate(-452.34937 725.009)"><path d="m1491.8 324.2v62h320.3v-62z"/><path d="m1491.8 401.4v62h320.3v-62z"/><path d="m1491.8 478.7v62h320.3v-62z"/><path d="m1646.6 263.3c0 2.7-2.6 4.8-5.7 4.8-3.2 0-5.7-2.2-5.7-4.8s2.6-4.8 5.7-4.8 5.7 2.2 5.7 4.8zm22.2-.3c0 2.7-2.6 4.8-5.7 4.8-3.2 0-5.7-2.2-5.7-4.8s2.6-4.8 5.7-4.8 5.7 2.2 5.7 4.8zm-177-16v62h320.3v-62z"/></g><path d="m1123 948.4v8.8c0 3.4 5 8.6 8.6 8.6h137.6c3.6 0 8.6-5.3 8.6-8.6v-8.8z"/><path d="m1191.5 821.3c-1.5 0-7.9 6.5-7.9 7.5v5.9h1.1c0 52.5 4.2 30.3 4 74.9 0 1 5.4 4.7 6.6 4.7v10.1h-1.4v1.3h-3.9v.7h-59c-3.5 0-8.4 5.9-8.4 8.6v8.8h155.2v-8.8c0-3.4-5-8.6-8.6-8.6h-10.1v-1h-2.6v-3.8h-1.4v-1.5h-21.6v1.5h-1.4v3.8h-2.6v1h-19.8v-.7h-3.9v-1.3h-1.4v-10.1c1.2 0 6.6-3.7 6.6-4.7-.2-44.6 4-22.4 4-74.9h1.1v-5.9c0-1-6.4-7.5-7.9-7.5z"/></g><g transform="translate(.839236)"><path d="m307.2 697.3c-4.2.2-8.8 1.4-14 3.5-33.3 13.6-18.6 42.4-33.1 60.6s-43.6 9.4-52.8 46.6 131.7 219.6 207.4 188.4c75.7-31.1 47.6-259.9 14.9-279.9s-47.1 6.8-70.2 4.1c-19.5-2.3-29.6-24.5-52.2-23.3zm381.5 0c-21 .4-31.1 21.1-49.9 23.3-23.1 2.7-37.5-24-70.2-4.1-32.7 20-60.8 248.7 14.9 279.9 75.7 31.1 216.6-151.3 207.4-188.4-9.2-37.2-38.2-28.4-52.7-46.6s0-46.7-33.1-60.6c-6.1-2.6-11.6-3.6-16.4-3.5z" fill="#f6bd0e"/><path d="m499.1.7c-97.7 0-155 59.6-165.8 139.9-10.8 80.4 6.6 95.1-20.5 177.4-27 82.3-148.3 223.3-145.5 353.5.9 40.5 5.5 75.6 13.7 106.3 10-16.5 24.7-28.2 35.5-33.1 8.4-3.9 12.5-5.7 14.4-6.4.3-2.1 1.3-6.8 3.3-16.2 2.7-12.8 12.9-32.9 30.3-46.1-.2-4-.4-8-.5-12.1-2.2-100.9 102.3-210.3 121.5-274.1s10.8-70.4 14-86.3 15.3-34.4 33-49.1c1.7-1.4 3.3-2 5-2 16.1-.1 32.1 58.3 63.2 58.3s47.2-71.3 65.1-56.3c17.6 14.7 29.8 33.2 33 49.1s-5.2 22.4 14 86.3c19.2 63.8 123.6 173.2 121.4 274.1-.1 4.1-.3 8-.5 12 17.5 13.2 27.7 33.4 30.4 46.2 1.9 9.3 3 14.1 3.3 16.2 1.9.7 6 2.7 14.4 6.6 10.8 5 25.4 16.6 35.4 33.1 8.2-30.7 12.9-65.8 13.8-106.4 2.8-130.1-118.5-271.2-145.6-353.5-27-82.3-9.5-97-20.3-177.4s-68.3-140-166-140zm-4.1 920.3c-1.7 10.7-3.9 21.2-6.8 31.3-4.7 16.5-11.6 33.1-21.9 47.1 10.7.7 21.6.7 32.8.2 11.2.5 22.1.4 32.8-.2-10.3-14.1-17.2-30.6-21.9-47.1-2.9-10.1-5.1-20.6-6.8-31.3-1.4 0-2.7.1-4.1.1s-2.7-.1-4.1-.1z" fill="url(#a)"/></g></svg>