<svg height="40px" enable-background="new 0 0 72 72" viewBox="0 0 72 72" xmlns="http://www.w3.org/2000/svg"><path d="m63.1 35-16.5-16.5-7 8.9 7.6 7.6c.7.7.7 1.8 0 2.5l-2.2 2.2s1.5 2.2 1.5 2.3c.3.7.4 2.3-.5 3l-17.2 13.3v13.5s34.3-34.3 34.3-34.3c.7-.7.7-1.8 0-2.5z" fill="#5e8cda"/><path d="m24.8 37c-.7-.7-.7-1.8 0-2.5l2.2-2.2-1.5-2.2c-.7-1-.5-2.4.5-3.2l17.2-13.2v-13.5l-34.3 34.3c-.7.7-.7 1.8 0 2.5l16.5 16.5 7-8.9z" fill="#093071"/><path d="m51.9 8.5c.2 0 .5.1.6.3.2.4-.1.7-.3 1l-15.1 19.2c-.2.3-.2.8 0 1.1 0 0 8.1 11.8 8.4 12.2s.3 1.8-.4 2.3l-24.2 18.6c-.3.3-.5.4-.8.4-.2 0-.4-.2-.5-.3-.2-.4.1-.7.3-1l15-19.3c.2-.3.2-.8 0-1.1l-8.4-12.1c-.5-.8-.4-1.8.4-2.4l24.2-18.6c.4-.3.6-.3.8-.3m0-.3c-.3 0-.6.1-.9.4l-24.3 18.6c-.9.7-1.1 1.9-.4 2.8l8.4 12.1c.1.2.1.6 0 .7l-15.1 19.2c-.2.3-.6.8-.3 1.4.1.3.5.5.8.5.4 0 .6-.2 1-.4l24.2-18.6c.8-.6.8-2.1.4-2.7-.3-.4-8.4-12.2-8.4-12.2-.1-.2-.1-.6 0-.7l15.1-19.3c.2-.3.6-.8.3-1.4-.1-.2-.5-.4-.8-.4z" fill="#5e8cda"/><path d="m44.9 42.3c.2.3.4 1.4-.1 1.8l-24.3 18.6c-.2.2-.3.2-.4.2s0-.1.2-.4l15.1-19.1c.4-.5.4-1.3.1-1.8l-8.5-12.1s17.7 12.5 17.9 12.8z" fill="#f5cd21"/><path d="m44.9 42.3-8.3-11.9c-.4-.5-.3-1.3.1-1.8l15-19.1c.2-.3.3-.4.2-.4s-.2.1-.4.2l-24.2 18.6c-.5.4-.6 1.1-.2 1.6z" fill="#fddd75"/></svg>