<svg height="45px" enable-background="new 0 0 72 72" viewBox="0 0 72 72" xmlns="http://www.w3.org/2000/svg" xmlns:xlink="http://www.w3.org/1999/xlink"><linearGradient id="a"><stop offset=".2087" stop-color="#621817"/><stop offset="1" stop-color="#a91437"/></linearGradient><linearGradient id="b" gradientUnits="userSpaceOnUse" x1="36" x2="36" xlink:href="#a" y1="59.0215" y2="41.4077"/><linearGradient id="c" gradientUnits="userSpaceOnUse" x1="36" x2="36" xlink:href="#a" y1="50.2146" y2="41.4077"/><linearGradient id="d" gradientUnits="userSpaceOnUse" x1="36" x2="36" xlink:href="#a" y1="39.1413" y2="12.9785"/><path d="m0 13h72v46h-72z"/><path d="m0 59 24.6-17.6h22.4l25 17.6z" fill="url(#b)"/><path d="m24.8 41.4 10.6 8.8 11.8-8.8z" fill="url(#c)"/><path d="m10.9 20.4s-6.6 11.8 7 19c0 0 7.8 4.1 15.6-2.6z" fill="#fff"/><circle cx="25.7" cy="31.9" fill="#195994" r="3.9"/><circle cx="26" cy="33.3" r="1.5"/><path d="m61.1 20.4s6.6 11.8-7 19c0 0-7.8 4.1-15.6-2.6z" fill="#fff"/><circle cx="46.3" cy="31.9" fill="#195994" r="3.9"/><circle cx="46" cy="33.3" r="1.5"/><path d="m0 13 35.4 26.1 36.6-26.1z" fill="url(#d)"/></svg>