<?xml version="1.0" encoding="utf-8"?>
<!-- Generator: Adobe Illustrator 27.9.0, SVG Export Plug-In . SVG Version: 6.00 Build 0)  -->
<svg version="1.1" id="Layer_1" xmlns="http://www.w3.org/2000/svg" xmlns:xlink="http://www.w3.org/1999/xlink" x="0px" y="0px"
	 viewBox="0 0 100 100" style="enable-background:new 0 0 100 100;" xml:space="preserve">
<style type="text/css">
	.st0{fill:#12365A;}
</style>
<g>
	<g>
		<g>
			<path class="st0" d="M13.4,62.4c0-3.3,2.3-6,5.3-6c2.1,0,3.2,1,4,1.7l-0.4,0.6c-0.8-0.8-1.8-1.6-3.6-1.6c-2.6,0-4.6,2.3-4.6,5.3
				s1.8,5.1,4.7,5.1c2,0,3.3-1.2,3.9-2l0.4,0.5c-0.6,0.8-2,2.2-4.3,2.2C15.4,68.2,13.4,65.7,13.4,62.4z"/>
			<path class="st0" d="M18.8,68.3c-3.3,0-5.5-2.4-5.5-5.9c0-3.4,2.4-6.1,5.4-6.1c2.1,0,3.2,1,4,1.7l0.1,0.1l-0.5,0.8l-0.1-0.1
				c-0.8-0.8-1.7-1.6-3.5-1.6c-2.6,0-4.5,2.2-4.5,5.2c0,3,1.8,5,4.6,5c2.1,0,3.4-1.4,3.8-2l0.1-0.1l0.6,0.7l-0.1,0.1
				C22.7,66.8,21.2,68.3,18.8,68.3z M18.7,56.5c-2.9,0-5.2,2.6-5.2,5.9c0,3.4,2.1,5.7,5.3,5.7c2.2,0,3.6-1.4,4.1-2.1l-0.2-0.3
				c-0.5,0.7-1.8,1.9-3.9,1.9c-2.9,0-4.8-2.1-4.8-5.2c0-3,2.1-5.4,4.7-5.4c1.7,0,2.7,0.7,3.6,1.5l0.3-0.4
				C21.8,57.4,20.7,56.5,18.7,56.5z"/>
		</g>
		<g>
			<polygon class="st0" points="66.4,67.3 66.4,68 59.1,68 59.1,59 59.8,59.9 59.8,61.7 65.7,61.7 65.7,62.4 59.8,62.4 59.8,67.3 
							"/>
			<path class="st0" d="M66.5,68.1H59v-9.5l1,1.2v1.7h5.9v1h-5.9v4.6h6.6V68.1z M59.2,67.9h7.1v-0.5h-6.6v-5.1h5.9v-0.5h-5.9v-1.9
				l-0.5-0.6V67.9z"/>
		</g>
		<g>
			<g>
				<path class="st0" d="M69.5,63.1h2.7c2.2,0,3.2-1.1,3.2-3c0-1.6-0.9-2.9-3.4-2.9h-2.5h-0.7v-0.7H72c2.8,0,4.1,1.6,4.1,3.6
					c0,2.3-1.3,3.6-3.9,3.6h-2.7v4.2h-0.7v-9l0.7,0.9L69.5,63.1"/>
				<path class="st0" d="M69.6,68h-1v-9.5l1,1.2V63h2.6c2,0,3.1-1,3.1-2.9c0-1.3-0.6-2.8-3.3-2.8h-3.3v-1H72c2.6,0,4.2,1.4,4.2,3.7
					c0,2.4-1.4,3.7-4,3.7h-2.6V68z M68.9,67.8h0.5v-4.2h2.8c2.5,0,3.8-1.2,3.8-3.5c0-2.2-1.5-3.5-4-3.5h-3.1v0.5H72
					c3.1,0,3.5,1.9,3.5,3c0,2-1.1,3.1-3.3,3.1h-2.8v-3.4l-0.5-0.6V67.8z"/>
			</g>
			<g>
				<path class="st0" d="M47.2,62.3c0-3.3,2.3-6,5.4-6c2.2,0,3.3,1,4,1.7l-0.4,0.6c-0.8-0.8-1.8-1.6-3.6-1.6C50,57,48,59.3,48,62.3
					c0,2.9,1.8,5.1,4.7,5.1c2,0,3.3-1.2,3.9-2l0.4,0.5c-0.6,0.8-2,2.2-4.3,2.2C49.2,68.1,47.2,65.6,47.2,62.3z"/>
				<path class="st0" d="M52.7,68.2c-3.4,0-5.6-2.4-5.6-5.9c0-3.4,2.4-6.1,5.5-6.1c2.4,0,3.5,1.1,4.1,1.7l0.1,0.1l-0.5,0.8l-0.1-0.1
					c-0.8-0.8-1.7-1.6-3.5-1.6c-2.6,0-4.5,2.2-4.5,5.2c0,3,1.8,5,4.6,5c2.1,0,3.4-1.4,3.8-2l0.1-0.1l0.6,0.7L57.1,66
					C56.6,66.7,55.1,68.2,52.7,68.2z M52.6,56.4c-3,0-5.3,2.6-5.3,5.9c0,3.4,2.1,5.7,5.4,5.7c2.2,0,3.6-1.4,4.1-2.1l-0.2-0.3
					c-0.5,0.7-1.8,1.9-3.9,1.9c-2.8,0-4.8-2.1-4.8-5.2c0-3,2.1-5.4,4.7-5.4c1.7,0,2.8,0.7,3.6,1.5l0.3-0.4
					C55.8,57.4,54.8,56.4,52.6,56.4z"/>
			</g>
			<g>
				<rect x="59.1" y="56.5" class="st0" width="7.1" height="0.7"/>
				<path class="st0" d="M66.3,57.3H59v-1h7.4V57.3z M59.2,57.1h6.9v-0.5h-6.9V57.1z"/>
			</g>
			<g>
				<polygon class="st0" points="37.1,56.6 44.5,66.8 44.5,56.6 45.1,56.6 45.1,68 44.5,68 37.1,57.8 36.5,56.9 36.5,56.6 				"/>
				<path class="st0" d="M45.2,68.1h-0.8l0-0.1L37,57.9l-0.6-0.9v-0.5h0.8l0,0.1l7.2,9.9v-9.9h0.9V68.1z M44.6,67.9H45V56.7h-0.4
					v10.5L37,56.7h-0.4v0.1l0.6,0.9L44.6,67.9z"/>
			</g>
			<g>
				<polygon class="st0" points="76.9,56.5 86.5,56.5 86.5,57.2 76.9,57.2 				"/>
				<path class="st0" d="M86.6,57.3h-9.8v-1h9.8V57.3z M77,57.1h9.3v-0.5H77V57.1z"/>
			</g>
		</g>
		<g>
			<path class="st0" d="M34.6,62.1c0,3.4-2.2,5.9-5.4,5.9c-3,0-5.4-2.4-5.4-5.9c0-3.3,2.4-5.8,5.4-5.8
				C32.3,56.3,34.6,58.8,34.6,62.1z M24.7,62.1c0,3.2,2,5.2,4.7,5.2s4.7-2.1,4.7-5.2c0-3-2-5.1-4.7-5.1C26.7,57,24.7,59.2,24.7,62.1
				z"/>
			<path class="st0" d="M29.2,68.1c-3.1,0-5.5-2.6-5.5-6c0-3.3,2.4-5.9,5.5-5.9c3.1,0,5.5,2.5,5.5,5.9
				C34.7,65.6,32.4,68.1,29.2,68.1z M29.2,56.4c-3,0-5.3,2.5-5.3,5.7c0,3.3,2.2,5.8,5.3,5.8c3.1,0,5.3-2.4,5.3-5.8
				C34.5,58.9,32.2,56.4,29.2,56.4z M29.4,67.4c-2.9,0-4.8-2.1-4.8-5.3c0-3,2.1-5.2,4.8-5.2c2.8,0,4.8,2.2,4.8,5.2
				C34.2,65.2,32.2,67.4,29.4,67.4z M29.4,57.1c-2.6,0-4.6,2.1-4.6,5c0,3,1.8,5.1,4.6,5.1c2.7,0,4.6-2.1,4.6-5.1
				C34,59.2,32.1,57.1,29.4,57.1z"/>
		</g>
		<g>
			<polygon class="st0" points="36.5,59 37,60 37,68 36.5,68 			"/>
			<path class="st0" d="M37.1,68.1h-0.8v-9.7l0.8,1.5V68.1z M36.6,67.9h0.2V60l-0.2-0.5V67.9z"/>
		</g>
		<g>
			<polygon class="st0" points="81.4,59 82,59.9 82,68 81.4,68 			"/>
			<path class="st0" d="M82.1,68.1h-0.8v-9.5l0.8,1.3V68.1z M81.5,67.9h0.3v-7.9l-0.3-0.5V67.9z"/>
		</g>
	</g>
	<g>
		<path class="st0" d="M64,31.8v21.1h-4V31.8H64z"/>
		<polygon class="st0" points="36.8,53 41.2,53 47,36.6 47.1,36.6 50,44.8 46.6,44.8 45.5,48.1 51.1,48.1 53,53 57.3,53 49.1,31.8 
			45,31.8 		"/>
		<polygon class="st0" points="72.6,43.1 72.6,53 68.5,53 68.5,37.7 		"/>
		<polygon class="st0" points="68.5,33.4 82.8,53 86.6,53 86.6,31.8 82.5,31.8 82.5,45.6 72.4,31.8 68.5,31.8 		"/>
		<polygon class="st0" points="23.5,49.4 24.2,49.4 30.2,38.4 30.2,53 34.3,53 34.3,31.8 30,31.8 24,42.7 23.8,42.7 17.7,31.8 
			13.4,31.8 13.4,53 17.5,53 17.5,38.4 		"/>
	</g>
</g>
</svg>
