<svg enable-background="new 0 0 243.6999969 243.6999969" viewBox="0 0 243.6999969 243.6999969" xmlns="http://www.w3.org/2000/svg" xmlns:xlink="http://www.w3.org/1999/xlink"><linearGradient id="a" gradientTransform="matrix(1 0 0 -1 2 245)" gradientUnits="userSpaceOnUse" x1="119.849999" x2="119.849999" y1="245.000015" y2="1.300032"><stop offset="0" stop-color="#6364ff"/><stop offset="1" stop-color="#563acc"/></linearGradient><path d="m235.2789001 53.9529419c-3.5227814-26.1845665-26.3443604-46.8197784-53.3973236-50.8183517-4.5643158-.6756568-21.8572693-3.1346061-61.9163284-3.1346061h-.2991867c-40.0702972 0-48.6669083 2.4589493-53.2312241 3.1346061-26.2998199 3.8877816-50.3175144 22.4296112-56.1446962 48.9242362-2.8028026 13.0480843-3.1019158 27.5137444-2.5812368 40.7830239.7422457 19.0292358.886261 38.0250931 2.6144733 56.9767227 1.1947603 12.5887909 3.2789965 25.0771027 6.2370663 37.3715973 5.5391541 22.7064667 27.9615898 41.6026001 49.929882 49.3117828 23.5200577 8.0394897 48.8142548 9.3741913 73.0500488 3.8545837 2.6660767-.6201324 5.2991638-1.3399658 7.89888-2.1599274 5.8934174-1.8716125 12.7953796-3.9651947 17.8692169-7.6424561.0697479-.0517273.1267242-.118454.1668396-.1949463.0404816-.0768585.0629883-.1615906.0659943-.2481995v-18.364502c-.0015106-.0809784-.0206299-.1604462-.0566101-.2331848-.0359955-.0723572-.0877533-.1361084-.151474-.1859589-.0637512-.049881-.13797-.0847473-.2170868-.1023712-.0787354-.0176086-.1608429-.0172424-.2395782.0007629-15.5278168 3.708725-31.4395599 5.5675964-47.4041672 5.5383606-27.4740067 0-34.8633652-13.0368195-36.9790573-18.4642181-1.7010269-4.6906586-2.7811737-9.5838013-3.2127151-14.5545197-.0045013-.0832367.0108643-.1668549.0446167-.2433167.0337448-.0761261.0851059-.1436005.149971-.1964722.0648575-.0528717.1409683-.0899811.222702-.107605.0817337-.0179901.1664658-.0161133.2474442.0048828 15.2687531 3.6832428 30.921051 5.5421143 46.6284561 5.5379944 3.777359 0 7.5442047 0 11.3219299-.0997314 15.7973938-.443161 32.4481201-1.2514954 47.9909363-4.2865143.3876648-.0775909.7757111-.1439667 1.1078949-.2436829 24.5162354-4.70755 47.8469696-19.4832764 50.2179718-56.8991165.0884857-1.4730682.3100586-15.4292068.3100586-16.9577713.0108795-5.1949383 1.6728973-36.8512112-.2436982-56.3011013z" fill="url(#a)"/><path d="m196.4383392 83.371666v65.051445h-25.7789612v-63.1352082c0-13.2917786-5.5391235-20.0703964-16.8059387-20.0703964-12.3855896 0-18.589447 8.0192337-18.589447 23.8586197v34.5581741h-25.6237488v-34.5581741c0-15.839386-6.2151108-23.8586197-18.6006927-23.8586197-11.2000809 0-16.794693 6.7786179-16.794693 20.0703964v63.1352081h-25.7680969v-65.0514449c0-13.2917786 3.3938065-23.8511162 10.1810417-31.6783905 7.0016899-7.8088989 16.1854362-11.8183289 27.58498-11.8183289 13.1942978 0 23.1646271 5.0727119 29.8116455 15.2076378l6.4141922 10.7662926 6.4254227-10.7662926c6.6470184-10.1349258 16.6173553-15.2076378 29.7895355-15.2076378 11.3886719 0 20.5724182 4.0094299 27.5958557 11.8183289 6.7801056 7.8197746 10.1664124 18.379486 10.158905 31.6783905z" fill="#fff"/></svg>