<svg enable-background="new 0 0 385.5 65.2" viewBox="0 0 385.5 65.2" xmlns="http://www.w3.org/2000/svg"><g stroke-width=".2651667"><path d="m2.46169778153 2.78466573034h11.34913476v11.34913476h-11.34913476z" fill="#fad744"/><path d="m2.46169778153 18.69466773033h11.34913476v11.34913476h-11.34913476z" fill="#77c8a6"/><path d="m2.38214777153 34.60466973033h11.34913476v11.34913476h-11.34913476z" fill="#136664"/><path d="m2.30259776153 50.46163839034h11.34913476v11.34913476h-11.34913476z" fill="#2e8bc4"/></g><path d="m146.6 21c0-10.1 7.1-18.2 16.2-18.2 6.5 0 9.8 2.9 12 5.1l-1.2 1.8c-2.3-2.3-5.5-4.8-10.9-4.8-8 0-14 7.1-14 16s5.3 15.6 14.1 15.6c6.2 0 10-3.8 11.9-6l1.2 1.7c-1.7 2.3-6 6.5-13.1 6.5-10.2-.1-16.2-7.7-16.2-17.7zm141.1-2.1h17.7v2.2h-17.7v14.7h19.6v2.2h-21.6v-27.2l2 2.7zm29.1 4.4h8.3c6.6 0 9.8-3.2 9.8-8.9 0-4.9-2.7-8.9-10.3-8.9h-9.8v-2.3h9.8c8.6 0 12.5 4.8 12.5 11 0 7.1-4 11-12 11h-8.2v12.8h-2.1v-27.3l2.1 2.9v9.7zm-67.4-2.6c0-10.1 7.1-18.2 16.4-18.2 6.6 0 9.9 2.9 12.1 5.1l-1.2 1.8c-2.3-2.3-5.6-4.8-11-4.8-8.1 0-14.1 7.1-14.1 16s5.4 15.5 14.4 15.5c6.2 0 10.1-3.8 12-6l1.2 1.7c-1.7 2.3-6.1 6.5-13.2 6.5-10.5 0-16.6-7.6-16.6-17.6zm36.2-17.5h21.7v2.2h-21.7zm-44.6 31.3v-31.2h2v34.7h-2l-24.5-33.9v-.8h2.1zm98.3-29.2v-2.1h29.2v2.1zm-128 14.9c0 10.4-6.7 18-16.3 18-9.2 0-16.3-7.2-16.3-18 0-10.1 7.1-17.7 16.3-17.7s16.3 7.6 16.3 17.7zm-30.6 0c0 9.8 6.2 15.9 14.1 15.9 8.3 0 14.1-6.5 14.1-15.9 0-8.9-6.1-15.7-14.1-15.6-7.9 0-14.1 6.7-14.1 15.6zm35.8 17.8v-27.3l2 2.9v24.4zm136.4 0v-27.3l2.1 2.9v24.4zm-249.1-34.6v34.6h-6.6v-34.6zm-20.7 26.5 2.8 8h7.2l-13.3-34.5h-6.8l-13.4 34.6h7.2l9.4-26.8h.2l4.7 13.5-5.6-.1-1.7 5.4h9.3zm28.2-16.9 6.6 8.9v16.1h-6.6zm0-9.6v2.7l23.3 31.9h6.2v-34.5h-6.7v22.5l-16.5-22.6zm-83.4 10.7 9.8 18h1.3l9.9-18.1v24h6.6v-34.6h-7l-10.1 17.8h-.1l-10.1-17.8h-6.9v34.6h6.6zm348.5-10.3h-1.3v-.5h3.2v.5h-1.4v3.8h-.5zm5.9 1.8c0-.6-.1-1.3-.1-1.8-.2.5-.3 1.1-.5 1.7l-.7 2.1h-.4l-.7-2c-.2-.6-.4-1.1-.5-1.7 0 .5-.1 1.3-.1 1.9l-.2 1.8h-.5l.3-4.3h.7l.8 2c.2.5.3 1 .5 1.4.1-.5.2-.9.5-1.4l.8-2h.7l.2 4.3h-.5zm-351.2 55.5h-9.8v-2c.7-.6 1.4-1.2 2.1-1.8s1.3-1.2 1.9-1.7c1.2-1.2 2.1-2.2 2.6-2.9s.7-1.5.7-2.3-.3-1.3-.8-1.8c-.5-.4-1.2-.6-2.1-.6-.6 0-1.2.1-1.9.3s-1.4.5-2 1h-.1v-2.1c.5-.2 1.1-.4 1.8-.6.8-.2 1.5-.3 2.2-.3 1.5 0 2.7.4 3.5 1.1s1.3 1.7 1.3 2.9c0 .6-.1 1.1-.2 1.6s-.3.9-.6 1.4c-.3.4-.6.8-.9 1.2s-.8.8-1.2 1.3c-.7.7-1.4 1.3-2.2 2-.7.6-1.4 1.2-2.1 1.8h7.8zm15.4-1c-.8.4-1.7.7-2.6 1s-1.8.4-2.7.4c-1.1 0-2.2-.2-3.1-.5s-1.7-.8-2.4-1.4-1.2-1.4-1.6-2.4-.5-2.1-.5-3.3c0-2.3.7-4.2 2-5.5 1.4-1.3 3.2-2 5.6-2 .8 0 1.7.1 2.5.3.9.2 1.8.5 2.8 1v2.3h-.2c-.2-.2-.5-.4-.9-.6-.4-.3-.8-.5-1.1-.6-.4-.2-1-.4-1.5-.5-.6-.3-1.3-.3-2-.3-1.6 0-2.9.5-3.9 1.6-.9 1-1.4 2.5-1.4 4.2 0 1.9.5 3.3 1.5 4.4 1 1 2.3 1.6 4 1.6.6 0 1.2-.1 1.9-.2.6-.1 1.2-.3 1.6-.5v-3.6h-3.9v-1.7h5.8v6.3zm14.2-11.8c.6.6 1 1.4 1.4 2.4.3.9.5 2 .5 3.2s-.2 2.3-.5 3.2-.8 1.7-1.3 2.4c-.6.7-1.3 1.2-2.1 1.5s-1.7.5-2.8.5c-1 0-2-.2-2.8-.5s-1.5-.8-2.1-1.5-1-1.4-1.4-2.4c-.3-.9-.5-2-.5-3.2s.2-2.2.5-3.2c.3-.9.8-1.8 1.4-2.4s1.3-1.1 2.1-1.5c.9-.3 1.8-.5 2.8-.5s2 .2 2.8.5c.7.3 1.4.8 2 1.5zm-.2 5.6c0-1.9-.4-3.3-1.3-4.4-.8-1-2-1.5-3.5-1.5s-2.6.5-3.5 1.5c-.8 1-1.3 2.5-1.3 4.4s.4 3.4 1.3 4.4 2 1.5 3.5 1.5c1.4 0 2.6-.5 3.4-1.5 1-1.1 1.4-2.5 1.4-4.4zm21.6-2.9c0 .6-.1 1.2-.3 1.8-.2.5-.5 1-.9 1.4-.5.5-1.1.9-1.8 1.1-.7.3-1.5.4-2.6.4h-1.9v5.4h-1.9v-14.5h3.9c.9 0 1.6.1 2.2.2s1.1.4 1.6.7c.6.4 1 .8 1.3 1.4.3.5.4 1.2.4 2.1zm-2 0c0-.5-.1-.9-.3-1.3s-.4-.7-.8-.9c-.3-.2-.7-.3-1.1-.4s-.9-.1-1.5-.1h-1.9v5.8h1.6c.8 0 1.4-.1 1.9-.2s.9-.4 1.2-.7.5-.6.6-1c.3-.4.3-.7.3-1.2zm14.1 10.1h-9.8v-2c.7-.6 1.4-1.2 2.1-1.8s1.3-1.2 1.9-1.7c1.2-1.2 2.1-2.2 2.6-2.9s.7-1.5.7-2.3-.3-1.3-.8-1.8c-.5-.4-1.2-.6-2.1-.6-.6 0-1.2.1-1.9.3s-1.4.5-2 1h-.1v-2.1c.5-.2 1.1-.4 1.8-.6.8-.2 1.5-.3 2.2-.3 1.5 0 2.7.4 3.5 1.1s1.3 1.7 1.3 2.9c0 .6-.1 1.1-.2 1.6s-.3.9-.6 1.4c-.3.4-.6.8-.9 1.2s-.8.8-1.2 1.3c-.7.7-1.4 1.3-2.2 2-.7.6-1.4 1.2-2.1 1.8h7.8zm21.7 0h-2.1l-1.4-4.1h-6.3l-1.4 4.1h-2l5.3-14.5h2.6zm-4.1-5.7-2.5-7.1-2.6 7.1zm17.2-8.8-5.3 14.5h-2.6l-5.3-14.5h2.1l4.6 12.8 4.6-12.8zm13.4 13.5c-.4.2-.7.3-1 .4s-.7.3-1.1.4-.8.2-1.3.3-1 .1-1.5.1c-1.1 0-2-.1-2.9-.4s-1.6-.8-2.2-1.4-1.1-1.4-1.5-2.4-.5-2.1-.5-3.3.2-2.3.5-3.2.8-1.7 1.5-2.4c.6-.6 1.4-1.1 2.2-1.4.9-.3 1.9-.5 2.9-.5.8 0 1.6.1 2.3.3.8.2 1.6.5 2.6 1v2.3h-.1c-.8-.7-1.6-1.2-2.4-1.5s-1.6-.5-2.5-.5c-.7 0-1.4.1-2 .4-.6.2-1.1.6-1.6 1.1-.4.5-.8 1.1-1.1 1.9-.2.7-.4 1.6-.4 2.6s.1 1.9.4 2.6.6 1.3 1.1 1.8 1 .8 1.6 1.1c.6.2 1.3.3 1.9.3.9 0 1.8-.2 2.6-.5s1.6-.8 2.3-1.4h.1v2.3zm20.7-4.8c0 1.1-.1 2-.4 2.8-.2.8-.6 1.4-1.1 2-.5.5-1.1.9-1.8 1.1s-1.5.3-2.3.3c-.9 0-1.7-.1-2.4-.4-.7-.2-1.2-.6-1.7-1.1s-.9-1.2-1.1-1.9c-.2-.8-.3-1.7-.3-2.8v-8.7h1.9v8.8c0 .8 0 1.4.2 1.9.1.5.3.9.5 1.2.3.4.7.7 1.2 1 .5.2 1.1.3 1.8.3s1.3-.1 1.8-.3.9-.5 1.2-1c.3-.4.4-.8.5-1.3s.2-1.1.2-1.8v-8.8h1.9v8.7zm12.9 5.8h-9.2v-14.5h1.9v12.8h7.3zm10.7-12.8h-5.2v12.8h-1.9v-12.8h-5.2v-1.7h12.3zm14 12.8h-2.5l-4.9-5.8h-2.7v5.8h-1.9v-14.5h4.1c.9 0 1.6.1 2.2.2s1.1.3 1.6.6.9.8 1.2 1.3.4 1.1.4 1.9c0 1-.3 1.9-.8 2.6s-1.3 1.2-2.2 1.6zm-4.6-10.4c0-.4-.1-.8-.2-1.1s-.4-.6-.7-.8-.6-.3-1-.4-.8-.1-1.4-.1h-2.3v5.5h2c.6 0 1.1 0 1.6-.2.5-.1.8-.3 1.2-.6.3-.3.5-.6.6-.9.2-.4.2-.9.2-1.4zm17.9 10.4h-2.1l-1.4-4.1h-6.3l-1.4 4.1h-2l5.3-14.5h2.6zm-4.1-5.7-2.5-7.1-2.6 7.1zm23.7-7.1h-5.2v12.8h-1.9v-12.8h-5.2v-1.7h12.3zm14 12.8h-2.5l-4.9-5.8h-2.7v5.8h-1.9v-14.5h4.1c.9 0 1.6.1 2.2.2s1.1.3 1.6.6.9.8 1.2 1.3.4 1.1.4 1.9c0 1-.3 1.9-.8 2.6s-1.3 1.2-2.2 1.6zm-4.5-10.4c0-.4-.1-.8-.2-1.1s-.4-.6-.7-.8-.6-.3-1-.4-.8-.1-1.4-.1h-2.3v5.5h2c.6 0 1.1 0 1.6-.2.5-.1.8-.3 1.2-.6.3-.3.5-.6.6-.9.1-.4.2-.9.2-1.4zm17.8 10.4h-2.1l-1.4-4.1h-6.3l-1.4 4.1h-2l5.3-14.5h2.6zm-4-5.7-2.5-7.1-2.6 7.1zm17.3 5.7h-2.4l-6.9-13v13h-1.8v-14.5h3l6.3 11.9v-11.9h1.8zm14.5-4.1c0 .6-.1 1.1-.4 1.7s-.6 1-1.1 1.4-1.1.7-1.8 1c-.7.2-1.5.4-2.5.4s-2-.1-2.8-.3-1.7-.5-2.5-.9v-2.4h.1c.7.6 1.6 1.1 2.5 1.4 1 .3 1.9.5 2.7.5 1.2 0 2.1-.2 2.8-.7s1-1 1-1.8c0-.6-.2-1.1-.5-1.4s-.8-.5-1.4-.7c-.5-.1-1-.2-1.6-.3s-1.2-.2-1.8-.3c-1.3-.3-2.2-.7-2.9-1.4-.6-.7-.9-1.5-.9-2.6 0-1.2.5-2.2 1.5-3s2.3-1.2 3.9-1.2c1 0 2 .1 2.8.3.9.2 1.6.4 2.3.7v2.3h-.1c-.6-.5-1.3-.9-2.2-1.2s-1.8-.5-2.8-.5-1.9.2-2.5.6-.9 1-.9 1.7c0 .6.2 1.1.5 1.4s.9.6 1.7.8c.4.1 1 .2 1.8.3s1.4.3 2 .4c1.1.3 1.9.7 2.4 1.3.4.6.7 1.4.7 2.5zm14.3 3.1c-.4.2-.7.3-1 .4s-.7.3-1.1.4-.8.2-1.3.3-1 .1-1.5.1c-1.1 0-2-.1-2.9-.4s-1.6-.8-2.2-1.4-1.1-1.4-1.5-2.4-.5-2.1-.5-3.3.2-2.3.5-3.2.8-1.7 1.5-2.4c.6-.6 1.4-1.1 2.2-1.4.9-.3 1.9-.5 2.9-.5.8 0 1.6.1 2.3.3.8.2 1.6.5 2.6 1v2.3h-.1c-.8-.7-1.6-1.2-2.4-1.5s-1.6-.5-2.5-.5c-.7 0-1.4.1-2 .4-.6.2-1.1.6-1.6 1.1-.4.5-.8 1.1-1.1 1.9-.2.7-.4 1.6-.4 2.6s.1 1.9.4 2.6.6 1.3 1.1 1.8 1 .8 1.6 1.1c.6.2 1.3.3 1.9.3.9 0 1.8-.2 2.6-.5s1.6-.8 2.3-1.4h.1v2.3zm13.6-11.8c.6.6 1 1.4 1.4 2.4.3.9.5 2 .5 3.2s-.2 2.3-.5 3.2-.8 1.7-1.3 2.4c-.6.7-1.3 1.2-2.1 1.5s-1.7.5-2.8.5c-1 0-2-.2-2.8-.5s-1.5-.8-2.1-1.5-1-1.4-1.4-2.4c-.3-.9-.5-2-.5-3.2s.2-2.2.5-3.2c.3-.9.8-1.8 1.4-2.4s1.3-1.1 2.1-1.5c.9-.3 1.8-.5 2.8-.5s2 .2 2.8.5c.7.3 1.4.8 2 1.5zm-.2 5.6c0-1.9-.4-3.3-1.3-4.4-.8-1-2-1.5-3.5-1.5s-2.6.5-3.5 1.5c-.8 1-1.3 2.5-1.3 4.4s.4 3.4 1.3 4.4 2 1.5 3.5 1.5c1.4 0 2.6-.5 3.4-1.5 1-1.1 1.4-2.5 1.4-4.4zm17.4 0c0 1.3-.3 2.5-.9 3.6s-1.3 1.9-2.3 2.5c-.7.4-1.4.7-2.2.9s-1.9.3-3.2.3h-3.7v-14.6h3.6c1.4 0 2.5.1 3.4.3.8.2 1.6.5 2.1.8 1 .6 1.8 1.4 2.3 2.5.6 1 .9 2.3.9 3.7zm-2.1-.1c0-1.1-.2-2.1-.6-2.9s-1-1.4-1.8-1.8c-.6-.3-1.2-.5-1.8-.7-.6-.1-1.4-.2-2.3-.2h-1.8v11.2h1.8c.9 0 1.7-.1 2.4-.2s1.3-.4 1.9-.8c.7-.5 1.3-1.1 1.6-1.8.5-.7.6-1.6.6-2.8zm14.8 7.3h-9.6v-14.5h9.6v1.7h-7.6v4h7.6v1.7h-7.6v5.4h7.6zm15.1 0h-2.5l-4.9-5.8h-2.7v5.8h-1.9v-14.5h4.1c.9 0 1.6.1 2.2.2s1.1.3 1.6.6.9.8 1.2 1.3.4 1.1.4 1.9c0 1-.3 1.9-.8 2.6s-1.3 1.2-2.2 1.6zm-4.5-10.4c0-.4-.1-.8-.2-1.1s-.4-.6-.7-.8-.6-.3-1-.4-.8-.1-1.4-.1h-2.3v5.5h2c.6 0 1.1 0 1.6-.2.5-.1.8-.3 1.2-.6.3-.3.5-.6.6-.9.1-.4.2-.9.2-1.4z" fill="#12365a"/></svg>