<svg enable-background="new 0 0 385.5 65.2" viewBox="0 0 385.5 65.2" xmlns="http://www.w3.org/2000/svg"><path d="m2.5 2.8h11.3v11.3h-11.3z" fill="#fad744"/><path d="m2.5 18.7h11.3v11.3h-11.3z" fill="#77c8a6"/><path d="m2.4 34.6h11.3v11.3h-11.3z" fill="#136664"/><path d="m2.3 50.5h11.3v11.3h-11.3z" fill="#2e8bc4"/><path d="m146.6 21c0-10.1 7.1-18.2 16.2-18.2 6.5 0 9.8 2.9 12 5.1l-1.2 1.8c-2.3-2.3-5.5-4.8-10.9-4.8-8 0-14 7.1-14 16s5.3 15.6 14.1 15.6c6.2 0 10-3.8 11.9-6l1.2 1.7c-1.7 2.3-6 6.5-13.1 6.5-10.2-.1-16.2-7.7-16.2-17.7zm141.1-2.1h17.7v2.2h-17.7v14.7h19.6v2.2h-21.6v-27.2l2 2.7zm29.1 4.4h8.3c6.6 0 9.8-3.2 9.8-8.9 0-4.9-2.7-8.9-10.3-8.9h-9.8v-2.3h9.8c8.6 0 12.5 4.8 12.5 11 0 7.1-4 11-12 11h-8.2v12.8h-2.1v-27.3l2.1 2.9zm-67.4-2.6c0-10.1 7.1-18.2 16.4-18.2 6.6 0 9.9 2.9 12.1 5.1l-1.2 1.8c-2.3-2.3-5.6-4.8-11-4.8-8.1 0-14.1 7.1-14.1 16s5.4 15.5 14.4 15.5c6.2 0 10.1-3.8 12-6l1.2 1.7c-1.7 2.3-6.1 6.5-13.2 6.5-10.5 0-16.6-7.6-16.6-17.6zm36.2-17.5h21.7v2.2h-21.7zm-44.6 31.3v-31.2h2v34.7h-2l-24.5-33.9v-.8h2.1zm98.3-29.2v-2.1h29.2v2.1zm-128 14.9c0 10.4-6.7 18-16.3 18-9.2 0-16.3-7.2-16.3-18 0-10.1 7.1-17.7 16.3-17.7s16.3 7.6 16.3 17.7zm-30.6 0c0 9.8 6.2 15.9 14.1 15.9 8.3 0 14.1-6.5 14.1-15.9 0-8.9-6.1-15.7-14.1-15.6-7.9 0-14.1 6.7-14.1 15.6zm35.8 17.8v-27.3l2 2.9v24.4zm136.4 0v-27.3l2.1 2.9v24.4zm-249.1-34.6v34.6h-6.6v-34.6zm-20.7 26.5 2.8 8h7.2l-13.3-34.5h-6.8l-13.4 34.6h7.2l9.4-26.8h.2l4.7 13.5-5.6-.1-1.7 5.4h9.3zm28.2-16.9 6.6 8.9v16.1h-6.6zm0-9.6v2.7l23.3 31.9h6.2v-34.5h-6.7v22.5l-16.5-22.6zm-83.4 10.7 9.8 18h1.3l9.9-18.1v24h6.6v-34.6h-7l-10.1 17.8h-.1l-10.1-17.8h-6.9v34.6h6.6zm348.5-10.3h-1.3v-.5h3.2v.5h-1.4v3.8h-.5zm5.9 1.8c0-.6-.1-1.3-.1-1.8-.2.5-.3 1.1-.5 1.7l-.7 2.1h-.4l-.7-2c-.2-.6-.4-1.1-.5-1.7 0 .5-.1 1.3-.1 1.9l-.2 1.8h-.5l.3-4.3h.7l.8 2c.2.5.3 1 .5 1.4.1-.5.2-.9.5-1.4l.8-2h.7l.2 4.3h-.5zm-349.4 56.3h-11.8v-2.4c.8-.7 1.6-1.4 2.5-2.1.8-.7 1.6-1.4 2.3-2.1 1.5-1.5 2.5-2.6 3.1-3.5s.8-1.8.8-2.8c0-.9-.3-1.6-.9-2.1s-1.4-.8-2.5-.8c-.7 0-1.5.1-2.3.4-.8.2-1.6.6-2.4 1.1h-.1v-2.5c.6-.3 1.3-.5 2.2-.8.9-.2 1.8-.3 2.7-.3 1.8 0 3.2.4 4.2 1.3s1.5 2 1.5 3.5c0 .7-.1 1.3-.3 1.9s-.4 1.1-.7 1.6-.7 1-1.1 1.4c-.4.5-.9 1-1.5 1.6-.8.8-1.7 1.6-2.6 2.4s-1.7 1.5-2.5 2.1h9.4zm18.5-1.3c-1 .4-2 .8-3.1 1.1s-2.2.5-3.3.5c-1.4 0-2.6-.2-3.7-.6s-2.1-.9-2.9-1.7-1.4-1.7-1.9-2.8c-.4-1.1-.7-2.5-.7-4 0-2.8.8-5 2.4-6.6s3.9-2.4 6.7-2.4c1 0 2 .1 3 .4 1 .2 2.2.6 3.4 1.2v2.8h-.2c-.2-.2-.6-.4-1.1-.7s-.9-.6-1.4-.8-1.2-.4-1.8-.6c-.7-.2-1.5-.2-2.3-.2-2 0-3.5.6-4.6 1.9-1.1 1.2-1.7 2.9-1.7 5.1 0 2.3.6 4 1.8 5.3s2.8 1.9 4.9 1.9c.8 0 1.5-.1 2.2-.2s1.4-.3 2-.6v-4.3h-4.7v-2h7zm17.1-14.1c.7.8 1.3 1.7 1.6 2.9.4 1.1.6 2.4.6 3.9 0 1.4-.2 2.7-.6 3.9-.4 1.1-.9 2.1-1.6 2.8-.7.8-1.6 1.4-2.6 1.8s-2.1.6-3.4.6c-1.2 0-2.3-.2-3.4-.6-1-.4-1.9-1-2.6-1.8s-1.2-1.7-1.6-2.8-.6-2.4-.6-3.9c0-1.4.2-2.7.6-3.8s.9-2.1 1.6-2.9 1.5-1.4 2.6-1.8c1-.4 2.1-.6 3.3-.6 1.3 0 2.4.2 3.4.6 1.1.4 2 .9 2.7 1.7zm-.3 6.7c0-2.3-.5-4-1.5-5.2s-2.4-1.9-4.2-1.9-3.2.6-4.2 1.9c-1 1.2-1.5 3-1.5 5.2 0 2.3.5 4 1.5 5.3 1 1.2 2.4 1.8 4.1 1.8s3.1-.6 4.1-1.8c1.2-1.2 1.7-3 1.7-5.3zm27.9-8.7-6 8.6 6 8.8h-2.7l-4.8-7.2-4.9 7.2h-2.5l6.1-8.7-5.9-8.7h2.6l4.7 7.1 4.8-7.1zm16.9 17.4h-2.5l-1.7-4.9h-7.5l-1.7 4.9h-2.4l6.4-17.4h3.1zm-4.9-6.8-3.1-8.6-3.1 8.6zm20.6-10.6-6.4 17.4h-3.1l-6.4-17.4h2.5l5.5 15.4 5.5-15.4zm16.1 16.2c-.4.2-.8.4-1.2.5-.3.2-.8.3-1.4.5-.5.2-1 .3-1.6.4s-1.2.2-1.8.2c-1.3 0-2.4-.2-3.5-.5-1-.4-1.9-.9-2.7-1.7-.7-.7-1.3-1.7-1.8-2.8-.4-1.1-.6-2.5-.6-4 0-1.4.2-2.7.6-3.9.4-1.1 1-2.1 1.8-2.9.7-.8 1.6-1.3 2.7-1.7s2.2-.6 3.5-.6c.9 0 1.9.1 2.8.3s2 .6 3.1 1.2v2.8h-.2c-1-.8-1.9-1.4-2.9-1.8-.9-.4-2-.6-3-.6-.9 0-1.7.1-2.4.4s-1.3.7-1.9 1.3c-.5.6-1 1.3-1.3 2.2s-.4 1.9-.4 3.1.2 2.3.5 3.2.8 1.6 1.3 2.2 1.2 1 1.9 1.3 1.5.4 2.3.4c1.1 0 2.2-.2 3.1-.6 1-.4 1.9-1 2.7-1.7h.2v2.8zm24.2-14.2h-6.2v15.4h-2.3v-15.4h-6.2v-2.1h14.7zm16.8 15.4h-3l-5.8-6.9h-3.3v6.9h-2.3v-17.4h4.9c1.1 0 1.9.1 2.6.2s1.3.4 1.9.7c.6.4 1.1.9 1.5 1.5s.5 1.4.5 2.3c0 1.3-.3 2.3-.9 3.2-.6.8-1.5 1.5-2.6 1.9zm-5.5-12.5c0-.5-.1-.9-.3-1.3s-.5-.7-.9-1c-.3-.2-.7-.4-1.2-.5s-1-.1-1.6-.1h-2.7v6.6h2.3c.7 0 1.4-.1 1.9-.2s1-.4 1.4-.7.6-.7.8-1.1c.2-.5.3-1 .3-1.7zm21.5 12.5h-2.5l-1.7-4.9h-7.6l-1.7 4.9h-2.3l6.4-17.4h3.1zm-4.9-6.8-3.1-8.6-3.1 8.6zm20.8 6.8h-2.9l-8.3-15.6v15.6h-2.2v-17.4h3.6l7.5 14.2v-14.2h2.2zm17.3-4.9c0 .7-.2 1.4-.5 2-.3.7-.8 1.2-1.3 1.7-.6.5-1.4.9-2.2 1.2s-1.8.4-3 .4c-1.3 0-2.4-.1-3.4-.4-1-.2-2-.6-3.1-1v-2.9h.2c.9.7 1.9 1.3 3.1 1.7s2.2.6 3.3.6c1.4 0 2.6-.3 3.4-.8s1.2-1.3 1.2-2.2c0-.8-.2-1.3-.6-1.7s-.9-.7-1.7-.9c-.6-.2-1.2-.3-1.9-.4s-1.4-.2-2.2-.4c-1.5-.3-2.7-.9-3.4-1.7s-1.1-1.8-1.1-3.1c0-1.5.6-2.7 1.9-3.6 1.2-.9 2.8-1.4 4.7-1.4 1.2 0 2.4.1 3.4.4 1 .2 1.9.5 2.7.9v2.7h-.2c-.7-.6-1.5-1-2.6-1.4s-2.2-.6-3.3-.6c-1.2 0-2.2.3-3 .8s-1.1 1.2-1.1 2c0 .7.2 1.3.6 1.7s1 .7 2 .9c.5.1 1.2.2 2.1.4s1.7.3 2.3.5c1.3.3 2.3.9 2.9 1.6.5.7.8 1.7.8 3zm17.2 3.7c-.4.2-.8.4-1.2.5-.3.2-.8.3-1.4.5-.5.2-1 .3-1.6.4s-1.2.2-1.8.2c-1.3 0-2.4-.2-3.5-.5-1-.4-1.9-.9-2.7-1.7-.7-.7-1.3-1.7-1.8-2.8-.4-1.1-.6-2.5-.6-4 0-1.4.2-2.7.6-3.9.4-1.1 1-2.1 1.8-2.9.7-.8 1.6-1.3 2.7-1.7s2.2-.6 3.5-.6c.9 0 1.9.1 2.8.3s2 .6 3.1 1.2v2.8h-.2c-1-.8-1.9-1.4-2.9-1.8-.9-.4-2-.6-3-.6-.9 0-1.7.1-2.4.4s-1.3.7-1.9 1.3c-.5.6-1 1.3-1.3 2.2s-.4 1.9-.4 3.1.2 2.3.5 3.2.8 1.6 1.3 2.2 1.2 1 1.9 1.3 1.5.4 2.3.4c1.1 0 2.2-.2 3.1-.6 1-.4 1.9-1 2.7-1.7h.2v2.8zm16.3-14.2c.7.8 1.3 1.7 1.6 2.9.4 1.1.6 2.4.6 3.9 0 1.4-.2 2.7-.6 3.9-.4 1.1-.9 2.1-1.6 2.8-.7.8-1.6 1.4-2.6 1.8s-2.1.6-3.4.6c-1.2 0-2.3-.2-3.4-.6-1-.4-1.9-1-2.6-1.8s-1.2-1.7-1.6-2.8-.6-2.4-.6-3.9c0-1.4.2-2.7.6-3.8s.9-2.1 1.6-2.9 1.5-1.4 2.6-1.8c1-.4 2.1-.6 3.3-.6s2.4.2 3.4.6c1.2.4 2 .9 2.7 1.7zm-.2 6.7c0-2.3-.5-4-1.5-5.2s-2.4-1.9-4.2-1.9-3.2.6-4.2 1.9c-1 1.2-1.5 3-1.5 5.2 0 2.3.5 4 1.5 5.3 1 1.2 2.4 1.8 4.1 1.8s3.1-.6 4.1-1.8c1.2-1.2 1.7-3 1.7-5.3zm20.9 0c0 1.6-.4 3-1 4.3-.7 1.3-1.6 2.3-2.8 3-.8.5-1.7.8-2.7 1.1-1 .2-2.3.3-3.9.3h-4.4v-17.4h4.4c1.7 0 3.1.1 4.1.4 1 .2 1.9.6 2.6 1 1.2.7 2.1 1.7 2.8 3 .5 1.2.9 2.6.9 4.3zm-2.5 0c0-1.4-.2-2.5-.7-3.5-.5-.9-1.2-1.7-2.1-2.2-.7-.4-1.4-.7-2.2-.8-.8-.2-1.7-.2-2.8-.2h-2.2v13.5h2.2c1.1 0 2.1-.1 2.9-.2.8-.2 1.6-.5 2.3-.9.9-.6 1.5-1.3 1.9-2.2.5-1 .7-2.1.7-3.5zm17.7 8.7h-11.5v-17.4h11.5v2.1h-9.2v4.8h9.2v2.1h-9.2v6.5h9.2zm18.1 0h-3l-5.8-6.9h-3.3v6.9h-2.3v-17.4h4.9c1.1 0 1.9.1 2.6.2s1.3.4 1.9.7c.6.4 1.1.9 1.5 1.5s.5 1.4.5 2.3c0 1.3-.3 2.3-.9 3.2-.6.8-1.5 1.5-2.6 1.9zm-5.4-12.5c0-.5-.1-.9-.3-1.3s-.5-.7-.9-1c-.3-.2-.7-.4-1.2-.5s-1-.1-1.6-.1h-2.7v6.6h2.3c.7 0 1.4-.1 1.9-.2s1-.4 1.4-.7.6-.7.8-1.1c.2-.5.3-1 .3-1.7z" fill="#12365a"/></svg>