<svg enable-background="new 0 0 385.5 76.5" viewBox="0 0 385.5 76.5" xmlns="http://www.w3.org/2000/svg"><path d="m2.8 3.3h14v14.2h-14z" fill="#fad744"/><path d="m2.8 21.9h14v14.2h-14z" fill="#77c8a6"/><path d="m2.8 40.4h14v14.2h-14z" fill="#136664"/><path d="m2.8 59h14v14.2h-14z" fill="#2e8bc4"/><path d="m146.6 21c0-10.1 7.1-18.2 16.2-18.2 6.5 0 9.8 2.9 12 5.1l-1.2 1.8c-2.3-2.3-5.5-4.8-10.9-4.8-8 0-14 7.1-14 16s5.3 15.6 14.1 15.6c6.2 0 10-3.8 11.9-6l1.2 1.7c-1.7 2.3-6 6.5-13.1 6.5-10.2-.1-16.2-7.7-16.2-17.7zm139.1-10.2 2 2.7v5.4h17.7v2.2h-17.7v14.7h19.6v2.2h-21.6zm31.1 12.5h8.3c6.6 0 9.8-3.2 9.8-8.9 0-4.9-2.7-8.9-10.3-8.9h-9.8v-2.3h9.8c8.6 0 12.5 4.8 12.5 11 0 7.1-4 11-12 11h-8.2v12.8h-2.1v-27.3l2.1 2.9zm-67.4-2.6c0-10.1 7.1-18.2 16.4-18.2 6.6 0 9.9 2.9 12.1 5.1l-1.2 1.8c-2.3-2.3-5.6-4.8-11-4.8-8.1 0-14.1 7.1-14.1 16s5.4 15.5 14.4 15.5c6.2 0 10.1-3.8 12-6l1.2 1.7c-1.7 2.3-6.1 6.5-13.2 6.5-10.5 0-16.6-7.6-16.6-17.6zm36.2-17.5h21.7v2.2h-21.7zm-44.6 31.3v-31.2h2v34.7h-2l-24.5-33.9v-.8h2.1zm127.6-31.3v2.1h-29.2v-2.1zm-157.3 17c0 10.4-6.7 18-16.3 18-9.2 0-16.3-7.2-16.3-18 0-10.1 7.1-17.7 16.3-17.7s16.3 7.6 16.3 17.7zm-30.6 0c0 9.8 6.2 15.9 14.1 15.9 8.3 0 14.1-6.5 14.1-15.9 0-8.9-6.1-15.7-14.1-15.6-7.9 0-14.1 6.7-14.1 15.6zm37.8-6.6v24.4h-2v-27.3zm136.5 0v24.4h-2.1v-27.3zm-251.2-10.2v34.6h-6.6v-34.6zm-36.9 34.6 9.4-26.8h.2l4.7 13.5-5.6-.1-1.7 5.4h9.2l2.8 8h7.2l-13.3-34.6h-6.8l-13.4 34.6zm51 0h-6.6v-25l6.6 8.9zm16.7 0h6.2v-34.5h-6.7v22.5l-16.5-22.6h-6.3v2.7zm-85.7 0h6.6v-34.6h-7l-10.1 17.8h-.1l-10.1-17.8h-6.9v34.6h6.6v-23.9l9.8 18h1.3l9.9-18.1zm327.5-34.2h-1.3v-.5h3.2v.5h-1.4v3.8h-.5zm5.9 1.8c0-.6-.1-1.3-.1-1.8-.2.5-.3 1.1-.5 1.7l-.7 2.1h-.4l-.7-2c-.2-.6-.4-1.1-.5-1.7 0 .5-.1 1.3-.1 1.9l-.2 1.8h-.5l.3-4.3h.7l.8 2c.2.5.3 1 .5 1.4.1-.5.2-.9.5-1.4l.8-2h.7l.2 4.3h-.5zm-360.7 67.6v-25.7h17.4v3h-14v8h12.1v3h-12.1v11.7zm22 0v-25.7h17.4v3h-14v8h12.1v3h-12.1v11.7zm21.7 0v-25.7h5.1s7.1 21.2 7.3 22.1c.3-.9 7.5-22.1 7.5-22.1h4.6v25.8h-3.3v-21.6l-7.5 21.6h-3.1l-7.5-21.9v21.9h-3.1zm30.1 0v-25.7h9.7c1.7 0 3 .1 3.9.2 1.3.2 2.3.6 3.2 1.2s1.5 1.4 2.1 2.5c.5 1.1.8 2.2.8 3.5 0 2.2-.7 4.1-2.1 5.6s-3.9 2.3-7.6 2.3h-6.6v10.5h-3.4zm3.4-13.5h6.7c2.2 0 3.8-.4 4.7-1.2s1.4-2 1.4-3.5c0-1.1-.3-2-.8-2.8s-1.3-1.3-2.1-1.5c-.6-.2-1.6-.2-3.2-.2h-6.6zm20.7 13.5v-25.7h18.6v3h-15.2v7.9h14.3v3h-14.3v8.8h15.8v3zm36-10.1v-3h10.9v9.6c-1.7 1.3-3.4 2.3-5.2 3s-3.6 1-5.5 1c-2.5 0-4.8-.5-6.9-1.6s-3.6-2.7-4.7-4.7-1.6-4.3-1.6-6.9c0-2.5.5-4.8 1.6-7s2.6-3.8 4.5-4.9 4.2-1.6 6.8-1.6c1.9 0 3.5.3 5 .9s2.7 1.4 3.6 2.5 1.5 2.5 2 4.2l-3.1.8c-.4-1.3-.9-2.3-1.4-3.1s-1.4-1.3-2.5-1.8-2.2-.7-3.6-.7c-1.6 0-2.9.2-4 .7s-2.1 1.1-2.8 1.9-1.2 1.6-1.6 2.5c-.7 1.6-1 3.3-1 5.2 0 2.3.4 4.2 1.2 5.8.8 1.5 2 2.7 3.5 3.4 1.5.8 3.1 1.1 4.8 1.1 1.5 0 2.9-.3 4.3-.8 1.4-.6 2.5-1.2 3.2-1.8v-4.8zm25.9 10.1v-25.7h9.7c1.7 0 3 .1 3.9.2 1.3.2 2.3.6 3.2 1.2s1.5 1.4 2.1 2.5c.5 1.1.8 2.2.8 3.5 0 2.2-.7 4.1-2.1 5.6s-3.9 2.3-7.6 2.3h-6.6v10.5h-3.4zm3.5-13.5h6.7c2.2 0 3.8-.4 4.7-1.2s1.4-2 1.4-3.5c0-1.1-.3-2-.8-2.8s-1.3-1.3-2.1-1.5c-.6-.2-1.6-.2-3.2-.2h-6.6zm20.4 13.5v-25.7h3.4v22.7h12.7v3zm37.1-25.7h3.4v14.9c0 2.6-.3 4.6-.9 6.2s-1.6 2.8-3.2 3.7c-1.5 1-3.5 1.4-6 1.4-2.4 0-4.4-.4-5.9-1.2s-2.6-2-3.3-3.6-1-3.7-1-6.5v-14.9h3.4v14.9c0 2.2.2 3.9.6 5s1.1 1.9 2.1 2.4c1 .6 2.3.9 3.7.9 2.5 0 4.3-.6 5.4-1.7s1.6-3.3 1.6-6.6zm21.1 15.6v-3h10.9v9.6c-1.7 1.3-3.4 2.3-5.2 3s-3.6 1-5.5 1c-2.5 0-4.8-.5-6.9-1.6s-3.6-2.7-4.7-4.7-1.6-4.3-1.6-6.9c0-2.5.5-4.8 1.6-7s2.6-3.8 4.5-4.9c2-1.1 4.2-1.6 6.8-1.6 1.9 0 3.5.3 5 .9s2.7 1.4 3.6 2.5 1.5 2.5 2 4.2l-3.1.8c-.4-1.3-.9-2.3-1.4-3.1-.6-.8-1.4-1.3-2.5-1.8s-2.2-.7-3.6-.7c-1.6 0-2.9.2-4 .7s-2.1 1.1-2.8 1.9-1.2 1.6-1.6 2.5c-.7 1.6-1 3.3-1 5.2 0 2.3.4 4.2 1.2 5.8.8 1.5 2 2.7 3.5 3.4s3.1 1.1 4.8 1.1c1.5 0 2.9-.3 4.3-.8 1.4-.6 2.5-1.2 3.2-1.8v-4.8zm16.6 10.1v-25.7h3.4v25.8h-3.4zm9.3 0v-25.7h3.5l13.5 20.2v-20.2h3.3v25.8h-3.5l-13.5-20.3v20.2zm24.9-8.2 3.2-.3c.2 1.3.5 2.4 1.1 3.2s1.4 1.5 2.6 2 2.5.8 4 .8c1.3 0 2.4-.2 3.4-.6s1.7-.9 2.2-1.6.7-1.4.7-2.2-.2-1.5-.7-2.1-1.2-1.1-2.3-1.5c-.7-.3-2.2-.7-4.6-1.2-2.4-.6-4-1.1-5-1.6-1.2-.6-2.2-1.4-2.8-2.4s-.9-2-.9-3.2c0-1.3.4-2.5 1.1-3.6s1.8-2 3.2-2.6 3-.9 4.7-.9c1.9 0 3.6.3 5 .9 1.5.6 2.6 1.5 3.4 2.7s1.2 2.5 1.3 4.1l-3.3.2c-.2-1.6-.8-2.9-1.8-3.7s-2.5-1.2-4.5-1.2c-2.1 0-3.6.4-4.5 1.1-.9.8-1.4 1.7-1.4 2.7 0 .9.3 1.7 1 2.3s2.4 1.2 5.1 1.8c2.8.6 4.7 1.2 5.7 1.6 1.5.7 2.6 1.6 3.3 2.6.7 1.1 1.1 2.3 1.1 3.7s-.4 2.7-1.2 3.9-1.9 2.2-3.4 2.8c-1.5.7-3.1 1-5 1-2.3 0-4.3-.3-5.9-1s-2.8-1.7-3.7-3.1c-.6-1.4-1-2.9-1.1-4.6z" fill="#12365a"/></svg>