<svg enable-background="new 0 0 385.5 76.5" viewBox="0 0 385.5 76.5" xmlns="http://www.w3.org/2000/svg"><path d="m2.8 3.3h14v14.2h-14z" fill="#fad744"/><path d="m2.8 21.9h14v14.2h-14z" fill="#77c8a6"/><path d="m2.8 40.4h14v14.2h-14z" fill="#136664"/><path d="m2.8 59h14v14.2h-14z" fill="#2e8bc4"/><path d="m146.6 21c0-10.1 7.1-18.2 16.2-18.2 6.5 0 9.8 2.9 12 5.1l-1.2 1.8c-2.3-2.3-5.5-4.8-10.9-4.8-8 0-14 7.1-14 16s5.3 15.6 14.1 15.6c6.2 0 10-3.8 11.9-6l1.2 1.7c-1.7 2.3-6 6.5-13.1 6.5-10.2-.1-16.2-7.7-16.2-17.7zm139.1-10.2 2 2.7v5.4h17.7v2.2h-17.7v14.7h19.6v2.2h-21.6zm31.2 12.5h8.3c6.6 0 9.8-3.2 9.8-8.9 0-4.9-2.7-8.9-10.3-8.9h-7.7-2.2v-2.3h9.8c8.6 0 12.5 4.8 12.5 11 0 7.1-4 11-12 11h-8.3l.1 12.6h-2.2v-27.1l2 2.9zm-67.5-2.6c0-10.1 7.1-18.2 16.4-18.2 6.6 0 9.9 2.9 12.1 5.1l-1.2 1.8c-2.3-2.3-5.6-4.8-11-4.8-8.1 0-14.1 7.1-14.1 16s5.4 15.5 14.4 15.5c6.2 0 10.1-3.8 12-6l1.2 1.7c-1.7 2.3-6.1 6.5-13.2 6.5-10.5 0-16.6-7.6-16.6-17.6zm36.2-17.5h21.7v2.2h-21.7zm-44.5 31.3-.2-31.2h2.1v34.7h-2l-22.5-31-2.1-2.9v-.8h2.1zm127.5-31.3v2.2l-29.2-.2v-2zm-157.3 17c0 10.4-6.7 18-16.3 18-9.2 0-16.3-7.2-16.3-18 0-10.1 7.1-17.7 16.3-17.7s16.3 7.6 16.3 17.7zm-30.6 0c0 9.8 6.2 15.9 14.1 15.9 8.3 0 14.1-6.5 14.1-15.9 0-8.9-6.1-15.6-14.1-15.6-7.9.1-14.1 6.7-14.1 15.6zm37.8-6.6v24.4h-2v-27.3zm136.5 0v24.4h-2.1v-27.3zm-251.2-10.2v34.6h-6.6v-34.6zm-36.9 34.6 9.4-26.8h.2l4.7 13.5-5.6-.1-1.7 5.4h9.2l2.8 8h7.2l-13.3-34.6h-6.8l-13.4 34.6zm51 0h-6.6v-25l6.6 8.9zm16.7 0h6.2v-34.5h-6.7v22.5l-16.5-22.6h-6.3v2.7zm-85.7 0h6.6v-34.6h-7l-10.1 17.8h-.1l-10.1-17.8h-6.9v34.6h6.6v-23.9l9.8 18h1.3l9.9-18.1zm327.5-34.2h-1.3v-.5h3.2v.5h-1.4v3.8h-.5zm5.9 1.8c0-.6-.1-1.3-.1-1.8-.2.5-.3 1.1-.5 1.7l-.7 2.1h-.4l-.7-2c-.2-.6-.4-1.1-.5-1.7 0 .5-.1 1.3-.1 1.9l-.2 1.8h-.5l.3-4.3h.7l.8 2c.2.5.3 1 .5 1.4.1-.5.2-.9.5-1.4l.8-2h.7l.2 4.3h-.5zm-361 67.6v-25.7h3.4v22.7h12.7v3zm20.8 0v-25.7h3.4v25.8h-3.4zm16.7 0-10-25.8h3.7l6.7 18.7c.5 1.5 1 2.9 1.4 4.2.4-1.4.9-2.8 1.4-4.2l7-18.7h3.5l-10.2 25.8zm16.8 0v-25.7h18.6v3h-15.2v7.9h14.3v3h-14.3v8.8h15.8v3zm34 0v-25.7h18.6v3h-15.2v7.9h14.3v3h-14.3v8.8h15.8v3zm23.9 0v-25.7h3.5l13.5 20.2v-20.2h3.3v25.8h-3.5l-13.6-20.3v20.2zm44.4-9 3.4.9c-.7 2.8-2 4.9-3.9 6.4s-4.1 2.2-6.8 2.2c-2.8 0-5-.6-6.8-1.7-1.7-1.1-3.1-2.8-4-4.9s-1.4-4.4-1.4-6.9c0-2.7.5-5 1.5-7s2.5-3.5 4.4-4.6c1.9-1 4-1.6 6.3-1.6 2.6 0 4.7.7 6.5 2s3 3.2 3.7 5.5l-3.4.8c-.6-1.9-1.5-3.2-2.6-4.1s-2.6-1.3-4.3-1.3c-2 0-3.6.5-5 1.4-1.3.9-2.3 2.2-2.8 3.8s-.8 3.2-.8 4.9c0 2.2.3 4.1.9 5.7s1.6 2.8 3 3.7 2.8 1.2 4.4 1.2c1.9 0 3.5-.6 4.9-1.7s2.3-2.5 2.8-4.7zm6.6-3.5c0-4.3 1.1-7.6 3.4-10s5.3-3.6 8.9-3.6c2.4 0 4.5.6 6.4 1.7s3.4 2.7 4.4 4.8c1 2 1.5 4.3 1.5 6.9s-.5 5-1.6 7-2.5 3.6-4.5 4.7c-1.9 1.1-4 1.6-6.3 1.6-2.4 0-4.6-.6-6.5-1.8s-3.4-2.8-4.3-4.8-1.4-4.2-1.4-6.5zm3.5 0c0 3.1.8 5.6 2.5 7.3 1.7 1.8 3.8 2.7 6.3 2.7 2.6 0 4.7-.9 6.3-2.7 1.7-1.8 2.5-4.4 2.5-7.7 0-2.1-.4-3.9-1.1-5.5s-1.7-2.8-3.1-3.6c-1.4-.9-2.9-1.3-4.6-1.3-2.4 0-4.5.8-6.2 2.5s-2.6 4.5-2.6 8.3zm25.5 12.5v-25.7h8.9c2 0 3.5.1 4.6.4 1.5.3 2.7 1 3.8 1.8 1.4 1.1 2.4 2.6 3 4.4.7 1.8 1 3.8 1 6.1 0 2-.2 3.7-.7 5.2s-1 2.8-1.8 3.8c-.7 1-1.5 1.8-2.4 2.3-.8.6-1.9 1-3.1 1.3s-2.6.4-4.1.4zm3.4-3h5.5c1.7 0 3-.2 4-.5s1.7-.8 2.3-1.3c.8-.8 1.4-1.9 1.9-3.3s.7-3 .7-5c0-2.7-.4-4.8-1.3-6.2-.9-1.5-2-2.4-3.2-2.9-.9-.4-2.4-.5-4.4-.5h-5.4v19.7zm22.7 3v-25.7h18.6v3h-15.2v7.9h14.3v3h-14.3v8.8h15.8v3zm24 0v-25.7h11.4c2.3 0 4 .2 5.2.7s2.2 1.3 2.9 2.4 1.1 2.5 1.1 3.9c0 1.8-.6 3.4-1.8 4.6s-3 2.1-5.5 2.4c.9.4 1.6.9 2.1 1.3 1 .9 1.9 2.1 2.8 3.4l4.5 7h-4.3l-3.4-5.4c-1-1.5-1.8-2.7-2.5-3.6-.6-.8-1.2-1.4-1.7-1.7s-1-.6-1.5-.7c-.4-.1-1-.1-1.9-.1h-4v11.4h-3.4zm3.4-14.4h7.3c1.6 0 2.8-.2 3.7-.5s1.5-.8 2-1.5.7-1.5.7-2.3c0-1.2-.4-2.2-1.3-3s-2.3-1.2-4.2-1.2h-8.2z" fill="#12365a"/></svg>