<svg width="50px" height="50px" enable-background="new 0 0 480 480" viewBox="0 0 480 480" xmlns="http://www.w3.org/2000/svg" xmlns:xlink="http://www.w3.org/1999/xlink"><linearGradient id="a" gradientTransform="matrix(72.9268 0 0 22.225 -4035.0723 270.8967)" gradientUnits="userSpaceOnUse" x1="63.6096" x2="55.2775" y1="3.2896" y2="2.5341"><stop offset="0" stop-color="#fff"/><stop offset="1" stop-color="#c2c1c1"/></linearGradient><linearGradient id="b" gradientTransform="matrix(107.8049 0 0 28.575 -6054.8301 216.9234)" gradientUnits="userSpaceOnUse" x1="63.0648" x2="56.3365" y1="-1.3501" y2="-1.8583"><stop offset="0" stop-color="#fff"/><stop offset="1" stop-color="#a2a2a1"/></linearGradient><linearGradient id="c" gradientTransform="matrix(107.8049 0 0 25.4 -6064.3423 248.6755)" gradientUnits="userSpaceOnUse" x1="64.8848" x2="56.4431" y1="1.0883" y2=".4793"><stop offset="0" stop-color="#fff"/><stop offset="1" stop-color="#b3b3b3"/></linearGradient><g transform="translate(62 27)"><ellipse cx="178" cy="213" fill="#e9e9e9" rx="207.8" ry="203"/><path d="m243.9 339.6c-119.6-8.6-60.7-14.4-233-45.4 47.2 32 124.3 111.6 233 45.4z" fill="url(#a)"/><path d="m365.6 199.6c-113.8-22.1-224.7-97.8-341.7-73.2-1.6.6-3.8 1-2.9 1.6 74.5 12.8 231.2 122.1 344.6 71.6z" fill="url(#b)"/><path d="m335.3 298c-61.1-11.8-195-103.3-344.6-66.5 131 27.2 249.3 92.7 344.6 66.5z" fill="url(#c)"/><path d="m345.2 141.7c-65.5-44.4-147.7-125.3-223.1-51.1 91.7 10.5 103.8 24.6 223.1 51.1z" fill="#a4a4a4"/><path d="m10.8 290.7c136.2.3 214.2-98.2 354.8-87-112.5 54.4-249.9 157.3-354.8 87z" fill="#121212"/><path d="m345.2 144.3c-137.5-10.3-209.1 96.2-354.8 88.5 55.6-24 218.6-165.6 354.8-88.5z" fill="#171717"/><path d="m254.1 66.3c-79.6-2.6-161.1 63-233 54.3 51.7-28.8 147.9-102.3 233-54.3z" fill="#212121"/><path d="m112.1 360c81.2-.3 149.3-67.4 223.1-54-60.3 32.3-133.9 99.1-223.1 54z" fill="#010101"/></g></svg>