<?xml version="1.0" encoding="utf-8"?>
<!-- Generator: Adobe Illustrator 24.0.3, SVG Export Plug-In . SVG Version: 6.00 Build 0)  -->
<svg width="50px" height="50px" version="1.1" id="Layer_1" xmlns="http://www.w3.org/2000/svg" xmlns:xlink="http://www.w3.org/1999/xlink" x="0px" y="0px"
	 viewBox="0 0 1024 1024" style="enable-background:new 0 0 1024 1024;" xml:space="preserve">
<style type="text/css">
	.st0{fill:#10AA50;}
	.st1{fill:#B8C4C2;}
	.st2{fill:#12924F;}
</style>
<g>
	<path class="st0" d="M707.6,416.8c-48.9-215.6-150.9-273-176.7-313.6c-14.1-22.1-28.4-55.6-28.4-55.6c-1.4,19.1-3.9,31.2-20.2,45.8
		C449.5,122.5,310.7,235.6,299,480.6C288.1,709,466.8,849.9,490.6,864.5c18.1,8.9,40.4,0.2,51-8c86.1-59.2,204-216.9,165.9-439.7"/>
	<path class="st1" d="M509.8,742.8c-4.5,56.6-7.7,89.5-19.1,121.7c0,0,7.5,53.8,12.7,110.8h18.6c4.4-40.2,11.2-80,20.3-119.4
		C518.3,844.1,510.7,792.4,509.8,742.8z"/>
	<path class="st2" d="M542.4,856L542.4,856c-24.4-11.3-31.4-64-32.5-113.2c6-81.1,7.7-162.5,5.2-243.7c-1.3-42.6,0.6-395-10.5-446.6
		c4.5,10.1,15.4,33.8,26.3,50.7c26,40.6,127.9,98,176.7,313.6C745.6,639,628.4,796.5,542.4,856z"/>
</g>
</svg>
