<?xml version="1.0" encoding="UTF-8"?>
<svg xmlns="http://www.w3.org/2000/svg" xmlns:xlink="http://www.w3.org/1999/xlink" id="Layer_1" width="512" height="512" viewBox="0 0 512 512">
  <defs>
    <style>.cls-1{fill:url(#linear-gradient);}.cls-2{fill:#fff;}.cls-3{fill:#67ce4d;}.cls-4{fill:#022b6b;}</style>
    <linearGradient id="linear-gradient" x1="659.24" y1="1018.34" x2="175.55" y2="809.78" gradientTransform="translate(59.16 -738.14) rotate(8.36)" gradientUnits="userSpaceOnUse">
      <stop offset=".26" stop-color="#035ce6"></stop>
      <stop offset=".32" stop-color="#1478c0"></stop>
      <stop offset=".4" stop-color="#2ba08d"></stop>
      <stop offset=".48" stop-color="#3dbf64"></stop>
      <stop offset=".55" stop-color="#4bd547"></stop>
      <stop offset=".61" stop-color="#53e336"></stop>
      <stop offset=".66" stop-color="#56e830"></stop>
      <stop offset=".68" stop-color="#5ce058"></stop>
      <stop offset=".71" stop-color="#63d884"></stop>
      <stop offset=".73" stop-color="#6ad1aa"></stop>
      <stop offset=".76" stop-color="#6fcbc9"></stop>
      <stop offset=".79" stop-color="#73c7e0"></stop>
      <stop offset=".82" stop-color="#75c4f1"></stop>
      <stop offset=".85" stop-color="#77c2fb"></stop>
      <stop offset=".89" stop-color="#78c2ff"></stop>
    </linearGradient>
  </defs>
  <path class="cls-3" d="M349.56,489.96c-30.75,9.5-63.94,12.34-97.85,7.39-62.94-9.3-116.12-43.94-150.36-92.11-13.86-19.53-24.68-41.24-31.8-64.39,1.32.07,2.64.13,4.03.13,5.54,0,11.02-.73,16.16-2.05,8.58,26.06,22.3,50.01,40.12,70.46,31.08,35.76,74.42,60.96,124.77,68.35,29.89,4.35,59.18,2.05,86.5-5.94,1.98,6.47,4.82,12.54,8.45,18.14Z"></path>
  <path class="cls-1" d="M410.56,510c-2.89,0-5.82-.22-8.71-.64-32.38-4.76-54.87-34.98-50.11-67.38,1.08-7.36,3.53-14.37,7.27-20.84,4.27-7.37,3.34-16.66-2.31-23.04-3.84-4.34-9.27-6.68-14.83-6.68-2.62,0-5.25.52-7.76,1.59-15.8,6.75-32.48,10.16-49.56,10.16-6.27,0-12.6-.47-18.8-1.38-52.9-7.77-95.85-48.21-106.86-100.62-1.76-8.35-8.66-14.63-17.13-15.6-.75-.09-1.5-.13-2.25-.13-7.64,0-14.68,4.42-17.95,11.47-8.69,18.73-27.48,30.83-47.89,30.83-2.57,0-5.18-.19-7.74-.57-13.95-2.05-26.26-9.41-34.67-20.72-8.42-11.31-11.92-25.22-9.87-39.18,3.78-25.72,26.2-45.11,52.15-45.11,2.57,0,5.18.19,7.74.57,13.95,2.05,26.26,9.4,34.67,20.71,2.21,2.97,4.1,6.15,5.63,9.44,3.26,7.06,10.32,11.48,17.96,11.48.74,0,1.49-.04,2.24-.13,8.48-.96,15.38-7.25,17.14-15.59,12.43-59.05,65.13-101.92,125.31-101.92,6.24,0,12.56.46,18.79,1.38,6.25.92,12.45,2.29,18.43,4.08,1.87.56,3.79.83,5.67.83,6.49,0,12.73-3.21,16.47-8.82,4.83-7.24,4.36-16.78-1.15-23.51-.75-.92-1.48-1.85-2.19-2.81-11.58-15.56-16.4-34.69-13.58-53.87,5.19-35.37,36.02-62.04,71.71-62.04,3.54,0,7.12.26,10.63.78,19.18,2.82,36.12,12.93,47.69,28.49,11.57,15.55,16.39,34.68,13.58,53.86-5.2,35.37-36.02,62.04-71.71,62.04-3.54,0-7.12-.26-10.63-.78-.97-.14-1.95-.21-2.92-.21-7.58,0-14.81,4.28-18.12,11.23-3.74,7.84-2.22,17.15,4.16,23.04,5.89,5.42,11.34,11.48,16.2,18.02,20.44,27.47,28.95,61.26,23.97,95.14-3.61,24.56-14.34,47.46-31.02,66.22-5.66,6.37-6.61,15.63-2.36,23.02,3.58,6.22,10.17,9.93,17.15,9.93,1.3,0,2.62-.13,3.92-.39,3.78-.76,7.65-1.15,11.51-1.15,2.89,0,5.82.22,8.71.64,32.38,4.76,54.87,34.99,50.11,67.38-4.25,28.94-29.48,50.76-58.68,50.76Z"></path>
  <circle class="cls-4" cx="284.38" cy="274.97" r="112.39"></circle>
  <path class="cls-2" d="M233.61,215.66h29.53l35.17,59.56c1.82,3.32,8.13,15.1,8.13,15.1h.33s-.33-14.27-.33-18.42v-56.25h28.7v118.63h-29.54l-34.84-58.73c-1.99-3.15-8.46-15.93-8.46-15.93h-.34s.34,15.26.34,19.41v55.25h-28.7v-118.63Z"></path>
</svg>
