<svg width="50px" height="50px" enable-background="new 0 0 1024 1024" viewBox="0 0 1024 1024" xmlns="http://www.w3.org/2000/svg"><g fill="#0082c9"><path d="m512.7 212.3c-94.8 0-175.2 64.3-200.1 151.4-21.6-46.2-68.5-78.5-122.6-78.5-74.3 0-135.4 61.1-135.4 135.4s61.1 135.4 135.4 135.4c54 0 100.9-32.4 122.6-78.6 24.9 87.1 105.3 151.4 200.1 151.4 94.1 0 174-63.3 199.6-149.4 22 45.1 68.4 76.6 121.6 76.6 74.3 0 135.4-61.1 135.4-135.4s-61.1-135.4-135.4-135.4c-53.3 0-99.6 31.5-121.6 76.6-25.6-86.2-105.5-149.5-199.6-149.5zm0 79.5c71.6 0 128.7 57.1 128.7 128.7s-57.2 128.7-128.7 128.7c-71.6 0-128.7-57.2-128.7-128.7s57.1-128.7 128.7-128.7zm-322.6 72.8c31.4 0 55.9 24.6 55.9 55.9 0 31.4-24.6 55.9-55.9 55.9-31.4 0-55.9-24.6-55.9-55.9s24.5-55.9 55.9-55.9zm643.8 0c31.4 0 55.9 24.6 55.9 55.9 0 31.4-24.6 55.9-55.9 55.9-31.4 0-55.9-24.6-55.9-55.9s24.6-55.9 55.9-55.9z"/><g transform="matrix(.47038519 0 0 .47038519 21.389201 50.75959)"><path d="m567.7 1432.1c47.4 0 73.9 33.7 73.9 84.3 0 4.8-4 8.8-8.8 8.8h-127.7c.8 45 32.1 70.7 68.3 70.7 22.5 0 38.5-9.6 46.6-16.1 4.8-3.2 8.8-2.4 11.2 2.4l2.4 4c2.4 4 1.7 8.1-2.4 11.2-9.5 7.4-30.5 19.3-58.6 19.3-52.2 0-92.7-37.7-92.4-92.4.4-57.7 39.4-92.2 87.5-92.2zm49 75.5c-1.6-36.9-24.1-55.4-49.8-55.4-29.7 0-55.4 19.3-61 55.4z"/><path d="m882.8 1457.8v-61.8c0-5.6 3.2-8.8 8.8-8.8h6.4c5.6 0 8 3.2 8 8.8v41.8h36.1c5.6 0 8.8 3.2 8.8 8.8v2.4c0 5.6-3.2 8-8.8 8h-36.1v88.3c0 41 24.9 45.4 38.5 46.6 7.2.6 9.6 2.4 9.6 8.8v4.8c0 5.6-2.4 8-9.6 8-38.5 0-61.8-23.3-61.8-65z"/><path d="m1066.7 1432.1c30.5 0 49.8 12.9 58.6 20.1 4 3.2 4.8 7.2.8 12l-2.4 4c-3.2 4.8-7.3 4.9-12 1.6-8.1-5.5-23.3-16.1-44.2-16.1-38.5 0-69.1 28.9-69.1 71.5 0 41.8 30.5 70.7 69.1 70.7 24.9 0 41.8-11.2 49.8-18.5 4.8-3.2 8-2.4 11.2 2.4l2.4 3.2c2.4 4.8 1.6 8-2.4 12-8.8 7.2-30.5 22.5-62.6 22.5-52.2 0-92.8-37.7-92.4-92.4.4-54.5 41-93 93.2-93z"/><path d="m1173.5 1375.1c0-5.6-3.2-8.8 2.4-8.8h6.4c5.6 0 14.5 3.2 14.5 8.8v191.9c0 22.5 10.4 24.9 18.5 25.7 4 0 7.2 2.4 7.2 8v5.6c0 5.6-2.4 8.8-8.8 8.8-14.5 0-40.2-4.8-40.2-43.4z"/><path d="m1338.1 1432.1c51.4 0 93.2 39.4 93.2 91.6 0 53-41.8 93.2-93.2 93.2s-93.2-40.2-93.2-93.2c.1-52.3 41.8-91.6 93.2-91.6zm0 163.8c37.7 0 68.3-30.5 68.3-72.3 0-40.2-30.5-69.9-68.3-69.9s-69.4 30.5-69.1 69.9c.5 41 31.4 72.3 69.1 72.3z"/><path d="m1738.9 1432.1c42.6 0 57.8 35.3 57.8 35.3h.8s-.8-5.6-.8-13.7v-79.5c0-5.6-2.4-8.8 3.2-8.8h6.4c5.6 0 14.5 3.2 14.5 8.8v228.9c0 5.6-2.4 8.8-8 8.8h-5.6c-5.6 0-8.8-2.4-8.8-8v-13.7c0-6.4 1.6-11.2 1.6-11.2h-.8s-15.3 36.9-61 36.9c-47.4 0-76.3-37.8-77.1-92.4-.9-54.5 31.2-91.4 77.8-91.4zm.8 163.8c29.7 0 57-20.9 57-71.5 0-36.1-18.5-70.7-56.2-70.7-31.3 0-57.4 25.7-57 70.7.3 43.4 23.2 71.5 56.2 71.5z"/><path d="m273.3 1612.8h6.4c5.6 0 8.8-3.2 8.8-8.8v-172.4c0-27.3 29.7-46.8 63.4-46.8s63.4 19.5 63.4 46.8v172.4c0 5.6 3.2 8.8 8.8 8.8h6.4c5.6 0 8-3.2 8-8.8v-173.5c0-45.8-45.8-68.3-87.5-68.3-40.2 0-85.9 22.5-85.9 68.3v173.5c.1 5.6 2.5 8.8 8.2 8.8z"/><path d="m1613.6 1436.1h-6.4c-5.6 0-8.8 3.2-8.8 8.8v97.2c0 27.3-17.7 52.2-52.2 52.2-33.7 0-52.2-24.9-52.2-52.2v-97.2c0-5.6-3.2-8.8-8.8-8.8h-6.4c-5.6 0-8 3.2-8 8.8v103.6c0 45.8 33.7 68.3 75.5 68.3s75.5-22.5 75.5-68.3v-103.6c.6-5.6-2.6-8.8-8.2-8.8z"/><path d="m818.6 1434.8c-2 .3-3.9 1.6-5.7 3.8l-56.8 67.7-56.8-67.7c-1.8-2.2-3.9-3.3-6-3.5s-4.3.6-6.5 2.4l-4.9 4.1c-4.3 3.6-4.1 7.6-.5 11.9l59.5 70.9-39.5 47s0 .1-.1.1l-19.9 23.7c-3.6 4.3-3.2 8.8 1.1 12.5l4.9 4.1c4.3 3.6 8.2 2.7 11.8-1.6l56.8-67.7 36.8 43.9s.1 0 .1.1l19.9 23.7c3.6 4.3 8.1 4.7 12.4 1.1l4.9-4.1c4.3-3.6 4.1-7.6.5-11.9l-59.5-70.9 39.5-47s0-.1.1-.1l19.9-23.7c3.6-4.3 3.2-8.8-1.1-12.5l-4.9-4.1c-2-1.9-4-2.5-6-2.2z"/></g></g></svg>
