<svg height="40px" enable-background="new 0 0 72 72" viewBox="0 0 72 72" xmlns="http://www.w3.org/2000/svg"><path d="m36 71.7c-1 0-1.9-.3-2.7-.7l-8.7-5.2c-1.3-.7-.7-1-.2-1.1 1.7-.6 2.1-.7 3.9-1.8.2-.1.4-.1.6 0l6.7 4c.2.1.6.1.8 0l26.1-15.1c.2-.1.4-.4.4-.7v-30.2c0-.3-.2-.6-.4-.7l-26.1-15.1c-.2-.1-.6-.1-.8 0l-26.1 15.1c-.3.1-.4.4-.4.7v30.2c0 .3.2.6.4.7l7.2 4.1c3.9 1.9 6.3-.3 6.3-2.6v-29.8c0-.4.3-.8.8-.8h3.2c.4 0 .8.3.8.8v29.8c0 5.2-2.8 8.2-7.7 8.2-1.5 0-2.7 0-6-1.6l-6.9-4c-1.7-1-2.7-2.8-2.7-4.8v-30.2c0-2 1-3.8 2.7-4.8l26.1-15.1c1.7-.9 3.9-.9 5.5 0l26.1 15.1c1.7 1 2.7 2.8 2.7 4.8v30.2c0 2-1.1 3.8-2.7 4.8l-26.1 15c-.9.5-1.8.7-2.8.8zm8.1-20.8c-11.4 0-13.8-5.2-13.8-9.7 0-.4.3-.8.8-.8h3.4c.4 0 .7.3.7.6.5 3.4 2 5.2 8.9 5.2 5.5 0 7.8-1.2 7.8-4.2 0-1.7-.7-2.9-9.2-3.8-7.2-.7-11.6-2.3-11.6-8 0-5.3 4.4-8.4 11.9-8.4 8.4 0 12.5 2.9 13 9.1 0 .4-.3.8-.7.8 0 0 0 0-.1 0h-3.4c-.4 0-.7-.2-.7-.6-.8-3.6-2.8-4.8-8.2-4.8-6 0-6.7 2.1-6.7 3.7 0 1.9.8 2.5 8.9 3.5 8 1.1 11.8 2.6 11.8 8.2.2 5.9-4.6 9.2-12.8 9.2z" fill="#393"/></svg>