<svg enable-background="new 0 0 243.7 243.7" viewBox="0 0 243.7 243.7" xmlns="http://www.w3.org/2000/svg"><g clip-rule="evenodd" fill-rule="evenodd"><path d="m106.7 230.2-99.4-45.8c-8.5-4-8.5-10.2 0-13.8l34.6-16 64.5 29.8c8.5 4 22.1 4 30.2 0l64.5-29.8 34.6 16c8.5 4 8.5 10.2 0 13.8l-99.4 45.7c-7.8 3.7-21.4 3.7-29.6.1z" fill="#ff6f3d"/><path d="m106.7 173.9-99.4-45.7c-8.5-4-8.5-10.2 0-13.8l33.9-15.6 65.6 30.1c8.5 4 22.1 4 30.2 0l65.6-30.1 33.9 15.6c8.5 4 8.5 10.2 0 13.8l-99.5 45.7c-8.5 4-22.1 4-30.3 0z" fill="#95c038"/><path d="m106.7 119.1-99.4-45.8c-8.5-4-8.5-10.2 0-13.8l99.4-45.7c8.5-4 22.1-4 30.2 0l99.4 45.7c8.5 4 8.5 10.2 0 13.8l-99.3 45.8c-8.5 3.6-22.1 3.6-30.3 0z" fill="#5dc0e8"/></g></svg>