<svg height="40px" enable-background="new 0 0 72 72" viewBox="0 0 72 72" xmlns="http://www.w3.org/2000/svg"><path d="m68.1 43.7c-.1-.3-.4-.5-.7-.5-.2 0-.3.1-.6.2l-1.1.6-1.4.8-1.5.8-2.4 1.3-3.3 1.8-3.2 1.7-.6.3-4.1 2.2-1 .5c-.4.2-.6.5-.6.9s.2.7.6.9l.2.1 1.3.7 1.9 1.1 1.5.8c.2.1.3.3.4.5v.2c0 .1-.1.3-.2.4l-4.8 4.8-1 1-1 1-.6.6c-.3.3-.4.7-.3 1s.4.5.7.5c.2 0 .3 0 .6-.2h.1l1-.5.1-.1 1.3-.7 1.5-.8 14.6-7.7c.4-.2.6-.5.6-.9s-.2-.7-.6-.9l-4.8-2.8c-.2-.1-.3-.3-.3-.5s0-.4.2-.6l4.8-4.8 1-1 1-1 .6-.6c.1-.5.2-.8.1-1.1z" fill="#fc0"/><path d="m68.5 46.9-.9.9-1 1-.1.1c1.3 1.9 2.1 4.2 2.1 6.6 0 6.5-5.3 11.8-11.8 11.8-2.2 0-4.3-.6-6.1-1.7l-1.5.8-1.3.6-.1.1c2.5 1.9 5.6 3.1 9 3.1 8.1 0 14.7-6.6 14.7-14.7-.1-3.2-1.2-6.2-3-8.6z" fill="#3cc"/><path d="m63.3 42.9.4-.2c-.6-.3-1.3-.7-2-.9-1.4-.5-2.9-.8-4.5-.9-.2 0-.3 0-.5 0-1.1 0-2.1.1-3.2.4-1.3.3-2.5.7-3.7 1.4-.2.1-.4.2-.6.3-1.7 1-3.3 2.4-4.5 4-1.1 1.6-2 3.3-2.4 5.3-.2 1.1-.4 2.2-.4 3.3 0 1.9.4 3.7 1 5.4 0 .1 0 .1.1.2 0 0 0 .1.1.1.5 1.1 1.1 2.2 1.8 3.2.2.2.3.4.5.6.2.3.5.6.8.8l1-1 1-1c-.1-.1-.2-.3-.4-.4-.2-.2-.4-.5-.6-.7-.7-1-1.3-2.1-1.8-3.2v-.1c-.4-1.2-.6-2.5-.6-3.8 0-2.7.9-5.2 2.5-7.1.7-.9 1.5-1.7 2.4-2.3 1.1-.8 2.3-1.4 3.7-1.8 1-.3 2-.4 3-.4h.2.5c1.1 0 2.2.3 3.2.6l1.4-.8z" fill="#3cc"/><g fill="#2ba977"><path d="m40.3 9.1h8.8v8.9h-8.8z"/><path d="m26.8 22.3c-1.3-.3-2.4-.4-3.8-.4-9.2 0-15.1 5.7-15.1 14.6 0 9.2 5.6 14 16.3 14 3.6 0 6.9-.3 11.4-1.2v-40.2h-8.8zm.3 21.2c-1.3.2-2 .2-3 .2-4.5 0-6.9-2.5-6.9-7.2s2.6-7.4 7-7.4c1.1 0 1.9.1 3 .4v14z"/><path d="m41.2 23v17.1c0 7.6-.4 10.4-1.6 12.9-1.2 2.4-3.1 4-6.9 5.8l8.1 3.8c.3-.1.5-.3.7-.4 0-.1-.1-.1-.1-.2s-.1-.1-.1-.3v-.1c-.8-2-1.2-4-1.2-6.2 0-1.2.2-2.5.4-3.8.5-2.2 1.4-4.2 2.8-6 1.4-1.9 3.1-3.4 5.1-4.6.2-.1.4-.2.5-.3l.1-.1c.3-.2.6-.3 1-.4v-17.2z"/><path d="m43.6 65.9s-.1-.1-.1-.1l-.1-.1c-.1-.1-.1-.1-.1-.2-.3.2-.6.3-.9.5-.5.3-1.1.4-1.6.4s-1.1-.1-1.6-.3l-8.2-4c-1.3-.6-2.1-1.9-2.1-3.3s.8-2.7 2.1-3.3c1.9-.9 3.1-1.6 3.9-2.4-4 .7-7.2 1-10.7 1-12.7 0-19.9-6.4-19.9-17.6 0-10.9 7.5-18.3 18.7-18.3h.2v-9.1c0-2 1.6-3.7 3.7-3.7h8.8c.9 0 1.7.3 2.3.9.6-.5 1.5-.9 2.3-.9h8.7c2 0 3.7 1.6 3.7 3.7v8.9c0 .8-.2 1.4-.6 2 .9.7 1.5 1.7 1.5 2.9v16.2c1.1-.2 2.1-.3 3.2-.3h.4.1v-15.8c0-1.3-.4-2.6-1-3.7.1-.4.1-.9.1-1.3v-8.9c0-4-3.3-7.3-7.3-7.3h-8.8c-.8 0-1.6.1-2.3.4-.8-.3-1.5-.4-2.3-.4h-8.8c-4 0-7.3 3.3-7.3 7.3v5.7c-11.4 1.4-19 10-19 21.7 0 13.3 8.8 21.3 23.6 21.3h1.1c0 .3-.1.7-.1 1 0 2.8 1.6 5.4 4.2 6.6l8.1 3.8c1 .5 2.1.7 3.1.7 1.1 0 2.2-.3 3.3-.8.1 0 .1-.1.1-.1-.3-.3-.5-.5-.6-.9-.2-.7-.2-1.5.2-2.2z"/></g></svg>