<svg width="50px" height="50px" id="f79d46b7-e147-4050-aef1-f3af03ff0b6a" data-name="Layer 1" xmlns="http://www.w3.org/2000/svg" viewBox="0 0 1024 1024">
  <defs>
    <style>
      .b5e211f9-edf1-434f-b378-e6fec8fba632 {
        fill: #939598;
      }
    </style>
  </defs>
  <g>
    <g>
      <path class="b5e211f9-edf1-434f-b378-e6fec8fba632" d="M846.64,502.2,645.42,301,559.72,409.8l92.4,92.4a22,22,0,0,1,0,31L625.4,559.91s18,27,18.85,28.6c4.15,8.34,5.16,27.93-6.64,36.86L427.45,786.72c-.05,54.14-.13,165.47,0,165.52s419.23-419,419.23-419A22,22,0,0,0,846.64,502.2Z"/>
      <path class="b5e211f9-edf1-434f-b378-e6fec8fba632" d="M379.29,527.52a22,22,0,0,1,0-30.95l26.76-26.76-18.3-26.29a28.82,28.82,0,0,1,6.05-39.12L604,243l.15-165.42-.12-.07-.11-.14L184.79,496.57a22,22,0,0,0,0,31L386,728.75,471.71,620Z"/>
    </g>
    <g>
      <path class="b5e211f9-edf1-434f-b378-e6fec8fba632" d="M320.76,857.15a14.06,14.06,0,0,1-11.35-7.48c-4-8.15,1.77-15.6,4.25-18.78L497.78,597.21a7.23,7.23,0,0,0,.26-6.69L395.29,442.76A27.48,27.48,0,0,1,401,405.48L697.22,178.11c5-3.89,8.67-5.48,12.72-5.48A13.77,13.77,0,0,1,722,180.17c4,8.17-1.76,15.45-4.2,18.57L533.56,432.6c-1.1,1.39-1.22,5.14-.21,6.57S632.8,583.43,636.18,588.28c5.53,8,5.1,27.7-5.87,36L334.19,851.62c-4.53,3.47-8.15,5.49-13.28,5.53h-.15ZM709.94,177.4c-2.89,0-5.73,1.3-9.8,4.48L403.94,409.26A22.69,22.69,0,0,0,399.2,440L502,587.85c2.2,3.32,2,9-.42,12.26L317.41,833.83c-2.24,2.88-6.42,8.25-3.73,13.72a9.45,9.45,0,0,0,7.33,4.84c3.74-.06,6.41-1.58,10.28-4.55L627.42,620.5c8.56-6.49,9.26-23.13,4.84-29.5-2.83-4-71.59-103.8-101-146.5l-1.79-2.61c-2.21-3.13-2-9.2.38-12.24L714,195.87c2.39-3,6.38-8.13,3.73-13.6A8.89,8.89,0,0,0,709.94,177.4Z"/>
      <path class="b5e211f9-edf1-434f-b378-e6fec8fba632" d="M709.94,175.4a10.93,10.93,0,0,1,9.59,6c3.2,6.59-1.42,12.47-4,15.71L531.39,430.89c-1.87,2.36-2,7.43-.31,9.87,1,1.44,99.44,144.25,102.82,149.1,4.84,7,4.38,24.91-5.26,32.22L332.51,849.43c-4.16,3.18-7.25,4.92-11.56,5a11.38,11.38,0,0,1-9.06-5.95c-3.24-6.59,1.62-12.85,3.95-15.85L500,598.91c1.89-2.53,2.08-7.35.38-9.92L397.56,441.18a24.7,24.7,0,0,1,5.16-33.5L698.91,180.3c4.45-3.48,7.65-4.9,11-4.9m0-.77c-3.55,0-6.89,1.46-11.5,5.06L402.25,407.06a25.45,25.45,0,0,0-5.32,34.56l102.78,147.8c1.52,2.3,1.33,6.78-.35,9L315.23,832.12c-2.43,3.13-7.48,9.66-4,16.66a12.15,12.15,0,0,0,9.7,6.37c4.61,0,7.91-1.93,12.07-5.11L629.11,622.69c10.24-7.75,10.27-26.28,5.42-33.27-3.42-4.91-102.82-149.1-102.82-149.1-1.52-2.16-1.38-6.87.28-9L716.17,197.58c2.41-3.07,7.48-9.43,4.05-16.52a11.71,11.71,0,0,0-10.28-6.43Z"/>
    </g>
    <path class="b5e211f9-edf1-434f-b378-e6fec8fba632" d="M623.91,592.15c2.38,3.61,4.53,17.3-1.47,21.82L326.26,841.34c-2.49,1.91-4.09,2.83-4.8,2.78-1,0-.28-1.76,2.43-5.27L508,605.24c4.66-6,5-15.9.7-22L405.93,435.29S621.53,588.52,623.91,592.15Z"/>
    <path class="b5e211f9-edf1-434f-b378-e6fec8fba632" d="M623.91,592.15,522.7,446.56c-4.3-6.17-4-16.07.64-21.94L707.48,190.86c2.74-3.48,3.45-5.22,2.46-5.22-.73,0-2.35.85-4.8,2.8L409,415.78a14.45,14.45,0,0,0-3,19.51Z"/>
  </g>
</svg>
