<svg viewBox="0 0 1000 1000" xmlns="http://www.w3.org/2000/svg"><path d="m310.2 278.6c-17.2 2.5-34.1 4.2-50.9 9.2-50.2 15-96.4 48.6-122.7 94.4-9.1 15.8-16.9 32.4-22.4 49.9s-3.3 11-4.3 16.6-.6 7.1-2.5 9.5c-3.3 4.1-12.7 6.4-17.4 8.8-11.3 5.8-22.5 12.9-32.2 21.2-26.3 22.3-47 54.1-35.4 89.6s7.4 16.2 12.3 23.2 15.1 17.3 24.1 24.5c27.3 21.8 60.4 35.5 93.2 46.6 33.4 11.3 67.5 20.6 102.3 26.9 153.7 27.8 311.9 32.5 466.1 4.6 73.5-13.3 148.3-31 211.1-73.2 22.6-15.2 46.5-39.1 49.3-67.7 1.2-11.8-2-24.1-6.7-34.8-12.4-28.4-42.6-49-69.3-62.4s-17.3-8.1-26.2-11.4-9.3-2.3-11.2-5c-2.9-4.1-3.4-12.2-4.9-17.1-3.6-11.6-7.8-22.9-13.2-33.8-19.8-39.5-52.3-72.6-91.1-93.6-62.7-33.8-139.9-34.4-204.1-4.7-18.5 8.6-36.7 20.7-51.4 34.8s-8.5 8.2-12.6 12.6-3.1 4-4.8 3.8-2.8-2.3-3.7-3.3l-8.6-8.6c-9.4-9.4-19.6-17.7-30.7-24.9-28.3-18.3-61.2-30.3-94.7-34.2s-25.2-3.5-37.3-1.7zm32.7 38.1c3.7 3.1 8 5.4 11.6 8.6 8.5 7.5 14.7 17.6 18.9 28.1s3.9 10.1 4.6 15.1c1 7.3-.4 12.9 5.7 18.6 12.7 11.9 33.4 2 31.7-15.6s-5.7-20.2-11-28.7-8.4-9-8-12.6c20.5 9.1 39.8 18.7 55.9 34.8s11.4 9.2 13.3 14.6-5.8 12.7-7.7 16.1c-2.8 5.1-5.3 10.4-7.9 15.6s-1.9 4.9-3.8 6.3-7.7 1.8-10.5 2.4c-7.3 1.5-14.4 3.8-21.7 5.4-10.3-17.2-30.3-25.2-48.4-14.5s-21.4 19.8-8.1 27.8 12.4-.9 19.1.3c-2.3 3.4-6.2 5.3-9.6 7.6-6.2 4.1-12.3 8-18.1 12.5-14.8 11.3-27.3 25.2-39.2 39.4s-9.9 12.9-14 19.7-2.7 6.9-5.3 7.8c-5.9 2.2-15.4 0-21.7.2-17.7.5-35.6 0-53.4 0s-53.9 6.3-68.3-17.1-7.2-32.5-4.4-48.9c7.1-41.3 29.9-79.4 62.6-105.5 11.5-9.2 29.1-21.9 44.3-23-1.2 4.2-4.8 7.8-6.9 11.6-5.2 9.3-10.4 20.3-9.7 31.2 1.2 18.7 24.3 22.4 35 9.5s3.1-16.5 5.1-23.6c5.3-18.4 14.9-33.4 31.4-43.3 2.1 4.2 1 10.5 1 15.1v34.3c0 5.2-1.1 11.5 1.7 16.1 7.6 12.6 31.2 12.5 34.3-4s.2-10.3.2-15.1v-30.2c0-4.1-1.7-13.5 1-16.6zm290.7.5c0 15.1-.5 30.2-.5 45.3s-.9 14.9 2.1 19.7c7.9 12.6 27.9 12.7 34.4-1.5s1.3-12.4 1.3-18.1c0-8.9-.5-17.8-.5-26.7s.8-11.8-.5-17.1l.5-.5c18 6 28.3 27.9 32.6 44.8s0 19 8.8 25.3 26.5 3.4 31.5-8.7c2.9-7 .9-14.4-2-21.2-2.5-5.8-5.4-11.6-9.2-16.6s-6.4-6.5-7.2-10.1c15.1 3 29.7 12.1 41.8 21.2 32.9 24.7 57.1 60.1 63.1 101.2 2.9 19.9 4.9 46.9-10.7 62.4-10.5 10.5-25.2 9.1-38.8 9.1h-68c-10.3 0-22.1 1.6-32.2 0-.1-2.4-2.5-4.1-3.8-6-3.6-5.3-7.2-10.6-11.1-15.6-12.9-16.5-27.4-31.9-44-44.7s-13.1-9.6-19.7-14.3-6.3-3.3-7.6-5.6 2.9-2 4.1-1.6c2.8.9 5.2 2.6 8.1 3.1 8 1.4 22.6-3.3 20.5-13.9s-4.9-9-8.4-12.1c-11.4-10-28.9-12-41.8-3.8s-8.2 6-11.4 9.8-2.5 5.2-4.8 5.2-6-1.8-8.6-2.7c-5.3-1.7-10.7-3.3-16.1-4.4-15.7-3.3-31.2-3.5-46.9-5.6 2-5.6 5.8-11.5 8.9-16.6 13.3-22.2 31.1-40.4 53.1-54.1s14.7-7.8 22.7-10.1 5-2.3 7.6-1.8c-9 13.4-20.3 26.5-19.6 43.8s22.3 21.5 33.7 11.9 5.2-18.2 7.8-27c5-17.3 14.6-33.8 31-42.3zm110.4 88.3c-10.3 1.5-20 6.4-26.3 14.9s-5.6 13.7 1.6 18.9 12.1 3.8 18.1 1.4 6.2-3.3 9.6-3.3 5.8 2.2 8.6 3.4c4.1 1.7 8.6 2.4 13.1 1.7 11.7-1.6 12.8-13.5 7.2-21.6s-19.2-17.3-31.9-15.4zm-511.9.5c-10.5 1.5-19.5 6.6-25.6 15.4s-5.2 13.9 2.4 18.6 11.8 2.4 17.1-.1 5.7-3.8 8.6-3.6 5.2 2.5 7.6 3.6c3.5 1.6 7.7 2.1 11.6 1.5 11.8-1.7 15.2-13.2 8.7-22s-19.1-15.1-30.4-13.4zm234.3 45.7c1.7 5.3.4 12.2.2 17.7-.4 9.2.2 18.4 0 27.7s-1.1 12.8 1.2 17.6c6.5 13.9 27.9 13.5 34.4 0 2.5-5.3 1.1-13.4 1.1-19.1 0-14.3-1.1-29.1.5-43.3 5 .8 10.1 5.6 13.6 9.1 10.2 10.1 16.9 22.9 20.6 36.8s.8 16.6 8.7 22.7c12.2 9.5 34.3 1 31.5-16.2-1.4-8.7-5.2-16.9-10-24.2s-7.2-7.3-6.4-11.1c10.5 5.1 21.5 9.1 31.7 15 15.3 8.9 29.8 22.6 40 36.9 9.9 13.8 17.9 27.5 24.1 43.3s10.7 38.4 9.5 57.9c-.8 13.3-5.4 26.3-17.2 33.9s-15.6 4.4-23.7 4.4h-264.5c-12.4 0-29.3 2.8-40.3-4-21.3-13.1-20.2-45.2-15.7-66.6 9-42.3 33.1-81.2 69.1-105.8 9.7-6.7 20.7-10.1 31.2-15.1.3 3.3-4 7.2-5.6 10.1-4.2 7.2-7.9 14.4-9.3 22.7-3.1 19.1 17.8 28.8 32 17.4s5.4-15.3 8.2-23.4c5.7-16.9 17-38.1 35.1-44.3zm188.9 39.3.5.5zm2 2.5.5.5zm22.2 30.2-.5.5zm-284.2 19.4c-10.1 1.5-19.4 6.7-25.2 15.4s-4.4 14.3 2.5 19.1 11 3.4 16.1 1.4 6.3-3.6 9.6-3.5c6.1.2 10.4 4.7 17.1 3.6 13-2.2 16.3-13 9-23s-18.8-14.4-29.2-12.9zm157.2.5c-9.1 1.5-18.5 7.5-23.3 15.4s-3.7 10.9 1.1 14.9 11.9 6.3 18.6 4.3 6.2-3.7 9.3-3.5c6.2.5 10.5 5.5 17.4 4.4 13.2-2.2 14.4-14.5 7.3-23.5-6.8-8.7-19.6-13.7-30.5-11.9z"/></svg>