<svg height="40px" enable-background="new 0 0 72 72" viewBox="0 0 72 72" xmlns="http://www.w3.org/2000/svg"><path d="m68.1 43.7c-.1-.3-.4-.5-.7-.5-.2 0-.3.1-.6.2l-1.1.6-1.4.8-1.5.8-2.4 1.3-3.3 1.8-3.2 1.7-.6.3-4.1 2.2-1 .5c-.4.2-.6.5-.6.9s.2.7.6.9l.2.1 1.3.7 1.9 1.1 1.5.8c.2.1.3.3.4.5v.2c0 .1-.1.3-.2.4l-4.8 4.8-1 1-1 1-.6.6c-.3.3-.4.7-.3 1s.4.5.7.5c.2 0 .3 0 .6-.2h.1l1-.5.1-.1 1.3-.7 1.5-.8 14.6-7.7c.4-.2.6-.5.6-.9s-.2-.7-.6-.9l-4.8-2.8c-.2-.1-.3-.3-.3-.5s0-.4.2-.6l4.8-4.8 1-1 1-1 .6-.6c.1-.5.2-.8.1-1.1z" fill="#fc0"/><path d="m68.5 46.9-.9.9-1 1-.1.1c1.3 1.9 2.1 4.2 2.1 6.6 0 6.5-5.3 11.8-11.8 11.8-2.2 0-4.3-.6-6.1-1.7l-1.5.8-1.3.6-.1.1c2.5 1.9 5.6 3.1 9 3.1 8.1 0 14.7-6.6 14.7-14.7-.1-3.2-1.2-6.2-3-8.6z" fill="#3cc"/><path d="m63.3 42.9.4-.2c-.6-.3-1.3-.7-2-.9-1.4-.5-2.9-.8-4.5-.9-.2 0-.3 0-.5 0-1.1 0-2.1.1-3.2.4-1.3.3-2.5.7-3.7 1.4-.2.1-.4.2-.6.3-1.7 1-3.3 2.4-4.5 4-1.1 1.6-2 3.3-2.4 5.3-.2 1.1-.4 2.2-.4 3.3 0 1.9.4 3.7 1 5.4 0 .1 0 .1.1.2 0 0 0 .1.1.1.5 1.1 1.1 2.2 1.8 3.2.2.2.3.4.5.6.2.3.5.6.8.8l1-1 1-1c-.1-.1-.2-.3-.4-.4-.2-.2-.4-.5-.6-.7-.7-1-1.3-2.1-1.8-3.2v-.1c-.4-1.2-.6-2.5-.6-3.8 0-2.7.9-5.2 2.5-7.1.7-.9 1.5-1.7 2.4-2.3 1.1-.8 2.3-1.4 3.7-1.8 1-.3 2-.4 3-.4h.2.5c1.1 0 2.2.3 3.2.6l1.4-.8z" fill="#3cc"/><g fill="none"><path d="m48.5 50.7c.2-.1.5-.3.9-.5-.2.1-.4.1-.6.1-.1.2-.2.3-.3.4z"/><path d="m54.8 47.4c.6-.3 1.2-.6 1.2-.6s.3-.2.7-.4h-.1c-.1 0-.1 0-.2 0-.3 0-.5 0-.8 0-.2.3-.5.7-.8 1z"/><path d="m48.6 57.9c-.1 0-1.1-.6-1.2-.7l-.1-.1c.1.6.2 1.1.4 1.6l.1.2c.1.3.3.6.5.9l1.9-1.1c-.8-.3-1.6-.7-1.6-.8z"/><path d="m56.8 65c2.6 0 5-1.1 6.7-2.8.4-.4.8-.9 1.1-1.4-1.9 1.1-5.1 2.8-7.8 4.2z"/></g><path d="m-5.8 50.1h25.1s-4.8-21.9 11.1-30.7c3.5-1.7 14.5-8 32.5 5.4.6-.5 1.1-.9 1.1-.9s-16.5-16.5-34.9-14.7c-9.2.8-20.6 9.2-27.3 20.3s-7.6 20.6-7.6 20.6zm0 0h25.1s-4.8-21.9 11.1-30.7c3.5-1.7 14.5-8 32.5 5.4.6-.5 1.1-.9 1.1-.9s-16.5-16.5-34.9-14.7c-9.2.8-20.6 9.2-27.3 20.3s-7.6 20.6-7.6 20.6zm0 0h25.1s-4.8-21.9 11.1-30.7c3.5-1.7 14.5-8 32.5 5.4.6-.5 1.1-.9 1.1-.9s-16.5-16.5-34.9-14.7c-9.3.8-20.6 9.2-27.3 20.3s-7.6 20.6-7.6 20.6zm52.3-39.1.1-2.1c-.3-.2-1.1-.5-3.1-1.1l-.1 2.1c1 .3 2.1.7 3.1 1.1zm-3 6.7-.1 2c1 0 2.1.2 3.1.4l.1-2c-1.1-.2-2.1-.3-3.1-.4zm-11.8-9.9h.3l-.6-1.9c-1 0-2 .1-3 .2l.6 1.9c.9-.1 1.8-.2 2.7-.2zm1.5 11.7.7 2.2c.9-.4 1.8-.8 2.8-1.1l-.7-2.1c-1 .3-2 .7-2.8 1zm-14.4-8.3-1.4-2.2c-.8.4-1.6.9-2.5 1.4l1.5 2.2c.8-.5 1.6-1 2.4-1.4zm6.5 14.3 1.5 2.3c.5-.8 1.2-1.5 1.9-2.3l-1.4-2.2c-.7.7-1.4 1.4-2 2.2zm-4.6 10.2 2.6 2c.1-1.2.3-2.5.7-3.7l-2.3-1.8c-.4 1.2-.7 2.3-1 3.5zm-13.9-15.1-2.3-2c-.8.8-1.5 1.6-2.3 2.4l2.4 2.1c.7-.8 1.5-1.7 2.2-2.5zm-9.6 14.2-3.7-1.3c-.6 1.4-1.3 3-1.6 3.8l3.7 1.3c.5-1.1 1.1-2.6 1.6-3.8zm23.1 8.9c.1 1.7.2 3 .4 4l3.8 1.4c-.3-1.2-.6-2.6-.8-4.1z" fill="#c00" transform="translate(8 8)"/></svg>