<?xml version="1.0" encoding="UTF-8"?>
<svg width="32px" height="39px" viewBox="0 0 32 39" version="1.1" xmlns="http://www.w3.org/2000/svg" xmlns:xlink="http://www.w3.org/1999/xlink">
    <!-- Generator: Sketch 53.2 (72643) - https://sketchapp.com -->
    <title>OpenVPN</title>
    <desc>Created with Sketch.</desc>
    <g id="OpenVPN" stroke="none" stroke-width="1" fill="none" fill-rule="evenodd">
        <g id="Group" transform="translate(3.000000, 5.000000)">
            <path d="M11.0448714,17.7338416 C9.11666599,16.9840696 7.75,15.1099691 7.75,12.9166667 C7.75,10.0631955 10.0631955,7.75 12.9166667,7.75 C15.7701379,7.75 18.0833333,10.0631955 18.0833333,12.9166667 C18.0833333,15.0963045 16.7336434,16.9607053 14.8244355,17.7196972 L16.9145952,29.610174 C15.1740509,29.8742257 13.8414081,30.0062515 12.9166667,30.0062515 C11.9919253,30.0062515 10.6463245,29.8742257 8.87986432,29.610174 L11.0448714,17.7338416 Z" id="Combined-Shape" fill="#939598"></path>
            <path d="M19.4318224,24.0722499 C23.2612655,21.8309224 25.8333333,17.6741639 25.8333333,12.9166667 C25.8333333,5.78298865 20.0503447,0 12.9166667,0 C5.78298865,0 0,5.78298865 0,12.9166667 C0,17.5860676 2.47769399,21.6767721 6.19007928,23.9457775" id="Shape" stroke="#979797" stroke-width="6"></path>
        </g>
    </g>
</svg>