<svg width="50px" height="50px" enable-background="new 0 0 72 72" viewBox="0 0 72 72" xmlns="http://www.w3.org/2000/svg" xmlns:xlink="http://www.w3.org/1999/xlink"><linearGradient id="a" gradientTransform="matrix(34.9708 0 0 -34.9708 3620.3428 2477.1978)" gradientUnits="userSpaceOnUse" x1="-102.578" x2="-101.578" y1="69.422" y2="69.422"><stop offset="0" stop-color="#1f2022"/><stop offset="1" stop-color="#635e69"/></linearGradient><linearGradient id="b" gradientTransform="matrix(0 -40.6773 -40.6773 0 2862.3748 -4133.4233)" gradientUnits="userSpaceOnUse" x1="-102.578" x2="-101.578" y1="69.4628" y2="69.4628"><stop offset="0" stop-color="#2087e2"/><stop offset="1" stop-color="#b63fff"/></linearGradient><linearGradient id="c" gradientTransform="matrix(19.9923 0 0 -19.9923 2054.5364 1424.6788)" gradientUnits="userSpaceOnUse" x1="-102.578" x2="-101.578" y1="69.6671" y2="69.6671"><stop offset="0" stop-color="#100f0f"/><stop offset="1" stop-color="#49261f"/></linearGradient><linearGradient id="d" gradientTransform="matrix(0 -18.5285 -18.5285 0 1317.7036 -1831.8047)" gradientUnits="userSpaceOnUse" x1="-102.578" x2="-101.578" y1="69.5228" y2="69.5228"><stop offset="0" stop-color="#222020"/><stop offset="1" stop-color="#49261f"/></linearGradient><linearGradient id="e" gradientTransform="matrix(0 -9.0633 -9.0633 0 646.8424 -873.8506)" gradientUnits="userSpaceOnUse" x1="-102.578" x2="-101.578" y1="69.7002" y2="69.7002"><stop offset="0" stop-color="#1e1c1c"/><stop offset="1" stop-color="#49261f"/></linearGradient><linearGradient id="f"><stop offset="0" stop-color="#fff" stop-opacity=".5"/><stop offset="1" stop-color="#fff" stop-opacity=".2"/></linearGradient><linearGradient id="g" gradientTransform="matrix(0 16.3239 16.3239 0 -1103.2606 1674.714)" gradientUnits="userSpaceOnUse" x1="-102.578" x2="-101.578" xlink:href="#f" y1="69.8745" y2="69.8745"/><linearGradient id="h" gradientTransform="matrix(0 13.403 13.403 0 -923.2377 1396.671)" gradientUnits="userSpaceOnUse" x1="-102.578" x2="-101.578" xlink:href="#f" y1="69.5144" y2="69.5144"/><path d="m66 51.9c.7-1.9.7-3.7.1-5.2s-1.7-2.7-3.4-3.7c-1.6-.9-3.5-1.6-5.7-2-2-.4-4.3-.5-6.7-.5-2.3.1-4.5.3-6.7.8-2.1.4-3.9 1-5.5 1.6-1.6.7-2.8 1.4-3.6 2.2-.9.8-1.3 1.7-1.4 2.5-.1 1 .5 2.1 1.6 3.3 1 1.1 2.5 2.2 4.3 3.2 1.9 1.1 3.9 2 6.1 2.7 2.4.8 4.8 1.3 7.1 1.5 1.5.1 2.9.2 4.2.1 1.4-.1 2.7-.4 3.9-.9 1.3-.5 2.4-1.2 3.3-2.1 1.2-1 1.9-2.1 2.4-3.5m-14.3-5.4c.8.4 1.3.9 1.7 1.5.4.7.4 1.4.2 2.3-.2.6-.4 1.1-.8 1.5-.3.4-.8.7-1.4.9-.5.2-1.1.4-1.7.4-.7.1-1.3.1-2 0-1.2-.1-2.4-.3-3.8-.7-1.2-.4-2.4-.8-3.5-1.4-1-.5-1.9-1-2.5-1.6s-.9-1.1-.9-1.5.3-.7.8-1.1c.5-.3 1.1-.6 2-.9.8-.3 1.8-.5 2.8-.6 1.2-.1 2.3-.2 3.3-.2 1.2 0 2.2.1 3.2.3.9.4 1.8.7 2.6 1.1z" fill="url(#a)" transform="matrix(1.04457 0 0 1.04457 -.742448 -.062673)"/><path d="m48.9 10.5c0-2.5-.7-4.5-1.8-6.2-1.2-1.8-3-3-5.3-3.7-.5-.2-1.1-.3-1.7-.3-.5-.1-1.1-.1-1.6 0-.5 0-1 .1-1.5.2-.4.1-.9.2-1.4.4-1.7.7-3.2 1.8-4.6 3.5-1.3 1.5-2.4 3.4-3.3 5.6-.8 1.9-1.4 4-1.9 6.2-.5 2.1-.8 4.3-.9 6.5-.1 2-.1 3.9 0 5.7s.4 3.4.8 4.9c.7 3 1.9 4.8 3.4 5.5.1.1.3.1.4.2l.9.1h.5c1-.1 2-.5 3.3-1.2 1.2-.7 2.4-1.7 3.7-2.9 1.4-1.3 2.7-2.9 4-4.6 1.3-1.8 2.5-3.8 3.6-5.8 1.2-2.4 2.2-4.8 2.8-7.1.4-2.5.7-4.8.6-7m-13 5.6c.2 0 .4.1.6.2 1.9.6 2.8 2.1 2.8 4.4 0 1.9-.6 4.1-1.7 6.5-1 2.1-2.2 3.9-3.5 5.4s-2.4 2.2-3.2 2.3h-.2-.3l-.2-.1c-.6-.3-1.1-1.3-1.3-2.9-.3-1.7-.2-3.6 0-5.7.3-2.4.9-4.5 1.7-6.3 1-2.1 2.2-3.4 3.6-3.8.3-.1.4-.1.5-.1h.5s.5 0 .7.1z" fill="url(#b)" transform="matrix(1.04457 0 0 1.04457 -.742448 -.062673)"/><path d="m5.1 23.2c-.3.4-.5.8-.7 1.2-.2.6-.3 1.1-.4 1.6-.5 2.2-.2 4.4.8 6.5.8 1.7 2.1 3.4 4 4.9 1.6 1.3 3.5 2.4 5.5 3.3 2.1.8 3.9 1.2 5.4 1.2.3 0 .6 0 1-.1.3-.1.6-.2.9-.3.2-.1.4-.3.7-.4.2-.2.4-.4.5-.6.5-1.1.4-2.7-.4-4.9-.9-2.1-2.2-4.3-3.9-6.5-1.8-2.3-3.7-4.2-5.7-5.5-2.1-1.4-4-2-5.5-1.6-.4.1-.7.3-1 .5-.6.1-.9.4-1.2.7m5.1 6.9c.1-.2.2-.4.3-.5s.3-.2.4-.3c.2-.1.3-.1.5-.1.7-.1 1.7.2 2.8 1 1 .7 2 1.6 3 2.8.9 1.1 1.6 2.2 2.2 3.2.5 1.1.7 1.8.5 2.3 0 .1-.1.2-.2.2-.1.1-.1.1-.2.2 0 0-.1.1-.3.1l-.4.1c-.7 0-1.7-.2-2.8-.6-1.1-.5-2.2-1.1-3.2-1.8-1.1-.8-1.9-1.7-2.4-2.6-.6-1.1-.7-2.1-.4-3.2 0-.5.1-.7.2-.8z" fill="url(#c)" transform="matrix(1.04457 0 0 1.04457 -.742448 -.062673)"/><path d="m27.2 51.1h-.1c-.7 0-1.4.2-2 .7-.5.5-1 1.2-1.4 2.1-.3.8-.6 1.7-.7 2.7s-.2 2-.1 3.1c.2 2.2.8 4 1.9 5.5 1.3 1.7 3.1 2.9 5.3 3.4h.1l.2.1h.1c2.5.5 4.2 0 5-1.4.4-.7.6-1.5.6-2.5s-.2-2.1-.5-3.2c-.3-1.2-.8-2.4-1.4-3.6s-1.3-2.3-2.1-3.3-1.6-1.9-2.5-2.5c-.8-.7-1.6-1.1-2.4-1.1m-.9 4.2c.4-1 .8-1.5 1.4-1.4.6.1 1.2.7 2 1.8s1.4 2.3 1.7 3.5c.4 1.3.5 2.4.3 3.2-.3.8-1 1.2-2.2 1h-.1c-1.1-.2-2-.8-2.6-1.8-.5-.9-.8-1.9-.9-3.2-.1-1.1 0-2.2.4-3.1z" fill="url(#d)" transform="matrix(1.04457 0 0 1.04457 -.742448 -.062673)"/><path d="m18.8 48c-.2-.2-.5-.3-.8-.4s-.6-.2-.9-.2c-.3-.1-.6-.1-1-.1-1 0-1.9.1-2.9.4-.9.3-1.7.7-2.2 1.3-.6.6-.8 1.3-.8 2.1s.4 1.8 1.2 2.7c.2.3.5.5.8.8.2.2.5.4.8.6.2.1.5.3.8.4s.6.2.8.2c.8.1 1.6-.1 2.4-.5s1.4-1.1 2-1.9.9-1.7 1.1-2.5c.1-1 0-1.7-.5-2.4-.4-.2-.5-.4-.8-.5m-.6 1.4c.2.3.3.6.1 1.1-.1.4-.3.9-.6 1.3s-.7.8-1.1 1c-.4.3-.9.4-1.3.3l-.4-.1c-.1 0-.3-.1-.4-.2-.1 0-.2-.1-.4-.3-.1-.1-.2-.2-.3-.4-.4-.5-.6-1-.5-1.4 0-.4.3-.7.7-1s.9-.5 1.4-.6c.6-.1 1.2-.1 1.7-.1h.4l.3.1c.1 0 .2.1.2.1z" fill="url(#e)" transform="matrix(1.04457 0 0 1.04457 -.742448 -.062673)"/><path d="m39.3 13.4c3.2 0 6.3.4 9.3 1.2.2-1.4.3-2.8.3-4 0-2.6-.7-4.6-1.8-6.3-1.2-1.8-3-3-5.3-3.7-.5-.2-1.1-.3-1.7-.3-.5-.1-1.1-.1-1.6 0-.5 0-1 .1-1.5.2-.4.1-.9.2-1.4.4-1.7.7-3.2 1.8-4.6 3.5-1.3 1.5-2.4 3.4-3.3 5.6-.8 1.8-1.4 3.8-1.9 5.9 4.3-1.7 8.8-2.5 13.5-2.5z" fill="url(#g)" transform="matrix(1.04457 0 0 1.04457 -.742448 -.062673)"/><path d="m4 26c-.5 2.2-.2 4.4.8 6.5.3.7.8 1.4 1.3 2.1 1.6-3.9 4-7.5 7.1-10.6-.2-.1-.4-.3-.7-.5-2.1-1.4-4-2-5.5-1.6-.4.1-.7.3-1 .5s-.6.5-.9.8c-.3.4-.5.8-.7 1.2-.2.6-.3 1.1-.4 1.6z" fill="url(#h)" transform="matrix(1.04457 0 0 1.04457 -.742448 -.062673)"/></svg>