<svg width="50px" height="50px" enable-background="new 0 0 72 72"  viewBox="0 0 72 72" xmlns="http://www.w3.org/2000/svg"><g fill="#939598" transform="matrix(1.04457 0 0 1.04457 -.742448 -.062673)"><path d="m65.9 51.7c.7-1.9.7-3.7.1-5.2s-1.7-2.7-3.4-3.7c-1.6-.9-3.5-1.6-5.7-2-2-.4-4.3-.5-6.7-.5-2.3.1-4.5.3-6.7.8-2.1.4-3.9 1-5.5 1.6-1.6.7-2.8 1.4-3.6 2.2-.9.8-1.3 1.7-1.4 2.5-.1 1 .5 2.1 1.6 3.3 1 1.1 2.5 2.2 4.3 3.2 1.9 1.1 3.9 2 6.1 2.7 2.4.8 4.8 1.3 7.1 1.5 1.5.1 2.9.2 4.2.1 1.4-.1 2.7-.4 3.9-.9 1.3-.5 2.4-1.2 3.3-2.1 1.2-.9 1.9-2.1 2.4-3.5m-14.3-5.4c.8.4 1.3.9 1.7 1.5.4.7.4 1.4.2 2.3-.2.6-.4 1.1-.8 1.5-.3.4-.8.7-1.4.9-.5.2-1.1.4-1.7.4-.7.1-1.3.1-2 0-1.2-.1-2.4-.3-3.8-.7-1.2-.4-2.4-.8-3.5-1.4-1-.5-1.9-1-2.5-1.6s-.9-1.1-.9-1.5.3-.7.8-1.1c.5-.3 1.1-.6 2-.9.8-.3 1.8-.5 2.8-.6 1.2-.1 2.3-.2 3.3-.2 1.2 0 2.2.1 3.2.3.9.4 1.8.7 2.6 1.1z"/><path d="m48.8 10.3c-.1-2.5-.7-4.5-1.9-6.2-1.2-1.8-3-3-5.3-3.7-.5-.2-1.1-.3-1.7-.3-.5-.1-1.1-.1-1.6 0-.5 0-1 .1-1.5.2-.4.1-.9.2-1.4.4-1.7.7-3.2 1.8-4.6 3.5-1.3 1.5-2.4 3.4-3.3 5.6-.8 1.9-1.4 4-1.9 6.2-.5 2.1-.8 4.3-.9 6.5-.1 2-.1 3.9 0 5.7s.4 3.4.8 4.9c.7 3 1.9 4.8 3.4 5.5.1.1.3.1.4.2l.9.1h.5c1-.1 2-.5 3.3-1.2 1.2-.7 2.4-1.7 3.7-2.9 1.4-1.3 2.7-2.9 4-4.6 1.3-1.8 2.5-3.8 3.6-5.8 1.2-2.4 2.2-4.8 2.8-7.1.5-2.5.8-4.8.7-7m-13 5.6c.2 0 .4.1.6.2 1.9.6 2.8 2.1 2.8 4.4 0 1.9-.6 4.1-1.7 6.5-1 2.1-2.2 3.9-3.5 5.4s-2.4 2.2-3.2 2.3h-.2-.3l-.2-.1c-.6-.3-1.1-1.3-1.3-2.9-.3-1.7-.2-3.6 0-5.7.3-2.4.9-4.5 1.7-6.3 1-2.1 2.2-3.4 3.6-3.8.3-.1.4-.1.5-.1h.5c.2 0 .5 0 .7.1z"/><path d="m5 23.1c-.3.4-.5.8-.7 1.2-.2.5-.4 1.1-.4 1.6-.5 2.2-.2 4.4.8 6.5.8 1.7 2.1 3.4 4 4.9 1.6 1.3 3.5 2.4 5.5 3.3 2.1.8 3.9 1.2 5.4 1.2.3 0 .6 0 1-.1l.9-.3c.2-.1.4-.3.7-.4.2-.2.4-.4.5-.6.5-1.1.4-2.7-.4-4.9-.9-2.1-2.2-4.3-3.9-6.5-1.8-2.3-3.7-4.2-5.7-5.5-2.1-1.4-4-2-5.5-1.6-.4.1-.7.3-1 .5-.6 0-.9.3-1.2.7m5.1 6.8c.1-.2.2-.4.3-.5s.3-.2.4-.3c.2-.1.4-.1.5-.1.7-.1 1.7.2 2.8 1 1 .7 2 1.6 3 2.8.9 1.1 1.6 2.2 2.2 3.2.5 1.1.7 1.8.5 2.3 0 .1-.1.2-.2.2-.1.1-.1.1-.2.2 0 0-.1.1-.3.1l-.4.1c-.7 0-1.7-.2-2.8-.6-1.1-.5-2.2-1.1-3.2-1.8-1.1-.8-1.9-1.7-2.4-2.6-.6-1.1-.7-2.1-.4-3.2 0-.4.1-.6.2-.8z"/><path d="m27.1 50.9h-.1c-.7 0-1.4.2-2 .7-.5.5-1 1.2-1.4 2.1-.3.8-.6 1.7-.7 2.7s-.2 2-.1 3.1c.2 2.2.8 4 1.9 5.5 1.3 1.7 3.1 2.9 5.3 3.4h.1l.2.1h.1c2.5.5 4.2 0 5-1.4.4-.7.6-1.5.6-2.5s-.2-2.1-.5-3.2c-.3-1.2-.8-2.4-1.4-3.6s-1.3-2.3-2.1-3.3-1.6-1.9-2.5-2.5c-.8-.7-1.6-1-2.4-1.1m-.9 4.3c.4-1 .8-1.5 1.4-1.4.6.1 1.2.7 2 1.8s1.4 2.3 1.7 3.5c.4 1.3.5 2.4.3 3.2-.3.8-1 1.2-2.2 1h-.1c-1.1-.2-2-.8-2.6-1.8-.5-.9-.8-1.9-.9-3.2-.1-1.2 0-2.3.4-3.1z"/><path d="m18.7 47.8c-.2-.2-.5-.3-.8-.4s-.6-.2-.9-.2c-.3-.1-.6-.1-1-.1-1 0-1.9.1-2.9.4-.9.3-1.7.7-2.2 1.3-.6.6-.8 1.3-.8 2.1s.4 1.8 1.2 2.7c.2.3.5.5.8.8.2.2.5.4.8.6.2.1.5.3.8.4s.6.2.8.2c.8.1 1.6-.1 2.4-.5s1.4-1.1 2-1.9.9-1.7 1.1-2.5c.1-1 0-1.7-.5-2.4-.4-.2-.6-.4-.8-.5m-.6 1.4c.2.3.3.6.1 1.1-.1.4-.3.9-.6 1.3s-.7.8-1.1 1c-.5.3-.9.4-1.3.4l-.4-.1c-.1 0-.3-.1-.4-.2-.1 0-.2-.1-.4-.3-.1-.1-.2-.2-.3-.4-.4-.5-.6-1-.5-1.4 0-.4.3-.7.7-1s.9-.5 1.4-.6 1.1-.2 1.6-.2h.4l.3.1c.1 0 .2.1.2.1z"/></g></svg>