<svg enable-background="new 0 0 243.7 243.7" viewBox="0 0 243.7 243.7" xmlns="http://www.w3.org/2000/svg" xmlns:xlink="http://www.w3.org/1999/xlink"><linearGradient id="a" gradientUnits="userSpaceOnUse" x1="30.2279" x2="213.4721" y1="121.85" y2="121.85"><stop offset="0" stop-color="#2645ff"/><stop offset=".419" stop-color="#4a70ff"/><stop offset=".779" stop-color="#638eff"/><stop offset=".982" stop-color="#6d99ff"/></linearGradient><path d="m38.3 241.1c.3-1.5.5-2.7.7-3.9 3.4-16.2 15.5-75.1 18.3-88.2 2.2-10.6 6.4-20.4 12.9-29.2 5.6-7.6 12.4-14 20.5-19.1 6.2-3.9 12.8-6.8 19.8-8.8 4.5-1.3 9-2.2 13.7-2.4 6.4-.2 12.7-.3 19.1-.3 8.5-.1 15.5-6 16.8-14.3 1-6.8-2.5-13.6-8.3-16.8-2.6-1.5-5.5-2.2-8.5-2.2h-58.6c-5.1 0-10.1-.5-15-1.8-8.7-2.4-16.3-6.5-22.9-12.8-5.2-5-9.3-10.8-12.2-17.4-2-4.6-3.4-9.5-3.9-14.6-.2-2.1-.3-4.3-.5-6.6.8 0 1.5-.1 2.1-.1 12.8 0 85.9-.1 109.6 0 8.3 0 16.5 1 24.4 3.8 8.6 3 16.4 7.5 23.3 13.5 5.1 4.5 9.6 9.6 13.2 15.4 5 8.1 8.4 16.9 9.8 26.3.7 4.7 1 9.3.8 14-.4 8.6-2.3 16.9-5.7 24.9-3.2 7.3-7.5 13.9-13 19.7-5.1 5.5-10.9 10-17.4 13.6-4.9 2.7-10 4.8-15.4 6.2-4.3 1.1-8.6 2-13.1 2.2-2.7.1-5.5.1-8.2.3-4.9.4-9.7 1.6-14.1 3.7-9 4.2-15.6 10.8-19.9 19.8-2 4.1-3 8.4-3.8 12.9-.8 4.7-1.7 9.4-2.8 14.1-1.6 6.9-4.5 13.3-8.4 19.3-4.5 6.9-10.2 12.7-16.9 17.5-7.6 5.3-15.9 8.7-25 10.3-2.9.5-5.8.7-8.6 1-.9.1-1.7 0-2.8 0z" fill="url(#a)"/></svg>