<svg width="50px" height="50px" enable-background="new 0 0 72 72" viewBox="0 0 72 72" xmlns="http://www.w3.org/2000/svg"><path d="m36.1 20.9c2.3-2.8 1.7-4.6.8-7.7-.3-1-3-5.6 2-8.1-.6 1.8-1.4 3.5-.1 6 3.1 6.2.6 7.8-2.5 10zm-15.9-.4c3.8-2.4 3.7-5.5 1.6-9.5-1.3-2.4-.5-4.1.2-5.9-3.5 1.9-3.8 4.5-2.2 7.9 3 6.2-2.6 9.4.4 7.5zm7.1-15.1c.2 3.1 3.9 5.6.3 11 .4-.1.8-.3 1.1-.5 4.9-3.1 2.5-7.1 1.3-9.8-1-2.3-.4-3.3.3-5.5-2 .8-3.2 2.9-3 4.8zm39 42.7c-4.9 9.6-13.8 11.9-18.7 13.9-2 .8-1.7 6.7-8.5 8.4-2.5.6-5.1 1-7.7 1-15.6-.1-19.9.4-24.3-14-3.5-11.1-3.2-17.5-3.8-31.4 0-.7-.3-2.4 1.4-2.8.6-.2-2.4-.2 45.3-.2 1.8 0 2.5.7 2.5 2.4 0 1.2 0 1.3 1.2 1.4 5.3.7 11.1-.7 13.7 5.7 2.3 5.5 1.5 10.6-1.1 15.6zm-30.6-.8c0-7.4-5-9.4-7-10.8-5.2-3.6-5.2-4.1-5.8-3.4-6.1 7.2-5.5 15.8.4 20.3 3.3 2.6 8.8 3.4 9.1 3.3-1.2-5.7-4.4-12.4-7.3-17.3 4.4 4.3 6.9 11.3 7.3 17.3.3 0 3.3-4.8 3.3-9.4zm28.6-13.1c-2.7-4.6-7.7-4.6-11.9-1-.9.7.7 6.3-2.9 21.6 8.4 1.5 19.1-13.4 14.8-20.6z" fill="#d2f36b"/></svg>