<?xml version="1.0" encoding="utf-8"?>
<!-- Generator: Adobe Illustrator 24.0.3, SVG Export Plug-In . SVG Version: 6.00 Build 0)  -->
<svg width="50px" height="50px" version="1.1" id="Layer_1" xmlns="http://www.w3.org/2000/svg" xmlns:xlink="http://www.w3.org/1999/xlink" x="0px" y="0px"
	 viewBox="0 0 1024 1024" style="enable-background:new 0 0 1024 1024;" xml:space="preserve">
<style type="text/css">
	.st0{fill:#CCCCCC;}
	.st1{fill:none;stroke:#CCCCCC;stroke-width:2.8902;stroke-linecap:round;stroke-linejoin:round;}
	.st2{fill:none;stroke:#CCCCCC;stroke-width:6.9846;stroke-linecap:round;stroke-linejoin:round;}
	.st3{fill:#6C78AF;}
	.st4{fill:#F89C0E;}
</style>
<g>
	<g id="g5">
		<path id="path14" class="st0" d="M739.4,253.2l-0.5-1c-0.2-0.2-0.5-0.5-1-0.5l-1,0.2c-0.5,0.5-0.7,0.7-0.7,1.2l-20.8,377.3
			l3.2-0.5l20.1-367l24,39.5h-0.2c18.1,53.4,25.7,110.3,22.8,170.6l1.5,2.2l23.8,42.2l1.5,1.5c36.5,32.1,77.5,53.7,122.8,64.7
			l11,17.9l1.5,0.5l0.2-0.5L738.9,260.3L739.4,253.2"/>
		<path id="path18" class="st0" d="M732.1,386.4c25.7,52.7,35.1,132.4,28.2,239l100.3-12.3L732.1,386.4z"/>
		<path id="path20" class="st0" d="M960.5,618c10.3-1.2,16.9-3.4,19.9-6.6l-524.6,64h-0.2c0.2,21.8,10.1,39,29.2,51.2
			c5.1,3.7,10.5,6.4,15.4,8.1c4.7-5.4,9.8-9.3,15.9-13h0.2c54.9-33.3,136.5-38.5,244.4-15.7l1.2,0.2c11.8,2.5,23.5,5.4,34.6,8.8
			c3.2,0.5,5.9-0.5,8.1-2.5c3.9-2.9,8.8-5.1,15.4-6.6v-0.2c17.4-30.9,40.9-53.7,70.4-68.6C910.8,627.1,934.3,620.5,960.5,618"/>
		<path id="path22" class="st0" d="M708.5,627.6l24-368.2c-34.8,134.3-90.7,259.9-167.4,376.3L708.5,627.6"/>
		<path id="path24" class="st0" d="M573.4,331l-1-0.5l-1,0.2l-0.5,1.2l-19.9,318.7l2.9-0.2l19.9-318.4L573.4,331"/>
		<path id="path26" class="st0" d="M545.5,643.8L545.5,643.8l21.1-310.8L455.5,653.3L545.5,643.8"/>
	</g>
	<g id="g13">
		<path id="path34" class="st1" d="M549.9,747.4c-27.7,13.2-47.8,15.4-60.6,7.4c-12.7-8.6-32.4-6.6-58.8,5.9"/>
		<path id="path36" class="st1" d="M614.9,749.3c-5.1-1.7-10.8-2.9-16.7-3.4c-12-1-26.5,3.7-43.4,13.7c-16.9,10.3-37.3,14.2-61.5,12
			"/>
		<path id="path38" class="st1" d="M766.1,724.3c-116.7-24-200.8-18.4-252.3,17.2"/>
		<path id="path40" class="st1" d="M839.7,735.8c-5.1-2-10.8-3.2-16.7-3.4c-12-1-26.5,3.7-43.4,13.7c-16.9,10-37.3,14-61.5,12"/>
		<path id="path42" class="st2" d="M683,333.9c-12-7.4-24.5-5.4-37.5,6.1c-11.3-11.5-23-13.5-35.3-6.1"/>
		<path id="path44" class="st2" d="M655.8,292.7c-12.3-7.4-24.3-4.4-36.5,8.8c-12-13.2-24.3-16.2-36.5-8.8"/>
	</g>
	<g id="g33">
		<path id="path66" class="st3" d="M57.2,676.5h32.5c9.8,0,16.9,2.8,21.5,8.3c4.6,5.6,6.1,13.3,4.5,23.2c-0.7,4.1-1.8,7.8-3.5,11.2
			c-1.7,3.4-3.9,6.5-6.7,9.3c-3.3,3.4-7,5.8-11.1,7.3c-4.1,1.5-9.3,2.2-15.7,2.2H64.1l-3.6,22.3H43.6L57.2,676.5L57.2,676.5z
			 M71.9,689.8L66.2,725h10.3c6.8,0,11.9-1.4,15.1-4.2c3.3-2.8,5.5-7.4,6.5-13.9c1-6.3,0.4-10.7-1.8-13.2c-2.2-2.6-6.5-3.9-12.9-3.9
			H71.9"/>
		<path id="path68" class="st3" d="M134.6,654.3h16.8l-3.6,22.3h14.9c9.4,0,15.9,1.8,19.5,5.3c3.6,3.6,4.8,9.3,3.5,17.2l-6.3,39.1
			h-17l6-37.2c0.7-4.2,0.4-7.1-1-8.6c-1.3-1.5-4.2-2.3-8.4-2.3h-13.4l-7.8,48.1H121L134.6,654.3"/>
		<path id="path70" class="st3" d="M204,676.5h32.5c9.8,0,16.9,2.8,21.5,8.3c4.6,5.6,6.1,13.3,4.5,23.2c-0.7,4.1-1.8,7.8-3.5,11.2
			c-1.7,3.4-3.9,6.5-6.7,9.3c-3.3,3.4-7,5.8-11.1,7.3c-4.1,1.5-9.3,2.2-15.7,2.2H211l-3.6,22.3h-16.9L204,676.5L204,676.5z
			 M218.8,689.8l-5.7,35.2h10.3c6.8,0,11.9-1.4,15.1-4.2c3.3-2.8,5.5-7.4,6.5-13.9c1-6.3,0.4-10.7-1.8-13.2
			c-2.2-2.6-6.5-3.9-12.9-3.9H218.8"/>
	</g>
	<g id="g65">
		<path id="path72" class="st4" d="M291,636.4h32.5l14.3,78l39.5-78h32.4l-16.4,101.7h-21.7l14.6-79.2l-39.8,79.2h-23.5l-15-80
			l-10.7,80h-22.5L291,636.4"/>
		<path id="path74" class="st4" d="M448.7,721.6h16.4l9.4-58.2h20.4l-11.7,72.6c-1.6,9.9-5.2,17.2-10.7,21.9
			c-5.5,4.8-13.2,7.1-23.1,7.1h-40l2.4-15.1h36.5c3.9,0,7.1-0.9,9.5-2.7c2.4-1.8,3.9-4.5,4.4-8l0.2-1.3h-18.1
			c-11.5,0-19.4-2.2-23.6-6.6c-4.2-4.4-5.5-11.7-3.8-22l7.4-46h20.2l-7.2,44.5c-0.9,5.6-0.6,9.3,0.8,11.1
			C439.6,720.8,443.1,721.6,448.7,721.6"/>
		<path id="path76" class="st4" d="M549.8,636.4h23.5l28.5,101.7h-24.6l-5.8-24.2h-45.8l-13.3,24.2h-23.5L549.8,636.4L549.8,636.4z
			 M557.5,656.6l-21.7,39.1h31.4L557.5,656.6"/>
		<path id="path78" class="st4" d="M678.7,738.1h-39.2c-11.8,0-20.5-3.4-26.1-10.1c-5.5-6.7-7.3-16.1-5.4-28.2
			c0.8-4.9,2.2-9.5,4.3-13.6c2.1-4.1,4.8-7.9,8.1-11.3c4-4.1,8.5-7,13.5-8.8c5-1.8,11.3-2.7,19-2.7h17.5l4.4-27h20.3L678.7,738.1
			L678.7,738.1z M661,722.1l6.9-42.6h-12.3c-8.3,0-14.4,1.7-18.4,5c-4,3.3-6.6,8.9-7.9,16.7c-1.2,7.6-0.5,12.9,2.2,16.1
			c2.7,3.2,7.9,4.7,15.6,4.7H661"/>
		<path id="path80" class="st4" d="M708.5,663.4h78.3c11.4,0,19.2,2.1,23.5,6.4c4.3,4.3,5.7,11.2,4.1,20.9l-7.7,47.3h-20.6l7.2-44.8
			c0.9-5.5,0.6-9.1-0.8-10.9c-1.4-1.8-4.8-2.6-10.2-2.6h-11.4l-9.4,58.3h-20.9l9.4-58.3h-23.8l-9.4,58.3h-20.6L708.5,663.4"/>
		<path id="path82" class="st4" d="M859.9,654.9h-21.4l3-18.5h21.4L859.9,654.9z M846.5,738.1h-21.4l12.1-74.7h21.4L846.5,738.1"/>
		<path id="path84" class="st4" d="M876.2,663.4h38.4c11.6,0,19.5,2.1,23.8,6.3c4.3,4.2,5.6,11.2,4.1,21l-7.6,47.3h-20.4l7.3-44.9
			c0.9-5.6,0.6-9.2-0.9-10.9c-1.5-1.7-5-2.5-10.4-2.5h-16.4l-9.4,58.3h-20.4L876.2,663.4"/>
	</g>
</g>
</svg>
