<svg height="40px" enable-background="new 0 0 72 72" viewBox="0 0 72 72" xmlns="http://www.w3.org/2000/svg" xmlns:xlink="http://www.w3.org/1999/xlink"><defs><path id="a" d="m57 39.8-13.5-13.6c-4.1-4.1-10.8-4.1-14.9 0l-13.6 13.6c-4.1 4.1-4.1 10.8 0 14.9l13.6 13.6c4.1 4.1 10.8 4.1 14.9 0 0 0 13.6-13.7 13.7-13.8 4-4.1 3.9-10.7-.2-14.7zm-20.8 13.1c-6.8 0-9.5 5.3-9.5 9.6 0-7.4 3.9-9.1 3.9-14.9 0-7.2-6.8-9.4-9.3-9.6 5.9 0 9.6 4 14.5 4 6.4 0 9.3-5.1 9.5-8.6 0 5.5-3.9 8.9-3.9 13.5 0 5.8 4.5 9.6 9.6 9.7-5 .7-10.2-3.7-14.8-3.7z"/><clipPath id="b"><use xlink:href="#a"/></clipPath></defs><path d="m13.4.7c13.7 0 20.9 8.1 21.6 20.9 2.6-15.4 14.7-13.6 14.7-13.6.6 8.7-6.5 14-14.6 14.4-2.3-4.8-15.9-16.6-15.9-16.6-.1.1 13.1 11.5 12.6 16.5-8.8-1-17.7-7.6-18.4-21.6z" fill="#00d400"/><use fill="#f00" xlink:href="#a"/><g fill="#a30000"><path clip-path="url(#b)" d="m59.8 52c-.9 1-2.2 2.8-4.9 3.9-1.3.5-3.1 1.1-5.4.8-5.2-.7-9.1-6.3-8.7-10.8.2-1.6.7-1.4 3-6.9 1.4-3.3 1.7-5.7 1.7-7s.2-4.7-5.1-8.1c0 0 2.2.7 3.8 2.4l14.7 14.7c2.9 2.9 3.3 7.4 1 10.8z"/><path clip-path="url(#b)" d="m12.2 42.9c.9-1 2.2-2.8 4.9-3.9 1.3-.5 3.1-1.1 5.4-.8 5.2.7 9.1 6.3 8.7 10.8-.2 1.6-.7 1.4-3 6.9-1.4 3.3-1.6 5.7-1.6 7s-.2 4.3 4.9 7.5c0 0-2.1-.2-3.7-1.9l-14.7-14.7c-2.9-2.9-3.3-7.4-1-10.8z"/></g></svg>