<svg width="126px" height="52px" viewBox="0 0 126 52" version="1.1" xmlns="http://www.w3.org/2000/svg" xmlns:xlink="http://www.w3.org/1999/xlink">
    <g id="Page-1" stroke="none" stroke-width="1" fill="none" fill-rule="evenodd">
        <g id="plesk_logo_4c_primary_positive_cmyk">
            <g id="Group">
                <g id="Group-4" fill="#1A1919">
                    <path d="M19.858,24.628 C19.858,21.448 18.97,18.879 17.197,16.922 C15.423,14.966 12.927,13.987 9.709,13.987 C8.685,13.987 7.68,14.052 6.693,14.179 C5.705,14.308 4.736,14.535 3.786,14.865 L3.786,34.282 C4.663,34.576 5.568,34.823 6.501,35.023 C7.433,35.225 8.338,35.325 9.216,35.325 C12.47,35.325 15.057,34.402 16.977,32.555 C18.897,30.709 19.858,28.066 19.858,24.628 Z M3.786,52 L0,52 L0,12.177 C3.182,11.19 6.308,10.696 9.38,10.696 C11.61,10.696 13.64,11.044 15.469,11.738 C17.297,12.433 18.86,13.403 20.159,14.645 C21.456,15.889 22.453,17.37 23.148,19.088 C23.842,20.808 24.191,22.673 24.191,24.684 C24.191,27.134 23.77,29.236 22.929,30.992 C22.087,32.747 20.982,34.192 19.611,35.325 C18.239,36.459 16.675,37.292 14.92,37.821 C13.165,38.351 11.373,38.616 9.545,38.616 C8.557,38.616 7.588,38.542 6.638,38.396 C5.686,38.251 4.736,38.049 3.786,37.793 L3.786,52 L3.786,52 Z" id="Fill-1"></path>
                    <polygon id="Fill-3" points="31.869 38.396 35.708 38.396 35.708 0.04 31.869 0.04"></polygon>
                </g>
                <path d="M64.013,21.941 C64.013,20.808 63.838,19.747 63.491,18.76 C63.142,17.772 62.65,16.931 62.01,16.236 C61.37,15.542 60.537,14.984 59.514,14.563 C58.49,14.144 57.301,13.933 55.949,13.933 C54.559,13.933 53.361,14.144 52.356,14.563 C51.35,14.984 50.555,15.523 49.97,16.181 C49.384,16.839 48.846,17.672 48.352,18.677 C47.857,19.683 47.537,20.771 47.392,21.941 L64.013,21.941 Z M67.085,34.392 C65.803,35.783 64.323,36.834 62.641,37.546 C60.958,38.26 58.929,38.616 56.553,38.616 C54.359,38.616 52.438,38.241 50.793,37.491 C49.147,36.743 47.776,35.728 46.679,34.447 C45.581,33.168 44.759,31.705 44.21,30.059 C43.662,28.414 43.388,26.677 43.388,24.848 C43.388,22.435 43.717,20.342 44.375,18.568 C45.033,16.795 45.929,15.322 47.063,14.152 C48.196,12.982 49.512,12.114 51.012,11.546 C52.511,10.98 54.102,10.696 55.784,10.696 C59.807,10.696 62.841,11.93 64.89,14.399 C66.936,16.867 67.924,20.46 67.852,25.177 L47.282,25.177 C47.392,28.286 48.288,30.754 49.97,32.583 C51.652,34.412 53.938,35.325 56.827,35.325 C58.435,35.325 59.898,35.061 61.214,34.529 C62.531,34 63.719,33.15 64.78,31.979 L67.085,34.392 L67.085,34.392 Z" id="Fill-5" fill="#1A1919"></path>
                <path d="M92.981,17.443 C92.023,16.236 90.989,15.35 89.877,14.783 C88.765,14.216 87.443,13.933 85.913,13.933 C83.959,13.933 82.589,14.281 81.805,14.974 C81.019,15.67 80.627,16.547 80.627,17.607 C80.627,18.339 80.808,18.961 81.173,19.473 C81.537,19.985 82.015,20.424 82.609,20.789 C83.203,21.155 83.893,21.475 84.678,21.748 C85.463,22.023 86.277,22.289 87.12,22.545 C88.154,22.873 89.188,23.23 90.222,23.614 C91.258,23.998 92.205,24.501 93.067,25.122 C93.928,25.745 94.628,26.503 95.165,27.398 C95.7,28.295 95.968,29.42 95.968,30.772 C95.968,32.016 95.7,33.131 95.165,34.118 C94.628,35.106 93.9,35.937 92.981,36.613 C92.061,37.292 90.979,37.803 89.734,38.149 C88.489,38.497 87.156,38.671 85.74,38.671 C83.557,38.671 81.622,38.314 79.937,37.602 C78.251,36.888 76.663,35.708 75.168,34.063 L78.156,31.43 C80.148,33.991 82.733,35.271 85.913,35.271 C87.981,35.271 89.514,34.885 90.509,34.118 C91.505,33.35 92.004,32.417 92.004,31.321 C92.004,30.48 91.821,29.776 91.458,29.209 C91.093,28.642 90.596,28.157 89.963,27.755 C89.332,27.353 88.605,27.015 87.78,26.741 C86.955,26.466 86.087,26.202 85.166,25.945 C84.131,25.653 83.106,25.323 82.092,24.958 C81.076,24.593 80.167,24.126 79.364,23.559 C78.558,22.992 77.898,22.27 77.381,21.392 C76.863,20.514 76.605,19.4 76.605,18.046 C76.605,15.633 77.485,13.768 79.247,12.452 C81.008,11.134 83.289,10.477 86.087,10.477 C88.077,10.477 89.849,10.806 91.401,11.464 C92.953,12.122 94.437,13.274 95.854,14.92 L93.038,17.498 L92.981,17.443" id="Fill-6" fill="#1A1919"></path>
                <path d="M107.016,24.245 L120.181,10.97 L125.337,10.97 L111.844,24.135 L125.282,38.396 L119.961,38.396 L107.016,24.245 Z M103.177,38.397 L107.016,38.397 L107.016,0.055 L103.177,0.055 L103.177,38.397 Z" id="Fill-7" fill="#1A1919"></path>
                <polygon id="Fill-8" fill="#58B5D7" points="22.124 52 45.228 52 45.228 48.388 22.124 48.388"></polygon>
            </g>
        </g>
    </g>
</svg>