<svg enable-background="new 0 0 39 39" viewBox="0 0 39 39" xmlns="http://www.w3.org/2000/svg"><g fill="#939598"><path d="m8.1 19.1c0-.9-.2-1.5-.7-2.1-.5-.5-1.1-.8-2-.8-.3 0-.5 0-.8.1-.3 0-.5.1-.8.2v5.2c.2.1.5.1.7.2s.5.1.7.1c.9 0 1.6-.2 2.1-.7s.8-1.2.8-2.2m-4.3 7.3h-1v-10.6c.9-.3 1.7-.4 2.5-.4.6 0 1.1.1 1.6.3s.9.4 1.3.8c.3.3.6.7.8 1.2s.3 1 .3 1.5c0 .7-.1 1.2-.3 1.7-.3.4-.6.8-1 1.1s-.8.5-1.3.7c-.5.1-.9.2-1.4.2-.3 0-.5 0-.8-.1-.3 0-.5-.1-.8-.2v3.8z"/><path d="m11.3 12.6h1v10.3h-1z"/><path d="m19.9 18.4c0-.3 0-.6-.1-.9s-.2-.5-.4-.7-.4-.3-.7-.4-.6-.2-1-.2-.7.1-1 .2-.5.3-.6.4c-.2.2-.3.4-.4.7s-.2.6-.3.9zm.8 3.3c-.3.4-.7.7-1.2.8-.4.2-1 .3-1.6.3s-1.1-.1-1.5-.3-.8-.5-1.1-.8-.5-.7-.7-1.2c-.1-.4-.2-.9-.2-1.4 0-.6.1-1.2.3-1.7s.4-.9.7-1.2.7-.5 1.1-.7.8-.2 1.3-.2c1.1 0 1.9.3 2.4 1s.8 1.6.8 2.9h-5.5c0 .8.3 1.5.7 2s1.1.7 1.8.7c.4 0 .8-.1 1.2-.2s.7-.4 1-.7z"/><path d="m27.6 17.2c-.3-.3-.5-.6-.8-.7-.3-.2-.7-.2-1.1-.2-.5 0-.9.1-1.1.3s-.3.4-.3.7c0 .2 0 .4.1.5s.2.3.4.4.3.2.6.3c.2.1.4.1.7.2s.6.2.8.3c.3.1.5.2.8.4l.6.6c.1.2.2.5.2.9 0 .3-.1.6-.2.9s-.3.5-.6.7c-.2.2-.5.3-.9.4-.3.1-.7.1-1.1.1-.6 0-1.1-.1-1.6-.3s-.9-.5-1.3-.9l.8-.7c.5.7 1.2 1 2.1 1 .6 0 1-.1 1.2-.3.3-.2.4-.5.4-.7s0-.4-.1-.6-.2-.3-.4-.4-.4-.2-.6-.3-.5-.1-.7-.2c-.3-.1-.6-.2-.8-.3-.3-.1-.5-.2-.7-.4s-.4-.3-.5-.6c-.1-.2-.2-.5-.2-.9 0-.6.2-1.1.7-1.5s1.1-.5 1.8-.5c.5 0 1 .1 1.4.3s.8.5 1.2.9z"/><path d="m31.4 19 3.5-3.5h1.4l-3.7 3.5 3.6 3.8h-1.4zm-1.1-6.4h1v10.2h-1z"/><path d="m8.7 25.5h6.2v1h-6.2z"/></g></svg>