<svg height="40px" xmlns="http://www.w3.org/2000/svg" xmlns:xlink="http://www.w3.org/1999/xlink" width="500" zoomAndPan="magnify" viewBox="0 0 375 374.999991" height="500" preserveAspectRatio="xMidYMid meet" version="1.0"><defs><clipPath id="6f62164594"><path d="M 5 133 L 115 133 L 115 271.546875 L 5 271.546875 Z M 5 133 " clip-rule="nonzero"/></clipPath><clipPath id="6f177acec0"><path d="M 125 103.546875 L 168 103.546875 L 168 241 L 125 241 Z M 125 103.546875 " clip-rule="nonzero"/></clipPath></defs><rect x="-37.5" width="450" fill="#ffffff" y="-37.499999" height="449.999989" fill-opacity="1"/><rect x="-37.5" width="450" fill="#ffffff" y="-37.499999" height="449.999989" fill-opacity="1"/><rect x="-37.5" width="450" fill="#ffffff" y="-37.499999" height="449.999989" fill-opacity="1"/><g clip-path="url(#6f62164594)"><path fill="#000000" d="M 65.175781 133.597656 C 50.640625 133.597656 41.277344 137.789062 33.394531 147.640625 L 33.394531 136.800781 L 5.308594 136.800781 L 5.308594 270.316406 C 5.308594 270.316406 5.800781 270.5625 7.28125 270.808594 C 9.25 271.300781 19.597656 273.515625 27.234375 267.113281 C 33.886719 261.445312 35.367188 254.796875 35.367188 247.40625 L 35.367188 228.191406 C 43.496094 236.8125 52.609375 240.507812 65.421875 240.507812 C 93.015625 240.507812 114.203125 218.09375 114.203125 188.285156 C 114.203125 156.015625 93.753906 133.597656 65.175781 133.597656 Z M 59.753906 215.136719 C 44.234375 215.136719 31.917969 202.328125 31.917969 186.808594 C 31.917969 171.535156 46.453125 159.21875 59.753906 159.21875 C 75.523438 159.21875 87.59375 171.289062 87.59375 187.054688 C 87.59375 202.820312 75.277344 215.136719 59.753906 215.136719 Z M 59.753906 215.136719 " fill-opacity="1" fill-rule="nonzero"/></g><g clip-path="url(#6f177acec0)"><path fill="#000000" d="M 154.113281 185.082031 C 154.113281 196.660156 155.34375 210.703125 166.675781 225.976562 C 166.921875 226.222656 167.417969 226.960938 167.417969 226.960938 C 162.734375 234.84375 157.070312 240.261719 149.433594 240.261719 C 143.519531 240.261719 137.605469 237.058594 132.679688 231.640625 C 127.503906 225.730469 125.042969 218.09375 125.042969 209.964844 L 125.042969 103.546875 L 153.867188 103.546875 Z M 154.113281 185.082031 " fill-opacity="1" fill-rule="nonzero"/></g><path fill="#ebae00" d="M 296.757812 237.058594 L 261.773438 237.058594 L 295.769531 187.054688 L 261.773438 136.800781 L 296.757812 136.800781 L 330.507812 187.054688 Z M 296.757812 237.058594 " fill-opacity="1" fill-rule="nonzero"/><path fill="#000000" d="M 339.625 181.386719 L 369.925781 136.800781 L 334.941406 136.800781 L 322.378906 155.277344 Z M 339.625 181.386719 " fill-opacity="1" fill-rule="nonzero"/><path fill="#000000" d="M 322.378906 218.832031 C 322.378906 218.832031 328.292969 226.960938 328.292969 226.960938 C 333.957031 235.828125 341.347656 240.261719 349.972656 240.261719 C 359.085938 240.015625 365.492188 232.132812 367.957031 229.175781 C 367.957031 229.175781 363.519531 225.234375 357.855469 218.585938 C 350.21875 209.71875 340.117188 193.457031 339.871094 192.71875 Z M 322.378906 218.832031 " fill-opacity="1" fill-rule="nonzero"/><path fill="#000000" d="M 235.90625 208.238281 C 229.992188 213.660156 226.050781 216.613281 217.921875 216.613281 C 203.386719 216.613281 195.007812 206.269531 193.777344 194.9375 L 270.886719 194.9375 C 271.382812 193.457031 271.628906 191.488281 271.628906 188.285156 C 271.628906 157 248.714844 133.597656 218.660156 133.597656 C 190.082031 133.597656 166.675781 157.492188 166.675781 187.300781 C 166.675781 216.859375 190.082031 240.261719 219.398438 240.261719 C 239.847656 240.261719 257.585938 228.683594 267.191406 208.238281 Z M 218.90625 157.246094 C 231.71875 157.246094 241.324219 165.621094 243.542969 176.707031 L 194.761719 176.707031 C 197.226562 165.128906 206.339844 157.246094 218.90625 157.246094 Z M 218.90625 157.246094 " fill-opacity="1" fill-rule="nonzero"/></svg>