<?xml version="1.0" encoding="utf-8"?>
<!-- Generator: Adobe Illustrator 24.0.3, SVG Export Plug-In . SVG Version: 6.00 Build 0)  -->
<svg width="50px" height="50px" version="1.1" id="Layer_1" xmlns="http://www.w3.org/2000/svg" xmlns:xlink="http://www.w3.org/1999/xlink" x="0px" y="0px"
	 viewBox="0 0 1024 1024" style="enable-background:new 0 0 1024 1024;" xml:space="preserve">
<style type="text/css">
	.st0{stroke:#000000;stroke-width:73.2913;}
	.st1{fill:#336791;}
	.st2{fill:none;stroke:#FFFFFF;stroke-width:24.4304;stroke-linecap:round;stroke-linejoin:round;}
	.st3{fill:none;stroke:#FFFFFF;stroke-width:24.4304;stroke-linecap:round;stroke-linejoin:bevel;}
	.st4{fill:#FFFFFF;stroke:#FFFFFF;stroke-width:8.1434;}
	.st5{fill:#FFFFFF;stroke:#FFFFFF;stroke-width:4.0717;}
	.st6{fill:none;stroke:#FFFFFF;stroke-width:5.8797;stroke-linecap:round;stroke-linejoin:round;}
</style>
<g id="Layer_x0020_3">
	<path class="st0" d="M740,710.8c5.6-46.3,3.9-53,38.3-45.5l8.7,0.8c26.5,1.2,61.1-4.3,81.5-13.7c43.8-20.3,69.8-54.3,26.6-45.4
		c-98.6,20.3-105.4-13-105.4-13c104.1-154.4,147.6-350.5,110-398.5c-102.4-130.9-279.8-69-282.7-67.4l-0.9,0.2
		c-19.5-4-41.3-6.5-65.8-6.9c-44.6-0.7-78.5,11.7-104.1,31.2c0,0-316.3-130.3-301.6,163.9c3.1,62.6,89.7,473.6,193,349.5
		c37.7-45.4,74.2-83.8,74.2-83.8c18.1,12,39.8,18.2,62.5,16l1.8-1.5c-0.6,5.6-0.3,11.1,0.7,17.7c-26.6,29.7-18.8,34.9-72,45.9
		c-53.8,11.1-22.2,30.8-1.6,36c25,6.3,82.9,15.1,122-39.6l-1.6,6.2c10.4,8.3,9.7,60,11.2,96.9c1.5,36.9,4,71.4,11.5,91.7
		c7.5,20.3,16.4,72.6,86.3,57.6C691.3,896.4,736,878.4,740,710.8"/>
	<path class="st1" d="M895.3,606.9c-98.6,20.3-105.4-13-105.4-13C894,439.4,937.5,243.4,899.9,195.4
		c-102.4-130.9-279.8-69-282.7-67.4l-1,0.2c-19.5-4-41.3-6.5-65.8-6.9c-44.6-0.7-78.4,11.7-104.1,31.2c0,0-316.4-130.3-301.6,163.9
		c3.1,62.6,89.7,473.6,193,349.5c37.7-45.4,74.2-83.8,74.2-83.8c18.1,12,39.8,18.2,62.5,16l1.8-1.5c-0.5,5.6-0.3,11.1,0.7,17.7
		c-26.6,29.7-18.8,34.9-72,45.9c-53.8,11.1-22.2,30.8-1.6,36c25,6.3,82.9,15.1,122-39.6l-1.6,6.2c10.4,8.3,17.7,54.3,16.5,96
		c-1.2,41.7-2,70.3,6.2,92.6c8.2,22.3,16.4,72.6,86.3,57.6c58.4-12.5,88.7-45,92.9-99.1c3-38.5,9.8-32.8,10.2-67.2l5.4-16.3
		c6.3-52.2,1-69,37-61.2l8.7,0.8c26.5,1.2,61.2-4.3,81.5-13.7C912.5,632,938.5,598,895.3,606.9L895.3,606.9z"/>
	<path class="st2" d="M529.7,636.8c-2.7,97,0.7,194.8,10.2,218.5c9.5,23.8,29.8,69.9,99.8,55c58.4-12.5,79.7-36.8,88.9-90.3
		c6.8-39.4,19.9-148.7,21.6-171.1"/>
	<path class="st2" d="M445.9,150.3c0,0-316.6-129.4-301.8,164.8c3.1,62.6,89.7,473.6,193,349.5c37.7-45.4,71.9-81,71.9-81"/>
	<path class="st2" d="M616.9,126.7c-11,3.4,176.1-68.4,282.4,67.5c37.5,48-6,244-110.1,398.5"/>
	<path class="st3" d="M789.2,592.7c0,0,6.8,33.4,105.4,13c43.2-8.9,17.2,25-26.6,45.4c-36,16.7-116.6,21-117.9-2.1
		C746.7,589.5,792.5,607.6,789.2,592.7c-3-13.4-23.5-26.6-37-59.5c-11.8-28.7-162.3-248.6,41.7-215.9c7.5-1.5-53.2-194-244.1-197.2
		C358.9,117,365.2,354.8,365.2,354.8"/>
	<path class="st2" d="M476.2,613c-26.6,29.7-18.8,34.9-72,45.9c-53.8,11.1-22.2,30.8-1.6,36c25,6.3,82.9,15.1,122-39.6
		c11.9-16.7-0.1-43.3-16.4-50.1C500.4,601.9,489.8,597.8,476.2,613L476.2,613z"/>
	<path class="st2" d="M474.5,612.5c-2.7-17.5,5.7-38.3,14.8-62.6c13.6-36.5,44.9-73,19.8-188.8c-18.7-86.3-143.8-18-143.9-6.3
		c-0.1,11.7,5.7,59.3-2.1,114.7c-10.1,72.3,46,133.5,110.7,127.3"/>
	<path class="st4" d="M444.7,353.1c-0.6,4,7.3,14.7,17.6,16.1c10.3,1.4,19-6.9,19.6-10.9c0.6-4-7.3-8.4-17.6-9.8
		C454,347,445.3,349.1,444.7,353.1L444.7,353.1z"/>
	<path class="st5" d="M757.2,344.9c0.6,4-7.3,14.7-17.6,16.1c-10.3,1.4-19-6.9-19.6-10.9c-0.5-4,7.3-8.4,17.6-9.8
		C747.8,338.8,756.6,340.9,757.2,344.9L757.2,344.9z"/>
	<path class="st2" d="M793.9,317.3c1.7,31.3-6.8,52.7-7.8,86.1c-1.6,48.5,23.1,104-14.1,159.6"/>
	<path class="st6" d="M106.6,193.4"/>
</g>
</svg>