<svg height="40px" enable-background="new 0 0 72 72" viewBox="0 0 72 72" xmlns="http://www.w3.org/2000/svg"><path d="m13.5 72c-3 0-6 0-9 0-3.6-1.4-4.5-4.1-4.5-7.7.1-19.2.1-38.3.1-57.5 0-4.8 2-6.8 6.8-6.8h58.2c4.8 0 6.9 2 6.9 6.8 0 19.1-.1 38.3.1 57.4 0 3.6-.9 6.3-4.5 7.7-12.6 0-25.3 0-37.9 0 0-5.1 0-10.3 0-15.6 5.1 4.2 10.5 4.8 16 3 7.2-2.4 12-7.6 14.7-14.5 4.2-10.5.6-21.6-8.8-28.8-5.8-4.5-15.4-6.3-22.1.4-.8-2.8-2.8-4-5.5-4.3-1.3-.1-2.6-.2-3.9-.2-4.6 0-6.7 2.1-6.7 6.7v52.3c0 .3.1.7.1 1.1zm24.2-28c4.3 0 8-3.6 8-7.8 0-4.5-3.4-8-7.8-8.1-4.3-.1-7.8 3.4-7.9 7.8 0 4.6 3.4 8.2 7.7 8.1z" fill="#344a5f"/></svg>