<svg width="150px" enable-background="new 0 0 1024 1024" viewBox="0 0 1024 1024" xmlns="http://www.w3.org/2000/svg"><path d="m512 108c-223.1 0-404 180.9-404 404s180.9 404 404 404 404-180.9 404-404-180.9-404-404-404zm0 756.1c-63.5 0-115-42.4-115-94.7h230c0 52.3-51.5 94.7-115 94.7zm189.9-126h-379.8v-68.9h379.8zm-1.4-104.3h-377.3c-1.2-1.4-2.5-2.9-3.7-4.3-38.9-47.2-48-71.8-56.9-97-.2-.8 47.1 9.7 80.7 17.2 0 0 17.3 4 42.5 8.6-24.2-28.4-38.6-64.5-38.6-101.4 0-81 62.1-151.8 39.7-209 21.8 1.8 45.1 46.1 46.7 115.2 23.2-32 32.9-90.5 32.9-126.4 0-37.1 24.5-80.3 49-81.8-21.8 36 5.6 66.8 30.1 143.3 9.1 28.7 8 77.1 15 107.8 2.4-63.7 13.3-156.6 53.7-188.7-17.8 40.4 2.6 91 16.6 115.3 22.6 39.2 36.3 68.9 36.3 125.1 0 37.7-13.9 73.1-37.4 100.9 26.7-5 45.1-9.5 45.1-9.5l86.6-16.9s-12.6 51.7-61 101.6z" fill="#d44630"/></svg>
