<?xml version="1.0" encoding="utf-8"?>
<!-- Generator: Adobe Illustrator 26.0.3, SVG Export Plug-In . SVG Version: 6.00 Build 0)  -->
<svg height="40px" version="1.1" id="Layer_1" xmlns="http://www.w3.org/2000/svg" xmlns:xlink="http://www.w3.org/1999/xlink" x="0px" y="0px"
	 viewBox="0 0 243.7 243.7" style="enable-background:new 0 0 243.7 243.7;" xml:space="preserve">
<style type="text/css">
	.st0{fill:#D44630;}
	.st1{fill:url(#SVGID_1_);}
</style>
<path class="st0" d="M77.2,167.8c-42.7-4.1-76.1-40-76.1-83.7C1.2,37.7,38.8,0,85.3,0c39.1,0,71.9,26.7,81.4,62.8
	c-1.5,0.6-3,1.3-4.4,2.3c-9.3,6.1-15.2,13.3-19,19.5c-0.9,0.4-1.8,0.8-2.6,1.2c-3.4-0.6-6.9-0.8-10.4-0.8c-6.1,0-11.5,0.9-16,2
	c2.1-4.3,3.3-9.1,3.3-14.1c0-11.7-2.9-17.9-7.6-26c-2.9-5.1-7.2-15.6-3.5-24c-8.4,6.7-10.7,26-11.2,39.3c-1.5-6.4-1.2-16.5-3.1-22.4
	C87.2,23.7,81.5,17.3,86,9.8c-5.1,0.3-10.2,9.3-10.2,17c0,7.5-2,19.7-6.8,26.3c-0.3-14.4-5.2-23.6-9.7-24C63.9,41,51,55.8,51,72.6
	c0,7.7,3,15.2,8,21.1c-5.2-1-8.8-1.8-8.8-1.8c-7-1.6-16.8-3.7-16.8-3.6c1.9,5.2,3.7,10.4,11.8,20.2c0.2,0.3,0.5,0.6,0.8,0.9h42.2
	c-0.1,0.8-0.2,1.5-0.3,2.3c-0.1,1.7-0.2,3.4-0.2,5H45.7v14.3h43.2c0.4,2.3,1,4.5,1.5,6.5H61.3c0,10.5,9.9,19,22.4,19.7
	C81,161.1,78.8,164.7,77.2,167.8z"/>
<linearGradient id="SVGID_1_" gradientUnits="userSpaceOnUse" x1="169.9236" y1="243.7" x2="169.9236" y2="86">
	<stop  offset="0" style="stop-color:#FABF0D"/>
	<stop  offset="0.9979" style="stop-color:#F05A28"/>
</linearGradient>
<path class="st1" d="M241.7,155.3c0.3,2.2,0.3,4.1,0.8,7.2c0,0.5-0.5,1.1-1.1,1.1c-0.5,0.3-1.1-0.3-1.4-0.8
	c-0.5-1.6-1.1-3.3-1.6-5.2c-0.3-1.4-0.8-2.5-1.4-3.8c-0.3-0.5-0.3-0.8-0.5-1.1c-0.3-0.5-0.3-0.8-0.5-1.1c-0.3-0.3-0.3-0.8-0.5-1.1
	c0-0.3-0.3-0.3-0.3-0.5c0-0.3-0.3-0.3-0.3-0.5c-1.4-3-3.3-5.7-5.4-8.7c-1.1-1.4-2.5-3-3.8-4.3l-1.1-1.1c-0.3-0.3-0.8-0.8-1.1-1.1
	l-1.1-1.1l-0.5-0.5l-0.5-0.5c-3-2.7-6.8-5.2-10.9-7.1c-4.1-1.9-8.4-3.5-13.3-4.3c-2.5-0.5-4.9-0.8-7.3-0.8H186h-1.1h-0.3
	c0.3,0,0,0,0,0h-0.5H183h-0.3h-0.3h-0.5h-0.8H180c-0.3,0.3-0.8,0.3-1.1,0.3c-0.5,0.3-0.8,0.3-1.1,0.3h-0.5h-0.5
	c-0.5,0.3-0.8,0.3-1.1,0.3c-0.5,0-0.8,0.3-1.1,0.3c-0.5,0-0.8,0.3-1.1,0.3c-0.5,0.3-1.4,0.3-1.9,0.5c-0.5,0-0.8,0.3-1.1,0.3
	c-0.5,0-0.8,0.3-1.1,0.3c-1.4,0.3-2.7,0.8-3.8,1.4c-0.3,0-0.5,0-0.8,0.3c-0.3,0-0.5,0.3-0.8,0.3c-0.8,0.3-1.4,0.5-1.9,0.8
	c-1.4,0.5-2.4,1.1-3.5,1.9s-2.2,1.6-3.3,2.4c-1.1,0.8-1.9,1.9-3,2.7c-3.8,3.8-7.1,8.4-9.5,13.9c-1.1,2.7-2.2,5.4-3,8.4
	c-0.5,1.4-0.8,3-1.1,4.3c-0.3,1.4-0.5,3-0.8,4.3c0,1.4-0.3,3-0.3,4.3c0,0.3,0,0.8,0,1.1v0.3v0.8v0.3v0.3v0.5v0.3v0.3v0.5
	c0,3,0.5,6,1.4,8.7c0.8,2.7,1.9,5.4,3.3,8.2c1.4,2.7,3,5.2,4.9,7.6c3.8,4.6,8.4,8.7,13.9,11.4c2.7,1.4,5.4,2.5,8.4,3.3
	c3,0.8,6,1.4,9,1.6c0.5,0,1.4,0,2.2,0h0.3h0.3h0.8h0.6h0.3h0.3c1.6-0.3,3-0.3,4.3-0.5c2.7-0.5,5.4-1.4,8.2-2.4
	c5.2-2.2,9.8-6,13-10.6c1.6-2.2,3-4.6,4.1-7.3c0.5-1.4,1.1-2.7,1.4-4.1c0.3-0.8,0.3-1.4,0.5-1.6c0-0.8,0.3-1.4,0.3-2.2
	c0.3-0.8,0.3-1.4,0.3-2.2v-1.1v-0.5v-0.5c0-0.3,0-0.5,0-0.5v-0.5v-0.5v-0.5c0-0.5-0.3-1.4-0.3-1.9c-0.5-2.5-1.4-5.2-2.4-7.3
	c-2.4-4.6-6.3-8.4-10.6-10.9c-2.2-1.4-4.6-2.2-7.1-2.7c-1.4-0.3-2.5-0.5-3.8-0.5h-0.5h-0.3h-0.5h-0.3h-1.6c-1.1,0-2.2,0.3-3.3,0.5
	c-1.1,0.3-2.2,0.5-3.3,1.1c-1.1,0.5-2.2,1.1-3,1.6c-1.1,0.8-1.9,1.4-2.7,2.2c-3.3,3.3-5.2,7.3-6,11.4c-0.3,0.5-0.3,1.1-0.3,1.6v0.3
	v0.3c0,0.3,0,0.5,0,0.8c0,1.1,0,2.2,0.3,3c0.3,1.9,1.1,3.8,1.9,5.4c1.1,1.6,2.2,3.3,3.5,4.3c1.4,1.4,2.7,2.2,4.3,3
	c1.4,0.5,3,1.1,4.6,1.4c0.3,0,0.3,0,0.5,0h0.2h0.3c0,0,0.3,0,0.5,0c0.3,0,0.3,0,0.5,0c0.3,0,0.3,0,0.5,0c0.3,0,0.3,0,0.5,0
	c0.3,0,0.8,0,1.1,0c0.8-0.3,1.6-0.3,2.2-0.5c0.8-0.3,1.4-0.5,1.9-0.8c0.3,0,0.3-0.3,0.8,0.3c0.5-0.5,1.4-0.3,1.9,0.3
	s0.5,1.6-0.3,2.2c-0.3,0.3-0.3,0.3-0.5,0.5c-0.8,0.5-1.4,1.1-2.2,1.4c-0.8,0.5-1.6,0.8-2.4,1.1c-0.5,0-0.8,0.3-1.4,0.3
	c-0.3,0.3-0.8,0.3-0.8,0.3h-0.8h-0.3h-0.3c-0.3,0-0.3,0-0.3,0h-0.5h-0.3h-0.3h-0.8c-1.9,0-4.1-0.3-6.3-0.8s-4.3-1.6-6.5-3
	c-2.2-1.4-4.1-3.3-5.7-5.4c-1.6-2.2-3-4.9-3.8-7.6c-0.3-1.4-0.5-2.7-0.8-4.3v-1.1v-0.5v-0.5V170c0-3,0.8-6,1.9-9
	c1.4-3,3-5.7,5.2-8.4c2.2-2.7,4.9-4.9,7.9-6.8c3-1.9,6.5-3,10.3-3.8c0.8,0,1.9-0.3,2.7-0.3c0.3,0,0.5,0,0.8,0h0.8h0.3h0.3h0.3h0.8
	c1.6,0,3.5,0,5.4,0.3c3.8,0.3,7.6,1.4,11.1,3c3.5,1.6,7.1,3.8,10.1,6.5c3,2.7,5.7,6,7.9,9.5c2.2,3.5,3.8,7.6,4.9,11.7
	c0.3,1.1,0.3,2.2,0.5,3.3v0.8v0.8c0,0.3,0,0.5,0,0.8c0,0.3,0,0.5,0,0.8v0.8v0.5c0,0,0,0,0,0.3v0.3v0.3v0.8c0,1.1,0,2.2,0,3.3
	c-0.3,0.5-0.3,1.4-0.3,1.9h0.3c0,0,6.8,4.6,8.4,15.5c0,0-6.8,6.3-16,5.7c0,0.3-0.3,0.8-0.5,1.1c-2.4,3.5-5.4,7.1-8.7,10.1
	c-1.6,1.4-3.3,2.7-5.2,4.1l0.3,0.3c0,0,0.5,9.8-8.7,19.6c0,0-11.7-1.4-18.2-10.9h-0.8h-0.8h-0.3h-0.5h-3.3c-4.3-0.3-8.7-0.8-13-1.9
	c-1.6-0.5-3-0.8-4.3-1.4c-1.9,1.4-11.1,8.2-25.3,7.6c0,0-5.2-11.1-0.5-24.2c-1.1-1.1-2.2-2.2-3.3-3.5c-2.4-3-4.6-6.2-6.5-9.5
	c0,0-14.7-1.1-27.2-15.5c0,0,4.3-15.5,19.6-22.8c0-0.8,0.3-1.4,0.3-1.9c0.5-4.3,1.6-8.4,2.7-12.2c0.3-1.1,0.8-2.2,1.1-3.3
	c-1.6-2.2-9.5-13-8.2-30.5c0,0,14.7-7.6,31-1.4c0,0,0.3,0.3,0.5,0.3c1.6-1.1,3.3-2.2,4.9-3c1.6-1.1,3.3-1.9,5.2-2.7
	c0.8-0.3,1.9-0.8,2.7-1.1c0.8-0.3,1.9-0.5,2.7-0.8c0.5-0.3,1.4-0.3,1.9-0.5c0-0.3,0-0.5,0-0.5s2.4-10.3,14.1-18
	c0,0,10.6,4.9,14.1,16.9c0.3,0,0.5,0,0.8,0c1.6,0,3.3,0.5,4.9,0.8c1.6,0.5,3,0.8,4.6,1.4c1.6,0.5,3,1.1,4.3,1.6
	c0.5,0.3,0.8,0.3,1.1,0.5c1.9-1.4,7.3-4.6,15.8-4.1c0,0,4.9,7.6,2.7,16.3c1.4,1.4,2.7,2.7,4.1,4.3c3.3,3.8,5.7,7.9,7.6,11.7
	s3.3,7.6,4.1,10.9C240.9,149.6,241.4,152.6,241.7,155.3L241.7,155.3z"/>
</svg>
