<svg width="50px" height="50px" id="fa88e82a-fae1-4ccd-9a9f-d35305cce560" data-name="Layer 1" xmlns="http://www.w3.org/2000/svg" viewBox="0 0 1024 1024">
  <defs>
    <style>
      .a5f244e8-cda2-44ed-86cc-0d15b07fb848 {
        fill: #939598;
      }
    </style>
  </defs>
  <path class="a5f244e8-cda2-44ed-86cc-0d15b07fb848" d="M869.77,434.23H620.86a31,31,0,0,1-31.19-30.8V154.12a31,31,0,0,0-31-31H465.31a31,31,0,0,0-31.19,30.8V403a31,31,0,0,1-30.79,31.19H309.76a31,31,0,0,1-31.18-30.8V154.12a31,31,0,0,0-30.8-31.18H154a31,31,0,0,0-31,31v716a31,31,0,0,0,30.8,31.18H869.77A31,31,0,0,0,901,870.27V466a31,31,0,0,0-30.2-31.76C870.43,434.23,870.1,434.22,869.77,434.23ZM744.63,698.54a46.58,46.58,0,0,1-46.39,46.78H635.67a46.58,46.58,0,0,1-46.58-46.58V636.36a46.58,46.58,0,0,1,46.39-46.78h62.57a46.58,46.58,0,0,1,46.58,46.58v62.38Z"/>
</svg>
