<svg width="50px" height="50px" id="b2295427-fc46-410b-b965-fc6a0d5faf9c" data-name="Layer 1" xmlns="http://www.w3.org/2000/svg" viewBox="0 0 1024 1024">
  <defs>
    <style>
      .be5f4316-8dbf-46c7-91e0-06045a06d1b6 {
        fill: #f60;
      }
    </style>
  </defs>
  <path class="be5f4316-8dbf-46c7-91e0-06045a06d1b6" d="M869.77,434.23H620.86a31,31,0,0,1-31.19-30.8V154.12a31,31,0,0,0-31-31H465.31a31,31,0,0,0-31.19,30.8V403a31,31,0,0,1-30.79,31.19H309.76a31,31,0,0,1-31.18-30.8V154.12a31,31,0,0,0-30.8-31.18H154a31,31,0,0,0-31,31v716a31,31,0,0,0,30.8,31.18H869.77A31,31,0,0,0,901,870.27V466a31,31,0,0,0-30.2-31.76C870.43,434.23,870.1,434.22,869.77,434.23ZM744.63,698.54a46.58,46.58,0,0,1-46.39,46.78H635.67a46.58,46.58,0,0,1-46.58-46.58V636.36a46.58,46.58,0,0,1,46.39-46.78h62.57a46.58,46.58,0,0,1,46.58,46.58v62.38Z"/>
</svg>
