<svg enable-background="new 0 0 1000 1000" viewBox="0 0 1000 1000" xmlns="http://www.w3.org/2000/svg"><path d="m968.4 288.9c3.5 4.9 5.5 10.9 5.5 17.1v55.9c0 12.2-7.2 23.3-18.3 28.3l-442.5 198.9c-7.9 3.5-16.9 3.6-24.9.2l-443.2-188.7c-11.5-4.9-18.9-16.1-18.9-28.6v-52.4c0-6.2 1.9-12 5.3-16.9l456.8 194.4c8 3.4 17.1 3.3 25-.3zm-480.2 371.1-456-194.1c-3.7 5.1-6 11.4-6 18v50.9c0 12.4 7.3 23.7 18.8 28.5l443.3 188.7c8 3.4 17 3.3 24.9-.2l442.3-198.8c11.2-5 18.2-16.1 18.2-28.4v-54.9c0-6.5-2.2-12.7-5.8-17.8l-454.7 207.8c-7.9 3.6-17 3.7-25 .3zm0 157.9-456.7-194.4c-3.4 5-5.4 11.1-5.4 17.4v51.8c0 12.4 7.4 23.7 18.9 28.5l443.3 188.8c8 3.4 17 3.3 24.9-.2l442.4-198.9c11.1-5 18.3-16.1 18.3-28.3v-55.9c0-6.3-1.9-12.2-5.2-17.2l-455.5 208.1c-7.9 3.6-17 3.7-25 .3z" fill="#9b1818"/><path d="m488.2 497.3-456.8-194.5c3-4.3 7.1-7.9 12.1-10.2l444.1-202.2c7.9-3.6 17-3.7 25-.3l443.2 188.6c5.2 2.2 9.5 5.8 12.6 10.2l-455.2 208c-7.9 3.7-17 3.8-25 .4zm.1 92-378.4-161-64.6 27.2c-5.4 2.3-9.8 5.9-13.1 10.4l456 194.1c8 3.4 17.1 3.3 25-.3l454.7-207.8c-3.3-4.6-7.7-8.3-13.1-10.6l-58-24.7 14.1-6.3-397.8 178.8c-7.8 3.5-16.9 3.6-24.8.2zm293.7 41.7-268.8 120.8c-7.9 3.5-16.9 3.6-24.9.2l-385.4-164-57.8 24.4c-5.4 2.3-10.4 6.5-13.6 11.1l456.7 194.4c8 3.4 17.1 3.3 25-.3l455.5-208.1c-3.3-4.6-8.2-9-13.7-11.3l-51.4-21.9z" fill="#fc3f3f"/></svg>