<?xml version="1.0" encoding="utf-8"?>
<!-- Generator: Adobe Illustrator 24.0.3, SVG Export Plug-In . SVG Version: 6.00 Build 0)  -->
<svg width="50px" height="50px" version="1.1" id="Layer_1" xmlns="http://www.w3.org/2000/svg" xmlns:xlink="http://www.w3.org/1999/xlink" x="0px" y="0px"
	 viewBox="0 0 1024 1024" style="enable-background:new 0 0 1024 1024;" xml:space="preserve">
<style type="text/css">
	.st0{fill:#A41E11;}
	.st1{fill:#D82C20;}
	.st2{fill:#FFFFFF;}
	.st3{fill:#7A0C00;}
	.st4{fill:#AD2115;}
</style>
<g transform="matrix(.848327 0 0 .848327 -7.883573 -9.449691)">
	<g>
		<path id="a" class="st0" d="M1112.6,866.7c-57.9,30.2-357.7,153.4-421.5,186.7c-63.8,33.3-99.3,32.9-149.7,8.9
			s-369.4-153-426.9-180.4c-28.8-13.7-43.8-25.3-43.8-36.2V735.9c0,0,415.4-90.4,482.4-114.5s90.3-24.9,147.4-4
			c57.1,20.9,398.3,82.5,454.7,103.1v108.1C1155.1,839.5,1142.1,851.7,1112.6,866.7L1112.6,866.7z"/>
	</g>
	<path class="st1" d="M1112.6,757c-57.9,30.2-357.7,153.4-421.5,186.7c-63.8,33.3-99.3,32.9-149.7,8.9
		c-50.4-24.1-369.4-153-426.9-180.4s-58.7-46.4-2.2-68.5L553,533c67-24,90.3-24.9,147.4-4c57.1,20.9,355.1,139.5,411.4,160.5
		s58.6,37.7,0.7,67.9L1112.6,757z"/>
	<g>
		<path id="a_1_" class="st0" d="M1112.6,687.9c-57.9,30.2-357.7,153.4-421.5,186.7s-99.3,32.9-149.7,8.9S171.9,730.5,114.4,703
			c-28.8-13.7-43.8-25.3-43.8-36.2V557.2c0,0,415.4-90.4,482.4-114.5c67.1-24.1,90.3-24.9,147.4-4c57.1,20.9,398.3,82.5,454.7,103.1
			v108.1C1155.1,660.7,1142.1,672.9,1112.6,687.9L1112.6,687.9z"/>
	</g>
	<g>
		<path id="b" class="st1" d="M1112.6,578.3c-57.9,30.2-357.7,153.4-421.5,186.7s-99.3,32.9-149.7,8.9s-369.4-153-426.9-180.4
			c-57.5-27.5-58.7-46.4-2.2-68.5L553,354.3c67-24.1,90.3-24.9,147.4-4s355.1,139.5,411.5,160.1
			C1168.3,531,1170.4,548.1,1112.6,578.3L1112.6,578.3z"/>
	</g>
	<path class="st0" d="M1112.6,502.5c-57.9,30.2-357.7,153.4-421.5,186.7c-63.8,33.3-99.3,32.9-149.7,8.9
		c-50.4-24.1-369.4-153-426.9-180.4c-28.8-13.7-43.8-25.3-43.8-36.2V371.8c0,0,415.4-90.4,482.4-114.5s90.3-24.9,147.4-4
		c57.1,20.9,398.3,82.5,454.7,103.1v108.1C1155.1,475.3,1142.1,487.5,1112.6,502.5L1112.6,502.5z"/>
	<g>
		<path id="b_1_" class="st1" d="M1112.6,392.9c-57.9,30.2-357.7,153.4-421.5,186.7s-99.3,32.9-149.7,8.9
			c-50.4-24.1-369.4-153-426.9-180.4s-58.7-46.4-2.2-68.5L553,168.9c67-24.1,90.3-24.9,147.4-4s355.1,139.5,411.5,160.1
			C1168.3,345.6,1170.4,362.6,1112.6,392.9L1112.6,392.9z"/>
	</g>
	<g>
		<path class="st2" d="M639.9,347.7l-34-56.5l-108.5-9.8l81-29.2l-24.3-44.9l75.8,29.6l71.5-23.4L682,259.9l72.9,27.3l-94,9.8
			L639.9,347.7z M458.9,460.1l251.3-38.6l-75.9,111.3L458.9,460.1z"/>
		<ellipse class="st2" cx="391.2" cy="367.5" rx="134.3" ry="52.1"/>
	</g>
	<path class="st3" d="M1014.7,359.9l-148.6,58.7l-0.1-117.5L1014.7,359.9z"/>
	<path class="st4" d="M866.1,418.6l-16.1,6.3l-148.5-58.7L866,301.1L866.1,418.6z"/>
</g>
</svg>
