<svg height="40px" enable-background="new 0 0 72 72" viewBox="0 0 72 72" xmlns="http://www.w3.org/2000/svg"><path d="m71.3 36c0-3.5-1.1-6.9-3.1-10.1-1.9-2.8-4.5-5.3-7.8-7.5-6.4-4.1-14.8-6.3-23.6-6.3-3 0-5.9.2-8.7.7-1.8-1.6-3.8-3.1-6-4.3-11.7-5.6-21.4-.1-21.4-.1s9 7.4 7.5 13.8c-4 4-6.2 8.8-6.2 13.8 0 5 2.2 9.8 6.2 13.8 1.5 6.4-7.5 13.8-7.5 13.8s9.6 5.5 21.2-.1c2.2-1.2 4.2-2.6 6-4.3 2.8.5 5.7.7 8.7.7 8.9 0 17.3-2.2 23.6-6.3 3.3-2.1 5.9-4.6 7.8-7.5 2.2-3.1 3.3-6.5 3.3-10.1z" fill="#f74c66"/><path d="m36.7 17.1c16.4 0 29.7 8.5 29.7 19s-13.3 19-29.7 19c-3.7 0-7.1-.4-10.4-1.2-3.3 3.9-10.5 9.4-17.5 7.7 2.3-2.5 5.7-6.6 4.9-13.4-4.2-3.4-6.7-7.6-6.7-12.2 0-10.4 13.3-18.9 29.7-18.9" fill="#fff"/><g fill="#f74c66"><circle cx="36.7" cy="36.7" r="3.9"/><circle cx="50.4" cy="36.7" r="3.9"/><circle cx="22.9" cy="36.7" r="3.9"/></g></svg>