<?xml version="1.0" encoding="utf-8"?>
<!-- Generator: Adobe Illustrator 24.0.3, SVG Export Plug-In . SVG Version: 6.00 Build 0)  -->
<svg width="50px" height="50px" version="1.1" id="Layer_1" xmlns="http://www.w3.org/2000/svg" xmlns:xlink="http://www.w3.org/1999/xlink" x="0px" y="0px"
	 viewBox="0 0 1024 1024" style="enable-background:new 0 0 1024 1024;" xml:space="preserve">
<style type="text/css">
	.st0{fill:#CC0000;}
</style>
<path transform="translate(8 8)" class="st0" d="M74.7,784.8h318.8c0,0-60.9-278,140.8-390.6c44-21.4,184-101.3,413.2,68.2
	c7.3-6.1,14.1-10.9,14.1-10.9s-209.8-209.4-443.5-186C400.7,276,256.2,382.9,171.5,524.2S74.7,784.8,74.7,784.8z M74.7,784.8h318.8
	c0,0-60.9-278,140.8-390.6c44-21.4,184-101.3,413.2,68.2c7.3-6.1,14.1-10.9,14.1-10.9s-209.8-209.4-443.5-186
	C400.7,276,256.2,382.9,171.5,524.2S74.7,784.8,74.7,784.8z M74.7,784.8h318.8c0,0-60.9-278,140.8-390.6
	c44-21.4,184-101.3,413.2,68.2c7.3-6.1,14.1-10.9,14.1-10.9s-209.8-209.4-443.5-186c-117.8,10.5-262.3,117.4-347,258.6
	S74.7,784.8,74.7,784.8z M738.8,288.1l1.6-27c-3.6-2-13.7-6.9-39.1-14.1l-1.6,26.6C713,278,725.9,282.9,738.8,288.1z M700.5,373.7
	l-1.6,25.4c13.3,0.4,26.6,2,39.9,4.8l1.6-25C726.7,376.1,713.4,374.5,700.5,373.7z M551.2,247.8h4l-8.1-24.6
	c-12.5,0-25.4,0.8-38.7,2.4l7.7,23.8C527.8,248.2,539.5,247.8,551.2,247.8z M570.6,396.3l9.3,27.8c11.7-5.6,23.4-10.5,35.1-14.1
	l-8.9-26.6C592.4,387.4,580.7,391.8,570.6,396.3z M387.4,290.1l-18.2-27.8c-10.1,5.2-20.6,10.9-31.5,17.4l18.6,28.2
	C366.8,301.4,376.9,295.4,387.4,290.1z M470.1,471.7l19.4,29.1c6.9-10.1,14.9-19.4,23.8-28.6l-18.2-27.4
	C485.8,453.2,477.4,462.4,470.1,471.7z M411.6,601.6l32.7,25.8c1.6-15.7,4.4-31.5,8.5-47.2l-29.1-23
	C418.5,572.2,414.8,587.1,411.6,601.6z M234.9,410l-28.6-25c-10.5,10.1-20.6,20.2-29.9,30.3l31.1,26.6
	C215.9,431,225.2,420.1,234.9,410z M113,590.4l-46.4-16.9c-7.7,17.4-16.1,37.5-20.2,48.4l46.4,16.9
	C98.1,625.1,106.5,605.3,113,590.4z M405.5,704.1c0.8,21.4,2.8,38.7,4.8,50.8l48.4,17.4c-3.6-15.7-7.3-33.5-9.7-52.5L405.5,704.1z"
	/>
</svg>
