<svg height="40px" enable-background="new 0 0 72 72" viewBox="0 0 72 72" xmlns="http://www.w3.org/2000/svg"><g clip-rule="evenodd" fill="#939598" fill-rule="evenodd"><path d="m306.1 46.9c4.6 0 8.3-3.7 8.3-8.3s-3.7-8.3-8.3-8.3-8.3 3.7-8.3 8.3c0 4.6 3.7 8.3 8.3 8.3zm0-3.4c2.7 0 4.9-2.2 4.9-4.9s-2.2-4.9-4.9-4.9-4.9 2.2-4.9 4.9c0 2.7 2.2 4.9 4.9 4.9z"/><path d="m288.6 46.9c4.6 0 8.3-3.7 8.3-8.3s-3.7-8.3-8.3-8.3-8.3 3.7-8.3 8.3c0 4.6 3.7 8.3 8.3 8.3zm0-3.4c2.7 0 4.9-2.2 4.9-4.9s-2.2-4.9-4.9-4.9-4.9 2.2-4.9 4.9c0 2.7 2.2 4.9 4.9 4.9z"/><path d="m279.5 38.6c0 4.6-3.7 8.3-8.3 8.3s-8.3-3.7-8.3-8.3 3.7-8.3 8.3-8.3c1.8 0 3.6.6 5 1.7v-5.3c0-.9.7-1.6 1.6-1.6s1.6.7 1.6 1.6v11.9zm-8.3 4.9c2.7 0 4.9-2.2 4.9-4.9s-2.2-4.9-4.9-4.9-4.9 2.2-4.9 4.9c.1 2.7 2.2 4.9 4.9 4.9z"/><path d="m254.1 46.9c4.6 0 8.3-3.7 8.3-8.3s-3.7-8.3-8.3-8.3-8.3 3.7-8.3 8.3 3.7 8.3 8.3 8.3zm-.1-3.4c2.7 0 4.9-2.2 4.9-4.9s-2.2-4.9-4.9-4.9-4.9 2.2-4.9 4.9c0 2.8 2.2 4.9 4.9 4.9z"/></g><path d="m36.6 0-31.8 17.9 31 17.5 9.6-5.5-20.5-11.8 11.9-6.9 20.7 11.8 9.7-5.6z" fill="#ff8f29"/><path d="m4.8 17.9v11.6l20.1 11.4v13.5l-20.1-11.5v11l31.1 17.7v-36.2z" fill="#e16200"/><path d="m67.2 17.4v12.2l-20.7 12v12.6l20.7-11.9v11.3l-31.3 18v-36.2z" fill="#828282"/></svg>