<svg width="50px" height="50px" enable-background="new 0 0 512 512" viewBox="0 0 512 512" xmlns="http://www.w3.org/2000/svg"><path d="m224 96 16-32 32-16-32-16-16-32-16 32-32 16 32 16zm-144 64 26.7-53.3 53.3-26.7-53.3-26.7-26.7-53.3-26.7 53.3-53.3 26.7 53.3 26.7zm352 128-26.7 53.3-53.3 26.7 53.3 26.7 26.7 53.3 26.7-53.3 53.3-26.7-53.3-26.7zm70.6-193.8-84.8-84.8c-6.3-6.3-14.5-9.4-22.7-9.4s-16.4 3.1-22.6 9.4l-363.1 363.1c-12.5 12.5-12.5 32.8 0 45.2l84.8 84.9c6.2 6.2 14.4 9.4 22.6 9.4s16.4-3.1 22.6-9.4l363.1-363.1c12.6-12.5 12.6-32.8.1-45.3zm-143.1 109.3-50.9-50.9 86.5-86.6 50.9 50.9z"/></svg>