<svg height="50px" enable-background="new 0 0 72 72" viewBox="0 0 72 72" xmlns="http://www.w3.org/2000/svg"><path d="m14 53.4c-4.8 0-8.4-.9-11.9-3.4-.7-.5-1.9-1.7-1.9-1.7s1-1 1.6-1.6c.4-.5 1.2-1.3 1.2-1.3s1 .7 1.6 1.1c2.1 1.5 4.4 2.2 6.9 2.5s4.7.2 7.1-.6c3-1 4.4-3.6 3.7-6.6-.4-1.8-2-3.1-4.3-3.4-2.4-.3-4.8-.4-7.2-.7-2.3-.2-4.5-.7-6.5-2.1-2.1-1.5-3-3.7-3.1-6.2-.3-4.8 2.4-8.5 6.7-9.9 5.9-1.8 11.3-1 16.7 2.2 1 .6 1 .6 1 .6l-3.3 3.3s-.2-.2-.7-.5c-3.6-2.3-7.4-2.8-11.5-1.9-2.6.5-4 2.4-4.3 5.1-.2 1.9 1 3.8 2.8 4.5 1.6.6 3.3.7 5 .8 2.5.2 5 .3 7.5 1 3.5 1 5.7 3.8 6 7.3.5 6.4-3.8 9.9-8.9 11-1.5.4-3.2.6-4.2.5z" fill="#bababd"/><path d="m49 52.4c.3-.2.4-.3.6-.4 1.9-1.4 3.4-3.2 4.5-5.3.3-.6.6-.6 1.2-.6 2 .2 3.9.3 5.8-.5 1.3-.5 2.3-1.2 2.4-2.8.1-1.5-.6-2.5-2-3-1.2-.4-2.6-.4-3.8-.5s-1.2-.1-1.1-1.2c.2-1.9.1-3.7 0-5.6 0-.4 0-.7.5-.6 2.5.3 5.1.3 7.5 1 3.7 1 6.3 3.2 7 7.2.7 4.1-.2 7.7-3.7 10.3-2.1 1.6-4.5 2.4-7 2.7-3.7.5-7.5.5-11.2-.6-.2 0-.4 0-.7-.1zm1.7-31.9c1.7 1.5 3 3.2 3.9 5.3.2.5.5.3.8.2 3.4-.6 6.7-.3 9.6 1.6.3.2.5.3.5.3 1.4-1.5 3.7-3.8 5.2-5.3 0 0-.1-.1-.5-.4-1-.8-2.1-1.5-3.4-2-3.4-1.4-6.9-1.6-10.5-1.4-2 .1-3.9.6-5.7 1.5.1.1.1.2.1.2zm2.9 7.3c-1.5-4.1-4.3-7-8.6-8.3-2.9-.9-5.8-.9-8.8-.1-2.2.5-4.2 1.6-5.7 3.3-2.6 2.9-3.1 6.3-2.6 10 .3 2.5 1.4 4.5 3.2 6.2 3.6 3.3 11.9 3.8 15.5-.9.1.9 0 1.6-.1 2.3-.5 3.5-2.6 5.9-5.9 6.4-2.9.5-5.7 0-8.3-1.6-.6-.4-.8-.2-1.1.3-.8 1.5-1.4 2.8-2.3 4.2-.4.7-.3.9.4 1.2 3 1.5 6 2.3 9.2 2.5 6.6.4 12.3-3 14.8-9.1 2.2-5.4 2.2-11 .3-16.4zm-8 4.1c-.5 1.6-1.6 2.6-3.2 3-.9.2-1.9.3-2.8.1-2.6-.4-3.9-2-3.8-4.7.1-2.6 1.6-4.4 4.1-4.6h.8c3.7 0 5.9 2.8 4.9 6.2z" fill="#079bd8"/></svg>