<svg enable-background="new 0 0 39 71" viewBox="0 0 39 71" xmlns="http://www.w3.org/2000/svg"><path d="m15.1 2.6h1.8v.9h1.8c0-.3 0-.6 0-.9h1.8v.9h.9v.8h.9c0-.3 0-.6 0-.9h.9c0-.3 0-.6 0-.9h.9v.9h.9v.9h.9v.9h.9v.9h.9v.8h.9c0-.3 0-.6 0-.8h1.8v.9h2.7v.9h.8v.9c-.3 0-.6 0-.8 0v.9h.9v.9h.8v1.8c-.3 0-.6 0-.8 0v.9h.9v.9h.9v.9h.9v1.8h.9v1.8c-.3 0-.6 0-.9 0v1.8c-.3 0-.6 0-.8 0v2.7h.9v.9h.9v1.8c-.3 0-.6 0-.9 0v2.7c-.3 0-.6 0-.9 0v.9c-.3 0-.6 0-.9 0v.9c-.3 0-.6 0-.9 0v.9c-.3 0-.6 0-.9 0v1.8c-.3 0-.6 0-.9 0v.9c-.6 0-1.2 0-1.8 0v.9c-.3 0-.6 0-.9 0v.9c-.3 0-.6 0-.9 0 0-.3 0-.6 0-.9-.3 0-.6 0-.9 0 0-.6 0-1.2 0-1.7-.9 0-1.8 0-2.7 0v.9c-.3 0-.6 0-.9 0v.9c-.3 0-.6 0-.8 0v6.2h.9v.9h1.8v.9h1.8v.9h.9v.8h.9c0-.6 0-1.2 0-1.8h.9c0-.3 0-.6 0-.9h.9c0-.3 0-.6 0-.8h.9v.8h.9c0-.3 0-.6 0-.8h.9v.9h.9v.9h.9v1.8h.9v1.8c-.3 0-.6 0-.8 0v.9h.8v1.8c-.3 0-.6 0-.9 0v.9c-.3 0-.6 0-.9 0v.8c-1.2 0-2.3 0-3.6 0 0-.3 0-.6 0-.9-.6 0-1.2 0-1.8 0 0-.6 0-1.2 0-1.8-.3 0-.6 0-.9 0 0-.3 0-.6 0-.9-.3 0-.6 0-.9 0 0-.3 0-.6 0-.9-.9 0-1.8 0-2.6 0 0-.3 0-.6 0-.8-.6 0-1.2 0-1.7 0v.9h.8v4.4c-.3 0-.6 0-.8 0v3.5h2.6c0-.3 0-.6 0-.9h1.8c0-.3 0-.6 0-.9h2.6v2.6c-.6 0-1.1 0-1.7 0v.9c-.3 0-.6 0-.9 0v.9c-.6 0-1.2 0-1.8 0v.9c-.3 0-.6 0-.9 0v.9c-.6 0-1.2 0-1.7 0v1.8h.9v.9h.9v.9h.9v1.8h.9v.9h1.8v.9h.9v1.8c-.3 0-.6 0-.9 0v.8c-.3 0-.6 0-.9 0 0-.3 0-.6 0-.8-.3 0-.6 0-.9 0v.8c-.6 0-1.2 0-1.8 0 0-.3 0-.6 0-.8-.9 0-1.8 0-2.7 0v.8c-.6 0-1.2 0-1.8 0 0-.3 0-.6 0-.8-.3 0-.6 0-.9 0v.8c-.3 0-.6 0-.9 0 0-.3 0-.6 0-.8-.6 0-1.2 0-1.8 0v.8c-.3 0-.6 0-.9 0 0-.3 0-.6 0-.8-.3 0-.6 0-.9 0v.8c-.6 0-1.2 0-1.8 0 0-.3 0-.6 0-.8-.3 0-.6 0-.9 0v.8c-.3 0-.6 0-.9 0 0-.3 0-.6 0-.9-.9 0-1.8 0-2.6 0 0-.6 0-1.2 0-1.8h.9c0-.3 0-.6 0-.9h1.8c0-.3 0-.6 0-.9h1.8c0-.6 0-1.2 0-1.8h.9c0-.6 0-1.2 0-1.8h.9c0-.6 0-1.2 0-1.8-.3 0-.6 0-.9 0 0-.3 0-.6 0-.9-.6 0-1.2 0-1.8 0 0-.3 0-.6 0-.9-.3 0-.6 0-.9 0 0-.3 0-.6 0-.8-.6 0-1.2 0-1.8 0v.9c-.3 0-.6 0-.9 0v.9c-.6 0-1.2 0-1.8 0v.8c-.3 0-.6 0-.9 0 0-.3 0-.6 0-.9-.3 0-.6 0-.9 0 0-.6 0-1.2 0-1.8-.3 0-.6 0-.9 0 0-.3 0-.6 0-.9-.6 0-1.2 0-1.7 0 0-.6 0-1.2 0-1.8h.9c0-.3 0-.6 0-.9h.8c0-.3 0-.6 0-.9-.3 0-.6 0-.8 0 0-.6 0-1.2 0-1.8h.9c0-.3 0-.6 0-.9h.9c0-.3 0-.6 0-.8h.9v.8h.9c0-.3 0-.6 0-.9h1.8c0-.3 0-.6 0-.8h.9v.9h1.8v.9h.8v1.8c-.3 0-.6 0-.8 0v2.7h.9v.9h1.8v.9h1.7c0-3.3 0-6.5 0-9.8-.3 0-.6 0-.9 0 0-.3 0-.6 0-.9-.3 0-.6 0-.9 0 0-.3 0-.6 0-.9-.6 0-1.2 0-1.8 0 0-.3 0-.6 0-.9-.3 0-.6 0-.9 0 0-.3 0-.6 0-.8-.6 0-1.2 0-1.8 0v.9c-.3 0-.6 0-.9 0v.9c-.6 0-1.2 0-1.8 0v.8c-.3 0-.6 0-.9 0 0-.3 0-.6 0-.9-.3 0-.6 0-.9 0 0-.6 0-1.2 0-1.8-.3 0-.6 0-.9 0 0-.3 0-.6 0-.9-.6 0-1.2 0-1.7 0 0-.6 0-1.2 0-1.8h.9c0-.3 0-.6 0-.9h.8c0-.3 0-.6 0-.9-.3 0-.6 0-.8 0 0-.6 0-1.2 0-1.8h.9c0-.3 0-.6 0-.9h.9c0-.3 0-.6 0-.8h.9v.8h.8c0-.6 0-1.2 0-1.8-.3 0-.6 0-.9 0 0-.3 0-.6 0-.9-.3 0-.6 0-.9 0 0-.9 0-1.8 0-2.6h1.8c0-.2 0-.3 0-.4-.3 0-.6 0-.9 0 0-.5 0-.9 0-1.3-.6 0-1.2 0-1.8 0v.8c-.3 0-.6 0-.9 0 0-.3 0-.6 0-.9-.3 0-.6 0-.9 0 0-.6 0-1.2 0-1.8-.3 0-.6 0-.9 0 0-.6 0-1.2 0-1.8h.9c0-.6 0-1.2 0-1.8h.8c0-.6 0-1.2 0-1.8-.3 0-.6 0-.9 0 0-.9 0-1.8 0-2.7-.3 0-.6 0-.9 0 0-.9 0-1.8 0-2.7h.9c0-.3 0-.6 0-.9h1.7c0-.9 0-1.8 0-2.7-.3 0-.6 0-.9 0 0-.3 0-.6 0-.9-.3 0-.6 0-.8 0 0-.3 0-.6 0-.9h.9c0-.3 0-.6 0-.9h1.8c0-.6 0-1.2 0-1.8.1.1.4.1.7.1 0-.3 0-.6 0-.9h.9v.8c.3.1.5.1.8.1 0-.3 0-.6 0-.9h1.8c0-.3 0-.6 0-.9h1.8v.8h1.8c0-.3 0-.6 0-.9h.9c0-.6 0-1.2 0-1.8h.9c-.1-.1-.1-.4-.1-.7zm0 32.9v.8c-.6 0-1.2 0-1.8 0 0-.3 0-.6 0-.8-.3 0-.6 0-.9 0v.9c-.3 0-.6 0-.8 0v2.7h.9v.9h1.8v.9h1.7c0-1.8 0-3.5 0-5.3-.3-.1-.6-.1-.9-.1z" fill="#68696b"/></svg>