<svg height="40px" enable-background="new 0 0 72 72" viewBox="0 0 72 72" xmlns="http://www.w3.org/2000/svg" xmlns:xlink="http://www.w3.org/1999/xlink"><linearGradient id="a"><stop offset="0" stop-color="#5cdd8b"/><stop offset="1" stop-color="#86e6a9"/></linearGradient><linearGradient id="b" gradientUnits="userSpaceOnUse" x1="11.8224" x2="60.1776" xlink:href="#a" y1="36" y2="36"/><linearGradient id="c" gradientUnits="userSpaceOnUse" x1="23.299" x2="48.6987" xlink:href="#a" y1="36.0002" y2="36.0002"/><path d="m55.6 26.3c-4.9-7.7-11.6-11.6-20.3-11.6s-15.3 3.9-20 11.6c-4.6 11.3-4.6 19.8 0 25.2 6.9 8.2 31 6.6 40.3 1.2 6.1-3.5 6.1-12.3 0-26.4zm-19.9 19.5c-6.7.2-10.7-1.1-11.7-1.8-.2-.3-.7-1.1-.7-2.9 0-1.7.4-4.8 2.3-9.6 2.5-3.8 5.4-5.4 9.8-5.4 2.3 0 4.2.5 5.8 1.4 1.5.9 2.9 2.3 4.2 4.2 2.8 6.7 3.3 10.2 3.3 11.7-2.4 1-7.1 2.2-13 2.4z" fill="url(#b)"/><path d="m66.1 21.7-.4-.7-.4-.7c-3.4-5.5-7.7-9.7-12.7-12.6-5.1-2.9-10.9-4.4-17.3-4.4s-12.2 1.5-17.3 4.4c-5 2.9-9.2 7.2-12.6 12.7l-.4.7-.3.9c-2.9 7.1-4.3 13.4-4.3 19.1 0 3.3.5 6.5 1.5 9.4 1 3.1 2.6 6 4.7 8.4 3.2 3.8 7.8 6.5 13.7 8.1 4.1 1.1 8.9 1.7 14 1.7h.4c4.7 0 9.6-.5 14.1-1.5 5-1.1 9.2-2.6 12.6-4.5 3.9-2.2 10.3-7.7 10.3-19.2 0-6.1-1.9-13.2-5.6-21.8zm-10.5 31.1c-9.2 5.4-33.3 7-40.3-1.2-4.6-5.5-4.6-13.9 0-25.2 4.7-7.7 11.4-11.6 20-11.6 8.7 0 15.4 3.9 20.2 11.6 6.2 14 6.2 22.8.1 26.4z" fill="#f2f2f2" opacity=".51"/><path d="m41.2 27.6c-1.6-.9-3.5-1.4-5.8-1.4-4.4 0-7.3 1.6-9.8 5.4-1.9 4.8-2.3 7.8-2.3 9.6s.4 2.6.7 2.9c1 .7 5 2 11.7 1.8 6-.2 10.6-1.4 13-2.4 0-1.5-.5-5-3.3-11.7-1.3-2-2.7-3.3-4.2-4.2z" fill="none"/><path d="m35.3 14.7c-8.7 0-15.3 3.9-20 11.6-4.6 11.3-4.6 19.8 0 25.2 6.9 8.2 31 6.6 40.3 1.2 6.2-3.6 6.2-12.4 0-26.5-4.9-7.6-11.6-11.5-20.3-11.5zm.4 31.1c-6.7.2-10.7-1.1-11.7-1.8-.2-.3-.7-1.1-.7-2.9 0-1.7.4-4.8 2.3-9.6 2.5-3.8 5.4-5.4 9.8-5.4 2.3 0 4.2.5 5.8 1.4 1.5.9 2.9 2.3 4.2 4.2 2.8 6.7 3.3 10.2 3.3 11.7-2.4 1-7.1 2.2-13 2.4z" fill="#f2f2f2" opacity=".51"/><path d="m41.2 27.6c-1.6-.9-3.5-1.4-5.8-1.4-4.4 0-7.3 1.6-9.8 5.4-1.9 4.8-2.3 7.8-2.3 9.6s.4 2.6.7 2.9c1 .7 5 2 11.7 1.8 6-.2 10.6-1.4 13-2.4 0-1.5-.5-5-3.3-11.7-1.3-2-2.7-3.3-4.2-4.2z" fill="url(#c)"/></svg>