<svg height="40px" enable-background="new 0 0 72 72" viewBox="0 0 72 72" xmlns="http://www.w3.org/2000/svg" xmlns:xlink="http://www.w3.org/1999/xlink"><linearGradient id="a" gradientTransform="matrix(113.9486 0 0 -156.999 101522.4219 39570.2109)" gradientUnits="userSpaceOnUse" x1="-897.5825" x2="-897.5825" y1="252.039" y2="251.5077"><stop offset="0" stop-color="#2ec1cf"/><stop offset=".233" stop-color="#2cb6cd"/><stop offset="1" stop-color="#1a32b1"/></linearGradient><path d="m-761.9 71.3-.6-.1v-.9c0-.5 0-1.1 0-1.6v-1l1 .3c1.2.3 2.5.5 3.7.6h.3v-.3c0-.4 0-.9 0-1.3 0-.2 0-.4 0-.6 0-3.4 0-6.7 0-9.9 0-4.3 0-8.8 0-13.2 0-.4 0-.8-.2-1.2v-.1h-.1c-2.5-.8-4.2-3.2-4.2-5.8s1.6-4.9 4-5.8c1.5-.6 3.2-.5 4.7.2.2.1.4.2.5.3 1.2.7 2.1 1.8 2.6 3.2 1.1 3.2-.5 6.6-3.7 7.8l-.2.1v.1c-.2.5-.2 1-.2 1.5 0 6.4.1 12.8.1 19.1v6.4 3h-.7c-.4 0-.8 0-1.2 0-1.9-.1-3.8-.3-5.8-.8zm6-37.6c-1.2.1-2.1 1-2.1 2.2 0 1.2 1 2.2 2.2 2.2h.1c1.2-.1 2.1-1.1 2.1-2.3-.1-1.2-1-2.1-2.3-2.1zm6.8 36.4c0-.8-.1-1.3-.1-1.9v-.6l.5-.2c1.1-.4 2.2-.8 3.2-1.4.4-.2.8-.4 1.1-.6l.1-.1v-1.2c0-2.8 0-5.6 0-8.3v-.2c0-1.3 0-2.6 0-3.9v-.1l-.3-.2c-3-1.1-4.5-4.4-3.4-7.4s4.4-4.5 7.4-3.4c2.2.8 3.7 3 3.7 5.3v.1.1.2.1.1.1.1.1c-.3 2-1.6 3.6-3.4 4.4h-.1s-.1.1-.2.1-.1.1-.1.1l-.1.1v15.6l-.3.2c-.5.3-.9.6-1.3.8-1.8 1.1-3.7 2-5.7 2.6l-.9.3zm4.4-24.3c0 .6.2 1.2.6 1.6.4.5.9.8 1.5.8h.1c1.2 0 2.1-1 2.2-2.1 0-.6-.2-1.1-.6-1.6-.4-.4-1-.7-1.5-.7h-.1c-1.1.1-2 .9-2.2 2zm-23.8 22.9c-2.4-1.3-4.7-3.1-6.5-5.2-4.6-5-6.9-11.1-6.9-18.1 0-1.9 0-3.8 0-5.7v-.1c0-3.8.1-7.8 0-11.7-.1-1.1.5-2.1 1.5-2.6 2-1.2 4-2.3 6.2-3.1 1-.3 1.7-1.3 1.5-2.3-.1-2.8-.1-5.7 1-8.5 2.5-6.6 8.8-10.9 15.8-11 3.3 0 6.5 1 9.2 2.9 2.1 1.4 3.9 3.3 5.3 5.5 1.1 1.9 1.8 4 2.1 6.2l.2 1.1-1.1-.2c-.6-.1-1.1-.3-1.7-.5l-.3-.1-.1-.3c-.1-.2-.1-.4-.2-.6v-.1c-.5-2.9-2.1-5.5-4.8-7.8-1.7-1.5-4.1-2.4-6.9-2.7-4.3-.5-8.5 1.1-11.5 4.3s-4.2 7.6-3.4 11.9c0 .1.1.3.2.3.3.2.6.1 1.1-.1.1 0 .2 0 .2-.1 11.5-2.6 22.5-1.5 32.8 3.4h.1c2.4 1.1 3.6 1.7 4.1 2.6.6.9.6 2.2.6 4.8v3.6c0 3.5 0 7.2.1 10.8.1 5.5-1.5 11-4.7 15.5l-1.4 2v-2.5c0-1.2 0-2.2 0-3.1v-.6l.1-.2c.1-.2.2-.5.3-.6 1.6-3.6 2.4-6.7 2.4-10 0-6 0-11 0-15.8 0-1.5-.5-2.4-1.8-3.1-7.9-4.1-16.9-5.8-25.8-4.7-5.6.6-11 2.3-16 4.9-1.1.5-1.8 1.6-1.7 2.8v7.4c0 3.1 0 6.4.1 9.6.1 5.3 2.1 10.3 5.6 14.2l.1.1c.1.1.2.2.4.4.2.3.5.6.9.9l.4.4v-11.3l-.3-.2c-2.9-1.2-4.3-4.5-3.1-7.4s4.5-4.3 7.4-3.1 4.3 4.5 3.1 7.4c-.6 1.5-1.8 2.6-3.3 3.2l-.2.1v17.9zm-2.3-24.4c-.5.5-.8 1.2-.8 1.9.2 1.3 1.2 2.3 2.5 2.4.7 0 1.3-.3 1.7-.8.5-.5.7-1.2.7-1.8-.1-1.3-1.2-2.3-2.4-2.4-.6-.1-1.2.2-1.7.7z" fill="url(#a)" transform="translate(791.833 -.177)"/></svg>