<svg width="50px" height="50px" enable-background="new 0 0 1000 1000"  viewBox="0 0 1000 1000" xmlns="http://www.w3.org/2000/svg"><path d="m606.4 702.6c3.2-6.3 47.8-145.4 75.2-226.7 37.1-110.1 28.7-73.3 59.2-185 .6-2 38-134.4 62.7-202.3 9.9-27.3 12-21.4 14.5-31.4 0 2-5 4.9 19.4-11.9 25.5-17.6 20.1-14.8-9-18.8 17.9-8.9 8.9-3.9 32.5-17.1-4.5-.4-37.3-3-40-3.1-12.8-7-25.8-5.7-39.6-4.1-21.3 2.5-16.3 1.5-41.7-.2-36.6-2.4-23.8 1.9-43 1.8-15.9-.1-14-2.1-19.5 4.2-12.8 14.5-18.8 12.9-.9 33.3 14.6 16.7 20.3 32.6 12.9 56.8-14.8 48.1-161.2 525.3-161.2 522.9-11.8 1.6-17.7 1.6-22-2.8-10.8-11-97.6-297-101.2-308-13-39.5-59.1-177.8-60-204.5-3.2-17.6 5.4-49.8 26-71.3l10-8c1.1-4.9.6-8.1-.9-10.4-11.4-17.7-168.4-3.4-184.1-3.2-24 .3-9.9-4.8-56.3 20.6l-.4 12.9c115.5 69.8 41.8-56.8 214.4 469 38.1 116 47.5 128.8 53.9 170.2 2.3 14.6 3.7 31.8 7.1 46.3 17.3 74.2 52.8 174.1 56.8 213.7 15 45.6 10.3 33.6 20.1 54.4l12.6-13.2c24.9-95.5-.9-35.6 98.7-276.8-.3-.3 3.2-6.1 3.8-7.3zm55.2-507.9c-.1 0-.1 0 0 0-.1-.1 0-.1 0 0z" fill="#933a1f"/><path d="m367.5 338.7-24.9 4.4 4.4 34.1 19.8 7.9 21.8-10.9z" fill="#f1dfd9"/><path d="m349.9 237.1 14.2 14.5-6 21-20.3-1.3-7.8-23.8z" fill="#f1dfd9"/><path d="m516 931.5c-1.1 15.4 1 4.4-12.1 55.3l-12.6 13.2c-9.7-20.8-5.2-8.9-20.1-54.4-.6-6.2-.2-12.7-1.8-18.6-16.2-58.7-45.9-155.3-55-195.3-5.2-22.8-5.6-46.8-11.7-69.2-24.4-89.9 23.9 90.3-143.6-443.1-10.4-33.1-19.2-66.7-30.6-99.5-17.5-50.2-36.7-46.2-59.3-55.4l-30.2-18.2.4-12.9c45.3-24.6 32.9-20.5 56.4-20.6-27.3 12.9-23 9.9-25 14.6 63.4 16.5 65.8 16.3 73.4 8.5l-38-23.6c29.2-2.3-1.5-1 108.3-4.9-8.2 3.8-19.4 4.1-19.9 17.1l-33.4 14.6 17.3 4.5c-9.5 5.6-6.5 4.5-13.4 5.1-10.7-9.1-16.9-1.3-23.2 6.2-23.2-.2-8.3 3.1-62.9-16.4-4.2 8.5-3.8-1.2 50.6 47.1 4.6 11 16.1 20 9.3 34.1 12.3 46.7 11.5 58.6 28.6 56.1 10.9 40 7.9 31 13.5 44.4 11.4 88.2 5.1 21.2 51.1 185.9-.7 21.6 5.6 7.7 45.1 134.4 65.6 210.7 9.1 31.6 79.3 299.4 15.2 58.1-.4 18.1 40.8 118.2.1-69.9-4.2-14.9 18.7-26.6z" fill="#e07b3b"/><path d="m696.7 4c13.2 20.4 11.7 15.8 10.2 22.7l-22.6-3.4c-3.5-1.2-4.6-8.1 19.7 64.7 0 .1.2-.2-2.8 3.2-5.1 13.1-3.8.3-6.2 20-1.6 3.3-4.2 6.6-4.6 10.1-1.8 15.4-5.6 29.7-19.3 39.2 6-20.7 11.6-41.6 18-62.1 17.1-54.9-40.1-63.1-19.4-82.5 15.5-14.6 5.5-12.3 27-11.9z" fill="#e07b3b"/><path d="m861 9.5c-22.5 12.6-14.3 8.2-32.4 17.1 35.2 4.6 35.3 0-10.8 32.4 4.2-24.7 5.5-12.7-14.5-12.6-4 0-8-2.2-12-3.5 4.4-16.7 13.6-29.5 29.7-36.5 6.2.2 23.5 1.7 40 3.1z" fill="#933a1f"/><path d="m314.6 7.5 46-.6c8 5 23.8 1.8 20 19.2l-10 8c3.3-39.9-37.4-11.9-62-10-14.8 1.1-12.6 1.7-13.9.5.5-12.9 11.8-13.3 19.9-17.1z" fill="#933a1f"/><path d="m784.8 143.4c-2.3 1.5-5.9 2.6-6.7 4.7-28.3 75.5-82.3 263.3-92.3 291.8-20.3 57.9 3-13.2-51.2 145-26.1-24.8-22.7-19.8-23-26.8 11.4-1.2 22.4-2.7 14.7-19.7-1.6 1-3.1 2.4-4.7 2.6-8.9 1.2-17.9 3.5-26.6 2.6-5.1-.5-9.2-7.3-14.4-9.7-14.2-6.6-5.9-18.4 4.5-30.3 5.2-6 8.7-4.1 11.2 2.7 5.3 14.3-1.8 19.4 13.1.9l7.6 14.8c18.8-16.8 13.5-11.4 14.4-17 6.9-44.6 6.6-31.2-2.3-46.9-.1-2.7-.2-5.3-.2-8 19.6-29.1 15.4-22.1 19.9-32.5 23.4-7.9 19.9-35.1 22.9-38.4 3.8-8.5 11.9-23.5 10.6-24.4-12.1-8.3-4.8-18.1-4.3-27.3 1.2-2 13.5-.6 4.8-9.4l.1-7.3c13.8-12.2 8.1-30.9 15.2-45.5 1-2.1-3.1-7-2.5-8.2 37.3.9-7.7-27.3 29.2-51.3 13.6-8.8 3.3-42 2.2-48.2l9.8-17c18.1-12.7-1.9-40.7 15.6-59-7-20.7 13-17.1 45.2-17.1.1 29.8 3.2-6.3-12.8 78.9z" fill="#331610"/><path d="m516 931.5c-22.2 11.4-18.5-41.3-18.5 26.8-29.2-70.9-25.7-47-78.3-269.4 3.6 4.7 6.5 12.4 11 13.5 15.3 3.7 26.1 13.5 37.6 22.9.1.1 2.7-2.8 4.2-4.4 9.6 19.2 7 10.7 10.8 37.6-9.9 7.6-10-3.4.3 46.1 10-44.8 6.8-32.1 14.3-57.4 9.8-3.7 4.5-1.2 24.2-11.6 7.2 13.2-1.6 33.1-3.6 35.3-11.8 4.3-2.1 11.6-2.5 17.5-3.6 16.7-6.8 19.1-10 83.7-.2 4 2.8 8.2 4.3 12.3-2.7 20.2-3.6 16.4 1.9 18.2 17.5-26.6 65.9-148.8 77.7-179.8-5.8-3-7.9-.1 13.4-12.8-82.1 199.1-57.8 138-86.8 221.5zm-30-102c-5.1-7.7-12.5-8-18.4-2.9-5.7 4.9-5 24-1.8 31.6 5.1 11.9 2.2 27.9 17 35 3.9 4.2 2.1 1.2 8 13.8 6.8-13.6 12.1-29.7.9-40.1 6.2-31.2 11.9-49.2 6.8-49.8-1.5 8.3 1 5.4-12.5 12.4z" fill="#933a1f"/><path d="m602.6 709.9c-21.2 12.7-19.2 9.8-13.4 12.8-11.4 30.3-60 153.1-77.7 179.8-5.4-1.8-4.5 2-1.9-18.2 2.6-1.8 6.3-3 7.5-5.5 24.2-50.4 32.3-84.3 42-116.3-19.4 0-15.7 1.5-17.4-4.5l28.1-12 4.7-29.9-21.4-9.2c-3.9-4.2 29.4-30.6 20-61.3 26.9 5.8 2.6-37.2 37.8-32.5-1.6 4-2.2 9.3-5.1 11.6-13.5 10.7-15.1 24.6-12.9 43.3 26.9-14.5 24.3-43.7 36.5-63.7 1.6-2.6-.3-7.4-.7-12.4l-14.6 15.7c-2.6-11.8-2.1.6-2.4-44.3l22.7 21.5c57.1-166.5 28.8-81.4 51.2-145 18.2-51.9 22.4-74.8 31.1-102.5 67-213.6 60.2-188.8 67.9-193.9-55.8 180.5-44.1 156-64.8 221.5-21.6 68.5 2.6-17.7-111.6 334-.4 1.6-6 10.8-5.6 11z" fill="#5b2a1e"/><path d="m785.8 137.7c15.7-74.2 11.9-53.4 11.9-73-32.7 0-52.2-3.4-45.2 17.1-17.5 18.3 2.5 46.3-15.6 59-6-2.5-14.8-3.3-17.3-7.7-5.5-9.6-11.2-6.3-17.9-3.8-8.1-21.9-7.1-15.4-5.4-29.3 4.4-6.7-1 1.5 4.5-6.7-.2-3.4 2.8-4.2 3.1-5.4 3.8 1.7 10.3 2.7 11 5.3 2.7 10 7.6 5.5 12.6 3.2 4.1-4.6 11.1-9 11.6-14 1.1-11.6 1-24.3-2.8-35-1.2-3.4 4.3-20.2-11.5-14.5l-18-6.3c.4-1.7.7-3.5 1.1-5.2 3.1-.6 8.1-2.7 9.1-1.5 5.8 7 10.9 4.4 17.2.8s16.4 3.6 17.9 11.7c.4 2.2 2.1 4.2 3.1 6.3 10.7 5.4 8.9 4.9 24.5 2.7 10.6.1 8-.4 11.6 1.4 13.5 4.2 5.6 4.9 29.2.6-3.1 18.6-1.8 13.9-5.6 21.8-7.5 11.1-1.9-2.1-29.1 72.5z" fill="#5b2a1e"/><path d="m809.2 73.5 5.5-8.3z" fill="#933a1f"/><path d="m602.5 709.8 3.2-6z" fill="#933a1f"/><path d="m308.7 24.1 8.7-.6c5.9 9.6 12.7 6.3 20.6 2.2 18.1-9.4 24.7-5.2 25.9 15.5-4.9 5.7-23.7 39.2-19.1 64.1 2.5 71.3 12.5 69.1 4.2 99.6-20-15.1-16.7-10.1-16.6-19.9-8.3 3.4-17.8-14.5-25.8 1-.3.6-6.8-.7-8.5-2.7-14.4-16.9-.1-16.2-27.2-10.7-26.1-58.8-17.9-44.4-31.7-52.9 6.8-14.1-4.7-23.2-9.3-34.1l14.9-26.2 8.6 2.8c16.3 12.7 24.7 10.3 29.7-8.5 7-4.8 1.8.7 25.6-29.6zm17.2 127.9c-6.7-10.1-8.3-24.7-24.1-29.8v21.6c25 13.1 20.7 12.3 24.1 8.2z" fill="#331610"/><path d="m471.9 720.9c-1.5 1.5-4.1 4.5-4.2 4.4-11.4-9.4-22.3-19.2-37.6-22.9-4.5-1.1-7.4-8.8-11-13.5-1.4-12.6-.6.9-3.5-16.6-2.4-5.1-1.6-1.2-3-20.2-6.5-17-2-3.8-22.4-68 9.8 12.4 4.3 6.6 21.4 21.4-2.4-16.3 2.8-22.2 13.3-24.4l7.4 11.9c1.6 10.9 2.9 6.8-6.9 17.5 14.4 7.5 12.3 6.5 13.4 6.7 23.7 72.1 16.2 55.8 30 64.3l8.3-21.5c5.4 17.5 9.8 35.6 27 46.5l13.1-14.5.9 19.5 14.2-2.1 3.6 8.5c8.1-5.6 3.6-2.7 17-11.3 1.5 1.6-19.2 48.8-19.5 49.4-2.9 6-10 9.9-15.2 14.8 6.2-12.5 8.9-25.1 3.5-35.1l-16.4 8.7c1.8-9.4 4-18.5-8.5-23.3-3.1-1.2-4.4-7.3-6.5-11.3-15.5-29.5-11.4-25.8-18.5-24.5l-2.7 32.5c2.8 3.6 2.3 3.1 2.8 3.1z" fill="#5b2a1e"/><path d="m270.8 172.8c27.1-5.5 12.7-6.2 27.2 10.7 1.7 2 8.2 3.2 8.5 2.7 8.6-15.2 17.4 2.4 25.8-1l-.1 7.4c-9.9 4-5.6 2.7-16.8 4.8 4 13.8 2 9.4 9.3 16.2.9 13.8 1.4 27.7 2.8 41.5 2.6 26 10.9 13.5-6 31.4l15.7 3.6-6.7 11.1 7.9 11.6c-26.1 4.6-1.1 24.6-12 34.2-12.9-5.1-12-4.8-12.1-4.9-3.5-6.3-21.9-59.8-27-77.7-4-14.1-4.2-29.2-6.1-43.9 9.4-8.1 13.2-3.7 15 6.5.5 2.7 2.6 5 4 7.5 4.5-2.3 4 3-1.8-31.9l-21.4 7.8c-10.7-39.6-10.5-33.2-6.2-37.6z" fill="#5b2a1e"/><path d="m432.3 592.9c-8.9-14.3-7.4-9.7-7.6-20.4 4.6-12.1 9.2 6.7-27.6-84.1l-34.1 8.4c-9.6-29.1-.7-6.2-31.1-82.1 7.2 4.9 16.6 8.4 20.9 15.2 5 8 9.9 7.2 16.5 5.7-8.7 24.2 6.3 48 28.4 44.4-1.8-4.5-2.9 0 3.8-17.4l3.4 4c.9 3.2.8 8.2 2.8 9.2 31.2 16 3.4 69.4 40.5 78.9l19.9 15.2c-5.4 13.9-3 26.6 4.6 39.3 1 1.7-3.2 6.5-5 9.9l-31.2-41z" fill="#933a1f"/><path d="m363.1 496.8 34.1-8.4c36.8 90.8 32.2 72 27.6 84.1-13.6-9-33.9-11-33.2-35.7l-14.2 3.8z" fill="#5b2a1e"/><path d="m314.3 342 12 4.8c10.9-9.6-14.1-29.6 12-34.2l-7.9-11.6c9.7-16.2 8.2-17.3 14.1 4.2-5.3 9.5 1.1 16.7 4.9 24.4 4.2 18.5 3.8 11.5 2.4 30.6l-17.1-11.3c5.4 63.7 32 43-2.5 57.1z" fill="#933a1f"/><path d="m363.9 391.8 18.7 10.7c-.8 3.5-2.6 10-2.4 10.1 10.3 3.2 2.8 11.1 4.5 16.4-14.4 6-24.3 12.8-31.8.8-4.3-6.8-13.7-10.2-20.9-15.2.5-13.5-6-3.1 31.9-22.8z" fill="#5b2a1e"/><path d="m377.5 540.6 14.2-3.8c-.8 24.7 19.6 26.7 33.2 35.7l.1 8.5c-10.4 2.2-15.7 8.1-13.3 24.4-24.2-20.9-18.9-13.4-34.2-64.8z" fill="#331610"/><path d="m195.9 12.9c14-.7 4.3-4.4 48.5 23.1-8.2 8.4-17.1 5.3-26.2 2.9-54.1-14.3-62.7-7-22.3-26z" fill="#933a1f"/><path d="m270.8 172.8-3.1 3.1c-17.1 2.5-16.3-9.3-28.6-56.1 13.8 8.6 5.6-5.7 31.7 53z" fill="#933a1f"/><path d="m244.6 59.5-14.9 26.2-20.1-17.8c10.1-7.6 6.2-4.2 14.9-13 20.9.1 16.5-1.4 20.1 4.6z" fill="#5b2a1e"/><path d="m224.5 54.8c-8.8 8.9-4.9 5.5-14.9 13-37.5-28.9-33.4-23.4-30.5-29.3z" fill="#933a1f"/><path d="m288.2 50.2c-6.7 4.6-2.9 4.8-17.5-1.8l7.9-4.6-17.3-4.5 33.4-14.6c1.1.9 1.8-3-6.5 25.5z" fill="#933a1f"/><path d="m277 210.2 21.4-7.8c5.8 34.8 6.4 29.6 1.8 31.9-1.4-2.5-3.5-4.9-4-7.5-1.9-10.2-5.6-14.6-15-6.5z" fill="#933a1f"/><path d="m282.9 53.8c-4.9 18.8-13.4 21.2-29.7 8.5 3.9-4.5 15.1-2.7 11.9-13.5 7.4-.6 3.1-1.6 17.8 5z" fill="#5b2a1e"/><path d="m265.1 48.8c3.1 10.8-8 9-11.9 13.5-10.3-3.4-7.9-1.6-11.3-7.3 6.3-7.5 12.6-15.3 23.2-6.2z" fill="#933a1f"/><path d="m407.8 639.3 4.8 12.7z" fill="#933a1f"/><path d="m417 680.1 1.6 3.7z" fill="#933a1f"/><path d="m312.5 338.7 1.8 3.2z" fill="#933a1f"/><path d="m413.8 668.4 1.8 3.8z" fill="#933a1f"/><path d="m448.2 554.8c-37.3-9.5-9.6-62.2-40.5-78.9-2-1.1-1.9-6.1-2.8-9.2 20.3-18 18-14.1 15.9-19.6-14.4-2.6-7.1 1.9-28.8-14.6 23.5-9.1 17.8-4.9 26.6-17.8 4 5.3 9.6 10 11.6 15.9 5 14.7 48 162 17.4 33.3-.6-2.6.9-5.6 1.5-8.5l40 120c-.8 3-3.1 6.4-2.3 8.9 9 28.6 13.3 59 31.3 84.3-5.4-3.2-14.3-5.4-15.6-9.9-4.1-13.9-11.5-17.9-24.8-12.8l-.5 11.3-14.2 1.6c-.5-3.9-1.9-11-1.2-11.2 13.2-3.9 7.4-13.1 6-20.9l.1-7.4c1.8-3.4 6-8.3 5-9.9-7.8-12.6-10-25.4-4.6-39.3-1.2-14.9 0-34.9-14.4-30.7-3.1.7-3.8 9.9-5.7 15.4z" fill="#5b2a1e"/><path d="m573.1 475.7c44.4-147.5 107.3-364.8 76.2-214l24 5.3 13-44.8c10.3 6.2 8.2-3 9.3 35.1-1 1.9-24.8 6.1-20.7 38-9.3-1.6-14 4.2-16.3 11.8-.3 1 5.5 4 8.4 6.1-1.9 21.8-1.9 15.2 1.7 23 4.5 17.3 3.3 42.9 2.8 43.4-9.4.4-8 .5-8.7-.1 12-17.9-25.9-20.7-9.8-42.3 2-2.7.8-7.7 1.1-11.6l-4.9-2.2c-10.6 16.7-6.8 9.2-14.5 28.7l-7.2-9.5c-2.4 2.7-6.1 5-7 8.1-28.1 94-24.3 100.8-47.4 125z" fill="#e07b3b"/><path d="m348.8 205c8.3-30.2-1.7-30.4-4.2-99.6 105.3 348.4 105.8 323.1 73.6 285.3v16l-11.3-8.1c-7.2-15-3.2-9.5-18.4-24.4-.5-2.1.6-1.5 14.8-1.5 1.6-6.1 4.5-2.9-15.1-12.9-5.7-11.7-5-8.4-4.3-13.7 9.8-6.2.4-6.9-2.7-9.3l-6.4-14.9c3.6-8.7 8.5-15 8-20.9-1-11.5-5.4-22.6-7.5-34-4.3-23.1 2.6-4.8-9.6-54-10.9 5.8-17.6 4.8-16.9-8z" fill="#5b2a1e"/><path d="m589.8 452.3c6.2 13.9 3.9 11.3 8.9 12.4 3.1-9.3 5.9-18.8 9.5-28 3.7-9.4 1-13.7-9.1-13.3 25.9-89.4 19.5-71.2 28.5-81.1l7.2 9.5c-3.8 34-2.2 24.5-6.6 33.1-1.8 1.9-4.8 3.6-5.1 5.6-.6 4.1 1.4 8.7.4 12.7-4.3 17.6-4.6 17.2 11.7 18.8.9.1 1.5 3.9 2.2 6l-8.4 12.1c-3.1-3-3-5.5 0 10 .4 13.6-.5 11.2-.2 15.2 1.3 19.1-12.3 30.7-29.5 26.8l-5-15.2c-16.7 11.8-8.1-5.5-33 60.9l-6-.4c28.1-96.7 10.8-41.4 34.5-85.1z" fill="#933a1f"/><path d="m686.3 222.2-13 44.8-24-5.3c11.5-55.6 10.2-44.8 6.5-51.3 4.2-17.4 2.8-14.8 5.8-15.7-2-1.6-2.9 1.1 4.1-19.3 0-.1 5.2-14.7 5.4-14.9 13.6-9.5 17.5-23.8 19.3-39.2.4-3.5 3-6.7 4.6-10.1l6.7 18.2-9 28.4c-18.1 15.1-32.5 61.3-23.7 71.1z" fill="#933a1f"/><path d="m518 668.6c-18-25.3-22.3-55.7-31.3-84.3-.8-2.5 1.5-5.9 2.3-8.9 15.4 44.3 12 49.1 38.7 45.5-1.5 29.3.3 18.4-7 47.6-.9.2-1.7.2-2.7.1z" fill="#933a1f"/><path d="m418.2 390.7c21 24.7 17.7 19.3 19.1 26.8-2.4 12.8-1.2 24.3 10.6 32.4l1.1 5.4c-.5 2.8-2.1 5.9-1.5 8.5 4.1 17.1 8.8 34.1 10.4 52.3-37.7-99.2-16.2-70.6-39.4-101.5-.4-13.9-.3-5.6-.3-23.9z" fill="#331610"/><path d="m526.5 645.3c1.6-32.6-3.2-10.8 28.6-107.8l6 .4c-1.6 25.3 2.8-12.8-18.7 54.4-1.5 4.7 1.5 3.1-1.5 17.6-2.5 4.5-1.9 2.5-2.2 9.1-7.4 17.8 2.7 4.4-12.2 26.3z" fill="#e07b3b"/><path d="m363.8 41.3c-1.1-20.7-7.7-25-25.9-15.5-7.8 4.1-14.7 7.4-20.6-2.2 26-8 56.2-24 53.3 10.5z" fill="#5b2a1e"/><path d="m448 449.9c-11.8-8.1-13-19.7-10.6-32.4z" fill="#5b2a1e"/><path d="m670.1 162.9-4.4 12.4z" fill="#e07b3b"/><path d="m358.8 48.8 4.9-7.5z" fill="#5b2a1e"/><path d="m660 193.3c2.1 1.7 2.3 1.2-.4 2.1-.1-.8 0-1.5.4-2.1z" fill="#e07b3b"/><path d="m755.1 38.7c-1.1-2.1-2.7-4.1-3.1-6.3-1.5-8-11.6-15.2-17.9-11.7-6.3 3.6-11.4 6.2-17.2-.8-1-1.2-5.9.9-9.1 1.5l-11.1-17.4c20.3-5 1.9-5.6 64.5-.1l8.3 11.6c5.3 5.6 4.3 1.5-4.1 10.9-3.6 3.9-6.9 8.1-10.3 12.3z" fill="#933a1f"/><path d="m769.5 15.4-8.3-11.6c19.9.6 40.3-8.1 59.8 2.5-16.2 7-25.3 19.8-29.7 36.5-.9-.4-1.8-.9-2.7-1.3-3.4-19.6-3-17.7-3.1-17.6 13.3.6 3.9-7.9 6.4-12.4z" fill="#e07b3b"/><path d="m826.8 6.6-4.3-.1z" fill="#e07b3b"/><path d="m727.5 96.4c-5 2.3-9.9 6.8-12.6-3.2-.7-2.6-7.2-3.6-11-5.3-23.5-70.4-21.6-62.6-19.7-64.7 27.1 4.1 17.9 1.8 40.6 9.8l-9.5 39 18.7 3z" fill="#933a1f"/><path d="m698.2 97.1-1.9 3c.6-1 1.2-2 1.9-3z" fill="#933a1f"/><path d="m682.8 24.7c-1.1-2.9-1.5-2.5 1.4-1.4z" fill="#933a1f"/><path d="m700.8 93.4-2.3 3.4z" fill="#933a1f"/><path d="m704 88-2.8 3.1z" fill="#933a1f"/><path d="m288.2 50.2 7.2-24.9 13.2-1.2z" fill="#5b2a1e"/><path d="m535.4 630.8c.9-6.8.2-4.1 3.3-11.7.3-6.6-.3-4.5 2.2-9.1 2.1-10.4-1.4-5.4 18-21.4.2-4.9 1.9-47.2 2.1-50.6 25-66.4 16.3-49.1 33-60.9l5 15.2c17.3 3.9 30.9-7.7 29.5-26.8-.2-2.4.3-4.8.5-7.2 8.8 15.6 8.9 2.1 2.3 46.9-.8 5.5 4.4.2-14.4 17l-7.7-14.9-10 12.3c-1.1-4.7-3-18.2-7.6-19.3-5.2-1.2-14.6 12.9-16.9 17.3-3.6 6.9-2.5 12.6 5.6 16.5 5.2 2.5 9.4 9.2 14.4 9.7 8.7.9 17.7-1.4 26.6-2.6 1.6-.2 3.1-1.7 4.7-2.6 7.7 17-3.3 18.5-14.7 19.7-23.7-6.8-16.9 14.1-30.4 40.2-5.3 10.3-6.4 23.3-12.1 31.3-20.8 29.3-2 49.2-21.4 51.1l-1.4-16.9-25.2 4.5c9.2-37.4 3.5-15.8 14.6-37.7z" fill="#5b2a1e"/><path d="m686.3 222.2-17.4 6.5c-8.9-9.8 5.6-56 23.7-71.1 9.9-6.6 6.1-5.6 16.6-5.2 1 7.4 2.6.6-10.7 36.3l18.6 8.7c.8-42.5-.5-35.8 9.9-39.7 1.3 7 11.3 39.5-2.2 48.2-37 23.9 8.2 52.2-29.2 51.3-1.1-38 .9-28.8-9.3-35z" fill="#5b2a1e"/><path d="m547.6 680.7c19.4-1.9.6-21.9 21.4-51.1 5.7-8 6.8-21 12.1-31.3 13.5-26.1 6.8-47 30.4-40.2 1.1 21.9-1.4 31 2.6 49.5l-3.2 5.6c-35.3-4.7-10.8 38.3-37.8 32.5 7.9 26-11.3 41.7-20.4 60.8-13.5 8.8-9.2 5.9-17 11.3l-3.6-8.5c1.8-3.5 12-26.8 15.5-28.6z" fill="#933a1f"/><path d="m637.3 428.1c-.7-2.1-1.3-5.9-2.2-6-16.2-1.6-16.1-1.2-11.7-18.8 1-3.9-1-8.5-.4-12.7.3-2.1 3.3-3.8 5.1-5.6 1.7.7 4 .9 4.9 2.2 11.2 16.1 13.7 8.5 29.8-7.8l.5.4c-9.1 30.7-5.7 20.6-14.6 37.8-4.1 10-1.4 7.8-11.4 10.5z" fill="#e07b3b"/><path d="m695.5 257.7c1 2.6 3.5 6.1 2.7 7.8-7 14.6-1.5 33.4-15.2 45.5-2.5-.7-5.1-1.4-7.6-2.1-.7-21.6-5.1-41.3 20.1-51.2z" fill="#5b2a1e"/><path d="m710 158.1c-.9-7-1.6-3.1 3.4-17.7-4.4-2.2-1.5-4.3-12.4 11.9l-8.3 5.5 9-28.4c6.7-2.5 12.4-5.8 17.9 3.8 2.5 4.4 11.3 5.3 17.3 7.7-11.8 20.4-7.6 16.2-18.3 20.2l-3.4-7.1z" fill="#e07b3b"/><path d="m671.8 379.3c2.1-56.2-10.8-36 6.3-51.6-.5 9.2-8.1 19.3 4.3 27.3 1.2.8-6.9 15.9-10.6 24.3z" fill="#5b2a1e"/><path d="m648.8 417.7c22.1-43.1 6.5-37.5 22.7-38.2-3.2 15.4-4.3 32-22.7 38.2z" fill="#5b2a1e"/><path d="m668.8 336.2c-3.7-7.8-3.6-1.3-1.7-23l8.3-4.2c9.1 2.5 7.6.2 7.5 9.4-6.1 11.7-2.5 7.1-14.1 17.8z" fill="#d8b5aa"/><path d="m645.3 425.9-16.4 24.3c-2.9-14.9-3.4-13.2 0-10 10.1-14.5 6.3-11.5 16.4-14.3z" fill="#5b2a1e"/><path d="m678.1 327.5 4.7-9.2c7.6 7.8-.7 7.4-4.7 9.2z" fill="#5b2a1e"/><path d="m518.1 770.8c18.3-17.2 9.2 1.4 35.2-63.7l21.4 9.2-4.7 29.9-28.1 12c1.7 6-1.9 4.5 17.4 4.5-9.7 32.1-17.8 65.8-42 116.3-1.2 2.5-4.9 3.7-7.5 5.5-1.5-4.1-4.5-8.3-4.3-12.3 3.1-64.6 6.4-67 10-83.7 2.7-19 2.4-17.6 2.6-17.7z" fill="#331610"/><path d="m469 717.7 2.7-32.5c7.1-1.3 2.9-4.9 18.5 24.5 2.1 3.9 3.4 10 6.5 11.3 12.4 5 10.3 13.9 8.5 23.3l-7.8 2.9c-21.2-13.4-15.7-7.2-25.3-26.4-.7.1-.1.6-3.1-3.1z" fill="#e07b3b"/><path d="m482.9 893.2c-14.8-7.1-11.9-23.1-17-35-3.2-7.5-3.9-26.6 1.8-31.6 5.9-5.1 13.3-4.8 18.4 2.9l-13 29.4 21-3.7-2.3 11.7c-13.8 2.8-18.6 9.5-9.6 22.1.7 1.1.4 2.8.7 4.2z" fill="#5b2a1e"/><path d="m482.9 893.2c-.2-1.4 0-3.1-.7-4.2-8.6-12.9-4.2-19.4 9.6-22.1 10.6 9.9 5.6 21.3 2.9 32.4-10.5-3.3-7.9-1.9-11.8-6.1z" fill="#331610"/><path d="m494.1 855.2-21 3.7 13-29.4c13.5-7 10.3-6.9 14.3-2.8z" fill="#331610"/><path d="m491.4 767.3-8.3 37.3c-10.3-49.5-10.2-38.6-.3-46.1-3.8 9.5 1.4 10 8.6 8.8z" fill="#e07b3b"/><path d="m491.4 767.3c-7 1.2-12.4.7-8.6-8.8l-3.1-22.4 17.7 11.1z" fill="#d8b5aa"/><path d="m518 770.9-2.5 17.5c.4-5.9-9.3-13.3 2.5-17.5z" fill="#5b2a1e"/><path d="m485.9 896.5 8.7 2.9-3.8 7.6z" fill="#5b2a1e"/><path d="m500.3 826.7c-3.8-3.9-3.3-1.8-1.7-9.6 2.2.3 1.7-1.5 1.7 9.6z" fill="#e07b3b"/><path d="m611 613.2c4.3-7.4.8-3 17.8-21.3.4 5 2.3 9.8.7 12.4-12.3 20.1-9.6 49.2-36.5 63.7-2.2-18.7-.8-32.9 12.9-43.3 2.9-2.3 3.5-7.6 5.1-11.5z" fill="#331610"/><path d="m727.5 96.4 6.5-21.4-18.7-3 9.5-39c15.8-5.8 10.2 11.1 11.5 14.5 4 10.7 3.9 23.4 2.8 35-.4 5-7.6 9.3-11.6 13.9z" fill="#e07b3b"/><path d="m755.1 38.7c13.4-16.6 9.1-11.5 17.6-19.8 14.8 3.6 4.6 15 6.9 22.5-15.6 2.2-14 2.6-24.5-2.7z" fill="#e07b3b"/><path d="m779.6 41.4c-2.3-7.5 7.9-18.9-6.9-22.5-4.5-4.7-7.4-2.8 19.1-7.4-2.5 4.5 6.9 13-6.4 12.4-1.3-1-1.3-.9.1-.1l3 17.6z" fill="#d8b5aa"/><path d="m762.1 42.2c2 .3 4.1.6 6.1.9-2.1-.3-4.1-.6-6.1-.9z" fill="#933a1f"/><path d="m383.5 350.2c-9.6-5.7-17.7-4.9-25.8-34.9l19.3-8.7-10.1-5.8-8.8-28.2c19.9-19.4-8-17.2-8.2-35.5l13.9-1.4c2.1-12.9-8.6-10.3-16.6-11.2-10-15.8-16-15-22.6-11.1-7.3-6.8-5.4-2.4-9.3-16.2 11.4-2.1 7-.8 16.8-4.8l16.7 12.6c-.6 12.8 6.1 13.7 17 8 12.3 49.6 5.3 30.9 9.6 54 2.1 11.4 6.6 22.6 7.5 34 .5 5.9-4.5 12.2-8 20.9 3.7 8.5 9.7 19.8 8.6 28.3z" fill="#933a1f"/><path d="m301.8 143.9v-21.6c15.8 5.1 17.4 19.6 24.1 29.8-3.4 4 .9 4.8-24.1-8.2z" fill="#5b2a1e"/><path d="m541.6 689.4-9.4 20-14.2 2.1-.9-19.5-13.1 14.4c-17.2-10.9-21.6-29-27-46.5.1-1.8-.2 1.5.5-14 13.3-5.1 20.5-1.1 24.8 12.8 1.4 4.5 10.2 6.7 15.6 9.9 2.6.3 2.4 0 28-4.6 2.1 20.7 3.2 14.1-4.3 25.4z" fill="#331610"/><path d="m468.8 681.5c-13.8-8.6-6.3 7.8-30-64.3l22.5 13.1 6.3-3.6c1.5 7.9 7.1 17-6 20.9-.7.2.8 7.3 1.2 11.2 18.6-2.1 17.5-7.5 6 22.7z" fill="#933a1f"/><path d="m461.3 630.2-22.5-13.1c-1.1-.2-.1 2.1-5.2-15.6-1.6-10.9-2.1-5.7 2.9-23.4 35.3 46.5 37.4 44.9 24.8 52.1z" fill="#d8b5aa"/><path d="m433.6 601.6c1.5 5.1 2.9 10.3 4.4 15.4l-12.6-6.6z" fill="#933a1f"/><path d="m469 717.7 2.6 3.2z" fill="#933a1f"/><path d="m324.6 213.4c12.7-7.4 16.1 4.8 22.4 10.8-12.4 4-12.9 13.8-11.9 24.4 7.4 20.8 4.3 14.3 14.1 23.2l3.2 10.9-13.9 1.1-6.6-8.6c-5.1-23.1-3.6-5.6-7.3-61.8z" fill="#d8b5aa"/><path d="m332 275.2c7.9 10.3 6.8 7.2 5.9 14-.9 1 1.7 1.3-16.4-2.9z" fill="#933a1f"/><path d="m392.1 432.4c21.7 16.5 14.4 12 28.8 14.6 2.1 5.5 4.4 1.6-15.9 19.6l-3.4-4c-6.7 17.4-5.6 12.8-3.8 17.4-22.1 3.6-37-20.3-28.4-44.4 18.4-7.8 13.5-7.4 22.7-3.2z" fill="#e07b3b"/><path d="m448.2 554.8c1.8-5.4 2.5-14.6 5.6-15.5 14.4-4.1 13.2 15.9 14.4 30.7z" fill="#331610"/><path d="m360.3 325.1c12.1 22.2 7 15.4 23.2 25.1 6 12.2 4.5 7.2 6 22.6-.9.2.4-2.2-6.6 16.9l18.3-3 5.7 11.9c-6.1 14.3-16.1 3.8-24.5 3.9l-18.7-10.7c-5.4-18.1-5.6-15.3-1.5-14.5-2.2-2.5-2 2.6 1.9-30.7l-11.3-1.4-3.5-15.4c3.8-1.6 7.4-3.1 11-4.7zm16.8 53.8c-.4-5.6 1.7-4.4-10.2-4.4l.4 5.6z" fill="#d8b5aa"/><path d="m360.8 375.7c-.2-.5-1.2 0-1.5 1.1l4.5 15.1-13.6 7c-10.5-13.9-13.8-29.7-15.5-49.8l17.1 11.3c2.9 5.1-3.9 16 9 15.3z" fill="#e07b3b"/><path d="m377.1 306.6-19.3 8.6c-15.8-12.1-12.1-6.2-17.4-25.6 32.6 13.9 22.2 8.7 36.7 17z" fill="#d8b5aa"/><path d="m366.9 300.8c-28-11.6-26.8-11.6-29-11.6.9-7.2-2.1-5.2 14.6-6.5-3.5-12.2-3.1-11-3.2-10.8l9 .7z" fill="#f1dfd9"/><path d="m344.6 305.3c15.7 12 12.4 7.5 15.8 19.9l-10.9 4.6c-3.7-7.8-10.2-15-4.9-24.5z" fill="#e07b3b"/><path d="m382.5 402.5c8.3-.1 18.4 10.3 24.5-3.9l11.3 8.1c.4 10 1.7 5.9-6.7 18.2-23.5 9.1-17.1 8.7-26.9 4.2-1.6-5.3 5.8-13.2-4.5-16.4-.3-.2 1.6-6.7 2.3-10.2z" fill="#933a1f"/><path d="m662.8 379.5c-16.1 16.2-18.6 23.9-29.8 7.8-.9-1.3-3.2-1.5-4.9-2.2 11.5-22.6-3.9-22.4 21.1-61.8l4.9 2.2c-.3 3.9.9 9-1.1 11.6-16.4 21.6 22 24.4 9.8 42.4z" fill="#d8b5aa"/><path d="m599 423.5c17.5-.8 10 10.3-.4 41.2-5-1.1-2.7 1.5-8.9-12.4 10.3-29.2 7.6-14.1 9.3-28.8z" fill="#5b2a1e"/><path d="m675.4 308.9-8.3 4.2c-3-2.1-8.8-5.1-8.4-6.1 2.4-7.6 7-13.3 16.3-11.8z" fill="#933a1f"/><path d="m598.1 431.1-4.5 10.2z" fill="#933a1f"/><path d="m389.6 372.8-1.2-12.9 16.3 8.3c-1.7 6.1 1.5 4.6-15.1 4.6z" fill="#933a1f"/><path d="m401.2 386.7-18.3 3 5.7-15.5z" fill="#933a1f"/><path d="m384.1 346.2-2.7-9.3c3.1 2.4 12.4 3.1 2.7 9.3z" fill="#d8b5aa"/><g fill="#933a1f"><path d="m560.5 548.2c-.3 8.7-1.3 35.5-1.5 40.4l-16.5 13.6c-.3-10-4.5-.9 13.4-48.7.8-2.1 3.1-3.6 4.6-5.3z"/><path d="m538.8 619-2.6 6.3z"/><path d="m535.4 630.8-3 5.8z"/><path d="m541 609.9-2 3.6c.6-1.2 1.3-2.4 2-3.6z"/><path d="m715.1 153.9c4.7 10 2.8-1.2 2 43.7l-18.6-8.7c13.3-35.9 9.7-29.5 16.6-35z"/><path d="m701 152.2c10.9-16.2 8-14 12.4-11.9l-4.1 12.2z"/></g><path d="m541.6 689.4 5.7-8.5z" fill="#5b2a1e"/><path d="m349.9 241.6-14.8 7c-1.1-10.6-.5-20.4 11.9-24.4.2.4 2.9 10.3 2.9 17.4z" fill="#f1dfd9"/><path d="m349.1 271.9 8.8-20.3c9.6 6.5 9.6 11.7.1 21z" fill="#d8b5aa"/><path d="m349.9 237.1-2.7-12.5c8 .8 18.7-1.7 16.6 11.2z" fill="#d8b5aa"/></svg>