<svg viewBox="0 0 1000 1000" xmlns="http://www.w3.org/2000/svg"><path d="m246.4 842.2-179.1-112.1v-479l438-251.1 427.5 251.6v503.9l-434.3 244.6-150.8-94.3v-229.5l-81.7-51.1v-259.8l236.7-135.7 231.3 136.1v272.2l-183.1 103.1v-109.6c54.9-21.1 94.3-75.5 94.3-139.6s-65.5-149-145.2-149-145.2 66.4-145.2 149 39.4 118.5 94.3 139.6v207.7l52.4 32.8 321.1-180.8v-376.4l-318-187.3-327.1 187.5v354.1l68.9 43.1zm253.6-418.9c36.1 0 64.6 31.1 64.6 68.5s-28.5 68.5-64.6 68.5-64.6-31.1-64.6-68.5 28.5-68.5 64.6-68.5z" fill="#123678" fill-rule="evenodd"/></svg>