<svg width="50px" height="50px" enable-background="new 0 0 1024 1024" viewBox="0 0 1024 1024" xmlns="http://www.w3.org/2000/svg"><path d="m208.3 664.5c-51.5-.2-153.7-133.6-153.7-150.8 0-10.7 102.5 66.7 154 66.9 51.7.2 155.5-76.4 155.5-65.6-.1 17.2-104.2 149.7-155.8 149.5z" fill="#27c016"/><g fill="#1729c1"><path d="m815.7 359.5c51.5.2 153.7 133.6 153.7 150.8 0 10.7-102.5-66.7-154-66.9-51.7-.2-155.5 76.4-155.5 65.6.1-17.2 104.2-149.7 155.8-149.5z"/><path d="m745.2 264.9c48.5-17.4 190.1 72.9 196 89.2 3.6 10.1-119.2-27.6-167.6-10.2-48.6 17.4-120 124.9-123.6 114.8-5.9-16.2 46.7-176.4 95.2-193.8z"/><path d="m278.8 759.1c-48.5 17.4-190.1-72.9-196-89.2-3.6-10.1 119.2 27.6 167.6 10.2 48.6-17.5 120-124.9 123.6-114.8 5.9 16.2-46.7 176.4-95.2 193.8z"/><path d="m646.6 200c39.6-33 203.6 3.5 214.7 16.8 6.9 8.2-121.4 14.8-161 47.8-39.7 33-70 158.4-76.9 150.2-11-13.3-16.4-181.8 23.2-214.8z"/><path d="m377.4 824c-39.6 33-203.6-3.5-214.7-16.8-6.9-8.2 121.4-14.8 161-47.8 39.7-33 70-158.4 76.9-150.2 11 13.3 16.4 181.8-23.2 214.8z"/><path d="m531.8 172.8c26-44.5 192.5-66.3 207.5-57.6 9.3 5.4-109 55.4-134.9 99.9-26 44.6-11.6 172.8-20.9 167.4-15-8.7-77.7-165.2-51.7-209.7z"/><path d="m492.2 851.2c-26 44.5-192.5 66.3-207.5 57.6-9.3-5.4 109-55.4 134.9-99.9 26-44.6 11.6-172.8 20.9-167.4 15 8.7 77.7 165.2 51.7 209.7z"/><path d="m414.6 186.4c9.2-50.7 158.2-128.2 175.2-125.1 10.6 1.9-83.5 89.4-92.6 140.1-9.2 50.8 48.2 166.4 37.6 164.5-17-3.1-129.4-128.7-120.2-179.5z"/><path d="m609.4 837.6c-9.2 50.7-158.2 128.2-175.2 125.1-10.6-1.9 83.5-89.4 92.6-140.1 9.2-50.8-48.2-166.4-37.6-164.5 17 3.1 129.4 128.7 120.2 179.5z"/><path d="m309.1 239.4c-8.7-50.8 104.9-174.6 121.9-177.5 10.6-1.8-47.9 112.6-39.1 163.3 8.8 50.9 102.2 139.9 91.6 141.7-17 2.9-165.6-76.6-174.4-127.5z"/><path d="m714.9 784.6c8.7 50.8-104.9 174.6-121.9 177.5-10.6 1.8 47.9-112.6 39.1-163.3-8.8-50.9-102.2-139.9-91.6-141.7 17-2.9 165.6 76.6 174.4 127.5z"/><path d="m228.1 325.2c-25.6-44.7 38.8-199.9 53.8-208.5 9.3-5.3-6.5 122.1 19.1 166.8 25.6 44.9 143.9 96.5 134.6 101.8-15 8.6-181.9-15.3-207.5-60.1z"/><path d="m795.9 698.8c25.6 44.7-38.8 199.9-53.8 208.5-9.3 5.3 6.5-122.1-19.1-166.8-25.6-44.9-143.9-96.5-134.6-101.8 15-8.6 181.9 15.3 207.5 60.1z"/><path d="m181.3 433.6c-39.3-33.3-31.9-201.1-20.7-214.3 6.9-8.2 35.7 117 75 150.3 39.4 33.4 168.2 41.5 161.3 49.7-11.2 13-176.2 47.6-215.6 14.3z"/><path d="m842.7 590.4c39.3 33.3 31.9 201.1 20.7 214.3-6.9 8.2-35.7-117-75-150.3-39.4-33.3-168.2-41.4-161.2-49.6 11.1-13.1 176.1-47.7 215.5-14.4z"/><path d="m174.5 551.4c-48.4-17.8-98.8-178.1-92.8-194.3 3.7-10.1 73.5 97.7 121.8 115.5 48.5 17.9 172.2-18.6 168.5-8.5-5.9 16.2-149.1 105.2-197.5 87.3z"/><path d="m849.5 472.6c48.4 17.8 98.8 178.1 92.8 194.3-3.7 10.1-73.5-97.7-121.8-115.5-48.5-17.9-172.2 18.6-168.5 8.5 5.9-16.2 149.1-105.2 197.5-87.3z"/></g></svg>