<svg width="50px" height="50px" enable-background="new 0 0 480 480" viewBox="0 0 480 480" xmlns="http://www.w3.org/2000/svg" xmlns:xlink="http://www.w3.org/1999/xlink"><mask id="a" height="431" maskUnits="userSpaceOnUse" width="433.5" x="28.4" y="29"><path clip-rule="evenodd" d="m335.8 458.1c6.8 2.7 14.6 2.5 21.5-.8l89.2-42.9c9.4-4.5 15.3-14 15.3-24.4v-291c0-10.4-6-19.9-15.3-24.4l-89.2-42.9c-9-4.3-19.6-3.3-27.5 2.5-1.1.8-2.2 1.7-3.2 2.8l-170.8 155.7-74.4-56.5c-6.9-5.3-16.6-4.8-23 1l-23.9 21.7c-7.9 7.2-7.9 19.5 0 26.7l64.5 58.9-64.5 58.8c-7.9 7.2-7.8 19.5 0 26.7l23.9 21.7c6.4 5.8 16.1 6.3 23 1l74.4-56.5 170.8 155.8c2.7 2.7 5.8 4.8 9.2 6.1zm17.8-312-129.6 98.3 129.6 98.3z" fill="#fff" fill-rule="evenodd"/></mask><linearGradient id="b" gradientTransform="matrix(1 0 0 -1 0 482)" gradientUnits="userSpaceOnUse" x1="244.9983" x2="244.9983" y1="453.0032" y2="22.0467"><stop offset="0" stop-color="#fff"/><stop offset="1" stop-color="#fff" stop-opacity="0"/></linearGradient><g mask="url(#a)"><path d="m446.5 74.6-89.3-43c-10.3-5-22.7-2.9-30.8 5.2l-292.1 266.5c-7.9 7.2-7.9 19.5 0 26.7l23.9 21.7c6.4 5.8 16.1 6.3 23.1 1l351.8-266.9c11.8-9 28.8-.5 28.8 14.3v-1c0-10.5-6-19.9-15.4-24.5z" fill="#0065a9"/><path d="m446.5 414.3-89.3 43c-10.3 5-22.7 2.9-30.8-5.2l-292.1-266.5c-7.9-7.2-7.9-19.5 0-26.7l23.9-21.7c6.4-5.8 16.1-6.3 23.1-1l351.9 266.9c11.8 9 28.8.5 28.8-14.3v1c-.1 10.5-6.1 20-15.5 24.5z" fill="#007acc"/><path d="m357.3 457.3c-10.3 5-22.7 2.9-30.8-5.2 10 10 27.1 2.9 27.1-11.2v-392.8c0-14.1-17.1-21.2-27.1-11.2 8.1-8.1 20.5-10.2 30.8-5.2l89.2 42.9c9.4 4.5 15.3 14 15.3 24.4v291c0 10.4-6 19.9-15.3 24.4z" fill="#1f9cf0"/><path clip-rule="evenodd" d="m335.6 458.1c6.8 2.7 14.6 2.5 21.5-.8l89.2-42.9c9.4-4.5 15.3-14 15.3-24.4v-291c0-10.4-6-19.9-15.3-24.4l-89.2-42.9c-9-4.3-19.6-3.3-27.5 2.5-1.1.8-2.2 1.7-3.2 2.8l-170.8 155.7-74.4-56.5c-6.9-5.3-16.6-4.8-23 1l-23.9 21.7c-7.9 7.2-7.9 19.5 0 26.7l64.5 58.8-64.5 58.8c-7.9 7.2-7.8 19.5 0 26.7l23.9 21.7c6.4 5.8 16.1 6.3 23 1l74.4-56.5 170.7 155.9c2.7 2.7 5.9 4.8 9.3 6.1zm17.8-312-129.6 98.3 129.6 98.3z" fill="url(#b)" fill-rule="evenodd" opacity=".25"/></g></svg>