<svg height="50px" enable-background="new 0 0 72 72" viewBox="0 0 72 72" xmlns="http://www.w3.org/2000/svg"><g fill="#2185d0" transform="translate(-74.955668 -49.176243)"><path d="m97.2 78.9c-1.4 4.6-2.9 8.8-4.3 12.6-1.5 3.9-2.9 7.6-4.4 11.3h-4.9c-1.8-5.2-3.4-10.7-4.8-16.5s-2.6-12.1-3.8-18.8h5.2c.5 2.6 1 5.3 1.5 7.9s1 5.2 1.6 7.7c.5 2.5 1.1 4.9 1.6 7.1.5 2.3 1.1 4.4 1.7 6.3 1.4-3.6 2.8-7.5 4.3-11.7 1.5-4.3 3-8.7 4.3-13.2h4.3c1.3 4.6 2.8 9 4.3 13.2 1.6 4.2 3 8.2 4.4 11.7.5-1.9 1.1-4 1.6-6.3s1.1-4.7 1.6-7.1c.5-2.5 1.1-5.1 1.6-7.7.5-2.7 1-5.3 1.5-8h5c-1.2 6.8-2.5 13.1-3.9 18.8-1.4 5.8-2.9 11.3-4.7 16.5h-4.9c-1.5-3.7-3-7.4-4.4-11.3-1.5-3.7-3-7.9-4.4-12.5z"/><path d="m133.5 99.3c5.2 0 7.7-1.8 7.7-5.3 0-1.1-.2-2-.7-2.8-.4-.8-1.1-1.4-1.8-2-.8-.6-1.7-1.1-2.7-1.5s-2-.8-3.2-1.2c-1.3-.4-2.5-.9-3.7-1.5s-2.2-1.2-3-2-1.5-1.7-2-2.8-.7-2.3-.7-3.8c0-3.1 1.1-5.5 3.2-7.2s5-2.6 8.7-2.6c2.1 0 4.1.2 5.8.7 1.8.4 3.1.9 3.9 1.5l-1.6 4c-.7-.4-1.8-.9-3.2-1.3s-3-.7-4.9-.7c-1 0-1.8.1-2.6.3s-1.5.5-2.1.9-1.1.9-1.5 1.6c-.3.6-.5 1.3-.5 2.2 0 1 .2 1.7.6 2.4.4.6.9 1.2 1.6 1.7s1.5.9 2.3 1.3c.9.4 1.9.8 3 1.2 1.5.6 2.9 1.2 4.2 1.8s2.4 1.3 3.3 2.2c1 .8 1.7 1.9 2.2 3.1s.8 2.6.8 4.2c0 3.1-1.1 5.5-3.4 7.1-2.2 1.7-5.4 2.5-9.5 2.5-1.4 0-2.7-.1-3.9-.3s-2.2-.4-3.1-.6c-.9-.3-1.7-.5-2.4-.8-.6-.3-1.2-.6-1.5-.8l1.5-4.1c.8.4 2 .9 3.6 1.5 1.3.9 3.3 1.1 5.6 1.1z"/></g></svg>