<?xml version="1.0" encoding="UTF-8"?>
<svg id="Layer_1" xmlns="http://www.w3.org/2000/svg" xmlns:xlink="http://www.w3.org/1999/xlink" version="1.1" viewBox="0 0 243.7 243.7">
  <!-- Generator: Adobe Illustrator 30.0.0, SVG Export Plug-In . SVG Version: 2.1.1 Build 123)  -->
  <defs>
    <style>
      .st0 {
        fill: url(#linear-gradient2);
      }

      .st1 {
        fill: url(#linear-gradient1);
      }

      .st2 {
        fill: url(#linear-gradient3);
      }

      .st3 {
        fill: url(#linear-gradient6);
      }

      .st4 {
        fill: url(#linear-gradient8);
      }

      .st5 {
        fill: url(#linear-gradient7);
      }

      .st6 {
        fill: url(#linear-gradient5);
      }

      .st7 {
        fill: url(#linear-gradient4);
      }

      .st8 {
        fill: url(#linear-gradient);
      }
    </style>
    <linearGradient id="linear-gradient" x1="130" y1="-322.1" x2="113.2" y2="-487.7" gradientTransform="translate(0 519.9)" gradientUnits="userSpaceOnUse">
      <stop offset="0" stop-color="#75be2c"/>
      <stop offset=".9" stop-color="#9dc03b"/>
    </linearGradient>
    <linearGradient id="linear-gradient1" x1="122" y1="-391.1" x2="122" y2="-336.9" gradientTransform="translate(0 519.9)" gradientUnits="userSpaceOnUse">
      <stop offset="0" stop-color="#238d37"/>
      <stop offset=".9" stop-color="#35537f"/>
    </linearGradient>
    <linearGradient id="linear-gradient2" x1="116.1" y1="-419.3" x2="124.5" y2="-364" gradientTransform="translate(0 519.9)" gradientUnits="userSpaceOnUse">
      <stop offset="0" stop-color="#67d84d"/>
      <stop offset="1" stop-color="#348522"/>
    </linearGradient>
    <linearGradient id="linear-gradient3" x1="199.9" y1="-462.7" x2="199.9" y2="-366.5" gradientTransform="translate(0 519.9)" gradientUnits="userSpaceOnUse">
      <stop offset="0" stop-color="#e4d00a"/>
      <stop offset=".6" stop-color="#c4d132"/>
    </linearGradient>
    <linearGradient id="linear-gradient4" x1="43.6" y1="-462.7" x2="43.6" y2="-366.5" gradientTransform="translate(0 519.9)" gradientUnits="userSpaceOnUse">
      <stop offset="0" stop-color="#e4d00a"/>
      <stop offset=".6" stop-color="#c4d132"/>
    </linearGradient>
    <linearGradient id="linear-gradient5" x1="178.1" y1="-365.5" x2="178.1" y2="-333.4" gradientTransform="translate(0 519.9)" gradientUnits="userSpaceOnUse">
      <stop offset="0" stop-color="#8ab11b"/>
      <stop offset="1" stop-color="#6eaf02"/>
    </linearGradient>
    <linearGradient id="linear-gradient6" x1="201.5" y1="-404.2" x2="194.7" y2="-350.2" gradientTransform="translate(0 519.9)" gradientUnits="userSpaceOnUse">
      <stop offset="0" stop-color="#75be2c"/>
      <stop offset=".9" stop-color="#9dc03b"/>
    </linearGradient>
    <linearGradient id="linear-gradient7" x1="65.7" y1="-365.3" x2="65.7" y2="-333.4" gradientTransform="translate(0 519.9)" gradientUnits="userSpaceOnUse">
      <stop offset="0" stop-color="#8ab11b"/>
      <stop offset="1" stop-color="#6eaf02"/>
    </linearGradient>
    <linearGradient id="linear-gradient8" x1="48.8" y1="-404" x2="42.2" y2="-339" gradientTransform="translate(0 519.9)" gradientUnits="userSpaceOnUse">
      <stop offset="0" stop-color="#75be2c"/>
      <stop offset=".9" stop-color="#9dc03b"/>
    </linearGradient>
  </defs>
  <path class="st8" d="M222.1,80l-37.1-21.6c-6.2-3.6-14.1.9-14.1,8.1v54.6l-26.4-15.2c-14.1-8.1-31.5-8.1-45.6,0l-26.2,15.2v-54.6c0-7.2-7.8-11.7-14-8.1l-37.1,21.6c-4.3,2.5-7,7.1-7,12.1v51.3c0,3.6.9,7,2.6,10h0c1.7,3.1,4.1,5.7,7.2,7.7l19.1,12.2,14.7,9.3c8.8,5.6,20.1,5.1,28.4-1.1l1.1-.9s.2-.2.3-.2l22.1-16.9c6.5-4.9,17-4.9,23.5,0l22,16.8h.1l1.4,1.1c8.3,6.3,19.7,6.7,28.4,1.1l14.7-9.3,19.2-12.2c3-1.9,5.5-4.6,7.1-7.6s2.6-6.5,2.6-10.1v-51.2h0c0-5-2.6-9.6-7-12.1h0Z"/>
  <path class="st1" d="M171.2,154.3v18.4c0,5.7-4.1,10.3-9,10.3s-4.4-1-6.6-2.7l-22-16.8c-6.5-4.9-17-4.9-23.5,0l-22.1,16.9c-2.2,1.7-3.6,2.1-5.7,2.2-5.1,0-9.7-3.8-9.7-9.8v-18.4l31.6-20.4c10.8-7,24.7-7,35.5,0l31.6,19.9v.4h-.1Z"/>
  <path class="st0" d="M170.9,121v33.6l-31.3-20.1c-10.8-6.9-24.6-6.9-35.5,0l-31.5,20.1v-33.5l26.3-15.2c14.1-8.2,31.5-8.2,45.6,0l26.4,15.2h0Z"/>
  <path class="st2" d="M229,92.1v51.2c0,3.6-.9,7-2.6,10.1l-55.6-32.3v-54.6c0-7.2,7.8-11.7,14.1-8.1l37.1,21.6c4.3,2.5,7,7.1,7,12.1h0Z"/>
  <path class="st7" d="M72.7,66.5v54.6l-55.6,32.3c-1.7-3-2.6-6.5-2.6-10v-51.3c0-5,2.6-9.6,7-12.1l37.1-21.6c6.2-3.6,14,.9,14,8.1h0Z"/>
  <path class="st6" d="M161.4,182.4c4.9,0,9.6-3.9,9.6-9.5v-18.4l29.3,18.7-14.8,9.4c-8.8,5.6-20.1,5.2-28.4-1.1l-1.4-1.1c2.1,1.4,3.9,2,5.8,2h-.1Z"/>
  <path class="st3" d="M226.5,153.4c-1.7,3.1-4.1,5.7-7.1,7.6l-19.2,12.2-29.2-18.7v-33.6l55.5,32.4h0Z"/>
  <path class="st5" d="M72.7,172.9c0,5.6,4.7,10.1,9.6,9.5,2.2-.2,3.9-.6,5.6-1.9l-1.3,1c-8.3,6.3-19.7,6.7-28.4,1.1l-14.7-9.3h0l29.3-18.7v18.3h0Z"/>
  <path class="st4" d="M72.7,121.1v33.5l-29.3,18.7h0l-19.1-12.2c-3.1-1.9-5.5-4.6-7.2-7.7l55.6-32.3h0Z"/>
</svg>