<svg width="50px" height="50px" enable-background="new 0 0 1024 1024" viewBox="0 0 1024 1024" xmlns="http://www.w3.org/2000/svg"><path d="m858.1 456.8c-29.2-24.1-52.4-43.9-83.1-69.1-7.1-40.2-14.1-79.7-21-118.3-11.7-66-68.8-135.5-129.2-154.7-27.6-8.8-53.4-6.1-77.9 8.6-29.8-31.6-60.9-52.8-94.9-63.6-80.6-25.8-146.7 20.9-139.2 108 4.2 48.5 8.4 101.2 11.9 142.9-45.6 18.9-92.6 38.9-131.2 55.2-48.1 20.5-81.2 61.6-94 110.4-13 49.8-5.2 107.5 27.7 158.6 29.2 45.8 71.1 76.8 124.6 93.6-4.4 60.3 6.4 112.4 33.4 155.2 30.6 48.6 75.8 77.7 121.9 85.6 45.3 7.8 91.1-5 126.1-38.2 37.5-36.2 73-70.4 106.8-102.8 40.1 24.1 78.7 47.3 116.3 69.9 61.4 36.6 124.2-3.2 139-81 6.2-32.4 3.5-68.6-8.1-109.6 21.9-13.5 35.5-34.5 41-64 11.5-62.4-19.4-144.6-70.1-186.7zm10.2 140.4c-3.3 15-13.1 24-25.2 22.6-10-1.2-18.3-5.3-35.4-17.8-28.1-21-56.8-42.6-86.5-64.5-2.6-1.8-5.5-3.9-8.2-5.8-24.7-18.2-46.3-14.7-54.5 10.2-8.5 25.5 3.5 55.4 28.9 73.3 2.7 1.9 5.8 4.1 8.5 6 31 21.7 61.5 42.9 91.1 63.5 12.6 8.8 21.9 17 28.1 24.4 13.7 15.6 20.2 41.4 15.5 62.9-5.1 22.7-19.7 34.5-37.5 30.5-9-1.9-15.7-5.6-31.9-16-31.3-20.3-63.4-41.3-96.6-62.6-3-1.9-6.1-4-9.1-6.1-10.5-6.4-20.5-9.3-29.4-8.9-9.9-.7-20.3 2.9-30.3 10.9-2.8 2.3-5.6 4.5-8.2 6.9-31 25.5-63 52.6-97.1 81.2-18.4 15.4-26.6 21.3-38.9 25.7-24.7 9.4-52-1.2-69.1-28.3-16.1-26.5-15.4-60.8 1.3-82.5 7.1-9.6 19.1-20.6 35.6-32.4 36-25.7 70.1-50 102.5-73.2 2.9-2 5.8-4 8.7-6.1 24.6-17.4 29.3-48.3 11.9-77-16.9-28.7-44.8-37.4-71.3-21.4-3 1.8-6 3.6-8.9 5.6-34.3 21-70.2 43.2-108.1 66.6-24.4 14.7-37.3 19.5-55.6 20.3-22.5 1.2-46.2-12.7-59.9-34.6-15.6-24.4-16.1-54.6-1.1-73.4 8.4-11 17.4-17.7 43.2-31 40-20.7 78.3-40.2 114.7-58.4 3.1-1.9 6.2-3.2 9.5-4.8 2.2-1.1 4.3-2.4 6.1-3.7 16.3-7.2 24.2-25.2 21.7-49.5-.4-4.1-.7-8-1.4-11.9-4.4-43.2-8.8-85.5-13.4-126.9-2.7-25.3-2.4-34.2.8-44.2 5.1-15.9 23.2-22.9 43.4-17.4 17.8 4.8 34.9 18.8 44.2 35.7 7.6 14.1 11.1 25.7 14.2 49.7 5 39.4 10.2 79.4 15.4 120.3.5 3.7 1 7.4 1.5 11.2 4.4 34 24.6 58.5 50.9 62 25.3 3.4 38.7-16.4 34.1-48.3-.4-3.5-1-7.2-1.4-10.6-5.7-39.2-11.4-77.5-16.9-115.1-2.4-16.2-3.2-28.7-1.9-36.7 2-17.8 16.2-27.1 34.3-22.2 18.3 5 35.5 21.9 43.4 42 4.1 10.2 5.9 18.1 9 36.9 6 36 11.2 72.2 17.4 109.6l2.2 10.4c1.9 9.2 2.7 11 4.3 16l-.4-1.6-.1-.3-.1-.3-.1-.5v-.1h.2c3.2 14.2 12.5 28.2 26.9 39.5 2.5 2 5.3 4 7.8 6.1 27.9 22 55.2 43.6 82 64.6 16.1 12.7 21.9 18.5 28.3 27.5 10.2 14.6 14.5 35.8 10.9 52z" fill="#97beef" fill-opacity=".94"/></svg>