<svg width="50px" height="50px" id="b2d36501-416f-4b6c-ada7-b216310a14ea" data-name="Layer 1" xmlns="http://www.w3.org/2000/svg" xmlns:xlink="http://www.w3.org/1999/xlink" viewBox="0 0 1024 1024">
  <defs>
    <style>
      .fa27e50a-3a34-492f-9325-b4c5bbfb3c25 {
        fill: none;
      }

      .ab5f9a62-b45f-48e5-be9e-5b6d9e3dab3a {
        clip-path: url(#a3f9094b-a003-46de-8421-4db7ca364640);
      }

      .a38c37c5-87f0-4937-950e-2ae1421d6a26 {
        fill: url(#bb60a3f8-82c8-45d5-8c29-41374b850eba);
      }

      .a29976f1-65ca-4a32-92c1-c625f68976d2 {
        fill: url(#a201dbe0-33f7-4176-8617-143b3d118c10);
      }

      .ae3061b8-dec0-4ecc-a4bc-4040a8854f56 {
        fill: url(#b6c2544f-973d-4a2d-9d73-718e04dea8cb);
      }

      .f7c5e29f-7ed3-45e8-a376-c4a825e52f85 {
        fill: url(#a29831b8-de22-4a8c-890c-463477f75fe3);
      }
    </style>
    <clipPath id="a3f9094b-a003-46de-8421-4db7ca364640">
      <circle class="fa27e50a-3a34-492f-9325-b4c5bbfb3c25" cx="512" cy="512" r="388.97"/>
    </clipPath>
    <radialGradient id="bb60a3f8-82c8-45d5-8c29-41374b850eba" cx="385.09" cy="251.74" r="213.06" gradientUnits="userSpaceOnUse">
      <stop offset="0" stop-color="#6c7cb1"/>
      <stop offset="0.45" stop-color="#4a5c94"/>
      <stop offset="0.89" stop-color="#253874"/>
    </radialGradient>
    <radialGradient id="a201dbe0-33f7-4176-8617-143b3d118c10" cx="488.65" cy="400.67" r="312.32" gradientUnits="userSpaceOnUse">
      <stop offset="0" stop-color="#b5e192"/>
      <stop offset="0.27" stop-color="#93bf70"/>
      <stop offset="0.85" stop-color="#3e6a1a"/>
      <stop offset="0.89" stop-color="#396515"/>
    </radialGradient>
    <radialGradient id="b6c2544f-973d-4a2d-9d73-718e04dea8cb" cx="533.01" cy="608.28" r="306.88" gradientUnits="userSpaceOnUse">
      <stop offset="0" stop-color="#f2c467"/>
      <stop offset="0.51" stop-color="#efa253"/>
      <stop offset="0.89" stop-color="#ec8743"/>
    </radialGradient>
    <radialGradient id="a29831b8-de22-4a8c-890c-463477f75fe3" cx="611.01" cy="771.95" r="207.65" gradientUnits="userSpaceOnUse">
      <stop offset="0" stop-color="#b93f44"/>
      <stop offset="0.52" stop-color="#972224"/>
      <stop offset="0.89" stop-color="#7d0b0c"/>
    </radialGradient>
  </defs>
  <g class="ab5f9a62-b45f-48e5-be9e-5b6d9e3dab3a">
    <g>
      <path class="a38c37c5-87f0-4937-950e-2ae1421d6a26" d="M115.13,383.23C104.48,410.7,468,130.78,654.8,142.37,671.16,143.39,262,4.56,115.13,383.23Z"/>
      <path class="a29976f1-65ca-4a32-92c1-c625f68976d2" d="M89.37,498.46v68a23,23,0,0,0,23.78,23c248.4-9.33,540-361.43,774.78-221.72C833.81,136.27,602.47,167,215.75,430.1a261.75,261.75,0,0,1-108,45.94C97,477.91,89.37,487.56,89.37,498.46Z"/>
      <path class="ae3061b8-dec0-4ecc-a4bc-4040a8854f56" d="M144,705.14c144.12,158.42,357.63,123.3,653.61-133,18.84-16.32,52-35.9,64.61-44,21.4-13.71,59.91-15.35,59.91-40.77V469c0-66.58-83.26-63.33-142.15-29.14C700.08,486.2,385.09,671.06,385.09,671.06S245.7,751.51,144,705.14Z"/>
      <path class="f7c5e29f-7ed3-45e8-a376-c4a825e52f85" d="M349.55,870.09c190.89,20,522.92-231.84,522.92-231.84C843.49,815.38,644.5,980.21,349.55,870.09Z"/>
    </g>
  </g>
</svg>
