<?xml version="1.0" encoding="UTF-8"?>
<svg width="32px" height="39px" viewBox="0 0 32 39" version="1.1" xmlns="http://www.w3.org/2000/svg" xmlns:xlink="http://www.w3.org/1999/xlink">
    <!-- Generator: Sketch 53.2 (72643) - https://sketchapp.com -->
    <title>Wireguard</title>
    <desc>Created with Sketch.</desc>
    <defs>
        <polygon id="path-1" points="0 31.9992 31.9992 31.9992 31.9992 0 0 0"></polygon>
    </defs>
    <g id="Wireguard" stroke="none" stroke-width="1" fill="none" fill-rule="evenodd">
        <g id="wireguard" transform="translate(0.000000, 4.000000)">
            <g id="Group" transform="translate(16.000000, 16.000000) scale(-1, 1) rotate(-180.000000) translate(-16.000000, -16.000000) translate(0.000000, 0.000000)">
                <g id="Clipped">
                    <mask id="mask-2" fill="white">
                        <use xlink:href="#path-1"></use>
                    </mask>
                    <g id="Path"></g>
                    <g id="Group" mask="url(#mask-2)">
                        <g transform="translate(-0.106664, -0.026664)">
                            <g transform="translate(0.029866, -0.000002)">
                                <path d="M21.012808,27.625976 C21.611193,27.6040032 22.2106447,27.6130697 22.8094564,27.5988833 C22.9886519,27.5946168 23.1669941,27.5497112 23.2539253,27.5370182 C23.1106756,27.3487563 22.9822521,27.1252952 22.8020966,26.957406 C22.588022,26.7579444 22.3462147,26.5629626 22.0377424,26.8661017 C21.9636109,26.9390598 21.7883619,26.9223136 21.6591918,26.9240202 C21.0637934,26.9318067 20.4675416,26.9508995 19.8729965,26.9283934 C19.357916,26.9089806 18.8405956,26.8621551 18.3343683,26.7712774 C18.2390107,26.7542111 18.0965076,26.4373124 18.1403465,26.3204086 C18.2437039,26.0446822 18.3945268,25.7405831 18.6179879,25.5642675 C19.4435672,24.9125505 20.3216253,24.3273918 21.1509379,23.6801546 C21.9568911,23.051157 22.707059,22.3620009 23.1642209,21.4132247 C23.7598327,20.1769889 23.7772189,18.8807013 23.520372,17.5786539 C23.0915827,15.4050549 21.9915569,13.6042466 20.2103747,12.2962259 C19.4926327,11.7691991 18.6039082,11.4701132 17.7819554,11.091456 C17.0589868,10.758451 16.3147921,10.4716315 15.5901169,10.1420398 C14.2835896,9.54802796 13.5493146,8.12982342 13.7653092,6.65540694 C13.9635976,5.3023741 15.1505546,4.173229 16.5103072,3.94016816 C18.1414131,3.66049515 19.824571,4.72052198 20.2236011,6.37840054 C20.6722298,8.24267393 19.6593485,9.90716565 17.7632892,10.411793 C17.679878,10.4339791 17.5960401,10.454992 17.4218578,10.5000042 C17.9290451,10.7265585 18.3671141,10.8880478 18.7714774,11.1105489 C19.4769531,11.4988059 20.171229,11.9098889 20.8493988,12.3437981 C21.0492871,12.4716882 21.1573377,12.4716882 21.3277868,12.3242786 C22.6317542,11.1969467 23.4096547,9.7944218 23.6277826,8.07499812 C23.9887336,5.22866928 22.6414606,2.61401465 20.1001908,1.27378149 C16.1685558,-0.799660008 11.3574761,1.56038766 10.4890178,5.91921202 C9.7452497,9.65287867 12.3801705,13.0395673 15.5515045,13.6934177 C16.9154171,13.974584 18.1626393,14.5423564 19.132215,15.5927835 C19.7577994,16.2705266 20.0611518,16.8520587 20.1644025,17.1144521 C20.4105831,17.7396098 20.4545286,18.2999158 20.454742,18.6577735 C20.454742,18.7912102 20.4202895,19.3377565 20.1383765,19.9803005 C19.8072915,20.7349483 18.5389498,21.9354516 18.224931,22.1885653 L15.238339,24.5268535 C15.132955,24.6134646 15.0143446,24.6071715 14.7574977,24.5897852 C14.452332,24.5690924 13.6721915,24.5258935 13.3355599,24.6141046 C13.6078731,24.8201795 14.3502546,25.1202253 14.6690733,25.3614993 C13.7012041,26.0153496 12.5965917,25.7791955 11.5820038,25.9743906 C11.8166646,26.4112864 12.9773822,27.0826296 13.6374191,27.157401 C13.5818471,27.5243252 13.5540078,27.8985025 13.4574769,28.2540136 C13.4171579,28.4024899 13.2515087,28.5463797 13.1068723,28.6310709 C12.7563744,28.8366124 12.3848637,29.0062082 11.9817804,29.2105764 C12.3581977,29.4621968 12.7757873,29.5642742 13.1903902,29.5844337 C13.5918735,29.6040599 14.0077565,29.5563811 14.4008133,29.46657 C15.119942,29.3022008 15.6941143,29.4095047 16.2661533,29.8983459 C15.8158179,30.0796747 15.3655892,30.2453238 14.9289068,30.4413723 C14.4990508,30.6342208 14.0830612,30.8576819 13.6725115,31.0982092 C14.8054965,30.9407731 15.9013625,30.5159304 17.0598402,30.6712332 C17.0696532,30.7238186 17.0794663,30.7765106 17.0893861,30.8290959 C16.2232744,31.0306909 15.3572694,31.2322858 14.39836,31.4555336 C16.0025866,31.6024099 17.4960959,31.6266226 18.9103539,30.9377865 C19.3083173,30.743978 19.7247335,30.5834487 20.106164,30.3621209 C20.292186,30.2540703 20.4175162,30.0412756 20.5701524,29.8757331 C20.6913227,29.744323 20.7887069,29.5681141 20.9377165,29.4889694 C21.5030357,29.1882836 22.1253135,29.1765506 22.7592177,29.1915902 C22.7640176,29.2638017 22.7683908,29.3314267 22.7731907,29.4041715 C23.4112547,29.2048165 24.1294234,28.4689416 24.1282501,27.9315684 C23.0945693,27.9315684 22.0616351,27.9355149 21.0289143,27.9259152 C20.9186237,27.9248485 20.8089731,27.8442105 20.6990025,27.8004783 C20.8035332,27.7395732 20.9062507,27.6299226 21.012808,27.625976 M8.12993008,7.68194128 C7.52439855,7.52823846 6.93763989,7.30072414 6.31856203,7.09774255 C6.62138113,9.14046482 9.01353466,11.0216978 11.0364174,10.8070898 C10.4098731,9.959751 10.120387,9.0012683 10.0506287,8.04523886 C9.3784322,7.92140196 8.7449547,7.83809738 8.12993008,7.68194128 M10.9510862,21.9247852 C14.1528195,23.8835629 18.2431706,22.6863662 19.7759323,19.7407331 C20.0663783,19.1824538 20.1032841,18.3230619 19.9193953,17.7373699 C19.2842112,15.7154471 17.7845154,14.5816088 15.7261135,14.0998075 C16.332925,14.6193678 16.8160063,15.2084731 16.9697091,16.0224261 C17.1245852,16.8423523 16.960856,17.5838804 16.4852412,18.2577835 C15.7628059,19.2813313 14.3660408,19.7024408 13.1988167,19.2592518 C11.9315417,18.7780905 11.2373724,17.6215328 11.3624893,16.1998083 C11.478753,14.8792013 12.4807546,14.0233294 14.3555878,13.6982175 C14.0753814,13.5498479 13.8596002,13.440624 13.6484054,13.3229736 C12.784427,12.8417056 12.0456722,12.211748 11.4571002,11.4171012 C11.2669183,11.1602543 11.1360416,11.1395615 10.8462355,11.3167304 C7.07694307,13.6217394 6.83470913,19.4065548 10.9510862,21.9247852 M32.0492254,16.4996408 C32.0492254,16.4996408 32.7893669,32.0256527 15.7253669,32.0256527 C0.634544136,32.0256527 0.163089256,17.1321584 0.163089256,17.1321584 C0.163089256,17.1321584 -2.05669525,0.026452672 16.0730915,0.026452672 C33.4614568,0.026452672 32.0492254,16.4996408 32.0492254,16.4996408" id="Shape" fill="#939598" fill-rule="nonzero"></path>
                            </g>
                            <g transform="translate(19.603777, 28.728880)">
                                <path d="M0.142857143,0.8 C0.00771428571,0.6552 0.0241428571,0.495 0.115857143,0.3262 C0.228714286,0.1182 0.368142857,0.0302 0.554714286,0.1618 C0.688,0.256 0.818714286,0.3562 0.979714286,0.4752 C0.85,0.6302 0.746,0.7582 0.638857143,0.8816 C0.450571429,1.0988 0.294428571,0.9624 0.142857143,0.8" id="Path" fill="#939598" fill-rule="nonzero"></path>
                            </g>
                        </g>
                    </g>
                </g>
            </g>
        </g>
    </g>
</svg>