<svg width="50px" height="50px" enable-background="new 0 0 400.8 105" viewBox="0 0 400.8 105" xmlns="http://www.w3.org/2000/svg"><path d="m0 0h400.8v105h-400.8zm0 0" fill="#d40000"/><g fill="#fff"><path d="m17.1 16h58v7.5l-46.6 57.2h47.8v8.3h-60.3v-7.5l46.7-57.2h-45.6zm0 0"/><path d="m115.4 25.7-13.5 36.3h27.1zm-5.6-9.7h11.3l28.1 73h-10.4l-6.7-18.7h-33.2l-6.7 18.7h-10.6zm0 0"/><path d="m169.9 54.1v26.7h16c5.4 0 9.4-1.1 11.9-3.3 2.6-2.2 3.9-5.6 3.9-10.1 0-4.6-1.3-7.9-3.9-10.1s-6.6-3.3-11.9-3.3h-16zm0-30v22h14.8c4.9 0 8.5-.9 10.9-2.7s3.6-4.6 3.6-8.3-1.2-6.4-3.6-8.3c-2.4-1.8-6-2.7-10.9-2.7zm-9.9-8.1h25.5c7.6 0 13.5 1.6 17.6 4.7s6.2 7.6 6.2 13.3c0 4.5-1 8-3.2 10.7-2.1 2.6-5.2 4.3-9.3 4.9 4.9 1 8.7 3.2 11.4 6.5s4.1 7.4 4.1 12.4c0 6.5-2.2 11.6-6.7 15.1-4.5 3.6-10.9 5.3-19.1 5.3h-26.5zm0 0"/><path d="m238.3 54.1v26.7h16c5.4 0 9.3-1.1 11.9-3.3s3.9-5.6 3.9-10.1c0-4.6-1.3-7.9-3.9-10.1s-6.6-3.3-11.9-3.3h-16zm0-30v22h14.8c4.9 0 8.5-.9 10.9-2.7s3.6-4.6 3.6-8.3-1.2-6.4-3.6-8.3c-2.4-1.8-6-2.7-10.9-2.7zm-10-8.1h25.5c7.6 0 13.5 1.6 17.6 4.7s6.2 7.6 6.2 13.3c0 4.5-1.1 8-3.2 10.7-2.1 2.6-5.2 4.3-9.3 4.9 4.9 1 8.7 3.2 11.4 6.5s4.1 7.4 4.1 12.4c0 6.5-2.2 11.6-6.7 15.1-4.5 3.6-10.9 5.3-19.1 5.3h-26.5zm0 0"/><path d="m325.5 16h11l17.3 26.2 17.6-26.2h10.6l-22.8 34.2 25.6 38.8h-11l-20.2-30.5-20.4 30.5h-10.6l25.7-38.5zm0 0"/><path d="m296.6 16h10v73h-10zm0 0"/></g></svg>