<svg viewBox="0 0 161.26 193.4" xmlns="http://www.w3.org/2000/svg"><path d="m161.26 85.61-26.78-14.81-22.6 13.79-.28 14.11-11-7.24-14.94 9.11-.66-15.42-15.39-10.29 14.7-7.61c-.11 0 0 1.48-2.17-50.5l-34.78-16.75-47.36 14.72 10.57 50.92 15.9 12.36-12.09 5.68 7.9 38.39 11.1 10.42-7.94 4.84 6.17 29.67 24.91 26.4c.12-.15 2.62-2.08 32-25.48l-.86-20.16 12.62 10.71c.18-.18 2.71-2.05 25.83-20.43l.89-14.91 9.53 6.61c.17-.17 2.33-1.83 21-16.66z" fill="#231f20"/><path d="m139.04 101.48 22.22-15.87-26.78-14.81-22.6 13.79z"/><path d="m136.58 129.72 2.46-28.24-27.16-16.89-.56 27.58z" fill="#004b16"/><path d="m100.33 158.44v-29.25l-27.44-20.81 2.16 28.73z" fill="#004b16"/><path d="m100.33 129.19 27.56-19.76-27.28-17.97-27.72 16.92z"/><path d="m56.52 193.37-4.38-29.89-26.7-26.17 6.17 29.67z" fill="#004b16"/><path d="m52.14 163.48 35.16-25.09-27.25-22.19-34.61 21.11z"/><path d="m49.86 147.95-5.8-39.53-29.74-24.72 7.96 38.34z" fill="#004b16"/><path d="m44.06 108.42 40.96-23.27-30.59-20.5-40.11 19.05z"/><path d="m41.28 89.54-7.94-54.14-33.34-20.68 10.57 50.92z" fill="#004b16"/><path d="m33.34 35.4 48.74-18.68-34.72-16.72-47.36 14.72z"/><g fill="#1cb35c"><path d="m157.56 113.05c-20.62 16.37-21.08 16.67-21 16.67 2.56-29.57 2.34-28.24 2.46-28.24 23.53-16.84 22.06-15.87 22.22-15.87z"/><path d="m126.16 138c-25.52 20.3-25.93 20.43-25.83 20.43-.25-30.62-.1-29.25 0-29.25 29.41-21 27.46-19.76 27.56-19.76z"/><path d="m88.57 167.89c-31.86 25.33-32.15 25.48-32 25.48-4.52-30.8-4.41-29.89-4.41-29.89 37.46-26.71 35.09-25.09 35.19-25.09z"/><path d="m82.08 16.72c2.24 52 2.06 50.51 2.18 50.51-42.15 21.89-43.08 22.31-43 22.31-8.12-55.35-8-54.14-7.94-54.14z"/><path d="m85 85.15c1.69 39.43 1.47 38.06 1.63 38.06-36.46 24.52-36.88 24.79-36.74 24.79-5.89-40.61-5.89-39.58-5.8-39.58z"/></g></svg>