<svg xmlns="http://www.w3.org/2000/svg" width="34" height="24" viewBox="0 0 34 24" fill="none">
  <path d="M2 4.5C2 3.11929 3.11929 2 4.5 2H29.5C30.8807 2 32 3.11929 32 4.5V19.5C32 20.8807 30.8807 22 29.5 22H4.5C3.11929 22 2 20.8807 2 19.5V4.5Z" fill="#006FCE"/>
  <path d="M28.3252 11.0971H30.5969V5.81866H28.1247V6.55363L27.657 5.81866H25.5189V6.75408L25.118 5.81866H21.1759C21.0423 5.81866 20.9087 5.88548 20.7751 5.88548C20.6414 5.88548 20.5746 5.9523 20.441 6.01911C20.3074 6.08593 20.2405 6.08593 20.1069 6.15274V5.81866H8.81514L8.48107 6.68726L8.14699 5.81866H5.47439V6.75408L5.0735 5.81866H2.93541L2 8.09038V11.0971H3.53675L3.80401 10.3621H4.33853L4.60579 11.0971H16.3653V10.4289L16.833 11.0971H20.1069V10.6962C20.1737 10.763 20.3074 10.763 20.3742 10.8298C20.441 10.8966 20.5746 10.8966 20.6414 10.9634C20.7751 11.0302 20.9087 11.0302 21.0423 11.0302H23.4477L23.7149 10.2953H24.2494L24.5167 11.0302H27.7906V10.3621L28.3252 11.0971ZM32 17.7786V12.8343H13.6258L13.1581 13.5024L12.6904 12.8343H7.34521V18.1127H12.6904L13.1581 17.4445L13.6258 18.1127H16.9666V16.9768H16.833C17.3007 16.9768 17.7016 16.91 18.0356 16.7763V18.1795H20.441V17.5113L20.9087 18.1795H30.8641C31.265 18.0458 31.6659 17.979 32 17.7786Z" fill="white"/>
  <path d="M30.8641 16.5091H29.0601V17.244H30.7973C31.5323 17.244 32 16.7763 32 16.1082C32 15.44 31.5991 15.106 30.931 15.106H30.1292C29.9287 15.106 29.7951 14.9723 29.7951 14.7719C29.7951 14.5714 29.9287 14.4378 30.1292 14.4378H31.6659L32 13.7028H30.196C29.461 13.7028 28.9933 14.1705 28.9933 14.7719C28.9933 15.44 29.3942 15.7741 30.0624 15.7741H30.8641C31.0646 15.7741 31.1982 15.9077 31.1982 16.1082C31.265 16.3755 31.1314 16.5091 30.8641 16.5091ZM27.5902 16.5091H25.7862V17.244H27.5234C28.2584 17.244 28.7261 16.7763 28.7261 16.1082C28.7261 15.44 28.3252 15.106 27.657 15.106H26.8552C26.6548 15.106 26.5212 14.9723 26.5212 14.7719C26.5212 14.5714 26.6548 14.4378 26.8552 14.4378H28.392L28.7261 13.7028H26.922C26.1871 13.7028 25.7194 14.1705 25.7194 14.7719C25.7194 15.44 26.1203 15.7741 26.7884 15.7741H27.5902C27.7906 15.7741 27.9243 15.9077 27.9243 16.1082C27.9911 16.3755 27.7906 16.5091 27.5902 16.5091ZM25.2517 14.371V13.636H22.4454V17.1772H25.2517V16.4423H23.2472V15.7073H25.1849V14.9723H23.2472V14.3042H25.2517V14.371ZM20.7082 14.371C21.0423 14.371 21.1759 14.5714 21.1759 14.7719C21.1759 14.9723 21.0423 15.1728 20.7082 15.1728H19.706V14.3042L20.7082 14.371ZM19.706 15.9077H20.1069L21.1759 17.1772H22.1782L20.9755 15.8409C21.5768 15.7073 21.9109 15.3064 21.9109 14.7719C21.9109 14.1037 21.4432 13.636 20.7082 13.636H18.8374V17.1772H19.6392L19.706 15.9077ZM17.5679 14.8387C17.5679 15.106 17.4343 15.3064 17.1002 15.3064H16.0312V14.371H17.0334C17.3675 14.371 17.5679 14.5714 17.5679 14.8387ZM15.2294 13.636V17.1772H16.0312V15.9746H17.1002C17.8352 15.9746 18.3697 15.5069 18.3697 14.7719C18.3697 14.1037 17.902 13.5692 17.167 13.5692L15.2294 13.636ZM14.0267 17.1772H15.029L13.6258 15.3732L15.029 13.636H14.0267L13.1581 14.7719L12.2895 13.636H11.2873L12.6904 15.3732L11.2873 17.1104H12.2895L13.1581 15.9746L14.0267 17.1772ZM11.02 14.371V13.636H8.21381V17.1772H11.02V16.4423H9.01559V15.7073H10.9532V14.9723H9.01559V14.3042H11.02V14.371ZM27.2561 8.09037L28.6592 10.2285H29.6615V6.68725H28.8597V9.02578L28.6592 8.69171L27.3898 6.68725H26.3207V10.2285H27.1225V7.82311L27.2561 8.09037ZM23.7817 8.02356L24.049 7.28859L24.3163 8.02356L24.6503 8.82534H23.4477L23.7817 8.02356ZM25.1849 10.2285H26.0535L24.5167 6.68725H23.4477L21.9109 10.2285H22.7795L23.1136 9.49349H24.8508L25.1849 10.2285ZM21.4432 10.2285L21.7773 9.49349H21.5768C20.9755 9.49349 20.6414 9.0926 20.6414 8.49126V8.42445C20.6414 7.82311 20.9755 7.42222 21.5768 7.42222H22.4454V6.68725H21.51C20.441 6.68725 19.8396 7.42222 19.8396 8.42445V8.49126C19.8396 9.5603 20.441 10.2285 21.4432 10.2285ZM18.4365 10.2285H19.2383V6.75407H18.4365V10.2285ZM16.6993 7.42222C17.0334 7.42222 17.167 7.62266 17.167 7.82311C17.167 8.02356 17.0334 8.224 16.6993 8.224H15.6971V7.3554L16.6993 7.42222ZM15.6971 8.95897H16.098L17.167 10.2285H18.1693L16.9666 8.89215C17.5679 8.75852 17.902 8.35763 17.902 7.82311C17.902 7.15496 17.4343 6.68725 16.6993 6.68725H14.8285V10.2285H15.6303L15.6971 8.95897ZM14.2272 7.42222V6.68725H11.4209V10.2285H14.2272V9.49349H12.2227V8.75852H14.1604V8.02356H12.2227V7.3554H14.2272V7.42222ZM8.14699 10.2285H8.88196L9.88419 7.3554V10.2285H10.686V6.68725H9.34967L8.54788 9.0926L7.7461 6.68725H6.4098V10.2285H7.21158V7.3554L8.14699 10.2285ZM3.80401 8.02356L4.07127 7.28859L4.33853 8.02356L4.67261 8.82534H3.46993L3.80401 8.02356ZM5.20713 10.2285H6.07572L4.53898 6.68725H3.53675L2 10.2285H2.8686L3.20267 9.49349H4.93987L5.20713 10.2285Z" fill="#006FCF"/>
</svg>