<svg xmlns="http://www.w3.org/2000/svg" width="34" height="24" viewBox="0 0 34 24" fill="none">
  <path d="M2 4.5C2 3.11929 3.11929 2 4.5 2H29.5C30.8807 2 32 3.11929 32 4.5V19.5C32 20.8807 30.8807 22 29.5 22H4.5C3.11929 22 2 20.8807 2 19.5V4.5Z" fill="white"/>
  <path d="M29.5 21.375V22H4.5L4.5 21.375H29.5ZM31.375 19.5V4.5C31.375 3.46447 30.5355 2.625 29.5 2.625H4.5C3.46447 2.625 2.625 3.46447 2.625 4.5V19.5C2.625 20.5355 3.46447 21.375 4.5 21.375L4.5 22L4.37122 21.9969C3.05035 21.9299 2 20.8375 2 19.5V4.5C2 3.11929 3.11929 2 4.5 2H29.5C30.8807 2 32 3.11929 32 4.5V19.5C32 20.8807 30.8807 22 29.5 22V21.375C30.5355 21.375 31.375 20.5355 31.375 19.5Z" fill="black"/>
  <path d="M6.21981 10.1094H5.125V13.9177H6.21309C6.69888 13.939 7.17599 13.7839 7.55642 13.4811C7.76667 13.2993 7.93544 13.0746 8.05132 12.822C8.16719 12.5693 8.22747 12.2948 8.22808 12.0169C8.2304 11.7571 8.17925 11.4996 8.07782 11.2605C7.9764 11.0213 7.82686 10.8056 7.6385 10.6267C7.45014 10.4478 7.227 10.3095 6.98294 10.2205C6.73888 10.1315 6.47912 10.0937 6.21981 10.1094ZM7.08626 12.9706C6.8009 13.2005 6.43667 13.309 6.07204 13.2729H5.87055V10.7541H6.07204C6.25321 10.7341 6.43656 10.7512 6.61092 10.8043C6.78528 10.8575 6.94701 10.9455 7.08626 11.0631C7.21576 11.1806 7.3196 11.3236 7.39126 11.4831C7.46292 11.6426 7.50085 11.8152 7.50269 11.99C7.50714 12.1737 7.47229 12.3562 7.40047 12.5253C7.32865 12.6945 7.22152 12.8463 7.08626 12.9706Z" fill="#231F20"/>
  <path d="M9.34975 10.1093H8.60421V13.9177H9.34975V10.1093Z" fill="#231F20"/>
  <path d="M11.17 11.5736C10.7267 11.4057 10.599 11.2982 10.599 11.09C10.599 10.8818 10.8207 10.6467 11.17 10.6467C11.2864 10.6502 11.4005 10.6798 11.5039 10.7333C11.6074 10.7868 11.6975 10.8627 11.7677 10.9556L12.1573 10.4519C11.8492 10.176 11.4492 10.0251 11.0356 10.0287C10.8821 10.0157 10.7275 10.0347 10.5816 10.0845C10.4358 10.1342 10.3018 10.2137 10.1882 10.3178C10.0746 10.422 9.9838 10.5485 9.92157 10.6895C9.85934 10.8305 9.82701 10.9829 9.82663 11.137C9.82663 11.6609 10.0617 11.9296 10.7602 12.1848C10.9372 12.2391 11.1082 12.3111 11.2707 12.3997C11.3407 12.4393 11.3988 12.497 11.439 12.5667C11.4792 12.6364 11.4999 12.7156 11.4991 12.796C11.4974 12.8692 11.481 12.9414 11.4508 13.0081C11.4205 13.0748 11.3772 13.1347 11.3232 13.1843C11.2693 13.2338 11.2059 13.272 11.1369 13.2964C11.0678 13.3209 10.9945 13.3312 10.9214 13.3266C10.7518 13.3299 10.5849 13.2841 10.4407 13.1948C10.2965 13.1054 10.1812 12.9762 10.1087 12.8229L9.63185 13.2863C9.76961 13.5171 9.96717 13.7063 10.2036 13.834C10.4401 13.9617 10.7067 14.0231 10.9752 14.0117C11.1455 14.023 11.3164 13.9986 11.4768 13.9402C11.6372 13.8817 11.7837 13.7905 11.9069 13.6724C12.0301 13.5542 12.1274 13.4117 12.1924 13.2539C12.2575 13.096 12.289 12.9264 12.2849 12.7557C12.2581 12.1512 12.0095 11.8825 11.17 11.5736Z" fill="#231F20"/>
  <path d="M12.5133 11.99C12.5078 12.2561 12.5562 12.5206 12.6555 12.7676C12.7548 13.0145 12.903 13.2388 13.0913 13.427C13.2795 13.6153 13.5038 13.7635 13.7507 13.8628C13.9977 13.9621 14.2622 14.0105 14.5283 14.005C14.8501 14.003 15.1673 13.9272 15.4552 13.7834V12.9102C15.342 13.0454 15.2 13.1535 15.0397 13.2268C14.8793 13.3 14.7046 13.3364 14.5283 13.3333C14.3532 13.3386 14.179 13.3069 14.0169 13.2404C13.8549 13.1739 13.7086 13.0741 13.5876 12.9474C13.4667 12.8207 13.3737 12.67 13.3147 12.5051C13.2558 12.3402 13.2322 12.1647 13.2454 11.99C13.2354 11.8189 13.2602 11.6475 13.3182 11.4862C13.3763 11.3249 13.4664 11.177 13.5831 11.0515C13.6999 10.926 13.8408 10.8254 13.9975 10.7558C14.1542 10.6862 14.3233 10.6491 14.4947 10.6467C14.6708 10.6485 14.8446 10.6878 15.0044 10.7619C15.1642 10.8361 15.3064 10.9433 15.4216 11.0766V10.2034C15.1436 10.0695 14.8365 10.0072 14.5283 10.022C14.0019 10.0219 13.4964 10.2277 13.1198 10.5955C12.7433 10.9633 12.5256 11.4638 12.5133 11.99Z" fill="#231F20"/>
  <path d="M21.3255 12.6684L20.3113 10.1093H19.4986L21.1106 14.0184H21.5136L23.1591 10.1093H22.3531L21.3255 12.6684Z" fill="#231F20"/>
  <path d="M23.495 13.9177H25.5973V13.2729H24.2338V12.2452H25.5503V11.6004H24.2338V10.7541H25.5973V10.1093H23.495V13.9177Z" fill="#231F20"/>
  <path d="M28.5392 11.231C28.5392 10.5191 28.0489 10.1093 27.1958 10.1093H26.0943V13.9177H26.8331V12.3863H26.9339L27.9615 13.9177H28.875L27.6727 12.3124C27.9274 12.2757 28.1585 12.1435 28.3194 11.9428C28.4803 11.742 28.5588 11.4876 28.5392 11.231ZM27.0481 11.8624H26.8331V10.7071H27.0615C27.525 10.7071 27.7802 10.9019 27.7802 11.2713C27.7802 11.6407 27.525 11.8624 27.0481 11.8624Z" fill="#231F20"/>
  <path d="M19.7068 11.99C19.7068 12.3885 19.5886 12.7781 19.3672 13.1095C19.1458 13.4408 18.8311 13.6991 18.4629 13.8516C18.0947 14.0041 17.6896 14.044 17.2987 13.9663C16.9078 13.8885 16.5488 13.6966 16.267 13.4148C15.9852 13.133 15.7933 12.774 15.7155 12.3831C15.6378 11.9922 15.6777 11.5871 15.8302 11.2189C15.9827 10.8507 16.241 10.536 16.5723 10.3146C16.9037 10.0932 17.2933 9.97501 17.6918 9.97501C18.2262 9.97501 18.7387 10.1873 19.1166 10.5652C19.4945 10.9431 19.7068 11.4556 19.7068 11.99Z" fill="#F47922"/>
</svg>