<?xml version="1.0" ?><svg style="enable-background:new 0 0 48 48;" version="1.1" width="40" height="40" viewBox="0 0 48 48" xml:space="preserve" xmlns="http://www.w3.org/2000/svg" xmlns:xlink="http://www.w3.org/1999/xlink"><g id="Icons"><g><path d="M38.57988,34.87824H9.42012c-1.21976,0-2.20862-0.98885-2.20862-2.20862V15.33038    c0-1.21976,0.98886-2.20862,2.20862-2.20862h29.15975c1.21976,0,2.20862,0.98886,2.20862,2.20862v17.33924    C40.7885,33.88939,39.79964,34.87824,38.57988,34.87824z" style="fill:#F9F9F9;"/><path d="M40.53824,25.57803v0.00033l-0.00772,0.005v-0.00033l-0.03903,0.02522    c-0.0774,0.05044-0.15176,0.09904-0.2246,0.14644l-0.00598,0.00391c-0.07381,0.04794-0.14633,0.0948-0.21862,0.14067    c-1.16889,0.74132-2.3805,1.40675-3.61505,2.0312c-2.85709,1.44534-5.81421,2.64935-8.84481,3.67788    c-2.32625,0.78969-4.68337,1.47187-7.07387,2.03522c-1.23205,0.29026-2.47323,0.54248-3.71235,0.80198    c-0.17949,0.03772-0.36028,0.07023-0.54074,0.10382l-0.01696,0.00565l-1.94532,0.44007h24.29624    c1.21444,0,2.19905-0.98451,2.19905-2.19905v-7.38001L40.53824,25.57803z" style="fill:#FF6F00;"/><path d="    M38.57988,34.87824H9.42012c-1.21976,0-2.20862-0.98885-2.20862-2.20862V15.33038c0-1.21976,0.98886-2.20862,2.20862-2.20862    h29.15975c1.21976,0,2.20862,0.98886,2.20862,2.20862v17.33924C40.7885,33.88939,39.79964,34.87824,38.57988,34.87824z" style="fill:none;stroke:#303030;stroke-width:0.8;stroke-linecap:round;stroke-linejoin:round;stroke-miterlimit:10;"/><path d="M10.29027,25.75001c0-1.48198,0-2.94765,0-4.41789    c0.01718-0.00424,0.03283-0.01163,0.04849-0.01152c0.48965,0.00359,0.98092-0.01609,1.4685,0.01718    c0.78143,0.05349,1.43676,0.37115,1.83421,1.07452c0.78284,1.38533-0.07142,3.11714-1.61918,3.30054    c-0.38919,0.04599-0.78589,0.02805-1.17921,0.03653C10.66228,25.75327,10.48138,25.75001,10.29027,25.75001z M11.15932,24.99087    c0.16351,0,0.31777,0.00815,0.47095-0.00174c0.34071-0.02196,0.66217-0.10295,0.92733-0.33821    c0.60869-0.5403,0.64315-1.56612,0.07436-2.15274c-0.4105-0.42355-0.93406-0.43257-1.47263-0.42007    C11.15932,23.05142,11.15932,24.01582,11.15932,24.99087z" style="fill:#303030;"/><path d="M34.80024,21.32897c0.01641-0.00402,0.02609-0.00837,0.03577-0.00826    c0.48954,0.00348,0.97951-0.0012,1.46861,0.01554c0.17144,0.00587,0.34669,0.04718,0.51095,0.10089    c0.55759,0.18253,0.86742,0.66185,0.83046,1.24901c-0.02098,0.33505-0.106,0.6401-0.35767,0.88036    c-0.15524,0.14796-0.34158,0.23667-0.54487,0.29527c-0.02946,0.00837-0.05903,0.01609-0.10143,0.02772    c0.46214,0.61814,0.91917,1.22977,1.39066,1.86052c-0.2108,0-0.39756,0-0.58434,0c-0.13013,0-0.26048-0.00435-0.39028,0.00163    c-0.07121,0.00326-0.11045-0.0237-0.14861-0.0811c-0.36017-0.54139-0.72392-1.08039-1.08518-1.62135    c-0.03674-0.05512-0.0711-0.10219-0.15937-0.06697c0,0.58031,0,1.16715,0,1.76072c-0.29472,0-0.57673,0-0.8647,0    C34.80024,24.27151,34.80024,22.80366,34.80024,21.32897z M35.66592,23.36006c0.27113,0.00022,0.539,0.0174,0.78393-0.11828    c0.22558-0.12513,0.30548-0.33049,0.30266-0.57716c-0.00272-0.23765-0.09295-0.42746-0.31092-0.53868    c-0.24504-0.12524-0.509-0.10817-0.77567-0.09882C35.66592,22.47372,35.66592,22.91085,35.66592,23.36006z" style="fill:#303030;"/><path d="M31.78453,21.32483c0.81318,0,1.61994,0,2.43474,0c0,0.24917,0,0.49356,0,0.74697    c-0.52019,0-1.03952,0-1.56699,0c0,0.32842,0,0.64771,0,0.97907c0.50117,0,0.99929,0,1.50525,0c0,0.25569,0,0.49954,0,0.7536    c-0.50258,0-1.00092,0-1.50622,0c0,0.39898,0,0.78774,0,1.18921c0.52345,0,1.04506,0,1.57113,0c0,0.25471,0,0.49671,0,0.74751    c-0.81285,0-1.62168,0-2.4379,0C31.78453,24.27249,31.78453,22.80508,31.78453,21.32483z" style="fill:#303030;"/><path d="M18.42322,21.74566c-0.15252,0.19916-0.29961,0.39104-0.45018,0.58771    c-0.16546-0.17644-0.34027-0.31853-0.57759-0.34875c-0.23765-0.03011-0.46008,0.00859-0.63663,0.18536    c-0.19047,0.19057-0.16829,0.47497,0.05958,0.6163c0.15274,0.09458,0.3256,0.15687,0.48932,0.23363    c0.25026,0.11773,0.5091,0.22025,0.74882,0.35658c0.34658,0.1971,0.5028,0.51584,0.51856,0.91145    c0.02087,0.52345-0.13752,0.96635-0.57151,1.28282c-0.32744,0.23873-0.70392,0.30548-1.10127,0.28222    c-0.60488-0.03544-1.04908-0.33592-1.37055-0.81752c0.17818-0.19057,0.35234-0.3768,0.51987-0.55585    c0.10828,0.12491,0.19427,0.25091,0.3057,0.34723c0.24874,0.21514,0.54465,0.28537,0.86405,0.20601    c0.32451-0.08045,0.51943-0.39539,0.45116-0.70403c-0.03544-0.16068-0.12861-0.28309-0.27211-0.35495    c-0.16177-0.08088-0.33234-0.14394-0.49921-0.21449c-0.17938-0.07588-0.36321-0.14285-0.53737-0.22939    c-0.55781-0.27722-0.72871-0.7611-0.56977-1.36446c0.13296-0.50465,0.59379-0.85786,1.16367-0.9083    c0.53694-0.04783,1.01473,0.10686,1.43056,0.45083C18.39865,21.71653,18.4067,21.72773,18.42322,21.74566z" style="fill:#303030;"/><path d="M27.1429,21.32005c0.30266,0,0.5964-0.0025,0.89014,0.00402    c0.0274,0.00054,0.06447,0.05251,0.07882,0.08795c0.30527,0.76252,0.60771,1.52634,0.91102,2.28961    c0.07447,0.18753,0.1497,0.37473,0.23189,0.5801c0.02087-0.04664,0.03642-0.07827,0.04968-0.11078    c0.37039-0.92102,0.7411-1.84171,1.10953-2.76328c0.02479-0.06186,0.05229-0.09121,0.12491-0.0899    c0.27722,0.00478,0.55455,0.00196,0.84797,0.00196c-0.01674,0.04403-0.02848,0.07784-0.0424,0.11089    c-0.60977,1.44773-1.2202,2.89515-1.82769,4.34375c-0.02881,0.06893-0.06403,0.09252-0.13589,0.08838    c-0.09904-0.00587-0.19916,0.00381-0.29777-0.00424c-0.0349-0.00283-0.08534-0.03109-0.09752-0.06055    c-0.61434-1.47557-1.22509-2.95266-1.83595-4.42974C27.14595,21.35941,27.1466,21.34854,27.1429,21.32005z" style="fill:#303030;"/><path d="M22.26809,22.49633c-0.13904-0.10415-0.25787-0.20905-0.39115-0.29026    c-0.51454-0.3132-1.17552-0.24004-1.63961,0.17307c-0.69283,0.61684-0.66065,1.82051,0.06338,2.3781    c0.54281,0.418,1.29967,0.3967,1.8178-0.05164c0.04359-0.03761,0.08675-0.07566,0.14981-0.13067c0,0.06621,0,0.11197,0,0.15785    c-0.00011,0.26037-0.00141,0.52074,0.0012,0.78121c0.00054,0.05534-0.01663,0.08447-0.06816,0.10915    c-1.05713,0.50443-2.35267,0.16046-2.9819-0.81198c-0.86851-1.34239-0.18133-3.17726,1.48535-3.5371    c0.5153-0.11089,1.01527-0.05566,1.48883,0.18557c0.03077,0.01576,0.07088,0.05349,0.07132,0.08164    C22.26994,21.85557,22.26809,22.17019,22.26809,22.49633z" style="fill:#303030;"/><path d="M27.29108,23.53835c0.0212,1.26727-1.0218,2.3019-2.34386,2.29994    c-1.33087-0.00196-2.35288-0.99288-2.34527-2.32668c0.00728-1.25966,1.04267-2.25254,2.34625-2.26059    C26.27624,21.24308,27.31217,22.28651,27.29108,23.53835z" style="fill:#FF6F00;"/><path d="M15.18933,25.74447c-0.28744,0-0.56672,0-0.85318,0c0-1.47307,0-2.94048,0-4.41637    c0.28342,0,0.56487,0,0.85318,0C15.18933,22.79823,15.18933,24.26575,15.18933,25.74447z" style="fill:#303030;"/></g></g></svg>