<svg xmlns="http://www.w3.org/2000/svg" width="34" height="24" viewBox="0 0 34 24" fill="none">
  <path d="M2 4.5C2 3.11929 3.11929 2 4.5 2H29.5C30.8807 2 32 3.11929 32 4.5V19.5C32 20.8807 30.8807 22 29.5 22H4.5C3.11929 22 2 20.8807 2 19.5V4.5Z" fill="#E4E5E7"/>
  <path d="M16.293 14.7631H15.5129V8.69281H17.581C18.1052 8.69281 18.5521 8.86752 18.9178 9.21695C19.2916 9.56638 19.4785 9.993 19.4785 10.4968C19.4785 11.0128 19.2916 11.4395 18.9178 11.7848C18.5562 12.1302 18.1092 12.3008 17.581 12.3008H16.293V14.7631ZM16.293 9.44042V11.5573H17.5973C17.9061 11.5573 18.1661 11.4517 18.3693 11.2444C18.5765 11.0372 18.6821 10.7853 18.6821 10.5009C18.6821 10.2205 18.5765 9.97269 18.3693 9.76547C18.1661 9.55012 17.9101 9.44448 17.5973 9.44448H16.293V9.44042Z" fill="#3C4043"/>
  <path d="M21.5182 10.4725C22.0951 10.4725 22.5502 10.6268 22.8834 10.9356C23.2165 11.2444 23.3831 11.667 23.3831 12.2033V14.7631H22.6396V14.1861H22.6071C22.2861 14.6615 21.8554 14.8972 21.3191 14.8972C20.8599 14.8972 20.478 14.7631 20.1692 14.4909C19.8604 14.2186 19.706 13.8814 19.706 13.4751C19.706 13.0444 19.8685 12.7031 20.1936 12.4512C20.5186 12.1952 20.9534 12.0692 21.4938 12.0692C21.957 12.0692 22.3389 12.1546 22.6355 12.3252V12.1464C22.6355 11.8742 22.5299 11.6467 22.3145 11.4557C22.0992 11.2648 21.8473 11.1713 21.5588 11.1713C21.124 11.1713 20.7787 11.3541 20.5268 11.7239L19.8401 11.2932C20.218 10.7447 20.7787 10.4725 21.5182 10.4725ZM20.5105 13.4873C20.5105 13.6904 20.5958 13.8611 20.7706 13.9952C20.9412 14.1292 21.1444 14.1983 21.376 14.1983C21.7051 14.1983 21.9976 14.0764 22.2536 13.8326C22.5096 13.5888 22.6396 13.3044 22.6396 12.9753C22.3958 12.7844 22.0586 12.6868 21.6238 12.6868C21.3069 12.6868 21.0428 12.764 20.8315 12.9144C20.6162 13.0728 20.5105 13.2638 20.5105 13.4873Z" fill="#3C4043"/>
  <path d="M27.625 10.6065L25.0246 16.5874H24.2201L25.1871 14.4949L23.4725 10.6065H24.3217L25.5569 13.5888H25.5731L26.7758 10.6065H27.625Z" fill="#3C4043"/>
  <path d="M13.19 11.8093C13.19 11.5549 13.1673 11.3116 13.125 11.0775H9.85505V12.4184L11.7383 12.4188C11.6619 12.8649 11.4161 13.2452 11.0394 13.4987V14.3686H12.1604C12.815 13.7628 13.19 12.8673 13.19 11.8093Z" fill="#4285F4"/>
  <path d="M11.0394 13.4987C10.7274 13.7092 10.326 13.8323 9.85586 13.8323C8.94776 13.8323 8.17739 13.2204 7.90151 12.3956H6.74515V13.2927C7.31805 14.4296 8.49553 15.2097 9.85586 15.2097C10.7961 15.2097 11.5855 14.9009 12.1604 14.3686L11.0394 13.4987Z" fill="#34A853"/>
  <path d="M7.79261 11.73C7.79261 11.4984 7.83121 11.2746 7.9015 11.0641V10.167H6.74515C6.50827 10.6371 6.375 11.1677 6.375 11.73C6.375 12.2924 6.50868 12.8226 6.74515 13.2927L7.90151 12.3956C7.83122 12.1851 7.79261 11.9616 7.79261 11.73Z" fill="#FABB05"/>
  <path d="M9.85586 9.62739C10.369 9.62739 10.8286 9.80413 11.1914 10.1495L12.1848 9.15688C11.5815 8.59496 10.7948 8.25 9.85586 8.25C8.49594 8.25 7.31804 9.03011 6.74515 10.167L7.9015 11.0641C8.17739 10.2393 8.94776 9.62739 9.85586 9.62739Z" fill="#E94235"/>
</svg>