<?xml version="1.0" encoding="UTF-8"?>
<svg width="154px" height="34px" viewBox="0 0 154 34" version="1.1" xmlns="http://www.w3.org/2000/svg" xmlns:xlink="http://www.w3.org/1999/xlink">
    <title>Group 2</title>
    <defs>
        <filter color-interpolation-filters="auto" id="filter-1">
            <feColorMatrix in="SourceGraphic" type="matrix" values="0 0 0 0 0.000000 0 0 0 0 0.000000 0 0 0 0 0.000000 0 0 0 1.000000 0"></feColorMatrix>
        </filter>
    </defs>
    <g id="Add-Payment-Method" stroke="none" stroke-width="1" fill="none" fill-rule="evenodd">
        <g id="add_payment_method_flow_012" transform="translate(-1094.000000, -376.000000)">
            <g id="Group-2" transform="translate(1094.000000, 376.000000)">
                <g id="button-color" filter="url(#filter-1)">
                    <g>
                        <rect id="Rectangle" fill="#3683DC" x="0" y="0" width="154" height="34"></rect>
                    </g>
                </g>
                <g id="gpay-button-black-2" transform="translate(59.098638, 10.499619)" fill-rule="nonzero">
                    <path d="M16.7076317,6.80788141 L16.7076317,10.9378814 L15.3910173,10.9378814 L15.3910173,0.744131413 L18.8756568,0.744131413 C19.7131225,0.724983807 20.5235922,1.039969 21.1270674,1.61913141 C21.7284278,2.17620704 22.0700854,2.95764773 22.0700854,3.77600641 C22.0700854,4.5943651 21.7284278,5.37580579 21.1270674,5.93288141 C20.5233249,6.51162713 19.7130363,6.82654192 18.8756568,6.80788141 L16.7076317,6.80788141 Z M16.7076317,1.99538141 L16.7076317,5.54788141 L18.901989,5.54788141 C19.3953911,5.56522956 19.873314,5.3746578 20.2186035,5.02288141 C20.5576984,4.69646169 20.7479987,4.24591085 20.7452786,3.77600641 C20.7096925,2.79557962 19.8992832,2.02063785 18.9151552,2.02600641 L16.7207978,2.02600641 L16.7076317,1.99538141 Z" id="Shape" fill="#FFFFFF"></path>
                    <path d="M25.5070047,3.73225641 C26.3458767,3.68465214 27.1704764,3.9638889 27.8066912,4.51100641 C28.3830847,5.06474181 28.6904487,5.84032577 28.6493245,6.63725641 L28.6493245,10.9378814 L27.3941521,10.9378814 L27.3941521,9.96663141 L27.3414875,9.96663141 C26.8830523,10.7205125 26.057694,11.1752062 25.1734624,11.1610064 C24.4665248,11.1918396 23.7738959,10.9559569 23.2336505,10.5003814 C22.7311031,10.076567 22.445956,9.4502401 22.456848,8.79413141 C22.4324588,8.12181823 22.7388257,7.47996822 23.2775376,7.07475641 C23.9145891,6.61875853 24.6887938,6.3933972 25.471895,6.43600641 C26.1398847,6.41298083 26.8023754,6.56376176 27.3941521,6.87350641 L27.3941521,6.56288141 C27.3972588,6.11413695 27.1993237,5.68741982 26.8543401,5.39913141 C26.5051702,5.08657367 26.0508573,4.91634831 25.5816129,4.92225641 C24.8725328,4.89779113 24.2038965,5.25106092 23.826127,5.84975641 L22.6675063,5.12788141 C23.3040416,4.20856679 24.3751011,3.68631614 25.4938386,3.74975641 M23.8085721,8.79413141 C23.8055173,9.13308054 23.9695453,9.45193559 24.2474436,9.64725641 C24.5373229,9.87443667 24.8969481,9.9949673 25.2656254,9.98850641 C25.8206722,9.98831499 26.3528245,9.76793366 26.7446223,9.37600641 C27.1580226,9.01115845 27.3945363,8.48703785 27.3941525,7.93663141 C26.8987519,7.5812414 26.296406,7.40527008 25.686942,7.43788141 C25.2191258,7.42582015 24.7590882,7.55881415 24.3703276,7.81850641 C24.0379758,8.02757494 23.8334487,8.38931163 23.826127,8.78100641" id="Shape" fill="#FFFFFF"></path>
                    <polygon id="Path" fill="#FFFFFF" points="35.7941521 3.95975641 31.4142147 14.0003814 30.0581019 14.0003814 31.6863151 10.4872564 28.7985408 3.95975641 30.2292618 3.95975641 32.3095126 8.96475641 32.3358448 8.96475641 34.363431 3.95975641"></polygon>
                    <path d="M11.4806724,5.97663141 C11.480482,5.56441868 11.4437667,5.15302833 11.3709546,4.74725641 L5.86311757,4.74725641 L5.86311757,7.00038141 L9.03615832,7.00038141 C8.91028511,7.7418504 8.48317101,8.39872192 7.85559406,8.81600641 L7.85559406,10.2728814 L9.74713011,10.2728814 C10.9068494,9.14855746 11.5364029,7.58833045 11.4806724,5.97663141" id="Path" fill="#4285F4"></path>
                    <path d="M7.85559406,8.81600641 C7.26209299,9.19607726 6.56836689,9.39105403 5.86311757,9.37600641 C4.36056543,9.35613523 3.03728145,8.38524178 2.57158152,6.96100641 L0.622992176,6.96100641 L0.622992176,8.46600641 C1.61781745,10.441284 3.64593537,11.6875403 5.86311757,11.6860064 C7.29150248,11.7278909 8.68161303,11.2221253 9.74713011,10.2728814 L7.85559406,8.81600641 Z" id="Path" fill="#34A853"></path>
                    <path d="M2.3872555,5.84538141 C2.3877836,5.46458801 2.45002769,5.08638108 2.57158152,4.72538141 L2.57158152,3.22038141 L0.622992176,3.22038141 C-0.207664059,4.87242654 -0.207664059,6.81833628 0.622992176,8.47038141 L2.57158152,6.96100641 C2.44989296,6.60154771 2.38763883,6.22475737 2.3872555,5.84538141" id="Path" fill="#FABB05"></path>
                    <path d="M5.86311757,2.31475641 C6.69972767,2.30040946 7.50842333,2.61470517 8.11452823,3.18975641 L9.78662854,1.52288141 C8.72524132,0.529099626 7.31915983,-0.0165236913 5.86311757,0.000381413052 C3.64593537,-0.00115251373 1.61781745,1.24510387 0.622992176,3.22038141 L2.57158152,4.72538141 C3.03880214,3.30287385 4.36173257,2.33399818 5.86311757,2.31475641" id="Path" fill="#E94235"></path>
                </g>
            </g>
        </g>
    </g>
</svg>