<svg id="Layer_1" data-name="Layer 1" xmlns="http://www.w3.org/2000/svg" viewBox="0 0 490 110"><defs><style>.cls-1{fill:#fff;}.cls-2{fill:#4285f4;}.cls-3{fill:#34a853;}.cls-4{fill:#fabb05;}.cls-5{fill:#e94235;}.cls-6{fill:none;}</style></defs><path d="M395.51,95h-301a9,9,0,0,1-9-9V24a9,9,0,0,1,9-9h301a9,9,0,0,1,9,9V86a9,9,0,0,1-9,9"/><path class="cls-1" d="M242.29,54.56V64h-3V40.7h7.94a7.16,7.16,0,0,1,5.13,2,6.73,6.73,0,0,1,0,9.86,7.17,7.17,0,0,1-5.13,2h-4.94Zm0-11v8.12h5a4,4,0,0,0,3-1.2,3.93,3.93,0,0,0,1.2-2.85,4.15,4.15,0,0,0-4.17-4h-5Z"/><path class="cls-1" d="M262.34,47.53a7.38,7.38,0,0,1,5.24,1.78,6.3,6.3,0,0,1,1.92,4.86V64h-2.86V61.78h-.12a5.67,5.67,0,0,1-4.94,2.73A6.41,6.41,0,0,1,257.16,63a5,5,0,0,1-1.77-3.9,4.71,4.71,0,0,1,1.87-3.93,7.84,7.84,0,0,1,5-1.46,8.77,8.77,0,0,1,4.38,1V54a3.44,3.44,0,0,0-1.23-2.66,4.26,4.26,0,0,0-2.9-1.09,4.54,4.54,0,0,0-4,2.12l-2.64-1.65a7.32,7.32,0,0,1,6.44-3.15M258.47,59.1a2.36,2.36,0,0,0,1,1.95,3.65,3.65,0,0,0,2.32.78,4.76,4.76,0,0,0,3.37-1.4,4.39,4.39,0,0,0,1.48-3.29A6.1,6.1,0,0,0,262.75,56a5.15,5.15,0,0,0-3,.87,2.66,2.66,0,0,0-1.24,2.2"/><polygon class="cls-1" points="285.78 48.05 275.8 71 272.71 71 276.42 62.97 269.84 48.05 273.1 48.05 277.84 59.49 277.9 59.49 282.52 48.05 285.78 48.05"/><path class="cls-2" d="M230.38,52.66a16,16,0,0,0-.25-2.81H217.58V55h7.23a6.24,6.24,0,0,1-2.69,4.15v3.33h4.31a13.07,13.07,0,0,0,3.95-9.82"/><path class="cls-3" d="M222.12,59.15a8.08,8.08,0,0,1-4.54,1.28,8,8,0,0,1-7.5-5.52h-4.44v3.44a13.35,13.35,0,0,0,11.94,7.36,12.72,12.72,0,0,0,8.85-3.23Z"/><path class="cls-4" d="M209.66,52.36a8.08,8.08,0,0,1,.42-2.56V46.36h-4.44a13.39,13.39,0,0,0,0,12l4.44-3.45a8,8,0,0,1-.42-2.55"/><path class="cls-5" d="M217.58,44.29a7.26,7.26,0,0,1,5.13,2l3.81-3.81A12.84,12.84,0,0,0,217.58,39a13.35,13.35,0,0,0-11.94,7.36l4.44,3.44a8,8,0,0,1,7.5-5.51"/><rect class="cls-6" width="490" height="110"/></svg>