<?xml version="1.0" encoding="UTF-8"?>
<svg width="81.56" height="32.001" data-name="Layer 1" version="1.1" viewBox="0 0 81.56 32.001" xmlns="http://www.w3.org/2000/svg" xmlns:cc="http://creativecommons.org/ns#" xmlns:dc="http://purl.org/dc/elements/1.1/" xmlns:rdf="http://www.w3.org/1999/02/22-rdf-syntax-ns#"><metadata><rdf:RDF><cc:Work rdf:about=""><dc:format>image/svg+xml</dc:format><dc:type rdf:resource="http://purl.org/dc/dcmitype/StillImage"/><dc:title/></cc:Work></rdf:RDF></metadata><defs><style>.cls-1{fill:currentColor;}.cls-2{fill:#4285f4;}.cls-3{fill:#34a853;}.cls-4{fill:#fabb05;}.cls-5{fill:#e94235;}.cls-6{fill:none;}</style></defs><path class="cls-1" d="m38.07 15.561v9.44h-3v-23.3h7.94a7.16 7.16 0 0 1 5.13 2 6.73 6.73 0 0 1 0 9.86 7.17 7.17 0 0 1-5.13 2zm0-11v8.12h5a4 4 0 0 0 3-1.2 3.93 3.93 0 0 0 1.2-2.85 4.15 4.15 0 0 0-4.17-4h-5z"/><path class="cls-1" d="m58.12 8.5309a7.38 7.38 0 0 1 5.24 1.78 6.3 6.3 0 0 1 1.92 4.86v9.83h-2.86v-2.22h-0.12a5.67 5.67 0 0 1-4.94 2.73 6.41 6.41 0 0 1-4.42-1.51 5 5 0 0 1-1.77-3.9 4.71 4.71 0 0 1 1.87-3.93 7.84 7.84 0 0 1 5-1.46 8.77 8.77 0 0 1 4.38 1v-0.71a3.44 3.44 0 0 0-1.23-2.66 4.26 4.26 0 0 0-2.9-1.09 4.54 4.54 0 0 0-4 2.12l-2.64-1.65a7.32 7.32 0 0 1 6.44-3.15m-3.84 11.53a2.36 2.36 0 0 0 1 1.95 3.65 3.65 0 0 0 2.32 0.78 4.76 4.76 0 0 0 3.37-1.4 4.39 4.39 0 0 0 1.48-3.29 6.1 6.1 0 0 0-3.89-1.14 5.15 5.15 0 0 0-3 0.87 2.66 2.66 0 0 0-1.24 2.2"/><polygon class="cls-1" transform="translate(-204.22 -38.999)" points="269.84 48.05 273.1 48.05 277.84 59.49 277.9 59.49 282.52 48.05 285.78 48.05 275.8 71 272.71 71 276.42 62.97"/><path class="cls-2" d="m26.16 13.661a16 16 0 0 0-0.25-2.81h-12.55v5.15h7.23a6.24 6.24 0 0 1-2.69 4.15v3.33h4.31a13.07 13.07 0 0 0 3.95-9.82"/><path class="cls-3" d="m17.9 20.151a8.08 8.08 0 0 1-4.54 1.28 8 8 0 0 1-7.5-5.52h-4.44v3.44a13.35 13.35 0 0 0 11.94 7.36 12.72 12.72 0 0 0 8.85-3.23z"/><path class="cls-4" d="m5.4395 13.361a8.08 8.08 0 0 1 0.42-2.56v-3.44h-4.44a13.39 13.39 0 0 0 0 12l4.44-3.45a8 8 0 0 1-0.42-2.55"/><path class="cls-5" d="m13.36 5.2909a7.26 7.26 0 0 1 5.13 2l3.81-3.81a12.84 12.84 0 0 0-8.94-3.48 13.35 13.35 0 0 0-11.94 7.36l4.44 3.44a8 8 0 0 1 7.5-5.51"/><rect class="cls-6" x="-204.22" y="-38.999" width="490" height="110"/></svg>
