<?xml version="1.0" encoding="utf-8"?>
<!-- Generator: Adobe Illustrator 16.0.0, SVG Export Plug-In . SVG Version: 6.00 Build 0)  -->
<!DOCTYPE svg PUBLIC "-//W3C//DTD SVG 1.1//EN" "http://www.w3.org/Graphics/SVG/1.1/DTD/svg11.dtd">
<svg version="1.1" id="Layer_1" xmlns="http://www.w3.org/2000/svg" xmlns:xlink="http://www.w3.org/1999/xlink" x="0px" y="0px"
	 width="43px" height="35px" viewBox="140 0 420 340" enable-background="new 140 0 420 340" xml:space="preserve">
<g id="g6321" transform="translate(-9.4000001,96.810998)">
	<g id="g6323" transform="matrix(1.8215159,0,0,1.8215159,-8.5437653,-109.83667)">
		<path id="path6325" fill="#FFFFFF" d="M282.152,138.716c0,13.061-10.635,23.695-23.695,23.695H129.532V68.563
			c0-13.06,10.635-23.695,23.695-23.695h128.925V138.716z"/>
		<g id="g6327">
			
				<linearGradient id="path6338_1_" gradientUnits="userSpaceOnUse" x1="138.4824" y1="96.8465" x2="175.7471" y2="96.8465" gradientTransform="matrix(2.0492 0 0 -2.0492 -51.9252 308.6292)">
				<stop  offset="0" style="stop-color:#007940"/>
				<stop  offset="0.2285" style="stop-color:#00873F"/>
				<stop  offset="0.7433" style="stop-color:#40A737"/>
				<stop  offset="1" style="stop-color:#5CB531"/>
			</linearGradient>
			<path id="path6338" fill="url(#path6338_1_)" d="M240.171,114.648h9.796c0.279,0,0.932-0.094,1.212-0.094
				c1.866-0.373,3.452-2.052,3.452-4.384c0-2.239-1.586-3.919-3.452-4.385c-0.28-0.093-0.839-0.093-1.212-0.093h-9.796V114.648z"/>
			
				<linearGradient id="path6349_1_" gradientUnits="userSpaceOnUse" x1="138.4824" y1="100.0107" x2="175.7139" y2="100.0107" gradientTransform="matrix(2.0492 0 0 -2.0492 -51.9252 308.6292)">
				<stop  offset="0" style="stop-color:#007940"/>
				<stop  offset="0.2285" style="stop-color:#00873F"/>
				<stop  offset="0.7433" style="stop-color:#40A737"/>
				<stop  offset="1" style="stop-color:#5CB531"/>
			</linearGradient>
			<path id="path6349" fill="url(#path6349_1_)" d="M248.847,52.798c-9.329,0-16.979,7.556-16.979,16.978v17.632h23.975
				c0.56,0,1.213,0,1.68,0.093c5.411,0.28,9.422,3.079,9.422,7.93c0,3.825-2.705,7.09-7.743,7.743v0.187
				c5.504,0.373,9.702,3.452,9.702,8.209c0,5.131-4.665,8.49-10.822,8.49h-26.307v34.517h24.908c9.329,0,16.978-7.557,16.978-16.979
				V52.798H248.847L248.847,52.798z"/>
			
				<linearGradient id="path6360_1_" gradientUnits="userSpaceOnUse" x1="138.4816" y1="103.4929" x2="175.7496" y2="103.4929" gradientTransform="matrix(2.0492 0 0 -2.0492 -51.9252 308.6292)">
				<stop  offset="0" style="stop-color:#007940"/>
				<stop  offset="0.2285" style="stop-color:#00873F"/>
				<stop  offset="0.7433" style="stop-color:#40A737"/>
				<stop  offset="1" style="stop-color:#5CB531"/>
			</linearGradient>
			<path id="path6360" fill="url(#path6360_1_)" d="M253.419,96.55c0-2.239-1.586-3.732-3.452-4.011
				c-0.187,0-0.654-0.094-0.933-0.094h-8.863v8.21h8.863c0.28,0,0.84,0,0.933-0.093C251.833,100.281,253.419,98.789,253.419,96.55z"
				/>
		</g>
		
			<linearGradient id="path6371_1_" gradientUnits="userSpaceOnUse" x1="92.6833" y1="100.0333" x2="130.5236" y2="100.0333" gradientTransform="matrix(2.0492 0 0 -2.0492 -51.9252 308.6292)">
			<stop  offset="0" style="stop-color:#1F286F"/>
			<stop  offset="0.4751" style="stop-color:#004E94"/>
			<stop  offset="0.8261" style="stop-color:#0066B1"/>
			<stop  offset="1" style="stop-color:#006FBC"/>
		</linearGradient>
		<path id="path6371" fill="url(#path6371_1_)" d="M154.999,52.798c-9.329,0-16.979,7.556-16.979,16.978v41.886
			c4.758,2.332,9.702,3.825,14.646,3.825c5.877,0,9.049-3.545,9.049-8.396V87.314h14.553v19.684c0,7.65-4.758,13.9-20.897,13.9
			c-9.795,0-17.445-2.146-17.445-2.146v35.73h24.908c9.329,0,16.978-7.557,16.978-16.979V52.798H154.999L154.999,52.798z"/>
		
			<linearGradient id="path6384_1_" gradientUnits="userSpaceOnUse" x1="115.4738" y1="99.988" x2="152.2254" y2="99.988" gradientTransform="matrix(2.0492 0 0 -2.0492 -51.9252 308.6292)">
			<stop  offset="0" style="stop-color:#6C2C2F"/>
			<stop  offset="0.1735" style="stop-color:#882730"/>
			<stop  offset="0.5731" style="stop-color:#BE1833"/>
			<stop  offset="0.8585" style="stop-color:#DC0436"/>
			<stop  offset="1" style="stop-color:#E60039"/>
		</linearGradient>
		<path id="path6384" fill="url(#path6384_1_)" d="M201.924,52.798c-9.329,0-16.979,7.556-16.979,16.978v22.203
			c4.291-3.638,11.754-5.97,23.788-5.411c6.437,0.28,13.34,2.053,13.34,2.053v7.183c-3.452-1.772-7.557-3.359-12.874-3.731
			c-9.142-0.653-14.646,3.824-14.646,11.661c0,7.929,5.504,12.408,14.646,11.661c5.317-0.373,9.422-2.053,12.874-3.732v7.184
			c0,0-6.81,1.772-13.34,2.052c-12.034,0.56-19.497-1.772-23.788-5.411v39.181h24.908c9.329,0,16.979-7.556,16.979-16.978V52.798
			H201.924L201.924,52.798z"/>
	</g>
</g>
</svg>
