<svg xmlns="http://www.w3.org/2000/svg" width="34" height="24" viewBox="0 0 34 24" fill="none">
  <path d="M2 4.5C2 3.11929 3.11929 2 4.5 2H29.5C30.8807 2 32 3.11929 32 4.5V19.5C32 20.8807 30.8807 22 29.5 22H4.5C3.11929 22 2 20.8807 2 19.5V4.5Z" fill="#D6E7F3"/>
  <path d="M8.05 7.625C8.05 6.24429 9.16929 5.125 10.55 5.125H25.9563V16.375C25.9563 17.7557 24.837 18.875 23.4563 18.875H8.05V7.625Z" fill="white"/>
  <path d="M13.8026 16.2201C13.799 16.6783 13.6404 17.1218 13.3527 17.4785C13.065 17.8352 12.6651 18.084 12.218 18.1845C12.0595 18.2238 11.8968 18.2436 11.7335 18.2434H8.68212V13.8694C8.93094 13.9152 9.16667 13.9676 9.40894 14.0004C9.65122 14.0331 10.0637 14.0789 10.3846 14.0986C10.8212 14.1351 11.2605 14.1219 11.6942 14.0593C12.0894 14.0155 12.4687 13.8786 12.8008 13.6599C12.9593 13.5528 13.0925 13.4123 13.1909 13.2483C13.2893 13.0843 13.3506 12.9007 13.3704 12.7104C13.3804 12.584 13.3804 12.457 13.3704 12.3306C13.3704 11.5842 13.3704 10.8377 13.3704 10.0847C13.3704 9.98648 13.3704 9.98648 13.2722 9.98648H11.596C11.596 10.0258 11.596 10.0585 11.596 10.0912V12.3896C11.6006 12.5467 11.5716 12.703 11.5108 12.8479C11.4445 13.0012 11.3386 13.1342 11.204 13.2331C11.0693 13.3321 10.9109 13.3935 10.7447 13.411C10.3511 13.4628 9.95087 13.427 9.57264 13.3063C9.28453 13.2146 9.00952 13.0967 8.72796 12.992C8.71123 12.9874 8.69672 12.9769 8.68709 12.9625C8.67747 12.948 8.67338 12.9306 8.67557 12.9134C8.67557 12.789 8.67557 12.6646 8.67557 12.5402V7.80602C8.67988 7.33093 8.84754 6.8718 9.1504 6.50574C9.45326 6.13968 9.87288 5.889 10.3387 5.7958C10.4813 5.76974 10.626 5.75659 10.7709 5.75651H13.7306C13.7961 5.75651 13.8157 5.75651 13.8157 5.83509C13.8092 9.29895 13.8157 12.7563 13.8026 16.2201Z" fill="#0066B1"/>
  <path d="M19.5713 5.75655V16.2332C19.5613 16.6917 19.3987 17.1337 19.1094 17.4894C18.8201 17.8452 18.4204 18.0944 17.9736 18.1976C17.8143 18.2315 17.652 18.2491 17.4891 18.25H14.4443V13.4569C14.8016 13.736 15.2221 13.9227 15.6688 14.0004C16.2229 14.1071 16.7885 14.1423 17.3516 14.1052C17.8743 14.0715 18.3933 13.9948 18.9034 13.876C18.9144 13.8752 18.9251 13.8722 18.9348 13.867C18.9445 13.8619 18.953 13.8548 18.9598 13.8461C18.9666 13.8375 18.9715 13.8275 18.9742 13.8169C18.9769 13.8062 18.9773 13.7951 18.9755 13.7843V13.0444C18.9755 13.0444 18.9755 13.0051 18.9755 12.9789L18.7005 13.1033C18.2304 13.3148 17.7228 13.4305 17.2075 13.4438C16.9111 13.4517 16.6171 13.3889 16.3498 13.2605C16.1558 13.169 15.9892 13.0284 15.8663 12.8527C15.7434 12.677 15.6685 12.4722 15.6491 12.2586C15.6022 11.9924 15.6179 11.7189 15.695 11.4598C15.7651 11.248 15.8898 11.0585 16.0565 10.9102C16.2231 10.7619 16.4259 10.6601 16.6444 10.6151C17.0496 10.5234 17.4702 10.5234 17.8754 10.6151C18.2371 10.6876 18.5874 10.8088 18.9165 10.9752H18.9689C18.9689 10.9752 18.9689 10.936 18.9689 10.9163V10.196C18.9689 10.1371 18.9689 10.1306 18.8969 10.1175C18.3847 9.99813 17.8634 9.92148 17.3385 9.88829C16.8085 9.85329 16.2763 9.88408 15.7539 9.97996C15.2778 10.0492 14.8271 10.2385 14.4443 10.53H14.4116V7.80605C14.4171 7.3313 14.5852 6.87278 14.8878 6.50697C15.1905 6.14116 15.6094 5.89016 16.0747 5.79584C16.2171 5.76764 16.3618 5.7523 16.5069 5.75H19.5451L19.5713 5.75655Z" fill="#C80D2C"/>
  <path d="M25.3335 5.84168C25.3335 9.28589 25.3335 12.7301 25.3335 16.1743C25.3334 16.6398 25.1753 17.0915 24.885 17.4555C24.5948 17.8195 24.1896 18.0742 23.7358 18.178C23.5795 18.2172 23.419 18.2369 23.2578 18.2369H20.2065V14.0004H20.2785C21.3458 14.0004 22.4131 14.0004 23.4739 14.0004C23.7938 14.008 24.1071 13.909 24.3644 13.7188C24.4911 13.628 24.5926 13.5066 24.6597 13.366C24.7268 13.2253 24.7572 13.0699 24.748 12.9144C24.7389 12.7588 24.6905 12.6081 24.6074 12.4763C24.5243 12.3444 24.4092 12.2358 24.2728 12.1604C24.0719 12.0447 23.8487 11.9732 23.618 11.9509H23.5525C23.6633 11.9239 23.7725 11.8911 23.8799 11.8527C24.0273 11.8031 24.1599 11.7171 24.2652 11.6026C24.3705 11.4882 24.4452 11.3489 24.4823 11.1979C24.5302 10.9872 24.501 10.7664 24.4001 10.5754C24.2992 10.3844 24.1333 10.2359 23.9323 10.1568C23.696 10.0584 23.4416 10.0115 23.1858 10.0193H20.2065V7.8126C20.2139 7.35442 20.3747 6.91196 20.6631 6.55587C20.9516 6.19979 21.351 5.95064 21.7976 5.84822C21.9628 5.8089 22.132 5.78912 22.3018 5.78929H25.2419C25.3139 5.75655 25.3335 5.7762 25.3335 5.84168Z" fill="#00A443"/>
  <path d="M22.4459 13.3456C22.0465 13.3456 21.647 13.3456 21.2411 13.3456V12.2586H22.4721C22.6068 12.2734 22.7313 12.3374 22.8217 12.4383C22.9122 12.5392 22.9622 12.6699 22.9622 12.8054C22.9622 12.9409 22.9122 13.0716 22.8217 13.1725C22.7313 13.2734 22.6068 13.3374 22.4721 13.3521L22.4459 13.3456Z" fill="#00A443"/>
  <path d="M22.3673 11.6235C21.9941 11.6235 21.6143 11.6235 21.2411 11.6235V10.6216H22.3346C22.4042 10.6109 22.4754 10.6148 22.5435 10.6332C22.6115 10.6517 22.675 10.6842 22.7297 10.7286C22.7844 10.7731 22.8292 10.8286 22.8612 10.8914C22.8931 10.9543 22.9115 11.0232 22.9152 11.0936C22.9189 11.164 22.9078 11.2344 22.8825 11.3002C22.8573 11.3661 22.8186 11.4259 22.7688 11.4759C22.719 11.5258 22.6593 11.5647 22.5935 11.5902C22.5277 11.6156 22.4574 11.6269 22.3869 11.6235H22.3673Z" fill="#00A443"/>
</svg>