<svg xmlns="http://www.w3.org/2000/svg" width="34" height="24" viewBox="0 0 34 24" fill="none">
  <path d="M2 4.5C2 3.11929 3.11929 2 4.5 2H29.5C30.8807 2 32 3.11929 32 4.5V19.5C32 20.8807 30.8807 22 29.5 22H4.5C3.11929 22 2 20.8807 2 19.5V4.5Z" fill="#F1EFEB"/>
  <path d="M19.7347 7.0868H14.266V16.9149H19.7347V7.0868Z" fill="#FF5F00"/>
  <path d="M14.6132 12C14.6132 10.0069 15.5472 8.2309 17.0004 7.08681C15.9361 6.25 14.5958 5.75 13.1375 5.75C9.68612 5.75 6.8875 8.54861 6.8875 12C6.8875 15.4514 9.68612 18.25 13.1375 18.25C14.5958 18.25 15.9361 17.75 17.0004 16.9132C15.5472 15.7691 14.6132 13.9931 14.6132 12Z" fill="#EB001B"/>
  <path d="M27.1115 12C27.1115 15.4514 24.3128 18.25 20.8615 18.25C19.4031 18.25 18.0628 17.75 16.9986 16.9132C18.4517 15.7691 19.3858 13.9931 19.3858 12C19.3858 10.0069 18.4517 8.2309 16.9986 7.08681C18.0611 6.25 19.4031 5.75 20.8615 5.75C24.3128 5.75 27.1115 8.54861 27.1115 12Z" fill="#F79E1B"/>
</svg>