<svg xmlns="http://www.w3.org/2000/svg" width="34" height="24" viewBox="0 0 34 24" fill="none">
  <path d="M2 4.5C2 3.11929 3.11929 2 4.5 2H29.5C30.8807 2 32 3.11929 32 4.5V19.5C32 20.8807 30.8807 22 29.5 22H4.5C3.11929 22 2 20.8807 2 19.5V4.5Z" fill="#002991"/>
  <path d="M21.175 8.36875V8.34375L21.15 8.33125C21.125 8.0375 21.0812 7.75 20.975 7.46875C20.4812 6.14375 19.1562 5.28125 17.6062 5.28125H13.0125L11.3125 16.225H13.8812L13.4812 18.725H17.0062L17.6062 14.975H18.6625C20.6562 14.975 22.3375 13.55 22.6562 11.5813C22.8562 10.2875 22.275 9.0625 21.1687 8.36875H21.175ZM20.2125 8.95C20.1937 9.1 20.1562 9.25625 20.1062 9.40625C20.0562 9.55625 19.9937 9.70625 19.9125 9.85C19.9062 9.8625 19.9 9.875 19.8937 9.8875C19.8187 10.025 19.7312 10.1562 19.6375 10.2812C19.625 10.3 19.6125 10.3188 19.5937 10.3375C19.4937 10.4563 19.3875 10.575 19.275 10.6813C19.2562 10.7 19.2375 10.7188 19.2187 10.7375C19.1 10.8438 18.975 10.9375 18.8375 11.0312C18.8125 11.0437 18.7937 11.0625 18.7687 11.075C18.6312 11.1625 18.4812 11.2375 18.325 11.3C18.3 11.3062 18.2812 11.3188 18.2562 11.325C18.0937 11.3875 17.925 11.4375 17.75 11.475C17.7312 11.475 17.7187 11.475 17.7 11.4812C17.5125 11.5188 17.3187 11.5375 17.1187 11.5375H15.5812L16.025 8.725H19.1375C19.5187 8.725 19.8875 8.79375 20.2187 8.925C20.2187 8.93125 20.2187 8.94375 20.2187 8.95H20.2125ZM12.4062 15.2875L13.8187 6.225H17.6125C18.7687 6.225 19.75 6.84375 20.1062 7.8C20.1187 7.8375 20.125 7.875 20.1375 7.91875C19.8187 7.8375 19.4812 7.7875 19.1375 7.7875H15.225L14.6062 11.7188L14.0312 15.2875H12.4062ZM21.7375 11.4312C21.4875 12.9438 20.2 14.0375 18.6625 14.0375H16.8062L16.2062 17.7875H14.5812L14.8312 16.225H14.8437L15.4312 12.475H17.1125C17.2625 12.475 17.4062 12.4688 17.55 12.45C17.6 12.45 17.6437 12.4313 17.6937 12.425C17.725 12.425 17.75 12.4187 17.7812 12.4125C17.8187 12.4125 17.8562 12.4 17.8875 12.3938C17.9125 12.3938 17.9437 12.3875 17.9687 12.3813C18.0187 12.3688 18.0625 12.3562 18.1125 12.3438C18.2 12.3187 18.2875 12.3 18.3687 12.275C18.4062 12.2625 18.4375 12.25 18.475 12.2312C18.5125 12.2187 18.5437 12.2062 18.5812 12.1875C18.6375 12.1687 18.6937 12.15 18.75 12.125C18.8125 12.0938 18.875 12.0625 18.9375 12.0312C18.9937 12 19.05 11.975 19.1062 11.9438C19.1125 11.9438 19.1187 11.9313 19.1312 11.9313C19.1437 11.925 19.1562 11.9125 19.175 11.9062C19.2062 11.8875 19.2375 11.8688 19.2625 11.85C19.325 11.8125 19.3812 11.775 19.4437 11.7375C19.4875 11.7063 19.525 11.675 19.5625 11.6438C19.5937 11.6188 19.6187 11.6 19.65 11.575C19.6687 11.5563 19.6937 11.5437 19.7125 11.525C19.725 11.5125 19.7375 11.5063 19.7562 11.4938C19.7937 11.4625 19.8312 11.425 19.8687 11.3875C19.925 11.3375 19.9875 11.2812 20.0375 11.225C20.0687 11.1938 20.1 11.1562 20.1312 11.1187C20.1562 11.0938 20.1812 11.0625 20.2062 11.0375C20.2375 11.0063 20.2687 10.9688 20.2937 10.9375C20.325 10.9 20.35 10.8563 20.3812 10.8188C20.425 10.7563 20.475 10.7 20.5187 10.6375C20.5312 10.625 20.5375 10.6062 20.5437 10.5938C20.5562 10.5688 20.5687 10.55 20.5875 10.525C20.6312 10.4563 20.675 10.3875 20.7125 10.3188C20.7312 10.2812 20.75 10.2375 20.7687 10.2C20.7937 10.15 20.8187 10.1 20.8437 10.05C20.85 10.0375 20.8562 10.025 20.8625 10.0063C20.8625 10 20.8687 9.99375 20.875 9.9875C20.8937 9.94375 20.9062 9.9 20.925 9.8625C20.95 9.79375 20.9812 9.725 21.0062 9.65C21.0187 9.60625 21.0312 9.5625 21.0437 9.51875C21.0437 9.51875 21.0437 9.50625 21.0437 9.5C21.0437 9.48125 21.0562 9.4625 21.0625 9.44375C21.5937 9.95 21.85 10.675 21.7312 11.4188L21.7375 11.4312Z" fill="white"/>
</svg>