<svg xmlns="http://www.w3.org/2000/svg" width="34" height="24" viewBox="0 0 34 24" fill="none">
  <path d="M2 4.5C2 3.11929 3.11929 2 4.5 2H29.5C30.8807 2 32 3.11929 32 4.5V19.5C32 20.8807 30.8807 22 29.5 22H4.5C3.11929 22 2 20.8807 2 19.5V4.5Z" fill="#1434CB"/>
  <path d="M13.9424 8.38256L10.902 15.6365H8.91842L7.42224 9.84754C7.33141 9.49097 7.25243 9.36034 6.97617 9.21012C6.52514 8.96543 5.78032 8.73586 5.125 8.59338L5.16951 8.38256H8.36253C8.76953 8.38256 9.13541 8.6535 9.22782 9.12219L10.018 13.3197L11.9709 8.38244L13.9424 8.38256ZM21.7146 13.2682C21.7225 11.3536 19.0672 11.2482 19.0854 10.3929C19.0911 10.1326 19.3389 9.85588 19.8814 9.78524C20.1503 9.75005 20.8911 9.7232 21.7314 10.1099L22.061 8.57161C21.6094 8.40772 21.0285 8.25 20.3057 8.25C18.4509 8.25 17.1456 9.236 17.1346 10.6479C17.1226 11.6922 18.0663 12.2749 18.7772 12.6219C19.5086 12.9773 19.754 13.2057 19.7513 13.5235C19.7461 14.0101 19.1679 14.2249 18.6276 14.2334C17.6844 14.2479 17.1371 13.9782 16.7008 13.7753L16.3607 15.3645C16.7992 15.5657 17.6085 15.7412 18.4475 15.75C20.4189 15.75 21.7085 14.7762 21.7146 13.2682ZM26.6124 15.6365H28.3479L26.833 8.38256H25.2311C24.8709 8.38256 24.5671 8.59229 24.4326 8.91475L21.6167 15.6365H23.5871L23.9783 14.5531H26.3858L26.6124 15.6365ZM24.5186 13.0663L25.5063 10.3427L26.0748 13.0663H24.5186ZM16.6236 8.38256L15.0719 15.6365H13.1954L14.7477 8.38256H16.6236Z" fill="white"/>
</svg>