<svg width="24" height="24" version="1.1" id="Capa_1" xmlns="http://www.w3.org/2000/svg" xmlns:xlink="http://www.w3.org/1999/xlink" x="0px" y="0px"
  viewBox="0 0 318.623 318.623" style="enable-background:new 0 0 318.623 318.623;" xml:space="preserve">
  <g>
    <path d="M305.477,241.514l-3.426-1.806c-32.237-16.999-37.745-39.859-38.587-48.266l0.174-74.866
    c-4.306-47.044-38.51-84.037-83.022-93.273v-2.012C180.617,9.531,171.066,0,159.312,0c-11.768,0-21.299,9.531-21.299,21.292v1.8
    C89.921,32.79,53.571,75.348,53.571,126.268c0,3.13,0.437,59.66,0.476,64.615c-1.208,11.639-7.719,33.13-37.475,48.825
    l-3.426,1.806v50.785h102.2c5.534,15.199,23.117,26.324,43.966,26.324c20.842,0,38.426-11.112,43.96-26.324h102.2L305.477,241.514
    L305.477,241.514z M292.623,279.445H26v-30.251c32.436-18.516,39.551-43.747,40.868-57.411l0.032-0.668
    c0,0-0.476-61.582-0.476-64.86c0-50.958,41.453-92.405,92.405-92.405c48.086,0,87.636,36.055,91.987,83.266l-0.161,74.898
    c1.028,10.771,7.243,37.398,41.974,57.167v30.264H292.623z"/>
  </g>
</svg>
