<?xml version="1.0" encoding="utf-8"?>
<!-- Generator: Adobe Illustrator 22.0.1, SVG Export Plug-In . SVG Version: 6.00 Build 0)  -->
<svg version="1.1" id="ico_community_1_" xmlns="http://www.w3.org/2000/svg" xmlns:xlink="http://www.w3.org/1999/xlink" x="0px"
	 y="0px" viewBox="0 0 30 30" style="enable-background:new 0 0 30 30;" xml:space="preserve">
<g id="ico_community" transform="translate(218.000000, 48.000000)">
	<path id="Stroke-1653" class="st0" fill="none" stroke="currentColor" d="M-201.1-34.9c0.6,1.2,1.9,1.9,3.1,1.9c1.3,0,2.4-0.9,3.1-1.9c8.8,0,8-12.5-0.1-12.5
		c-1.8,0-3.1,0.7-4.2,1.9c-3.3-1.7-7.2,0.4-8,3.7"/>
	<path id="Stroke-1654" class="st0" fill="none" stroke="currentColor" d="M-208.1-18.6h9.5v-3.1c0-0.6-3.8-2.5-6.9-3.8V-28c0,0,1.2-0.4,1.2-3.1c0.9,0,1.2-2.5,0-2.5
		c0-0.3,1-1.6,0.6-3.1c-0.6-2.5-6.9-2.5-7.5,0c-2.6-0.5-0.6,2.8-0.6,3.1c-1.2,0-0.9,2.5,0,2.5c0,2.7,1.2,3.1,1.2,3.1v2.5
		c-3.1,1.2-6.9,3.1-6.9,3.8v3.1H-208.1L-208.1-18.6z"/>
	<path id="Stroke-1655" class="st0" fill="none" stroke="currentColor" d="M-195.5-29.2c0,0.7-0.6,1.2-1.2,1.2s-1.2-0.6-1.2-1.2s0.6-1.2,1.2-1.2
		S-195.5-29.9-195.5-29.2L-195.5-29.2z"/>
	<path id="Stroke-1656" class="st0" fill="none" stroke="currentColor" d="M-200.5-40.5c0,0.3-0.3,0.6-0.6,0.6s-0.6-0.3-0.6-0.6s0.3-0.6,0.6-0.6
		S-200.5-40.8-200.5-40.5L-200.5-40.5z"/>
	<path id="Stroke-1657" class="st0" fill="none" stroke="currentColor" d="M-200.5-27.4c0,0.3-0.3,0.6-0.6,0.6s-0.6-0.3-0.6-0.6s0.3-0.6,0.6-0.6
		S-200.5-27.7-200.5-27.4L-200.5-27.4z"/>
	<path id="Stroke-1658" class="st0" fill="none" stroke="currentColor" d="M-196.8-40.5c0,0.3-0.3,0.6-0.6,0.6s-0.6-0.3-0.6-0.6s0.3-0.6,0.6-0.6
		S-196.8-40.8-196.8-40.5L-196.8-40.5z"/>
	<path id="Stroke-1659" class="st0" fill="none" stroke="currentColor" d="M-193-40.5c0,0.3-0.3,0.6-0.6,0.6s-0.6-0.3-0.6-0.6s0.3-0.6,0.6-0.6S-193-40.8-193-40.5
		L-193-40.5z"/>
</g>
</svg>
