<svg width="24px" height="22px" viewBox="0 0 24 22" version="1.1" xmlns="http://www.w3.org/2000/svg" xmlns:xlink="http://www.w3.org/1999/xlink">
    <g id="Page-1" stroke="none" stroke-width="1" fill="none" fill-rule="evenodd" stroke-linecap="round" stroke-linejoin="round">
        <g id="A-03.-Details-Drawer" transform="translate(-1000.000000, -842.000000)" stroke="currentColor" stroke-width="1.5">
            <g id="drawer" transform="translate(960.000000, 0.000000)">
                <g id="guides" transform="translate(40.000000, 840.000000)">
                    <g id="guide-header">
                        <g id="book-open-text" transform="translate(0.000000, 2.000000)">
                            <path d="M12,21.125 L12,3.712 C12,3.712 9.545,0.985 1.268,0.875 C1.13070117,0.873269483 0.998594363,0.927411617 0.902,1.025 C0.804459281,1.12301264 0.749792826,1.25572265 0.75,1.394 L0.75,17.769 C0.747704832,18.0492216 0.969887624,18.2798473 1.25,18.288 C9.543,18.4 12,21.125 12,21.125" id="Path"></path>
                            <path d="M9,10.18 C7.29825398,9.60761741 5.53085019,9.25312863 3.74,9.125" id="Path"></path>
                            <path d="M9,14.375 C7.29825398,13.8026174 5.53085019,13.4481286 3.74,13.32" id="Path"></path>
                            <path d="M15,10.18 C16.701746,9.60761741 18.4691498,9.25312863 20.26,9.125" id="Path"></path>
                            <path d="M15,14.375 C16.701746,13.8026174 18.4691498,13.4481286 20.26,13.32" id="Path"></path>
                            <path d="M12,21.125 L12,3.712 C12,3.712 14.455,0.985 22.732,0.875 C22.8692988,0.873269483 23.0014056,0.927411617 23.098,1.025 C23.1955407,1.12301264 23.2502072,1.25572265 23.25,1.394 L23.25,17.769 C23.2522952,18.0492216 23.0301124,18.2798473 22.75,18.288 C14.457,18.4 12,21.125 12,21.125" id="Path"></path>
                        </g>
                    </g>
                </g>
            </g>
        </g>
    </g>
</svg>