<svg width="32px" height="32px" viewBox="0 0 32 32" version="1.1" xmlns="http://www.w3.org/2000/svg" xmlns:xlink="http://www.w3.org/1999/xlink">
    <g id="Page-1" stroke="none" stroke-width="1" fill="none" fill-rule="evenodd">
        <g id="A-04.-App-Selection-Options" transform="translate(-953.000000, -178.000000)">
            <g id="selection-card-copy" transform="translate(661.000000, 159.000000)">
                <g id="streamline-icon-information-circle@24x24-copy" transform="translate(292.000000, 19.000000)">
                    <circle id="Oval" class="circle" fill="transparent" cx="16" cy="16" r="16"></circle>
                    <path d="M19,22 L18,22 C16.896,22 16,21.104 16,20 L16,15 C16,14.448 15.552,14 15,14 L14,14" id="Path" stroke="currentColor" stroke-width="1.5" stroke-linecap="round" stroke-linejoin="round" class="path"></path>
                    <path d="M15.5,9 C15.224,9 15,9.224 15,9.5 C15,9.776 15.224,10 15.5,10 C15.776,10 16,9.776 16,9.5 C16,9.224 15.776,9 15.5,9 L15.5,9" id="Path" stroke="currentColor" stroke-width="1.5" stroke-linecap="round" stroke-linejoin="round" class="path"></path>
                    <path d="M16,1 C24.284,1 31,7.716 31,16 C31,24.284 24.284,31 16,31 C7.716,31 1,24.284 1,16 C1,7.716 7.716,1 16,1 Z" id="Path" stroke="#3683DC" stroke-width="1.5" stroke-linecap="round" stroke-linejoin="round" class="path"></path>
                </g>
            </g>
        </g>
    </g>
</svg>