<svg width="96px" height="100px" viewBox="0 0 96 100" version="1.1" xmlns="http://www.w3.org/2000/svg" xmlns:xlink="http://www.w3.org/1999/xlink">
    <title>managed</title>
    <desc>managed</desc>
    <g id="UI-Kit" stroke="none" stroke-width="1" fill="none" fill-rule="evenodd">
        <g id="sticker-sheet-" transform="translate(-579.000000, -3647.000000)" fill="#3683DC" fill-rule="nonzero">
            <g id="icons" transform="translate(254.000000, 2699.000000)">
                <g id="null-state-icons" transform="translate(0.000000, 365.000000)">
                    <g id="managed" transform="translate(277.000000, 536.000000)">
                        <path d="M106.398438,126.101562 C114.601604,126.101562 122.186163,127.501288 129.152344,130.300781 C136.118524,133.100274 139.601562,136.583313 139.601562,140.75 C139.601562,142.182299 138.950527,142.898438 137.648438,142.898438 L68.8984375,142.898438 L68.8984375,144.851562 C68.8984375,146.283861 68.1822988,147 66.75,147 L50.1484375,147 C48.7161387,147 48,146.283861 48,144.851562 L48,113.601562 C48,112.299473 48.7161387,111.648438 50.1484375,111.648438 L66.75,111.648438 C68.1822988,111.648438 68.8984375,112.299473 68.8984375,113.601562 L68.8984375,115.75 L81.3984375,115.75 C87.7786777,115.75 93.4426836,119.005176 98.390625,125.515625 L98.9765625,126.101562 L106.398438,126.101562 Z M64.6015625,142.898438 L64.6015625,115.75 L52.1015625,115.75 L52.1015625,142.898438 L64.6015625,142.898438 Z M68.8984375,138.601562 L134.523438,138.601562 C132.830721,136.518219 129.347683,134.630217 124.074219,132.9375 C118.800755,131.244783 112.908887,130.398438 106.398438,130.398438 L77.1015625,130.398438 C75.7994727,130.398438 75.1484375,129.682299 75.1484375,128.25 C75.1484375,126.817701 75.7994727,126.101562 77.1015625,126.101562 L93.5078125,126.101562 C89.601543,121.934875 85.565125,119.851562 81.3984375,119.851562 L68.8984375,119.851562 L68.8984375,138.601562 Z M60.5,136.648438 C60.5,137.950527 59.7838613,138.601562 58.3515625,138.601562 C57.0494727,138.601562 56.3984375,137.950527 56.3984375,136.648438 C56.3984375,135.216139 57.0494727,134.5 58.3515625,134.5 C59.7838613,134.5 60.5,135.216139 60.5,136.648438 Z M133.351562,47 C136.21616,47 138.690094,48.0091045 140.773438,50.0273438 C142.856781,52.045583 143.898438,54.4869648 143.898438,57.3515625 L143.898438,107.351562 C143.898438,110.346369 142.889333,112.852854 140.871094,114.871094 C138.852854,116.889333 136.346369,117.898438 133.351562,117.898438 L120.851562,117.898438 C119.549473,117.898438 118.898438,117.182299 118.898438,115.75 C118.898438,114.317701 119.549473,113.601562 120.851562,113.601562 L133.351562,113.601562 C135.044279,113.601562 136.509108,112.983079 137.746094,111.746094 C138.983079,110.509108 139.601562,109.044279 139.601562,107.351562 L139.601562,67.8984375 L60.5,67.8984375 L60.5,92.8984375 C60.5,94.2005273 59.7838613,94.8515625 58.3515625,94.8515625 C57.0494727,94.8515625 56.3984375,94.2005273 56.3984375,92.8984375 L56.3984375,57.3515625 C56.3984375,54.4869648 57.407542,52.045583 59.4257812,50.0273438 C61.4440205,48.0091045 63.8854023,47 66.75,47 L133.351562,47 Z M60.5,63.6015625 L139.601562,63.6015625 L139.601562,57.3515625 C139.601562,55.6588457 138.983079,54.1940166 137.746094,52.9570312 C136.509108,51.7200459 135.044279,51.1015625 133.351562,51.1015625 L66.75,51.1015625 C65.0572832,51.1015625 63.5924541,51.7200459 62.3554688,52.9570312 C61.1184834,54.1940166 60.5,55.6588457 60.5,57.3515625 L60.5,63.6015625 Z M73,57.3515625 C73,58.7838613 72.2838613,59.5 70.8515625,59.5 C69.5494727,59.5 68.8984375,58.7838613 68.8984375,57.3515625 C68.8984375,56.0494727 69.5494727,55.3984375 70.8515625,55.3984375 C72.2838613,55.3984375 73,56.0494727 73,57.3515625 Z M81.3984375,57.3515625 C81.3984375,58.7838613 80.6822988,59.5 79.25,59.5 C77.8177012,59.5 77.1015625,58.7838613 77.1015625,57.3515625 C77.1015625,56.0494727 77.8177012,55.3984375 79.25,55.3984375 C80.6822988,55.3984375 81.3984375,56.0494727 81.3984375,57.3515625 Z M89.6015625,57.3515625 C89.6015625,58.7838613 88.9505273,59.5 87.6484375,59.5 C86.2161387,59.5 85.5,58.7838613 85.5,57.3515625 C85.5,56.0494727 86.2161387,55.3984375 87.6484375,55.3984375 C88.9505273,55.3984375 89.6015625,56.0494727 89.6015625,57.3515625 Z" id="î¥"></path>
                    </g>
                </g>
            </g>
        </g>
    </g>
</svg>

