<?xml version="1.0" encoding="utf-8"?>
<!-- Generator: Adobe Illustrator 22.0.1, SVG Export Plug-In . SVG Version: 6.00 Build 0)  -->
<svg version="1.1" id="ico_support_1_" xmlns="http://www.w3.org/2000/svg" xmlns:xlink="http://www.w3.org/1999/xlink" x="0px"
	 y="0px" viewBox="0 0 30 30" style="enable-background:new 0 0 30 30;" xml:space="preserve">
<style type="text/css">
	.st0{fill:none;stroke:currentColor;stroke-linecap:round;stroke-linejoin:round;}
</style>
<g id="ico_support" transform="translate(218.000000, 48.000000)">
	<path id="Stroke-541" class="st0" fill="none" stroke="currentColor" d="M-193.6-37.1l5,3.4v13.1c0,1-0.8,1.9-1.9,1.9h-25c-1,0-1.9-0.8-1.9-1.9v-13.1l5-3.4"/>
	<polyline id="Stroke-542" class="st0" fill="none" stroke="currentColor" points="-213.6,-22.4 -207.4,-27.4 -198.6,-27.4 -192.4,-22.4 	"/>
	<path id="Stroke-543" class="st0" fill="none" stroke="currentColor" d="M-188.6-33.6l-7.5,5"/>
	<path id="Stroke-544" class="st0" fill="none" stroke="currentColor" d="M-217.4-33.6l7.5,5"/>
	<polyline id="Stroke-545" class="st0" fill="none" stroke="currentColor" points="-193.6,-30.5 -193.6,-47.4 -212.4,-47.4 -212.4,-30.5 	"/>
	<path id="Stroke-546" class="st0" fill="none" stroke="currentColor" d="M-208.6-43.6h2.5"/>
	<path id="Stroke-547" class="st0" fill="none" stroke="currentColor" d="M-206.1-39.9h8.8"/>
	<path id="Stroke-548" class="st0" fill="none" stroke="currentColor" d="M-208.6-36.1h11.2"/>
	<path id="Stroke-549" class="st0" fill="none" stroke="currentColor" d="M-208.6-32.4h11.2"/>
</g>
</svg>
