<svg width="50" height="50" viewBox="0 0 50 50" version="1.1" xmlns="http://www.w3.org/2000/svg" xmlns:xlink="http://www.w3.org/1999/xlink">
    <desc>Volumes</desc>
    <defs>
        <circle id="path-1" cx="24" cy="24" r="24"></circle>
    </defs>
    <g id="ui-kit---1440" stroke="none" stroke-width="1" fill="none" fill-rule="evenodd">
        <g id="sticker-sheet" transform="translate(-267.000000, -93.000000)">
            <g id="create:dropdown" transform="translate(251.000000, 73.000000)">
                <g id="volume">
                    <g id="icon" transform="translate(16.000000, 20.000000)">
                        <g id="Oval-2">
                            <use fill="#F4F4F4" fill-rule="evenodd" xlink:href="#path-1" class="circle"></use>
                            <circle stroke="#F4F4F4" stroke-width="2" cx="24" cy="24" r="23" class="outerCircle"></circle>
                        </g>
                        <g id="Group-14" transform="translate(12.000000, 15.000000)" class="insidePath">
                            <path d="M23.5,16.5 C23.5,17.6 22.601,18.5 21.5,18.5 L2.5,18.5 C1.4,18.5 0.5,17.6 0.5,16.5 L0.5,12.5 C0.5,11.4 1.4,10.5 2.5,10.5 L21.5,10.5 C22.601,10.5 23.5,11.4 23.5,12.5 L23.5,16.5 L23.5,16.5 Z" id="Stroke-2084" stroke="#939598" stroke-linecap="round" stroke-linejoin="round"></path>
                            <path d="M3.5,15.5 L20.5,15.5" id="Stroke-2085" stroke="#939598" stroke-linecap="round" stroke-linejoin="round"></path>
                            <path d="M20.5,13 C20.224,13 20,13.225 20,13.5 C20,13.775 20.224,14 20.5,14 C20.776,14 21,13.775 21,13.5 C21,13.225 20.776,13 20.5,13" id="Fill-2086" fill="#939598"></path>
                            <path d="M18.5,13 C18.224,13 18,13.225 18,13.5 C18,13.775 18.224,14 18.5,14 C18.776,14 19,13.775 19,13.5 C19,13.225 18.776,13 18.5,13" id="Fill-2087" fill="#939598"></path>
                            <path d="M23.5,12 L21.005,2.436 C20.727,1.371 19.601,0.5 18.5,0.5 L5.5,0.5 C4.4,0.5 3.273,1.371 2.996,2.436 L0.5,12" id="Stroke-2088" stroke="#939598" stroke-linecap="round" stroke-linejoin="round"></path>
                        </g>
                    </g>
                </g>
            </g>
        </g>
    </g>
</svg>