<?xml version="1.0" encoding="UTF-8"?>
<svg width="32px" height="39px" viewBox="0 0 32 39" version="1.1" xmlns="http://www.w3.org/2000/svg" xmlns:xlink="http://www.w3.org/1999/xlink">
    <!-- Generator: Sketch 53.2 (72643) - https://sketchapp.com -->
    <title>LAMP</title>
    <desc>Created with Sketch.</desc>
    <g id="LAMP" stroke="none" stroke-width="1" fill="none" fill-rule="evenodd">
        <path d="M15.5,32.9567971 C20.1944204,32.9567971 23.6831055,21.413669 24,23.9077148 C24.3168945,26.4017607 23.13287,14.9106993 17.4975971,9.97017531 C16.2116581,8.84277425 20.2748258,17.6550468 15.5,17.6550468 C10.8055796,17.6550468 7,21.4606264 7,26.1550468 C7,30.8494672 10.8055796,32.9567971 15.5,32.9567971 Z" id="Oval" fill="#939598"></path>
        <circle id="Oval" fill="#939598" cx="15" cy="25" r="9"></circle>
        <path d="M14.9891284,36.8004997 C21.6105412,36.8004997 26.9782568,31.5931404 26.9782568,25.1695372 C26.9782568,21.1895804 28.5476554,16.8126333 14.1062122,2.15989109 C12.3857114,0.414216849 17.508025,13.5385747 14.9891284,13.5385747 C8.36771563,13.5385747 3,18.745934 3,25.1695372 C3,31.5931404 8.36771563,36.8004997 14.9891284,36.8004997 Z" id="Oval-Copy" stroke="#939598" stroke-width="2"></path>
    </g>
</svg>