<?xml version="1.0" ?><!DOCTYPE svg  PUBLIC '-//W3C//DTD SVG 1.1//EN'  'http://www.w3.org/Graphics/SVG/1.1/DTD/svg11.dtd'><svg enable-background="new 0 0 128 128" height="128px" id="Слой_3" version="1.1" viewBox="0 0 128 128" width="128px" xml:space="preserve" xmlns="http://www.w3.org/2000/svg" xmlns:xlink="http://www.w3.org/1999/xlink"><ellipse cx="63.333" cy="114.432" fill="#B8CBCD" rx="47.667" ry="11.814"/><path d="M58.552,125.314c-0.103,0-0.206-0.005-0.31-0.016c-4.202-0.432-8.366-1.308-12.375-2.604  c-1.577-0.51-2.442-2.2-1.932-3.777c0.509-1.576,2.199-2.443,3.777-1.932c3.61,1.166,7.359,1.955,11.144,2.344  c1.648,0.169,2.847,1.643,2.678,3.291C61.374,124.165,60.071,125.314,58.552,125.314z M70.558,125.304  c-1.517,0-2.818-1.146-2.98-2.688c-0.172-1.648,1.023-3.124,2.671-3.296c3.783-0.396,7.529-1.192,11.135-2.366  c1.578-0.512,3.268,0.349,3.781,1.924c0.513,1.575-0.349,3.269-1.924,3.781c-4.006,1.305-8.167,2.189-12.368,2.628  C70.768,125.299,70.663,125.304,70.558,125.304z M35.806,117.962c-0.508,0-1.024-0.13-1.496-0.402  c-3.648-2.104-7.09-4.602-10.231-7.424c-1.232-1.107-1.334-3.004-0.226-4.236c1.107-1.232,3.005-1.333,4.236-0.227  c2.831,2.543,5.933,4.794,9.219,6.689c1.435,0.828,1.928,2.662,1.1,4.098C37.852,117.423,36.843,117.962,35.806,117.962z   M93.288,117.907c-1.036,0-2.042-0.537-2.599-1.497c-0.83-1.434-0.341-3.27,1.092-4.1c3.282-1.901,6.379-4.157,9.205-6.706  c1.23-1.111,3.127-1.013,4.237,0.219c1.11,1.229,1.012,3.127-0.218,4.236c-3.136,2.828-6.573,5.332-10.216,7.442  C94.315,117.776,93.798,117.907,93.288,117.907z M18.03,101.987c-0.925,0-1.838-0.427-2.425-1.23  c-2.49-3.41-4.625-7.088-6.347-10.932c-0.677-1.513,0-3.287,1.511-3.965c1.51-0.676,3.286,0,3.964,1.512  c1.551,3.462,3.474,6.774,5.717,9.846c0.977,1.339,0.685,3.216-0.654,4.192C19.263,101.8,18.644,101.987,18.03,101.987z   M111.032,101.901c-0.612,0-1.229-0.187-1.762-0.574c-1.34-0.975-1.636-2.851-0.662-4.19c2.238-3.076,4.156-6.394,5.7-9.859  c0.674-1.515,2.446-2.195,3.961-1.52c1.513,0.675,2.193,2.448,1.519,3.961c-1.715,3.849-3.844,7.532-6.328,10.947  C112.873,101.474,111.959,101.901,111.032,101.901z M8.264,80.179c-1.385,0-2.63-0.966-2.931-2.375  c-0.876-4.104-1.324-8.333-1.332-12.567c-0.003-1.657,1.337-3.003,2.994-3.006c0.002,0,0.004,0,0.006,0c1.654,0,2.997,1.34,3,2.994  c0.007,3.818,0.411,7.629,1.2,11.327c0.346,1.62-0.688,3.214-2.308,3.56C8.682,80.156,8.471,80.179,8.264,80.179z M120.76,80.069  c-0.206,0-0.414-0.021-0.623-0.065c-1.621-0.343-2.658-1.935-2.315-3.556c0.782-3.7,1.178-7.512,1.178-11.329v-0.203  c-0.011-1.656,1.323-3.009,2.98-3.02c0.006,0,0.013,0,0.02,0c1.647,0,2.989,1.33,2.999,2.98v0.262c0,4.214-0.44,8.442-1.308,12.55  C123.394,79.1,122.147,80.069,120.76,80.069z M8.224,56.28c-0.204,0-0.41-0.022-0.618-0.064c-1.622-0.34-2.661-1.93-2.322-3.551  c0.865-4.131,2.17-8.182,3.88-12.039c0.671-1.514,2.442-2.2,3.958-1.527c1.515,0.671,2.198,2.443,1.527,3.958  c-1.539,3.472-2.714,7.118-3.492,10.836C10.861,55.308,9.614,56.28,8.224,56.28z M120.707,55.953c-1.383,0-2.626-0.962-2.93-2.369  c-0.8-3.713-1.996-7.352-3.555-10.813c-0.68-1.511-0.007-3.287,1.503-3.967c1.512-0.681,3.287-0.007,3.967,1.503  c1.732,3.847,3.061,7.889,3.95,12.014c0.349,1.62-0.681,3.216-2.301,3.564C121.129,55.931,120.917,55.953,120.707,55.953z   M17.897,34.427c-0.61,0-1.226-0.185-1.757-0.57c-1.342-0.972-1.642-2.848-0.67-4.189c2.473-3.414,5.312-6.58,8.439-9.411  c1.227-1.111,3.125-1.017,4.237,0.211c1.112,1.228,1.018,3.125-0.211,4.237c-2.818,2.552-5.377,5.405-7.606,8.482  C19.743,33.996,18.827,34.427,17.897,34.427z M110.909,34.161c-0.924,0-1.834-0.425-2.422-1.227  c-2.245-3.063-4.819-5.902-7.653-8.438c-1.234-1.105-1.339-3.001-0.234-4.236c1.105-1.234,3.001-1.34,4.236-0.234  c3.144,2.814,6,5.964,8.491,9.362c0.979,1.337,0.69,3.214-0.646,4.193C112.145,33.973,111.524,34.161,110.909,34.161z   M35.622,18.388c-1.033,0-2.039-0.534-2.596-1.492c-0.833-1.432-0.348-3.268,1.084-4.101c3.649-2.124,7.531-3.866,11.536-5.179  c1.575-0.518,3.27,0.342,3.785,1.916c0.516,1.574-0.342,3.269-1.916,3.785c-3.606,1.182-7.1,2.751-10.387,4.664  C36.653,18.257,36.134,18.388,35.622,18.388z M93.093,18.223c-0.507,0-1.02-0.128-1.491-0.399  c-3.297-1.894-6.802-3.443-10.415-4.604c-1.578-0.507-2.445-2.197-1.939-3.774c0.507-1.577,2.195-2.445,3.774-1.939  c4.014,1.29,7.906,3.01,11.568,5.113c1.437,0.825,1.933,2.659,1.108,4.096C95.143,17.683,94.132,18.223,93.093,18.223z   M58.323,10.947c-1.514,0-2.815-1.143-2.979-2.682c-0.176-1.647,1.017-3.125,2.665-3.301c4.165-0.445,8.466-0.457,12.633-0.036  c1.648,0.166,2.85,1.638,2.684,3.286c-0.167,1.648-1.636,2.846-3.286,2.684c-3.756-0.379-7.639-0.367-11.394,0.032  C58.537,10.941,58.43,10.947,58.323,10.947z" fill="#8D4520"/><path d="M58.59,108.574c-0.093,0-0.187-0.006-0.282-0.02c-4.147-0.586-8.179-1.763-11.984-3.498  c-1.005-0.458-1.448-1.644-0.99-2.649c0.458-1.004,1.643-1.45,2.649-0.989c3.457,1.575,7.119,2.644,10.885,3.176  c1.094,0.154,1.855,1.166,1.701,2.26C60.427,107.852,59.571,108.574,58.59,108.574z M70.497,108.561  c-0.979,0-1.834-0.719-1.977-1.716c-0.157-1.094,0.602-2.107,1.695-2.264c3.764-0.54,7.424-1.616,10.877-3.199  c1.005-0.462,2.191-0.019,2.651,0.985c0.46,1.004,0.019,2.191-0.985,2.651c-3.802,1.742-7.831,2.927-11.975,3.521  C70.687,108.554,70.591,108.561,70.497,108.561z M37.127,98.803c-0.463,0-0.929-0.16-1.307-0.487  c-3.166-2.737-5.922-5.905-8.19-9.415c-0.6-0.928-0.333-2.166,0.594-2.766c0.927-0.599,2.166-0.334,2.765,0.594  c2.063,3.191,4.568,6.072,7.447,8.562c0.835,0.723,0.927,1.985,0.205,2.821C38.246,98.568,37.688,98.803,37.127,98.803z   M91.937,98.747c-0.56,0-1.116-0.233-1.511-0.688c-0.724-0.835-0.635-2.098,0.199-2.822c2.874-2.494,5.373-5.38,7.429-8.575  c0.597-0.929,1.834-1.199,2.764-0.6c0.929,0.598,1.198,1.835,0.6,2.764c-2.262,3.515-5.011,6.688-8.171,9.433  C92.869,98.586,92.402,98.747,91.937,98.747z M24.337,78.993c-0.864,0-1.66-0.564-1.917-1.434c-1.178-3.994-1.78-8.15-1.789-12.35  c-0.002-1.104,0.892-2.002,1.996-2.004c0.001,0,0.003,0,0.004,0c1.103,0,1.998,0.893,2,1.996c0.008,3.819,0.555,7.597,1.625,11.225  c0.313,1.06-0.293,2.172-1.352,2.484C24.715,78.966,24.525,78.993,24.337,78.993z M104.687,78.909c-0.186,0-0.375-0.026-0.563-0.082  c-1.06-0.311-1.667-1.422-1.357-2.481c1.063-3.628,1.603-7.404,1.603-11.227l0-0.171c0-1.104,0.896-2,2-2c1.104,0,2,0.896,2,2  l0,0.154c0,4.22-0.593,8.375-1.764,12.368C106.35,78.343,105.552,78.909,104.687,78.909z M24.291,55.412  c-0.185,0-0.373-0.026-0.559-0.08c-1.061-0.309-1.671-1.419-1.362-2.479c1.167-4.014,2.905-7.837,5.165-11.364  c0.596-0.929,1.834-1.2,2.763-0.605c0.93,0.596,1.201,1.833,0.605,2.763c-2.053,3.204-3.632,6.678-4.692,10.323  C25.956,54.844,25.157,55.412,24.291,55.412z M104.637,55.166c-0.862,0-1.658-0.563-1.916-1.431  c-1.082-3.637-2.681-7.101-4.755-10.295c-0.601-0.927-0.338-2.165,0.589-2.767c0.928-0.601,2.166-0.337,2.767,0.589  c2.282,3.516,4.043,7.328,5.233,11.332c0.315,1.059-0.288,2.173-1.347,2.487C105.018,55.139,104.826,55.166,104.637,55.166z   M37,35.547c-0.558,0-1.113-0.232-1.508-0.686c-0.726-0.833-0.64-2.096,0.193-2.822c3.158-2.753,6.683-5.036,10.475-6.784  c1.005-0.463,2.192-0.023,2.653,0.979c0.462,1.003,0.024,2.191-0.979,2.653c-3.446,1.588-6.65,3.663-9.521,6.166  C37.935,35.385,37.466,35.547,37,35.547z M91.806,35.38c-0.462,0-0.926-0.159-1.304-0.484c-2.886-2.486-6.102-4.541-9.559-6.108  c-1.006-0.456-1.452-1.642-0.996-2.647c0.456-1.007,1.642-1.452,2.647-0.996c3.804,1.725,7.342,3.985,10.518,6.72  c0.837,0.721,0.931,1.984,0.211,2.821C92.927,35.144,92.368,35.38,91.806,35.38z M58.415,25.689c-0.977,0-1.832-0.717-1.977-1.712  c-0.159-1.093,0.598-2.108,1.691-2.267c4.096-0.597,8.364-0.611,12.475-0.038c1.094,0.152,1.857,1.163,1.705,2.257  c-0.152,1.094-1.162,1.857-2.257,1.705c-3.736-0.52-7.622-0.508-11.347,0.034C58.607,25.681,58.51,25.689,58.415,25.689z" fill="#8D4520"/><path d="M64.524,91.125c-1.104,0-1.998-0.894-2-1.998c-0.001-1.104,0.893-2.001,1.998-2.002  c3.867-0.004,7.668-1.024,10.994-2.951c0.956-0.554,2.179-0.228,2.733,0.728c0.554,0.956,0.228,2.18-0.728,2.733  c-3.932,2.278-8.425,3.485-12.994,3.49C64.526,91.125,64.525,91.125,64.524,91.125z M52.523,87.928  c-0.339,0-0.683-0.086-0.998-0.268c-3.944-2.275-7.238-5.56-9.526-9.497c-0.555-0.955-0.23-2.18,0.725-2.734  c0.954-0.556,2.179-0.23,2.734,0.725c1.937,3.335,4.726,6.115,8.066,8.042c0.957,0.552,1.285,1.774,0.733,2.731  C53.887,87.569,53.214,87.928,52.523,87.928z M85.294,79.116c-0.34,0-0.684-0.086-0.999-0.269c-0.957-0.553-1.283-1.776-0.73-2.732  c1.923-3.326,2.94-7.129,2.94-10.996v-0.103c0-1.105,0.896-2,2-2s2,0.896,2,2v0.103c0,4.569-1.202,9.063-3.477,12.998  C86.657,78.758,85.985,79.116,85.294,79.116z M40.495,67.144c-1.104,0-1.999-0.87-1.999-1.975h2l-2-0.011  c-0.001-4.591,1.192-9.069,3.449-12.991c0.55-0.958,1.773-1.287,2.731-0.736c0.957,0.551,1.287,1.773,0.736,2.73  c-1.908,3.316-2.917,7.105-2.917,10.957C42.495,66.224,41.6,67.144,40.495,67.144z M85.248,55.036c-0.688,0-1.358-0.355-1.729-0.992  c-1.943-3.33-4.738-6.104-8.083-8.024c-0.958-0.55-1.289-1.772-0.739-2.729c0.551-0.957,1.772-1.29,2.731-0.739  c3.95,2.267,7.251,5.544,9.546,9.478c0.557,0.954,0.234,2.179-0.72,2.735C85.937,54.948,85.59,55.036,85.248,55.036z M52.439,46.36  c-0.689,0-1.359-0.355-1.73-0.994c-0.556-0.954-0.232-2.179,0.722-2.734c3.927-2.287,8.418-3.503,12.986-3.517  c0.002,0,0.004,0,0.006,0c1.102,0,1.997,0.891,2,1.994c0.004,1.104-0.889,2.003-1.994,2.006c-3.866,0.013-7.665,1.041-10.986,2.975  C53.127,46.273,52.781,46.36,52.439,46.36z" fill="#8D4520"/><circle cx="20.5" cy="24.119" fill="#B9E3ED" r="11.5"/><path d="M20.5,37.619c-7.444,0-13.5-6.056-13.5-13.5s6.056-13.5,13.5-13.5S34,16.675,34,24.119  S27.944,37.619,20.5,37.619z M20.5,14.619c-5.238,0-9.5,4.262-9.5,9.5s4.262,9.5,9.5,9.5s9.5-4.262,9.5-9.5  S25.738,14.619,20.5,14.619z" fill="#324654"/><path d="M11,28.119c-1.104,0-2-0.896-2-2c0-7.444,6.056-13.5,13.5-13.5c1.104,0,2,0.895,2,2  s-0.896,2-2,2c-5.238,0-9.5,4.262-9.5,9.5C13,27.223,12.104,28.119,11,28.119z" fill="#324654" opacity="0.2"/><circle cx="101.5" cy="82.119" fill="#B2EDA6" r="8.5"/><path d="M101.5,92.619c-5.79,0-10.5-4.71-10.5-10.5c0-5.79,4.71-10.5,10.5-10.5s10.5,4.71,10.5,10.5  C112,87.909,107.29,92.619,101.5,92.619z M101.5,75.619c-3.584,0-6.5,2.916-6.5,6.5s2.916,6.5,6.5,6.5s6.5-2.916,6.5-6.5  S105.084,75.619,101.5,75.619z" fill="#3C663E"/><path d="M99,90.119c-1.104,0-2-0.896-2-2s0.896-2,2-2c3.584,0,6.5-2.916,6.5-6.5c0-1.104,0.896-2,2-2  s2,0.896,2,2C109.5,85.409,104.79,90.119,99,90.119z" fill="#3C663E" opacity="0.2"/><circle cx="47.5" cy="84.119" fill="#FFBAB0" r="6.5"/><path d="M47.5,92.619c-4.687,0-8.5-3.814-8.5-8.5c0-4.687,3.813-8.5,8.5-8.5s8.5,3.813,8.5,8.5  C56,88.805,52.187,92.619,47.5,92.619z M47.5,79.619c-2.481,0-4.5,2.019-4.5,4.5s2.019,4.5,4.5,4.5s4.5-2.019,4.5-4.5  S49.981,79.619,47.5,79.619z" fill="#783741"/><path d="M48.5,90.619c-4.687,0-8.5-3.814-8.5-8.5c0-1.104,0.896-2,2-2s2,0.896,2,2  c0,2.481,2.019,4.5,4.5,4.5c1.104,0,2,0.896,2,2S49.604,90.619,48.5,90.619z" fill="#783741" opacity="0.2"/><polygon fill="#F6E89A" points="73.067,74.4 66.477,71.003 62.572,77.304 61.119,70.035 53.757,70.911 58.535,65.242 53.26,60.032   60.671,60.233 61.456,52.861 65.919,58.781 72.172,54.798 70.327,61.978 77.339,64.383 70.575,67.417 "/><path d="M62.572,79.304c-0.118,0-0.237-0.011-0.356-0.032c-0.808-0.146-1.445-0.771-1.606-1.576l-1.09-5.457  l-5.527,0.658c-0.817,0.089-1.607-0.315-1.997-1.037c-0.39-0.723-0.298-1.61,0.231-2.238l3.587-4.256l-3.96-3.911  c-0.584-0.577-0.756-1.452-0.435-2.207c0.322-0.757,1.094-1.26,1.894-1.215l5.564,0.15l0.589-5.534  c0.087-0.816,0.664-1.496,1.455-1.716c0.791-0.218,1.636,0.068,2.131,0.724l3.351,4.444l4.694-2.99  c0.693-0.442,1.584-0.414,2.249,0.067c0.664,0.482,0.967,1.321,0.763,2.117l-1.385,5.391l5.264,1.805  c0.777,0.266,1.312,0.98,1.35,1.8c0.037,0.82-0.43,1.581-1.18,1.917l-5.078,2.277l1.78,4.988c0.145,0.277,0.227,0.593,0.227,0.927  c0,1.104-0.896,2-2,2c-0.006,0-0.013,0-0.021,0c-0.312,0-0.626-0.073-0.916-0.223l-4.947-2.55l-2.932,4.73  C63.903,78.953,63.256,79.304,62.572,79.304z M61.121,68.035c0.941,0,1.771,0.664,1.959,1.608l0.46,2.302l1.236-1.996  c0.55-0.887,1.689-1.204,2.617-0.724l2.087,1.075l-0.79-2.212c-0.351-0.982,0.113-2.069,1.065-2.497l2.142-0.96l-2.22-0.762  c-0.987-0.338-1.548-1.379-1.289-2.39l0.584-2.274l-1.98,1.262c-0.88,0.563-2.043,0.351-2.672-0.482l-1.413-1.875l-0.249,2.335  c-0.11,1.037-1.001,1.844-2.043,1.787l-2.348-0.063l1.671,1.65c0.743,0.733,0.796,1.914,0.124,2.712l-1.514,1.795l2.332-0.277  C60.963,68.04,61.042,68.035,61.121,68.035z" fill="#8D4520"/></svg>