<?xml version="1.0" encoding="UTF-8"?>
<svg width="32px" height="39px" viewBox="0 0 32 39" version="1.1" xmlns="http://www.w3.org/2000/svg" xmlns:xlink="http://www.w3.org/1999/xlink">
    <!-- Generator: Sketch 53.2 (72643) - https://sketchapp.com -->
    <title>MERN</title>
    <desc>Created with Sketch.</desc>
    <g id="MERN" stroke="none" stroke-width="1" fill="none" fill-rule="evenodd">
        <g id="mern-icon" transform="translate(0.000000, 4.000000)" fill="#939598" fill-rule="nonzero">
            <path d="M14.1923903,31.5613658 C14.1655935,31.5613658 14.1387967,31.560065 14.1117399,31.5572033 C13.0185366,31.444813 11.9352195,31.2169105 10.8922276,30.8797399 C10.4819512,30.7470569 10.2569105,30.3073821 10.3895935,29.8971057 C10.5220163,29.4870895 10.9616911,29.2615284 11.3722276,29.3944716 C12.3114146,29.6978212 13.2867642,29.9030895 14.2714797,30.0042927 C14.7002276,30.0482601 15.0121626,30.4317399 14.9681951,30.8604878 C14.9265691,31.2624391 14.5875772,31.5613658 14.1923903,31.5613658 Z M17.3159025,31.5587642 C16.9212358,31.5587642 16.5827642,31.2606179 16.5406179,30.8594471 C16.4958699,30.4306992 16.8067642,30.0466992 17.2355122,30.0019512 C18.2197073,29.8989268 19.1942764,29.6918374 20.1324228,29.3864065 C20.5429593,29.2532033 20.9826342,29.4772033 21.1160975,29.8869593 C21.2495609,30.2967154 21.0253008,30.7374309 20.6155447,30.8706342 C19.5733333,31.2101463 18.4907967,31.4401301 17.3978537,31.5543415 C17.3705366,31.5574634 17.3432195,31.5587642 17.3159025,31.5587642 Z M8.27473171,29.6486504 C8.14256909,29.6486504 8.00832524,29.6148292 7.88552844,29.544065 C6.93645529,28.9966829 6.04097561,28.3467967 5.22380488,27.6126179 C4.90328455,27.3246179 4.87674797,26.8310895 5.16500813,26.5105691 C5.45300813,26.1900488 5.94679675,26.1637724 6.26705691,26.4515122 C7.00357724,27.1131057 7.8106016,27.6987317 8.66549593,28.1917399 C9.03882924,28.4071545 9.16708945,28.8842927 8.95167476,29.2578862 C8.80702436,29.5084228 8.54452029,29.6486504 8.27473171,29.6486504 Z M23.2293984,29.6343415 C22.9598699,29.6343415 22.6981463,29.4946342 22.5532358,29.244878 C22.3373008,28.8718049 22.4645203,28.3941463 22.8373333,28.1782114 C23.691187,27.6836423 24.4969105,27.0967154 25.2321301,26.4335609 C25.5521301,26.1445203 26.0456585,26.1700163 26.3344391,26.4905366 C26.6232195,26.8102764 26.5977236,27.304065 26.2777236,27.5925854 C25.4618537,28.3283252 24.5676748,28.9797724 23.6199025,29.5287154 C23.4965854,29.6002601 23.3620813,29.6343415 23.2293984,29.6343415 Z M3.6500813,25.4925529 C3.40943089,25.4925529 3.17190244,25.3814634 3.01918699,25.1725529 C2.37138212,24.2853984 1.81593496,23.3285203 1.36793496,22.3284553 C1.19180488,21.9348292 1.36793496,21.4733008 1.76104065,21.2969105 C2.15388618,21.1210407 2.61593496,21.2969105 2.7923252,21.6902764 C3.1958374,22.5909593 3.69613008,23.4526179 4.2796748,24.2518374 C4.53385366,24.6001951 4.45788618,25.0885203 4.10952846,25.3424391 C3.97086179,25.4439025 3.80982114,25.4925529 3.6500813,25.4925529 Z M27.8457236,25.4701788 C27.6865041,25.4701788 27.5259837,25.4215284 27.3873171,25.3208455 C27.0386992,25.067187 26.9616911,24.579122 27.2150895,24.2307642 C27.7973333,23.4305041 28.2963252,22.5672846 28.6980163,21.6658212 C28.8733658,21.2716748 29.334374,21.0947642 29.7285203,21.270374 C30.1221463,21.4459837 30.2990569,21.907252 30.1237073,22.300878 C29.6775284,23.3022439 29.1236423,24.2604228 28.4773984,25.148878 C28.3246829,25.3590895 28.0868943,25.4701788 27.8457236,25.4701788 Z M1.10933333,19.8189268 C0.749008131,19.8189268 0.425105691,19.5676097 0.346796748,19.2010407 C0.118894309,18.1333333 0.00234146342,17.0331057 0.000260162601,15.9315772 C-0.000520325203,15.5004878 0.348097561,15.1503089 0.779186989,15.1495284 C0.779707316,15.1495284 0.780227644,15.1495284 0.780747971,15.1495284 C1.21105691,15.1495284 1.56045529,15.4981463 1.56123577,15.9284553 C1.56305691,16.9217561 1.6681626,17.9132358 1.87343089,18.8753171 C1.96344716,19.2967805 1.69443903,19.7114797 1.27297561,19.8014959 C1.2180813,19.8129431 1.16318699,19.8189268 1.10933333,19.8189268 Z M30.3765854,19.7903089 C30.3229919,19.7903089 30.268878,19.7848455 30.2145041,19.7733984 C29.7927805,19.6841626 29.5229919,19.2699837 29.6122276,18.8482601 C29.8156748,17.8856585 29.9186992,16.8939187 29.9186992,15.900878 L29.9186992,15.848065 C29.9158374,15.4172358 30.2628943,15.0652358 30.6939837,15.062374 C30.6955447,15.062374 30.6973658,15.062374 30.699187,15.062374 C31.1276748,15.062374 31.476813,15.4083903 31.4794146,15.8376585 L31.4794146,15.9058212 C31.4794146,17.0021463 31.3649431,18.1021138 31.139122,19.1708618 C31.0618537,19.5382114 30.7374309,19.7903089 30.3765854,19.7903089 Z M1.09892683,13.6013008 C1.04585366,13.6013008 0.99226016,13.5955772 0.938146342,13.5846504 C0.516162601,13.4961951 0.245853658,13.0825366 0.33404878,12.660813 C0.559089431,11.5860813 0.898601629,10.5321626 1.34347967,9.52871542 C1.51804878,9.13482924 1.97879675,8.95635775 2.37320325,9.13144713 C2.76734959,9.30601629 2.94504065,9.76702436 2.77047154,10.1611708 C2.3700813,11.0644553 2.06439025,12.0130081 1.86198374,12.9802927 C1.78497561,13.3484228 1.46055284,13.6013008 1.09892683,13.6013008 Z M30.3627967,13.5162276 C30.0029919,13.5162276 29.6796097,13.2659512 29.6005203,12.8999025 C29.3923903,11.9339187 29.0812358,10.987187 28.6756423,10.0867642 C28.4987317,9.69365855 28.6738212,9.23160975 29.0666667,9.0546992 C29.4600325,8.87752844 29.9218212,9.05287804 30.0987317,9.44572356 C30.5493333,10.4465691 30.8950895,11.4981463 31.126374,12.5713171 C31.2171708,12.9927805 30.9492033,13.408 30.5277399,13.4985366 C30.4725854,13.5105041 30.4174309,13.5162276 30.3627967,13.5162276 Z M3.61547967,7.91596749 C3.45678049,7.91596749 3.29652033,7.86783738 3.15837399,7.76767476 C2.80923577,7.51479673 2.73118699,7.02673171 2.98406504,6.67785366 C3.62744716,5.78965854 4.36604878,4.96598374 5.17957724,4.22946342 C5.49879675,3.94042276 5.99258537,3.96487805 6.28188618,4.28435772 C6.57118699,4.6038374 6.54673171,5.09736585 6.22699187,5.38666667 C5.49385366,6.05060163 4.82809756,6.79284553 4.24819512,7.59336582 C4.09573984,7.80383738 3.85743089,7.91596749 3.61547967,7.91596749 Z M27.8137236,7.84676422 C27.5733333,7.84676422 27.3365854,7.73619513 27.1836097,7.52754473 C26.5995447,6.73066667 25.9298862,5.99206504 25.1925854,5.33229268 C24.8715447,5.04481301 24.8442276,4.55154471 25.1317073,4.23024391 C25.419187,3.90920325 25.9124553,3.88162601 26.2337561,4.16936585 C27.0517073,4.90146342 27.7947317,5.72097561 28.4427967,6.60500813 C28.6974959,6.95284553 28.6223089,7.44117076 28.2747317,7.69586989 C28.1352846,7.79785367 27.9737236,7.84676422 27.8137236,7.84676422 Z M8.22686182,3.74321951 C7.95811382,3.74321951 7.69639025,3.60429268 7.55147971,3.35505691 C7.33476422,2.98250407 7.46094305,2.50484553 7.83349593,2.28813008 C8.78282924,1.73554471 9.79278051,1.28234146 10.8347317,0.940747971 C11.2444878,0.805983738 11.6854634,1.02972358 11.8194471,1.43921951 C11.9536911,1.84871545 11.7304716,2.28969105 11.3209756,2.42393496 C10.3828292,2.73144716 9.47382116,3.13964228 8.61866669,3.63733333 C8.49508945,3.70913821 8.36006502,3.74321951 8.22686182,3.74321951 Z M23.1786667,3.70029268 C23.0467642,3.70029268 22.9133008,3.66699187 22.7907642,3.5964878 C21.9330081,3.10373984 21.0211382,2.70074797 20.0811708,2.39869919 C19.6706342,2.26679675 19.4450732,1.82712195 19.5767154,1.41684553 C19.7086179,1.00656911 20.1477724,0.780747971 20.5585691,0.912390247 C21.6028618,1.248 22.6154146,1.69547967 23.5681301,2.24260163 C23.9419837,2.45723577 24.0710244,2.93437399 23.8563903,3.30822764 C23.712,3.55980488 23.4489756,3.70029268 23.1786667,3.70029268 Z M14.132813,1.80734959 C13.7389268,1.80734959 13.4004553,1.50998374 13.3577886,1.1095935 C13.312,0.681105691 13.622374,0.296585366 14.051122,0.250796748 C15.1346992,0.135024391 16.2536585,0.131902439 17.3377561,0.241430895 C17.7665041,0.284617886 18.0792195,0.667577236 18.0360325,1.0963252 C17.9925854,1.52507317 17.6104065,1.83674797 17.1811382,1.79460163 C16.2039675,1.696 15.1937561,1.69912195 14.2168455,1.80292683 C14.1884878,1.80578862 14.1606504,1.80734959 14.132813,1.80734959 Z" id="Shape"></path>
            <path d="M14.2022764,27.2062439 C14.1780813,27.2062439 14.153626,27.2046829 14.1289105,27.2010407 C13.0500163,27.0485854 12.0010407,26.742374 11.011122,26.2909919 C10.7496585,26.1718374 10.6344065,25.8632846 10.7535609,25.6018212 C10.8727154,25.3406179 11.1810081,25.2245854 11.4427317,25.3445203 C12.3421138,25.7542764 13.2948292,26.0323903 14.2746016,26.1707967 C14.5592195,26.2108618 14.7572033,26.4741463 14.7171382,26.7587642 C14.6801951,27.0184065 14.4574959,27.2062439 14.2022764,27.2062439 Z M17.3000325,27.2028618 C17.0453333,27.2028618 16.8228943,27.0158049 16.7856911,26.7564228 C16.7448455,26.4718049 16.9423089,26.2082601 17.2266667,26.1674146 C18.2059187,26.0269268 19.1581138,25.7469919 20.0564553,25.3351545 C20.3179187,25.2149593 20.6264716,25.3302114 20.7461463,25.5914146 C20.8658212,25.8526179 20.7510895,26.1614309 20.4898862,26.2811057 C19.500748,26.7343089 18.4525529,27.0426016 17.3744391,27.1971382 C17.3494634,27.2010407 17.3244878,27.2028618 17.3000325,27.2028618 Z M8.61840647,24.6641951 C8.4979512,24.6641951 8.37671542,24.6225691 8.27837396,24.5374959 C7.4546992,23.8254309 6.73769105,23.0012358 6.14764228,22.088065 C5.99154471,21.8466342 6.06100813,21.5245529 6.30217886,21.3684553 C6.54334959,21.2126179 6.86569105,21.2815609 7.02152846,21.5229919 C7.55824393,22.3531708 8.2099512,23.1026992 8.95895935,23.7505041 C9.17619513,23.9386016 9.20013011,24.2669268 9.01229265,24.4844228 C8.90952844,24.6030569 8.76435775,24.6641951 8.61840647,24.6641951 Z M22.8779187,24.649626 C22.7322276,24.649626 22.5875772,24.5890081 22.484813,24.4706342 C22.2964553,24.2533984 22.3196097,23.924813 22.5365854,23.7364553 C23.2842927,23.0876097 23.9344391,22.3367805 24.4693333,21.5055609 C24.6246504,21.2638699 24.9464716,21.193626 25.1884228,21.3494634 C25.4301138,21.5050407 25.5000975,21.8268618 25.3445203,22.0685529 C24.7560325,22.9830244 24.0408455,23.8085203 23.2187317,24.5226667 C23.1203903,24.6077399 22.9988943,24.649626 22.8779187,24.649626 Z M5.29092683,19.510374 C5.06614634,19.510374 4.85905691,19.3636423 4.79219512,19.1373008 C4.48572358,18.0982114 4.32910569,17.0169756 4.32676423,15.9242927 C4.32624391,15.6370732 4.55882927,15.4034471 4.84604878,15.4029268 C4.84630895,15.4029268 4.84682927,15.4029268 4.84708943,15.4029268 C5.13404878,15.4029268 5.36689431,15.635252 5.36741463,15.9222114 C5.36949593,16.9157724 5.51180488,17.8986667 5.79017886,18.8425366 C5.87160975,19.1183089 5.71395122,19.4076097 5.43843903,19.4887805 C5.38926829,19.5033496 5.3398374,19.510374 5.29092683,19.510374 Z M26.1949919,19.4885203 C26.1466016,19.4885203 26.0974309,19.4817561 26.0485203,19.467187 C25.772748,19.3862764 25.6148292,19.0972358 25.6954797,18.8217236 C25.9720325,17.8778537 26.1125203,16.8954797 26.1125203,15.900878 L26.1125203,15.8563903 C26.1125203,15.5691708 26.345626,15.336065 26.6328455,15.336065 C26.920065,15.336065 27.1531708,15.5691708 27.1531708,15.8563903 L27.1531708,15.8964553 C27.1531708,16.9943415 26.9988943,18.0753171 26.6942439,19.1141463 C26.6276423,19.3412683 26.4200325,19.4885203 26.1949919,19.4885203 Z M5.27895935,13.3754797 C5.23082927,13.3754797 5.1819187,13.3687154 5.13352846,13.3546667 C4.85749593,13.2742764 4.69879675,12.9854959 4.77918699,12.7097236 C5.08279675,11.6654309 5.53495935,10.6708292 6.12292683,9.75323578 C6.27798374,9.51154473 6.60006504,9.44104065 6.84175609,9.59583738 C7.08370732,9.75089433 7.15421138,10.0727154 6.99915447,10.3146667 C6.46504065,11.1482276 6.05424391,12.0520325 5.77847154,13.0003252 C5.71213008,13.2277073 5.50426016,13.3754797 5.27895935,13.3754797 Z M26.1819837,13.3114797 C25.9577236,13.3114797 25.7506342,13.1650081 25.6835122,12.939187 C25.4020163,11.9929756 24.9860163,11.0917724 24.4464391,10.260813 C24.2900813,10.0196423 24.3585041,9.69756095 24.5996748,9.54094305 C24.8411057,9.38458538 25.163187,9.45326829 25.3195447,9.69417884 C25.9132358,10.6089105 26.3713821,11.6006504 26.6809756,12.6423415 C26.7629268,12.9178537 26.6060488,13.2076748 26.3305366,13.2893658 C26.2811057,13.3044553 26.2311545,13.3114797 26.1819837,13.3114797 Z M8.58536582,8.2073496 C8.44019513,8.2073496 8.29580487,8.14699185 8.19304065,8.02887804 C8.00416262,7.81216262 8.02653658,7.48357724 8.243252,7.2946992 C9.06484553,6.57847154 9.98191869,5.98452033 10.9684553,5.52975609 C11.2299187,5.40930081 11.5387317,5.52377236 11.6586667,5.78445529 C11.7788618,6.04539837 11.6649105,6.35447154 11.4039675,6.47466667 C10.5074471,6.88780488 9.67388618,7.42764225 8.92695935,8.07882924 C8.82861789,8.16520327 8.7066016,8.2073496 8.58536582,8.2073496 Z M22.8438374,8.16390247 C22.7236423,8.16390247 22.6029268,8.12253658 22.5045854,8.03798371 C21.7537561,7.39121949 20.9170732,6.85658537 20.0176911,6.44891057 C19.7559675,6.33027642 19.639935,6.02172358 19.7585691,5.76026016 C19.8772033,5.49827642 20.1857561,5.38250407 20.4472195,5.50113821 C21.436878,5.9499187 22.3573333,6.53788618 23.1836097,7.24943089 C23.4013658,7.43700815 23.4258212,7.76559353 23.2385041,7.9833496 C23.1354797,8.10250407 22.9900488,8.16390247 22.8438374,8.16390247 Z M14.156748,5.64266667 C13.9025691,5.64266667 13.6801301,5.45613008 13.6424065,5.19726829 C13.6010407,4.91291057 13.7979837,4.64884553 14.0823415,4.60747967 C15.1479675,4.4521626 16.2583415,4.44852033 17.3278699,4.5975935 C17.6124878,4.63713821 17.8109919,4.9001626 17.7714471,5.18478049 C17.7319025,5.46939837 17.4691382,5.66790244 17.1842601,5.62835772 C16.2122927,5.49307317 15.2013008,5.49619512 14.2321951,5.63720325 C14.2066992,5.64058537 14.1814634,5.64266667 14.156748,5.64266667 Z" id="Shape"></path>
            <path d="M15.7460813,22.6666667 C15.4588618,22.6666667 15.2262764,22.4340813 15.2257561,22.1468618 C15.2254959,21.8596423 15.4580813,21.6262764 15.7455609,21.6260163 C16.7516097,21.6249756 17.7404878,21.3596097 18.6057886,20.8582764 C18.8545041,20.7141463 19.1726829,20.7989593 19.316813,21.0476748 C19.4609431,21.2963903 19.3761301,21.6148292 19.1274146,21.7586992 C18.1044553,22.3513496 16.9355447,22.6653658 15.7468618,22.6666667 C15.7466016,22.6666667 15.7463415,22.6666667 15.7460813,22.6666667 Z M12.6238699,21.8349268 C12.5356748,21.8349268 12.4461788,21.8125529 12.3642276,21.7652033 C11.3381463,21.1733333 10.4811708,20.3186992 9.88591869,19.2944391 C9.74152844,19.0459837 9.82608131,18.7272846 10.0745366,18.5831545 C10.3227317,18.4385041 10.6414309,18.5233171 10.7858212,18.7717724 C11.2897561,19.6394146 12.0153496,20.3626667 12.8842927,20.864 C13.1332683,21.0076097 13.2186016,21.3255284 13.0749919,21.5745041 C12.9787317,21.7415284 12.8036423,21.8349268 12.6238699,21.8349268 Z M21.1496585,19.542374 C21.0612033,19.542374 20.9717073,19.52 20.8897561,19.4723903 C20.6407805,19.3285203 20.5559675,19.0103415 20.6998374,18.761626 C21.2001301,17.8963252 21.4647154,16.9069268 21.4647154,15.900878 L21.4647154,15.8740813 C21.4647154,15.5866016 21.6978212,15.3537561 21.9850407,15.3537561 C22.2722601,15.3537561 22.5053658,15.5868618 22.5053658,15.8740813 L22.5053658,15.900878 C22.5053658,17.0895609 22.1926504,18.2587317 21.6007805,19.2824716 C21.5042601,19.4492358 21.3294309,19.542374 21.1496585,19.542374 Z M9.49463418,16.4277073 C9.20741462,16.4277073 8.97456909,16.2013658 8.97456909,15.9138862 L9.49489433,15.9138862 L8.97456909,15.9110244 C8.97430895,14.7166179 9.28468291,13.5516097 9.87186989,12.531252 C10.0149593,12.2820163 10.3331382,12.1964228 10.582374,12.3397724 C10.8313496,12.483122 10.9172033,12.8010407 10.7738537,13.0500163 C10.2774634,13.9127154 10.0149593,14.8984716 10.0149593,15.9006179 C10.0149593,16.1883577 9.78211382,16.4277073 9.49463418,16.4277073 Z M21.1376911,13.2776585 C20.9586992,13.2776585 20.7843903,13.1853008 20.6878699,13.0195772 C20.182374,12.1532358 19.4552195,11.4315447 18.5849756,10.9320325 C18.3357399,10.7889431 18.249626,10.4710244 18.3927154,10.2220488 C18.536065,9.97307316 18.8537236,9.88643905 19.1032195,10.0297886 C20.1308618,10.6195772 20.9896585,11.4721301 21.5867317,12.4956097 C21.7316423,12.7438049 21.6476097,13.0625041 21.3994146,13.2071545 C21.3169431,13.2547642 21.2266667,13.2776585 21.1376911,13.2776585 Z M12.6020163,11.0204878 C12.4227642,11.0204878 12.2484553,10.9281301 12.151935,10.7618862 C12.0072846,10.5136911 12.0915772,10.1949919 12.3397724,10.0506016 C13.3614309,9.45560975 14.5298212,9.139252 15.7182439,9.13560975 C15.7187642,9.13560975 15.7192846,9.13560975 15.7198049,9.13560975 C16.0065041,9.13560975 16.2393496,9.36741462 16.2401301,9.65437396 C16.2411708,9.94159353 16.0088455,10.1754797 15.7213658,10.1762601 C14.7155772,10.1796423 13.7272195,10.4470895 12.8632195,10.9502439 C12.7810081,10.9978537 12.6909919,11.0204878 12.6020163,11.0204878 Z" id="Shape"></path>
            <circle id="Oval" cx="4.29268292" cy="5.23421138" r="2.99186992"></circle>
            <path d="M4.29268292,8.74640647 C2.35603252,8.74640647 0.780487804,7.17086179 0.780487804,5.23421138 C0.780487804,3.29756097 2.35603252,1.72201626 4.29268292,1.72201626 C6.22933333,1.72201626 7.80487804,3.29756097 7.80487804,5.23421138 C7.80487804,7.17086179 6.22933333,8.74640647 4.29268292,8.74640647 Z M4.29268292,2.76266667 C2.92995122,2.76266667 1.82113821,3.87147967 1.82113821,5.23421138 C1.82113821,6.59694309 2.92995122,7.70575607 4.29268292,7.70575607 C5.65541463,7.70575607 6.76422764,6.59694309 6.76422764,5.23421138 C6.76422764,3.87147967 5.65541463,2.76266667 4.29268292,2.76266667 Z" id="Shape"></path>
            <path d="M1.82113821,6.27486179 C1.5339187,6.27486179 1.30081301,6.04175609 1.30081301,5.75453658 C1.30081301,3.81788618 2.87635772,2.24234146 4.81300813,2.24234146 C5.10022764,2.24234146 5.33333333,2.47518699 5.33333333,2.76266667 C5.33333333,3.05014634 5.10022764,3.28299187 4.81300813,3.28299187 C3.45027642,3.28299187 2.34146342,4.39180488 2.34146342,5.75453658 C2.34146342,6.04175609 2.10835772,6.27486179 1.82113821,6.27486179 Z" id="Path" opacity="0.2"></path>
            <circle id="Oval" cx="25.3658537" cy="20.3236423" r="2.21138212"></circle>
            <path d="M25.3658537,23.0553496 C23.8595122,23.0553496 22.6341463,21.8299837 22.6341463,20.3236423 C22.6341463,18.8173008 23.8595122,17.591935 25.3658537,17.591935 C26.8721951,17.591935 28.0975609,18.8173008 28.0975609,20.3236423 C28.0975609,21.8299837 26.8721951,23.0553496 25.3658537,23.0553496 Z M25.3658537,18.6325854 C24.4334309,18.6325854 23.6747967,19.3912195 23.6747967,20.3236423 C23.6747967,21.256065 24.4334309,22.0146992 25.3658537,22.0146992 C26.2982764,22.0146992 27.0569105,21.256065 27.0569105,20.3236423 C27.0569105,19.3912195 26.2982764,18.6325854 25.3658537,18.6325854 Z" id="Shape"></path>
            <path d="M24.7154471,22.4049431 C24.4282276,22.4049431 24.195122,22.1718374 24.195122,21.8846179 C24.195122,21.5973984 24.4282276,21.3642927 24.7154471,21.3642927 C25.6478699,21.3642927 26.4065041,20.6056585 26.4065041,19.6732358 C26.4065041,19.3860163 26.6396097,19.1529105 26.9268292,19.1529105 C27.2140488,19.1529105 27.4471545,19.3860163 27.4471545,19.6732358 C27.4471545,21.1795772 26.2217886,22.4049431 24.7154471,22.4049431 Z" id="Path" opacity="0.2"></path>
            <circle id="Oval" cx="11.3170732" cy="20.8439675" r="1.69105691"></circle>
            <path d="M11.3170732,23.0553496 C10.0976911,23.0553496 9.10569105,22.0630895 9.10569105,20.8439675 C9.10569105,19.6245854 10.0976911,18.6325854 11.3170732,18.6325854 C12.5364553,18.6325854 13.5284553,19.6245854 13.5284553,20.8439675 C13.5284553,22.0630895 12.5364553,23.0553496 11.3170732,23.0553496 Z M11.3170732,19.6732358 C10.6716097,19.6732358 10.1463415,20.1985041 10.1463415,20.8439675 C10.1463415,21.4894309 10.6716097,22.0146992 11.3170732,22.0146992 C11.9625366,22.0146992 12.4878049,21.4894309 12.4878049,20.8439675 C12.4878049,20.1985041 11.9625366,19.6732358 11.3170732,19.6732358 Z" id="Shape"></path>
            <path d="M11.5772358,22.5350244 C10.3578537,22.5350244 9.36585367,21.5427642 9.36585367,20.3236423 C9.36585367,20.0364228 9.59895935,19.8033171 9.88617884,19.8033171 C10.1733984,19.8033171 10.4065041,20.0364228 10.4065041,20.3236423 C10.4065041,20.9691057 10.9317724,21.494374 11.5772358,21.494374 C11.8644553,21.494374 12.0975609,21.7274797 12.0975609,22.0146992 C12.0975609,22.3019187 11.8644553,22.5350244 11.5772358,22.5350244 Z" id="Path" opacity="0.2"></path>
            <polygon id="Path" points="17.9686504 18.3154471 16.2541788 17.4316748 15.2382439 19.0709593 14.8602276 17.1798374 12.9449105 17.4077399 14.1879675 15.932878 12.8156097 14.5774309 14.7436748 14.6297236 14.9479025 12.7118049 16.1090081 14.2519675 17.7358049 13.2157399 17.2558049 15.0837073 19.080065 15.7093984 17.3203252 16.4987317"></polygon>
            <path d="M15.2382439,19.5912846 C15.2075447,19.5912846 15.1765854,19.5884228 15.145626,19.5829593 C14.9354146,19.5449756 14.7696911,19.382374 14.7278049,19.1729431 L14.4442276,17.7532358 L13.0063089,17.9244228 C12.7937561,17.9475772 12.5882276,17.8424716 12.4867642,17.6546342 C12.3853008,17.4665366 12.4092358,17.2357724 12.5468618,17.0723903 L13.480065,15.9651382 L12.4498212,14.9476423 C12.2978862,14.7975284 12.2531382,14.5698862 12.3366504,14.3734634 C12.4204228,14.1765203 12.6212683,14.0456585 12.8293984,14.0573658 L14.2769431,14.0963903 L14.4301788,12.6566504 C14.452813,12.4443577 14.6029268,12.2674471 14.8087154,12.2102114 C15.0145041,12.1534959 15.2343415,12.2279025 15.363122,12.3985691 L16.2349268,13.5547317 L17.4561301,12.7768455 C17.6364228,12.6618537 17.8682276,12.6691382 18.0412358,12.7942764 C18.2139837,12.9196748 18.292813,13.1379512 18.2397399,13.3450407 L17.8794146,14.7475772 L19.2489105,15.2171708 C19.4510569,15.286374 19.5902439,15.4721301 19.6001301,15.6854634 C19.6097561,15.8987967 19.4882601,16.0967805 19.2931382,16.1841951 L17.9720325,16.7765854 L18.435122,18.0742764 C18.4728455,18.1463415 18.4941788,18.2285529 18.4941788,18.3154471 C18.4941788,18.6026667 18.2610732,18.8357724 17.9738537,18.8357724 C17.9722927,18.8357724 17.9704716,18.8357724 17.9683903,18.8357724 C17.8872195,18.8357724 17.8055284,18.8167805 17.7300813,18.7777561 L16.4430569,18.1143415 L15.6802601,19.3449105 C15.5845203,19.4999675 15.4161951,19.5912846 15.2382439,19.5912846 Z M14.860748,16.6595122 C15.1055609,16.6595122 15.3214959,16.8322601 15.3704065,17.0778537 L15.4900813,17.676748 L15.8116423,17.1574634 C15.9547317,16.9266992 16.2510569,16.8442276 16.4924878,16.9691057 L17.0354471,17.2487805 L16.8299187,16.6733008 C16.7386016,16.4178212 16.8593171,16.1350244 17.1069919,16.0236748 L17.6642601,15.7739187 L17.0866992,15.5756748 C16.8299187,15.4877399 16.6839675,15.2169105 16.7513496,14.9538862 L16.9032846,14.3622764 L16.3881626,14.6906016 C16.1592195,14.8370732 15.8566504,14.7819187 15.6930081,14.5652033 L15.3253984,14.0773984 L15.2606179,14.684878 C15.232,14.9546667 15.0001951,15.1646179 14.7291057,15.1497886 L14.1182439,15.1333984 L14.5529756,15.5626667 C14.7462764,15.7533658 14.760065,16.0606179 14.5852358,16.2682276 L14.1913496,16.7352195 L14.7980488,16.6631545 C14.8196423,16.660813 14.8401951,16.6595122 14.860748,16.6595122 Z" id="Shape"></path>
        </g>
    </g>
</svg>