<?xml version="1.0" encoding="UTF-8"?>
<svg width="44px" height="44px" viewBox="0 0 44 44" version="1.1" xmlns="http://www.w3.org/2000/svg" xmlns:xlink="http://www.w3.org/1999/xlink">
    <!-- Generator: Sketch 53.2 (72643) - https://sketchapp.com -->
    <title>Rust</title>
    <desc>Created with Sketch.</desc>
    <g id="Page-1" stroke="none" stroke-width="1" fill="none" fill-rule="evenodd">
        <g id="Rust" fill="#818181" fill-rule="nonzero">
            <polygon id="Rectangle" transform="translate(23.532519, 23.604538) rotate(-45.000000) translate(-23.532519, -23.604538) " points="21.4397115 21.5117302 25.6253263 21.5117302 25.6253263 25.697345 21.4397115 25.697345"></polygon>
            <rect id="Rectangle" x="13.371556" y="20.2844402" width="4.38979118" height="8.3712297"></rect>
            <polygon id="Rectangle-Copy" transform="translate(24.418413, 15.668141) rotate(90.000000) translate(-24.418413, -15.668141) " points="22.1214291 11.4825261 26.7153966 11.4825261 26.7153966 19.8537557 22.1214291 19.8537557"></polygon>
            <polygon id="Rectangle-Copy-2" transform="translate(28.092075, 28.165052) rotate(45.000000) translate(-28.092075, -28.165052) " points="25.9482234 23.928393 30.2359264 23.928393 30.2359264 32.4017109 25.9482234 32.4017109"></polygon>
            <polygon id="Path" points="0 17.6470961 0 31.1227342 11.7401392 28.6308209 11.7401392 20.2797269"></polygon>
            <polygon id="Path-Copy" transform="translate(24.423198, 5.921114) rotate(90.000000) translate(-24.423198, -5.921114) " points="18.5531286 -0.816705336 18.5531286 12.6589327 30.2932678 10.1670194 30.2932678 1.81592541"></polygon>
            <polygon id="Path-Copy-2" transform="translate(34.942467, 35.074663) rotate(-135.000000) translate(-34.942467, -35.074663) " points="29.0723971 28.3368439 29.0723971 41.8124819 40.8125363 39.3205686 40.8125363 30.9694745"></polygon>
        </g>
    </g>
</svg>