<?xml version="1.0" encoding="UTF-8"?>
<svg width="32px" height="39px" viewBox="0 0 32 39" version="1.1" xmlns="http://www.w3.org/2000/svg" xmlns:xlink="http://www.w3.org/1999/xlink">
    <!-- Generator: Sketch 53.2 (72643) - https://sketchapp.com -->
    <title>WooCommerce</title>
    <desc>Created with Sketch.</desc>
    <g id="WooCommerce" stroke="none" stroke-width="1" fill="none" fill-rule="evenodd">
        <g id="woocommerce" transform="translate(0.000000, 12.000000)" fill-rule="nonzero">
            <path d="M2.969875,0 L29.017125,0 C30.665625,0 32,1.334375 32,2.982875 L32,12.9255 C32,14.574 30.665625,15.908375 29.017125,15.908375 L19.67625,15.908375 L20.958375,19.048125 L15.31975,15.908375 L2.982875,15.908375 C1.3345,15.908375 0.000125,14.574 0.000125,12.9255 L0.000125,2.982875 C-0.013,1.3475 1.32125,0 2.969875,0 Z" id="Path" fill="#939598"></path>
            <path d="M1.82225,2.71875 C2.004375,2.4715 2.2775,2.3415 2.64175,2.3155 C3.30525,2.263375 3.6825,2.5755 3.7735,3.252 C4.17675,5.97075 4.619,8.27325 5.08725,10.159375 L7.936,4.735 C8.19625,4.240625 8.5215,3.9805 8.91175,3.9545 C9.484125,3.9155 9.83525,4.279625 9.978375,5.047125 C10.303625,6.777125 10.719875,8.247125 11.214125,9.495875 C11.552375,6.191875 12.12475,3.811375 12.93125,2.3415 C13.12625,1.97725 13.4125,1.795125 13.78975,1.769 C14.089,1.743125 14.362125,1.834125 14.60925,2.02925 C14.856375,2.224375 14.9865,2.4715 15.0125,2.77075 C15.0255,3.004875 14.9865,3.2 14.8825,3.395125 C14.375125,4.33175 13.95875,5.90575 13.620625,8.091 C13.2955,10.211375 13.178375,11.8635 13.256375,13.04725 C13.2825,13.37225 13.230375,13.6585 13.100375,13.90575 C12.944125,14.191875 12.710125,14.348 12.410875,14.374 C12.072625,14.4 11.7215,14.244 11.38325,13.89275 C10.1735,12.656875 9.210875,10.80975 8.5085,8.35125 C7.662875,10.01625 7.0385,11.265 6.63525,12.0975 C5.86775,13.5675 5.217375,14.322 4.671,14.361 C4.31975,14.387 4.020625,14.08775 3.7605,13.4635 C3.097125,11.759375 2.381625,8.46825 1.61425,3.59025 C1.562125,3.252 1.640125,2.95275 1.82225,2.71875 L1.82225,2.71875 Z M29.77675,4.761 C29.3085,3.9415 28.619,3.44725 27.6955,3.252 C27.44825,3.2 27.21425,3.174 26.993,3.174 C25.74425,3.174 24.729625,3.824375 23.936125,5.12525 C23.259625,6.230875 22.9215,7.453625 22.9215,8.7935 C22.9215,9.795125 23.129625,10.653625 23.545875,11.369125 C24.014125,12.188625 24.703625,12.682875 25.627125,12.878 C25.87425,12.930125 26.108375,12.956125 26.329625,12.956125 C27.591375,12.956125 28.606,12.30575 29.3865,11.004875 C30.062875,9.886125 30.401125,8.663375 30.401125,7.323625 C30.414125,6.309 30.193,5.463375 29.77675,4.761 L29.77675,4.761 Z M28.13775,8.36425 C27.955625,9.22275 27.630375,9.860125 27.149,10.289375 C26.771875,10.627625 26.420625,10.770625 26.0955,10.705625 C25.78325,10.640625 25.523,10.3675 25.328,9.860125 C25.17175,9.456875 25.093875,9.053625 25.093875,8.676375 C25.093875,8.35125 25.119875,8.026 25.184875,7.726875 C25.302,7.1935 25.523125,6.673125 25.87425,6.178875 C26.303625,5.541375 26.758875,5.281375 27.227125,5.372375 C27.539375,5.437375 27.799625,5.710625 27.994625,6.217875 C28.15075,6.621125 28.22875,7.024375 28.22875,7.401625 C28.22875,7.739875 28.20275,8.065 28.13775,8.364125 L28.13775,8.36425 Z M21.633625,4.761 C21.165375,3.9415 20.462875,3.44725 19.552375,3.252 C19.30525,3.2 19.071125,3.174 18.849875,3.174 C17.601125,3.174 16.5865,3.824375 15.793,5.12525 C15.116625,6.230875 14.778375,7.453625 14.778375,8.7935 C14.778375,9.795125 14.9865,10.653625 15.40275,11.369125 C15.871,12.188625 16.5605,12.682875 17.484,12.878 C17.73125,12.930125 17.96525,12.956125 18.1865,12.956125 C19.44825,12.956125 20.462875,12.30575 21.243375,11.004875 C21.919875,9.886125 22.258,8.663375 22.258,7.323625 C22.258,6.309 22.049875,5.463375 21.633625,4.761 L21.633625,4.761 Z M19.981625,8.36425 C19.7995,9.22275 19.47425,9.860125 18.993,10.289375 C18.61575,10.627625 18.2645,10.770625 17.93925,10.705625 C17.627125,10.640625 17.367,10.3675 17.17175,9.860125 C17.01575,9.456875 16.93775,9.053625 16.93775,8.676375 C16.93775,8.35125 16.96375,8.026 17.02875,7.726875 C17.145875,7.1935 17.367,6.673125 17.71825,6.178875 C18.1475,5.541375 18.60275,5.281375 19.071,5.372375 C19.38325,5.437375 19.6435,5.710625 19.8385,6.217875 C19.99475,6.621125 20.072625,7.024375 20.072625,7.401625 C20.08575,7.739875 20.046625,8.065 19.981625,8.364125 L19.981625,8.36425 Z" id="Shape" fill="#FFFFFF"></path>
        </g>
    </g>
</svg>