<svg width="24" height="24" viewBox="0 0 24 24" fill="none" xmlns="http://www.w3.org/2000/svg" role="img">
<path d="M13.1744 23.4627C13.7477 23.6418 13.7248 24 13.0826 24C6.24801 24 0.674805 18.6269 0.674805 12C0.674805 5.37313 6.22507 0 13.0826 0C13.7248 0 13.8624 0.335821 13.3349 0.492537C8.19748 1.92537 4.43614 6.53731 4.43614 12C4.43614 17.3955 8.10574 21.9627 13.1744 23.4627ZM6.77551 14.7985C6.75258 14.4851 6.72964 14.1493 6.72964 13.8134C6.72964 8.55224 11.1102 4.27612 16.4999 4.27612C21.5915 4.27612 23.1282 6.49254 23.3116 6.35821C23.5181 6.20149 21.4539 1.79104 15.4679 1.79104C10.0781 1.79104 5.69757 6.06716 5.69757 11.3284C5.69757 12.5373 5.92692 13.7015 6.36268 14.7761C6.54616 15.2239 6.82138 15.2463 6.77551 14.7985ZM10.8809 7.92537C13.4267 6.85075 16.6146 6.80597 19.7338 7.8806C21.8438 8.59701 23.0594 9.62687 23.1511 9.58209C23.3116 9.51493 21.9355 7.36567 19.4127 6.42537C16.3623 5.30597 13.1056 5.88806 10.7203 7.72388C10.468 7.92537 10.5598 8.0597 10.8809 7.92537Z" fill="white"/>
</svg>
