<?xml version="1.0" encoding="utf-8"?>
<!-- Generator: Adobe Illustrator 26.2.1, SVG Export Plug-In . SVG Version: 6.00 Build 0)  -->
<svg version="1.1" id="Layer_1" xmlns="http://www.w3.org/2000/svg" xmlns:xlink="http://www.w3.org/1999/xlink" x="0px" y="0px"
	 viewBox="0 0 265 108" style="enable-background:new 0 0 265 108;" xml:space="preserve">
<style type="text/css">
	.st0{fill:#FF9933;}
	.st1{fill:#009CDE;}
</style>
<g>
	<path class="st0" d="M263.9,56.2c0,3.1-2.5,5.6-5.6,5.6c-3.1,0-5.6-2.5-5.6-5.6c0-3.1,2.5-5.6,5.6-5.6
		C261.4,50.6,263.9,53.1,263.9,56.2"/>
	<path class="st0" d="M81.4,87.6l0.7,7.5h11.8l-4-43.4H72.3L50,95h12l3.7-7.5H81.4z M80.9,79.1H70.1l9.3-18.8h0.1L80.9,79.1z"/>
	<polygon class="st0" points="110.3,76 112.1,76 120.5,64.6 131.5,64.6 119.8,79.2 127,95 115.3,95 110.7,82.7 108.9,82.7 106.3,95 
		96.3,95 105.6,51.6 115.5,51.6 	"/>
	<g>
		<path class="st0" d="M147,95h10l4-19c2.2-10.5-1.8-11.8-12-11.8c-7.1,0-14-0.1-16,9.4h10c0.6-2.7,2.3-3.3,4.7-3.3
			c4.3,0,4.1,1.8,3.5,4.6l-1,4.8h-0.5c-0.4-3.5-4.7-3.4-7.6-3.4c-7.2,0-11.5,2.3-13,9.6c-1.6,7.7,2,9.4,9,9.4c3.5,0,8.1-0.7,9.8-4.9
			h0.3L147,95z M144.2,82.5c3.2,0,5.4,0.2,4.8,2.8c-0.7,3.2-2.1,3.7-6.2,3.7c-1.5,0-4.3,0-3.6-3.3C139.8,82.9,141.8,82.5,144.2,82.5
			"/>
		<path class="st0" d="M177,64.6l-0.9,4.3h0.4c2-3.6,5.9-4.6,9.3-4.6c4.3,0,8.5,0.7,7.9,6h0.5c1.5-4.3,5.9-6,9.7-6
			c7,0,10,2.9,8.5,10L208,95h-9.9l3.7-17.6c0.5-3.2,1.1-5.5-2.8-5.5c-3.9,0-5.2,2.6-5.9,5.8L189.5,95h-10l3.9-18.4
			c0.5-2.8,0.7-4.7-2.8-4.7c-4.1,0-5.3,2.2-6.1,5.8L170.9,95h-10l6.5-30.4H177z"/>
		<path class="st0" d="M230.9,95h10l4-19c2.2-10.5-1.8-11.8-12-11.8c-7.1,0-14-0.1-16,9.4h10c0.6-2.7,2.3-3.3,4.7-3.3
			c4.4,0,4.1,1.8,3.6,4.6l-1,4.8h-0.5c-0.4-3.5-4.7-3.4-7.6-3.4c-7.2,0-11.5,2.3-13,9.6c-1.6,7.7,2,9.4,9,9.4c3.5,0,8.1-0.7,9.8-4.9
			h0.3L230.9,95z M228.1,82.5c3.2,0,5.4,0.2,4.8,2.8c-0.7,3.2-2.1,3.7-6.2,3.7c-1.5,0-4.3,0-3.6-3.3
			C223.7,82.9,225.7,82.5,228.1,82.5"/>
	</g>
	<polygon class="st0" points="255.2,95 245.3,95 251.7,64.6 261.7,64.6 	"/>
</g>
<g>
	<path class="st1" d="M55.1,105.5c2.5,0.8,2.4,2.4-0.4,2.4c-29.8,0-54.1-24-54.1-53.6c0-29.6,24.2-53.6,54.1-53.6
		c2.8,0,3.4,1.5,1.1,2.2C33.4,9.3,17,29.9,17,54.3C17,78.4,33,98.8,55.1,105.5 M27.2,66.8c-0.1-1.4-0.2-2.9-0.2-4.4
		c0-23.5,19.1-42.6,42.6-42.6c22.2,0,28.9,9.9,29.7,9.3c0.9-0.7-8.1-20.4-34.2-20.4c-23.5,0-42.6,19.1-42.6,42.6
		c0,5.4,1,10.6,2.9,15.4C26.2,68.7,27.4,68.8,27.2,66.8 M45.1,36.1c11.1-4.8,25-5,38.6-0.2c9.2,3.2,14.5,7.8,14.9,7.6
		c0.7-0.3-5.3-9.9-16.3-14.1c-13.3-5-27.5-2.4-37.9,5.8C43.3,36.1,43.7,36.7,45.1,36.1"/>
</g>
</svg>
