<svg id="edugKZmyB8q1" xmlns="http://www.w3.org/2000/svg" xmlns:xlink="http://www.w3.org/1999/xlink" viewBox="0 0 719.656 293.2663" shape-rendering="geometricPrecision" text-rendering="geometricPrecision">
  <g clip-path="url(#edugKZmyB8q12)" class="akamai-logo-name">
    <g>
      <path d="M719.656,151.8506c0,8.4509-6.8525,15.2819-15.2729,15.2819-8.4437,0-15.2818-6.831-15.2818-15.2819c0-8.4276,6.8381-15.2658,15.2818-15.2658c8.4204,0,15.2729,6.8382,15.2729,15.2658" fill="#f93"/>
      <path d="M220.6006,237.7228l1.802,20.4002h32.3048L243.8331,139.4006h-48.1081L134.9032,258.123h32.9103l10.2081-20.4002h42.579Zm-1.4233-23.1344h-29.4885l25.3756-51.4319h.2946l3.8183,51.4319Z" fill="#f93"/>
      <polygon points="299.7479,206.2134 304.4805,206.2134 327.6005,175.0068 357.5337,175.0068 325.5932,214.9143 345.1915,258.1221 313.4009,258.1221 300.6355,224.3884 295.8779,224.3884 288.6933,258.1221 261.4996,258.1221 286.7074,139.4015 313.9474,139.4015 299.7479,206.2134" fill="#f93"/>
      <g>
        <path d="M399.97,258.1225h27.215l11.0332-51.9087c6.0488-28.6706-4.9147-32.1532-32.7513-32.1532-19.4393,0-38.2482-.166-43.7523,25.6472h27.2436c1.5448-7.4579,6.1577-9.0027,12.9798-9.0027c11.8422,0,11.3207,4.9148,9.6474,12.6316l-2.7628,13.1674h-1.2644c-1.0305-9.5027-12.9423-9.367-20.6734-9.367-19.6518,0-31.3583,6.1792-35.6355,26.149-4.4825,21.1789,5.6023,25.7829,24.5862,25.7829c9.5188,0,22.2486-1.877,26.7454-13.3263h.9323L399.97,258.1225Zm-7.5882-34.3481c8.8758,0,14.7281.6126,13.2601,7.5883-1.8716,8.6991-5.6273,10.1456-17.023,10.1456-4.1504,0-11.8583,0-9.9581-9.0259c1.6216-7.6329,7.0418-8.7081,13.721-8.7081" fill="#f93"/>
        <path d="M482.1311,175.007l-2.4913,11.7154h1.1126c5.3987-9.8152,16.1515-12.6619,25.4827-12.6619c11.7208,0,23.2915,2.0448,21.6789,16.3105h1.2733c3.9897-11.8494,16.1265-16.3105,26.5775-16.3105c19.1822,0,27.299,7.9204,23.2022,27.2616l-12.1172,56.8002h-27.199l10.2366-48.1297c1.3341-8.6705,2.8878-15.0319-7.7381-15.0319-10.5707,0-14.1443,7.065-16.0301,15.9712L516.07,258.1223h-27.2151l10.6993-50.3335c1.3108-7.6115,1.9305-12.8281-7.5632-12.8281-11.2386,0-14.5782,6.0203-16.6445,15.9712l-10.0724,47.1904h-27.2311l17.7053-83.1153h26.3828Z" fill="#f93"/>
        <path d="M629.3553,258.1225h27.2133l11.0421-51.9087c6.0809-28.6706-4.854-32.1532-32.6977-32.1532-19.5143,0-38.3465-.166-43.7773,25.6472h27.2382c1.5448-7.4579,6.2024-9.0027,12.9334-9.0027c11.9047,0,11.3135,4.9148,9.7456,12.6316l-2.8378,13.1674h-1.2733c-1.0144-9.5027-12.9102-9.367-20.643-9.367-19.6341,0-31.3959,6.1792-35.6284,26.149-4.4897,21.1789,5.5969,25.7829,24.588,25.7829c9.5116,0,22.2414-1.877,26.7543-13.3263h.9304l-3.5878,12.3798Zm-7.5435-34.3481c8.8151,0,14.7138.6126,13.253,7.5883-1.8323,8.6991-5.6202,10.1456-17.0463,10.1456-4.12,0-11.8671,0-9.9509-9.0259c1.6287-7.6329,7.0667-8.7081,13.7442-8.7081" fill="#f93"/>
      </g>
      <polygon points="695.8031,258.1224 668.6255,258.1224 686.2396,175.0072 713.4833,175.0072 695.8031,258.1224" fill="#f93"/>
    </g>
    <clipPath id="edugKZmyB8q12">
      <path id="edugKZmyB8q13" class="akamai-clip-path" d="M735.915418,124.788975L704.3831,277.486122l-569.4799-2.120795-9.06944-29.622629L188.3124,123.375109q549.01688.000007,547.603018,1.413866Z" transform="translate(.000001 0.000015)" fill="none" stroke="#3f5787" stroke-width="1.439312"/>
    </clipPath>
  </g>
  <path d="M148.7605,286.7924c6.8899,2.1056,6.5881,6.4739-.9769,6.4739C66.1759,293.2663,0,227.5973,0,146.6394C0,65.6815,66.1759,0,147.7836,0c7.565,0,9.2151,4.0736,2.9378,5.9059C89.3316,23.7095,44.4953,79.9811,44.4953,146.6394c0,65.9493,43.9059,121.728,104.2652,140.153M72.4908,180.9894c-.409-3.9379-.6054-7.9205-.6054-11.9423c0-64.2902,52.1299-116.4042,116.427-116.4042c60.7914,0,79.0414,27.133,81.3041,25.3614c2.4698-1.9538-22.0593-55.7341-93.4428-55.7341-64.306,0-116.4341,52.1141-116.4341,116.4043c0,14.8729,2.7859,29.0547,7.8596,42.1024c2.1431,5.4755,5.4363,5.5201,4.8916.2125m48.7663-83.8958c30.26-13.1905,68.2725-13.5924,105.6438-.5304c25.0953,8.7545,39.6412,21.2557,40.8306,20.7413c1.9842-.8554-14.5995-27.1169-44.5256-38.468-36.2337-13.7299-75.2642-6.5417-103.7044,15.7587-3.1289,2.4609-1.9466,4.1111,1.7555,2.4984" fill="#009cde"/>
  </svg>
