<svg enable-background="new 0 0 885.7 306.9" viewBox="0 0 885.7 306.9" xmlns="http://www.w3.org/2000/svg"><path d="m191.6 101.7-31.8-17.6-26.9 16.4-.3 16.8-13.1-8.6-17.8 10.8-.8-18.3-18.2-12.3 17.5-9c-.1 0 0 1.7-2.6-60l-41.3-19.9-56.3 17.5 12.6 60.5 18.9 14.6-14.4 6.8 9.4 45.6 13.2 12.4-9.4 5.7 7.3 35.3 29.6 31.3c.1-.2 3.1-2.5 38.1-30.3l-1-24 15 12.7c.2-.2 3.2-2.4 30.7-24.3l1.1-17.7 11.3 7.9c.2-.2 2.8-2.2 24.9-19.8z" fill="#231f20"/><path d="m165.2 120.6 26.4-18.9-31.8-17.6-26.9 16.4z"/><path d="m162.3 154.1 2.9-33.5-32.3-20.1-.7 32.8z" fill="#004b16"/><path d="m119.2 188.2v-34.7l-32.6-24.8 2.6 34.2z" fill="#004b16"/><path d="m119.2 153.5 32.7-23.5-32.4-21.3-32.9 20z"/><path d="m67.1 229.7-5.2-35.5-31.7-31.1 7.3 35.3z" fill="#004b16"/><path d="m61.9 194.2 41.8-29.8-32.4-26.4-41.1 25.1z"/><path d="m59.2 175.8-6.9-47-35.3-29.4 9.5 45.6z" fill="#004b16"/><path d="m52.3 128.8 48.7-27.6-36.3-24.4-47.7 22.6z"/><path d="m49 106.4-9.4-64.3-39.6-24.6 12.6 60.5z" fill="#004b16"/><path d="m39.6 42.1 57.9-22.2-41.2-19.9-56.3 17.5z"/><path d="m187.2 134.3c-24.5 19.4-25 19.8-24.9 19.8 3-35.1 2.8-33.5 2.9-33.5 28-20 26.2-18.9 26.4-18.9z" fill="#1cb35c"/><path d="m149.9 164c-30.3 24.1-30.8 24.3-30.7 24.3-.3-36.4-.1-34.8 0-34.8 34.9-25 32.6-23.5 32.7-23.5z" fill="#1cb35c"/><path d="m105.2 199.5c-37.8 30.1-38.2 30.3-38.1 30.3-5.4-36.6-5.2-35.5-5.2-35.5 44.5-31.7 41.7-29.8 41.8-29.8z" fill="#1cb35c"/><path d="m97.5 19.9c2.7 61.8 2.4 60 2.6 60-50.1 26-51.2 26.5-51.1 26.5-9.6-65.7-9.6-64.3-9.4-64.3z" fill="#1cb35c"/><path d="m101 101.2c2 46.8 1.7 45.2 1.9 45.2-43.3 29.1-43.8 29.4-43.7 29.4-7-48.2-7-47-6.9-47z" fill="#1cb35c"/><path d="m264.9 24.9 29-7v139.6c0 15.3 4.6 24.4 13.7 27.3-4.5 8.5-12.1 12.8-22.9 12.8-13.1 0-19.7-9.1-19.7-27.4v-145.3zm90.5 170.3v-124.1h-45.2v23.8h15.9v100.3zm-31.1-155.4c0 9.3 7.5 16.8 16.8 16.8s16.8-7.5 16.8-16.8-7.5-16.8-16.8-16.8-16.8 7.6-16.8 16.8zm164.1 155.4v-76.1c0-15.8-4.3-28.2-12.8-37s-20.2-13.3-34.9-13.3c-15.4 0-27.1 4.7-34.9 14l-5.2-11.6h-20.9v124h29v-89.7c3-3.8 6.9-6.7 11.3-8.9 4.3-2.1 8.9-3.5 13.6-3.6 9.2-.1 15.8 2.4 19.9 7.3s6.1 12.6 6.1 23.2v71.7zm31.2-15.3c10.5 11.8 25.1 17.7 44 17.7 18.5 0 33.1-5.8 43.7-17.5s16-27.4 15.9-47.2c0-19.8-5.3-35.5-15.7-46.9s-25.1-17.2-43.9-17.2c-17.9 0-32.4 5.9-43.3 17.8s-16.4 27.3-16.4 46.2c0 19.6 5.3 35.3 15.7 47.1zm22.4-76.8c5-6.9 13-10.8 21.5-10.6 19.6.4 29.4 13.5 29.4 40.4 0 13.1-2.7 23.2-7.9 30.3-5 6.9-13 10.8-21.5 10.7-19.7-.3-29.5-13.7-29.5-41 0-12.8 2.8-22.6 8-29.8zm207.4 92.1v-177.3l-29 7v49.7c-8-3.9-16.8-5.8-25.7-5.8-16.3-.1-31.8 6.5-42.8 18.5-11.3 12.4-17.1 28.3-17.1 47.9s5 34.9 14.9 45.9 23.5 16.5 40.8 16.5c6 0 12-1 17.7-3 5.8-2 9.8-4.3 12.2-6.9v7.5zm-28.9-29.6c-1.2 1.7-3.9 3.3-7.9 5-3.2 1.4-6.7 2.4-10.3 2.5-24.9.6-37.4-12.9-37.3-38.7 0-13.2 3.2-23.3 9.4-30.4s15.1-10.7 26.8-10.6c7.1.1 13.9 2.8 19.3 7.4zm165.2-39.6c.4-16.6-5.4-30.3-16.3-41s-25.4-16-43.3-16.1c-16.4-.1-32 6.5-43.5 18.2-12 12.2-18.1 28-18.1 47.5 0 19.9 5.5 35.4 16.5 46.4 11 11.1 26 16.6 44.9 16.6 20.2 0 35.5-4.1 45.7-12.4l-11.4-22.2c-6.9 6.9-16.9 10.3-30.1 10.3-10.6 0-19-2.7-25.3-8.2s-9.6-13.2-10.2-23.1h88.7c1.3-5.2 2.3-10.6 2.4-16zm-59.2-33c18.1 0 28.1 9.1 30.1 27.2h-61c4.1-18.1 14.4-27.2 30.9-27.2z" fill="#fff"/><g fill="#b2b2b2"><path d="m458.8 275.4c-.1.7-.3 1.3-.3 1.6-1.5 6.9-2.6 9.4-5.7 11.5-2.9 2-5.7 2.4-14.2 2.4-7 0-9.5-.6-11.9-2.6-1.5-1.3-2.4-3.9-2.4-6.8 0-2.4 1.3-10.7 2.7-17.5 1.3-6 2.2-8.8 3.6-10.9 2.1-3.3 5.4-5.4 9.6-6.2 2.2-.4 4.8-.5 9.8-.5 6.5 0 8.9.6 10.5 2.6 1 1.3 1.5 2.9 1.5 5.2 0 1.3-.2 2.8-.8 6.5h-6.2c.5-2.9.6-3.7.6-4.8 0-2.9-1.5-3.7-7.4-3.7-9.5 0-11.7 1-13.2 5.8-.6 2-1 3.6-2.3 10.8-1.3 6.9-1.7 9-1.7 11.4 0 4 1.7 4.9 9.1 4.9 9.8 0 10.8-.8 12.4-9.7z"/><path d="m467.5 290.5h-5.7l8.8-43.7h5.7z"/><path d="m503 261.3c1.3 1.1 2.2 3.2 2.2 5.7 0 2.6-.9 7.7-2 12.2-2.4 9.4-5.5 11.7-15.3 11.7-5.1 0-7.6-.5-9.2-1.8-1.4-1.1-2.2-3.3-2.2-6 0-3.2 1.5-11 3-15.4 1.4-4.1 3.8-6.5 7.3-7.5 1.6-.5 4-.7 7.1-.7 5.1 0 7.5.5 9.1 1.8zm-18.2 8.1c-1.2 3.8-2.4 10.3-2.4 12.5 0 3.4 1.2 4.2 6.3 4.2 5.2 0 7-1.2 8.2-5.6 1.2-4.2 2.2-10 2.2-12 0-3.3-1.2-4.1-6.3-4.1s-6.8 1-8 5z"/><path d="m532.6 290.5h-5.7l1.3-4.7-.1-.1c-2.2 3.5-5.4 5.1-10.4 5.1-5.4 0-8.2-2.2-8.2-6.5 0-1.2.1-2.6.4-4.1l4.1-20.4h5.7l-4 19.5c-.3 1.5-.4 2.6-.4 3.3 0 2.3 1.4 3.2 4.8 3.2 5.9 0 8-2.1 9.5-9l3.4-17.1h5.7z"/><path d="m565.5 290.5h-5.6l1.1-4.5-.1-.1c-2.2 3.5-5 4.9-9.9 4.9-6.4 0-9.4-2.4-9.4-7.3 0-2.8.8-7.8 2-12.6 2.1-8.3 5.7-11.5 13.3-11.5 5.1 0 7.5 1.4 8 4.5l.1-.1 3.5-17.2h5.7zm-15.7-20.6c-1.2 3.8-2.2 9.2-2.2 11.6 0 3.5 1.4 4.6 5.8 4.6 4.7 0 6.8-1.4 8-5.5 1.2-4 2.2-9.1 2.2-11.3 0-3.5-1.6-4.7-6.1-4.8-4.5 0-6.4 1.3-7.7 5.4z"/><path d="m625.7 275.4c-.1.7-.3 1.3-.3 1.6-1.5 6.9-2.6 9.4-5.7 11.5-2.9 2-5.7 2.4-14.2 2.4-7 0-9.5-.6-11.9-2.6-1.5-1.3-2.4-3.9-2.4-6.8 0-2.4 1.3-10.7 2.7-17.5 1.3-6 2.2-8.8 3.6-10.9 2.1-3.3 5.4-5.4 9.6-6.2 2.2-.4 4.8-.5 9.8-.5 6.5 0 8.9.6 10.5 2.6 1 1.3 1.5 2.9 1.5 5.2 0 1.3-.2 2.8-.8 6.5h-6.1c.5-2.9.6-3.7.6-4.8 0-2.9-1.5-3.7-7.4-3.7-9.5 0-11.7 1-13.2 5.8-.6 2-1 3.6-2.3 10.8-1.3 6.9-1.7 9-1.7 11.4 0 4 1.7 4.9 9.1 4.9 9.8 0 10.8-.8 12.4-9.7z"/><path d="m656.2 261.3c1.3 1.1 2.2 3.2 2.2 5.7 0 2.6-.9 7.7-2 12.2-2.4 9.4-5.5 11.7-15.3 11.7-5.1 0-7.6-.5-9.2-1.8-1.4-1.1-2.2-3.3-2.2-6 0-3.2 1.5-11 3-15.4 1.4-4.1 3.8-6.5 7.3-7.5 1.6-.5 4-.7 7.1-.7 5.1 0 7.6.5 9.1 1.8zm-18.1 8.1c-1.2 3.8-2.4 10.3-2.4 12.5 0 3.4 1.2 4.2 6.3 4.2 5.2 0 7-1.2 8.2-5.6 1.2-4.2 2.2-10 2.2-12 0-3.3-1.2-4.1-6.3-4.1-5.2 0-6.8 1-8 5z"/><path d="m673 259.9-1 4.7.1.1c2.4-3.7 5.3-5.1 10.1-5.1 5 0 7.7 1.9 7.7 5.4h.1c2.5-3.9 5.6-5.4 10.6-5.4 5.7 0 8.3 2 8.3 6.6 0 1.2-.1 2.3-.6 4.3l-4 20.1h-5.7l3.9-19.5c.2-1 .4-2.7.4-3.3 0-2.3-1.4-3.2-4.6-3.2-3.6 0-6.2 1.1-7.5 3-.7 1-1.2 2.8-1.7 5.2l-3.6 17.8h-5.7l3.9-19.5c.3-1.3.6-3.1.6-3.6 0-2-1.6-2.9-4.8-2.9-5.4 0-8 2.4-9.2 8.5l-3.5 17.6h-5.7l6.1-30.6h5.8z"/><path d="m723.8 259.9-1.2 4.3.1.1c2.3-3.5 5.1-4.8 10-4.8 6.4 0 9.3 2.4 9.3 7.7 0 2.9-.9 8.1-2.2 12.8-2.3 8.1-5.7 10.9-13 10.9-5.4 0-7.8-1.3-8.3-4.7l-.1.1-3.5 17.3h-5.7l8.8-43.7zm-1.3 9.3c-1.1 2.7-2.4 9.5-2.4 11.9 0 3.5 1.7 4.9 6.1 4.9 4.8 0 6.9-1.6 8.1-6.2 1-3.9 1.9-8.7 1.9-10.8 0-3.4-1.4-4.5-5.8-4.5-4.7-.1-6.5 1.1-7.9 4.7z"/><path d="m769.6 290.5h-5.7l1.3-4.7-.1-.1c-2.2 3.5-5.4 5.1-10.4 5.1-5.4 0-8.2-2.2-8.2-6.5 0-1.2.1-2.6.4-4.1l4.1-20.4h5.7l-4 19.5c-.3 1.5-.4 2.6-.4 3.3 0 2.3 1.4 3.2 4.8 3.2 5.9 0 8-2.1 9.5-9l3.4-17.1h5.7z"/><path d="m799.9 264.6h-11.1l-3.4 16.9c-.2 1-.3 1.9-.3 2.4 0 1.7.7 2.2 2.9 2.2 2.5 0 3.4-.7 4.2-2.9.4-1.2.7-2.4.9-4h4.9c-.9 4.6-1.2 5.9-2.2 7.5-1.9 3.1-4.5 4.3-9.3 4.3-5.1 0-7.5-1.6-7.5-5 0-1 .1-1.6.5-3.8l3.5-17.5h-3.9l1-4.7h3.8l1.4-7.1h5.7l-1.4 7.1h11.1z"/><path d="m806.1 290.5h-5.7l6.1-30.6h5.7zm7.6-38h-5.7l1.2-5.7h5.7z"/><path d="m825.9 259.9-1.1 4.7.1.1c2-3.5 5.2-5.2 10.2-5.2 5.9 0 8.9 2 8.9 5.8 0 1.3-.1 2-.6 4.8l-4.1 20.4h-5.7l3.8-18.9c.5-2.3.6-2.9.6-3.7 0-2.5-1.4-3.4-5.1-3.4-5.6 0-8.3 2.3-9.5 7.8l-3.6 18.3h-5.7l6.1-30.6z"/><path d="m871.8 291.8c-1.9 9.5-5.6 12.4-15.8 12.4-7 0-10.1-1.8-10.1-5.8 0-1.3.1-2.2.6-4.4h5.4c-.2 1.4-.3 1.8-.3 2.6 0 2.2 1.4 2.8 5.9 2.8 5.4 0 7.4-1.6 8.4-6.6l1.3-6.6h-.1c-1.9 3.2-4.8 4.6-9.9 4.6-6.1 0-9.2-2.6-9.2-7.7 0-2.6.8-7.3 2.1-12.3 1.4-5.3 3-7.9 6.1-9.6 1.9-1.1 4.4-1.6 7.5-1.6 5.1 0 7.2 1.4 8 5l.1-.1.7-4.6h5.7zm-15.7-21.5c-1 3.7-2 9.3-2 11.3 0 3.3 1.4 4.4 5.8 4.4 4.8 0 7.1-1.6 8.3-6 1-3.5 2-8.9 2-10.7 0-3.6-1.5-4.8-6.1-4.8-4.8-.1-6.8 1.5-8 5.8z"/><path d="m221.7 274.2h-11l9.5-19.1h.1zm.5 8.6.7 7.6h12l-4-44.2h-17.9l-22.6 44.2h12.3l3.8-7.6zm34.8-36.6h-10.2l-9.3 44.2h10.1l2.7-12.5h1.8l4.8 12.5h11.8l-7.3-16 11.9-14.9h-11.3l-8.6 11.6h-1.8zm29.1 31.4c3.3 0 5.5.3 5 2.8-.7 3.3-2.1 3.8-6.3 3.8-1.6 0-4.3 0-3.7-3.3.5-2.8 2.5-3.3 5-3.3zm2.8 12.8h10.1l4.1-19.3c2.3-10.6-1.8-11.9-12.2-11.9-7.2 0-14.2-.1-16.3 9.5h10.1c.6-2.8 2.3-3.3 4.8-3.3 4.4 0 4.2 1.8 3.6 4.7l-1 4.9h-.5c-.4-3.5-4.8-3.5-7.7-3.5-7.3 0-11.7 2.3-13.2 9.7-1.7 7.9 2.1 9.6 9.1 9.6 3.5 0 8.3-.7 9.9-5h.3zm20.9-30.9-6.6 30.9h10.1l3.7-17.5c.8-3.7 2-5.9 6.2-5.9 3.5 0 3.3 2 2.8 4.8l-4 18.7h10.1l3.7-17.5c.7-3.3 2-5.9 5.9-5.9s3.4 2.3 2.9 5.6l-3.8 17.9h10.2l4.5-21.1c1.6-7.2-1.5-10.1-8.6-10.1-3.9 0-8.4 1.6-9.9 6.1h-.5c.6-5.3-3.7-6.1-8.1-6.1-3.5 0-7.4 1-9.5 4.7h-.4l.9-4.4h-9.6zm61.6 18.1c3.3 0 5.5.3 5 2.8-.7 3.3-2.1 3.8-6.3 3.8-1.5 0-4.3 0-3.7-3.3.5-2.8 2.6-3.3 5-3.3zm2.8 12.8h10.1l4.1-19.3c2.3-10.6-1.8-11.9-12.2-11.9-7.2 0-14.3-.1-16.3 9.5h10.1c.6-2.8 2.3-3.3 4.8-3.3 4.4 0 4.2 1.8 3.6 4.7l-.9 4.9h-.5c-.4-3.5-4.8-3.5-7.7-3.5-7.3 0-11.7 2.3-13.2 9.7-1.7 7.9 2.1 9.6 9.1 9.6 3.5 0 8.3-.7 10-5h.3zm31.3-30.9h-10.1l-6.5 30.9h10.1zm-3.4-14.2c-3.1 0-5.7 2.5-5.7 5.7s2.5 5.7 5.7 5.7 5.7-2.5 5.7-5.7-2.6-5.7-5.7-5.7z"/></g></svg>