<svg enable-background="new 0 0 575.8 178.3" viewBox="0 0 575.8 178.3"><path d="m148.6 78.9-24.7-13.6-20.8 12.7-.3 13-10.1-6.7-13.8 8.4c-.2-3.9-.4-8.6-.6-14.2l-14.2-9.5c3.9-2 8.4-4.3 13.5-7-.1 0 .1 1.4-2-46.5l-32-15.4-43.6 13.6 9.7 46.9 14.6 11.4-11.1 5.3 7.3 35.3 10.2 9.6-7.3 4.5 5.7 27.3 22.9 24.3c.1-.1 2.4-1.9 29.5-23.5l-.8-18.6 11.7 9.9c.2-.2 2.4-1.9 23.7-18.8l.8-13.7 8.8 6.1c.1-.2 2.1-1.7 19.3-15.3z"/><path d="m128.1 93.5 20.5-14.6-24.7-13.6-20.8 12.7z" fill="#141414"/><path d="m125.8 119.5 2.3-26-25-15.5-.5 25.4z" fill="#004b16"/><path d="m92.6 146-.3-27-25.1-19.1 1.9 26.4z" fill="#004b16"/><path d="m92.3 119 25.5-18.2-25.1-16.5-25.5 15.6z" fill="#141414"/><path d="m52.1 178.2-4.1-27.6-24.6-24.1 5.7 27.4z" fill="#004b16"/><path d="m48 150.6 32.4-23.1-25.1-20.4-31.9 19.4z" fill="#141414"/><path d="m45.9 136.3-5.3-36.4-27.4-22.8 7.3 35.4z" fill="#004b16"/><path d="m40.6 99.9 37.7-21.4-28.2-18.9-36.9 17.5z" fill="#141414"/><path d="m38 82.5-7.3-49.9-30.7-19 9.7 46.9z" fill="#004b16"/><path d="m30.7 32.6 44.9-17.2-32-15.4-43.6 13.6z" fill="#141414"/><g fill="#1cb35c"><path d="m145.2 104.2c-19 15.1-19.4 15.4-19.3 15.4 2.4-27.2 2.2-26 2.3-26 21.8-15.5 20.4-14.6 20.5-14.6z"/><path d="m116.2 127.2c-23.5 18.7-23.8 18.8-23.7 18.8-.2-28.2-.3-27-.2-27 27.1-19.4 25.4-18.2 25.5-18.2z"/><path d="m81.6 154.7c-29.4 23.3-29.6 23.5-29.5 23.5-4.2-28.4-4.1-27.5-4-27.5 34.5-24.6 32.3-23.1 32.4-23.1z"/><path d="m75.6 15.4c2.1 47.9 1.9 46.5 2 46.5-38.8 20.2-39.7 20.6-39.6 20.6-7.5-51-7.4-49.9-7.3-49.9z"/><path d="m78.3 78.5c1.6 36.3 1.4 35.1 1.5 35.1-33.6 22.6-34 22.8-33.9 22.8-5.5-37.4-5.4-36.4-5.3-36.4z"/></g></svg>