<svg xmlns="http://www.w3.org/2000/svg" width="24" height="24" viewBox="0 0 24 24" fill="none">
  <path fill-rule="evenodd" clip-rule="evenodd" d="M4.0053 10.1059L4.00498 10.1034C4.00257 10.0839 3.99951 10.0579 3.99612 10.0256C3.98936 9.96103 3.98129 9.87144 3.97448 9.76032C3.96091 9.53856 3.95224 9.22841 3.96984 8.85868C4.00477 8.12529 4.14462 7.12389 4.58083 6.10608C5.02142 5.07804 5.76622 4.03163 6.99435 3.25009C8.21905 2.47073 9.85311 2 12 2C14.1468 2 15.7809 2.47073 17.0056 3.25009C18.2337 4.03163 18.9785 5.07804 19.4191 6.10608C19.8553 7.12389 19.9951 8.12529 20.0301 8.85868C20.0477 9.22841 20.039 9.53856 20.0254 9.76032C20.0186 9.87144 20.0106 9.96103 20.0038 10.0256C20.0004 10.0579 19.9973 10.0839 19.9949 10.1034L19.9946 10.1059C19.9935 10.1166 19.9923 10.1275 19.9909 10.1386L18.9964 19.5852C18.9948 19.6053 18.9926 19.6266 18.9896 19.649C18.982 19.7062 18.9694 19.7701 18.9497 19.8391C18.9098 19.9786 18.843 20.1318 18.7382 20.289C18.5273 20.6054 18.1908 20.8976 17.6971 21.1444C16.7382 21.6239 15.051 22 12 22C8.94888 22 7.26169 21.6239 6.30271 21.1444C5.80908 20.8976 5.47252 20.6055 5.26161 20.2891C5.1568 20.1319 5.08995 19.9787 5.05009 19.8392C5.03036 19.7702 5.01776 19.7063 5.01012 19.6491C5.00713 19.6267 5.00491 19.6054 5.00332 19.5852L4.00903 10.1387C4.0076 10.1275 4.00636 10.1166 4.0053 10.1059ZM6.2081 11.925L6.97615 19.2221C7.01835 19.2547 7.088 19.301 7.19712 19.3556C7.73818 19.6261 9.05103 20 12 20C14.9489 20 16.2617 19.6261 16.8027 19.3556C16.9118 19.301 16.9814 19.2547 17.0236 19.2222L17.7918 11.925C16.6445 12.2573 14.8488 12.5 11.9999 12.5C9.15106 12.5 7.35534 12.2574 6.2081 11.925ZM17.9399 8.11951C17.8708 7.72821 17.7585 7.30844 17.5808 6.89392C17.2714 6.17196 16.7662 5.46837 15.9318 4.93741C15.094 4.40427 13.8531 4 12 4C10.1468 4 8.90589 4.40427 8.0681 4.93741C7.23373 5.46837 6.72853 6.17196 6.41912 6.89392C6.24147 7.30842 6.12909 7.72818 6.06001 8.11948C7.19894 7.76453 9.02537 7.5 11.9999 7.5C14.9745 7.5 16.801 7.76455 17.9399 8.11951ZM17.2498 10C16.3918 9.74883 14.817 9.5 11.9999 9.5C9.18276 9.5 7.60801 9.74883 6.74999 10C7.60801 10.2512 9.18276 10.5 11.9999 10.5C14.817 10.5 16.3918 10.2512 17.2498 10ZM17.079 19.1727C17.0796 19.172 17.0799 19.1716 17.0799 19.1716L17.079 19.1727Z" fill="currentColor"/>
</svg>