<?xml version="1.0" encoding="UTF-8"?>
<svg xmlns="http://www.w3.org/2000/svg" xmlns:xlink="http://www.w3.org/1999/xlink" enable-background="new 0 0 123.1 125" viewBox="0 0 123.1 125">
   <linearGradient id="a">
      <stop offset="0" stop-color="#fff" />
      <stop offset="1" stop-color="#ceced6" />
   </linearGradient>
   <linearGradient id="b" gradientUnits="userSpaceOnUse" x1="24.1991" x2="101.9064" xlink:href="#a" y1="38.5737" y2="116.2811" />
   <linearGradient id="c" gradientUnits="userSpaceOnUse" x1="33.4811" x2="94.1451" y1="33.0914" y2="93.7554">
      <stop offset="0" stop-color="#1fa959" />
      <stop offset=".1767" stop-color="#239f56" />
      <stop offset=".4412" stop-color="#278e52" />
      <stop offset=".7591" stop-color="#2a754b" />
      <stop offset="1" stop-color="#2a6044" />
   </linearGradient>
   <linearGradient id="d" gradientUnits="userSpaceOnUse" x1="72.4477" x2="81.4486" xlink:href="#a" y1="93.9403" y2="93.9403" />
   <path d="m111.7 98.4c-.7-7.4-6.6-13.2-14-13.9 2.2-8.7 0-16.1-4.4-21.5 1.8-16.8 1.1-14.6 3-14.6 9.2 0 9.1-13.9-.1-13.9-66.5 0-71.4-2.5-71.4 6.9 0 3.7 2.5 6.9 8.3 6.9l1.9 18.9c-3 2.2-4.8 5.6-4.8 9.9-24.5.3-25.3 37-.7 38.3h68.4c-.1-.1 15.2-2.2 13.8-17z" fill="url(#b)" />
   <path d="m96 37c-66.1 0-68.9-1.8-68.9 4.4 0 4.8 5 4.4 8 4.4 6.2 56.3 5 57.5 9.7 57.5 39 0 41.3 1.3 41.8-3.5 6.5-62 4.5-53.9 9.5-53.9 5.9 0 5.8-8.9-.1-8.9z" fill="url(#c)" />
   <path d="m76.9 98.4c-2.5 0-4.5-2-4.5-4.5s2-4.5 4.5-4.5 4.5 2 4.5 4.5-2.1 4.5-4.5 4.5z" fill="url(#d)" />
   <g fill="none" stroke="#e6e6ea" stroke-linecap="round" stroke-miterlimit="10" stroke-width="2">
      <path d="m49 29.2-6.3-12.4" />
      <path d="m78.7 29.2 6.2-12.4" />
      <path d="m63.8 25.7v-12.5" />
   </g>
</svg>