<?xml version="1.0" encoding="UTF-8"?>
<svg xmlns="http://www.w3.org/2000/svg" xmlns:xlink="http://www.w3.org/1999/xlink" enable-background="new 0 0 128.3 127.1" viewBox="0 0 128.3 127.1">
   <linearGradient id="a" gradientUnits="userSpaceOnUse" x1="64.1672" x2="64.1672" y1="124.6929" y2="31.6854">
      <stop offset="0" stop-color="#c5c5cc" />
      <stop offset="1" stop-color="#fff" stop-opacity="0" />
   </linearGradient>
   <linearGradient id="b" gradientUnits="userSpaceOnUse" x1="22.727" x2="109.126" y1="35.937" y2="122.336">
      <stop offset="0" stop-color="#fff" />
      <stop offset="1" stop-color="#dedede" />
   </linearGradient>
   <linearGradient id="c" gradientUnits="userSpaceOnUse" x1="30.7232" x2="103.2375" y1="94.8309" y2="22.3166">
      <stop offset="0" stop-color="#2e6b4c" />
      <stop offset="1" stop-color="#1bb35e" />
   </linearGradient>
   <g clip-rule="evenodd" fill-rule="evenodd">
      <path d="m29.4 31.7c-4.4 0-8 3.6-8 7.9 0 4.4 3.6 7.9 8 7.9h1.6l2.4 21.7c-3.3 2.4-5.6 6.3-5.6 11.1v.3c-14.4.2-21.8 11.1-21.8 22v.2c0 10.6 6.9 21.1 20.9 21.9h79.3c.1-.1 16.2-2.3 16.2-17.3 0-.7 0-1.4-.1-2.2-.8-8.5-7.7-15.2-16.3-16 2.5-10 0-18.6-5.1-24.8l1.9-16.8h1.6c4.4 0 8-3.6 8-7.9 0-4.4-3.6-8.1-8.1-8.1h-74.9z" fill="url(#a)" />
      <path d="m30.6 31.3c-4.3 0-7.7 3.4-7.7 7.7 0 4.2 3.5 7.7 7.7 7.7h1.5l2.3 20.9c-3.2 2.4-5.4 6.1-5.4 10.7v.3c-13.9.1-21 10.7-21 21.2v.2c0 10.2 6.7 20.4 20.1 21.1h76.6c.1-.1 15.6-2.2 15.6-16.7 0-.7 0-1.4-.1-2.1-.8-8.2-7.4-14.7-15.7-15.4 2.4-9.7 0-17.9-5-23.9l1.8-16.2h1.5c4.3 0 7.7-3.4 7.7-7.7s-3.5-7.8-7.8-7.8z" fill="url(#b)" />
      <path d="m103.1 33.8h-72.3c-2.8 0-4.9 2.2-4.9 4.9s2.2 4.9 4.9 4.9h4l6.6 60.3c.1 2.2 2 4 4.3 4h42.4c2.2 0 4.1-1.7 4.4-3.9l6.6-60.3h4c2.8 0 4.9-2.2 4.9-4.9.1-2.6-2.1-5-4.9-5zm-22.1 68.3c-2.8 0-4.9-2.2-4.9-4.9s2.2-5 4.9-5c2.8 0 5 2.2 5 5-.1 2.7-2.3 4.9-5 4.9zm-30.6-76.2c-.4 0-.7-.2-.9-.5l-7-13.9c-.2-.5-.1-1.1.4-1.3s1.1-.1 1.3.4l7 13.9c.2.5.1 1.1-.4 1.3-.1.1-.2.1-.4.1zm33.1 0c-.2 0-.3 0-.5-.1-.5-.2-.7-.9-.4-1.3l7-13.9c.2-.5.9-.7 1.3-.4.5.2.7.9.4 1.3l-7 13.9c0 .3-.4.5-.8.5zm-16.5-3.9c-.6 0-1-.4-1-1v-14c0-.6.4-1 1-1s1 .4 1 1v14c0 .5-.5 1-1 1z" fill="url(#c)" />
   </g>
</svg>