<svg xmlns="http://www.w3.org/2000/svg" width="34" height="35" viewBox="0 0 34 35">
    <g fill="none" fill-rule="evenodd" stroke="#666" stroke-linecap="round" stroke-linejoin="round" stroke-width="1.5">
        <path d="M30.908 33.419H3.092a2.133 2.133 0 0 1-2.14-2.14v-8.558a2.133 2.133 0 0 1 2.128-2.14h11.781l.355.543a2.14 2.14 0 0 0 3.564-.003l.355-.544 11.773.004a2.133 2.133 0 0 1 2.14 2.14v8.558a2.133 2.133 0 0 1-2.128 2.14h-.012z"/>
        <path d="M5.232 27v2.14h4.28L9.51 27M24.49 27l-.001 2.14h4.28V27M13.79 27v2.14h6.42V27M5.232 20.582L5.23 22.72M9.511 20.58v2.14M24.489 20.58v2.14M28.768 20.582l.001 2.139"/>
        <g>
            <path d="M30.908 14.419H3.092a2.133 2.133 0 0 1-2.14-2.14V3.721A2.133 2.133 0 0 1 3.08 1.58h11.781l.355.543a2.14 2.14 0 0 0 3.564-.003l.355-.544 11.773.004a2.133 2.133 0 0 1 2.14 2.14v8.558a2.133 2.133 0 0 1-2.128 2.14h-.012z"/>
            <path d="M5.232 8v2.14h4.28L9.51 8M24.49 8l-.001 2.14h4.28V8M13.79 8v2.14h6.42V8M5.232 1.582L5.23 3.72M9.511 1.58v2.14M24.489 1.58v2.14M28.768 1.582l.001 2.139"/>
        </g>
    </g>
</svg>
