<svg width="50" height="50" viewBox="0 0 50 50" version="1.1" xmlns="http://www.w3.org/2000/svg" xmlns:xlink="http://www.w3.org/1999/xlink">
    <desc>One-Click Apps</desc>
    <defs>
        <circle id="path-1" cx="24" cy="24" r="24"></circle>
    </defs>
    <g id="ui-kit---1440" stroke="none" stroke-width="1" fill="none" fill-rule="evenodd">
        <g id="sticker-sheet" transform="translate(-267.000000, -93.000000)">
            <g id="create:dropdown" transform="translate(251.000000, 73.000000)">
                <g id="volume">
                    <g id="icon" transform="translate(16.000000, 20.000000)">
                        <g id="Oval-2">
                            <use fill="#F4F4F4" fill-rule="evenodd" xlink:href="#path-1" class="circle"></use>
                            <circle stroke="#F4F4F4" stroke-width="2" cx="24" cy="24" r="23" class="outerCircle"></circle>
                        </g>
                        <g fill="none" transform="translate(9.000000, 9.000000)" fill-rule="evenodd" stroke="#939598" stroke-linecap="round" stroke-linejoin="round" class="insidePath">
    <path d="M14.048,15.424 L17.6213333,27.332 C17.796,27.9173333 18.4133333,28.2506667 18.9986667,28.0746667 C19.1746667,28.0226667 19.3346667,27.9266667 19.464,27.7973333 L21.284,25.9773333 L25.98,30.6733333 C26.412,31.1053333 27.1133333,31.1053333 27.5453333,30.6733333 C27.5453333,30.6733333 27.5453333,30.6733333 27.5453333,30.6733333 L30.676,27.5426667 C31.108,27.1106667 31.108,26.4093333 30.676,25.9773333 C30.676,25.9773333 30.676,25.9773333 30.676,25.9773333 L25.98,21.2813333 L27.8,19.4666667 C28.232,19.0346667 28.232,18.3333333 27.8,17.9013333 C27.6706667,17.772 27.5106667,17.676 27.336,17.624 L15.4266667,14.0506667 C14.84,13.876 14.2226667,14.2106667 14.0493333,14.7973333 C13.988,15.0013333 13.988,15.22 14.048,15.424 Z"/>
    <path d="M28.964,14 C28.4133333,6.288 21.7146667,0.481333333 14.0026667,1.032 C6.29066667,1.58266667 0.484,8.28133333 1.03466667,15.9946667 C1.53066667,22.94 7.05466667,28.4653333 14,28.9613333"/>
    <path d="M22.4173333,12 C20.7613333,7.904 16.0986667,5.92533333 12.0013333,7.58266667 C7.904,9.24 5.92666667,13.9013333 7.584,17.9986667 C8.39733333,20.008 9.99066667,21.6026667 12,22.416"/>
  </g>
                    </g>
                </g>
            </g>
        </g>
    </g>
</svg>
