<svg enable-background="new 0 0 260 260" viewBox="0 0 260 260" xmlns="http://www.w3.org/2000/svg" xmlns:xlink="http://www.w3.org/1999/xlink">
  <clipPath id="a">
    <path d="m0 0 260.4.7v259.3h-260.4z" />
  </clipPath>
  <path id="background" d="m15.5 231c.1 7.7 6.5 13.9 14.2 13.8 1.5 0 3-.3 4.5-.8 14.9-5.2 30.6-7.4 46.4-7.3 37.1.2 73.1 11.4 111.5 11.4 39.4 0 57.5-5.9 57.5-47.8 0-37.7-13.6-61.4-13.6-76.8 0-16.1 7.1-33.1 7.1-48.9 0-40.2-71.4-63.6-111.4-63.6-48.7 0-75.4 29.3-75.4 58.8 0 11.3 2.4 22.9 2.4 34.3 0 49.4-43.2 85.9-43.2 126.6z" fill="currentColor" />
  <g fill="#00f279">
    <path d="m200.5 258.6c-1-.4-2-.6-3-.5-.6 0-1.1-.4-1.1-1 0-.2 0-.3.1-.5.4-1 .6-2 .5-3 0-.6.4-1.1 1-1.2.2 0 .4 0 .5.1 1 .4 2 .6 3 .5.6 0 1.1.4 1.2 1 0 .2 0 .4-.1.5-.4 1-.6 2-.5 3 0 .6-.4 1.1-1 1.2-.2 0-.4-.1-.6-.1zm9.1-25.2c-1-2.2-1.2-4.6-.6-6.9.2-.6-.2-1.2-.8-1.3-.2-.1-.5 0-.7.1-2.2 1-4.6 1.2-6.9.6-.6-.2-1.2.2-1.3.7-.1.2 0 .5.1.7 1 2.2 1.2 4.6.6 6.9-.2.6.2 1.2.7 1.3.2.1.5 0 .7-.1 2.2-1 4.6-1.2 6.9-.6.6.2 1.2-.2 1.3-.8.2-.1.1-.4 0-.6zm28.9 15.6c.3-4.8 2.7-9.3 6.7-12 .5-.3.6-1 .3-1.5-.2-.3-.5-.5-.9-.5-4.8-.2-9.2-2.8-12-6.7-.3-.5-1-.7-1.5-.3-.3.2-.5.5-.5.9-.4 4.8-2.7 9.3-6.7 12-.5.3-.6 1-.3 1.5.2.3.5.5.9.5 4.8.2 9.3 2.7 12 6.7.3.5 1 .6 1.5.3.3-.2.5-.5.5-.9z" />
    <path d="m26.2 55.4c-1.6-.3-3.1-1.2-4.1-2.5-.3-.3-.7-.4-1-.1-.1.1-.2.3-.3.4-.3 1.6-1.2 3.1-2.5 4.1-.3.3-.4.7-.1 1 .1.1.3.2.4.3 1.6.3 3.1 1.2 4.1 2.5.3.3.7.4 1 .1.1-.1.2-.3.3-.4.3-1.6 1.2-3.1 2.5-4.1.3-.3.4-.7.1-1-.1-.1-.2-.2-.4-.3z" />
    <path d="m65.6 43.5c-4.2-3.8-6.7-9.1-6.7-14.8 0-.7-.6-1.3-1.3-1.2-.4 0-.7.2-.9.4-3.7 4.3-9.1 6.7-14.8 6.7-.7 0-1.2.6-1.2 1.3 0 .3.1.6.4.8 4.3 3.7 6.7 9.1 6.7 14.8 0 .7.6 1.3 1.3 1.3.4 0 .7-.2 1-.4 3.7-4.3 9.1-6.6 14.8-6.7.7 0 1.3-.6 1.2-1.3-.1-.3-.3-.6-.5-.9z" />
    <path d="m18 40.8c2.6-3.1 6.4-4.7 10.4-4.7.5 0 .9-.4.9-.9 0-.3-.1-.5-.3-.7-3-2.6-4.7-6.4-4.7-10.4 0-.5-.4-.9-.9-.9-.3 0-.5.1-.7.3-2.6 3-6.4 4.7-10.4 4.7-.5 0-.9.4-.9.9 0 .3.1.5.3.7 3 2.6 4.7 6.4 4.7 10.4 0 .5.4.9.9.9.3 0 .5-.1.7-.3z" />
    <path d="m217.2 20.4c-.3-.8-.9-1.4-1.5-2-.4-.3-.4-.9-.1-1.2.1-.1.2-.2.3-.3.8-.3 1.4-.9 2-1.5.3-.4.8-.4 1.2-.1.1.1.2.2.3.3.3.8.9 1.4 1.5 2 .4.3.4.8.1 1.2-.1.1-.2.2-.3.3-.8.3-1.4.9-2 1.5-.3.4-.8.4-1.2.1-.2-.1-.3-.2-.3-.3zm19.4-9.8c.6-1.8 1.9-3.4 3.5-4.4.4-.3.5-.8.3-1.2-.1-.2-.3-.3-.5-.4-1.8-.6-3.4-1.9-4.4-3.5-.3-.4-.8-.5-1.2-.3-.2.1-.3.3-.4.5-.6 1.8-1.9 3.4-3.5 4.4-.4.3-.5.8-.3 1.2.1.2.3.3.5.4 1.8.6 3.4 1.9 4.4 3.5.3.4.8.5 1.2.3.2-.1.4-.3.4-.5zm8.4 25.4c2.9-2.6 6.8-3.9 10.6-3.4.5.1.9-.3 1-.7 0-.3 0-.5-.2-.7-2.6-2.9-3.9-6.8-3.4-10.6.1-.5-.3-.9-.7-1-.3 0-.5 0-.7.2-2.9 2.6-6.8 3.8-10.6 3.4-.5-.1-.9.3-1 .8 0 .2 0 .5.2.7 2.6 2.9 3.8 6.8 3.4 10.6-.1.5.3.9.8 1 .2-.1.4-.2.6-.3z" />
    <path d="m5.8 227c-1-.4-2-.6-3-.5-.6 0-1.1-.4-1.2-1 0-.2 0-.3.1-.5.4-1 .6-2 .5-3 0-.6.4-1.1 1-1.2.2 0 .4 0 .5.1 1 .4 2 .6 3 .5.6 0 1.1.4 1.2 1 0 .2 0 .4-.1.5-.4 1-.6 2-.5 3 0 .6-.5 1.1-1.1 1.1-.2.1-.3.1-.4 0z" />
    <path d="m31.6 233.8c-1.4.8-2.5 1.9-3.3 3.3-.5.8-1.4 1-2.2.6-.2-.1-.4-.3-.6-.6-.8-1.3-1.9-2.5-3.3-3.3-.8-.5-1.1-1.4-.6-2.2.1-.3.4-.5.6-.6 1.4-.8 2.5-1.9 3.3-3.3.5-.8 1.4-1 2.2-.6.2.1.4.3.6.6.8 1.3 1.9 2.5 3.3 3.3.8.5 1.1 1.4.6 2.2-.1.2-.3.5-.6.6z" />
    <path d="m12.7 239.6c-.2-.6-.5-1.2-.9-1.6-.2-.3-.2-.7 0-.9.1-.1.2-.1.3-.2.6-.2 1.2-.5 1.7-.9.3-.2.7-.2.9 0 .1.1.1.2.2.3.2.6.5 1.2.9 1.7.2.3.2.7 0 .9-.1.1-.2.1-.3.2-.6.2-1.2.5-1.6.9-.3.2-.7.2-.9 0s-.3-.3-.3-.4z" />
  </g>
  <g clip-path="url(#a)">
    <path d="m111.6 127.9c-.3.1-.5.2-.8.3 0 0-.6-1-1.6-2.6l1.2-1c1-.6 2-1.4 2.9-2.2.2 2.6-.1 4.8-1.7 5.5z" fill="#5d8da0" />
    <path d="m55.5 139c-1.4-.1-2.4-1.1-3.2-2.7l3-2.1c.2 2.5-.1 4.5.2 4.8z" fill="#5d8da0" />
    <path d="m129.4 104.1c-.1 1.2-.6 2.4-1.4 3.2-9.8 10-13 13.5-14.6 15-.9.8-1.9 1.6-2.9 2.2l-1.2 1c-.8-1.4-1.9-3.2-3-5.3-1.8-3.5 2.7-11 3.1-11.7l10-7.6 3.6-25.7c1.8-16.3 1.4-11.9 2.5-30.6 0-.6.4-1.1.9-1.4s.7-.2 1.1.1.7.8.7 1.3l.2 1.8c1.1.6.6 1.7.5 3v2.3c1.1-.2 1.5.7 1.4 1.7-.1.6 1.9-4.5-.9 50.7z" fill="#f3c8af" />
    <path d="m121.7 305.2c-.3.9-1.2 1.6-2.2 1.5h-23.4c-1.4-.1-2.5-1.3-2.6-2.7 0-.2 0-.4 0-.6l2.3-10.3 8.9-.1c3.2 3.9 7.4 6.4 14.9 9 .4 0 .8.2 1.1.4s.6.6.8.9c.3.7.4 1.3.2 1.9z" />
    <path d="m104.7 293 .1.1-9 .1-.3-3.8 9.3 1.7z" fill="#fbb03b" />
    <path d="m13.1 277.7-6.2 5.8c-.7.6-1 1.5-.9 2.4.1.8.5 1.6 1.1 2.1l17.8 14.3c.5.4 1 .6 1.6.6.4 0 .9-.1 1.3-.3 1.1-.6 1.6-2 1.1-3.2 0-.1-.1-.2-.1-.3l-.2-.2c-3.7-6.2-6-10.4-7.2-16.2l-6.3-7.5z" />
    <path d="m21.3 282.4s0 .1 0 0l-6.3-7.4 1.4-1.6 6.4 7.7z" fill="#fbb03b" />
    <path d="m139.7 113c-.5-.5-.9-1-1.2-1.6l1.9 5c.5-.3 1.1-.7 1.6-1.1z" fill="#dd9c66" />
    <path d="m148.4 105.7c-8.4-43.8-5.6-25.4-8.3-52.2-.1-1.1-.8-1.6-1.6-1-.9.7-.4 1.7-.5 2.7-1.7.8-1 4.1-1 6-1-.1-1.1.7-1 1.5 1.3 10.2.9 3.4 2 46.7.1.7.2 1.4.6 2 .3.6.7 1.2 1.2 1.6l2.2 2.4c2.1-1.7 3.8-3.8 5.1-6.2.6-1 1.1-2.1 1.5-3.2v-.1z" fill="#915c39" />
    <path d="m256.1 198.5 1.7 1.3c1.3 1 1.6-.8.3-1.8l-8.1-7.4-.2-.1-.7-1.8-5.8 2.4.5 1.1v.8c.3 11.2 1 13 1.7 13.4 1.4-.2 0 0 1.1-7.9.2-.5.7-.7 1.1-.5.2.1.4.3.5.5 3.5 8 4.2 9.3 4.9 8.9 1.6-.9-.4-2.7-2.3-8.1 3.9 4.6 5.3 8 6.5 7.2 1.5-1-1-2.5-4.7-8.3 3.7 3.3 5.4 5.6 6.1 4.7 1.3-1.4-1.1-2.6-2.6-4.4z" fill="#6a4634" />
    <path d="m174.7 295.3.3 1.1c7.6 2.4 7.6-.3 7.5-.5l-.3-2.3c-3.2 1.7-5.6 2-7.5 1.7z" fill="#ea514a" />
    <path d="m184.3 298.1c0-.2.4-1.6-1.8-2.1 0 .2 0 2.9-7.5.5-1.8.5-4.9 2.1-13.8 6-.7.3-1 1.1-.7 1.9.1.3.3.5.6.6 3.4 2 7.5 2.5 11.2 1.3 2-.7 3.9-1.9 6-1.3 1.1.3 1.6 1.6 3 1.6 1 0 2.1-.3 3-.7.3-.2.1.3 0-7.8z" />
    <path d="m229.3 292-.8-1.9c-2.2 1.6-4.7 2.5-7.4 2.6l1 1.8c8 .3 7.3-2.3 7.2-2.5z" fill="#ea514a" />
    <path d="m231.5 293.6c-.1-.2 0-1.6-2.2-1.5.1.1.8 2.7-7.2 2.4-1.6 1-4.1 3.3-11.7 9.5-.6.5-.7 1.4-.2 2 .2.2.4.4.7.5 3.8 1.1 7.9.5 11.1-1.7 1.7-1.2 3.4-2.8 5.4-2.8 1.1 0 2 1.1 3.3.7 1-.3 1.9-.8 2.7-1.5.4-.4.4.1-1.9-7.6z" />
    <path d="m218.8 241.3c-2.8-48.9-1.4-50.4-3.4-61.6-15.6 6.2-31.5 4.3-43.6 1.6-11.5 57 .2 107.8 1.2 113.5.6.2 1.2.4 1.8.5 1.8.3 4.2 0 7.6-1.6.5-.3 1.1-.5 1.7-.9l-1.7-49.7 10.1-48.2c8.4 45.2 6.2 33.8 26.6 97.8.8 0 1.5-.1 2.2-.1 2.7-.1 5.2-1 7.4-2.6l1.2-.8z" fill="#005e9b" />
    <path d="m237.5 156.4c-.1-.2-.1-.3-.2-.5l-14.6-29.9c-1.3-2.7-4.1-4.4-7.1-4.3l-.8-.3c-1.8-.7-3.5-1.3-5.2-1.8-1.3 3.4-3.6.7-2.9 4.1 1 4.5-4 7.2-7 6-.2-.1-.3-.3-.2-.4 0-.1.1-.1.2-.2 1.4-.6 2-3.4 1.8-4.8 0 0 0 0 0-.1-11.3 9.2-14.6.9-15.1 0-.8-1.3-1.2-2.8-1.2-4.3-1.5.3-3 .4-4.5.4-1.1 0-2.3-.1-3.4-.3-2.2-.1-4.2-1.7-20.8-10.1l-1.6-2.1c-.2-.3-.5-.6-.9-.6-.2.1-.4.1-.7.2-.5 0-.9-.3-1.1-.7s-.4-.8-.7-1.2c-.8-.7-2-.1-3 .4l-.1-.1v.1c-.4 1.1-.9 2.2-1.5 3.2-1.3 2.3-3 4.5-5.1 6.2-.5.4-1 .8-1.6 1.1l28.2 15.2c3.5.6 6.9-2 10.2-5.5-2.1 2.5-3.6 5.4-4.4 8.6l-4.9-2.6 4.9 2.6c-6 14.2 11.8 1-3.2 46.5l.7.2c12.1 2.7 28 4.6 43.6-1.6l.4-.2c-3-17.8-9.6-17.8-6.5-28.1 0 0-2.5-2.5.2-8.1 2.5-5.1 1.6-7.5 1.6-7.5l2.9 4.6 14.1 20.3 14.8 30.4 6.6-2.7z" fill="#ffb671" />
    <path d="m201.4 124.2c-11.3 9.2-14.6.9-15.1 0-.8-1.3-1.2-2.8-1.2-4.3.9-.2 1.7-.4 2.5-.7 1-.3 1.9-.8 2.7-1.3h.1.1l.3-.2c.2-.1.4-.3.5-.4.1-.3.2-.6.3-.9.1-.4.2-.8.2-1.3 0-.4 0-3.2 0-3.2-1 .3-2 .5-3.1.5h-1.2c-.1 0-.2 0-.3-.1l-.3-.1c-1.4-.5-2.4-1.6-2.9-3-.5-1.2-.7-2.4-.6-3.7l.5-7.6c.5-1.2.8-2.4 1-3.7.1-.9-.4-1.4-.3-3.6 0-.1 0-.2 0-.2.7-1.8 2.5-4.4 4.6-4.9 4.9.3 1 3.1 5.4 4 7.2 1.4.5 5.8.9 10.5.2 3 3.6 2 4.5 3.9v.1c0 .1.1.2.1.3l.1.3v.3.7l-.1.4c0 .1 0 .3-.1.4-.2.7-.4 1.5-.7 2.1l-.6 1.3c-.6 1.1-1.1 2.4-1.5 3.6l-.1.3v.1c-.1.2-.1.5-.1.7-.1.7 0 1.5.3 2.2 0 .1.1.3.1.4.2.8.5 1.5.9 2.2v.1c.4.7.8 1.3 1.3 2 .1.1.2.3.3.4.6.8 1 1.6 1.3 2.6v.2z" fill="#915c39" />
    <path d="m178.7 126.2c-2.1 2.5-3.6 5.4-4.4 8.6l-5.7-3.1c3.5.6 6.9-2 10.1-5.5z" fill="#dd9c66" />
    <path d="m214.1 140.6-4.8 10.9s-2.5-2.5.2-8.1c2.5-5.1 1.6-7.5 1.6-7.5z" fill="#dd9c66" />
    <path d="m197.3 107.1c-.3.5-5.5 9-5.5 9 .1-.4.2-.8.2-1.3 0-.3 0-3.2 0-3.2 1.7-1 3.3-2.2 4.7-3.6l.2-.2c.1-.1.1-.1.2-.2l.1-.2c.1-.3.1-.4.1-.3z" fill="#6a4634" />
    <path d="m214.4 114.5c0-.2 0-.5 0-.7 1-3.7-3.4-7-1.8-9.7 4.1-7.4-2.2-9.6-2.2-9.7s1.3-14.1-12.6-15.7c-3.4-.4-13.2.1-11.8 6.4-2.8.6-3.7 2.3-5.3 4.8-2.3 3.4 1.5 3.9.5 8.3-.5 2.1-1.9 3.8-2.5 5.8-1.2 4.3 2.5 8.3 1.5 10.2-.1.3-3.1 2.3-2.8 5.8 1.1.2 2.2.3 3.4.3 1.5 0 3-.1 4.5-.4.9-.2 1.7-.4 2.5-.7 1-.3 1.9-.8 2.7-1.3h.1.1l.7-.6.2-.2c.1-.3.2-.6.3-.9.1-.4.2-.8.2-1.3 0-.3 0-3.2 0-3.2-1 .3-2 .5-3.1.5h-1.2c-.1 0-.2 0-.3-.1l-.3-.1c-1.4-.5-2.4-1.6-2.9-3-.5-1.2-.7-2.4-.6-3.7l.5-7.6c.5-1.2.8-2.4 1-3.7.1-.9-.4-1.4-.3-3.6 0-.1 0-.2 0-.2.7-1.8 2.5-4.4 4.6-4.9 4.9.3 1 3.1 5.4 4 7.2 1.4.5 5.8.9 10.5.2 3 3.6 2 4.5 3.9v.1c0 .1.1.2.1.3s.1.2.1.3v.3.7l-.1.4c0 .1 0 .3-.1.4-.2.7-.4 1.5-.7 2.1l-.6 1.3c-.6 1.2-1.1 2.4-1.5 3.6l-.1.3v.1c-.1.2-.1.5-.1.7-.1.7 0 1.5.3 2.2 0 .1.1.3.1.4.2.8.5 1.5.9 2.2v.1c.4.7.8 1.4 1.3 2 .1.1.2.3.3.4.6.8 1 1.6 1.3 2.6v.2l.2-.1-.2.1v.1c.2 1.4-.4 4.3-1.8 4.8-.2.1-.3.3-.2.4 0 .1.1.2.2.2 3 1.2 8-1.5 7-6-.8-3.4 1.6-.8 2.9-4.1 1.7.5 3.4 1.2 5.2 1.9 1.5-1.5 1.8-3.8-.4-7.2z" />
    <path d="m108.5 291.7-13.9-2.5-2.2-46.2-15.5-43.2 3.2-8.1h-.8c6.7-.3 13.3-1.4 19.6-3.4l1.2-.4 8.1 52.5c.1.4.1.8.1 1.2 0 .2.2.4.2.6z" fill="#04517c" />
    <g fill="#7fbede">
      <path d="m63.2 134.5c-.1.3-3 8.9-3 8.2l.4-6.7z" />
      <path d="m98.5 134.8c-.9 7.3-1.4 14.7-1.3 22 .2 15.9 3.3 24.7 4.3 30.2l-1.4.5c-7.9 2.6-16.3 3.5-24.6 2.7-12.5-1.2-22.8-6.2-26.4-7.4 4.3-14.8 8.5-21.3 10.4-32.7.4-2.5.7-4.9.8-7.4 0 .7 2.8-8 3-8.2l-2.6 1.5c-1.7 1.1-3.4 2.1-5.2 3-.2-.3 0-2.3-.2-4.8-.4-3.4-1.8-6.6-4.2-9-.2-.2-.5-.5-.8-.7l-.5-.4c5.5-3.8 11.2-7.1 17.3-10 0 0 .9-.4 1.6-.7.8-.3 1.7-.5 2.7-.5h2.9c-.1.3-.3.6-.4 1-1.1 3 .3 11.3 7.3 11.3 8 0 6.8-8.2 5.9-10.8h.2c.8.1 1.6.1 2.4-.1.7 0 1.4-.1 2.1-.3h7.5c3.3-1.4 6.5-3.2 9.5-5.2l.4-.3c-.4.7-4.9 8.2-3.1 11.7 1.1 2.1 2.2 4 3 5.3 1 1.6 1.6 2.6 1.6 2.6l-8.4 4.5s-.9-1.4-1.5-2.2c-.1-.2-.3-.4-.4-.6-.4-.4-.8-7.7-.8-7.7z" />
      <path d="m102.4 132.7-3.9 2.1 1.1-12.6s.4 7.4.8 7.7c.2.2.3.4.4.6.7.8 1.6 2.2 1.6 2.2z" />
      <path d="m109.3 108.5-.2.1z" />
    </g>
    <path d="m102.4 132.7-3.9 2.1 1.1-12.6s.4 7.4.8 7.7c.2.2.3.4.4.6.7.8 1.6 2.2 1.6 2.2z" fill="#5d8da0" />
    <path d="m95.2 97.6c-1.1 1.4-1.8-1.7-5.2-2.2-1.4-.1-2.8.1-4 .6h-.1l-3.8.5h-.5c-.3-.2-.5-.3-.8-.5-.5-.4-1-.9-1.4-1.5-.1-.1-.2-.2-.3-.4-.7-1.3-1.2-2.6-1.7-3.9l-.1-.4c-.1-.6-.3-1.2-.5-1.8-.3-1.2-.6-2.5-.8-3.7.3-2.7 2.5-3.3 4.8-3.2h.4c1 .1 1.9.5 2.6 1.1 4.9 4.7 6.7 3.8 8.1 2.8.6-.6 1.3-.9 2.1-1 2.6.2 1.3 12.7 1.2 13.6z" fill="#f3c8af" />
    <path d="m80.8 95.9c.2.2.5.4.8.5h.3c-.4-.1-.7-.2-1.1-.5z" />
    <path d="m104.4 82.3c.2-2.1-.6-3.4-2.6-3.6-.6-.1-1.3-.1-1.9-.1-.4 0-.8-.1-1.1-.2.4-.2.8-.5 1.2-.8 0-.9-.5-2.8-2.1-3-1.3-.1-2.8.5-4.1.3-3.6-.4-7.2-6.6-10.8-7-3.3-.6-6.6 1-8.2 3.9v.2c-13.1.3.4 16.4-8.6 16.1-4.8-.2-9.5 11.5 1.7 9-3.6 3.4 1.5 8.1 4.2 3 .2 1.3 1 2.5 2.1 2.7l-.4-6.3s-2.3-.4-2-3.9c0-.5.2-1 .4-1.4 1-1.8 3.3-1 3.3-1l.3.4c.2 1.4.9 6.8 1 7-.1 1.4-.8 2.5-1 4.8-.1 1.2.1 1.6 1.4 2.3.3.6.4 1.2.3 1.8 0 .3-.1.6-.1.9-.2 1.3.2 2.2 1.7 2.4.8 1.2.1 2.2 1.4 3.2.3.3.7.5 1.1.6 1.8.5 3.6.8 5.5.9h.5c.8.1 1.6.1 2.4-.1.7 0 1.4-.1 2.1-.3 2.3-.5 4-1.8 4.3-4.4.1-1-.1-2.1-.5-3 0-.1.1-.3.2-.5.9-.1 1.6-.9 1.8-1.8 0-1-.2-2-.8-2.9 1.2-.6 2.6-1.6 2.8-3 .2-1.3-1.1-2.1-1-3.2.4-3.2 5.4-2.6 5.7-4.9.3-2.9-2.5-3.5-3.3-4.8.1-.2.1-.4.2-.6 1.5-.7 2.7-.7 2.9-2.7zm-9.2 15.3c-1.1 1.4-1.8-1.7-5.2-2.2-1.4-.1-2.8.1-4 .6h-.1l-3.8.5h-.5c-.3-.2-.5-.3-.8-.5-.5-.4-1-.9-1.4-1.5-.1-.1-.2-.2-.3-.4-.7-1.3-1.2-2.6-1.7-3.9l-.1-.4c-.1-.6-.3-1.2-.5-1.8-.3-1.2-.6-2.5-.8-3.7.3-2.7 2.5-3.3 4.8-3.2h.4c1 .1 1.9.5 2.6 1.1 4.9 4.7 6.7 3.8 8.1 2.8.6-.6 1.3-.9 2.1-1 2.6.2 1.3 12.7 1.2 13.6z" />
    <path d="m81.1 125.1c-7 0-8.3-8.3-7.3-11.3.1-.4.3-.7.4-1h.1l-.3-10.1-.4-6.3s-2.3-.4-2-3.9c0-.5.2-1 .4-1.4 1-1.8 3.3-1 3.3-1l.3.4c.2 1.4.9 6.8 1 7-.1 1.4-.8 2.5-1 4.8-.1 1.2.1 1.6 1.4 2.3.3.6.4 1.2.3 1.8 0 .3-.1.6-.1.9-.2 1.3.2 2.2 1.7 2.4.8 1.2.1 2.2 1.4 3.2.3.3.7.5 1.1.6 1.8.5 3.6.8 5.5.9h.3c.7 2.5 1.9 10.7-6.1 10.7z" fill="#f3c8af" />
    <path d="m100.1 187.8c-.4.1-.8.3-1.2.4-6.4 2-13 3.2-19.6 3.4-1.1-.1-2.3-.1-3.5-.3l-.8-.1c-8.3-.8-18.7-2.9-25.3-6v.3-.7l.3-1.6c3.5 1.2 12.8 5.8 25.3 7h.1c8.3.8 16.7-.1 24.6-2.7z" fill="#083544" />
    <path d="m80.1 191.7-19.8 50.3c-.1.4-.2.8-.4 1.2-.4 1-1 1.9-1.8 2.6l-31.6 39.9-10.2-12.3 28.1-36.5 5.3-51.3v-.3c6.6 3.2 17 5.2 25.3 6l.8.1c1.2.1 2.4.2 3.5.3z" fill="#04517c" />
    <path d="m80.1 191.7-1.1 13.9-2.1-5.8z" fill="#083544" />
    <path d="m190.4 204.3v-15.4l2 6z" fill="#05527c" />
    <g fill="#32363b">
      <path d="m131.3 33.1c0 .7 0 1.3.1 2v.7 1.4h.3c-.1-2.4-.2-4.9-.3-7.4 0-.4 0-.8-.1-1.2s0-.5 0-.8 0-.8 0-1.2v-.1c0-.2-.1-.3-.1-.5-.1-.1-.1-.1-.2.1v.3 1.3c0 .8.2 3.9.2 3.9.1.6.1 1.1.1 1.5z" />
      <path d="m132.2 42.8-.1-1.1v-4.3h-.3v.9.5 4.4.1h.1v-.5z" />
      <path d="m150.7 30.8v-.2l.2-.2c.1-.1.1-.1.2-.2l.1-.1h.1c.1 0 .2 0 .2.1v.1c0 .1 0 .1-.1.1l-.1.1c-.1.1-.1.1-.2.2-.2 0-.3.1-.4.1z" />
      <path d="m151.7 29.7-.1-.1v-.1c.1-.1.2-.1.3 0v.1s-.1.1-.2.1z" />
      <path d="m144.5 37.5c-.5.5-.9 1-1.4 1.5l-.5.6-1.1 1.1.2.2c1.7-1.9 6.9-7.7 6.9-7.7 0-.1 0-.1 0-.2s-.1-.1-.1-.1h-.1l-.1.1-1.8 2c-.6.7-1.1 1.3-1.1 1.3z" />
      <path d="m138.7 44.6.2-.3.4-.5.2-.2 2.3-2.7-.3-.2-.1.1-.1.1-.2.2-.9 1.1-.3.3-1.4 1.6-.1.1v.1h.2v.3z" />
      <path d="m150.2 31.1c-.1 0-.1 0 0 0-.1 0-.2.1-.2.2-.1.1-.2.3-.4.5l.2.2.2-.2.3-.3v-.1c0-.1 0-.2-.1-.3z" />
      <path d="m149.5 31.9-.1.1v.1h.2l.3-.3-.2-.2z" />
      <path d="m154.9 43.7c-.8.3-1.6.6-2.3 1l-.9.4-1.7.6v.3c3-1.1 5.9-2.3 8.8-3.4.5-.2.9-.4 1.4-.6l2.6-1c.2-.1.4-.2.5-.3s.1-.2-.1-.1c-.1 0-.2.1-.3.1l-1.6.6c-1 .4-4.6 1.8-4.7 1.9z" />
      <path d="m143.5 48.6 6.5-2.6-.1-.3-.6.2-1.1.5-1.3.5-.6.2-3 1.2h-.2v.1h.5v.2z" />
      <path d="m157.9 51.7c0 .1.1.2.2.2h.1c.2 0 .3-.1.5-.1h.3.3c.1 0 .1 0 .2-.1v-.1c0-.1 0-.1-.1-.1h-.1-.1c-.1.1-.2.1-.4.1l-.4.1c-.2-.1-.3 0-.5 0z" />
      <path d="m148.9 53.8h.2c.6-.1 1.2-.2 1.8-.3 1.2-.3 2.3-.5 3.4-.8l2.7-.5h.2.1c.1 0 .2-.1.2-.1v-.2h-.5l-2 .4-1.7.3-1.9.4-2.3.5c-.7.2-1.4.3-2.1.5h-.1l-1.3.3c-.1 0-.2.1-.3.1h-.1.3.1l1.7-.3 1.4-.3z" />
      <path d="m160.5 51.1h-.2l-.3.1s-.1 0-.1.1 0 .1.1.1h.1.3.1s.1-.1 0-.3c0 .1 0 .1 0 0z" />
      <path d="m120.1 29.8-.1-.2s-.1-.1-.1-.2c-.1-.3-.2-.5-.3-.8v-.2-.1c0-.1 0-.1 0-.2h.1l.1.2.1.4.2.5c0 .1.1.1.1.2v.1.3s-.1.1-.1 0z" />
      <path d="m122.6 35.8-.4-1.4-.3-1-.1-.2-.1-.1c0-.1-.1-.1-.2-.1h-.1c-.1.1-.1.2 0 .4v.2l.1.3c.2.5.4 1 .6 1.5l.2.7s1.3 3.3 1.4 3.7c0 .1.1.2.1.3.1.1.1.2.3.3 0 0 .1-.1.1-.2 0-.2-.1-.4-.2-.5v-.1c-.1-.3-.2-.7-.4-1-.1-.3-.4-.9-.6-1.4 0-.4-.2-.8-.4-1.4z" />
      <path d="m120.7 31.9.1.2.1.4c0 .1 0 .1.1.1s.1 0 .2-.1c0 0 0-.1 0-.2s-.1-.3-.2-.4c0-.2 0 0 0 0l-.1-.2-.1-.3-.1-.1-.1-.2-.1-.4c0-.1-.1-.2-.2-.2 0 0 0 0-.1 0 0 .3.1.5.2.8 0 .1.1.2.1.3z" stroke="#32363b" stroke-miterlimit="10" stroke-width=".1183" />
      <path d="m115.1 42.6c-.5-.5-1-.9-1.4-1.3-1-.8-2-1.5-2.8-2.3-1.1-1-2.2-1.9-3.4-2.8-.1 0-.1 0-.2 0s-.2 0-.2.1l.7.7c.2.2.4.4.6.5.5.4 1 .8 1.5 1.2l1.2 1.1 1.6 1.2 1.8 1.5 1 .8c.9.7 1.8 1.6 2.9 2.3l.3.2.1.1h.1c-.2-.3-.4-.5-.6-.7l-.9-.8c-.3-.3-.6-.5-1-.8l-1.1-.9z" />
      <path d="m102.3 44.6-.2-.1c-.1 0-.1 0-.2-.1-.3-.1-.5-.2-.8-.4l-.2-.1h-.1c-.1 0-.1-.1-.1-.2 0 0 0-.1.1-.1l.2.1.3.2.5.2.2.1h.1c.1 0 .1.1.2.2z" />
      <path d="m109.6 47.5-2-1-1-.5-.4-.2-.2-.1h-.1c-.1 0-.1 0-.2 0v.1c0 .1.1.2.2.3l.2.1 2.8 1.2 1.1.5 1.1.5 2.6 1.2 1.8.8.3.1h.4c0-.1 0-.1-.1-.2s-.3-.2-.5-.2l-1.7-.8c-.7-.3-1.4-.6-2.1-.9s-1.4-.6-2.2-.9z" />
      <path d="m104.2 45.5.2.1.4.2h.1s.1-.1.1-.2 0-.1-.1-.1c-.1-.1-.3-.1-.4-.2l-.6-.3-.2-.1-.4-.2c-.1 0-.2 0-.3 0 .2.2.4.3.7.4.1.1.2.1.3.1z" stroke="#32363b" stroke-miterlimit="10" stroke-width=".1183" />
    </g>
    <path d="m52.2 136.3-12.6 8.9.8 22.5c.2 9.8-.1 9.9-.2 12 .4.6 7.3 12.6 6.2 14.3-1.4.6 0 0-5.5-6.9-.4-.4-1-.3-1.4.1-.2.2-.3.5-.2.8 1.2 9.6 1.2 11.2.3 11.2-2 .1-1.2-2.8-2.3-9.1-1.1 6.6-.6 10.7-2.2 10.6-2-.1-.5-3-.2-10.5-1.7 5.3-2 8.4-3.2 7.9-1.8-.7-.2-3.1.2-5.6l-.8 2.2c-.7 1.7-2.1-1.7-1.5-3.4l3.8-9.8c-.1-1.1-.3-2.3-.5-3.4l-3.8-36.1c-.2-2.1.9-4.2 2.8-5.2l18.3-12.5c.3.2.5.5.8.7 2.4 2.4 3.9 5.6 4.2 9z" fill="#f3c8af" />
    <path d="m50.2 124.4-.7.5z" fill="#ea514a" />
    <path d="m63.2 134.5c-.1.3-3 8.9-3 8.2l.4-6.7z" fill="#5d8da0" />
    <path d="m50.2 124.4-.7.5.2-.9z" fill="#5d8da0" />
  </g>
  <path d="m84.6 147.4h95.9c4.1 0 7.4 3.3 7.4 7.4v41.4c0 4.1-3.3 7.4-7.4 7.4h-95.9c-4.1 0-7.4-3.3-7.4-7.4v-41.4c0-4 3.3-7.4 7.4-7.4z" fill="#00f279" />
  <g fill="#32363b">
    <path d="m118.8 192.8v-4.2s10.4-16.3 10.6-16.7c.2-.3.4-.8.8-1.5.3-.6.5-1.2.7-1.9.1-.6.2-1.3.2-1.9.1-1.1-.2-2.2-.7-3.1-.5-.7-1.4-1.1-2.2-1-2.1.1-3.2 2-3.2 5.6v1.5h-6v-1.6c0-1.4.1-2.9.5-4.3.3-1.2.8-2.3 1.6-3.3.7-1 1.7-1.7 2.8-2.2 1.3-.5 2.7-.8 4.2-.7 3 0 5.2.8 6.7 2.4 1.7 1.8 2.4 4.3 2.3 6.8 0 .9-.1 1.9-.3 2.8s-.5 1.8-.9 2.6-.8 1.5-1.1 2.1c-.4.6-.8 1.3-1.4 2.2-.1.1-.1.2-.2.2l-.1.2c-.1.1-.1.1-.1.2l-7.2 10.9h10.5v4.8h-17.5z" />
    <path d="m149 193.3c-1.5 0-3-.2-4.3-.7-1.1-.4-2.1-1.2-2.7-2.2-.7-1-1.1-2.1-1.4-3.3-.3-1.4-.4-2.9-.4-4.4h5.9c0 .8 0 1.6.1 2.4.1.6.2 1.2.4 1.8.2.5.5 1 1 1.3s1.1.5 1.7.4c.4 0 .8-.1 1.2-.2.3-.1.6-.3.8-.5.3-.3.4-.6.6-.9.1-.4.3-.8.3-1.1.1-.5.2-1 .2-1.5 0-.7.1-1.2.1-1.6v-4.1c0-.6-.1-1.2-.2-1.8-.1-.5-.3-1-.5-1.4s-.6-.7-1-.9c-.5-.2-1-.3-1.5-.3-.8 0-1.5.3-2.1.8-.6.6-1 1.4-1.2 2.2h-5.1l.3-19.4h15.8v5.5h-11l-.4 8.2c.6-.6 1.2-1 2-1.2.9-.3 1.8-.5 2.7-.5 1.2-.1 2.4.1 3.6.6 1 .5 1.8 1.2 2.4 2.1.6 1 1.1 2.2 1.4 3.4.3 1.5.4 3 .4 4.5 0 1.4-.1 2.8-.2 4.1-.1 1.2-.4 2.4-.8 3.5-.4 1-.9 2-1.6 2.8s-1.6 1.4-2.6 1.8c-1.3.4-2.6.7-3.9.6z" />
    <path d="m110.4 178.2v-2c-1.3 0-2.5-.5-3.4-1.5-.9-1.2-1.3-2.6-1.2-4.1l3.1-.6c0 2.2.6 3.4 1.8 3.4.4 0 .7-.1.9-.4s.3-.7.3-1.1c0-.5-.1-.9-.3-1.3s-.4-.7-.6-1c-.3-.4-.7-.7-1-1l-2-1.7c-.4-.4-.8-.8-1.2-1.2-.3-.4-.6-.9-.8-1.4-.2-.6-.3-1.2-.3-1.9-.1-1.2.4-2.4 1.2-3.2.9-.8 2-1.3 3.2-1.3v-1.9h1v1.9c.6 0 1.1.2 1.6.4.4.2.8.5 1.1.8s.5.7.7 1.1.3.8.4 1.3c.1.4.1.9.1 1.4l-3.1.5c0-.4 0-.7-.1-.9 0-.3-.1-.5-.1-.8 0-.2-.1-.4-.2-.6-.2-.3-.6-.5-1-.5s-.8.2-1 .5-.3.7-.3 1 0 .6.1.9.2.5.4.7c.1.2.3.4.5.6l.6.6 1.9 1.6c.8.7 1.5 1.5 2 2.4s.7 1.9.7 2.9c.1 2.3-1.7 4.2-3.9 4.4v2z" />
  </g>
</svg>
