<svg enable-background="new 0 0 260 260" viewBox="0 0 260 260" xmlns="http://www.w3.org/2000/svg" xmlns:xlink="http://www.w3.org/1999/xlink"><clipPath id="a"><path d="m0 0h260v260h-260z"/></clipPath><linearGradient id="b" gradientTransform="matrix(1 0 0 -1 105.84 248.27)" gradientUnits="userSpaceOnUse" x1="-223.76" x2="59.25" y1="-23.7912" y2="-23.7912"><stop offset="0" stop-color="#f9b776"/><stop offset="1" stop-color="#f9b776"/></linearGradient><path d="m188.7 15.1c-17.7 0-35.8 4.4-54.8 7.6-18.4 3.1-106.4-9-106.4 77.1 0 10.4 1.9 21.4 1.9 32 0 28.3-26 39.4-26 78.3 0 30.4 26.4 43.4 56.8 43.4 44.8 0 56.2-19.1 75.3-19.1 18 0 35.4 14 53.2 14 24.6 0 35.3-30.9 35.3-45.3 0-10.1-3.5-18.3-3.5-30.6 0-65.7 35.1-83 37.6-111.9 3.7-45.5-40-45.5-69.4-45.5z" fill="#ededf4"/><g clip-path="url(#a)"><path d="m165.1 233.1c-8.6-28.5-1.4-20.4-81.7-52.7 0 0-1-8.3 13.6-13.9s11.2-22 11.2-22c-50.7 23.2-67.3 28.9-80.1 57.3l-146 178 17.1 11.8c20.8 14.3 49.3 9 63.6-11.8 1-1.4 1.9-2.9 2.7-4.5l79.1-151.7c39.8 12 80 14.2 120.5 9.5z" fill="url(#b)"/><path d="m89.1 41v77.3l67 38.7 67-38.7v-77.3l-67-38.7z" fill="#00f279"/><path d="m163.9 46.1-15.3 15.2c-8.4 8.4-6.4 22.8 3.7 28.6 4.7-4.7 4-3.6 3.9-8.3-4.1-3-5-8.7-2-12.8.3-.4.6-.7.9-1l15.2-15.2c3.6-3.6 9.3-3.6 12.9 0 8 8-2.1 15-10.1 23 .3 1.6 2 5.4 1.1 11.7l15.4-15.4c17.1-17.1-8.7-42.9-25.7-25.8zm-2.8 22.1c-4.7 4.7-4 3.6-3.9 8.3 4.1 3 5 8.7 2 12.8-.3.4-.6.7-.9 1l-16.4 16.4c-8.5 8.5-21.4-4.4-12.9-12.9 18.7-18.7 7.7-5.9 10.1-23-1.2 1.2 4.8-4.9-16.6 16.6-17 17 8.7 42.9 25.8 25.8l16.4-16.4c8.4-8.3 6.6-22.7-3.6-28.6z" fill="#32363b"/><g fill="#00f279"><path d="m66.9 42.8c-1.2-1.7-.9-4.3-2.4-3.2s-4.3.9-3.2 2.5.9 4.3 2.5 3.2 4.2-1 3.1-2.5z"/><path d="m61.8 21.1c-3.8-2.7-3.6-7.6-5.2-5.3-2.7 3.8-7.6 3.6-5.3 5.2 3.8 2.7 3.6 7.6 5.2 5.3 2.7-3.8 7.6-3.6 5.3-5.2z"/><path d="m90.6 19.9c-1.9-3.8-2-8.1-.4-12 .3-.4.1-1-.3-1.3-.3-.2-.7-.2-1 0-3.8 1.9-8.1 2-12 .4-.5-.2-1.1.2-1.2.7-.1.2-.1.4 0 .6 1.9 3.8 2 8.2.4 12-.2.5 0 1 .5 1.2.3.1.5.1.8 0 3.7-1.9 8.1-2 12-.4.5.2 1.1-.1 1.3-.7 0-.1 0-.3-.1-.5z"/><path d="m244.9 121c1.9-.1 3.7-1.9 3.8-.1s1.9 3.7.1 3.8-3.7 1.9-3.8.1-1.9-3.6-.1-3.8zm3 22.2c3.5 2.7 3 7.4 4.7 5.3 2.8-3.5 7.4-3.1 5.3-4.7-3.5-2.7-3-7.4-4.7-5.3-2.8 3.5-7.4 3.1-5.3 4.7zm-27.4-.3c3.5 8.1-2.8 14.3.9 12.7 8.1-3.5 14.3 2.8 12.7-.9-3.5-8.1 2.8-14.3-.9-12.7-8.2 3.5-14.3-2.8-12.7.9z"/></g></g></svg>