<svg enable-background="new 0 0 260 260" viewBox="0 0 260 260" xmlns="http://www.w3.org/2000/svg" xmlns:xlink="http://www.w3.org/1999/xlink">
  <linearGradient id="a">
    <stop offset=".57" stop-color="#161412" />
    <stop offset=".8" stop-color="#161412" />
    <stop offset="1" stop-color="#161412" />
  </linearGradient>
  <radialGradient id="b" cx="201.2073" cy="105.3002" gradientTransform="matrix(.9087 -.0495289 -.0495289 -.9087 -30.0836 186.7007)" gradientUnits="userSpaceOnUse" r="9.32" xlink:href="#a" />
  <radialGradient id="c" cx="220.9873" cy="105.3002" gradientTransform="matrix(.9087 -.0495289 -.0495289 -.9087 -30.0769 186.7032)" gradientUnits="userSpaceOnUse" r="9.32" xlink:href="#a" />
  <radialGradient id="d" cx="159.3872" cy="145.7944" gradientTransform="matrix(.9985 -.05442736 -.05442736 -.9985 5.1933 232.2475)" gradientUnits="userSpaceOnUse" r="1.5425" xlink:href="#a" />
  <path id="background" d="m145.1-4.6c-6.4-1.1-12.9-1.6-19.4-1.6-5 0-53.2 1.2-68.3 11-20.1 13-38.4 63.4-38.4 86.2 0 16 8.1 30.8 8.1 46.8 0 16.9-19.2 46.3-19.2 68 0 20 17.4 26.4 37.5 26.4 19.6 0 41.9-5.8 59.4-5.8 15.6 0 28.3 14.1 80.5 14.1 29.7 0 68.6-9.2 68.6-39.1 0-20.6-11.1-56.9-11.1-74.9 0-20.3 17.5-48.7 17.5-71.6-.1-24.3-20.8-38.2-54.2-35.9-34.7 0-33.1-11.3-51.3-21-3.1-1.7-6.7-1.2-9.7-2.6z" fill="currentColor" />
  <path d="m149.2 137.9c-7.2-11.5-23.8 3.2-40.3 61-5.5 19.4-9 32.1-10.2 39.3-1.6 9.6 9 22.9 20.9 2.4.6-.9 49.5-70.7 29.6-102.7z" fill="#4c4c4c" />
  <path d="m146.2 265.6h80.3c-.4-.7-.9-1.5-1.4-2.4-3.4-6.6-7.1-22.5-.7-41.5 12-35.6 21.9-63.6 13.2-78-8.3-13.8-10.8-13.8-17.2-14.4-25.2-2.5-24.4-10.6-38.4-9.9-6.4.3-6.6-.2-18.3 7.2s-20.9 2.2-26.7 9c-7.8 9.1 1.9 63.6 9.2 123.7.6 2.2.5 4.3 0 6.3z" fill="#575756" />
  <path d="m231.5 134.8c-10.9-11.3-24.5 5.2-10.2 58.2 7 26 12.8 34.6 14.9 41.3.5 1.5-1 1.8-1.9 1.7-37.7-2.8-50.9 17.5-68.4 17.8-9.7.2-19.6-7.6-24.3-7.3-15.4.9-25.2 11.8-24.8 14.4.7 4.3 4.2 4.5 11.2 4.4 12.3-.3 25.3 0 38 .2 38.1.5 74.4 1.1 88.4-11.5 3.1-2.8 5.4-3.7 5-12.5-1.1-21.5-5.8-83.6-27.9-106.7z" fill="#c79e87" />
  <path d="m225.4 266.2h-194.5c-.7 0-1.4-.5-1.4-1.3v-3c.1-.8.7-1.3 1.5-1.3h189.8c.8 0 5.6 3.8 5.6 3.8.4.5.3 1.2-.1 1.6-.3.2-.6.3-.9.2z" fill="#ededf4" />
  <path d="m128.6 266.2h-98c-4.1 0-7.7-2.7-8.8-6.6l-21.7-77.3c-.9-3.4 1-6.9 4.4-7.8.6-.2 1.1-.2 1.7-.2h93.6c4.1 0 7.7 2.7 8.8 6.6l22.9 81.5c.5 1.6-.5 3.3-2.1 3.7-.2.1-.5.1-.8.1z" fill="#fff" />
  <path d="m125.5 266.2h-95c-3.9 0-7.4-2.6-8.5-6.4l-22.2-78.9c-.4-1.6.5-3.2 2-3.6.3-.1.5-.1.8-.1h94.9c3.9 0 7.4 2.6 8.5 6.4l22.2 78.9c.4 1.5-.5 3.2-2 3.6-.2.1-.5.1-.7.1z" fill="#ededf4" />
  <path d="m165.7 265.5c38.1.6 74.4 1.1 88.4-11.5 3.2-2.8 5.4-3.7 5-12.5-1-21.4-5.8-83.6-27.9-106.6-10.9-11.3-24.5 5.2-10.2 58.2 7 26 12.8 34.6 14.9 41.3.5 1.5-1 1.8-1.9 1.7-37.7-2.8-50.8 17.5-68.4 17.8z" fill="#4c4c4c" />
  <path d="m186.6 81.7c6.4-2.8 6.7 16.4 9.2 41.5 1 10-11.1 20.2-17.6 20.9-12.3 1.2-14.6-28.5-7.3-44.9 4.5-10.4 9.6-14.8 15.7-17.5z" fill="#c79e87" />
  <path d="m171 115.4c6-2 9.9-6.9 12.9-12.2-3.5 7.9-7.7 18.1-17.2 21.7-.1-3 .1-6 .4-8.9h.1c1.3 0 2.6-.2 3.8-.6z" fill="#8f6b51" />
  <path d="m195.8 71.3v-2.1c0-21.7-12.2-39.2-27.3-39.2s-27.3 17.5-27.3 39.2v1.1c0 3.2.4 6.5 1 9.7 1.6 9 4.3 20.6 12.2 29 2.3 2.4 6.4 7.3 12.6 7.1 1.3 0 2.6-.2 3.9-.6 7.8-2.6 12.1-9.8 15.4-16.5 2.2-2.7 4-5.8 5.4-9 .6.5 1.2.8 1.9 1 2.2.7 7.3-5.2 7.8-12.8.5-8.5-3.1-8-5.6-6.9z" fill="#c79e87" />
  <path d="m164 51.7s14.7 7.4 17.4 14.8 5.7 15 5.7 15 2.5-5 4.4-6.8c1.3-1.3 2.9-2.4 4.6-3.3 0 0 .6-2.5-1.1-13.3s-5.7-15.9-5.7-15.9l-22.7-3.6z" fill="#3c3c3b" />
  <path d="m200.7 61.2c-.2 0-3.5-4-3.7-4s2.9 4.3 2.6 4.3-1.8-2.2-2.1-2.3.8 1.4.6 1.4-1.4-2-1.6-2 1.5 3 1.2 3-2.2-3.4-2.5-3.4 1.6 2.9 1.3 2.9-1.1-1.5-1.3-1.5.6 2 .5 2c-.4 0-1.8-2.1-2.1-2.1s2.4 3.2 2.1 3.2-4.4-4.3-4.8-4.3 2.7 3.7 2.3 3.6-2.5-2.1-2.9-2.1 2.3 2.6 1.8 2.5-1.8-1.2-2.2-1.2 1.9 2.8 1.5 2.8-6-6.2-6.6-6.2 6.2 7.9 5.6 7.9-5.3-6-5.9-6c-.8 0 3.9 5.6 3.3 5.6-1.2 0-5.9-5.7-6.1-5.6-.9.8 8.5 9.4 7.6 10.1s-11.7-12.7-12.9-12c-1.4.8 9.3 10.9 7.8 11.6-.7.3-8-8-8.8-7.7-.5.2 10.2 10.9 9.7 11-.8.2-9-8.5-9.7-8.3-1.2.3 7.9 6.9 6.7 7.1-1 .1-13.6-9-14.6-8.9s11.8 8.5 10.8 8.5-21.3-11.9-22.4-12c-2.2-.2 17.5 10.7 15.4 10.1-8.7-2.4-22.7-6.6-27.6-14.8-10.2-17.4 2.9-15.5 21-26.1s36.9 32.9 36 32.9z" fill="#1d1d1b" />
  <g fill="none" stroke-miterlimit="10">
    <g stroke-width=".83">
      <ellipse cx="147.6" cy="81.1" rx="7.4" ry="9.6" stroke="url(#b)" transform="matrix(.9985 -.05442736 .05442736 .9985 -4.1973 8.1542)" />
      <ellipse cx="165.6" cy="80.2" rx="7.4" ry="9.6" stroke="url(#c)" transform="matrix(.9985 -.05442736 .05442736 .9985 -4.1174 9.1313)" />
      <path d="m154.7 78.6c.5-.5 1.1-.8 1.7-.8.7 0 1.3.2 1.8.6" stroke="url(#d)" />
    </g>
    <path d="m129.8 202.6c3.8-5 11.5-5.9 16.6-8.8-6.5-1.9-13.2-2.6-19.4-5.3 6.2-3 12.9-5.3 18-10-4-1.4-8-1.6-12.1-1.6h-3.4c-3 .1-5.9-.2-8.8-.7 2.6-6.1 7.1-10.7 7.3-17.6-6.1 2-11.8 4.9-17.8 7-.2-4.4-.1-9.3-1.3-13.5-4.7 2.9-8.6 7-13.4 9.6-1.5-4.2-1.6-8.7-2.8-13-4 3.8-7.9 7-11.5 11.2" stroke="#00f279" stroke-width=".89" />
    <path d="m16.3 159.6c0-2.9-.2-6.1-.3-9.1 0-2.2.2-4.5.6-6.7 2.8 5 6.3 9.6 10.5 13.5 1.7-4.6 2.6-9.4 4.2-14 3.3 4.4 5.1 9.8 8.5 14.1" stroke="#00f279" stroke-width=".89" />
  </g>
  <circle cx="74.8" cy="76" fill="#00f279" r="44.8" />
  <path d="m100.5 54c-4.7-5.4-12.9-6.1-18.3-1.4l-11.7 10c-5.4 4.7-6 12.9-1.4 18.3.7.8 1.5 1.6 2.4 2.2l2.1-1.8c1.4-1.2 1.1-2.8 1.1-3.8-.3-.2-.5-.5-.8-.7-2.3-2.7-2-6.8.7-9.1l11.7-10c2.6-2.4 6.7-2.3 9.2.4 2.4 2.6 2.3 6.7-.4 9.2-.1.1-.2.2-.4.3l-7.6 6.4c.7 2.7.8 5.6.2 8.4l11.7-10.1c5.5-4.6 6.1-12.8 1.5-18.3zm-19 16.4c-.7-.8-1.5-1.6-2.4-2.2l-2.2 1.8c-1.4 1.2-1.1 2.8-1.1 3.8l.7.7c2.3 2.7 2 6.8-.7 9.2l-12.6 10.8c-2.8 2.3-6.8 1.9-9.1-.8s-1.9-6.7.7-9l8.6-7.4c-.7-2.7-.7-5.6-.2-8.4l-12.6 10.8c-5.2 4.9-5.5 13.1-.6 18.4 4.6 4.9 12.2 5.5 17.5 1.3l12.5-10.7c5.4-4.7 6-12.9 1.5-18.3z" fill="#404040" />
  <path d="m64.1 114.3c1.7 5.1 2.2 11.4 1.7 17.8-.7 8.6-4.7 24.3-8.3 30.5 9.1-14.1 15.9-33.4 21.4-48.9l-.8-.1c-4.5-.2-9.3 1.1-14 .7z" fill="#00f279" />
  <g fill="none" stroke="#00f279" stroke-miterlimit="10" stroke-width=".88">
    <path d="m51.5 128.2c-21.1-5.4-35.2-25.2-33.6-46.9" />
    <path d="m132.1 69.4c1.5-21.7-12.9-41.3-34-46.6" />
  </g>
</svg>
