<svg height="19" viewBox="0 0 21 19" width="21" xmlns="http://www.w3.org/2000/svg"
  xmlns:xlink="http://www.w3.org/1999/xlink">
  <g fill="none" fill-rule="evenodd" transform="translate(-6 -7)">
    <path
      d="m21 4.73993369v-1.75452079h-.6248456v1.75452079c0 1.65232068-.4457337 3.2859554-1.2889629 4.72435202l.5438657.29674503c.8962473-1.52875226 1.3699428-3.26500904 1.3699428-5.02109705zm-19.08619151 4.72435202c-.8432292-1.43839662-1.28896284-3.07203134-1.28896284-4.72435202v-1.75452079h-.62484565v1.75452079c0 1.75608801.47369549 3.49234479 1.36994284 5.02109705zm13.58983051 6.39113929c0-.8453286-.6394983-1.5215793-1.4388633-1.4877638-.7993963.0338156-1.4229298.6758289-1.4069962 1.5215793.0159648.8451778.6395295 1.4877336 1.4389258 1.4877336.7674354 0 1.4069337-.6762508 1.4069337-1.5215491zm3.5482172-12.8700121-1.8335783 14.5964738c-.1019748.8117239-.7566256 1.4181133-1.5309655 1.4181133h-10.37803017c-.77446494 0-1.42920945-.6066004-1.53096556-1.4185051l-1.83020415-14.596082zm-18.92704328-1.04327908h20.75034288v-1.94213382h-20.75034288z"
      fill="currentColor" transform="translate(6 7)" />
  </g>
</svg>