<svg xmlns="http://www.w3.org/2000/svg" width="20" height="23" viewBox="0 0 20 23" fill="currentColor">
<path fill-rule="evenodd" clip-rule="evenodd" d="M0.5875 20.8461C0.979167 21.2378 1.45 21.4336 2 21.4336H8.25C7.85 20.8169 7.54167 20.1836 7.325 19.5336C7.10833 18.8836 7 18.1836 7 17.4336C7 15.5003 7.68333 13.8503 9.05 12.4836C10.4167 11.1169 12.0667 10.4336 14 10.4336C14.3833 10.4336 14.7375 10.4586 15.0625 10.5086C15.3875 10.5586 15.7 10.6336 16 10.7336V9.43359C16 8.88359 15.8042 8.41276 15.4125 8.02109C15.0208 7.62943 14.55 7.43359 14 7.43359H13V5.43359C13 4.05026 12.5125 2.87109 11.5375 1.89609C10.5625 0.921094 9.38333 0.433594 8 0.433594C6.61667 0.433594 5.4375 0.921094 4.4625 1.89609C3.4875 2.87109 3 4.05026 3 5.43359V7.43359H2C1.45 7.43359 0.979167 7.62943 0.5875 8.02109C0.195833 8.41276 0 8.88359 0 9.43359V19.4336C0 19.9836 0.195833 20.4544 0.5875 20.8461ZM11 5.43359V7.43359H5V5.43359C5 4.60026 5.29167 3.89193 5.875 3.30859C6.45833 2.72526 7.16667 2.43359 8 2.43359C8.83333 2.43359 9.54167 2.72526 10.125 3.30859C10.7083 3.89193 11 4.60026 11 5.43359ZM14.5 12.4336C12.0384 12.43 9.87517 14.0364 9.20679 16.3642C8.5384 18.6921 9.52819 21.1725 11.6287 22.4336V20.9698C11.6287 19.9618 12.176 19.0304 13.0643 18.5265C13.9527 18.0225 15.0473 18.0225 15.9357 18.5265C16.824 19.0304 17.3713 19.9618 17.3713 20.9698V22.4336C19.4718 21.1725 20.4616 18.6921 19.7932 16.3642C19.1248 14.0364 16.9616 12.43 14.5 12.4336ZM14.5 17.574C13.4619 17.574 12.6204 16.7472 12.6204 15.7272C12.6204 14.7072 13.4619 13.8804 14.5 13.8804C15.5381 13.8804 16.3796 14.7072 16.3796 15.7272C16.3796 16.217 16.1815 16.6868 15.8291 17.0331C15.4766 17.3794 14.9985 17.574 14.5 17.574Z"/>
</svg>