<svg height="22" viewBox="0 0 21 22" width="21" xmlns="http://www.w3.org/2000/svg"
  xmlns:xlink="http://www.w3.org/1999/xlink">
  <g fill="none" fill-rule="evenodd" transform="translate(-6 -5)">
    <path
      d="m13.4991735 16.5560047-1.1319104-2.4277636c.4502528-.3535572.8104493-.7993532 1.0205711-1.3373879l2.5732435.5548778c-.4246212 1.3457947-1.3082214 2.4804757-2.4619042 3.2102737zm-3.0230067.8772857c-.73634794 0-1.44041153-.1418536-2.08791273-.3999274l1.18743593-2.3978236c.28514475.0768705.5702895.1383434.855463.1383434.2851736 0 .5703183-.0461047.8404873-.107607l1.1582043 2.4185899c-.6101481.2253315-1.2679019.3484247-1.9536778.3484247zm-5.45933683-4.0073556 2.53269361-.6043452c.21012182.5072983.55531371.9377261.96055276 1.2605469l-1.17139456 2.3995345c-1.07500233-.7162882-1.90264497-1.7895848-2.32185181-3.0557362zm-.30392208-1.895599c0-1.175358.33588962-2.27065978.914531-3.1908938l2.0271456 1.669058c-.24013099.4611642-.36019648.9684329-.36019648 1.5218358v.1383434l-2.53606317.6051416c-.02992277-.2435315-.04541695-.4916647-.04541695-.743485zm5.14792686-5.86935679v2.68731225c-.55531372.10760694-1.05058028.35355723-1.44081473.72248267l-2.04641253-1.68486865c.90989427-.94477595 2.12811697-1.57699623 3.48722726-1.72492627zm2.05614675 4.68570999.3602253 1.5833382-.9905619 1.2912538h-1.6059228l-1.0205423-1.2605174.37520107-1.6140746 1.44078593-.69177575zm2.7031008-2.91169985-2.0727353 1.65115298c-.4202437-.36892544-.9155102-.64564164-1.4858285-.75321908v-2.67515927c1.3885435.14477381 2.6360265.79879275 3.5585638 1.77722537zm1.6193722 4.09534665c0 .202412-.0099934.4024642-.0294332.5996551l-2.5670515-.5535209v-.0461342c0-.5380347-.1350413-1.0453034-.3601965-1.4757312l2.0761625-1.65392575c.5571569.9074321.8805187 1.98016825.8805187 3.12965695zm4.2474213 1.5218654-3.1134374-.671334c.0338683-.2839431.0516953-.5728417.0516953-.8658996 0-1.424199-.4123814-2.75276719-1.1206785-3.86753734l2.5164506-2.00465122c.2551644-.21521388.3151828-.58413932.1050897-.86085552-.2101218-.2613185-.570347-.32282082-.8404872-.10760694l-2.517977 2.00589012c-1.1458494-1.26470602-2.732966-2.10429384-4.5060128-2.25700248v-3.28451896c0-.32279133-.2551356-.61487574-.6003275-.61487574-.3152115 0-.60035625.261348-.60035625.61487574v3.28726223c-1.7319498.15692679-3.28496773.96905241-4.41961401 2.19225543l-2.45430113-2.02075687c-.25513558-.21521388-.63033664-.15371156-.84045846.07687053-.21012181.261348-.15007467.64564164.07502293.86085552l2.47457605 2.03742296c-.73773032 1.12990237-1.1688314 2.48616864-1.1688314 3.94237254 0 .3514335.02551644.6969084.07395735 1.0349499l-3.13567065.748234c-.31521152.0768705-.52533333.3996619-.4502528.7224827.04498496.261348.31515392.4611642.5702895.4611642.04504256 0 .07505173 0 .13509888-.0307365l3.14330254-.7500333c.51050155 1.6122458 1.5692033 2.975385 2.9492509 3.8570953l-1.43992195 2.9496041c-.15007466.2920844-.03000917.6763781.25513558.7993532.07508053.0461046.18011264.0461046.25513557.0461046.21012182 0 .42024363-.1383433.52533334-.3227913l1.44836022-2.9247672c.80900931.3391329 1.69321434.5266781 2.61891959.5266781.8696612 0 1.7026894-.1655695 2.4711777-.4667392l1.4160471 2.9570375c.1050609.2152139.3151827.3535868.5253045.3535868.0750229 0 .1800839-.0307659.2551356-.0461341.2851735-.1383434.4202436-.5072688.2551644-.7993532l-1.3936986-2.9891899c1.4757486-.896282 2.6029646-2.3354363 3.1157125-4.0456729l3.1107014.6707441h.1350989c.2551356 0 .5252757-.184448.5703183-.4765324.0750517-.338189-.1350701-.6610099-.4502528-.7378509z"
      fill="currentColor" transform="translate(6 5)" />
  </g>
</svg>