<svg width="24" height="20" viewBox="0 0 24 20" fill="currentColor" xmlns="http://www.w3.org/2000/svg">
<g fill="none" fill-rule="evenodd" transform="translate(-4 -6)">
<path d="M3.44444 0C1.73911 0 0 1.16488 0 3V10.75H4.65505L7.95764 6.89698L10.3692 9.30855L14.0107 3.58628L18.4191 10.75H24V3C24 1.16488 22.2609 0 20.5556 0H3.44444Z" fill="currentColor" transform="translate(4 6)"/>
<path d="M24 12.25H17.5809L13.9893 6.41372L10.6308 11.6914L8.04236 9.10302L5.34495 12.25H0V13C0 14.8351 1.73911 16 3.44444 16H11V18H8C7.44772 18 7 18.4477 7 19C7 19.5523 7.44772 20 8 20H16C16.5523 20 17 19.5523 17 19C17 18.4477 16.5523 18 16 18H13V16H20.5556C22.2609 16 24 14.8351 24 13V12.25Z" fill="currentColor" transform="translate(4 6)"/>
</g>
</svg>