<svg height="24" viewBox="0 0 20 24" width="20" xmlns="http://www.w3.org/2000/svg"
  xmlns:xlink="http://www.w3.org/1999/xlink">
  <g fill="none" fill-rule="evenodd" transform="translate(-7 -4)">
    <path
      d="m15.3251778 12.8172495-5.3251778-2.9504267-5.32517783 2.9504267v5.9008534l5.32517783 2.9504267 5.3251778-2.9504267zm-14.8251778 10.6827505h19v-15.46468185h-19zm14.9369719-16.859322-1.110987-.04339215c.0756348-1.78359534-.7406937-3.45535664-2.1304349-4.36289595-1.3542238-.8843375-3.03680486-.88437172-4.39110001 0-1.38974118.90753931-2.2060697 2.57930061-2.13047052 4.36289595l-1.11095137.04339215c-.09111128-2.14886964.91121976-4.17526254 2.61587432-5.28843546 1.74013626-1.13630628 3.90205888-1.1363405 5.64219518 0 1.7046545 1.11317292 2.7069856 3.13956582 2.6158743 5.28843546z"
      fill="currentColor" transform="translate(7 4)" />
  </g>
</svg>