<svg height="21" viewBox="0 0 21 21" width="21" xmlns="http://www.w3.org/2000/svg"
  xmlns:xlink="http://www.w3.org/1999/xlink">
  <g fill="none" fill-rule="evenodd" transform="translate(-6 -6)">
    <path
      d="m13.8943449 14.3636244h-7.61222398c-.198486 0-.35939007-.1635988-.35939007-.3654089 0-.2018102.16090407-.365409.35939007-.365409h7.61222398c.198486 0 .3593901.1635988.3593901.365409 0 .2018101-.1609041.3654089-.3593901.3654089zm.1642926-2.0880512h-7.6122582c-.19845178 0-.35939008-.1635988-.35939008-.3654089 0-.2018102.1609383-.365409.35939008-.365409h7.6122582c.198486 0 .3593901.1635988.3593901.365409 0 .2018101-.1609041.3654089-.3593901.3654089zm.1642926-2.0915312h-7.6122582c-.198486 0-.35939007-.1635989-.35939007-.36540901 0-.20181014.16090407-.36540896.35939007-.36540896h7.6122582c.1984518 0 .3593901.16359882.3593901.36540896 0 .20181011-.1609383.36540901-.3593901.36540901zm.1642584-2.08805124h-7.612224c-.198486 0-.35939007-.16359881-.35939007-.36540896s.16090407-.36540896.35939007-.36540896h7.612224c.198486 0 .35939.16359881.35939.36540896s-.160904.36540896-.35939.36540896zm.1677496-2.09153128h-7.61564677c-.198486 0-.35939007-.16359881-.35939007-.36540896s.16090407-.36540896.35939007-.36540896h7.61564677c.198486 0 .35939.16359881.35939.36540896s-.160904.36540896-.35939.36540896zm.1642926-2.09153128h-7.61564676c-.198486 0-.35939007-.16359881-.35939007-.36540896s.16090407-.36540896.35939007-.36540896h7.61564676c.1984517 0 .35939.16359881.35939.36540896s-.1609383.36540896-.35939.36540896zm5.4250787-.5220128h-2.3720087l.2224795-2.14025247c.4039202-.24360597 1.2533472-.36627898 1.7148041-.02784068.795142.58315789.3867722 1.37811378.4347251 2.16809315zm-3.5562846.24360597c-.1853768 1.99749938-1.011974 12.57013783-1.1432027 14.57459733-.0644506.984899-.5647558 1.5654468-1.4067554 1.5973592-.7222029.0273534-1.150014-.4002098-1.1671278-1.1345078v-1.0405456c.1505673-.9013421.0684552-1.0878398-.8317656-1.0892667l-6.61620002-.00348c-.21221128-.0001741-.42784532-.0208806-.74616224-.038281.06845525-1.1553883 1.05003511-13.70471519 1.15004823-14.29967058.12229531-.72751184.79408092-1.19714935 1.81406416-1.21802986h9.25514997c-.1129511.95702346-.2295646 1.80612948-.3080486 2.65182501zm-5.3018592 16.33204043-8.30701057-.0034801c-.30804863-.0005916-.61965693-.0621891-.92414589-.1322432-.9313337-.2143385-1.41175266-1.0341422-1.10216378-1.9279673.05791314-.1671485.277278-.3236131.45522742-.3828094.19855446-.066052.43469085-.0208805.65717042-.0208805h9.3510216c.270364 0 .4894208.2227255.4894208.4976522v1.346793c0 .3445285-.273821.6229353-.6126745.6229353zm7.7149068-19.95828933c-.4723754-.0204629-.9446482.00348008-1.4170237.00348008h-10.11084063c-1.48547896.00348009-2.42807355.82453662-2.65948652 2.28641606-.05507225.34793893-.09450248.69608667-.11979669 1.04750568-.26368963 3.66901916-.96864181 12.44130501-1.04733113 13.18604331-.95837352 0-1.84148049.025161-2.72109624-.0069602-.55794453-.0203933-.92760289.1809644-.9241459.7586586v.570734c-.03422763 1.9871287.57516102 3.0341472 2.56707193 3.1251166.21905681.0099879.66055895.0139204.66055895.0139204h10.70301283c.4551932.0348008.9104891-.0659825 1.3211521-.2505662.5648243-.2538722.9617963-.7934594 1.0302515-1.4198748v-.0139203c.0103026-.0904822.5852924-7.1620156.5852924-7.1620156h.0068798l.0821121-1.0231451h-.0102683c.0308391-.3306081.489455-5.8361031.5613673-6.70264434h3.4912178l-.0274163-.51157254v-1.63564011c.0068455-1.32939259-.6572047-2.20863615-1.9715113-2.26553554z"
      fill="currentColor" transform="translate(6 6)" />
  </g>
</svg>