<svg width="82" height="61" viewBox="0 0 82 61" fill="currentColor" xmlns="http://www.w3.org/2000/svg">
<path d="M43.0963 43.7528L44.294 50.9042H37.4063L38.9037 43.7527C37.7059 43.1568 36.8075 41.6668 36.8075 40.1769C36.8075 37.793 38.6043 36.0052 40.9999 36.0052C43.3956 36.0052 45.1923 37.7931 45.1923 40.1769C45.1923 41.6668 44.2941 42.8588 43.0963 43.7528ZM81.5368 39.2497C79.8535 45.8472 73.8852 50.4665 67.0446 50.466L61.0932 50.4656C60.3572 56.3933 55.2742 61 49.1214 61H32.8781C26.7252 61 21.6428 56.3932 20.9069 50.4656H17.5172C7.8376 50.4606 -0.00505356 42.6484 2.44325e-06 33.0166C0.00505845 23.385 7.85604 15.5811 17.5356 15.5861C18.5962 15.5866 19.6545 15.683 20.6974 15.8739C23.5592 8.87077 31.5845 5.50215 38.6222 8.34971C38.6625 8.36599 38.7026 8.38246 38.7427 8.39913C43.7234 0.185042 54.4532 -2.45595 62.708 2.5002C69.1371 6.36018 72.3653 13.8785 70.7244 21.1695C78.7276 23.1911 83.5685 31.286 81.5368 39.2497ZM30.1711 28.783H32.8783V26.0891C32.8783 21.6258 36.5145 18.0075 41 18.0075C45.4856 18.0075 49.1217 21.6257 49.1217 26.0891V28.783H51.829V26.0891C51.829 20.138 46.9808 15.3136 41 15.3136C35.0193 15.3136 30.1711 20.1379 30.1711 26.0891V28.783ZM55.8898 35.5177C55.8898 33.2859 54.0717 31.4768 51.8289 31.4768H30.1711C27.9283 31.4768 26.1102 33.2859 26.1102 35.5177V48.9869C26.1102 52.7063 29.1404 55.7216 32.8783 55.7216H49.1217C52.8596 55.7216 55.8899 52.7064 55.8899 48.9869L55.8898 35.5177Z"/>

</svg>
