<svg width="50px" height="50px" viewBox="0 0 1024 1024" xmlns="http://www.w3.org/2000/svg"><path d="m567.75 925.2h-30.9c-.51-.64-1-1.84-1.52-1.85q-20.69-.15-41.37 0c-.51 0-1 1.21-1.52 1.85h-34.76c-.51-.64-1-1.83-1.53-1.85-11.64-.36-23.25.23-34.91-1.78-10.15-1.74-20.62.49-31.05-1.86-8.1-1.82-16.81.41-25.22-2.05-4.94-1.45-10.3.21-15.65-1.81-4.7-1.78-10.6.91-15.49-2.23-8.76.7-17-2-25.37-4-11-2.56-21.23-6.71-29.42-15.21-7.83-8.13-14.75-16.93-21.92-25.6s-13.24-17.67-19.48-26.74c-10.78-15.69-21-31.74-31.42-47.71-5.75-8.84-11.6-17.64-16.86-26.77-4.93-8.54-9.74-17.18-14.7-25.68-6.34-10.87-12.6-21.79-19-32.66-7-11.88-14.12-23.78-20.06-36.07-16.7-34.53-35.71-68-50.1-103.6-5.32-13.23-11.5-26.13-14.14-40.39-.37-2-2.45-3.72-3.74-5.57v-23.16c.55-.23 1.51-.36 1.6-.71 2.47-9.86 6.28-19.27 9.5-28.87 3.13-9.38 7.85-18 11.41-27.12 4.58-11.68 10.41-22.72 15.48-34.12a544.85 544.85 0 0 1 25-48.54c6.49-11.39 11.37-23.75 18.43-34.74 4.24-6.63 7-13.94 11.53-20.42s7-14 11.52-20.23c4.78-6.67 7.72-14.31 12.45-21 3.14-4.4 5.76-9.18 8.63-13.78 7.82-12.52 15.51-25.13 23.54-37.52q11.63-17.92 23.88-35.45c5.44-7.8 12.06-14.85 16.76-23 3.16-5.5 9.49-8.26 11.17-14.63 8.85-8.75 17-18.35 29-23.23 8.14-3.31 16.87-4.32 25.3-6.36a122.52 122.52 0 0 1 13.63-2.09c4.89-.61 9.74-.78 14.68-1.77 6.3-1.27 12.91-.67 19.46-1.94 7.58-1.46 15.47-.64 23.33-1.87 11.12-1.76 22.59.34 33.94-2 6.47-1.35 13.46-.24 20.21-.24h20.27c7.08 0 14.2-.5 21.22.14 6.74.62 12.92-2 19.48-2.14 8.83-.22 17.3 2.71 26.23 2.16 10.9-.68 21.87-.35 32.8-.11s22-.38 33 1.57c10.75 1.89 22-.59 33 2 6.68 1.6 13.93-1.06 20.74 1.28 6.52 2.25 13.48-.24 20.19 2.51 4.35 1.79 9.6.14 14.65 1.83 4.43 1.47 9.66 1.23 14.56 2.06a134.07 134.07 0 0 1 27.64 8 23.6 23.6 0 0 1 9.11 6c6.12 6.8 13.11 12.73 18.51 20.3 7 9.81 15.55 18.52 22.23 28.51 9.1 13.6 18.63 27 27.15 40.88 8.61 14.06 17.41 28.07 25.92 42.2 10.23 16.98 19.56 34.52 30.23 51.3 8.3 13.11 15.54 26.95 22.53 40.82q21.9 43.49 43 87.37c7.09 14.73 12.87 30 18.64 45.35 2.87 7.63 3.91 15.65 6.53 23.33 2.47 7.25-2.07 14.73-1.71 22.27-5 10.54-7.29 22-11.68 32.79-2.7 6.6-7.36 12.55-9.16 19.32s-5.31 12.72-8.34 18.77-5.22 12.66-8.34 18.75c-6.13 11.94-12.23 23.9-18.49 35.77-5 9.51-10.37 18.85-15.4 28.36-7.42 14-14.89 28-23.14 41.56-5.13 8.44-9.6 17.27-14.63 25.77-6.59 11.13-13.4 22.13-20.2 33.13-5.7 9.23-11.29 18.55-17.34 27.54-10.56 15.68-21.15 31.3-32.44 46.5-9.23 12.43-18.43 24.78-28.91 36.19-5.07 5.54-10.9 10.17-17.84 12.87a116.93 116.93 0 0 1 -21.64 6.11c-4.58.82-9.47.73-13.58 2.12-3.78 1.28-7.28 1.09-10.91 1.57-3.93.52-7.82 1.4-11.75 1.87-5.21.61-10.38-.44-15.72 1.66-3.9 1.53-8.91 0-13.39.37s-9.15 1.93-13.68 1.74c-19.1-.81-38 3.46-57.11 2.14-.85-.05-1.72 1.2-2.55 1.84zm-78.84-366.82v-92.68h9.87q48.74 0 97.46 0c2.53 0 5.31.43 7.54-.44 13.4-5.22 26.52-11 34.11-24.35 4.63-8.13 9-16.51 9-26.17.1-34.41 0-68.82 0-103.24 0-1.6.45-3.38-.08-4.79-2.4-6.4-4.05-13.43-7.94-18.81s-7.85-10.54-13.32-14.84a54 54 0 0 0 -33.73-11.89c-29.91-.34-59.83.11-89.74-.3-5.78-.08-10.92 2.08-16.52 2.43a18 18 0 0 0 -9.78 4c-6.19 5.25-13.5 8.95-18.51 16-6.59 9.23-10.94 19-11.08 30.16-.37 29.26-.12 58.53-.12 87.8v8.47c-35.88 0-70.92.1-106-.1a38.62 38.62 0 0 0 -15.24 2.91c-10.83 4.65-21.35 10.33-27.61 21.46-4.62 8.18-9.36 16.33-9.41 26q-.22 52.11.06 104.21a33.69 33.69 0 0 0 2.74 13.28c4.92 10.85 10.54 21.29 21.54 27.63 9 5.22 18.22 9.37 29 9.34 32.17-.1 64.34 0 96.5 0h8.49c0 32 .13 63.19-.1 94.36-.06 7.91 2.46 14.88 5.33 21.95 3.76 9.24 8 12.42 15.65 19.39 9.63 8.8 21.31 12.82 34.18 12.91 29.91.19 59.83-.16 89.74.25 5.78.08 11.18-1.39 16.44-2.62a37.28 37.28 0 0 0 12.93-6.12 80.54 80.54 0 0 0 14.66-13.05c7.44-8.7 11.63-18.82 11.8-29.83.52-33.76.27-67.53.09-101.3a50 50 0 0 0 -2.21-14.49c-3.44-10.92-13.67-24.21-23.73-29.42-8.8-4.55-17.76-9.35-28.52-8.14-6.36.71-12.86.13-19.29.13z" fill="#04a9f3"/><path d="m492.44 925.2c.51-.64 1-1.84 1.52-1.85q20.69-.15 41.37 0c.51 0 1 1.21 1.52 1.85z" fill="#82d4f9"/></svg>