<svg enable-background="new 0 0 72 72" viewBox="0 0 72 72" xmlns="http://www.w3.org/2000/svg"><path d="m27.5 33.3 1.3 1c-.7.9-1.8 1.5-3.1 1.5-2.1 0-3.9-1.7-3.9-3.9 0-.8.3-1.6.7-2.2l2.9 2.1c-.6.2-1 .8-1 1.4 0 .8.7 1.5 1.5 1.5.9.1 1.6-.6 1.6-1.4zm18.5-1.6c.8 0 1.5.7 1.5 1.5s-.7 1.5-1.5 1.5-1.5-.7-1.5-1.5c0-.3.1-.6.2-.8l-1.9 1.3c.7 1.2 1.9 2 3.4 2 2.1 0 3.9-1.7 3.9-3.9 0-1-.4-1.9-1-2.6l-3.4 2.4c.1.2.2.1.3.1zm-10.6 3.7 27.2-19.4h-53.5zm1.8 17.2-1.9 1.4-1.8-1.5-8.9-7.4-15.3 10.9h53.2l-15.4-10.8zm24.1-32c.9 1.8 5.2 12.2-7.1 18.7 0 0-7.8 4.1-15.5-2.5l-3.3 2.3-2.6-1.9c-7.6 6-15 2.1-15 2.1-11.9-6.3-8.2-16.2-7.2-18.5l-10.6-7.8v46l24.6-17.6h.2l10.6 8.8 11.7-8.7 24.9 17.5v-46z" fill="#939598"/></svg>