<?xml version="1.0" encoding="utf-8"?>
<!-- Generator: Adobe Illustrator 24.0.3, SVG Export Plug-In . SVG Version: 6.00 Build 0)  -->
<svg width="50px" height="50px" version="1.1" id="Layer_1" xmlns="http://www.w3.org/2000/svg" xmlns:xlink="http://www.w3.org/1999/xlink" x="0px" y="0px"
	 viewBox="0 0 1024 1024" style="enable-background:new 0 0 1024 1024;" xml:space="preserve">
<style type="text/css">
	.st0{fill:#6ECE73;}
	.st1{fill:#FFFFFF;}
	.st2{fill:#10AA50;}
	.st3{fill:#B8C4C2;}
	.st4{fill:#12924F;}
	.st5{fill:#F2E283;}
	.st6{opacity:0.75;fill:#32363B;}
	.st7{fill:#ED8597;}
	.st8{fill:#D33F37;}
	.st9{fill:#B23232;}
	.st10{fill:#84A0EF;}
	.st11{fill-rule:evenodd;clip-rule:evenodd;fill:#FFFFFF;}
	.st12{fill-rule:evenodd;clip-rule:evenodd;fill:#32363B;}
</style>
<g>
	<g>
		<polygon class="st0" points="236.6,399.3 449.8,399.3 556.4,214.7 449.8,30 236.6,30 130,214.7 		"/>
		<path class="st1" d="M342.3,352.5c-5.2,0-9.5-3.9-10-9.1l0,0c-0.9-10.4-2.2-20.4-2.9-25.8c-16.8-12.7-56.4-53.5-53.6-112.3
			c1.4-29.5,9.3-56,23.4-78.8c11.5-18.4,24.1-29.6,29.5-34.3l1-0.9c0.6-0.6,1-1,1.4-1.4c2.1-3.3,5.7-5.3,9.6-5.9l0,0
			c6-1,12,1.9,14.8,7.3c0.9,1.7,1.8,3.4,2.8,4.9l0,0.1c1.1,1.7,3.5,4.2,6.3,7c12.2,12.6,32.7,33.8,43.8,82.7l0.1,0.3l0,0.3
			c11.2,65.4-22.6,110.6-46.6,129c-2,9.3-3.6,18.8-4.6,28.2l0,0c-0.6,5.1-4.8,8.9-9.9,8.9H342.3z"/>
		<g>
			<path class="st2" d="M398.7,188.1c-13.5-59.6-41.7-75.4-48.8-86.7c-3.9-6.1-7.8-15.4-7.8-15.4c-0.4,5.3-1.1,8.6-5.6,12.7
				c-9.1,8-47.4,39.3-50.7,107c-3,63.1,46.4,102.1,53,106.1c5,2.5,11.2,0.1,14.1-2.2C376.6,293.3,409.2,249.7,398.7,188.1"/>
			<path class="st3" d="M344,278.2c-1.2,15.6-2.1,24.7-5.3,33.6c0,0,2.1,14.9,3.5,30.6h5.1c1.2-11.1,3.1-22.1,5.6-33
				C346.4,306.2,344.3,291.9,344,278.2z"/>
			<path class="st4" d="M353.1,309.5L353.1,309.5c-6.7-3.1-8.7-17.7-9-31.3c1.7-22.4,2.1-44.9,1.4-67.3
				c-0.4-11.8,0.2-109.2-2.9-123.4c1.2,2.8,4.3,9.3,7.3,14c7.2,11.2,35.3,27.1,48.8,86.7C409.2,249.6,376.8,293.1,353.1,309.5z"/>
		</g>
	</g>
	<g>
		<polygon class="st5" points="575.7,598.8 789,598.8 895.6,414.1 789,229.5 575.7,229.5 469.1,414.1 		"/>
		<path class="st1" d="M777.2,499.2l-31.5-43.1c-1-1.4-3.1-1.4-4.1,0l-32.2,43.1c-0.5,0.6-1.2,1-2,1H582.8c-1.4,0-2.5-1.1-2.5-2.5
			V323.6c0-1.4,1.1-2.5,2.5-2.5h121.9c1.4,0,2.5,1.1,2.5,2.5V347c0,1.4-1.1,2.5-2.5,2.5h-92.1c-1.4,0-2.5,1.1-2.5,2.5v38.7
			c0,1.4,1.1,2.5,2.5,2.5h79.4c2.1,0,3.3-2.4,2-4.1l-15-19.5c-1.3-1.7-0.1-4.1,2-4.1h30.7c0.8,0,1.5,0.4,2,1l28.1,37.6
			c1,1.3,3,1.4,4,0l28.3-37.6c0.5-0.6,1.2-1,2-1h29.7c2.1,0,3.3,2.4,2,4.1l-44.9,58.8c-0.7,0.9-0.7,2.1,0,3.1l48.5,64.6
			c1.3,1.7,0.1,4.1-2,4.1h-30.3C778.4,500.2,777.7,499.8,777.2,499.2z M695.1,470.7l29.2-39.1c0.7-0.9,0.7-2.2,0-3.1L706,404.8
			c-1.5-1.9-4.5-0.9-4.5,1.5v12.9c0,1.4-1.1,2.5-2.5,2.5h-86.3c-1.4,0-2.5,1.1-2.5,2.5v44.9c0,1.4,1.1,2.5,2.5,2.5h80.5
			C693.9,471.7,694.6,471.4,695.1,470.7z"/>
		<polygon class="st6" points="749.4,430 790.8,375.6 779.9,375.6 743.8,423.6 707.9,375.6 696.1,375.6 738,430 699.3,481.7 
			600,481.7 600,411.7 691.4,411.7 691.4,403.3 600,403.3 600,339.5 697.2,339.5 697.2,331.1 590.2,331.1 590.2,490.2 703.7,490.2 
			743.8,436.5 783,490.2 794.6,490.2 		"/>
	</g>
	<g>
		<polygon class="st7" points="575.7,994 789,994 895.6,809.3 789,624.7 575.7,624.7 469.1,809.3 		"/>
		<path class="st1" d="M577.9,880.1l-18.1-153.7c-0.3-2.8,1.3-5.4,3.9-6.4l116.6-42.1c1.3-0.5,2.8-0.5,4.1,0L801,720
			c2.6,0.9,4.3,3.6,3.9,6.4l-18.1,153.7c-0.2,1.9-1.4,3.6-3.1,4.6l-98.5,53.5c-1.8,1-4,1-5.7,0L581,884.7
			C579.3,883.7,578.1,882,577.9,880.1z"/>
		<g>
			<polygon class="st8" points="682.3,687.8 570.1,728.3 587.6,876.9 682.3,928.4 			"/>
			<polygon class="st9" points="682.3,687.8 794.6,728.3 777.1,876.9 682.3,928.4 			"/>
		</g>
	</g>
	<g>
		<polygon class="st10" points="235,792.7 448.3,792.7 554.9,608 448.3,423.3 235,423.3 128.4,608 		"/>
		<path class="st11" d="M251.2,707.3c-2.7,0-5.3-0.7-7.6-2.1c-4.6-2.7-7.5-7.7-7.5-13.1l-0.2-132.4c0-7.2,3.9-14,10.1-17.6
			l85.5-49.2c2.8-1.6,6.1-2.6,9.3-2.7l0.2,0h1.3l0.2,0c3.3,0.1,6.6,1.1,9.4,2.7l85.4,49.1c6.3,3.6,10.2,10.4,10.2,17.6l-0.2,132.4
			c0,5.4-2.9,10.4-7.5,13.1c-2.3,1.4-5,2.1-7.7,2.1c-2.7,0-5.3-0.7-7.6-2.1l-50.9-29.1c-6.2-3.7-10.1-10.4-10.1-17.6v-61.9
			c0-0.1-0.1-0.2-0.1-0.3l-21.8-12.5c-0.1,0-0.1,0-0.2,0.1l-21.6,12.5c-0.1,0.1-0.1,0.2-0.1,0.3v61.9c0,7.2-3.8,13.8-10.1,17.6
			l-50.8,29.1C256.5,706.6,253.9,707.3,251.2,707.3z"/>
		<path class="st12" d="M437.4,559.7c0-3.7-2-7.1-5.2-9l-85.5-49.2c-1.4-0.8-3.1-1.3-4.7-1.4h-0.9c-1.6,0.1-3.3,0.5-4.7,1.4
			l-85.5,49.2c-3.2,1.9-5.2,5.3-5.2,9l0.2,132.4c0,1.8,0.9,3.6,2.6,4.5c1.6,1,3.6,1,5.1,0l50.8-29.1c3.2-1.9,5.2-5.3,5.2-9v-61.9
			c0-3.7,2-7.1,5.2-8.9l21.6-12.5c1.6-0.9,3.4-1.4,5.2-1.4c1.8,0,3.6,0.5,5.1,1.4l21.6,12.5c3.2,1.8,5.2,5.2,5.2,8.9v61.9
			c0,3.7,2,7.1,5.2,9l50.8,29.1c1.6,0.9,3.6,0.9,5.2,0c1.6-0.9,2.6-2.6,2.6-4.5L437.4,559.7z"/>
	</g>
</g>
</svg>
