<svg enable-background="new 0 0 72 72" viewBox="0 0 72 72" xmlns="http://www.w3.org/2000/svg"><g fill="#939598"><path d="m68.1 43.7c-.1-.3-.4-.5-.7-.5-.2 0-.3.1-.6.2l-1.1.6-1.4.8-1.5.8-2.4 1.3-3.3 1.8-3.2 1.7-.6.3-4.1 2.2-1 .5c-.4.2-.6.5-.6.9s.2.7.6.9l.2.1 1.3.7 1.9 1.1 1.5.8c.2.1.3.3.4.5v.2c0 .1-.1.3-.2.4l-4.8 4.8-1 1-1 1-.6.6c-.3.3-.4.7-.3 1s.4.5.7.5c.2 0 .3 0 .6-.2h.1l1-.5.1-.1 1.3-.7 1.5-.8 14.6-7.7c.4-.2.6-.5.6-.9s-.2-.7-.6-.9l-4.8-2.8c-.2-.1-.3-.3-.3-.5s0-.4.2-.6l4.8-4.8 1-1 1-1 .6-.6c.1-.5.2-.8.1-1.1z"/><path d="m68.5 46.9-.9.9-1 1-.1.1c1.3 1.9 2.1 4.2 2.1 6.6 0 6.5-5.3 11.8-11.8 11.8-2.2 0-4.3-.6-6.1-1.7l-1.5.8-1.3.6-.1.1c2.5 1.9 5.6 3.1 9 3.1 8.1 0 14.7-6.6 14.7-14.7-.1-3.2-1.2-6.2-3-8.6zm-5.2-4 .4-.2c-.6-.3-1.3-.7-2-.9-1.4-.5-2.9-.8-4.5-.9-.2 0-.3 0-.5 0-1.1 0-2.1.1-3.2.4-1.3.3-2.5.7-3.7 1.4-.2.1-.4.2-.6.3-1.7 1-3.3 2.4-4.5 4-1.1 1.6-2 3.3-2.4 5.3-.2 1.1-.4 2.2-.4 3.3 0 1.9.4 3.7 1 5.4 0 .1 0 .1.1.2 0 0 0 .1.1.1.5 1.1 1.1 2.2 1.8 3.2.2.2.3.4.5.6.2.3.5.6.8.8l1-1 1-1c-.1-.1-.2-.3-.4-.4-.2-.2-.4-.5-.6-.7-.7-1-1.3-2.1-1.8-3.2v-.1c-.4-1.2-.6-2.5-.6-3.8 0-2.7.9-5.2 2.5-7.1.7-.9 1.5-1.7 2.4-2.3 1.1-.8 2.3-1.4 3.7-1.8 1-.3 2-.4 3-.4h.2.5c1.1 0 2.2.3 3.2.6l1.4-.8z"/><path d="m42.5 46.2c-.8 1.3-1.6 2.7-2.1 4.4-8.3-1-10.2-5.5-10.2-9.4 0-.4.3-.7.7-.7h3.4c.4 0 .7.3.7.6.6 3.2 1.9 4.9 7.5 5.1zm23.4-4.9.2-.1h.1c.1 0 .6-.3 1.2-.3v-19.9c0-1.9-1-3.7-2.7-4.7l-25.9-15c-1.7-.9-3.7-.9-5.4 0l-25.9 15c-1.7 1-2.7 2.8-2.7 4.7v30c0 1.9 1 3.7 2.7 4.7l6.8 3.9c3.3 1.6 4.5 1.6 6 1.6 4.9 0 7.7-3 7.7-8.1v-29.5c0-.4-.3-.7-.8-.7h-3.3c-.4 0-.7.3-.7.7v29.5c0 2.3-2.4 4.5-6.2 2.6l-7.1-4.1c-.3-.1-.4-.4-.4-.7v-29.9c0-.3.2-.6.4-.7l25.9-15c.2-.1.6-.1.8 0l25.9 15c.3.2.4.4.4.7v18.8c.7.2 1.3.5 1.7.7zm-9.6-2.6c-1.3-3-5-4.1-11.1-4.9-8.1-1.1-8.9-1.6-8.9-3.5 0-1.6.7-3.6 6.7-3.6 5.3 0 7.3 1.2 8.1 4.8.1.3.4.6.7.6h3.4c.2 0 .4-.1.5-.2.1-.2.2-.4.2-.6-.5-6.2-4.6-9.1-13-9.1-7.4 0-11.8 3.1-11.8 8.4 0 5.7 4.4 7.2 11.5 7.9 4.3.4 6.5.9 7.8 1.6.9-.4 1.7-.6 2.6-.8 1.1-.5 2.2-.6 3.3-.6zm-12.9 27.7c0-.1 0-.1 0-.2 0 0-.1-.1-.1-.1 0-.1-.3-.3-.3-.3-.5-.7-.9-1.5-1.3-2.3l-5.3 3.1c-.2.1-.6.1-.8 0l-6.7-3.9c-.2-.1-.4-.2-.6-.1-1.2.8-2.5 1.4-3.9 1.8-.4.1-1.1.4.2 1.1l8.7 5.1c.8.5 1.8.7 2.7.7 1 0 1.9-.3 2.7-.8l4.7-2.7c-.1-.4-.1-.9 0-1.4z"/></g></svg>