<svg width="50px" height="50px" id="ae4ca888-47bb-4020-bab3-10abea4f79fe" data-name="Layer 1" xmlns="http://www.w3.org/2000/svg" xmlns:xlink="http://www.w3.org/1999/xlink" viewBox="0 0 1024 1024">
  <defs>
    <style>
      .af2b6da2-d2d9-4365-ba30-5529da47a2d1 {
        fill: none;
      }

      .b9b032a2-1291-47d6-ab90-6dcfe25498f4 {
        clip-path: url(#aa49aae6-13fa-46c1-bd93-820571198049);
      }

      .ea28ca4e-8b03-4408-96d0-50db1907bbed {
        fill: #939598;
      }
    </style>
    <clipPath id="aa49aae6-13fa-46c1-bd93-820571198049">
      <circle class="af2b6da2-d2d9-4365-ba30-5529da47a2d1" cx="512" cy="512" r="388.97"/>
    </clipPath>
  </defs>
  <g class="b9b032a2-1291-47d6-ab90-6dcfe25498f4">
    <g>
      <path class="ea28ca4e-8b03-4408-96d0-50db1907bbed" d="M115.13,383.23C104.48,410.7,468,130.78,654.8,142.37,671.16,143.39,262,4.56,115.13,383.23Z"/>
      <path class="ea28ca4e-8b03-4408-96d0-50db1907bbed" d="M89.37,498.46v68a23,23,0,0,0,23.78,23c248.4-9.33,540-361.43,774.78-221.72C833.81,136.27,602.47,167,215.75,430.1a261.75,261.75,0,0,1-108,45.94C97,477.91,89.37,487.56,89.37,498.46Z"/>
      <path class="ea28ca4e-8b03-4408-96d0-50db1907bbed" d="M144,705.14c144.12,158.42,357.63,123.3,653.61-133,18.84-16.32,52-35.9,64.61-44,21.4-13.71,59.91-15.35,59.91-40.77V469c0-66.58-83.26-63.33-142.15-29.14C700.08,486.2,385.09,671.06,385.09,671.06S245.7,751.51,144,705.14Z"/>
      <path class="ea28ca4e-8b03-4408-96d0-50db1907bbed" d="M349.55,870.09c190.89,20,522.92-231.84,522.92-231.84C843.49,815.38,644.5,980.21,349.55,870.09Z"/>
    </g>
  </g>
</svg>
