<svg width="59" height="18" viewBox="0 0 59 18" fill="none" xmlns="http://www.w3.org/2000/svg">
<g clip-path="url(#clip0_693_1607)">
<path d="M13.7434 11.556C14.0539 11.556 14.3533 11.6115 14.6305 11.7113C15.074 11.2012 15.3069 10.6468 15.3069 10.0701C15.3069 9.12761 14.6637 8.21833 13.5105 7.50866C12.2686 6.75462 10.6053 6.33325 8.84216 6.33325C7.06797 6.33325 5.40466 6.75462 4.17381 7.50866C3.0095 8.21833 2.37744 9.12761 2.37744 10.0701C2.37744 10.6468 2.6103 11.2012 3.05385 11.7113C3.33107 11.6115 3.63047 11.556 3.94095 11.556C4.63954 11.556 5.29377 11.8222 5.78168 12.3212C6.12543 12.6649 6.35829 13.0863 6.46918 13.552C7.21212 13.7294 8.01051 13.8181 8.84216 13.8181C9.67381 13.8181 10.4611 13.7294 11.2151 13.552C11.326 13.0974 11.5589 12.6649 11.9026 12.3212C12.3905 11.8333 13.0448 11.556 13.7434 11.556ZM8.84216 9.38265C8.04377 9.38265 7.38954 8.72841 7.38954 7.93003H10.2948C10.2948 8.72841 9.64055 9.38265 8.84216 9.38265Z" fill="#303030"/>
<path d="M3.808 6.83221C3.95215 6.7435 4.0963 6.66588 4.24046 6.58826H4.22937C3.86344 6.31104 3.43098 6.17798 2.99852 6.17798C2.37755 6.17798 1.76767 6.4552 1.36848 6.98745L1.20215 7.22032L2.35537 8.08524C2.7213 7.61951 3.20921 7.19814 3.808 6.83221Z" fill="#303030"/>
<path d="M2.37754 12.0771C1.98943 11.5781 1.74548 11.0348 1.67895 10.4692C1.65677 10.3362 1.64568 10.2031 1.64568 10.07C1.64568 9.40471 1.86746 8.77266 2.27774 8.19604H2.13358C1.00254 8.19604 0.0932617 9.11641 0.0932617 10.2364V10.5247H1.61242C1.21322 10.8573 0.958181 11.312 0.891649 11.8221C0.814028 12.3654 0.958181 12.8977 1.29084 13.3301L1.41282 13.4964C1.52371 13.0529 1.75657 12.6537 2.08923 12.321C2.17794 12.2323 2.27774 12.1547 2.37754 12.0771Z" fill="#303030"/>
<path d="M15.3182 8.08524L16.4714 7.22032L16.3051 6.98745C15.9059 6.4552 15.296 6.17798 14.675 6.17798C14.2426 6.17798 13.8212 6.31104 13.4442 6.58826H13.4331C13.5773 6.66588 13.7325 6.7435 13.8656 6.83221C14.4754 7.19814 14.9633 7.61951 15.3182 8.08524Z" fill="#303030"/>
<path d="M17.5913 10.2364C17.5913 9.10532 16.6709 8.19604 15.5509 8.19604H15.3957C15.8171 8.77266 16.0278 9.4158 16.0278 10.07C16.0278 10.2031 16.0167 10.3362 15.9945 10.4692C15.9169 11.0348 15.6729 11.5781 15.2959 12.0771C15.3957 12.1547 15.4955 12.2323 15.5842 12.321C15.9169 12.6537 16.1497 13.0529 16.2606 13.4964L16.3826 13.3301C16.7153 12.8977 16.8594 12.3543 16.7818 11.8221C16.7153 11.312 16.4602 10.8462 16.061 10.5247H17.5802V10.2364H17.5913Z" fill="#303030"/>
<path d="M6.38065 5.86751C7.5117 5.86751 8.42098 4.94715 8.42098 3.82719C8.42098 2.69614 7.50061 1.78687 6.38065 1.78687C5.24961 1.78687 4.34033 2.70723 4.34033 3.82719C4.34033 4.94715 5.26069 5.86751 6.38065 5.86751ZM6.38065 2.70723C6.24759 2.85138 6.15888 3.05098 6.15888 3.27275C6.15888 3.70521 6.51372 4.06005 6.94618 4.06005C7.16795 4.06005 7.36755 3.97134 7.5117 3.82719V3.83828C7.5117 4.45924 7.01271 4.95824 6.39174 4.95824C5.77078 4.95824 5.27178 4.45924 5.27178 3.83828C5.26069 3.20622 5.75969 2.70723 6.38065 2.70723Z" fill="#303030"/>
<path d="M11.2928 5.86751C12.4238 5.86751 13.3331 4.94715 13.3331 3.82719C13.3331 2.69614 12.4127 1.78687 11.2928 1.78687C10.1617 1.78687 9.25244 2.70723 9.25244 3.82719C9.25244 4.94715 10.1728 5.86751 11.2928 5.86751ZM11.2928 2.70723C11.3039 2.70723 11.3039 2.70723 11.2928 2.70723C11.1597 2.85138 11.071 3.05098 11.071 3.27275C11.071 3.70521 11.4258 4.06005 11.8583 4.06005C12.0801 4.06005 12.2797 3.97134 12.4238 3.82719V3.83828C12.4238 4.45924 11.9248 4.95824 11.3039 4.95824C10.6829 4.95824 10.1839 4.45924 10.1839 3.83828C10.1728 3.20622 10.6829 2.70723 11.2928 2.70723Z" fill="#303030"/>
<path d="M3.9412 12.1216C2.81015 12.1216 1.90088 13.0309 1.90088 14.1619C1.90088 15.293 2.81015 16.2022 3.9412 16.2022C4.17406 16.2022 4.40693 16.1579 4.61761 16.0803C4.59544 16.0581 4.57326 16.047 4.56217 16.0248C3.97447 15.4371 3.76378 14.672 4.11862 14.3282C4.46237 13.9845 5.22749 14.1841 5.81519 14.7718C5.83737 14.794 5.84846 14.8161 5.87064 14.8272C5.94826 14.6165 5.99261 14.3948 5.99261 14.1508C5.98152 13.0419 5.06116 12.1216 3.9412 12.1216Z" fill="#303030"/>
<path d="M13.7434 12.1216C12.6124 12.1216 11.7031 13.0309 11.7031 14.1619C11.7031 14.3948 11.7475 14.6276 11.8251 14.8383C11.8473 14.8161 11.8584 14.794 11.8805 14.7829C12.4682 14.1952 13.2334 13.9845 13.5771 14.3393C13.9209 14.6831 13.7213 15.4482 13.1336 16.0359C13.1114 16.0581 13.1003 16.0692 13.0781 16.0913C13.2888 16.169 13.5106 16.2133 13.7545 16.2133C14.8856 16.2133 15.7949 15.304 15.7949 14.173C15.7838 13.0419 14.8745 12.1216 13.7434 12.1216Z" fill="#303030"/>
<path d="M25.9068 6.37183C26.5389 6.37183 27.0711 6.44945 27.4925 6.60469C27.925 6.75993 28.2687 6.98171 28.5238 7.27001C28.7788 7.55832 28.9673 7.90207 29.0782 8.30126C29.1891 8.70046 29.2445 9.144 29.2445 9.63191V14.6218C28.9562 14.6884 28.5127 14.766 27.9139 14.8547C27.3262 14.9434 26.6498 14.9878 25.9068 14.9878C25.4189 14.9878 24.9643 14.9434 24.554 14.8436C24.1437 14.7549 23.8 14.5996 23.5117 14.389C23.2234 14.1783 23.0016 13.9011 22.8353 13.5684C22.6689 13.2357 22.5913 12.8144 22.5913 12.3265C22.5913 11.8496 22.68 11.4615 22.8685 11.1289C23.057 10.8073 23.301 10.5412 23.6115 10.3305C23.922 10.1309 24.2879 9.97566 24.7093 9.88695C25.1195 9.79824 25.552 9.75388 26.0066 9.75388C26.2173 9.75388 26.4391 9.76497 26.672 9.79824C26.9048 9.82042 27.1488 9.86477 27.4149 9.9313V9.62082C27.4149 9.39904 27.3927 9.18836 27.3373 8.98876C27.2818 8.78916 27.1931 8.61175 27.0601 8.4565C26.927 8.30126 26.7607 8.19037 26.5389 8.10166C26.3282 8.01296 26.051 7.97969 25.7294 7.97969C25.2859 7.97969 24.8867 8.01296 24.5207 8.07949C24.1548 8.14602 23.8554 8.21255 23.6226 8.30126L23.3897 6.75993C23.6336 6.67122 23.9774 6.5936 24.4431 6.50489C24.8867 6.41618 25.3746 6.37183 25.9068 6.37183ZM26.0621 13.4686C26.6498 13.4686 27.0933 13.4353 27.4038 13.3799V11.273C27.304 11.2398 27.1488 11.2065 26.9492 11.1843C26.7496 11.1511 26.5278 11.14 26.2838 11.14C26.0732 11.14 25.8625 11.1511 25.6518 11.1843C25.4411 11.2176 25.2415 11.273 25.0752 11.3617C24.8978 11.4505 24.7647 11.5613 24.6538 11.7166C24.554 11.8718 24.4986 12.0603 24.4986 12.2932C24.4986 12.7478 24.6427 13.0583 24.9199 13.2246C25.1972 13.3799 25.5742 13.4686 26.0621 13.4686Z" fill="#303030"/>
<path d="M33.3807 4.17638C33.3807 4.53122 33.2698 4.81952 33.037 5.03021C32.8041 5.2409 32.538 5.34069 32.2164 5.34069C31.8948 5.34069 31.6176 5.2409 31.3848 5.03021C31.1519 4.81952 31.041 4.54231 31.041 4.17638C31.041 3.81045 31.1519 3.52215 31.3848 3.31146C31.6176 3.10077 31.8948 3.00098 32.2164 3.00098C32.5269 3.00098 32.8041 3.10077 33.037 3.31146C33.2588 3.52215 33.3807 3.81045 33.3807 4.17638ZM33.17 14.8105H31.2628V6.58263H33.17V14.8105Z" fill="#303030"/>
<path d="M37.7164 14.8103C37.1952 13.7347 36.6519 12.4928 36.0974 11.0845C35.543 9.68736 35.044 8.17929 34.5894 6.58252H36.6186C36.7295 7.04825 36.8736 7.53615 37.0178 8.06841C37.173 8.60066 37.3283 9.13292 37.5057 9.65409C37.6831 10.1863 37.8605 10.6964 38.0379 11.1954C38.2265 11.6944 38.3928 12.138 38.548 12.5372C38.7033 12.138 38.8696 11.6944 39.0581 11.1954C39.2355 10.6964 39.4129 10.1863 39.5904 9.65409C39.7678 9.12183 39.9341 8.58958 40.0894 8.06841C40.2446 7.53615 40.3887 7.04825 40.4996 6.58252H42.4623C42.0077 8.19038 41.5087 9.68736 40.9543 11.0845C40.3998 12.4817 39.8565 13.7236 39.3353 14.8103H37.7164Z" fill="#303030"/>
<path d="M42.9058 10.7298C42.9058 10.009 43.0166 9.37697 43.2273 8.82253C43.438 8.27919 43.7263 7.82455 44.0812 7.45862C44.436 7.09269 44.8463 6.82657 45.312 6.63806C45.7777 6.44955 46.2435 6.36084 46.7314 6.36084C47.8624 6.36084 48.7495 6.71568 49.3816 7.41427C50.0136 8.11286 50.3352 9.16628 50.3352 10.5635C50.3352 10.6633 50.3352 10.7852 50.3241 10.9183C50.3241 11.0514 50.313 11.1623 50.3019 11.2731H44.8796C44.935 11.9385 45.1679 12.4485 45.5781 12.8034C45.9884 13.1693 46.5983 13.3467 47.3745 13.3467C47.8402 13.3467 48.2616 13.3024 48.6386 13.2248C49.0267 13.136 49.3261 13.0473 49.5479 12.9586L49.8029 14.511C49.7031 14.5665 49.559 14.6219 49.3705 14.6774C49.182 14.7328 48.9824 14.7883 48.7384 14.8326C48.5056 14.877 48.2505 14.9213 47.9733 14.9546C47.6961 14.9879 47.4189 14.9989 47.1417 14.9989C46.4209 14.9989 45.7888 14.8881 45.2566 14.6774C44.7243 14.4667 44.2808 14.1673 43.937 13.7792C43.5933 13.3911 43.3382 12.9475 43.1608 12.4264C42.9945 11.9163 42.9058 11.3508 42.9058 10.7298ZM48.4279 9.88705C48.4279 9.62092 48.3947 9.37697 48.3171 9.14411C48.2394 8.91124 48.1396 8.70056 47.9955 8.53423C47.8513 8.35681 47.685 8.22374 47.4743 8.12394C47.2747 8.02415 47.0308 7.97979 46.7425 7.97979C46.4541 7.97979 46.188 8.03523 45.9662 8.14612C45.7445 8.25701 45.556 8.40116 45.4118 8.57858C45.2566 8.756 45.1457 8.96669 45.057 9.18846C44.9683 9.42132 44.9128 9.65419 44.8796 9.89814H48.4279V9.88705Z" fill="#303030"/>
<path d="M52.0317 6.84882C52.3977 6.74902 52.8745 6.64923 53.4622 6.54943C54.0499 6.44963 54.7041 6.40527 55.4138 6.40527C56.0902 6.40527 56.6446 6.49398 57.0993 6.68249C57.5539 6.871 57.9088 7.12604 58.1749 7.4587C58.441 7.79136 58.6295 8.19056 58.7404 8.65628C58.8513 9.12201 58.9067 9.63209 58.9067 10.1865V14.8105H56.9995V10.4859C56.9995 10.0424 56.9662 9.66535 56.9108 9.36596C56.8553 9.05548 56.7555 8.80044 56.6225 8.61193C56.4894 8.42342 56.312 8.27927 56.0902 8.19056C55.8684 8.10185 55.5912 8.05749 55.2696 8.05749C55.0257 8.05749 54.7817 8.06858 54.5156 8.10185C54.2495 8.13511 54.061 8.15729 53.939 8.17947V14.8105H52.0317V6.84882Z" fill="#303030"/>
</g>
<defs>
<clipPath id="clip0_693_1607">
<rect width="58.8135" height="16.4264" fill="white" transform="translate(0.0932617 0.786865)"/>
</clipPath>
</defs>
</svg>
