<svg width="18" height="18" viewBox="0 0 18 18" xmlns="http://www.w3.org/2000/svg">
    <g fill="currentColor">
        <path d="M3.77946 16.3L6.45731 13.8712C6.55137 13.7782 6.67807 13.7256 6.81035 13.7247H16.5051C16.5816 13.7247 16.655 13.6949 16.7097 13.6415C16.7645 13.5881 16.7962 13.5155 16.7981 13.4391V1.30377C16.7962 1.22734 16.7645 1.15469 16.7097 1.10132C16.655 1.04795 16.5816 1.01809 16.5051 1.01811H1.30377C1.22928 1.02002 1.15849 1.05096 1.1065 1.10432C1.0545 1.15769 1.02541 1.22926 1.02544 1.30377V13.442C1.02542 13.4801 1.03305 13.5179 1.04786 13.553C1.06267 13.5882 1.08437 13.62 1.11167 13.6466C1.13898 13.6732 1.17134 13.6941 1.20685 13.708C1.24236 13.722 1.28029 13.7286 1.31842 13.7276H3.27114C3.40609 13.728 3.53538 13.7819 3.63067 13.8775C3.72595 13.973 3.77946 14.1025 3.77946 14.2374V16.3ZM3.95086 9.70794C3.81487 9.70794 3.68446 9.76196 3.58831 9.85811C3.49216 9.95427 3.43814 10.0847 3.43814 10.2207C3.43814 10.3566 3.49216 10.4871 3.58831 10.5832C3.68446 10.6794 3.81487 10.7334 3.95086 10.7334H9.96137C10.0974 10.7334 10.2278 10.6794 10.3239 10.5832C10.4201 10.4871 10.4741 10.3566 10.4741 10.2207C10.4741 10.0847 10.4201 9.95427 10.3239 9.85811C10.2278 9.76196 10.0974 9.70794 9.96137 9.70794H3.95086ZM3.95086 3.86882C3.81487 3.86882 3.68446 3.92284 3.58831 4.01899C3.49216 4.11515 3.43814 4.24556 3.43814 4.38154C3.43814 4.51752 3.49216 4.64793 3.58831 4.74408C3.68446 4.84024 3.81487 4.89426 3.95086 4.89426H13.8712C13.9404 4.89797 14.0095 4.88755 14.0745 4.86364C14.1395 4.83974 14.1989 4.80284 14.2492 4.75521C14.2995 4.70757 14.3395 4.6502 14.3669 4.58658C14.3942 4.52297 14.4083 4.45445 14.4083 4.3852C14.4083 4.31595 14.3942 4.24743 14.3669 4.18382C14.3395 4.1202 14.2995 4.06283 14.2492 4.01519C14.1989 3.96756 14.1395 3.93066 14.0745 3.90676C14.0095 3.88285 13.9404 3.87243 13.8712 3.87614L3.95086 3.86882ZM3.95086 6.78838C3.82057 6.79537 3.69792 6.85205 3.60817 6.94675C3.51841 7.04145 3.46839 7.16696 3.46839 7.29744C3.46839 7.42791 3.51841 7.55342 3.60817 7.64812C3.69792 7.74282 3.82057 7.7995 3.95086 7.80649H12.8414C12.9717 7.7995 13.0943 7.74282 13.1841 7.64812C13.2738 7.55342 13.3238 7.42791 13.3238 7.29744C13.3238 7.16696 13.2738 7.04145 13.1841 6.94675C13.0943 6.85205 12.9717 6.79537 12.8414 6.78838H3.95086ZM7.01251 14.7458L3.64322 17.8323C3.57424 17.9085 3.48383 17.9621 3.38385 17.986C3.28388 18.0099 3.17901 18.0031 3.08301 17.9663C2.98701 17.9296 2.90436 17.8646 2.84591 17.7801C2.78746 17.6955 2.75594 17.5953 2.75549 17.4925V14.7458H1.30377C0.958106 14.7454 0.626713 14.6079 0.382293 14.3635C0.137873 14.119 0.000387731 13.7877 0 13.442L0 1.30377C0.000387731 0.958106 0.137873 0.626713 0.382293 0.382293C0.626713 0.137873 0.958106 0.000387731 1.30377 0L16.5051 0C16.8508 0.00077225 17.1821 0.138335 17.4267 0.382629C17.6712 0.626924 17.8092 0.95809 17.8103 1.30377V13.442C17.8092 13.7877 17.6712 14.1188 17.4267 14.3631C17.1821 14.6074 16.8508 14.745 16.5051 14.7458H7.01251Z"/>
    </g>
</svg>
