<?xml version="1.0" encoding="UTF-8"?>
<svg width="26px" height="26px" viewBox="0 0 26 26" version="1.1" xmlns="http://www.w3.org/2000/svg" xmlns:xlink="http://www.w3.org/1999/xlink">
    <title>mysql-6</title>
    <g id="Databases-multi-engine-options" stroke="none" stroke-width="1" fill="none" fill-rule="evenodd">
        <g id="Create-Database-Copy-9" transform="translate(-223.000000, -453.000000)" fill="#00546B" fill-rule="nonzero">
            <g id="mysql-6" transform="translate(223.000000, 453.000000)">
                <path d="M23.9487082,19.7368503 C22.5340873,19.7015863 21.4377002,19.8430488 20.5181661,20.2319689 C20.2528865,20.3379641 19.8284393,20.3380657 19.7930687,20.6740391 C19.9345511,20.8155015 19.9522364,21.045378 20.0760335,21.2397873 C20.2884604,21.5933418 20.6595469,22.0707776 20.9955676,22.3184385 C21.3668573,22.6012618 21.7383503,22.8840851 22.1272237,23.1316444 C22.8169505,23.5560318 23.5951038,23.8034895 24.2670436,24.2278768 C24.6562219,24.4752329 25.0449937,24.7937267 25.4340703,25.0588672 C25.6286086,25.2001264 25.7523041,25.4302061 26,25.5185185 L26,25.4655717 C25.8761012,25.3063248 25.8407306,25.07655 25.7170352,24.8997219 C25.5403854,24.7228938 25.3633291,24.5637486 25.1864761,24.3869205 C24.673704,23.6974942 24.0371347,23.0962788 23.3475096,22.6012618 C22.7816815,22.2122401 21.5437103,21.6818575 21.3139031,21.0275936 C21.3139031,21.0275936 21.2961161,21.0100124 21.2785324,20.9923296 C21.6675075,20.956964 22.1272237,20.8155015 22.4987167,20.7094047 C23.0999153,20.5501578 23.6480581,20.585625 24.2670436,20.4264798 C24.5499068,20.3557486 24.8328717,20.2673345 25.1157349,20.1789205 L25.1157349,20.0198768 C24.7976027,19.7015863 24.5676938,19.2773006 24.231673,18.9766928 C23.3298243,18.1985477 22.3394473,17.4383902 21.3139031,16.8019108 C20.7656587,16.4482547 20.0582466,16.2183782 19.4747332,15.9178721 C19.2627129,15.8116736 18.9089052,15.7587268 18.7852097,15.5818987 C18.4667726,15.1929786 18.2899196,14.6802788 18.0601123,14.2205258 C17.5474418,13.2479714 17.0521517,12.1695234 16.6100192,11.1441239 C16.291887,10.4544944 16.0973487,9.76486489 15.708272,9.12848708 C13.8868891,6.12271472 11.9063386,4.30158882 8.86487309,2.51572691 C8.2105169,2.14448959 7.43246523,1.98534432 6.60135766,1.79093507 C6.15942837,1.77315064 5.71719417,1.73788665 5.27516325,1.72010221 C4.99219841,1.59632256 4.70923357,1.26045085 4.46163934,1.10130559 C3.45388202,0.464724524 0.854244201,-0.914229566 0.111563138,0.906896331 C-0.365940028,2.05607555 0.818975236,3.18757197 1.22553391,3.77120623 C1.52638733,4.17780917 1.91526071,4.63746053 2.12748434,5.09721352 C2.25128145,5.397618 2.28655042,5.71611178 2.41034754,6.03430068 C2.69341402,6.81203933 2.95849027,7.67859851 3.32998326,8.4035936 C3.52452159,8.77483093 3.73664358,9.16375106 3.98423781,9.4997244 C4.12572023,9.69413366 4.37321283,9.78264932 4.42637037,10.1008382 C4.17887778,10.4544944 4.16109084,10.9849786 4.01950678,11.4269471 C3.38293753,13.4249011 3.6306334,15.9001893 4.53238055,17.367659 C4.81524375,17.8095259 5.48728524,18.7822836 6.38913403,18.410843 C7.18497264,18.0926541 7.00811961,17.0848357 7.23782526,16.200797 C7.29108445,15.9884 7.25571385,15.8471408 7.36172402,15.7056784 L7.36172402,15.7411456 C7.60931826,16.236061 7.85681085,16.7135984 8.08671978,17.2086154 C8.63496416,18.0748697 9.58976721,18.9766928 10.3855042,19.5779083 C10.8100531,19.8959956 11.1459722,20.4441626 11.6765313,20.6386735 L11.6765313,20.5855234 L11.641059,20.5855234 C11.5349472,20.4263782 11.3757795,20.3557486 11.2343987,20.2318673 C10.9161649,19.91378 10.5623572,19.5247582 10.3148646,19.1711021 C9.57228519,18.1808649 8.91782736,17.0847341 8.33431402,15.953136 C8.05145082,15.4051723 7.80375494,14.8039568 7.57394765,14.2558914 C7.4677342,14.0434945 7.4677342,13.7254072 7.29098281,13.619412 C7.02570327,14.0083321 6.63672826,14.3443055 6.44218993,14.8216396 C6.10637247,15.5818987 6.07090022,16.5189859 5.94710311,17.491337 C5.8763619,17.5092231 5.91163086,17.491337 5.87626026,17.5269059 C5.31053386,17.3852402 5.11599553,16.8019108 4.90367026,16.3067922 C4.37311119,15.0515161 4.28468468,13.0358794 4.74460418,11.5860924 C4.8684013,11.2147535 5.39896037,10.0478914 5.18673674,9.69423528 C5.08062493,9.35826194 4.72681724,9.16375106 4.53238055,8.89861058 C4.30257326,8.56263724 4.05487738,8.13845312 3.8958113,7.76701254 C3.47136404,6.77687696 3.25914041,5.68064454 2.79942419,4.69050896 C2.58720056,4.23075597 2.21601249,3.75352342 1.91526071,3.32913605 C1.5793416,2.85180188 1.20795025,2.51572691 0.942670713,1.94997871 C0.854345841,1.75556945 0.730447084,1.43727892 0.871929503,1.22508524 C0.907300108,1.08362278 0.977939678,1.03067598 1.11952374,0.995310367 C1.34943267,0.800697862 2.00378886,1.04825716 2.23349451,1.15435401 C2.8878507,1.41939287 3.43599344,1.66715542 3.98423781,2.03839274 C4.23173041,2.21522082 4.49700994,2.55119415 4.81524375,2.63960819 L5.1866351,2.63960819 C5.75256478,2.76328622 6.38903239,2.67497381 6.91959146,2.83401745 C7.85691249,3.13452354 8.70560373,3.57659372 9.46607173,4.05402952 C11.7826431,5.52149927 13.6922492,7.60786728 14.9832763,10.1008382 C15.1954999,10.5073395 15.2838248,10.8788817 15.4783631,11.3030659 C15.8498561,12.1695234 16.3095723,13.0535622 16.6807604,13.9022353 C17.0521517,14.733124 17.4057561,15.5818987 17.9363152,16.2715282 C18.2015947,16.6426639 19.2625096,16.8372764 19.7400128,17.0317873 C20.0937188,17.1908309 20.6419632,17.332395 20.960197,17.5268043 C21.5613956,17.89794 22.1625943,18.3225306 22.728524,18.7290319 C23.0114888,18.9412256 23.8955506,19.3832958 23.9487082,19.7368503 Z" id="Path"></path>
                <path d="M5.87597906,4.33333333 C5.56909429,4.33333333 5.35250027,4.37032455 5.13580247,4.42538861 L5.13580247,4.46216845 L5.17191877,4.46216845 C5.31648775,4.75640713 5.56909429,4.95869622 5.74957201,5.21604938 C5.89414099,5.51018238 6.02044426,5.80452675 6.16501324,6.09876543 C6.18296761,6.08026983 6.20102576,6.0619856 6.20102576,6.0619856 C6.45394365,5.87798073 6.58024691,5.58384774 6.58024691,5.14248971 C6.47189801,5.01386598 6.45383986,4.88513655 6.36354911,4.75640713 C6.25530399,4.57240226 6.02044426,4.48055836 5.87597906,4.33333333 L5.87597906,4.33333333 Z" id="Path"></path>
            </g>
        </g>
    </g>
</svg>