<?xml version="1.0" encoding="utf-8"?><!-- Uploaded to: SVG Repo, www.svgrepo.com, Generator: SVG Repo Mixer Tools -->
<svg width="16" height="16" viewBox="0 0 16 16" xmlns="http://www.w3.org/2000/svg" mirror-in-rtl="true">
  <path fill="currentColor" d="M14.228 16.227a1 1 0 0 1-.707-1.707l1-1a1 1 0 0 1 1.416 1.414l-1 1a1 1 0 0 1-.707.293zm-5.638 0a1 1 0 0 1-.707-1.707l6.638-6.638a1 1 0 0 1 1.416 1.414l-6.638 6.638a1 1 0 0 1-.707.293zm-5.84 0a1 1 0 0 1-.707-1.707L14.52 2.043a1 1 0 1 1 1.415 1.414L3.457 15.934a1 1 0 0 1-.707.293z"/>
</svg>