<svg width="12" height="14" viewBox="0 0 12 14" fill="none" xmlns="http://www.w3.org/2000/svg">
<path fill-rule="evenodd" clip-rule="evenodd" d="M4.65177 7.19599L4.73895 7.2763L4.81347 7.36848C5.01342 7.65694 5.0009 8.04492 4.78278 8.3199L4.70247 8.40708L3.44345 9.58641L11.1625 9.58642L11.2629 9.59265C11.6573 9.64202 11.9625 9.97858 11.9625 10.3864C11.9625 10.7943 11.6573 11.1308 11.2629 11.1802L11.1625 11.1864L3.51845 11.1864L4.72145 12.3136L4.80176 12.4008C5.04412 12.7063 5.03264 13.1514 4.75793 13.4444C4.48322 13.7374 4.03984 13.7776 3.71932 13.5554L3.62715 13.4809L0.911633 10.9351L0.834375 10.8518C0.600257 10.5605 0.600257 10.1424 0.834375 9.85115L0.911633 9.76782L3.60817 7.23982L3.70034 7.1653C3.98881 6.96535 4.37679 6.97787 4.65177 7.19599ZM8.30065 0.458253L8.39282 0.532779L11.0894 3.06078C11.3984 3.3505 11.4241 3.82431 11.1666 4.14471L11.0894 4.22804L8.37384 6.77383C8.05151 7.07601 7.54524 7.05968 7.24306 6.73735C6.96835 6.44433 6.95687 5.99928 7.19922 5.69375L7.27954 5.60657L8.48245 4.47841L0.838452 4.47937C0.396624 4.47937 0.0384521 4.1212 0.0384521 3.67937C0.0384521 3.27153 0.34364 2.93497 0.738102 2.88561L0.838452 2.87937L8.55545 2.87841L7.29852 1.70004C7.00549 1.42533 6.96535 0.981948 7.18751 0.661433L7.26204 0.569256C7.53675 0.276229 7.98013 0.236093 8.30065 0.458253Z" fill="currentColor"/>
</svg>
