<svg xmlns="http://www.w3.org/2000/svg" width="26" height="20" viewBox="0 0 26 20">
  <path fill="none" stroke="currentColor" stroke-linecap="round" stroke-linejoin="round" stroke-width="1.2" d="M3.5 4.5L13.5 4.5M3.5 7.5L13.5 7.5M3.5 10.5L20.5 10.5M3.5 13.5L20.5 13.5M19.5.793C19.313.605 19.058.5 18.793.5L1.5.5C.948.5.5.948.5 1.5L.5 16.5C.5 17.052.948 17.5 1.5 17.5L22.5 17.5C23.052 17.5 23.5 17.052 23.5 16.5L23.5 5.207C23.5 4.942 23.395 4.687 23.207 4.5L19.5.793z" transform="translate(1 1)"/>
</svg>
