<svg enable-background="new 0 0 72 72" height="72" viewBox="0 0 72 72" width="72" xmlns="http://www.w3.org/2000/svg"><path d="m45.3 37.9c3.2-.3 3.3-2.5 3.3-2.8v-10.9c-1.1 1.1-2.6 1.8-3.3 2zm-1.1 10.5c0-.6-.4-.9-1.1-.9s-1.2.6-1.3 1.3v.3h.7c1.4-.1 1.7-.3 1.7-.7zm-20.8-13.3s0 1.1.9 1.8c.6.6 1.4.9 2.5.9v-11.6c-.8-.3-2.2-.9-3.3-2v10.9zm10.2-7.8c-.1-.1-.2-.1-.3-.1v.3 6.8c0 .2 0 .3.1.3 0 0 .1 0 .2-.1l5.9-3.4c.2-.1.2-.2.2-.2s-.1-.1-.2-.2zm15.1 20.2c-.7 0-1.3.7-1.2 1.7 0 1.2.6 2 1.5 2 .8 0 1.2-.6 1.2-1.7-.1-1.8-1-2-1.5-2zm8.4 2.9c0 .5.4.8 1 .8s1-.3 1-.9v-.6h-.6c-1-.1-1.4.1-1.4.7zm-42.5-4.3-.1.1c-.4.8-.9 2-1.1 2.9v.1h2.4v-.1c-.3-1-.8-2.3-1.2-3zm21.4-46.1c-19.9 0-36 16.1-36 36s16.1 36 36 36 36-16.1 36-36-16.1-36-36-36zm-18.8 52.1c-.6 0-.9-.3-.9-.6 0-.4-.1-.8-.2-1.2v-.1h-3v.1c-.1.6-.3 1.2-.4 1.8h-.5c-.4 0-.6-.2-.6-.6 0-1 1.3-5.2 2.4-6.5h.6c.5 0 .9.2 1.1.6.6 1.1 1.7 4.2 2 6.5zm6.2 0h-.4c-.6 0-1-.4-1-.9v-2.2c0-1.2-.7-1.5-1.2-1.5-.7 0-1.1.5-1.1 1.3v3.2h-.4c-.5 0-.9-.4-.9-.9v-2.5c0-1.2.8-2.4 2.5-2.4 1.2 0 2.4.8 2.4 2.4v3.5zm4.4-5.1c0 .2-.2.6-.8.6h-1.2v2.3c0 .7.3 1.1 1 1.1.4 0 .8-.1 1-.2v.4c0 .6-.4.9-1.2.9-1.4 0-2.1-.7-2.1-2v-3.4c0-.5.1-.7.4-1.1.2-.2.4-.4.6-.4h.3v1.3h2zm.4-8.4c0 .4-.3.7-.7.7-.1 0-.2 0-.3 0-1.7 0-3.1-.5-4-1.4-1.3-1.2-1.3-2.8-1.3-2.9v-13.5c0-3.5 7.3-5.2 14.1-5.2s14.1 1.6 14.1 5.2v13.6c0 1.1-.5 2.1-1.3 2.8-1 1-2.5 1.4-4.4 1.4-.4 0-.7-.3-.7-.7v-12.9c0-.3.2-.7.6-.7 0 0 3.6-1 4.3-3.6-.1-1.9-5.8-3.6-12.6-3.6s-12.5 1.6-12.6 3.6c.6 2.6 4.2 3.5 4.3 3.6.3.1.5.4.5.7zm13.9-18.4c.5.1 1.1.3 1.6.5l-3.2 2.3c-.4-.2-.9-.4-1.3-.5zm-4.1 1.8c-.4-.1-.9-.2-1.3-.3l2.4-2c.5.1 1.1.2 1.7.3zm6.7-1c.5.2 1.1.4 1.6.7l-4 2.3c-.3-.2-.6-.4-1-.6zm-19.2.4s5.3-2.5 12.4-1.9l-2.3 1.9c-5.3-.9-10.1 0-10.1 0zm13.7 30.7c-.6 0-.9-.3-.9-.9 0-.9-.2-3.6-.3-4.3v-.2l-.1.2c0 .1 0 .1-.1.2-.1.2-.2.4-.3.7l-1 3.1c-.2.5-.4 1-.6 1.2h-.4c-.5 0-.9-.4-1.1-1.1l-1-3c-.1-.4-.3-.8-.4-1.1v-.2.2c-.2 1.1-.3 3.9-.3 5.2h-.4c-.5 0-.8-.3-.8-.9 0-1.6.3-4.8.6-6.2h.3c1 0 1.7.4 1.9 1.2l1 2.8c.2.4.3.9.4 1.4l.1.3.1-.3c0-.2.1-.4.2-.6l.9-2.7c.3-1.1.8-1.8 1.1-2.1h-.1c.8 0 1.3.5 1.4 1.4.1 1.1.3 4.1.3 5.7zm-4.8-16.3c-.4.2-.7.3-1 .3s-.5-.1-.7-.2c-.5-.3-.8-.9-.8-1.6v-6.8c0-.7.3-1.3.8-1.6s1.1-.3 1.8.1l5.9 3.4c.6.4 1 .9 1 1.5s-.4 1.1-1 1.5zm7.4 14.1c.1.7.8 1.2 1.7 1.2.5 0 1.2-.1 1.7-.5v.4c0 .8-.7 1.2-2 1.2s-2.7-1-2.7-2.8 1.1-3 2.7-3c1.1 0 2.2.7 2.2 2.1 0 1-.7 1.3-2.6 1.3zm9.6-.4c0 1.8-.9 2.7-2.7 2.7-1.4 0-2.6-1.3-2.6-2.8 0-1.9.9-3 2.5-3 .5 0 1.1.4 1.4.9l.1.3v-2.9h.4c.7 0 .9.5.9.9zm2.1-5c.4 0 .8.3.8.8 0 .4-.3.8-.8.8-.4 0-.8-.3-.8-.8.1-.5.4-.8.8-.8zm1.8 6.9c0 .6-.2.8-.8.8-1.1 0-1.6-.6-1.6-1.7v-3.8h.3c.6 0 .9.3.9 1v2.7c0 .6.3.8.9.8h.2zm3 .8h-.3c-1.3 0-2.2-.7-2.2-1.7 0-1.1 1-1.7 2.8-1.7h.6v-.1c0-.9-.5-1.1-1.3-1.1-.9 0-1.5.3-1.8.6v-.3c0-.7.6-1.3 2-1.3 1.1 0 2.3.4 2.3 2.5v1.3c-.1 1-.9 1.8-2.1 1.8z" fill="#fff"/></svg>