<?xml version="1.0" encoding="UTF-8"?>
<svg id="Layer_1" data-name="Layer 1" xmlns="http://www.w3.org/2000/svg" version="1.1" viewBox="0 0 1000 1000">
  <defs>
    <style>
      .cls-1 {
        fill: #fff;
        stroke-width: 0px;
      }
    </style>
  </defs>
  <polygon class="cls-1" points="448.3 335.7 448.3 335.7 448.3 335.7 448.3 335.7"/>
  <path class="cls-1" d="M583.6,390.9v.4l-39.4-3.1,38.1,37.4-49.8-19.4,29.3,44.8-45.4-35.2,14.5,53.6-24.6-46.8-4,54.1h-.5l-16.3-54-19.6,52.5,4.8-57.9-34.6,49,14.7-55c-15.6,15.3-29.3,37-36.8,56.3.5.6,1.1,1.1,1.6,1.7v.3c2.1,2.2,4.2,4.4,6.5,6.5.9.9,1.8,1.7,2.8,2.6,0,.1.2.2.4.3,1,.9,1.9,1.7,2.9,2.5,13.4,3.5,27.4,5.3,41.9,5.3,35.2,0,67.8-11,94.6-29.7,17.6-12.3,32.7-27.8,44.5-45.9l-.4-.3c.8-1.1,1.6-2.3,2.3-3.4-8.5-5.9-17.8-11.7-27.4-16.6h0Z"/>
  <path class="cls-1" d="M388.3,339.6h.1c4,4,8.3,7.9,12.8,11.5l39.7-1.2-45.2-33.4c-3.9,6.4-7.2,13.2-9.9,20.4.8.9,1.7,1.8,2.5,2.7Z"/>
  <polygon class="cls-1" points="395.6 316.3 395.5 316.5 395.7 316.5 395.8 316.5 395.6 316.3"/>
  <path class="cls-1" d="M382.6,344.7c-.6,2.5-1.1,5.1-1.5,7.7v.2c-2.9,13.4-3.5,26.7-2,39.8,9.8,1.8,17.5,9.6,19.1,19.5l43.3-27.7-58.8-4.3,37.6-8.1c-9-4.6-17.5-10.3-25.2-16.9l-12.3-3.2,8.4-.3c-2.9-2.6-5.6-5.3-8.2-8.2,0,.5-.3,1-.4,1.5Z"/>
  <path class="cls-1" d="M423.5,300.3c-3.3,4.6-8.7,7.7-14.8,7.7s-4.4-.4-6.4-1.2c-2.3,3.1-4.4,6.3-6.5,9.6l52.5,19.3c.5-.7,1.1-1.4,1.7-2.1l-26.5-33.3h0Z"/>
  <path class="cls-1" d="M419.1,432.8c0,.1-.1.2-.2.4l.3-.3h-.1,0Z"/>
  <path class="cls-1" d="M437.1,368.2v-2.4l-24.3-6.3c5.9,3.8,12.2,7.1,18.7,9.9l5.6-1.2h0Z"/>
  <path class="cls-1" d="M156.6,743.6c-16.7,16.7-21.1,39.6-21.1,52.7h0v.3c0,21.8,3.4,32.5,21.4,32.5s35.1-12.2,43.8-26.7c-.2,1.8-.7,6-.9,8.9-.6,8.7-2,17.8,1.8,17.8s17.6-.9,24.9-4c-.5-4.7,0-17.4,1.1-26.5,2.4-21.4,7.8-58.3,10-68.1-8.9-1.8-17.8-5.1-33.6-5.1s-33.2,3.5-47.4,18.2h0ZM207.7,750.7c-5.6,36.5-25.4,55.6-36.3,55.6h-.2c-4.4,0-7.1-3.3-7.1-14.2s3.3-24.5,11.1-35.4c7.5-10.3,16-12.7,24.2-12.7s6.7.7,9.1,1.6c-.5,2.2-.7,2.9-.9,5.1h0Z"/>
  <path class="cls-1" d="M104.9,745.1c4.9,0,8.9.8,13.1,2.4,3.6,0,9.2-10,8.5-16.2-4-4-12-6-20.5-6h-.2c-37.4,0-60.3,39.4-60.3,65.9s16.4,37.8,33.8,37.8,29.4-6,36.5-13.1c4-4,5.3-8.7,5.3-12.7s-2-7.6-3.6-8.7c-6.3,5.6-18,12.9-28.3,12.9s-14.7,0-14.7-20.7,10.1-41.6,30.3-41.6h0Z"/>
  <path class="cls-1" d="M290.8,744.7c6,0,7.8.9,11.1,2,7.8,2.9,12.7-7.6,12.9-13.8-4-4.2-12.7-7.6-21.8-7.6h-.2c-23.1,0-38.9,15.4-38.9,33.8s3.6,16.7,14.9,25.1c13.6,9.6,16.9,12.9,16.9,16.7s-4.7,7.8-12,7.8-17.4-3.1-23.1-6c-4.5-2.2-7.6,10.9-3.6,17.6,3.1,4.4,12.7,8.7,23.6,8.7,26.7,0,42-17.6,42-33.8s-4.2-16.7-14.9-24.5c-14.9-10.5-18-13.6-18-17.8s5.1-8.2,11.1-8.2Z"/>
  <polygon class="cls-1" points="265.8 306.6 265.8 306.6 265.8 306.6 265.8 306.6"/>
  <path class="cls-1" d="M367.6,744.7c6,0,7.8.9,11.1,2,7.8,2.9,12.7-7.6,12.9-13.8-4-4.2-12.7-7.6-21.8-7.6h-.2c-23.1,0-38.9,15.4-38.9,33.8s3.6,16.7,14.9,25.1c13.6,9.6,16.9,12.9,16.9,16.7s-4.7,7.8-12,7.8-17.4-3.1-23.1-6c-4.5-2.2-7.6,10.9-3.6,17.6,3.1,4.4,12.7,8.7,23.6,8.7,26.7,0,42-17.6,42-33.8s-4.2-16.7-14.9-24.5c-14.9-10.5-18-13.6-18-17.8s5.1-8.2,11.1-8.2Z"/>
  <path class="cls-1" d="M533.3,550.9c74.8,49.6,65.7,138.7,65.7,138.7,0,0,19.7-42.4-35.5-146.8,29.9-1.6,74.8,77.5,74.8,77.5,0,0-48.8-86.6-15.7-88.2,65.7-3.1,72.4,114.9,72.4,114.9,0,0,19.7-16.5-33.1-132.2,33.6-21.5,114.9,107,114.9,107,0,0-75-125.4-63-133.8,12.1-8.4,56.1,39.9,56.1,39.9,0,0-33.6-46.2-24.7-50.9,8.9-4.7,98.1,91.8,98.1,91.8,0,0-78.7-94.5-65.1-106,7.8-6.6,30.2,5.1,47.8,16.2-24.9-17.9-59.2-45-47.8-50.9,24.1-12.5,92.9,30,92.9,30,0,0-41.4-34.1-34.6-42.5,6.8-8.4,88.2,53.5,88.2,53.5h.3s-71.9-56.7-75.6-70.8c-3.7-14.2,56.7,4.7,56.7,4.7,0,0-66.6-31-67.7-39.9-1-8.9,44.1,10,44.1,10,0,0-17.2-14.1-35.7-21.4-4.8.3-9.8.3-14.8,0-3.3,0-7.4-1.3-12.2-3.3-6.2,1.9-11.3,6.6-14.5,15.1-3.8,7.3-7.9,14.3-12.4,21,4.5-11.9,6.4-24.1,5.3-36.3-.3-3.9-1-7.7-1.8-11.4-28.4-15.2-70.6-38.9-130.3-55.8,5.8,17,8.9,35,8.9,53.7,0,101.4-91.6,183.7-204.6,183.7s-204.6-82.2-204.6-183.7,0-21,0-28.2c-31.1,13.2-58.2,28.5-83.3,44.8-9.2,16.4-13.5,33.5-12.1,50.8,3.5,40.3,37.8,74.3,91.2,97.4l-7.3-2.1c-95.2-26.8-170.8,20.9-253.4-20.5,19.1,15.1,40.9,29.9,103.9,30.1,21.4,0,89.7-3.3,102.3,7.7,12.6,11-42.5,63-42.5,63,0,0,93.2-78.8,102.3-51.9,5.7,16.7-26.8,61.4-26.8,61.4,0,0,32.5-44.1,56.7-53.5,16.6-6.5,30.6-5.7,42.5,11,7.9,11-37.8,64.5-37.8,64.5,0,0,61.4-59.8,72.4-56.7,11,3.2,0,56.7,0,56.7,0,0,22.6-54.2,34.6-58.2s-37.8,125.9-37.8,125.9c0,0,66.3-121.6,78.7-124.4,21.2-4.7,35.4,85,35.4,85,0,0-10.3-78.4.8-83.4,70.5-31.9,29.9,135.4,29.9,135.4,0,0,46.1-113.5,17.8-138.7h0Z"/>
  <path class="cls-1" d="M425.1,743.5c-16.7,16.7-21.1,39.6-21.1,52.7v.2h0c0,21.9,8.5,32.6,21.4,32.6s35.1-12.2,43.8-26.7c-.2,1.8-.7,6-.9,8.9-.7,8.7-.2,17.8,1.8,17.8,3.8,0,17.6-.9,24.9-4-.4-4.7,0-17.4,1.1-26.5,2.4-21.4,7.8-58.3,10-68.1-8.9-1.8-23.1-5.1-33.6-5.1-15.8,0-33.1,3.6-47.4,18.2h0ZM476.1,750.7c-5.6,36.5-25.4,55.6-36.3,55.6h-.2c-4.5,0-7.1-4.9-7.1-14.2s3.3-24.5,11.1-35.4c7.6-10.2,16-12.7,24.3-12.7s6.7.7,9.1,1.6c-.4,2.2-.7,2.9-.9,5.1h0Z"/>
  <path class="cls-1" d="M590.4,333.5s0-.1,0-.2c-.7.1-3.6.2,0,.2Z"/>
  <path class="cls-1" d="M848.9,743.5c-16.7,16.7-21.1,39.6-21.1,52.7v.2h0c0,21.9,8.5,32.6,21.4,32.6s35.1-12.2,43.8-26.7c-.2,1.8-.7,6-.9,8.9-.7,8.7-.2,17.8,1.8,17.8,3.8,0,17.6-.9,24.9-4-.5-4.7,0-17.4,1.1-26.5,2.4-21.4,7.8-58.3,10-68.1-8.9-1.8-23.1-5.1-33.6-5.1-15.8,0-33.1,3.6-47.4,18.2h0ZM899.8,750.7c-5.6,36.5-25.4,55.6-36.3,55.6h0c-4.5,0-7.1-4.9-7.1-14.2s3.3-24.5,11.1-35.4c7.6-10.2,16-12.7,24.2-12.7s6.7.7,9.1,1.6c-.4,2.2-.7,2.9-.9,5.1h0Z"/>
  <path class="cls-1" d="M826.4,479.1c13.1,9.4,23.6,16.3,23.6,16.3,0,0-10.5-8-23.6-16.3Z"/>
  <path class="cls-1" d="M829.4,729.5c-2-2.2-6.4-4-9.3-4-9.1,0-23.1,5.8-34.9,32h-.8c3.1-19.9,1.6-32.1-.4-32.1-3.8,0-20.5,3.8-24.7,5.8.4,4,.2,14.2-.4,19.8-2.2,21.8-8,59-11.3,77.2,7.1-.2,22-2,25.8-4.2,2.4-1.1,3.8-2.9,4.4-7.1,9.3-50.7,24.2-62.5,31.8-62.5s7.1,1.3,9.8,2.7c5.1-5.6,10.9-20.2,10-27.6h0Z"/>
  <path class="cls-1" d="M598.7,725.3c-15.8,0-32,12.5-42.3,28.9h-.7c.2-1.3.5-3.7.7-5.2,2.2-16.7,1.8-23.6-.7-23.6s-22,4.2-25.8,5.6c.7,4.7-.4,16.7-3.3,35.4-3.1,20.5-7.3,48.3-10,61.8,14.5-.2,21.6-2,24.9-4,2.5-1.6,4.2-4.2,4.9-8.7,9.8-53.8,29.4-67,37.6-67s6.5,7.8,5.3,14.2c-1.8,11.1-5.6,30.5-7.3,41.2-2,12.9-1.8,25.1-.2,25.1,3.8,0,20.7-1.1,26.5-4-.2-6.7.9-16.5,2.4-27.4,1.8-12.9,4.5-26.9,6-36.7,2.9-20.9-2.2-35.6-18-35.6h0Z"/>
  <path class="cls-1" d="M740.9,675.1c-6,0-19.4,2-25.6,3.1-.2,9.3-4.9,40.9-6.9,51.2-3.8-2.2-9.8-4-16.5-4-37.8,0-60.3,33.1-60.3,69.2s8.9,34.5,23.1,34.5h.3c16.9,0,32.3-9,43.4-27.2,0,.7-.4,4.9-.7,7.8-.4,9.1.4,19.4,2,19.4,3.8,0,18.2-.7,25.4-3.8-.2-6.7,0-18.5,1.3-30.5,1.8-14.2,11.3-78.3,16.7-111.7.9-5.6.2-8-2.2-8ZM705.9,748.4c-.4,2-1.1,5.3-1.3,7.1-5.6,32.3-25.4,50.5-35.1,50.5h-.3c-4.9,0-8.5-5.2-8.5-15.7,0-19.4,10-46.3,32.5-46.3s9.8,1.8,12.7,4.4h0Z"/>
  <path class="cls-1" d="M265.9,297.6l1.2-.5h0c-.4.2-.8.4-1.2.5h0Z"/>
  <path class="cls-1" d="M899.5,304.7h0c-2.6-.3-5.2-1-7.7-2,28.1-16.4,51.6-49.3,63.3-67.8,5.1-8.1,8-13.5,8-13.5,0,0-73,75.5-127.2,70.2-2.1-.2-4.1-.5-6.1-.9,24.3-19.1,42.5-45.2,54.7-66.6,12.6-22.1,18.8-39.4,18.8-39.4,0,0-55.1,85.1-94.3,99-2.6.9-5.1,1.5-7.5,1.8,20.4-18,35.4-39.5,45.8-57.6,12.6-22,18.2-39,18.2-39,0,0-44.9,65.9-83.3,78.9-2.7.9-5.4,1.6-8,1.9,22.5-20.3,36-37.5,43.9-50.5,11-18,11.7-28.2,11.7-28.2,0,0-51.3,66.3-85.7,79.9-5.6,2.2-10.8,3.1-15.2,2-1-.3-2-.6-3-1.1,2.4-2.6,4.7-5.2,6.9-7.8,20.3-23.8,36.2-49.9,45.1-65.7,5-8.9,7.8-14.6,7.8-14.6,0,0-47.2,64.1-70.4,71.2-3.3,1-6.2.9-8.3-.9-2-.4-2.8-1.8-2.6-4,0-1.4.6-3,1.3-4.9,6.2-9.7,13.8-19.1,13.8-19.1,0,0-2.3,2-5.8,4.9,5.8-8.8,12.2-16.8,12.2-16.8,0,0-28.6,25.4-42.9,26.5-2.1.2-4-.2-5.3-1.3,12.7-7.8,31.6-36,42.6-53.6,5.3-8.5,8.8-14.6,8.8-14.6,0,0-47.3,54.4-70.2,63.4-3.5,1.4-6.4,1.7-8.5.6l30.4-61.7s-25.8,52.3-61.9,52.4c-2.4-.4-4.9-.8-7.3-1.2,4.9-7.5,8.7-14.4,11.5-20,8.9-15.1,12.5-26.2,12.5-26.2,0,0-31.4,50.5-70.2,36.8-2.3-.8-2.7-3-2-5.7.3-1.3.9-2.6,1.6-4.1,3.8-7.6,11.8-16.6,11.8-16.6,0,0-26,25.3-43.9,22.2-17.8-3.1,1-35.7,1-35.7,0,0-20.4,31.9-31.6,43.3-2.7,2.8-4.9,4.3-6.2,3.9-1.1-.4-1.7-1.7-2-3.6-1.3-8.9,5.1-31.1,5.1-31.1,0,0-14.5,23.7-26.7,32.5-3.2,2.3-6.3,3.6-8.9,3.2-1.5-.2-2.6-1-3.4-2-5.6-7.2,1.4-30.4,3.1-35.7-1.1,3.2-4.7,13.1-9.2,21.9,1.4-5.6,2.8-10.1,3.1-11-.4,1.2-3.3,9.5-7.2,18-3.4,5.2-7.1,8.7-10.5,7.7-10.5-3.1-12.6-27.3-12.6-27.3,0,0-1,11.3-4.8,21.2-1.5,3.8-3.3,7.3-5.7,10-.4.5-.9.9-1.4,1.4-1.7,1.6-3.7,2.7-5.9,3.1-36.6,7.1-74.4,17-114.1,32.3-83.2,32.2-174.6,88.5-280.5,194.4,4.5-2.4,8.9-4.9,13.3-7.4,61.1-35,107.5-76.1,163.4-112.1,21.6-13.8,44.5-26.9,70.3-38.5h0l.6-.3c1.2-.5,7.2-3.2,8.4-3.7.8-.3,1.7-.7,2.5-1l.4-.2h0c12.5-5.2,25.8-10.2,39.7-14.8.8-.3,6.7-2.1,8.9-2.8,8.1-2.5,16.5-4.8,25.1-7,.7-.2,5.1-1.3,6.2-1.5,24.2-5.8,50.6-10.5,79.8-13.8,7.1-.8,14.3-1.5,21.7-2.1,5.2-.4,10.5-.8,15.9-1.2,8.9-.6,18.1-1.1,27.5-1.4,9-.3,17.8-.5,26.4-.4,17.4,0,34.1.8,49.9,2.2,8.8.8,17.3,1.7,25.6,2.8,7.1,1,13.9,2,20.6,3.2,13.8,2.4,26.8,5.3,39.2,8.4,57.1,14.6,99.2,35.8,129.1,51.8,23.3,12.5,39.3,21.8,49.2,22.2,59.5,2.5,105.6-31.2,132.9-58.4,17.9-17.9,27.7-32.9,27.7-32.9,0,0-55.2,63.6-99.4,56.1h0Z"/>
  <path class="cls-1" d="M463.4,185.8c.1-.4.3-.7.3-.9,0,.2-.2.5-.3.9Z"/>
  <path class="cls-1" d="M572.4,337.2l-27.3,20.9v.2c0,.5.2.9.3,1.4.7-.4,1.3-.9,2-1.3,9.1-6,17.5-13.2,25-21.2Z"/>
  <path class="cls-1" d="M590.6,333.2h0c0,0,.2,0,0,0Z"/>
  <path class="cls-1" d="M614.9,401.9h0c3.4-6.1,6.4-12.4,9-18.9,7.4-17.3,12.1-36,13.4-55.5.4-5.1.3-10.2,0-15.2,0-6.5-1-12.4-2.7-17.9-2.7-9.2-7.5-17.1-13.7-23.8-3-.6-6.1-1.1-9.2-1.6,0,.6-.2,1.3-.4,1.9l-.3-.3c0,.9,0,1.8-.2,2.7-2.3,10-6.4,21-9.2,29,1,.9,1.8,1.7,2.6,2.6h0c.3.4.6.7.9,1,1.3,1.6,2.3,3.1,3.1,4.6.5,1.2.9,2.4,1.1,3.7.2.9.3,1.9.3,2.9,0,9.1-7.4,16.4-16.4,16.4s-2.2,0-2.9,0c-6.2,9.6-13.5,18.3-21.9,26l26.7,1.4-47.2,11.3c1.2.2,2.3.4,3.5.6-.2.1-.4.3-.6.4,23.4,3.7,45.4,13.6,63.7,28.5,0,0,.2,0,.3.2h0Z"/>
  <path class="cls-1" d="M348.3,279.5v.3c-12.6,3-24.5,6.3-35.9,9.8-.7.2-2.4.8-2.6.8-1.6,4.4-2.8,9-3.4,14-1.3,5.2-2,10.7-2,16.7,0,61,32.9,114.2,81.9,143,5.2,3.2,10.6,6.1,16.2,8.6v-.6h0v-.3c-.8-.8-1.6-1.6-2.4-2.5-8.6-9-16-19.2-21.7-30.3-1.2.2-2.4.3-3.6.3-13.1,0-23.8-10.7-23.8-23.8s.7-6.3,1.8-9.2c1.7-5.6,5.6-9.5,11.5-12.9.8-.5,1.7-.9,2.7-1.4-1.6-12.6-2.1-30,0-44.3.9-3.9,2-7.7,3.2-11.4v-.2c.8-1.7,1.7-3.3,2.4-5.5-10.1-14.8-17.7-32.8-21.4-51.7-.9.2-1.8.4-2.8.6h-.1Z"/>
  <path class="cls-1" d="M597.5,300.9h0Z"/>
  <path class="cls-1" d="M418.9,433.2l-11.4,9.1,35.4-44.9-44.6,16.2v2.2c0,6.8-2.9,12.9-7.4,17.2l-.2.2c4.3,9,9.5,17.6,15.6,25.6,3.3-9,7.5-17.5,12.6-25.6h0Z"/>
  <path class="cls-1" d="M356.7,277.8h0c-1.3.4-2.5.7-3.8.9,4.8,16.2,12.4,31.4,22.3,44.9,4.5-9.9,10.1-19.1,16.7-27.5v-.3c-.7-1.9-1.1-3.9-1.1-6.1s.6-5,1.5-7.3c2.8-6.4,9.2-10.8,16.6-10.8s4.6.5,6.7,1.3c3-2.3,6.1-4.4,9.3-6.5-9.8,1.1-19.2,2.4-28.4,3.9-13.9,2.2-27.1,4.7-39.7,7.5h-.1Z"/>
  <path class="cls-1" d="M608.2,268.3h0c-34.2-5.5-72.7-8.4-116-6.7-12.1.5-23.7,1.1-35,2-5.6.4-11.1.9-16.5,1.4-6.1,3.6-11.9,7.6-17.3,11.9.5,1.2,1.5,3.6,2.3,5.9h0c.6,1.5,1.1,3.2,1.3,4.9,0,4.2-1.2,7.1-3.2,9l37.4,27.2c.5-.3,1-.7,1.6-1l-14.7-51.5,25.8,46.1c.9-.3,1.8-.6,2.7-.9l-.8-51.1,16.5,48.4,19.8-47.8.7,52.4c.2,0,.5.2.7.3l29.4-41.5-15,50.6c.2.1.3.3.5.4l43.1-28.6-31.4,43.5c0,.1,0,.2.2.3l39.5-14.2c.5-.6.9-1.2,1.4-1.8l-.2-.2c-2.2-2.8-3.6-6.3-3.6-10.1s.6-4.8,1.5-6.9c2.6-5.6,8.3-9.5,14.9-9.5s3.8,0,3.9.1c4.9-10.3,8.7-21.1,11.1-32.3h-.2s0-.1-.2-.2h-.2Z"/>
  <path class="cls-1" d="M597.3,301.3c0-.1,0-.2.2-.3,0,0-.7.2-.2.3Z"/>
</svg>