<svg enable-background="new 0 0 243.7 243.7" viewBox="0 0 243.7 243.7" xmlns="http://www.w3.org/2000/svg"><path d="m1.5 3.9c-.5-.4-.7-1-.7-1.6 0-1.3 1-2.3 2.3-2.3 45.5.6 99.9 4.1 124.5 28.2l6.9 6.7c8 14.8 8.6 39.5-10.7 81.3-.7-.3-1.4-.5-2.3-.5s-1.5.2-2.3.5c-18.8-39.3-42.5-52.9-49.4-45.9l-.1.1zm170.7 65.4c7.2 7-6.6 30.5-45.9 49.4.3.7.5 1.4.5 2.3s-.2 1.5-.5 2.3c42.1 19.4 66.8 18.8 81.6 10.6l6.5-6.7c24.1-24.7 27.5-79 28.2-124.6 0-1.3-1-2.3-2.3-2.3-.6 0-1.2.2-1.6.7l-66.6 68.2zm-101.3 103.5c-7.2-7 6.6-30.6 45.9-49.5-.3-.7-.5-1.4-.5-2.3 0-.8.2-1.5.5-2.3-41.9-19.3-66.6-18.7-81.4-10.7l-6.7 6.9c-24.1 24.7-27.6 79-28.2 124.6 0 1.3 1 2.3 2.3 2.3.6 0 1.2-.2 1.6-.7zm102.4-1.2c-7 7.2-30.6-6.5-49.5-45.8-.7.3-1.4.5-2.3.5s-1.5-.2-2.3-.5c-19.4 42.1-18.8 66.8-10.6 81.6l6.7 6.5c24.7 24.1 79 27.5 124.6 28.2 1.3 0 2.3-1 2.3-2.3 0-.6-.2-1.2-.7-1.6z" fill="#fff"/></svg>