<?xml version="1.0" encoding="UTF-8"?><svg id="Layer_1" xmlns="http://www.w3.org/2000/svg" viewBox="0 0 243.7 243.7"><defs><style>.cls-1{fill:#fff;}</style></defs><path class="cls-1" d="M140.46,40.39c-3.16.07-5.29.32-6.02.4-8.67,1.05-27.75,4.84-44.1,20.62-9.09,8.79-14.82,21.26-17.61,27.9,2.48-.71,4.96-1.28,7.41-1.62,9.28-1.29,17.77-.13,24,2.16,8.79-1.56,14.55-2.25,17.6-2.24,9.41.04,19.78-.08,27.4,6.42,2.05,1.76,8.1,5.35,7.16,14.96-.83,8.56-4.68,19.09-14.1,29.44-5.67,6.24-16.65,14.26-30.2,21.23-9.82,5.05-23.82,12.96-44.13,14.08-3.27.19-6.99.4-10.91.39-9.99-.04-24.49-1.36-35-12.33-2.18-2.28-12.93-14.4-9.89-28.93,2.45-11.7,12.13-17.75,19.91-22.63,4.41-2.77,10.37-5.06,18.38-7.44,5.78-6.22,12.58-10.04,19.5-12.46-13.76,3.08-27.49,6.44-37.4,11.35-11.35,5.5-22.08,10.68-26.73,22.09-2.83,6.98-2.6,14.02-1.89,18.68,0,0,3.06,30.57,24.1,46.15,17.61,13.06,43.57,17.89,62.94,12.6,15.24-2.9,29.77-17.16,41.87-29.66l.06.04c3.87,1.84,12.79,5.77,20.01,9.51,16.71,8.62,28.28,10.41,34.26,11.45,13,2.27,33.26-2.88,42.86-13.66,9.2-10.32,11.88-24.23,9.68-36.64-.66-3.81-.65-10.59-3.45-19.91-2.19-7.28-3.29-10.9-4.88-14.77-3.06-7.48-6.96-13.56-12.79-21.1-13.65-17.61-20.46-26.45-31.6-33.47-18.11-11.45-36.93-12.81-46.44-12.62ZM147.5,51.6c8.04.33,19.89.45,30.13,7.16,5.95,3.92,11.67,6.71,23.09,21.82,15.4,20.43,16.89,22.72,22.64,33.62,4.37,8.29,8.12,25.18,6.42,38.36-.49,3.82-.89,11.94-9.38,19.96-11.42,10.79-30.91,9.58-32.95,9.34-6.21-.76-10.99-3.66-25.49-9.22l-17.93-7.35c-1.19-.47-2.42-1.14-3.65-1.78,4.12-4.93,11.67-14.69,14.78-20.84,2.28-4.6,3.8-9.73,4.82-13.53.77-3.04,1.93-7.55,2.41-11.89.25-2.26.44-4.57.48-6.55.04-2.04,0-2.41-.1-3.97-.31-3.11-.98-6.18-1.98-9.14-1.04-2.72-2.57-5.22-4.51-7.39-1.53-1.41-3.22-2.62-5.04-3.62-2.05-1.12-4.68-2.13-6.38-2.79-3.16-1.23-5.78-1.94-10.54-2.53-1.48-.12-2.97-.17-4.45-.16-5.4.05-12.58.79-23.09,2.34-6.71.94-13.4,2.05-19.98,3.3l.02-.06c6.81-13.84,16.49-23.62,33.08-29.45,10.61-3.72,21.7-5.87,27.62-5.63ZM150.19,76.93c-2.42-.05-4.83.32-7.12,1.11,3.73.92,7.34,2.8,10.51,4.21,2.52,1.36,4.84,3.09,6.25,4.56,2.46,2.58,4.54,6.08,5.62,9.18.98,2.86,2.03,7.01,2.23,10.47.09,1.48.16,2.17.12,4.32-.07,2.35-.24,4.69-.52,7.02-.53,4.82-1.76,9.53-2.53,12.56-.97,3.86-2.23,7.63-3.78,11.3,2.36.04,4.64-.02,5.94-.25,9.25-1.62,15.41-11.12,17.3-18.8,2.65-10.88-2.81-19.95-6.46-26-3.45-5.7-9.51-13.67-20.47-18.11-2.25-.94-4.65-1.47-7.09-1.57ZM80.82,92.57c-5.19.64-10.24,2.17-14.92,4.51-5.23,2.51-9.78,6.4-15.53,13.18-6.42,8.05-10.98,23.57-7.5,27.75,1.78,2.15,2.72,2.37,3.36,2.79,8.9,4.31,17.02,10.22,30.29,11h11.04c2.31.02,5.38-.49,6.24-.58,15.27-2.51,35.6-13.32,34.82-28.44-.3-5.66-6.74-14.93-11.13-19.11-4.26-4.05-11.33-7.78-14.36-9.05-2.63-1.29-5.69-1.65-8.77-2.1-4.64-.77-9.6-.47-13.54.05Z"/></svg>