<svg version="1.1" id="Layer_1" xmlns="http://www.w3.org/2000/svg" xmlns:xlink="http://www.w3.org/1999/xlink" x="0px" y="0px" viewBox="0 0 55 39" style="enable-background:new 0 0 55 39;" xml:space="preserve">
  <style type="text/css">
    .st0{fill:#FFFFFF;}
  </style>
  <g>
    <path class="st0" d="M15.3,21.6c0-0.5-0.4-0.9-0.8-0.9c-0.4,0-0.8,0.4-0.8,0.9s0.4,0.9,0.8,0.9C14.9,22.5,15.3,22.1,15.3,21.6z"/>
    <path class="st0" d="M0,39h10.4c0.1,0-5.4-8.6-5.4-8.6L0,39z"/>
    <path class="st0" d="M13.9,25c0,0.5,0.4,0.8,0.8,0.8c0.5,0,0.8-0.4,0.8-0.8c0-0.5-0.4-0.8-0.8-0.8C14.3,24.2,13.9,24.6,13.9,25z"/>
    <path class="st0" d="M16,22.4L16,22.4C15.9,22.4,15.9,22.4,16,22.4c-0.1-0.1-0.3-0.1-0.4-0.1c-0.4,0-0.8,0.4-0.8,0.9
      s0.4,0.9,0.8,0.9c0.4,0,0.8-0.4,0.8-0.9C16.4,22.8,16.2,22.5,16,22.4z"/>
    <path class="st0" d="M32.2,2H21.8l5.4,8.6L32.2,2z"/>
    <path class="st0" d="M40.3,18.1L31.2,5.6l-3.7,6.2l5.2,8v-0.1h0.5c0.2,0,0.5,0.1,0.6,0.3l4,5.7c0.1,0.2,0.2,0.4,0.2,0.6l-0.1,1.2
      h-0.1l3.8,5.9l1.4-3.8c-0.3-0.2-0.5-0.5-0.5-0.9c0-0.6,0.5-1,1-1s1,0.4,1,0.9l3.5-0.2l-6.5-8.8l-2.2,0.6c-0.1,0-0.2-0.1-0.1-0.2
      L40.3,18.1z M41.3,26c0.1-0.1,0.3-0.1,0.5-0.1c0.6,0,1,0.5,1,1c0,0.6-0.5,1-1,1c-0.6,0-1-0.5-1-1c0-0.3,0.2-0.6,0.4-0.8l-2.1-3.2
      l-1.9-0.1l0.7-2L36,18.1c-0.3,0.2-0.6,0.3-1,0.3c-1.1,0-1.9-0.9-1.9-1.9c0-1.1,0.9-1.9,1.9-1.9c1.1,0,1.9,0.9,1.9,1.9
      c0,0.6-0.3,1.2-0.8,1.6l1.9,2.8l-0.6,1.8l1.8,0.1L41.3,26z"/>
    <path class="st0" d="M33.6,20.2c-0.1-0.2-0.3-0.3-0.5-0.3h-0.4l4.9,7.6l0.1-1.1c0-0.2,0-0.3-0.1-0.5L33.6,20.2z"/>
    <path class="st0" d="M36.8,16.4c0-1-0.8-1.7-1.7-1.7c-1,0-1.7,0.8-1.7,1.7c0,1,0.8,1.7,1.7,1.7C36,18.2,36.8,17.4,36.8,16.4z"/>
    <path class="st0" d="M48.1,28.8L44.5,29c0,0.3-0.2,0.6-0.5,0.8l2.8,4.1l2-3.5c0.1-0.2,0.1-0.5,0-0.7L48.1,28.8L48.1,28.8z"/>
    <path class="st0" d="M16.8,23.1v0.1l0.6-1C17.1,22.4,16.8,22.7,16.8,23.1z"/>
    <polygon class="st0" points="31.6,25.6 32.1,25.2 31.6,25.1 	"/>
    <path class="st0" d="M29.9,18.9c0-0.1-0.1,0-0.1,0v3.9c0,0.2-0.1,0.3-0.3,0.3h-9.2c-0.2,0-0.3-0.2-0.2-0.3l6.7-11l-3.9-6l-0.9,1
      l1.4,1.7v0.1l-1.8-0.2c-0.4-0.1-0.8,0.1-1,0.4l-6.3,9l0.3,2.1l-0.9-0.6c-0.1-0.1-0.3,0-0.4,0.1l-7,9.6C6,29.4,6,29.9,6.2,30.3
      l4.5,7.3c0.2,0.4,0.7,0.6,1.1,0.6h0.9L11,34.8l5.2-7.3h7.6v-2.1L22.5,24v-0.1l0.1-0.1h2.8c0,0,0.1,0,0.1,0.1s0,0.1,0,0.1l-1.2,1.6
      h-0.1v-0.1l1.2-1.5h-2.6l1.3,1.5v2.2h7.4V25l1.1,0.2l-0.9,0.7v2H16.4L11.3,35l1.7,3.3h-0.1H14c0.2,0,0.4-0.3,0.3-0.5L13,35.4
      c-0.1-0.3-0.1-0.6,0-0.8l4-6.1h17c0.2,0,0.4-0.2,0.3-0.4L29.9,18.9z M15.6,24.2c-0.1,0-0.2,0-0.2,0c0.3,0.2,0.4,0.5,0.4,0.8
      c0,0.6-0.5,1-1,1c-0.6,0-1-0.5-1-1s0.5-1,1-1c0.1,0,0.2,0,0.3,0c-0.3-0.2-0.4-0.5-0.4-0.9c0-0.2,0.1-0.4,0.2-0.6
      c-0.1,0-0.2,0.1-0.3,0.1c-0.5,0-1-0.5-1-1.1s0.4-1.1,1-1.1c0.5,0,1,0.5,1,1.1c0,0.2-0.1,0.4-0.2,0.6c0.1,0,0.2-0.1,0.3-0.1
      s0.3,0,0.4,0.1l6.1-9.2l0,0c0.6-0.1,1.1-0.5,1.3-1c0.2-0.6,0-1.2-0.5-1.6c-0.5-0.4-1.1-0.4-1.6-0.1c-0.5,0.3-0.8,0.9-0.7,1.5l0,0
      l0,0l0,0l0,0l-4.5,6.5c0,0,0,0-0.1,0l0,0v-0.1l4.4-6.5c-0.1-0.6,0.2-1.3,0.8-1.6c0.6-0.3,1.3-0.3,1.8,0.1c0.5,0.4,0.7,1.1,0.6,1.7
      c-0.2,0.6-0.7,1.1-1.4,1.2l-6.1,9.2c0.3,0.2,0.5,0.5,0.5,0.9C16.6,23.8,16.1,24.2,15.6,24.2z M20.8,12.9v-0.1h0.1
      c0,0,0.4,0.4,0.3,0.8c0,0.2-0.2,0.4-0.6,0.4c-0.1,0-0.2,0-0.3,0c-0.2,0-0.7,0.1-0.8,0.3c-0.1,0.1,0,0.3,0.1,0.6V15l0,0h-0.1
      c-0.2-0.3-0.2-0.5-0.1-0.7c0.2-0.3,0.7-0.4,1-0.4c0.1,0,0.2,0,0.3,0c0.2,0,0.5-0.1,0.6-0.3C21.2,13.3,20.9,13,20.8,12.9z
      M20.9,11.4c0-0.6,0.5-1.1,1.1-1.1s1.1,0.5,1.1,1.1s-0.5,1.1-1.1,1.1S20.9,12,20.9,11.4z M18.4,23.7c-0.2,0.3-0.5,0.4-0.8,0.4
      s-0.6-0.2-0.8-0.4h-0.3l0.1-0.3c0-0.1-0.1-0.2-0.1-0.4c0-0.5,0.4-1,0.9-1l0.1-0.2l0.1,0.2c0.5,0.1,0.9,0.5,0.9,1
      c0,0.1,0,0.2-0.1,0.4l0.1,0.3H18.4z M27.9,25.8L27.9,25.8l-3.1,0.1c0,0-0.1,0-0.1-0.1v-0.1l1.4-1.6c0,0,0,0,0.1,0c0,0,0,0,0.1,0
      L27.9,25.8C27.9,25.7,27.9,25.7,27.9,25.8z"/>
    <path class="st0" d="M25,25.6h2.6l-1.4-1.4L25,25.6z M26.3,24.7l0.6,0.6c0.1,0.1,0,0.2-0.1,0.2h-1.2c-0.1,0-0.2-0.1-0.1-0.2
      l0.5-0.6C26.2,24.6,26.3,24.6,26.3,24.7z"/>
    <polygon class="st0" points="49.9,30.6 45.3,38.8 55,38.8 	"/>
    <path class="st0" d="M17.6,24c0.2,0,0.4-0.1,0.6-0.3H17C17.2,23.9,17.4,24,17.6,24z"/>
    <path class="st0" d="M17.9,22.2l0.6,1v-0.1C18.4,22.7,18.2,22.4,17.9,22.2z"/>
    <path class="st0" d="M46.7,34l-2.8-4.1C43.8,30,43.6,30,43.5,30c-0.1,0-0.3,0-0.4-0.1l-1.4,3.8h-0.1l0.9,1.4c0.1,0.2,0.1,0.4,0,0.6
      l-1.3,2.1c-0.1,0.1,0,0.3,0.2,0.3H44c0.3,0,0.5-0.2,0.7-0.4L46.7,34L46.7,34z"/>
    <path class="st0" d="M17.6,22.2L17.6,22.2l-0.7,1.3c0,0,0,0,0,0.1h1.4c0,0,0,0,0-0.1L17.6,22.2L17.6,22.2z"/>
  </g>
</svg>