<?xml version="1.0" encoding="utf-8"?>
<svg version="1.1" id="Layer_1" xmlns="http://www.w3.org/2000/svg" xmlns:xlink="http://www.w3.org/1999/xlink" x="0px" y="0px" viewBox="0 0 72 72" style="enable-background:new 0 0 72 72;" xml:space="preserve">
  <style type="text/css">
    .st0{fill:#FFFFFF;}
  </style>
  <path class="st0" d="M65.7,27.6C65.7,12.6,43.9,14,39,0c0,0-0.9,2.1-0.9,4.8c0,8,10.7,13.6,11.3,17.2c-1,2.1-3.4,1.5-10.1,2.6
	c-12.1,2-13.2,3.9-20.8,12c-0.1,0-0.2,0-0.3,0c-4.4,0-4.8-9.4-12-13.1c1.5,18.2,0.7,18.9,12.2,23.3c-0.7,1.8-1.3,3.3-1.9,4.8
	c-0.4,0.1-3.2,0.4-3.2,2.8c0,1,0.6,1.8,1.3,2.6c-0.9,1-2.3,2.3-2.3,5.2c0,2.9,1.7,5.8,5.4,6.5c2.6,0.5,4.8,3.3,8.5,3.3
	c5.6,0,8.2-7.6,19.2-10.5c2.1-0.5,4.1-1.3,6.1-2.1C54.9,58,56.9,53,56.9,49c0-4.8-2.9-6.9-2.9-8.6C54,36.9,65.7,35.6,65.7,27.6z
	 M17,41.2c-2.6,0-4.2-3.7-6.5-7.4c-0.2,0.5-0.3,0.9-0.3,1.4c0,1.1,0.5,2.2,0.5,3.3c0,0.5-0.1,1-0.4,1.5c-1.9-3-1.8-4.4-2.7-13h0.2
	c1.2,0,1.7,0.7,4.5,5.5c1.5,2.6,2.5,5.9,5.5,5.9c0.5,0,1.1-0.1,1.8-0.3c-0.3,1.1-0.6,1.9-0.9,2.7C18.1,41,17.6,41.2,17,41.2z
	 M26.9,62.6c0,2.3-2.8,4.6-6.9,4.6c-3,0-6.1-1.4-6.1-4.5c0-1.6,0.9-2.8,3.1-3.9c-0.3,1.1-0.7,2.1-0.7,3c0,2,2.2,3,4,3
	c2.3,0,4.5-1.4,4.5-3.7c0-0.5-0.1-1.1-0.4-1.8C26.1,60,26.9,61.2,26.9,62.6z M38.1,40.9c0,0.9-0.8,3.2-4,3.2c-0.6,0-1.4-0.1-2.2-0.3
	c3.3-3.5,2-2,4.8-5.4C37.6,39.4,38.1,40.1,38.1,40.9z M22.8,52.2c1.1,0.2,1.8,0.4,2.6,0.6c4.2,0.8,5.6,4.5,5.6,5.9
	c0,0.7-0.2,1.4-0.4,2.1C29.2,57,25.7,55,23.7,55c-0.9,0-1.8,0.2-2.6,0.2c-0.3,0-1.3-0.1-2.7-0.1s-2.1,0.1-2.4,0.1s-0.4,0-0.5-0.2
	c-0.4-0.4-0.3-1.1,0.1-1.5c0.8-0.7,1.9-0.6,3-0.9c1.8-4.6,2.8-6.5,2.8-8.6c0-1.6-0.4-2.1-0.4-3.4c0-6.4,8.9-14.1,19.8-14.1h0.3
	c-1.6,2-2.1,4-2.1,6.1c0,0.6,0,1.2,0.1,1.8C31.5,38.1,33,36.7,22.8,52.2z M63,25c-7-8.4-13.3-10.2-14.2-10.4c2.2,2.8,7.4,6.8,7.4,10
	c0,3.4-4.4,4-16.5,7.9c0-0.2,0-0.4,0-0.6c0-2.1,0.8-3.9,2.4-5.6c5.2-0.8,9.7-0.9,9.7-3.6c0-4.4-13-11.5-13-18.4c0-0.4,0-1,0.1-2.7
	c1.3,3.4,1.8,4.9,6.8,8.1c13.5,8.5,14.3,7.4,17.6,14.8C63.3,24.8,63.1,24.9,63,25z"
  />
</svg>