<?xml version="1.0" encoding="utf-8"?>
<svg version="1.1" id="Layer_1" xmlns="http://www.w3.org/2000/svg" xmlns:xlink="http://www.w3.org/1999/xlink" x="0px" y="0px" viewBox="0 0 72 72" style="enable-background:new 0 0 72 72;" xml:space="preserve">
  <style type="text/css">
    .st0{fill:#FFFFFF;}
  </style>
  <path class="st0" d="M63.9,30.2H1.2v-12c0-5,4.1-9.1,9.1-9.1h44.6c5,0,9.1,4.1,9.1,9.1L63.9,30.2L63.9,30.2z M1.2,53.8
    c0,5,4.1,9.1,9.1,9.1h44.6c5,0,9.1-4.1,9.1-9.1v-4.3H1.2V53.8z M68.4,34.3c-0.9,0-1.7,0.4-2.3,1c1.3,0.4,2.2,1.6,2.2,3h0.1
    c1,0,1.9,0.4,2.5,1.2c0.3,0.3,0.9,0.2,1-0.3l0.1-0.9C72,36.1,70.4,34.3,68.4,34.3z M68.1,39.5c1.3,1.4,1.1,3.8-0.4,5.3
    c-0.2,0.2-0.4,0.4-0.7,0.6c-0.4,0.3-0.9,0-0.9-0.5c0-1-0.3-1.9-1-2.7c-0.4-0.4-0.9-0.7-1.4-0.8v7.2H1.2V31.2h62.7v5.5
    c0.4-0.3,0.8-0.5,1.4-0.5h0.2c1.1,0.1,1.9,1,1.9,2.2v0.2v0.2c-0.2,1-1.1,1.7-2.1,1.7c-0.5,0-1-0.2-1.4-0.5v1.2
    c0.4,0.2,0.9,0.3,1.4,0.3C66.6,41.5,67.7,40.7,68.1,39.5z M27.3,39.4c0-0.8-0.6-1.5-1.5-1.8L19.5,36c-1.3-0.4-2.7,0.5-2.7,1.8v4.9
    c0,1,0.9,1.8,2.1,1.8h6.3c1.2,0,2.1-0.8,2.1-1.8L27.3,39.4z M48.2,37.8c0-1.2-1.4-2.1-2.7-1.8l-6.3,1.7c-0.9,0.2-1.5,1-1.5,1.8v3.2
    c0,1,0.9,1.8,2.1,1.8h6.3c1.2,0,2.1-0.8,2.1-1.8L48.2,37.8z"/>
</svg>
