<svg enable-background="new 0 0 72 72" viewBox="0 0 72 72" xmlns="http://www.w3.org/2000/svg"><path clip-rule="evenodd" d="m0 0v72h72v-72zm63.7 50.6c-.7 2-1.3 2.8-2.6 3.6-3.5 2.1-7.2 1.8-8.5-.6-1-1.9-1-3.3-.1-7l1-3.8c.6-2.3.9-4.6.8-5.6-.3-2.6-3.6-3-6.9-.9-.9.5-.8.5-1.5 3.2-.9 3.7-1.1 4.5-2.3 11.1l-.7 3.7-.2.2c-.9.9-3.4 1.4-4.9.9-2-.7-2.6-2.5-2.3-6.8.2-2.2.3-2.1-1.3-.7-2.5 2.3-3.1 2.8-4 3.4-8.3 6.2-18.2 6.1-21.4-.3-1.8-3.7-1.4-9.6.9-14.4 3.6-7.2 10.2-10.9 16.2-9.2 5.8 1.7 7.3 9.6 2.2 12.3-1.9 1-3.9 1-4.8-.1l-.3-.2.2-.3c1.9-3.3 2.4-6.2 1.3-7.1-1.9-1.7-5.4.9-7.2 5.4-2.6 6.5-1.4 11.7 3 12.8 4.5 1.2 12.2-4 16.7-11.1.5-.9.6-1.2 1-3.7 1.3-9.1 1.4-11.8.7-14.4l-.2-.7.6-.6c1.8-1.7 3.7-2.8 5.7-3.4 1.9-.6 4.4.4 5.2 2.1.7 1.6.5 3.5-1.7 11.1-.3 1.2-.6 2.3-.6 2.3s.2-.2.4-.6c1.7-2.4 6.1-4 10.5-3.8 2.6.1 4.2 1.1 5.2 3.2s.8 3.7-1 8.4c-1.7 4.5-1.9 5-2.1 6.5-.2 1.1 0 1.5.5 1.8.6.3 1.9.1 2.7-.5.7-.5.6 1.4-.2 3.8z" fill="#fff" fill-rule="evenodd"/></svg>