<?xml version="1.0" encoding="utf-8"?>
<!-- Generator: Adobe Illustrator 25.3.1, SVG Export Plug-In . SVG Version: 6.00 Build 0)  -->
<svg version="1.1" id="Layer_1" xmlns="http://www.w3.org/2000/svg" xmlns:xlink="http://www.w3.org/1999/xlink" x="0px" y="0px"
	 viewBox="0 0 72 72" style="enable-background:new 0 0 72 72;" xml:space="preserve">
<style type="text/css">
	.st0{fill-opacity:0;}
	.st1{fill:#4E4E4E;}
	.st2{fill:url(#SVGID_1_);}
	.st3{fill:url(#SVGID_2_);}
	.st4{fill:url(#SVGID_3_);}
	.st5{fill:url(#SVGID_4_);}
	.st6{fill:url(#SVGID_5_);}
	.st7{fill:url(#SVGID_6_);}
	.st8{fill:url(#SVGID_7_);}
</style>
<g>
	<rect x="0.7" y="2" class="st0" width="70.6" height="68"/>
	<rect x="0.7" y="2" class="st0" width="70.6" height="68"/>
	<rect x="20.7" y="22.2" class="st0" width="39.4" height="29.6"/>
	<path class="st1" d="M27.4,28.6l-0.9,13.7l-5.7-5.4l0.7-13.8L27.4,28.6z"/>
	
		<linearGradient id="SVGID_1_" gradientUnits="userSpaceOnUse" x1="26.4073" y1="37.0269" x2="60.0874" y2="37.0269" gradientTransform="matrix(1 0 0 -1 0 74)">
		<stop  offset="0" style="stop-color:#C1C1C1"/>
		<stop  offset="0.2189" style="stop-color:#BEBEBE"/>
		<stop  offset="0.3935" style="stop-color:#B4B4B4"/>
		<stop  offset="0.5529" style="stop-color:#A3A3A3"/>
		<stop  offset="0.7032" style="stop-color:#8B8B8B"/>
		<stop  offset="0.8471" style="stop-color:#6D6D6D"/>
		<stop  offset="0.9845" style="stop-color:#484848"/>
		<stop  offset="1" style="stop-color:#434343"/>
	</linearGradient>
	<path class="st2" d="M60,38.3c-0.7,4.5-1.4,9-2.1,13.5c0.1-0.7,0.1-1.4,0.1-2.1c-0.1-0.7-0.2-1.5-0.5-2.2c-0.3-0.7-0.6-1.5-1-2.3
		c-0.4-0.8-1-1.6-1.6-2.4c-1.3-1.7-2.8-3.1-4.4-4.1c-1.6-1.1-3.3-1.8-5.2-2.3c-1.8-0.4-3.8-0.6-5.8-0.3c-2,0.2-4,0.8-6.1,1.7
		c-0.7,0.3-1.4,0.7-2.1,1c-0.7,0.4-1.3,0.8-2,1.2c-0.6,0.4-1.2,0.8-1.7,1.2c-0.5,0.4-0.9,0.8-1.3,1.2l1-13.8
		c0.4-0.4,0.8-0.8,1.4-1.2c0.5-0.4,1.1-0.8,1.8-1.2c0.6-0.4,1.3-0.8,2-1.2c0.7-0.4,1.4-0.7,2.2-1.1c2.1-0.9,4.3-1.5,6.3-1.7
		c2.1-0.2,4.1-0.1,5.9,0.4c1.9,0.4,3.7,1.2,5.4,2.3c1.7,1.1,3.2,2.5,4.6,4.2c0.7,0.8,1.2,1.7,1.7,2.4c0.4,0.8,0.8,1.6,1.1,2.3
		c0.3,0.8,0.4,1.5,0.5,2.2C60.1,36.9,60.1,37.6,60,38.3z"/>
	<rect x="0.7" y="8.5" class="st0" width="49.7" height="48"/>
	
		<linearGradient id="SVGID_2_" gradientUnits="userSpaceOnUse" x1="11.5365" y1="52.8925" x2="29.0479" y2="52.8925" gradientTransform="matrix(1 0 0 -1 0 74)">
		<stop  offset="0" style="stop-color:#6C6C6C"/>
		<stop  offset="0.258" style="stop-color:#8A8A8A"/>
		<stop  offset="0.5463" style="stop-color:#A4A5A4"/>
		<stop  offset="0.803" style="stop-color:#B4B5B4"/>
		<stop  offset="1" style="stop-color:#BABBBA"/>
	</linearGradient>
	<path class="st3" d="M11.5,33.7c0.1-4.6,0.3-9.2,0.4-13.8c0-1,0.3-2,0.6-2.9c0.4-0.9,0.9-1.8,1.7-2.5c0.7-0.8,1.6-1.5,2.6-2.2
		c1-0.7,2.1-1.2,3.3-1.7c0.9-0.4,1.7-0.7,2.5-0.9C23.5,9.4,24.3,9.2,25,9c0.8-0.2,1.5-0.3,2.1-0.4c0.7-0.1,1.3-0.2,1.9-0.2l-1,13.9
		c-0.6,0-1.2,0.1-1.8,0.2c-0.7,0.1-1.4,0.2-2.1,0.4c-0.7,0.2-1.5,0.4-2.3,0.6c-0.8,0.2-1.6,0.6-2.4,0.9c-1.2,0.5-2.3,1.1-3.2,1.7
		c-0.9,0.6-1.8,1.4-2.5,2.1c-0.7,0.8-1.2,1.6-1.6,2.5C11.8,31.8,11.6,32.8,11.5,33.7z"/>
	
		<linearGradient id="SVGID_3_" gradientUnits="userSpaceOnUse" x1="0.6934" y1="34.9429" x2="50.3235" y2="34.9429" gradientTransform="matrix(1 0 0 -1 0 74)">
		<stop  offset="0" style="stop-color:#363535"/>
		<stop  offset="3.847660e-03" style="stop-color:#373636"/>
		<stop  offset="0.2409" style="stop-color:#666565"/>
		<stop  offset="0.4663" style="stop-color:#8C8B8B"/>
		<stop  offset="0.6743" style="stop-color:#A7A6A6"/>
		<stop  offset="0.8586" style="stop-color:#B7B6B6"/>
		<stop  offset="1" style="stop-color:#BDBCBC"/>
	</linearGradient>
	<path class="st4" d="M0.7,35.5c0-4.6,0-9.2,0.1-13.8c0,0.8,0.1,1.7,0.2,2.5c0.1,0.9,0.4,1.7,0.7,2.6c0.3,0.9,0.7,1.8,1.2,2.7
		c0.5,0.9,1.1,1.8,1.7,2.7c1.8,2.5,3.9,4.6,6.4,6.3c2.5,1.7,5.4,3,8.5,3.7c3.1,0.7,6.5,1,10,0.6c3.5-0.4,7.2-1.4,11-3.1
		c1.3-0.6,2.5-1.2,3.6-1.8c1.1-0.6,2-1.2,2.9-1.7c0.8-0.6,1.5-1.1,2.1-1.6c0.6-0.5,1-0.9,1.3-1.3l-1.7,13.6
		c-0.3,0.4-0.7,0.8-1.3,1.2c-0.6,0.5-1.2,1-2,1.6c-0.8,0.6-1.7,1.1-2.8,1.7c-1,0.6-2.2,1.2-3.4,1.8c-3.6,1.7-7.2,2.7-10.6,3
		c-3.4,0.4-6.7,0.2-9.7-0.5c-3-0.7-5.8-2-8.2-3.6c-2.4-1.7-4.5-3.8-6.2-6.2c-0.6-0.9-1.2-1.8-1.6-2.7c-0.5-0.9-0.8-1.8-1.1-2.7
		C1.4,39.7,1.1,38.8,1,38C0.7,37.1,0.7,36.3,0.7,35.5z"/>
	<rect x="41.4" y="38.9" class="st0" width="29.6" height="31.1"/>
	
		<linearGradient id="SVGID_4_" gradientUnits="userSpaceOnUse" x1="41.4584" y1="14.4368" x2="45.7563" y2="14.4368" gradientTransform="matrix(1 0 0 -1 0 74)">
		<stop  offset="0" style="stop-color:#2F2F2F"/>
		<stop  offset="1" style="stop-color:#505151"/>
	</linearGradient>
	<path class="st5" d="M45.8,56.7l-1.6,13.3l-2.7-7.4l1.5-13.4L45.8,56.7z"/>
	
		<linearGradient id="SVGID_5_" gradientUnits="userSpaceOnUse" x1="44.1139" y1="19.5576" x2="71.0796" y2="19.5576" gradientTransform="matrix(1 0 0 -1 0 74)">
		<stop  offset="0" style="stop-color:#6F6E6F"/>
		<stop  offset="0.1855" style="stop-color:#919090"/>
		<stop  offset="0.4261" style="stop-color:#B6B5B5"/>
		<stop  offset="0.6497" style="stop-color:#D1D0CF"/>
		<stop  offset="0.8479" style="stop-color:#E1E0DF"/>
		<stop  offset="1" style="stop-color:#E7E6E5"/>
	</linearGradient>
	<path class="st6" d="M71.1,38.9c-0.8,4.5-1.6,9-2.4,13.5c-0.3,1.4-0.8,2.8-1.4,4.2c-0.7,1.4-1.6,2.6-2.7,3.8
		c-1.1,1.2-2.4,2.3-3.8,3.4c-1.5,1-3.1,2-4.9,2.8c-1.3,0.6-2.4,1.1-3.6,1.5c-1.1,0.4-2.3,0.8-3.3,1c-1,0.3-1.9,0.5-2.8,0.6
		c-0.8,0.1-1.5,0.2-2.1,0.2l1.6-13.3c0.6,0,1.3-0.1,2.2-0.2c0.8-0.1,1.8-0.3,2.8-0.6c1-0.3,2.2-0.6,3.4-1.1c1.2-0.4,2.4-0.9,3.7-1.5
		c1.9-0.9,3.5-1.8,5.1-2.9c1.5-1,2.8-2.2,3.9-3.4c1.1-1.2,2.1-2.5,2.8-3.9C70.3,41.8,70.8,40.4,71.1,38.9z"/>
	
		<linearGradient id="SVGID_6_" gradientUnits="userSpaceOnUse" x1="0.7327" y1="51.5532" x2="50.32" y2="51.5532" gradientTransform="matrix(1 0 0 -1 0 74)">
		<stop  offset="0" style="stop-color:#DDDCDB"/>
		<stop  offset="0.263" style="stop-color:#EAEAE9"/>
		<stop  offset="0.6796" style="stop-color:#FAF9F9"/>
		<stop  offset="1" style="stop-color:#FFFFFF"/>
	</linearGradient>
	<path class="st7" d="M15.2,4.8c1.2-0.5,2.4-0.9,3.6-1.3C19.9,3.1,21,2.9,22,2.6c1-0.2,1.9-0.4,2.6-0.5c0.8-0.1,1.5-0.1,2-0.1
		l2.4,6.5c-0.6,0-1.2,0.1-1.9,0.2C26.5,8.7,25.8,8.9,25,9c-0.8,0.2-1.5,0.4-2.4,0.6c-0.8,0.2-1.7,0.6-2.5,0.9
		c-1.9,0.8-3.5,1.7-4.8,2.8c-1.3,1.1-2.3,2.4-2.8,3.8c-0.6,1.4-0.7,3-0.4,4.6c0.3,1.7,1.2,3.5,2.6,5.4c1.3,1.7,2.7,3.1,4.4,4.2
		c1.6,1.1,3.4,1.9,5.4,2.4c1.9,0.5,4,0.6,6.1,0.4c2.1-0.2,4.3-0.8,6.4-1.7c0.8-0.3,1.5-0.7,2.2-1.1c0.7-0.4,1.4-0.8,2-1.2
		c0.6-0.4,1.2-0.8,1.7-1.2c0.5-0.4,1-0.8,1.3-1.2l6.1,5.5c-0.3,0.4-0.7,0.8-1.3,1.3c-0.6,0.5-1.3,1-2.1,1.6
		c-0.8,0.6-1.8,1.2-2.9,1.7c-1.1,0.6-2.3,1.2-3.6,1.8c-3.8,1.7-7.5,2.7-11,3.1c-3.5,0.4-6.9,0.2-10-0.6c-3.1-0.7-5.9-2-8.4-3.7
		c-2.5-1.7-4.7-3.8-6.4-6.3c-2.1-2.9-3.3-5.8-3.7-8.5c-0.4-2.7,0-5.3,1.1-7.7c1.1-2.3,2.8-4.5,5-6.4C9.3,7.7,12,6.1,15.2,4.8z"/>
	
		<linearGradient id="SVGID_7_" gradientUnits="userSpaceOnUse" x1="21.4303" y1="38.5963" x2="71.306" y2="38.5963" gradientTransform="matrix(1 0 0 -1 0 74)">
		<stop  offset="0" style="stop-color:#DDDCDB"/>
		<stop  offset="0.263" style="stop-color:#EAEAE9"/>
		<stop  offset="0.6796" style="stop-color:#FAF9F9"/>
		<stop  offset="1" style="stop-color:#FFFFFF"/>
	</linearGradient>
	<path class="st8" d="M31.3,17.1c3.6-1.5,7.2-2.4,10.6-2.8c3.4-0.4,6.6-0.1,9.6,0.6c2.9,0.7,5.8,1.9,8.3,3.5c2.5,1.6,4.8,3.6,6.7,6
		c2.3,2.9,3.8,5.7,4.5,8.5c0.7,2.8,0.6,5.5-0.3,8c-0.8,2.5-2.4,4.9-4.5,7c-2.2,2.1-4.9,4-8.3,5.5c-1.3,0.6-2.5,1.1-3.7,1.5
		c-1.2,0.4-2.3,0.8-3.4,1c-1.1,0.3-2,0.5-2.8,0.6c-0.8,0.1-1.6,0.2-2.2,0.2L43,49.2c0.6-0.1,1.3-0.1,2-0.2c0.7-0.1,1.5-0.2,2.3-0.4
		c0.8-0.2,1.6-0.4,2.4-0.7c0.8-0.3,1.7-0.6,2.6-1c1.9-0.9,3.6-1.9,4.8-3.2c1.3-1.2,2.2-2.6,2.6-4.1c0.5-1.5,0.5-3.2,0-4.9
		c-0.5-1.7-1.4-3.6-2.9-5.4c-1.4-1.7-2.9-3.1-4.6-4.2c-1.7-1.1-3.5-1.9-5.4-2.3C45,22.3,43,22.1,41,22.3c-2.1,0.2-4.2,0.8-6.3,1.7
		c-0.8,0.3-1.5,0.7-2.2,1c-0.7,0.4-1.4,0.8-2,1.2c-0.6,0.4-1.2,0.8-1.8,1.2c-0.5,0.4-1,0.8-1.4,1.2l-5.9-5.5
		c0.3-0.3,0.8-0.8,1.3-1.2c0.6-0.5,1.3-1,2.1-1.5c0.8-0.5,1.8-1.1,2.8-1.7C28.8,18.2,30,17.6,31.3,17.1z"/>
</g>
</svg>
