<svg viewBox="0 0 1000 1000" xmlns="http://www.w3.org/2000/svg"><path d="m-979.4 297.6 1.2-.5c-.4.2-.8.4-1.2.5z" fill="#939598"/><path d="m813.8 581.2c0 27.8-16.2 52.2-47.6 58-54.5 9.9-169.4 15.1-266.2 15.1s-211.7-7-266.2-15.1c-31.3-5.8-47.6-30.2-47.6-58v-181.5c0-27.8 22-53.9 47.6-58 16.2-2.9 53.4-5.8 82.9-5.8s20.3 8.1 20.3 22v126.4c55.7 0 105-2.9 162.4-2.9s106.1 2.9 162.4 2.9v-125.9c0-13.9 9.9-22 20.3-22 30.2 0 66.7 2.9 82.9 5.8 26.1 4.1 47.6 30.2 47.6 58v181zm-313.8-545.2c-256.4 0-464 207.6-464 464s207.6 464 464 464 464-207.6 464-464-207.6-464-464-464z" fill="#fff"/></svg>