<?xml version="1.0" encoding="utf-8"?>
<svg version="1.1" id="Layer_1" xmlns="http://www.w3.org/2000/svg" xmlns:xlink="http://www.w3.org/1999/xlink" x="0px" y="0px" viewBox="0 0 500 500" style="enable-background:new 0 0 500 500;" xml:space="preserve">
  <style type="text/css">
    .st0{fill:#FFFFFF;}
  </style>
  <g>
    <g>
      <g>
        <path class="st0" d="M62.6,219.1h27.2l-4.2,16.1c-0.6,2.3-1.9,4-3.7,5.4c-1.8,1.4-3.8,2-6.1,2H63.2c-2.9,0-5.4,0.9-7.6,2.5
          c-2.2,1.6-3.8,3.9-4.7,6.8c-0.5,2.2-0.6,4.2-0.1,6.1c0.4,1.9,1.3,3.7,2.4,5.1c1.1,1.5,2.5,2.7,4.3,3.5c1.8,0.9,3.7,1.3,5.8,1.3
          h7.7c1.4,0,2.7,0.6,3.5,1.8c0.9,1.1,1.1,2.4,0.8,3.9l-4.8,17.8h-8.4c-5.8,0-11.1-1.3-15.9-3.8c-4.8-2.5-8.9-5.8-12-10
          c-3.2-4.2-5.4-8.9-6.6-14.3c-1.1-5.3-1-10.8,0.4-16.4l0.5-1.8c1-3.8,2.7-7.3,4.8-10.6c2.2-3.3,4.8-6.1,7.8-8.4
          c3-2.3,6.3-4,10-5.3C54.7,219.7,58.5,219.1,62.6,219.1z"/>
        <path class="st0" d="M76.2,291.6l23.7-88.7c0.6-2.3,1.9-4,3.7-5.4c1.8-1.4,3.8-2,6.1-2h25.2c5.8,0,11.1,1.3,15.9,3.8
          c4.8,2.5,8.9,5.8,12,10s5.4,8.9,6.6,14.3c1.1,5.3,1,10.8-0.5,16.4l-0.5,1.8c-1,3.8-2.7,7.3-4.8,10.6c-2.2,3.3-4.8,6.1-7.7,8.4
          c-3,2.3-6.3,4.2-10,5.4c-3.7,1.3-7.6,1.9-11.5,1.9h-21.8l4.3-16.2c0.6-2.2,1.9-3.9,3.7-5.3c1.8-1.4,3.8-2,6.1-2h7
          c2.9,0,5.4-0.9,7.7-2.7c2.3-1.8,3.8-4,4.6-6.8c0.5-2,0.6-3.9,0.1-5.9c-0.4-1.9-1.3-3.7-2.4-5.1c-1.1-1.5-2.5-2.7-4.3-3.7
          c-1.8-0.9-3.7-1.4-5.8-1.4H120l-17.6,65.3c-0.6,2.2-1.9,3.9-3.5,5.3c-1.8,1.4-3.8,2-6.1,2L76.2,291.6L76.2,291.6z"/>
        <path class="st0" d="M226.2,244.3l0.4-1.3c0.1-0.6,0-1.1-0.3-1.6c-0.4-0.4-0.9-0.6-1.5-0.6h-39.1c-1.6,0-3.2-0.4-4.6-1.1
          c-1.4-0.8-2.5-1.6-3.4-2.8c-0.9-1.1-1.5-2.5-1.8-4c-0.4-1.5-0.3-3,0.1-4.7l2.4-9.1h52.9c3.3,0,6.3,0.8,9,2.2
          c2.8,1.4,4.9,3.3,6.8,5.7c1.8,2.3,3,4.9,3.7,8c0.6,3,0.6,6.1-0.1,9.4l-9.5,35.3c-1,3.7-2.9,6.6-5.8,8.7c-2.9,2.3-6.3,3.4-10,3.4
          l-39.1-0.1c-3.4,0-6.6-0.8-9.5-2.3c-2.9-1.5-5.2-3.4-7.1-5.9c-1.9-2.4-3.2-5.2-3.8-8.4c-0.8-3.2-0.6-6.3,0.3-9.6l0.5-1.8
          c0.5-2.3,1.5-4.3,2.8-6.2c1.3-1.9,2.9-3.5,4.7-4.9c1.8-1.4,3.7-2.4,5.9-3.2c2.2-0.8,4.4-1.1,6.8-1.1h32.8l-2.4,9
          c-0.6,2.2-1.9,3.9-3.5,5.3c-1.8,1.4-3.8,2-6.1,2H193c-1.4,0-2.3,0.6-2.7,2c-0.3,0.9-0.1,1.6,0.5,2.4c0.5,0.6,1.3,1,2.2,1h23.7
          c0.9,0,1.6-0.3,2.3-0.8c0.6-0.5,1-1.1,1.3-1.9l0.3-1L226.2,244.3z"/>
        <path class="st0" d="M296.1,219.1c5.8,0,11.1,1.3,16.1,3.8c4.8,2.5,8.9,5.8,12,10c3.2,4.2,5.4,9,6.6,14.3
          c1.1,5.3,1,10.9-0.5,16.4l-6.1,22.6c-0.4,1.6-1.3,2.9-2.5,3.8c-1.3,1-2.8,1.4-4.4,1.4h-13c-1.5,0-2.8-0.6-3.7-1.8
          c-0.9-1.1-1.1-2.4-0.8-3.9l7.2-27.3c0.5-2,0.6-3.9,0.1-5.9c-0.4-1.9-1.3-3.7-2.4-5.1c-1.1-1.5-2.5-2.7-4.3-3.5
          c-1.8-0.9-3.7-1.4-5.8-1.4h-13.4l-11.6,43.6c-0.4,1.6-1.3,2.9-2.5,3.8c-1.3,1-2.8,1.4-4.6,1.4h-12.9c-1.4,0-2.7-0.6-3.5-1.8
          c-0.9-1.1-1.1-2.4-0.8-3.9l17.8-66.8h33V219.1z"/>
        <path class="st0" d="M366.9,242c-1,0.8-1.6,1.8-2,2.9l-5.4,20.5c-0.4,1.1-0.1,2.2,0.6,3.2c0.8,1,1.6,1.4,2.9,1.4h49.7l-3.8,14.3
          c-0.6,2.2-1.9,3.9-3.7,5.3c-1.8,1.4-3.8,2-6.1,2h-45.3c-3.3,0-6.3-0.8-9-2.2c-2.8-1.4-4.9-3.3-6.8-5.7c-1.8-2.4-3-5.1-3.7-8.1
          c-0.6-3-0.6-6.1,0.3-9.2l7.3-27.3c0.8-2.9,2-5.7,3.7-8.2c1.6-2.5,3.7-4.6,5.9-6.3c2.3-1.8,4.8-3.2,7.7-4.2c2.8-1,5.8-1.5,8.9-1.5
          h32.1c3.3,0,6.3,0.8,9,2.2c2.8,1.4,4.9,3.3,6.8,5.7c1.8,2.3,3,5.1,3.7,8.1c0.6,3,0.5,6.1-0.3,9.2l-2.2,8.2
          c-1,3.7-2.9,6.5-5.8,8.7c-2.9,2.2-6.2,3.3-9.9,3.3h-36.3l2.4-8.9c0.5-2.2,1.8-3.9,3.5-5.3c1.8-1.4,3.8-2,6.1-2H392
          c1.4,0,2.3-0.6,2.7-2l0.5-1.8c0.3-0.9,0.1-1.6-0.5-2.4c-0.5-0.8-1.3-1.1-2.2-1.1h-22.4C368.9,240.8,367.9,241.2,366.9,242z"/>
        <path class="st0" d="M412.5,291.6l24.2-90.7c0.4-1.6,1.3-2.9,2.5-3.9c1.3-1,2.8-1.5,4.6-1.5h12.9c1.5,0,2.8,0.6,3.7,1.8
          c0.9,1.1,1.1,2.4,0.8,3.9l-18,66.9c-0.9,3.5-2.3,6.7-4.3,9.6c-2,2.9-4.3,5.3-7,7.3c-2.7,2-5.7,3.7-9,4.8
          C419.6,290.9,416.2,291.6,412.5,291.6z"/>
      </g>
    </g>
    <g>
      <path class="st0" d="M465.3,203.9c0-1.5,0.4-2.8,1.1-4.2c0.8-1.3,1.8-2.3,3-3c1.3-0.8,2.7-1.1,4.2-1.1c1.5,0,2.8,0.4,4.2,1.1
        c1.3,0.8,2.3,1.8,3,3c0.8,1.3,1.1,2.7,1.1,4.2c0,1.4-0.4,2.8-1,4c-0.8,1.3-1.8,2.3-3,3c-1.3,0.8-2.7,1.1-4.2,1.1s-2.9-0.4-4.2-1.1
        c-1.3-0.8-2.3-1.8-3-3C465.7,206.7,465.3,205.3,465.3,203.9z M466.4,203.9c0,1.3,0.4,2.4,1,3.5c0.6,1.1,1.5,2,2.7,2.7
        c1.1,0.6,2.3,1,3.5,1c1.3,0,2.4-0.4,3.5-1c1.1-0.6,1.9-1.5,2.7-2.5c0.6-1.1,1-2.3,1-3.5s-0.4-2.4-1-3.5c-0.6-1.1-1.5-1.9-2.5-2.7
        c-1.1-0.6-2.3-1-3.5-1c-1.3,0-2.4,0.4-3.5,1c-1.1,0.6-1.9,1.5-2.7,2.5C466.7,201.4,466.4,202.6,466.4,203.9z M476.9,201.9
        c0,0.6-0.1,1.1-0.5,1.5c-0.3,0.5-0.8,0.8-1.3,1l2.7,4.3h-1.9l-2.3-3.9h-1.5v3.9h-1.6V199h2.9c1.3,0,2.2,0.3,2.7,0.8
        C476.6,200.1,476.9,200.9,476.9,201.9z M472.1,203.5h1.1c0.6,0,1-0.1,1.4-0.5c0.4-0.3,0.5-0.6,0.5-1.1c0-0.5-0.1-0.9-0.5-1.1
        c-0.3-0.3-0.8-0.4-1.5-0.4H472v3.2H472.1z"/>
    </g>
  </g>
</svg>