<?xml version="1.0" encoding="utf-8"?>
<svg version="1.1" id="Layer_1" xmlns="http://www.w3.org/2000/svg" xmlns:xlink="http://www.w3.org/1999/xlink" x="0px" y="0px" viewBox="0 0 28 44" style="enable-background:new 0 0 28 44;" xml:space="preserve">
  <style type="text/css">
    .st0{fill:#FFFFFF;}
  </style>
  <path class="st0" d="M10,4.6c0.6-0.6,1.5-0.8,2.4-0.5c0.3,0.1,0.6,0.3,0.9,0.5C13.5,4.7,13.8,4.8,14,5c0,0,0,0.2,0,0.3
    c0.3,0.6,0.4,1.3,0.2,2c-0.2,0.2-0.5,0.3-0.8,0.4c0,0.3,0.1,0.6,0.1,0.8c-0.1,0-0.1,0.1-0.2,0.1c0.4,0,0.8-0.1,1.2-0.2
    c0.1-0.1,0.4-0.1,0.6-0.1c0-0.3,0.1-0.6,0.1-0.8c0,0,0.1,0,0.2,0c0,0.2,0,0.4,0.1,0.6c0.1,0.1,0.3,0,0.4,0.1c0,0.1,0,0.2,0,0.2
    c2.4,0,4.8,0,7.2,0c0,0.1,0,0.2,0,0.4c0.1,0,0.1,0,0.2,0c0-0.5,0-0.9,0-1.3c0.1,0,0.2,0,0.3,0c0,0.4,0,0.7,0,1.1h0.1
    c0,0,0,0.1,0,0.2c0.1-0.1,0.2-0.1,0.3-0.1c0,0.1,0,0.1,0.1,0.2C24,9,24,9.1,24,9.2c0.7,0,1.3,0,2,0C26,9.1,26.1,9,26.2,9l0.1,0.1
    c0.3,0,0.6,0,1,0c0,0.2,0,0.3,0,0.5c-0.3,0-0.7,0-1,0l-0.1,0.1c-0.1-0.1-0.2-0.1-0.3-0.2c-0.6,0-1.2,0-1.8,0c-0.4,0.1-0.7,0.1-1.1,0
    c0,0.1,0,0.3,0,0.4c-1,0-2,0-2.9,0c-0.1,0.1-0.2,0.2-0.4,0.2c0.1,0.3-0.3,0.4-0.4,0.6c-0.1,0.1-0.2,0.2-0.3,0.2
    c-0.1,0.6,0.1,1.2,0.3,1.8c-0.2,0-0.4,0.1-0.6,0.1c-0.1,0.4-0.2,0.8-0.3,1.3c-0.1,0.4-0.4,0.7-0.7,0.8c-0.2,0.3-0.6,0.6-1,0.6
    c-0.1,0-0.2-0.1-0.4-0.1c-0.5,0-1-0.2-1.4-0.4c-0.5-0.2-0.9-0.5-1.4-0.8c0,0.3-0.1,0.5-0.2,0.8c0.2,0.1,0.5,0.2,0.7,0.4
    c0.1,0.2,0.2,0.4,0.2,0.6c0,0.7-0.1,1.5-0.1,2.2c0,0.5-0.2,1.1-0.6,1.5c-0.2,0-0.5-0.1-0.7-0.2c-0.1,0.2-0.3,0.4-0.2,0.6
    c0.1,0.3,0.1,0.6,0.2,0.8c0.7,0.7,1.3,1.6,1.7,2.5s0.8,1.8,1.1,2.7c0.1,0,0.2,0,0.2,0c0.1,0.3,0,0.6,0.2,0.8
    c0.1,0.2,0.1,0.5,0.1,0.8c0,0.6-0.1,1.2-0.1,1.9c0,0.4-0.1,0.9-0.2,1.3c0,0.3,0.2,0.7,0.1,1c0,0.3,0,0.6-0.3,0.9
    c0,0.7-0.2,1.4,0.1,2.1c0.3,0.5,0.7,0.9,1.1,1.3c0.4,0.2,0.9,0.2,1.3,0.6c0.1,0.2,0.1,0.5,0,0.7c-0.9,0.1-1.8,0.1-2.7,0
    c-0.4-0.1-0.7-0.2-1-0.3c-0.5,0-1,0.2-1.5-0.1c0-0.6,0.2-1.1,0.3-1.6c0-0.2,0.2-0.3,0.2-0.5c0-0.6-0.1-1.3-0.1-1.9
    C13.2,33,13,33,13,32.8c0-0.3-0.1-0.6-0.2-0.9c-0.1-0.8-0.2-1.6-0.2-2.4c0-0.2,0.1-0.4,0.3-0.5c0-0.4,0.1-0.7,0.1-1.1
    c-0.1-0.2-0.2-0.3-0.3-0.5c-0.4,0-0.9,0.1-1.1-0.3c-0.5-0.8-1.1-1.6-1.6-2.4c-0.2,0-0.5,0-0.7-0.1C9,24.3,8.9,24,8.7,23.7
    c-0.1,0.2-0.1,0.5-0.2,0.7C8.4,24.6,8.2,24.8,8,25c-0.1,0.3-0.3,0.7-0.4,1c-0.1,0.4-0.4,0.8-0.4,1.3c0,0.2-0.1,0.4-0.1,0.6
    C7,28,6.8,28.1,6.6,28.2c-0.1,0.3-0.2,0.5-0.4,0.8c-0.1,0.1-0.3,0.2-0.4,0.4c-0.1,0.2-0.2,0.5-0.3,0.7c0,0.2,0.1,0.5,0,0.8
    c-0.1,0.6-0.5,1.2-0.7,1.8c-0.1,0.4-0.2,0.8-0.5,1.2c0,0-0.2,0.1-0.4,0.1c-0.2,0.5-0.4,0.9-0.5,1.4s-0.1,0.9,0,1.4
    c0,0.2,0.1,0.4,0.2,0.6c0.1,0.2,0,0.5,0,0.7C2.8,38.2,2,38.3,1.2,38c-0.1-0.1-0.1-0.2-0.1-0.2C1,37.4,1,37,1.1,36.6
    c0.3-1,0.5-1.9,0.8-2.9c-0.1-0.1-0.2-0.2-0.2-0.4c0-0.3,0-0.6,0.1-0.8c0.1-0.5,0.5-0.8,0.6-1.2c0.1-0.2,0-0.4,0.1-0.6
    c0-0.4,0.2-0.8,0.4-1.2c0.2-0.3,0.3-0.6,0.6-0.9c0.2-0.1,0.2-0.4,0.3-0.6c0-0.1,0.2-0.3,0.2-0.6c0-0.3-0.1-0.7,0-1
    c0.1-1,0.3-1.9,0.4-2.9c-0.1-0.1-0.2-0.2-0.2-0.4c0-0.1,0-0.2,0.1-0.3c-0.2,0-0.3-0.1-0.3-0.2c0.1-0.1,0.2-0.3,0.2-0.4
    c0,0-0.2-0.1-0.2-0.2c0.1-0.3,0.1-0.8,0.4-0.9c0,0,0.1,0,0.2,0.1c-0.1-0.5-0.1-1.1-0.1-1.6c-0.1-0.6-0.2-1.2-0.1-1.8
    c0.2-0.3,0.6-0.4,0.9-0.5C4.9,17.2,4.4,17.2,4,17c0-0.4,0-0.7,0.1-1.1c0.2-0.7,0.1-1.5,0.2-2.2c0.1-0.2,0.4-0.2,0.6-0.2
    c0.3,0,0.5,0,0.8-0.1c0-0.1,0-0.2,0-0.3c-0.2-0.7-0.1-1.5,0-2.2C5.8,10,6.2,9.1,6.9,8.5C7.3,8,8,7.8,8.6,7.9c0.2,0,0.3,0.2,0.5,0.3
    C9.2,8.1,9.3,8,9.3,7.9C9.2,7.6,9.1,7.2,9.1,6.8C9.1,6,9.4,5.2,10,4.6 M16.5,10.5L16.5,10.5 M16.7,10.5c0,0.1,0.1,0.3,0,0.4
    c-0.1,0-0.2,0-0.3,0.1c0.3,0,0.6,0,0.9,0c0.2-0.1,0.1-0.4,0.1-0.5C17.3,10.3,17,10.4,16.7,10.5 M16,11.4c0.2,0.2,0.3,0.6,0.5,0.8
    c0.3-0.4,0.5-0.7,0.8-1c-0.4,0-0.7,0-1.1,0C16.1,11.2,16.1,11.3,16,11.4z"/>
</svg>
