<svg enable-background="new 0 0 160 160" viewBox="0 0 160 160" xmlns="http://www.w3.org/2000/svg"><path d="m61.4 17.9c.1.3.3.6.6.8l24.9 24.9c-2.3-.4-4.6-.6-6.8-.6-9.9 0-19.2 3.8-26.2 10.8l-40.3 40c-.1.1-.2.2-.3.3l-9.6-9.6c-2.5-2.5-2.5-6.5 0-9zm18.6-16c1.7 0 3.3.7 4.5 1.9l57.6 57.6c-.1.1-.3.2-.4.3l-25.2 25.3c2.2-12-1.6-24.4-10.2-33.1l-3.2-3.2 5.7-7.2s0 0 0-.1c2.4-3.1 1.7-5.8 1-7.2 0 0 0-.1-.1-.1-1.1-2.1-3.3-3.5-5.7-3.5-1.6 0-3 .5-4.5 1.7l-7.3 5.6-25.6-25.9c-.2-.2-.5-.4-.8-.5l9.7-9.7c1.2-1.2 2.8-1.9 4.5-1.9zm-36.7 71.4c-2.3 11.9 1.4 24 9.9 32.8l3.4 3.4-5.6 7.1c-1.8 2.3-2.2 4.9-1 7.3 0 0 0 .1.1.2 1 1.9 3 3.2 5.2 3.4h.3c2 0 3.4-.9 4.5-1.6l7.2-5.5 25.8 25.6c.3.3.6.5 1 .7l-9.6 9.6c-1.2 1.2-2.8 1.9-4.5 1.9s-3.3-.7-4.5-1.9l-57.6-57.7c.1-.1.2-.2.3-.3zm103.4-7.3 9.5 9.5c2.5 2.5 2.5 6.5 0 9l-57.8 57.8c-.2-.4-.4-.7-.7-1l-24.7-24.7c2.3.4 4.6.6 6.8.6 9.9 0 19.2-3.8 26.2-10.8l40.2-40.2c.3 0 .4-.1.5-.2zm-42.5-28.1c.4 0 .8.3 1 .6.3.5.1 1-.4 1.7l-23.6 30s6 8.5 13.4 19.3c.4.6.6 2.8-.6 3.7l-36.9 28.3c-.6.4-.9.6-1.3.6-.4 0-.8-.3-.9-.6-.1-.2-.4-.8.4-1.8l23.6-29.9-13.5-19.1c-.9-1.2-.6-3 .6-3.9l37-28.4c.6-.5.9-.5 1.2-.5zm.6 2.3-23.6 30s6 8.5 13.4 19.3c.4.6.6 2.8-.6 3.7l-36.9 28.3c-.6.4-.9.6-1.3.6-.4 0-.8-.3-.9-.6-.1-.2-.4-.8.4-1.8l23.6-29.9-13.5-19.1c-.9-1.2-.6-3 .6-3.9l37-28.4c.6-.5 1-.6 1.3-.6.4 0 .8.3 1 .6.2.6.1 1.1-.5 1.8z" fill="#fff"/></svg>