<?xml version="1.0" encoding="utf-8"?>
  <svg version="1.1" id="Layer_1" xmlns="http://www.w3.org/2000/svg" xmlns:xlink="http://www.w3.org/1999/xlink" x="0px" y="0px"
    viewBox="0 0 1024 1024" style="enable-background:new 0 0 1024 1024;" xml:space="preserve">
  <style type="text/css">
    .st0{fill:#FFFFFF;}
  </style>
  <path class="st0" d="M566.3,489.7h85.3v-77.2h-85.3V489.7z M464.8,489.7h85.3v-77.2h-85.3V489.7z M365.2,489.7h85.3v-77.2h-85.3
    L365.2,489.7z M265.7,489.7H349v-77.2h-83.3L265.7,489.7z M164.2,489.7h85.3v-77.2h-85.3V489.7z M265.7,396.2H349V319h-83.3
    L265.7,396.2z M365.2,396.2h85.3V319h-85.3L365.2,396.2z M464.8,396.2h85.3V319h-85.3V396.2z M464.8,302.8h85.3v-77.2h-85.3V302.8z
    M923.7,455.1c0,0-36.6-34.5-111.7-22.3c-8.1-58.9-71.1-93.4-71.1-93.4s-58.9,71.1-16.2,150.3c-12.2,6.1-32.5,14.2-63,14.2H103.3
    c-10.2,38.6-10.2,294.5,270.1,294.5c201.1,0,351.3-93.4,422.4-264C901.4,542.5,923.7,455.1,923.7,455.1L923.7,455.1z"/>
</svg>
