<svg xmlns="http://www.w3.org/2000/svg" width="97.97727mm" height="128.01656mm" viewBox="0 0 277.73084 362.8816"><title>Risorsa 24</title><g id="Livello_2" data-name="Livello 2"><g id="Livello_1-2" data-name="Livello 1"><path d="M196.00843,77.29177C170.47408,51.76951,146.11187,27.43962,138.86135,0c-7.25088,27.43962-31.617,51.76951-57.14709,77.29177C43.41893,115.56293,0,158.93748,0,223.99184,0,300.57855,62.291,362.8816,138.86135,362.8816c76.58243,0,138.86524-62.29879,138.86949-138.88976,0-65.05011-43.41537-108.42891-81.72241-146.70007M59.02214,256.34977c-8.51464-.28912-39.93878-54.453,18.35806-112.124L115.95754,186.365s2.36878,2.22706-.25751,4.92082c-9.2055,9.44134-48.44171,48.78732-53.31849,62.39221-1.0066,2.80815-2.47674,2.70194-3.3594,2.67175m79.84347,71.38635a47.759,47.759,0,0,1-47.75939-47.75938c0-12.09214,4.80716-22.86793,11.90389-31.54632,8.61161-10.53036,35.8491-40.148,35.8491-40.148s26.8205,30.05237,35.78481,40.04746a46.706,46.706,0,0,1,11.981,31.64684,47.75949,47.75949,0,0,1-47.75937,47.75938m91.41133-77.44876c-1.02935,2.25121-3.36439,6.00948-6.516,6.12421-5.6177.2046-6.218-2.67388-10.37017-8.819-9.116-13.49017-88.67067-96.63406-103.5507-112.71395-13.08844-14.143-1.84309-24.11392,3.37325-29.33914,6.54441-6.55613,25.6473-25.64732,25.6473-25.64732s56.96026,54.04379,80.68775,90.97055,15.55027,68.88013,10.72856,79.42469" style="fill:#fff"/></g></g></svg>