<svg enable-background="new 0 0 243.7 243.7" viewBox="0 0 243.7 243.7" xmlns="http://www.w3.org/2000/svg"><path clip-rule="evenodd" d="m240.6 113.3c3.6-6.3 3.6-14 0-20.2l-45.2-78.3c-3.6-6.3-10.3-10.1-17.5-10.1h-90.5c-7.2 0-13.9 3.9-17.5 10.1l-29.6 51.2-37.2 64.4c-3.6 6.3-3.6 14 0 20.2l45.2 78.4c3.6 6.3 10.3 10.1 17.5 10.1h90.4c7.2 0 13.9-3.9 17.5-10.1l29.6-51.3zm-37.2 64.4 1.8-3.1c3.6-6.3 3.6-14 0-20.2l-45.2-78.3c-3.6-6.3-10.3-10.1-17.5-10.1h-102.2l-1.8 3.1c-3.6 6.3-3.6 14 0 20.2l45.2 78.3c3.6 6.3 10.3 10.1 17.5 10.1z" fill="#fff" fill-rule="evenodd"/></svg>