<svg enable-background="new 0 0 480 480" viewBox="0 0 480 480" xmlns="http://www.w3.org/2000/svg"><path d="m400.3 4.7c-120.9 23-231.4 56.3-325.2 102.2-4.2 0-6.3 4.2-6.3 8.3v235.5c0 22.9 12.5 43.8 31.3 54.2l108.4 62.5c18.8 10.4 43.8 10.4 62.5 0l108.4-62.5c18.8-10.4 31.3-31.3 31.3-54.2v-337.6c2.1-4.2-4.2-8.4-10.4-8.4zm-227.2 321c-22.9 8.3-45.9 18.8-66.7 29.2v-54.2c0-2.1 2.1-4.2 4.2-6.3 20.8-10.4 41.7-18.8 62.5-27.1zm89.6-112.5c-56.3 16.7-110.5 35.4-156.3 58.4v-52.1c0-2.1 2.1-4.2 4.2-6.3 45.9-22.9 98-41.7 154.2-56.3zm91.7-152.2v50c-93.8 16.7-177.2 43.8-248 79.2v-52.1c0-2.1 2.1-6.3 4.2-6.3 68.8-33.3 150.1-60.4 237.6-77.1 4.1.1 8.3 2.1 6.2 6.3z" fill="#fff"/></svg>