<?xml version="1.0" encoding="utf-8"?>
<svg version="1.1" id="Layer_1" xmlns="http://www.w3.org/2000/svg" xmlns:xlink="http://www.w3.org/1999/xlink" x="0px" y="0px"
	 viewBox="0 0 1024 1024" style="enable-background:new 0 0 1024 1024;" xml:space="preserve">
<style type="text/css">
	.st0{fill:#FFFFFF;}
</style>
<g id="layer1" transform="translate(-27.820801,-24.714976)">
	<path id="path2900" class="st0" d="M360.8,847.1C137.7,671.7,139.2,474.1,103,392.3c-22.3-35.1,3.8-73.4,42.2-84.6
		c17.1-3.3,47.2-19.4,10.9-7.9c-32.5,23.9-35.7-21.7-2.3-24.6c22.8-3,31.2-21.7,23.4-38.5c-24.4-15.9,59.3-33.5,17.2-57.3
		c-43.9-47.4,61.4-56.5,35.4-2.7c-6.2,41.4,73.6-7.6,55.1,40.2c18.8,22.9,70.5,5.2,69.2,37.4c27.4,1.9,36.8,24.9,62.5,26.7
		c26.7,12,75,21.5,84.1,51.6c-26.5,20.9-87.7-43.3-90.7,14.7c17.6,189.1,1.6,241.2,120.5,382.2c42.2,51.2,123.3,103.3,235.1,123.4
		c16.6-12.7,46-60,71.9-40c1.2,22.4-51.5,46.8-2.5,44.3c28.8-8.7,48.7,22.2,72.4-5.6c21.8,25.8,90.7-16.5,75.2,36.3
		c-21,13.5-51.6,5.4-72.6,24c-34.7-17.3-62.3,15.5-100.7,11.3c-124.9,22.4-270.1,3.7-340-21.9C412.1,884.8,361.4,845.8,360.8,847.1z
		 M534.7,911.1c64.5,9,131.1,22.8,195.9,10.2c-29.3-13.2-59.6,5.2-88.8-9.5c-64.6,13.9-175.4-26.5-230.2-60.4
		c-47.4-17.3,24.5,22.2,37.3,25.4c29.6,16.8-32.6-8.6-41.3-15.6C343.7,825.4,441.8,899.5,534.7,911.1z M350.1,823.2
		c36,13.3-0.2-25.3-16.6-23c-7.3-12.7-27.9-20.7-13.4-27.5c-26.1,9.1-27.4-34.5-39.6-28.3c-27.6-8.7-10.8-39.6-43.7-58.6
		c-3-20-32.7-37.4-42.2-67.5c-10.7-39.6-62.8-80.3,49.4,89.3c17.5,32.4,38.1,66.2,69.9,86.4C324.6,804.2,334.9,819.9,350.1,823.2
		L350.1,823.2z M246.5,709.4C247.7,704,253.1,721.2,246.5,709.4z M393.1,839.1C401.1,835.6,381.7,834.6,393.1,839.1z M412.6,846.2
		C410.6,836.4,403.7,851.7,412.6,846.2z M437.1,856.4C448.7,845.4,419.1,849.5,437.1,856.4z M478.9,879.8
		C486,869.3,456.3,875.8,478.9,879.8z M398.5,823.7C416.6,812,375.2,823.6,398.5,823.7z M416.9,832.9
		C416.4,826.7,410.3,835.6,416.9,832.9z M508.5,890c14.7,9.3,86,20.4,41.4,3.8C542.4,895.4,467.1,872.5,508.5,890z M363,776.8
		C361.6,770.6,340.2,769.9,363,776.8z M405.7,801.6C416.8,793.9,382.7,795.7,405.7,801.6z M441.6,823.6
		C457.5,817.6,415.7,817.6,441.6,823.6z M345.7,757.9c17.3,13.3,69.7,1.7,26.5-7.9c-19.7-10.5-64-17.7-33.8,6.3
		C346.8,758.1,345.6,758.3,345.7,757.9z M465.9,831.2C473,819,435.7,824.2,465.9,831.2z M429.3,802.2c42.3,12-35.5-26.7-10.4-4.4
		C419.4,798,429.4,802.7,429.3,802.2z M502.5,844.5C542.6,844.9,466.4,839,502.5,844.5L502.5,844.5z M330.3,734.7
		C328.7,727.3,320.4,735.3,330.3,734.7z M570.2,882.5C571.3,869,557.2,892.5,570.2,882.5z M398.6,776.5
		C396.2,769.5,386.1,776.3,398.6,776.5z M334.1,730C357.1,728.7,302.6,719.9,334.1,730z M257.7,680.7
		C254.8,669.7,232.7,660.9,257.7,680.7z M458.3,807.9C454.1,803.2,456.3,809,458.3,807.9z M583.1,884.6
		C582.7,877.2,576.3,887.3,583.1,884.6z M447.2,796.5C449.5,787.1,427.6,793.7,447.2,796.5z M354.2,737.6
		C371.3,735.8,326.8,726,354.2,737.6z M511.5,835.4C538.2,824.8,485.6,830.2,511.5,835.4z M429.7,779.8c30.7,4-36.5-20.9-6.7-2.2
		C430.5,780.1,429.6,780.3,429.7,779.8z M536.4,845.4c28.7-17.1,19.2,40.1,48.6,4.8c29-21.2-25.1,26.2,10.7,3.8
		c35.6-23.8,107.9,39.4,140.2,21.9c34.2-9.2-67-13.7-40.4-30C664.2,855,641,835,625.6,815c-35.1-8.1-75.8-26.1-93.3-57.2
		c-7.2-11.7,10.3,1.6-6.2-17.4c-21.2-18.8-31.7-40.2-46-63.1c-17-9.1-19-35.7-20.7-0.9c0.1-22-20.5-36.8-25.5-30.6
		c-0.1-21.2,22.1-10.6,6.6-26.2c-3.3-21.9-14.3-44.8-17.7-69.6c-5.1-11.9-0.7-37.5-17.5-10.5c-6.1,28.6-2-35.1,7.5-14.1
		c12.5-21.4-4.5-18.9-5.2-15.9c8.1-18.1,5.2-43.7-2.1-33.9c4.3-19.2,6.9-70.5-6.5-61.4c8.1-20,15.3-91.7-19.8-64.4
		c-14.2,0.2-38.9,5.2-50.6,11c36.5,20.1-3.7,7.3-18.6,4.1c-1.9,18.6-16.7,10.6-35.1,10.8c29.4,3.6-14.3,30.1-31.2,19.8
		c-21.9,10.5,18.9,36.6,0.4,44.7c2.3,12.2-33.6-4.4-30.7,23.7c-21.3-8.9-2.9,33.4,7.7,19.1c36.2,9.8,25.5,32.1,26.4,53.3
		c-5.9,12.4-29.1-29-5.2-27.1c-18.9-30.7-20.9-11.1-36.6,3.2c-3.6,1,40,20.3,12.6,29.8c24.1,3.7,24.8,24.8,29.7,38.2
		c14.5,15.1,11.5-16.7,28.9,1.5c-11-16.2-58.1-45.5-20.2-36.1c-0.2-16.3-6.9-29.4,4.8-29.1c11.5-20.9-12.1,51.4,13.9,24.9
		c7.2-3.1,9-20.9,21.9,1.7c18.8,18.5,6.8,31.8-19.7,14.9c4.7,16.1,35.4,21.8,29.6,46.9c6.1,22.1,14.7,14,22.1,12.7
		c5.8,21.5,9.2,5.7,9.4-4.5c26.8,5.7,20.5,21.5,28.9,32.6c18.4,8.3-26.4-56.4,5.3-19.5c33.3,30.1,12.5,42.6-17.4,37.8
		c18.9-1.5,25,25.6,48.7,24.6c21.6,10.3,36.2,49.7-1,33.3c-12.9-11.6-58.5-26-21.3-3.9c34.4,15.9,61.8,25.5,95,45.5
		c23.8,17,34,36.4,43,40.3c-20,9.5-60.2-7.6-30.3-12.9c-18.6-3.4-39.6-12.8-21.7,10.4c15.2,12.7,53.8,11.3,60.7,12.8
		c-5.9,12.9-15.9,13.9,0.2,14.9C510.9,838.4,534.7,839.9,536.4,845.4L536.4,845.4z M497.5,727c6.1,2.4,19.5,35.1,1.9,14.3
		C493.5,741.3,482.7,703.6,497.5,727z M619.6,817.5C626.4,817.1,619.8,822.7,619.6,817.5z M482.2,713.1
		C481.7,695.8,486.1,726.5,482.2,713.1z M470.2,697.1C456.4,670.4,487.6,704.6,470.2,697.1z M325.6,597.2
		C333.7,595,329.6,611.1,325.6,597.2z M440.7,659.6C445.7,640.9,446.6,675.3,440.7,659.6z M359.4,603.1
		C353.6,592.7,371.4,612.7,359.4,603.1z M429.2,625.4c-13.1-29.3,9.3-16,2.9,4.8C429.2,625.5,428.7,625.4,429.2,625.4z M308.8,545.2
		c-5.8-9.6-15.5-37.8-12.4-46.4c2.8,14,29.8,60.3,13.2,19.2c-18.3-34.5,21.9,11.2,26,19.8c1.9,8.6-11.3-2.3-2.3,17.7
		C317,532.6,323.7,568.1,308.8,545.2z M271.6,519.5C273.1,497.2,280.1,534.8,271.6,519.5z M288.3,525.3
		C296.3,508.4,301.9,548.8,288.3,525.3z M248.1,494.1c-13.9-13.8-23.9-26.5,0.6-8.5c9.4,0.4-21-28.9,2.3-9.3
		C275.5,480.8,263.1,516.4,248.1,494.1z M269.2,493.6C277.3,485.6,273.5,501.4,269.2,493.6z M282.2,497.8
		C270,474.9,297,507.3,282.2,497.8z M256.4,473c-40.3-35.8,50.6,18.7,6.6,6.6C254.8,471.5,256.4,473.5,256.4,473z M371.7,540.1
		c-17.4-10.4-4.6-73.5,1.3-30.4c16.9-5.5-0.9,22.3,11.7,22C382.8,549.2,377.1,555.5,371.7,540.1z M414.4,565.3
		C416.1,546.3,418,578.3,414.4,565.3z M407,558C408.9,549.8,407.2,567.5,407,558z M264.3,461.3c-25.9-35.7,75.2,36.1,16.6,9.1
		C274.7,468.7,267.3,468.1,264.3,461.3z M346.4,504.8C344,474.8,351.9,509.8,346.4,504.8L346.4,504.8z M408.8,544.9
		C413.6,527.7,409.2,556.2,408.8,544.9z M268.2,447.6c15.4-3.3,63.7,27,19.3,8.7C282.6,450.8,272.1,453.3,268.2,447.6z M400.2,513.4
		c1.6-30.7,9.2-18.4,0.1,4.4C400.2,512.6,400.7,513.4,400.2,513.4z M279.7,437c6.3-9.2-16.6-41.5,3.3-11.6
		c8.6,6.8,24.9,11.5,10.5,14.3C316.2,459.7,288,445.1,279.7,437z M393.7,503.8C398,468.8,397.5,524.4,393.7,503.8z M266.6,404.6
		C271.4,402.6,269.1,411,266.6,404.6z M296.3,422.3C304,406.3,310.5,440.2,296.3,422.3z M380.2,469C380.2,462.8,381.8,478,380.2,469
		z M375.4,458.2C363.7,429.5,386.2,473.5,375.4,458.2z M368.2,439.4C366.3,427.5,374.9,454.3,368.2,439.4L368.2,439.4z M379.9,420.5
		c-8-14.1,10.1-62.1,12.1-32.3c-8.4,23.2-2.4,36.2,3.5,5.1C406.3,368.8,393.1,441.5,379.9,420.5L379.9,420.5z M391.8,349.1
		C395.3,344.9,392.6,354.3,391.8,349.1z M371.9,742.7C367.1,738.6,372.5,745.3,371.9,742.7z M413,763.5c22.9,5.9,22.8-3.6,2.1-6.4
		c-11.1-10.4-46.2-21.3-14.8-1.3C402.7,762,413,761.9,413,763.5z M331.7,709.5c12.6,9.4,47.5,26.6,18,3.6
		c10-11.6-19.1-17.7-9.4-25.5c-24.5-15-19.3-13.6-2.2-13.2c-29.4-13.2,4.2-12.2,2.7-18.9c-11.3-2.2-56.3-20-29.9,1.5
		c-26.9-13.7-6.4,5.1-14.5,3.1c-27.5-7.5,24.5,21-4.4,13.9c15.8,12.5,42.5,32,6.7,13.2C294.3,693.5,331.7,710,331.7,709.5z
		 M374.8,734.3C427.1,751.1,349.1,713.7,374.8,734.3z M595.1,867.7C595.7,857.3,587.9,876.6,595.1,867.7z M617.7,877.3
		c12.1-11.7,0.5,18.6,20-2.9c0.2-15.4-0.6-24.5-22.4-5.8C609.3,871.9,606.6,886.1,617.7,877.3L617.7,877.3z M258.3,651.5
		C254.6,637,232.3,637,258.3,651.5z M282.5,667.4C273.5,652.5,250.4,653.9,282.5,667.4z M420,750.3c13.4,11.9,61.7,8.8,16.3,1.5
		C429.6,741.9,393.7,744.2,420,750.3z M609.1,867.1C629.8,849.8,589.1,874.8,609.1,867.1z M652.1,896.6
		C652.2,891.1,643.2,899.1,652.1,896.6z M652.2,888.8C675,864.6,630,890.3,652.2,888.8L652.2,888.8z M198.8,601.7
		c-19.5-27.8-12.1-40.3-30.9-63.1c-3.6-17.4-32.3-56.8-14.8-15C169,548.1,173.7,585.9,198.8,601.7z M645,881.1
		C687.1,853.9,627.7,869.3,645,881.1z M677.1,893.7C698.2,875.6,663.8,889.9,677.1,893.7z M251.1,620.8
		C257.2,611.8,235.5,619.6,251.1,620.8z M670.4,885.1c20.4-13.2-4.7-11.1-3.7,1.2C668.1,885.9,670.9,885.1,670.4,885.1z
		 M393.3,710.5C392.6,701.6,382.5,711.2,393.3,710.5z M410.4,720.3C405,709.3,402.1,722.1,410.4,720.3z M703.2,894
		c26.2-18.9-15.9-3.6-5.5,3.6C704.8,893,702.7,894,703.2,894z M693.2,889.2C714.5,871.3,670.7,897.1,693.2,889.2z M744.3,923.3
		C758.6,913.7,726.9,920.2,744.3,923.3z M264.2,614.3c19.2,4.3,76.6,47.2,42.7,3c-17.4-5.1-6.9-47.6-24.7-40.1
		c11.9,19.9,9.8,28.3-15.2,15.8C224.2,572,264.2,621.1,264.2,614.3z M176.9,545.3c3.4-14.2-31.6-78.1-16.5-32
		C165.8,522.9,165.2,541.2,176.9,545.3z M337.2,644.2C327.4,635.9,336.8,643,337.2,644.2z M361.6,649.8
		C361.5,634.8,334.7,643.7,361.6,649.8z M572.3,782.7C568.3,772.4,556.4,782.4,572.3,782.7L572.3,782.7z M582.4,790.1
		C580.9,784.3,576.6,791.2,582.4,790.1z M665.9,842.7C674,836.7,655.9,841.9,665.9,842.7z M220.5,556.4
		C243.5,547.5,195.9,550.1,220.5,556.4z M553.7,766.4C553.5,751.5,539.1,770,553.7,766.4z M211.4,535.3
		C226.2,530.3,197.8,532,211.4,535.3z M254.3,556C254,551.1,249.8,557.9,254.3,556z M776.8,876.4c19-3.8,62.2,9.7,69.2-5
		c-23-0.6-79.7-16.3-82.4,3.7C765.4,875.4,776.8,876.9,776.8,876.4z M267.9,559.5C268.2,544.4,256.1,558.9,267.9,559.5z
		 M155.3,481.3C150.1,452.6,135.8,477,155.3,481.3z M182.1,488.1C182.5,478.9,157.5,479.8,182.1,488.1z M197.5,495.6
		C193,492,194,500.2,197.5,495.6z M294.1,557.6C298.6,553.4,283.3,554.5,294.1,557.6z M187.2,478.6
		C184.7,456.9,156.1,475.4,187.2,478.6z M132.2,442.9C131.4,432.9,126.8,446.7,132.2,442.9z M140.4,436.7
		C139,424.8,133.3,438.2,140.4,436.7z M185.6,463.7c19.1-7.5-34.9-15.5-3.9-1.4L185.6,463.7z M791.3,837.8
		C803.6,826.6,775.8,834.4,791.3,837.8z M864.5,875.8C869.4,861.3,852.1,877.7,864.5,875.8z M190.3,440
		C192.3,425.9,175.1,442.8,190.3,440z M125.9,396.8c-3.5-19.8-3-54.6,30.1-42.9c-44.2,8.8,30.6,54.9,21.1,18.5
		c18.6,0.9,36.3-11,26.6,7.1c36.6-4,62-35.8,97.3-31.3c27.5-3.6,57.6-6.4,87.3-17.5c24.4-1.8,47.9-28,34.5-43.6
		c-90.8-7.7-166.3,30.5-223.7,40.1c-40.1,5.4,8.1,14.8-3.4,16.9c-20.9,7.3,24.9,12.1-2.7,19.8c-17.1-3.2-34.8-9.1-27.6-27.1
		C76.8,348.4,125.9,396.4,125.9,396.8z M218.3,349.7c9-33.2,48.2,27.3,14.7,4.4C229.1,351.2,222.5,348.7,218.3,349.7z M220.1,333.7
		C233.1,324,227,339.1,220.1,333.7z M236.6,333.9c1.2-15.3,37.8,8.1,6,5.5C237.2,334.5,236.1,333.9,236.6,333.9z M259.1,324.9
		C267.4,315.2,261.5,333.4,259.1,324.9z M264.9,321c13.7-16.5,77.7-10.5,30.9-1.6C283.2,309.9,273.6,325,264.9,321z M348.4,308.1
		C346.3,263.1,389.9,324.1,348.4,308.1z M372.1,308c8.7-22.7,33.6-9.1,4-4.6C376.7,305.9,375.2,315.2,372.1,308z M180.9,428.3
		C206.8,412.5,153.4,414.6,180.9,428.3L180.9,428.3z M200,433.7C209.1,424,180.3,429.7,200,433.7z M143.7,393.7
		C158.5,382.3,126.2,389.3,143.7,393.7z M907.7,871.6C908.1,858.4,896.4,877.6,907.7,871.6z M830.1,818.6
		C832.3,803.5,820.1,820,830.1,818.6z M946.7,870.3c-7.1,1.1-41.1,0.9-17.7,6.4C928,878.8,1001.2,870.3,946.7,870.3z M216.9,424.4
		c16.7-1.1,26.2-18.5-3.2-17.5c-45.6-4.7,40.2,15.6-5.8,9.8C201.6,420.8,216.5,425.5,216.9,424.4z M231.6,431.8
		C229.9,421.1,226.4,437.5,231.6,431.8z M249.1,385.2C256.3,376.2,239,382.8,249.1,385.2z M193.4,292.2c29.9-10.2,70.7-21.6,84.8,5
		c-14.3-17.3-5.8-34.3,7.8-9c19.2,25.5,28.8-11.6,16.3-20.2c14.2,17.6,30.4,26,9.5,1.1c22.7-27.2-45.4,3.6-60.8,3.3
		C243.5,275.7,174.2,290.1,193.4,292.2z M210.9,258.7c17-12.9,58.9,7.6,32-12.8C240.3,243.6,184.1,261.4,210.9,258.7z M273,261.3
		c19.9,0.5-8.6-26.8,15.2-14.4c-3.9-12.7-27.6-15.1-39.3-20.2C242.3,238.3,262.3,261.4,273,261.3z M221.8,204.9
		C228.7,195.6,209.7,209.7,221.8,204.9z M247.2,211c32.1-4.3-8.2-13.8-6.5-0.3C248.3,211,247.2,210.5,247.2,211z M199.8,173.9
		c-22.6-29.5,42.5,5,19.6-25.9C200,132.6,181.5,165.3,199.8,173.9z M490,330.2c10.4-18.4-42.8-24.8-7-6.5
		C486.3,324.8,485.6,331.5,490,330.2z"/>
</g>
</svg>
