<svg enable-background="new 0 0 72 72" viewBox="0 0 72 72" xmlns="http://www.w3.org/2000/svg"><path clip-rule="evenodd" d="m27 25.9c2.1-1.8 4.7-3 7.5-3.5 2-.4 3.9-.4 5.8 0l-4 4.2c-.3 0-.7.1-1 .1-2 .4-3.9 1.2-5.4 2.5-1.5 1.2-2.6 2.8-3.2 4.8-1 2.9-.6 6 .7 8.5 1.4 2.6 3.7 4.7 6.8 5.8 3.1 1 6.3.8 8.9-.5 2.6-1.2 4.8-3.5 5.7-6.4.6-1.8.7-3.6.4-5.3-.2-1.2-.7-2.4-1.3-3.5l1.1-5.6c.2.2.4.4.6.6 2 2.1 3.4 4.8 3.9 7.7.5 2.4.3 5-.5 7.6-1.4 4.1-4.4 7.2-8.1 9-3.7 1.7-8 2.1-12.2.7s-7.5-4.4-9.3-8c-1.9-3.6-2.3-7.9-1-12 .9-2.7 2.5-5 4.6-6.7zm26.8-7-.5 5.5c5.2 5.5 7.5 13.4 4.8 21.3-3.8 11.1-16.2 17-27.7 13.1s-17.9-16.1-14.1-27.2c3.3-9.8 13.4-15.4 23.2-14.1l4-3.5c-14.2-3.9-30.3 3.7-35.5 19-5.2 15.4 3 32.1 18.4 37.3s32.1-3 37.3-18.4c4.4-12.8-.3-25.6-9.9-33zm-15.7 13.3c-.5 0-1 0-1.4.1-1.9.3-3.5 1.6-4.2 3.5-1 2.8.6 5.9 3.6 6.9 2.9 1 6.1-.5 7-3.3.7-1.9.1-3.8-1.1-5.2l10.3-18.9 3.7-1.4 5.2-9-5.7.2-2.9-4.9-4.8 9.2.8 3.6z" fill="#fff" fill-rule="evenodd"/></svg>