<?xml version="1.0" encoding="utf-8"?>
<!-- Generator: Adobe Illustrator 27.1.1, SVG Export Plug-In . SVG Version: 6.00 Build 0)  -->
<svg version="1.1" id="Layer_1" xmlns="http://www.w3.org/2000/svg" xmlns:xlink="http://www.w3.org/1999/xlink" x="0px" y="0px"
	 viewBox="0 0 243.7 243.7" style="enable-background:new 0 0 243.7 243.7;" xml:space="preserve">
<style type="text/css">
	.st0{fill:#FFFFFF;}
</style>
<path class="st0" d="M186.9,71.1c-14.2,14.2-12.4,13.7-13.2,12.6C139,37.6,67.9,59,63,116c-3.1,36,24.9,66.6,54.5,69
	c30.2,2.4,54.6-19.9,56.8-45c0.1-1.6,5.1-1.1-51.8-1.1c-0.1-0.7,2.2-2,16.3-17.2c18.8,0,37.6,0,56.3,0c0.5,0.4,0.4,14.7-1.8,24.2
	c-17.3,76.2-122.7,75.2-146.1-0.5C20.8,59.9,135,2.9,186.9,71.1z M106.8,223.3C28.5,212.1-7.9,117.7,42.6,56.8
	c32.4-39,74.8-36.7,79.1-37.7c0-19,0.1-18.1-0.1-19C53.7-1.2-6.1,60.4,0.5,131.5c7,76.2,75.5,115.7,121.2,112c0.2-2.1,0.2-18,0-19.1
	C121,224.4,112.9,224.1,106.8,223.3z M174.2,20.1c1.6-7.1-5.7-12.7-11.3-11.3c-6.3,1.6-8.3,7.4-7.8,10.5
	C157.1,30.5,171.9,30.6,174.2,20.1z M233,112.2c-7,1.2-9.1,7.5-8.7,10.3c1.8,12.4,19.1,11.7,19.4-1.1
	C243.5,115.3,237.3,111.5,233,112.2z M155.3,223.9c-1.3,5.9,4.8,12.2,10.5,11.3c6.2-0.9,9.5-6.9,8.7-11
	C172.1,212.9,157.5,213.5,155.3,223.9z M191.8,40.8c-2,7.8,8.5,16,16.2,8.7c6.3-5.9,1.8-16.4-6.9-16.5
	C196.5,33.3,193,35.9,191.8,40.8z M228.7,69.9c-6.8-2.9-13.8,4.3-12.8,10.1c2.1,12,19,11.2,19.3-1.4C235.1,75,233,71.7,228.7,69.9z
	 M215.9,166.1c2,10,14.8,11.2,18.5,2.1c2.6-6.3-2.5-13.1-9.2-13.1C218,155.6,215.1,162.3,215.9,166.1z M203.6,210.5
	c11.7-3.2,7.6-20.1-3-19C186.4,192.9,190.3,214.2,203.6,210.5z"/>
</svg>
