<svg viewBox="0 0 1024 1024" xmlns="http://www.w3.org/2000/svg"><g fill="#fff"><path d="m907.4 254c-139.71 7.4-222.54 11.12-293.56 11.75v158l-22.14-11-.15-146.9c-81.52 0-153.24-4.29-289.43-11.84-17-.18-40.8-3.37-66.32-3.45-65.21-.2-152.61 46.44-147.8 163.28 7.56 182.61 173.91 199.55 240.42 201 7.3 34.25 85.54 152.38 143.48 158.61h253.83c152.19-11.39 266.16-517.53 181.67-519.45zm-755.91 162.5c-6.5-50.63 16.33-103.62 101.33-101.34 9.24 93.54 24.3 148.27 54.78 231.89-77.76-10.28-143.94-35.69-156.11-130.55zm575.34 115.5-71.05 146.24a37.45 37.45 0 0 1 -50.06 17.32l-146.22-71a37.45 37.45 0 0 1 -17.32-50l71.05-146.23a37.46 37.46 0 0 1 50.06-17.32l146.22 71a37.45 37.45 0 0 1 17.32 49.99z"/><circle cx="570.29" cy="486.37" r="23.74"/><circle cx="519.35" cy="592.03" r="23.74"/><circle cx="603.13" cy="629.65" r="23.74"/><path d="m464.11 502.06h186.24v18.26h-186.24z" transform="matrix(.43868486 -.89864097 .89864097 .43868486 -146.61 787.64)"/></g><path d="m569.52 486.22c88.64 43.69 88.89 28 33.41 142.83" fill="none" stroke="#fff" stroke-miterlimit="15.12" stroke-width="18.31"/></svg>