<?xml version="1.0" encoding="UTF-8"?>
<svg id="Layer_1" data-name="Layer 1" xmlns="http://www.w3.org/2000/svg" version="1.1" viewBox="0 0 1000 1000">
  <defs>
    <style>
      .cls-1 {
        fill: #fff;
        stroke-width: 0px;
      }
    </style>
  </defs>
  <path class="cls-1" d="M747.7,657c-4.8,6-9.9,12-15.4,17.9,8.1,10.3,15.5,21.5,22,33.4,15.6,28.5,20.2,53.4,13.9,74.2-2.7,8.8-7,15.4-11.2,20.1,10.4,45.1-13.5,76.5-18.9,82.8-30,42.2-74.2,72.8-131.4,90.9-47.6,15.1-94.7,18.2-125.8,18.2s-35.3-1.4-38.5-1.8c-22.4-1.2-44.6-3.8-66.4-7.5,52.4,15.5,129.8,23.6,233.4-2.5,145.6-36.8,179.8-126.3,186.8-180,2.9-22.5.2-45.4-7.7-66.6s-22.6-55.7-40.7-79.1h0Z"/>
  <path class="cls-1" d="M727.3,611.3c-10.5,8.8-22.1,17-34.8,24.7.8.6,1.6,1.2,2.4,1.8,9,6.9,17.6,14.8,25.6,23.4,5.6-6,10.5-11.9,15-17.7,26.6-34.2,34.5-62.3,35.9-81.6-11.6,18-26.3,34.5-44.1,49.3h0Z"/>
  <path class="cls-1" d="M460.4,743l-5.7-15.7c-8.9,4-17.3,7.9-25.2,11.7,18.6,2.3,30.9,4,30.9,4h0Z"/>
  <path class="cls-1" d="M481.9,738l123.1,17.1c-1.4-4.9-3.1-9.7-5-14.6-.2-.6-.5-1.2-.7-1.8-.7-1.8-1.5-3.6-2.3-5.4-.8-1.8-1.6-3.6-2.4-5.3s-1.7-3.5-2.5-5.2c-.6-1.1-2.3-4.5-2.6-5.1-1.7-3.2-3.4-6.3-5.2-9.3-5.1-8.8-10-16.4-13.9-22.1-1.1.3-2.2.6-3.2.9-35.1,9.6-66.8,20.9-94.3,32.4l9.2,18.4h-.2,0Z"/>
  <path class="cls-1" d="M399.2,970.6c14.5,1.9,29.4,3.4,44.7,4.2,0,0,8.4.8,8.7.8s14.1.7,14.5.7,16.8.2,17,.2c.7,0,15.2-.4,15.5-.4,1,0,17-1,17.1-1,1,0,14.8-1.4,15.1-1.5,1.1,0,15.5-2.1,15.8-2.1,1.1-.2,14.1-2.4,15.3-2.7.4,0,12.9-2.8,13.3-2.8,1.2-.3,12.6-3.2,12.8-3.2,1-.3,10.5-3.1,11.6-3.4.4,0,9.3-3.1,9.7-3.2,1-.3,8.2-3,8.5-3.1,1-.4,8.1-3.3,8.4-3.4,1-.4,8-3.5,8.3-3.6,1-.5,7.9-3.8,8-3.8,1.2-.6,8-4.2,8.2-4.3,1.2-.6,7.9-4.6,8.2-4.7,1.2-.7,6.2-3.9,7.2-4.5.3-.2,4.8-3.2,5-3.4.9-.6,6-4.3,7.1-5.1.2,0,4-3.1,4.3-3.3,1.1-.9,3.3-2.7,3.3-2.7,1.1-.9,3.8-3.2,4.1-3.5.9-.8,3.1-2.8,3.3-2.9,1.1-1,3.7-3.4,4-3.7.9-.8,3-2.9,3.2-3.1,1-1,3.5-3.6,3.7-3.8.8-.9,2.9-3.1,3.2-3.4,1-1.1,3.3-3.7,3.5-3.9.8-.9,2.9-3.4,3.1-3.7.9-1.1,3-3.8,3.1-3.9.8-1.1,2.9-3.8,3.2-4.1.9-1.2,1.8-2.5,2.7-3.7,0,0,1.8-2,4.3-5.6.2-.2.3-.5.5-.7,1.1-1.6,2.2-3.5,3.4-5.7,0-.2.2-.5.4-.7,1-1.9,2-4,3-6.3.3-.8.7-1.6,1-2.5.2-.4.3-.9.5-1.3.5-1.3.9-2.7,1.4-4.1s.3-.9.4-1.4c.4-1.4.8-2.9,1.1-4.5.2-1,.4-2.1.6-3.1.3-1.6.5-3.2.7-4.9.4-3.4.5-6.9.4-10.6h0c0-4.8-.7-9.9-1.9-15.2,0-.3,0-.6-.2-.9-.8-3.3-1.7-6.7-3-10.1,0,0,9.5-4.9,14.1-18,.8-2.4,1.5-5,1.9-8,.4-2.5.5-5.1.5-8v-1.8c0-1.2,0-2.4-.3-3.7-.5-4.4-1.4-9.2-3-14.5-.3-1-.6-2.1-1-3.1-.4-1.3-.9-2.6-1.4-4-1.4-3.7-3.1-7.5-5-11.6-.7-1.4-1.4-2.7-2.1-4.2-.5-.9-1-1.9-1.5-2.8-1.9-3.5-4-7-6.1-10.5-2.1-3.4-4.4-6.8-6.7-10.2-1.7-2.4-3.4-4.7-5.2-7.1-.3-.4-.7-.9-1-1.3-1.6-2.1-3.3-4.2-5-6.2-2.2-2.6-4.4-5.1-6.7-7.6-1.9-2-3.8-4-5.7-6-6.1-6.2-12.7-11.9-19.5-17-2-1.5-4-2.9-6-4.3-.5-.3-1-.7-1.4-1-8.1,4.3-16.6,8.5-25.5,12.5-5.7,2.5-11.5,5-17.5,7.4-16.3,6.5-33.8,12.5-52.6,18,1,1.3,2.1,2.7,3.2,4.2,2.4,3.3,4.9,6.8,7.4,10.5.6.9,8.4,12.9,9,13.8,1.8,2.8,10.2,16.8,12,19.9,2.5,4.4,15.6,27.8,15.6,27.8l105.6,30s-130.6-17.5-132.7-17.7h-2.8s-.6.3-.7.3-.6.3-.7.4c-.2,0-.7.4-.8.4-.2,0-.7.4-.8.5-.2,0-1.6,1.1-1.7,1.1-.2.2-1.8,1.3-1.9,1.3-.3.2-2,1.5-2,1.5-38.1,28.8-147.7,147.4-157.4,157.9l-.7.7c3.2-5.1,11.5-15.1,22.5-27.8,1.7-1.9,130.6-140.1,130.6-140.1-2.9-1.7-8.9-3.2-16.8-4.6-3.3-.6-6.9-1.1-10.8-1.7-4.6-.6-9.6-1.2-14.7-1.8-1.7-.2-45-4-46.6-4.1-13.4-1-31.8-2-31.8-2-2.1.8-4.3,1.8-6.6,3-3.6,1.8-7.4,3.9-11.4,6.3-3.4,2-6.8,4.3-10.4,6.7-.7.5-1.4,1-2.1,1.4-2.7,1.8-5.4,3.8-8.2,5.8-.6.5-12.2,9.1-13.5,10.2-3.9,3-7.8,6.2-11.8,9.4-4.6,3.7-16,13.3-17.1,14.3-11.7,10-23.3,20.3-34.2,30.3-34.3,31.3-61.3,58.8-61.3,58.8,2.7-4.3,6.2-9.1,10.4-14.3,1.4-1.7,2.9-3.5,4.5-5.3.9-1,1.7-2,2.6-3,2.3-2.6,4.8-5.3,7.4-8,1-1,13.8-14,14.8-15,7.2-7.1,14.9-14.4,22.8-21.6,2.3-2.1,31.8-28.3,37.3-33,4.4-3.8,58.6-48.4,58.6-48.4l-35.8-2.8c-32.6,17.2-51.1,30.1-51.4,30.4l-6.4,4.6-5.4-5.8c-.7-.7-11.4-12.5-25.8-36.1l-23.6-1.8c-.8.3-1.6.6-2.5.9-5.8,2.2-12,5.1-18.4,8.6-2.8,1.5-5.6,3.1-8.4,4.8-1.9,1.1-3.8,2.3-5.7,3.5s-1.9,1.2-2.9,1.8c-4.2,2.8-8.5,5.7-12.8,8.7-1.1.8-6.1,4.4-7.5,5.4-5.6,4.1-11.1,8.4-16.6,12.7-34.9,27.6-64.3,56.5-64.3,56.5.7-2.5,2.1-5.3,4.2-8.4.4-.6.8-1.2,1.3-1.9.9-1.3,2-2.7,3.1-4.1,2-2.5,4.2-5,6.7-7.7,1.2-1.3,2.5-2.7,3.9-4.1s2.7-2.8,4.2-4.2c1.4-1.4,2.9-2.8,4.5-4.2,2.3-2.1,4.7-4.3,7.1-6.5,3.2-2.9,6.6-5.8,10-8.7s21.7-17.8,26-21.2c6.8-5.4,44.5-33.3,44.5-33.3-.3,0-2.1-.3-2.2-.3-.2,0-3.8-.4-4-.4s-7.6-.6-7.8-.6c-.3,0-21.8-.7-22.1-.7s-102.6,1.2-102.9,1.2c-.9,0-77.1,2.6-77.1,2.6,1.6-.5,3.5-1,5.8-1.4,1.1-.2,2.3-.5,3.6-.7s7.3-1.2,8.3-1.3c1.5-.2,12.7-1.6,15.2-1.8,1.8-.2,42.8-3.5,44.3-3.6s141.3-5.8,141.3-5.8c-2.5-7.6-6.8-15-12-22.1-1.4-1.9-3-3.9-4.5-5.7-.5-.6-1.1-1.3-1.6-1.9-1.6-1.9-3.3-3.7-5-5.5-2.9-3-5.9-5.9-9-8.8-4.3-3.9-8.7-7.7-13.1-11.2-5-4-10-7.6-14.7-10.9-15.2-10.6-27.1-17-27.1-17,3.2.6,6.6,1.6,10.1,3,4.2,1.6,8.6,3.8,13.1,6.3,2.2,1.3,4.5,2.6,6.8,4s4.6,2.9,6.9,4.5c2.1,1.4,4.2,2.9,6.3,4.5,1.7,1.3,3.5,2.6,5.2,3.9,1.4,1,2.7,2.1,4.1,3.2,2.4,1.9,4.8,3.9,7.2,5.9,1.1.9,6.9,5.9,7.5,6.4,11,9.7,21,19.3,28.4,26.8,1.5,1.5,2.8,2.8,4.1,4.1,6.3,6.5,10,10.6,10,10.6,4.3.2,8.8.4,13.5.6-5.5-9.9-11.2-21.3-17-34.2-10-22.5-20.9-51.5-29.9-87.1-.6,0-11.3,2.6-11.6,2.6-2.6.6-17.4,4.6-18,4.7-2.3.7-16.6,5-17.2,5.2-2.1.7-15.7,5.5-16.4,5.7-2,.7-14.9,5.8-15.5,6.1-1.8.7-13.9,6-14.6,6.3-1.6.7-12.8,6.1-13.5,6.4-1.6.8-12.8,6.6-13.5,7-1.5.8-12,6.7-12.7,7.1-1.3.8-11.3,6.8-12,7.2-1,.7-12.9,8.4-13.7,9-.9.6-11.7,8.3-12.5,8.9-.9.6-10.9,8.3-11.7,9-.6.5-11.4,9.4-11.9,9.9-.7.6-10.3,9.2-10.8,9.6-.7.6-8.9,8.6-9.4,9.1-.4.4-8.5,8.8-8.8,9.1-.4.5-6.6,7.4-6.9,7.7-.2.3-5.1,6.2-5.4,6.5l-3,4s9.2,14.1,27.8,35.3c7.3,8.4,16,17.8,26.2,27.9,14.1,14,31,29.3,50.6,44.8,4.4,3.4,8.9,6.9,13.5,10.3,3.5,2.6,7,5.2,10.7,7.7,4.8,3.4,9.8,6.8,14.9,10.2,7.7,5.1,15.7,10.1,23.9,15,2.8,1.6,14.1,8.1,17,9.7,2.9,1.6,5.8,3.2,8.8,4.7,4.5,2.3,9,4.6,13.6,6.9,3.1,1.5,6.2,3,9.3,4.5,7.9,3.7,15.9,7.2,24.2,10.6,6.6,2.7,13.4,5.3,20.3,7.8,3.3,1.2,10.3,3.6,10.5,3.7,3.5,1.2,7.1,2.4,10.7,3.5,25.1,8,51.9,14.5,80.4,19,4.1.6,8.2,1.2,12.3,1.8h-.7v.3Z"/>
  <path class="cls-1" d="M922,215.7C846.1,139.7,757.7.3,757.7.3c-20.6,56-97.2,166.6-130.2,213,11.1,3.9,22,8.7,32.7,14.5l99-209.4c4.7,35.9,66.5,158.1,128.6,220.3,62.1,62.2,87.6,51.2,87.6,51.2,0-18.8-53.4-74.2-53.4-74.2h0Z"/>
  <path class="cls-1" d="M313.7,130.3c50.1-21.8,105.4-70.7,105.4-70.7-3.7,94.6-14.1,141.8-20.2,161.8,6.7-3.2,13.6-6.1,20.7-8.6,5.2-1.9,10.5-3.6,16-5.2l-8.6-162.7c-19.5,13.5-65.2,27.6-92.8,35.3-15.8,4.4-31.3,10-46.3,16.6-18.1,8-43.1,19-62,27-33.6,14.1-31.2,29.4-31.2,29.4,13.5,13.5,68.9-1.2,119-23h0Z"/>
  <ellipse class="cls-1" cx="584.2" cy="455.2" rx="55.4" ry="66"/>
  <path class="cls-1" d="M220.7,498.2c8.1,8.5,17.4,14.5,26.7,19.1,3.2,1.5,6.4,2.9,9.5,4.2,3.2,1.3,6.4,2.5,9.6,3.6,2.8,21.6,6.4,41.6,10.5,60,1.4,6,2.8,11.8,4.2,17.5,8.6,33.6,18.8,61.1,28.3,82.4,7.7,17.5,15.5,32.1,22.5,43.9s6.8,11.1,9.8,15.6c4.7,7.1,8.8,12.5,11.6,16.2,4.9-3.2,12.4-7.9,22.1-13.6,6.2-3.6,13.4-7.6,21.4-12,14.4-7.7,31.6-16.3,51.4-25,5.2-2.3,16.1-6.9,16.1-6.9,28.3-11.8,61.1-23.5,97.7-33.5,25.4-6.9,48.5-14.7,69.4-23.4,6.3-2.6,12.4-5.3,18.3-8.1,0,0,4-1.9,6-2.9,6.8-3.4,13.4-6.8,19.7-10.4,42.7-24.4,72.7-54.3,90.3-89.8,4.4-8.8,7.9-17.9,10.8-27.4,2.8-9.1,4.8-18.6,6.2-28.4,6.7-48-10.3-106.8-45.6-157.3-17.9-25.7-40-48.1-64-65-6.8-4.8-13.8-9.1-20.9-13-11.7-6.4-23.7-11.6-36-15.5-8.7-2.8-17.5-4.9-26.4-6.4l-.8-.2c-.3,0-29.7-7.7-70.2-7.7s-10.1.1-15.4.4c-23.8,1.2-46.3,5-67.2,11.4-3.8,1.2-7.5,2.4-11.1,3.7-8,2.9-15.8,6.3-23.2,10-11.1,5.6-21.6,12-31.4,19.3-3.6-1.1-7.3-2-11.2-2.7-3.9-.7-7.9-1.3-12.2-1.6-2.6-.2-5.2-.3-8-.3-18.1,0-36.5,4.5-54.6,13.3-26.7,13-49.2,34.1-65,60.9-25.9,43.9-28.8,78.4-26.6,99.6,3.1,30.9,12.1,53.8,27.4,69.9h.3ZM429.9,458.4c.1-2.1.3-4.3.6-6.3.5-4.6,1.1-8.9,1.9-13.1.3-1.7.6-3.3.9-4.9,1-4.8,2.1-9.2,3.1-13.1.7-2.6,1.4-5.1,2.1-7.2s1.3-4.1,1.9-5.8c1.6-4.6,2.8-7.3,2.8-7.3.6-1.3,6.2-12.6,6.5-13.1.4-.8,5.6-10.5,5.8-10.8.6-1.1,5.4-9.2,5.8-9.9.3-.4,4.5-7.1,4.8-7.5.4-.6,4.2-6.1,4.4-6.4.5-.7,4-5.6,4.3-6,.4-.5,4.7-6.1,5.1-6.5.3-.4,4.1-4.9,4.8-5.7.3-.3,3.6-4,3.9-4.4s3.6-3.8,3.9-4.1c.3-.3,3.7-3.6,4.1-4,.6-.5,3.4-3.1,3.7-3.4.3-.3,3.6-3,3.9-3.3.3-.2,3.6-2.8,3.9-3.1.3-.2,3.5-2.5,3.7-2.7.4-.2,3.6-2.4,3.8-2.6.4-.2,3.5-2.2,3.8-2.4.3-.2,3.4-2,3.7-2.1.7-.4,2.6-1.4,2.9-1.5.3-.2,3.5-1.7,3.7-1.8.3-.2,3.4-1.5,3.7-1.6s1.6-.6,1.9-.8c.5-.2,2.2-.9,2.6-1,.3-.1,3.3-1.1,3.6-1.2.3,0,3.3-1,3.6-1.1.3,0,2.3-.6,2.6-.7.6-.1,3.1-.7,3.4-.8.3,0,3.1-.6,3.4-.7.3,0,3.1-.5,3.5-.5s2.3-.3,2.4-.3c.5,0,2.7-.3,3.1-.3s2.9-.2,3.2-.2h8.5c1.4,0,2.7.2,4,.3,0,0,2.4.3,2.5.3.6,0,1.9.3,1.9.3.6,0,2,.3,2,.3.6,0,3.2.6,3.8.7,0,0,3,.7,3.5.8,0,0,1.8.5,1.9.5,1.1.3,2.1.6,3.1.9l1.6.5c.9.3,1.8.6,2.7.9l1.3.5c.8.3,1.6.6,2.3.9l1.1.5c1,.4,1.8.8,2.6,1.2h0c.7.4,1.3.7,1.8.9l1.2.7c3.9,2.1,7.6,4.2,11,6.4,1.1.7,2.3,1.5,3.4,2.2,2.2,1.5,4.3,3.1,6.3,4.6,6.7,5.3,12.5,10.8,17.3,16.6,1,1.2,1.9,2.3,2.8,3.5,1.3,1.8,2.6,3.6,3.8,5.4s2.3,3.6,3.4,5.5c1,1.8,2,3.7,2.9,5.5,1.8,3.7,3.4,7.5,4.7,11.3.9,2.5,1.6,5.1,2.3,7.6.2.6.3,1.3.5,1.9.5,1.9.9,3.8,1.2,5.7.5,2.6.8,5.1,1.1,7.7,0,1.3.3,2.5.4,3.8.3,3.2.4,6.3.4,9.5v5.6c0,3.7-.4,7.4-.8,11,0,1.3-.3,2.6-.5,3.8,0,1-.7,4.4-.8,5.1-.8,4.7-1.8,9.2-2.8,13.5-.3,1.1-.5,2.2-.8,3.2-.9,3.2-1.8,6.2-2.7,9.1-.3,1-.6,1.9-.9,2.9-.8,2.4-1.6,4.6-2.4,6.8-.3.9-.6,1.7-1,2.5-1.3,3.3-2.6,6.3-3.7,9-.3.7-.6,1.3-.9,1.9-1.6,3.4-3,6.2-4,8.2-.2.4-.4.7-.5,1-.9,1.7-1.5,2.6-1.5,2.6,0,0-2.7,4.6-2.9,4.9,0,0-4.8,7.4-5,7.7,0,.2-5.6,8-5.8,8.3-.2.2-6.3,8.4-6.6,8.6-.3.4-5.9,7.2-6.3,7.7-.2.2-6.1,6.9-6.4,7.1-.4.4-5,5.2-5.5,5.7s-4.7,4.6-4.9,4.8c-.6.5-4.5,4.1-4.7,4.3-.5.4-4.5,3.9-4.8,4.1-.6.5-4.6,3.7-4.8,3.8-.7.5-4.1,3-4.8,3.5-.2,0-2.8,1.9-3,2.1-.7.5-2.6,1.7-2.8,1.9-.7.5-2.6,1.6-2.8,1.7-.7.4-2.3,1.4-2.5,1.5-.8.4-2.8,1.6-3,1.7-.8.4-2.7,1.4-2.9,1.5-.8.4-2.5,1.2-2.6,1.3-.8.4-2.9,1.3-3.1,1.4-.8.4-1.7.7-2.5,1.1-.2,0-2.3.9-3.2,1.3,0,0-3.1,1.1-3.3,1.2-.9.3-1.7.6-2.6.8-.2,0-.4,0-.6.2-.9.3-1.8.5-2.7.8,0,0-3.2.8-3.4.8-.9.2-1.8.4-2.8.6h-.6c-.9.2-1.9.3-2.8.5h-.4c-.9,0-1.8.3-2.7.4h-.4c-1,0-1.9.2-2.9.3h-.6c-1,0-1.9,0-2.9.2h-8.2c-.3,0-2.9-.2-3.2-.2-.7,0-2.2-.2-2.3-.3-.8,0-1.6-.2-2.4-.3-.2,0-1.8-.3-2.4-.4-.2,0-3-.6-3.2-.6-.8-.2-2.4-.6-2.4-.6-.8-.2-1.6-.4-2.5-.7-.2,0-3-.9-3.2-1-.6-.2-2.3-.8-2.5-.8-.8-.3-2.4-.9-2.5-.9-.8-.3-1.7-.6-2.5-1-.2,0-3.1-1.3-3.3-1.4-.6-.3-2.3-1.1-2.5-1.2-.8-.4-1.7-.8-2.5-1.3-2.9-1.5-5.7-3.1-8.3-4.7-11.8-7.4-21-16-27.9-25.3-.8-1-1.5-2.1-2.2-3.1-.4-.7-.9-1.3-1.3-2-1.7-2.7-3.3-5.4-4.7-8.1-1.1-2.1-2-4.1-2.9-6.2-1-2.2-1.8-4.5-2.6-6.8s-1.5-4.5-2.1-6.8c-.2-.9-.5-1.7-.7-2.6-.6-2.6-1.2-5.2-1.6-7.8-.4-2.3-.7-4.6-1-6.9s-.5-4.6-.6-6.8c-.4-6.8-.3-13.5.1-20l.2.6h0ZM213.3,392.7c.4-2,.9-4,1.4-5.9.2-1,.5-2,.8-2.9.5-1.9,1.1-3.9,1.7-5.8.6-1.9,1.2-3.8,1.9-5.6.7-1.9,1.4-3.7,2.1-5.5.4-.9.7-1.8,1.1-2.7.7-1.8,1.5-3.5,2.3-5.2.4-.9.8-1.7,1.2-2.6,1.6-3.4,3.2-6.6,4.8-9.7.4-.8.8-1.5,1.2-2.3,1.2-2.3,2.5-4.5,3.7-6.6,2.3-3.9,4.8-7.7,7.4-11.4.5-.7,1-1.4,1.6-2.1,1.8-2.4,3.6-4.7,5.5-6.9,1.1-1.3,2.2-2.5,3.3-3.7,2.2-2.4,4.6-4.8,7-7.1,1.2-1.1,2.4-2.3,3.7-3.3,3.7-3.3,7.7-6.4,11.7-9.2,5.4-3.8,11.2-7.2,17.2-10.1,0,0,2.1-1,3.2-1.5.4-.2,2.4-1.1,3.1-1.4.4-.2,2.5-1,3.1-1.3.5-.2,2.5-.9,3-1.1s2.5-.9,3-1c.5-.2,2.5-.8,3-.9s2.4-.7,2.9-.8c.5-.1,2.4-.6,2.9-.7s2.4-.5,2.9-.6c.5,0,2.4-.5,2.8-.5s2.3-.4,2.8-.5c.4,0,2.8-.4,2.8-.4.4,0,2.2-.2,2.6-.3.4,0,2.2-.2,2.7-.2s2.2-.1,2.6-.1h5.3c1.6,0,3.2.1,4.8.2h.8c1,0,2,.2,3,.3h.1c1,.1,2,.3,3,.4,0,0,.5,0,.7.1.9.1,1.8.3,2.7.5h.2c1,.2,1.9.4,2.9.6.2,0,.4.1.7.2.8.2,2.7.7,2.8.7.9.2,1.8.5,2.7.8.2,0,3.1,1,3.2,1,.9.3,1.7.6,2.5.9.2,0,2.9,1.1,3,1.2.8.3,1.6.7,2.3,1,.1,0,2.6,1.2,2.7,1.3.7.3,2.4,1.2,2.5,1.3.6.3,2,1.1,2.1,1.1.7.4,2.1,1.2,2.2,1.3.6.3,1.8,1.1,1.9,1.1.6.4,1.9,1.2,2,1.2.5.3,1.6,1.1,1.7,1.1.5.4,1.6,1.1,1.7,1.2.4.3,2.9,2.1,2.9,2.1.4.3,2.4,1.9,2.4,1.9.3.3,1.9,1.6,1.9,1.6.2.2,1.4,1.2,1.4,1.3l1.1,1.1c-4.5,2.5-8.9,5.3-13.1,8.5-1.7,1.3-3.4,2.6-5,3.9-2.5,2-4.9,4.1-7.3,6.3-1.6,1.5-3.2,3-4.7,4.5s-3.1,3.1-4.6,4.7c-2.2,2.4-4.4,4.9-6.6,7.4-.7.8-1.4,1.7-2.1,2.6-2.1,2.6-4.2,5.2-6.2,7.9-3.4,4.5-6.6,9-9.6,13.7-1.2,1.9-2.4,3.7-3.6,5.6-1.8,2.8-3.5,5.6-5.2,8.5-1.1,1.9-2.2,3.8-3.3,5.7-1.5,2.6-2.9,5.1-4.2,7.7.2-.4.4-.9.6-1.3-7-11.8-18.6-19.5-31.8-19.5s-13.1,2-18.6,5.6c-11.9,7.7-20,22.4-20,39.4s.8,10.7,2.4,15.5c5.4,17.2,19.6,29.5,36.2,29.5s.8,0,1.2,0c-1.5,4.3-3.2,8.6-4.8,12.7-.7,1.8-7,16.9-8.2,19.9s-10.3,22.2-10.3,22.2c-2.9-1-5.7-2-8.5-3.1-.7-.3-4.6-1.8-5.5-2.2-1.4-.6-2.7-1.2-4-1.8-.7-.3-3.3-1.6-4-2-.9-.5-1.7-.9-2.6-1.4-.9-.5-1.7-1-2.5-1.5s-1.6-1-2.4-1.5c-.4-.3-.9-.6-1.3-.9-1.2-.8-2.4-1.7-3.6-2.6s-1.5-1.3-2.3-1.9c-.8-.7-1.5-1.3-2.2-2-1.1-1-2.2-2.1-3.2-3.3-.3-.4-.7-.8-1-1.2-.7-.8-1.4-1.6-2-2.5-9.2-11.8-15.8-28.8-18.4-54.6-1.1-11.5-.2-22.9,2.1-33.9v-.2h0Z"/>
</svg>