<?xml version="1.0" encoding="utf-8"?>
<svg version="1.1" id="Layer_1" xmlns="http://www.w3.org/2000/svg" xmlns:xlink="http://www.w3.org/1999/xlink" x="0px" y="0px" viewBox="0 0 1024 1024" style="enable-background:new 0 0 1024 1024;" xml:space="preserve">
  <style type="text/css">
    .st0{fill:#FFFFFF;}
  </style>
  <path class="st0" d="M920.3,457.9c-1.5-15.5-4.6-32.5-9.3-51c-4.6-18.6-12.4-40.2-23.2-61.9s-24.7-44.8-43.3-66.5
    c-7.7-9.3-15.5-17-23.2-24.7c12.4-49.5-15.5-92.8-15.5-92.8c-47.9-3.1-78.9,15.5-89.7,23.2c-1.5-1.5-3.1-1.5-6.2-3.1
    c-7.7-3.1-15.5-6.2-24.7-9.3c-9.3-3.1-17-4.6-26.3-7.7c-9.3-1.5-18.6-4.6-27.8-4.6c-1.5,0-3.1,0-4.6,0c-20.1-68-80.4-95.9-80.4-95.9
    c-66.5,43.3-80.4,102.1-80.4,102.1s0,1.5,0,3.1c-3.1,1.5-7.7,1.5-10.8,3.1c-4.6,1.5-10.8,3.1-15.5,4.6c-4.6,1.5-10.8,4.6-15.5,6.2
    c-10.8,4.6-20.1,9.3-29.4,15.5c-9.3,4.6-18.6,10.8-27.8,17c-1.5,0-3.1-1.5-3.1-1.5c-92.8-35.6-176.3,7.7-176.3,7.7
    c-7.7,99,37.1,160.8,46.4,173.2c-1.5,6.2-4.6,12.4-6.2,18.6c-6.2,21.7-12.4,44.9-15.5,69.6c0,3.1-1.5,6.2-1.5,10.8
    C123.8,535.2,99.1,623.4,99.1,623.4c71.1,82,154.7,88.2,154.7,88.2c10.8,18.6,23.2,37.1,37.1,54.1c6.2,7.7,12.4,13.9,18.6,20.1
    c-26.3,74.2,3.1,137.6,3.1,137.6c80.4,3.1,133-35.6,143.8-43.3c7.7,3.1,15.5,4.6,24.7,7.7c24.7,6.2,49.5,9.3,74.2,10.8h18.6h3.1h1.5
    h4.6h4.6c37.1,54.1,103.6,61.9,103.6,61.9c52.6-55.7,49.5-111.4,49.5-111.4l-1.5-1.5c10.8-7.7,20.1-15.5,29.4-23.2
    c18.6-17,35.6-37.1,49.5-57.2c1.5-1.5,3.1-4.6,3.1-6.2c52.6,3.1,91.2-32.5,91.2-32.5c-9.3-61.9-47.9-88.2-47.9-88.2h-1.5
    c0-3.1,0-7.7,1.5-10.8c0-6.2,0-12.4,0-18.6v-4.6v-1.5v-1.5c0-1.5,0-1.5,0-1.5v-3.1V594c0-1.5,0-3.1,0-4.6s0-3.1,0-4.6V580v-4.6
    c-1.5-6.2-1.5-12.4-3.1-18.6c-6.2-23.2-15.5-46.4-27.8-66.5c-12.4-20.1-27.8-38.7-44.9-54.1s-37.1-27.8-57.2-37.1
    s-41.8-15.5-63.4-17c-10.8-1.5-21.7-1.5-30.9-1.5h-4.6h-1.5h-1.5H628h-4.6c-1.5,0-3.1,0-4.6,0c-4.6,0-10.8,1.5-15.5,1.5
    c-21.7,4.6-41.8,10.8-58.8,21.7c-17,10.8-32.5,23.2-44.9,38.7s-21.7,30.9-29.4,47.9c-6.2,17-10.8,34-10.8,51v12.4v3.1v3.1v6.2
    c1.5,9.3,3.1,17,4.6,24.7c4.6,15.5,12.4,30.9,21.7,43.3s20.1,23.2,32.5,30.9s24.7,13.9,37.1,17s24.7,4.6,35.6,4.6h4.6h1.5h1.5h3.1
    c0,0,0,0,1.5,0h1.5h1.5h4.6c0,0,3.1,0,4.6-1.5c3.1,0,4.6-1.5,7.7-1.5c4.6-1.5,9.3-3.1,13.9-6.2c4.6-1.5,7.7-4.6,12.4-7.7
    c1.5-1.5,1.5-1.5,3.1-3.1c4.6-3.1,4.6-9.3,1.5-12.4s-7.7-4.6-10.8-1.5c-3.1-3.1-3.1-1.5-4.6-1.5c-3.1,1.5-6.2,3.1-10.8,4.6
    c-3.1,1.5-7.7,1.5-12.4,3.1c-1.5,0-4.6,0-6.2,0s-1.5,0-3.1,0c-1.5,0-1.5,0-3.1,0c-1.5,0-1.5,0-3.1,0c-1.5,0-3.1,0-3.1,0h-1.5H594
    c-1.5,0-1.5,0-3.1,0c-9.3-1.5-18.6-4.6-26.3-7.7c-9.3-4.6-17-9.3-24.7-17c-7.7-6.2-13.9-15.5-20.1-24.7c-4.6-9.3-9.3-20.1-10.8-30.9
    c-1.5-4.6-1.5-10.8-1.5-17c0-1.5,0-3.1,0-4.6v-1.5v-1.5c0-3.1,0-6.2,1.5-9.3c4.6-23.2,15.5-46.4,34-65c4.6-4.6,9.3-7.7,15.5-12.4
    c4.6-3.1,10.8-6.2,17-9.3s12.4-4.6,18.6-6.2c6.2-1.5,12.4-3.1,18.6-3.1h9.3h1.5h3.1h1.5h3.1c7.7,0,13.9,1.5,21.7,3.1
    c13.9,3.1,27.8,7.7,40.2,15.5c24.7,13.9,46.4,35.6,60.3,61.9c6.2,12.4,10.8,27.8,13.9,41.8c0,3.1,1.5,7.7,1.5,10.8v3.1v3.1v3.1
    c0,0,0,1.5,0,3.1v3.1v3.1v6.2c0,4.6,0,7.7-1.5,12.4c0,4.6-1.5,7.7-1.5,12.4c-1.5,1.5-1.5,4.6-3.1,9.3c-1.5,7.7-4.6,15.5-7.7,23.2
    c-6.2,15.5-13.9,29.4-23.2,41.8c-18.6,26.3-44.9,47.9-74.2,60.3c-15.5,6.2-30.9,10.8-46.4,13.9c-7.7,1.5-15.5,1.5-24.7,3.1H585h-1.5
    H580h-4.6h-1.5h-1.5c-4.6,0-9.3,0-12.4,0c-17-1.5-34-4.6-51-9.3c-17-4.6-32.5-10.8-47.9-18.6c-30.9-15.5-57.2-38.7-78.9-65
    c-10.8-13.9-20.1-27.8-27.8-43.3s-13.9-30.9-18.6-46.4c-4.6-15.5-7.7-32.5-7.7-49.5v-3.1V546v-1.5v-3.1v-1.5v-1.5v-4.6v-1.5
    c0-1.5,0-4.6,0-6.2c0-7.7,1.5-17,1.5-24.7c1.5-7.7,3.1-17,4.6-24.7s3.1-17,6.2-24.7c4.6-17,10.8-32.5,17-47.9
    c13.9-30.9,32.5-57.2,54.1-78.9c6.2-4.6,10.8-10.8,17-15.5c6.2-4.6,12.4-9.3,18.6-13.9s12.4-7.7,20.1-10.8c3.1-1.5,6.2-3.1,10.8-4.6
    c1.5,0,3.1-1.5,4.6-1.5c1.5-1.5,3.1-1.5,4.6-1.5c6.2-3.1,13.9-6.2,21.7-7.7c1.5,0,3.1-1.5,6.2-1.5c1.5,0,3.1-1.5,6.2-1.5
    c3.1-1.5,7.7-1.5,10.8-3.1c1.5,0,3.1-1.5,6.2-1.5c1.5,0,3.1-1.5,6.2-1.5c1.5,0,3.1,0,6.2-1.5h3.1h3.1c1.5,0,3.1,0,6.2-1.5
    c1.5,0,4.6,0,6.2-1.5h6.2h4.6h3.1h1.5h1.5h6.2h3.1c0,0,1.5,0,0,0h1.5h6.2h21.7c13.9,0,27.8,1.5,41.8,4.6
    c27.8,4.6,52.6,13.9,75.8,24.7s44.9,24.7,61.9,40.2l3.1,3.1l3.1,3.1l6.2,6.2c1.5,1.5,4.6,4.6,6.2,6.2l6.2,6.2
    c7.7,7.7,15.5,17,21.7,24.7c12.4,17,23.2,32.5,30.9,49.5c0,1.5,1.5,1.5,1.5,3.1c0,1.5,1.5,1.5,1.5,3.1c1.5,1.5,1.5,4.6,3.1,6.2
    c1.5,1.5,1.5,3.1,3.1,6.2c1.5,1.5,1.5,3.1,3.1,6.2c3.1,7.7,6.2,13.9,7.7,21.7c3.1,10.8,6.2,20.1,9.3,29.4c1.5,3.1,4.6,6.2,7.7,4.6
    c3.1,0,6.2-3.1,6.2-6.2C921.8,481.1,921.8,470.2,920.3,457.9L920.3,457.9z"/>
</svg>
