<svg enable-background="new 0 0 72 72" viewBox="0 0 72 72" xmlns="http://www.w3.org/2000/svg"><path d="m55.4 41.9c-3.7-2.5-5.9-4.6-7.8-8.3-1.3 2.6-4.3 6.4-9.3 9.4-2.4 7.8-14.3 22.7-18.2 20.6-1.1-.6-1.4-1.5-1.1-2.3.3-2.1 4.7-7 4.7-7s.1 1 1.5 3.2c-1.9-5.8 3.1-12.9 4.4-15.4 2.1-.7 2.2-3.3 2.2-3.3.1-4.1-1.7-7-3.5-8.8 1.3 1.6 1.7 3.9 1.7 6v.7c0 1.8-.5 4.3-1.7 4.3-1.2-.1-2.6.2-3.9.6l-2.9.7s1.5-.1 2.4.6c-.9 1.5-3 3.4-5.3 4.4-3.3 1.5-4.3-1.5-2.6-3.5.4-.5.8-.9 1.2-1.2-.3-.3-.4-.6-.5-1.1-.2-1-.1-2.3 1.3-4.5.3-.4.6-.9 1-1.4s0 0 .1-.1c.1-.1.2-.2.3-.3 1.7-1.8 4.4-3.6 8.7-5.2 5-7.3 6.8-8.7 6.8-8.7.6-.6 1.5-1.3 1.9-1.4-2.6-4.5-3.1-10.9-2.5-12.7-.1.1-.1.2-.1.3.3-.6.4-.8.7-1.1.7-.8 3.1-1.3 4 .5.5 1 .5 2.2.5 3.1-1.7-.1-3.4 2-3.4 2s1.6-.7 3.6-.8c0 0 .5.5 1.2 1.3-.9 1.7-2.3 5.2-1.3 8.9.2.7.4 1.4.8 1.9v.1s0 .1.1.1c1.7 2.6 4.9 2.9 4.9 2.9-1.5-.7-2.7-1.9-3.5-3.4-.4-.8-.7-1.4-.8-1.9-.8-3.3.4-5.2 1.1-6.4 1.6-2.5 4.6-4.1 7.8-3.7 4.5.5 7.7 4.6 7.2 9.1-.3 2.7-2 5-4.2 6.3.5 1.5 0 3.2 0 3.2 1.4 1.7 1.4 2.7 1.4 3.6-1.7-.3-3.4.9-3.4.9s3.3-.8 5.3.9c1.3 1.4 2.1 2.6 2.6 3.5.7 1.3 4.1 1.4 3.7 3.7-.5 2.3-3.1 2.3-7.1-.3m-19.4-41.8c-19.8 0-35.9 16.1-35.9 35.9s16.1 35.9 35.9 35.9 35.9-16.1 35.9-35.9-16.1-35.9-35.9-35.9m2.2 26.7c.4-.4.4-1.1 0-1.5s-1.1-.4-1.5 0-.4 1.1 0 1.5 1.1.4 1.5 0m-3.8.7c-.4.4-.4 1.1 0 1.5s1.1.4 1.5 0 .4-1.1 0-1.5-1.1-.4-1.5 0m6.6.6c-.7-.7-1.7-.7-2.4 0l-1.4 1.4c-.7.7-.7 1.7 0 2.4l1.5 1.5c.7.7 1.7.7 2.4 0l1.4-1.4c.7-.7.7-1.7 0-2.4zm8.5-6.6c-1.1-1.3 1-3.7 2.3-2.3 2.4 2.6-1.2 3.6-2.3 2.3m4.8 1.4c1.8-3.4-.7-5.4-2.5-7-2.8-2.6-5.5-3.7-8.7-.1s-1.1 7.8 1.7 9.8c3 2.1 7.7.6 9.5-2.7" fill="#fff"/></svg>