<svg viewBox="0 0 1024 1024" xmlns="http://www.w3.org/2000/svg"><path d="m563.81 100.73c-301.3-36.33-538.24 250.03-446.42 539.27 110.13 327.84 540.74 389.5 737.93 105.46 172.2-258.09 16.03-603.81-291.51-644.73zm128 192c6.22-16.1 13.86-33.48 21.62-43 3.79-6 5.83-8.11 10.48-7.27a7.44 7.44 0 0 1 5.07 1.55c16 6.19 32.08 12.68 46.93 21.16 13.55 7.74 26 17.68 38 27.75a29.36 29.36 0 0 1 5 5 12.93 12.93 0 0 1 1 1.71c1.94 4 .32 7.76-4.59 13.48l-.11.12c-6.51 7.58-13.7 15-21.9 20.62-.74.51-1.49 1-2.24 1.51-11.76 8.87-24.46 16.55-37.23 24.28-9.73 6.19-19.53 12.38-29.38 18.7-.85-1.67-1.47-3.11-2-4.36a38.37 38.37 0 0 0 -3.66-5.42c-2.64-2.86-5.37-5.64-8.13-8.39-2.5-2.29-5.05-4.55-7.49-7a13.5 13.5 0 0 1 -3.98-4.17c-7.1-14.41-6.92-14.5-20.23-21.68 4.03-11.62 8.17-23.21 12.79-34.57zm-398.2 58.89c3.2-9.57 8.84-15.65 18.13-19.45 3.18-1.3 6.36-2.62 9.51-4 13.67-5.92 26.87-12.73 38-23.11 7.34-9.41 14.87-15.52 22.57-19.55 13-7.19 28-9 43.54-9h3.49c13.19-.94 26.74-2.69 40.61-10.15 11.47-9.89 25.75-10.93 39.78-13.26 10.52-1.74 20.14.74 29.57 4.43a122.61 122.61 0 0 0 15.19 4.87 138.21 138.21 0 0 0 34.7 3.87c4.29 0 8.6.11 12.9.36a115.47 115.47 0 0 1 16.9 1.41 40.61 40.61 0 0 1 20.36 8.79c7.93 6 13.33 9.64 16.73 12.4.67.46 1.33.92 2 1.36 2.74 1.83 3.43 3.44 2.66 6.1-.16 3.22-2.43 7.54-6 15.63-3.06 8.1-6.07 16.22-9.26 24.27a12.86 12.86 0 0 0 -.85 3.05c0 2.33 1.5 4.2 3.94 6 .89.45 1.66 1.18 2.57 1.61 6.5 3 12.68 6.25 17.64 10.88a26.25 26.25 0 0 1 9 14.48 10.17 10.17 0 0 0 2.42 3.83c2.49 2.64 6.27 4.87 9.44 6.58a22.7 22.7 0 0 1 9.67 9.81v.08l.34.66c2.68 5.41 3.62 11.71 4.46 18.16.51 3.41 1 6.95 1.59 10.78l58.72-33.6a42.2 42.2 0 0 1 5.63 18.67c.55 8.15-1.42 16.2-5.66 24.21-.16.31-.34.6-.5.9-.36.66-.72 1.31-1.09 1.95l-.07.11c-.53.91-1.09 1.82-1.67 2.71-.52.8-1.06 1.59-1.61 2.37l-.51.72c-.36.49-.72 1-1.09 1.48a88.06 88.06 0 0 1 -9.36 10.84 117 117 0 0 1 -19.81 15.36 198.05 198.05 0 0 1 -37.43 19.65c-24.44 10.28-50.24 16.89-76.6 21.85a514.29 514.29 0 0 1 -107.78 8.8c-69.44-.51-138.71-13.35-187-41.81a155.87 155.87 0 0 1 -36.09-26.32c-8.23-8.18-14.62-17.5-18.16-28.64v-.05c-3.28-10.4-1.16-19.84 4.1-28.67 4.09-7.55 9.79-14.73 14.79-22.14 3.57-6.2 7.29-12.52 9.54-19.26zm-65.29 270.16c154.76 116.65 404.79 118.72 562.87 6.84l1.47 1.16c-105.82 197.86-467.27 195.98-564.34-8zm600.14-88.57c-16.4 27.53-50 40.83-77.36 55.34-170.33 77.68-390.51 73.08-541.45-44.67-18-15.72-9.47-43.16-16.39-63.72-11.49-15.51-8.74-35.11-9.83-53.13-2.6-50.3 45.42-81.55 84.47-102.9l2.2 1.66c-10.91 18.39-21.67 36.87-32.77 55.15-48.88 110.06 135.4 158.87 214.67 166.39 95.24 9.43 195.64.87 281.56-44.07 46.15-23.18 91.39-74.07 61-127.31 6.74-3.33 14.32-16.11 22.73-9.89 51.8 37.94 20.25 115.2 11.17 167.15z" fill="#fff"/></svg>