<svg enable-background="new 0 0 243.7 243.7" viewBox="0 0 243.7 243.7" xmlns="http://www.w3.org/2000/svg"><g fill="#fff"><path d="m66.3 65.6c-13.3 0-26.6 0-39.9 0-8.1 0-10.6 2.4-10.6 10.4 0 20.2-.2 40.3.1 60.5.2 12 2.5 23.6 8.2 34.4 17.7 33.5 45.6 55.1 80.4 68.7 12.2 4.8 24.2 3.7 36.3-1.2 18.9-7.8 35.8-18.7 50.7-32.6 21.9-20.6 37.1-44.4 35.2-76.1-.4-7.1-.1-7.1-7.1-7.1-47.5 0-95 0-142.6 0-6.7 0-12.4-1.9-16.2-7.5-1.7-2.6-2.1-6-3-9.1 2.7-.6 5.4-1.3 8.1-1.8 1.3-.2 2.8 0 4.1 0 6.7-.2 13.6.5 20.1-.8 14.8-3 22.6-15.4 22.3-32.8-.1-3.9-1.4-5-5.2-5-13.6.1-27.3 0-40.9 0z"/><path d="m66.3 65.6c13.7 0 27.3.1 41-.1 3.8 0 5.1 1.1 5.2 5 .3 17.4-7.6 29.8-22.3 32.8-6.5 1.3-13.4.6-20.1.8-1.4 0-2.8-.2-4.1 0-2.7.5-5.4 1.2-8.1 1.8 1 3 1.3 6.5 3 9.1 3.7 5.6 9.5 7.5 16.2 7.5 47.5-.1 95 0 142.6 0 7 0 6.7 0 7.1 7.1 1.9 31.7-13.3 55.5-35.2 76.1-14.8 13.9-31.7 24.8-50.7 32.6-12 4.9-24.1 6-36.3 1.2-35-13.5-62.9-35.2-80.6-68.7-5.7-10.8-8-22.4-8.2-34.4-.3-20.2-.1-40.3-.1-60.5 0-8 2.5-10.4 10.6-10.4 13.4.1 26.7.1 40 .1z"/><path d="m128.7 53.3c0-14.3 0-28.6 0-42.9 0-7 2.1-8.9 9.1-8.5 7.2.5 14.5.9 21.7 1.4 6 .4 8.5 2.7 8.5 8.7.1 28.7.1 57.5 0 86.2 0 5.7-2.1 7.8-7.8 7.9-7.6.1-15.2.1-22.8 0-6.3-.1-8.6-2.5-8.6-9-.2-14.6-.1-29.2-.1-43.8zm98.1-23.9c0-10.2-4.8-15.5-15.1-16.6-6-.7-12-1.2-18-1.9-5.2-.5-7.5 1.2-7.5 6.6-.1 27.1 0 54.1 0 81.2 0 5 2.6 7.3 7.3 7.4 7.8.1 15.6.2 23.3 0 6.8-.2 9.9-3.7 10-10.5 0-11.2 0-22.4 0-33.6 0-10.8 0-21.7 0-32.6zm-115.5-21.7c0-4.4-1.9-6.9-6.6-6.6-7.7.5-15.5.8-23.2 1.5-6.5.6-10.2 4.8-10.2 11.4-.1 8.6-.1 17.2 0 25.8.1 6.4 3.1 9.5 9.5 9.6 7.4.1 14.8.1 22.3 0 5.8-.1 8.1-2.4 8.2-8.2.1-5.5 0-11 0-16.5 0-5.6 0-11.3 0-17zm-56.8 8.8c-.1-4.8-2.5-7.6-7.1-6.7-9.4 1.9-18.7 4.4-27.8 7.3-1.8.6-3.5 3.6-3.9 6v21.7c.7 3 2.9 4.6 6.7 4.6h25.4c4.7 0 6.9-2.5 6.8-7.2 0-4.3 0-8.6 0-12.9-.1-4.2 0-8.5-.1-12.8z"/></g></svg>