<?xml version="1.0" encoding="utf-8"?>
<svg version="1.1" id="Layer_1" xmlns="http://www.w3.org/2000/svg" xmlns:xlink="http://www.w3.org/1999/xlink" x="0px" y="0px" viewBox="0 0 72 72" style="enable-background:new 0 0 72 72;" xml:space="preserve">
  <style type="text/css">
    .st0{fill:#FFFFFF;}
  </style>
  <path class="st0" d="M56.5,6.4L56.5,6.4C56.5,6.5,56.5,6.4,56.5,6.4z"/>
  <path class="st0" d="M20.2,60.6c0.2-1.8,0.3-3.5,0.5-5.3c4.8,2.1,9.5,4.2,14.2,6.2c0.1,1.2,0.2,2.5,0.3,3.7
    C32,65.3,26.1,64.7,20.2,60.6z M21.5,27.1v6.7c-0.4,0-0.7,0.1-1.1,0.1v3.3h1.8c-0.1,1.6-0.3,3.2-0.4,4.7c3.9,1.7,7.8,3.5,11.8,5.2
    c-0.3-3.4-0.5-6.7-0.8-10h1.5c0-1.1,0-2.2,0-3.3c-0.4,0-0.7-0.1-1-0.1c0-2.3,0-4.5,0-6.7c0.4,0,0.7-0.1,1.1-0.1c0-0.3,0-0.6,0-0.9
    c0-0.4,0-0.5,0-0.6c0-1.2-6.2-5.7-6.4-7.1c0-0.2-0.3-0.5-0.5-0.5S27,18,26.9,18.2c-0.1,0.1-0.1,0.4-0.1,0.6
    c-2.1,2.1-4.2,4.1-6.3,6.2v2C20.8,27.1,21.2,27.1,21.5,27.1z M23.5,27.1h7.9v6.7c-0.6,0-1.2,0-1.8,0c0-0.3,0-0.6,0-0.8
    c0-0.3,0-0.5,0-0.5c0-0.3,0-0.6,0-0.9c0,0,0.3-2.8-2.1-2.8s-2.1,3-2.1,3.1v1.2v0.7c-0.6,0-1.2,0-1.8,0
    C23.5,31.6,23.5,29.3,23.5,27.1z M34.7,59.8c-0.1-0.9-0.1-1.7-0.2-2.5c-4.5-2-9-3.9-13.5-5.9c-0.1,0.8-0.1,1.5-0.2,2.3
    C25.4,55.7,30,57.8,34.7,59.8z M21.3,47.5c-0.1,0.8-0.1,1.5-0.2,2.3c4.4,1.9,8.8,3.9,13.2,5.8c-0.1-0.9-0.1-1.7-0.2-2.5
    C29.9,51.3,25.6,49.4,21.3,47.5z M34,51.4c-0.1-0.9-0.1-1.7-0.2-2.5c-4-1.8-8-3.5-12.1-5.3c-0.1,0.8-0.1,1.5-0.2,2.3
    C25.6,47.7,29.8,49.5,34,51.4z M58.2,16.9c1.4,1.5,2.6,3.2,3.6,5.1l6.5-2c-1.1-2.3-3.9-6.2-3.9-6.2L58.2,16.9z M65.3,34l6.6,0.5
    c0,0,0,0.5,0.1,1.2c0-2.2-0.3-4.4-0.7-6.5l-6.7,0.2C64.9,30.9,65.1,32.4,65.3,34z M36.2,65.3c-17,0-29.5-13.6-29.5-29.2
    C6.7,19.3,20.5,6.7,36,6.7c5.6,0,11.1,1.7,15.8,4.6l4.8-4.9c-8-5.4-16-6.1-20.3-6.1C19.8,0.3,0,12.2,0,36
    c0,23.7,19.4,35.7,36.2,35.7c9.1,0,29.7-4.8,34.8-27.2l-6.4-2.2C61.9,55.2,50.3,65.3,36.2,65.3z M34.8,30.4l26.9-8.5
    c1.3,2.3,2.2,4.8,2.9,7.5L34.8,30.4z M64.7,42.2c0.4-2,0.7-4,0.7-6.1c0-0.7,0-1.4-0.1-2.1l-30.5-2.2L64.7,42.2z M58.2,16.9
    c-1.9-2.1-4-4-6.4-5.5l-17,17.5L58.2,16.9z"/>
</svg>
