<svg viewBox="0 0 1000 1000" xmlns="http://www.w3.org/2000/svg"><g fill="#fff" fill-rule="evenodd"><path d="m731 683.8 224.3-51.4c3.5-.7 6.7-2.1 9.6-4.1s5.3-4.6 7.1-7.7c1.8-3 3-6.4 3.4-9.9s.2-7-.9-10.4l-95.4-413.7c-1.7-6.8-6.1-12.7-12.1-16.3s-13.3-4.7-20.1-3l-224.2 51.4c-6.8 1.7-12.6 6.1-16.2 12.1s-4.6 13.2-2.9 20l95.1 413.7c1.7 6.8 6.1 12.7 12.1 16.3s13.3 4.7 20.1 3z"/><path d="m653.7 939.4 271.9-251.8c10.2-10.3 7.7-16.7-6.5-11.6l-186.9 42.5c-7.7 1.9-14.9 5.7-20.7 11.1-5.9 5.4-10.3 12.2-12.8 19.7l-56.7 182.4c-3.9 14.1 1.3 18 11.6 7.7z"/><path d="m157.6 857.3 407.2 125.8c7 1.3 14.1 0 20.3-3.4 6.1-3.5 10.8-9.1 13.2-15.8l68.2-218.4c1-3.4 1.3-7 .9-10.5s-1.5-6.9-3.2-10-4-5.8-6.8-8.1c-2.8-2.2-6-3.9-9.4-4.8l-407.2-124.6c-6.9-2-14.3-1.1-20.6 2.3-6.3 3.5-10.9 9.3-13 16.1l-67.8 218c-2 6.8-1.3 14.2 2.1 20.4 3.4 6.3 9.1 10.9 15.9 13z"/><path d="m26.1 410.2 82.6 361.4c2.6 14.1 9.2 14.1 12.8 0l56.7-182.4c1.9-7.8 2-15.9.2-23.7s-5.4-15.1-10.5-21.3l-130.2-140.5c-9-10.6-15.8-7.7-11.6 6.5z"/><path d="m344.5 23.8-311.9 288.7c-5 4.8-7.9 11.3-8.2 18.2-.2 6.9 2.2 13.6 6.9 18.7l156 168.7c4.8 5.1 11.4 8.1 18.4 8.3s13.8-2.3 19-7l311.8-289.2c5-4.7 8-11.3 8.3-18.2.2-6.9-2.3-13.7-7-18.7l-155.7-168.6c-2.4-2.5-5.3-4.6-8.5-6s-6.6-2.2-10.1-2.3c-3.5 0-7 .5-10.2 1.8-3.3 1.3-6.2 3.2-8.8 5.6z"/><path d="m646 677.3c14.2 3.9 23.2-3.8 19.4-18.5l-90.2-390.5c-3.9-14.1-15.5-18-25.8-7.8l-293.8 272.9c-10.3 10.2-7.8 21.8 6.4 25.7z"/><path d="m799.3 132.6-355.7-108.8c-14.1-3.9-16.7 1.3-5.2 12.8l130.2 140.1c5.8 5.5 12.9 9.4 20.6 11.6s15.8 2.5 23.6.9l186.9-42.4c13.8-3.9 13.8-10.3-.5-14.1z"/></g></svg>