<?xml version="1.0" encoding="utf-8"?>
<svg version="1.1" id="Layer_1" xmlns="http://www.w3.org/2000/svg" xmlns:xlink="http://www.w3.org/1999/xlink" x="0px" y="0px" viewBox="0 0 1024 1024" style="enable-background:new 0 0 1024 1024;" xml:space="preserve">
  <style type="text/css">
    .st0{fill:#FFFFFF;}
    .st1{fill-rule:evenodd;clip-rule:evenodd;fill:#FFFFFF;}
  </style>
  <g transform="matrix(1.25 0 0 -1.25 0 312)">
    <path class="st0" d="M209.7-328c-43.2,44.2-69.9,105.2-69.9,172.6c0,67.5,26.7,128.5,69.9,172.6c4.9,5,10.1,9.8,15.4,14.4l-1.1,9.3
      l2.1,11.2c-9.7-7.4-18.8-15.5-27.4-24.3C152.9-19,124.5-83.9,124.5-155.4s28.4-136.4,74.3-183.3c6.2-6.4,12.8-12.4,19.7-18.1
      l-2,22.2C214.2-332.5,211.9-330.3,209.7-328L209.7-328z"/>
    <path class="st0" d="M592.5-294.5c25,40.2,39.5,87.9,39.5,139.1c0,71.5-28.4,136.4-74.3,183.3c-4.1,4.2-8.3,8.2-12.7,12.1l1.2-22.3
      c0.2-0.2,0.4-0.4,0.5-0.5C589.9-27,616.6-88,616.6-155.4c0-51.6-15.6-99.4-42.3-138.8l4.7,1.5L592.5-294.5z"/>
    <path class="st0" d="M492.4-369.7l1.3-16.7c0,0,2.9,1.8,7.5,4.8l-2.1,16.3C495-368,492.4-369.7,492.4-369.7L492.4-369.7z"/>
    <path class="st0" d="M355-169.9l-26,2.8l-24.4,7.5v-8.4l11.9-13.1L354-198"/>
    <g>
      <path class="st1" d="M392.8,85.3c-25.6,6-38.2-10.7-46-28c-6.9,1.7-4.2,11.1-2.4,15.9c4.6,12.6,23,29.3,38.1,27
        C389,99.3,397.7,93.4,392.8,85.3"/>
      <path class="st1" d="M517.3,56.2h1.2c5.8-12,10.8-24.7,18.1-35.3c-4.9-11.4-36.9-21.4-36.5-1c6.9,3,18.9,0.6,25.1,4.5
        C521.6,34.1,516.5,42.4,517.3,56.2"/>
      <path class="st1" d="M405.9,55.9c5.5-10,7.3-20.6,15-28.2c3.5-3.4,10.3-7.6,6.9-17.1c-0.8-2.2-6.6-7.2-9.9-8.2
        c-12.2-3.6-40.5-0.7-30.9,14.4c10.1-0.5,23.6-6.5,31.1,0.8C412.4,26.9,402.1,45.2,405.9,55.9"/>
      <path class="st1" d="M512.7-46.1c-18.3-11.8-38.8-24.6-68.8-21.6c-6.4,5.6-8.9,18-2.6,26.2c3.2-5.6,1.2-15.8,10.3-17.4
        c17-2.9,36.9,10.4,49.1,15.1c7.6,12.8-0.7,17.5-7.5,25.8c-14,16.9-32.8,37.8-32.1,63.1c5.7,4.1,6.2-6.3,7-8.2
        c7.3-17.1,25.7-39,39.2-53.7c3.3-3.6,8.7-7.1,9.3-9.5C518.3-33.2,512-41.5,512.7-46.1"/>
      <path class="st1" d="M271.1-33.7c-5.7,3.3-7.1,17.7-13.9,18.1c-9.6,0.6-7.9-18.7-7.8-30c-6.6,6-7.8,24.6-2.9,34.1
        c-5.6,2.7-8-3-11.1-5C239.3,12.2,277.4-3.2,271.1-33.7"/>
      <path class="st1" d="M524.4-58.1c-8.5-16.2-20.6-34.1-45.6-34.6c-0.5,5.2-0.9,13.2,0,16.4C497.9-74.6,509.8-64.8,524.4-58.1"/>
      <path class="st1" d="M404.5-68.7c16-8.4,45.3-9.3,67-8.7c1.2-4.8,1.1-10.6,1.2-16.4C444.8-95.1,411.8-88.2,404.5-68.7"/>
      <path class="st1" d="M401.4-84.3c11-27.7,49-24.5,81-23.8c-1.4-3.6-4.5-7.9-8.3-9.4c-10.3-4.2-38.5-7.3-52.8,0.2
        c-9,4.8-14.8,15.6-19.8,22C399.2-92.2,387.3-84.3,401.4-84.3"/>
      <path class="st1" d="M581.1-317c-14.5-2.9-24.7-17-38.9-16.1C550.1-322.2,563.7-317.5,581.1-317"/>
      <path class="st1" d="M587.5-339.7c-11.8-1.2-25.7-3.2-37.7-2.2C555.5-333.2,577.4-336.2,587.5-339.7"/>
      <path class="st1" d="M591.6-359.3c-13.3-0.3-29.8,0-42.4,1C556.7-350.3,583-355.3,591.6-359.3"/>
      <path class="st1" d="M317.2-331.1c6.5-59.7,15.9-109.9,33.1-162.7c38.3-11.6,84.4-12.6,118.3-2.1c-6.2,29.8-3.5,66.1-7.1,98
        c-2.7,23.9-1.3,48-5.1,72.4C415.4-317,357.5-323.6,317.2-331.1z M466.1-325.9c-0.3-25.6,1.1-50.9,3.1-76.6
        c9.8,1.5,16.5,2.5,25.7,4.5c-3,24.7-2.6,52.5-8.7,74.4C479.2-323.7,473.1-323.6,466.1-325.9z M516-321.8c-4.7,1.1-10.1,0-14.6,0
        c2.1-20.9,7.2-44,9-65.9c7-0.2,10.8,3.1,16.6,4.2C527.3-364.3,525.3-337.7,516-321.8L516-321.8z M591.6-390.9
        c14.6,3.6,23.8,21.5,19.7,39.9c-2.7,12.4-7.6,35.7-12.9,43.6c-3.9,5.9-14.4,13.5-22.7,8.2c-13.6-8.7-37.6-11.3-47.6-21.8
        c5-16.6,6.5-39.4,8.6-60.4c17-1.1,38,4.7,52.1-1.4c-9.9-3.2-22.7-3.2-31.3-7.9C564.6-394.1,581-393.5,591.6-390.9L591.6-390.9z
        M455.5-301.9c-10.3,24.2-19.6,49.2-35,68.7c-14.9-10-31.3-19.4-35.4-37.5C406.4-282.6,431.2-294.5,455.5-301.9L455.5-301.9z
        M480.9-227c-1-24.2-3.7-55.9-10.2-74.9c15.4,19.6,27.8,42.4,40.7,64.6C505.9-228.4,494.3-220.7,480.9-227L480.9-227z
        M452.1-216.8c-5.8,0.6-10.8-6.7-18.3-3.5c-1.7-1.9-3.3-4-5.1-5.9c16.7-20.2,24.3-48.8,37.3-72.5c6.9,22.8,6.1,47.7,7.7,72.5
        C464.1-226.7,458.8-217.5,452.1-216.8L452.1-216.8z M433.6-192.4c-0.6-6.9,1-9.2,2.4-17.1C458.7-216.6,454.8-178.3,433.6-192.4z
        M408.5-184.1c-9.8,5.3-24.5,11.2-37.1,13.6c-15.7,3-14.2-21.4-13.5-35.9c0.5-11.5,6.5-23.7,9.1-31.3c1.2-3.6,1.5-7.4,4.5-8.1
        c5.4-1.3,23.2,5.9,28.2,8.6c10.7,5.8,19,15.1,28.1,21.4c0.1,3,0.2,6.1,0.4,9.1c-5.5,2.7-11.8,4.7-19.8,5c5.5,2.7,13.5,2.7,18.4,6
        c0,1.2,0.1,2.4,0.1,3.6C417.9-191.4,414.5-187.4,408.5-184.1L408.5-184.1z M315.1-167.2c-8.1-8.2,22.8-19.5,32.6-20.1
        c-0.1,5.2,3,10.1,2.4,13.9C338.4-171.3,323-172.7,315.1-167.2L315.1-167.2z M415.1-171c0-0.8-1.1-0.5-1.3-1.2
        c10.4-8.2,18.2-9.8,32.4-9.1c6.4,4.7,12.1,10.1,18.8,14.4C449.6-168.3,430.3-177.8,415.1-171L415.1-171z M506.8-198.9
        c-0.4,9.2-2.8,28-8.5,31.3c-11.9,6.9-33-14-41.9-17.2c1-2.8,2.6-5,2.7-8.6c5.3,1.3,11.7,0.4,16.3-1.8c-5.3-0.6-11.2-0.6-14.7-3.1
        c-1.3-3.7,0.3-8.8-0.5-13.9c12.6-3.5,27-5.4,42.9-5.9C506.1-214.1,507.2-206.4,506.8-198.9z M476.6,147.6
        c-29.1,16.4-78.4,28.8-109.3,13.3c-25-12.5-58.8-33.1-70.3-59.2c10.8-25.2-3.2-48.3-4.1-73.9c-0.5-13.6,6.4-25.5,6.9-40.3
        c-3.7-6.1-14.9-6.8-22.7-6.4c-2.6,13.1-7.2,27.8-20.7,29.3c-19.1,2.1-33.1-13.7-33.9-30.2c-1-19.4,14.9-51.6,37.5-49.4
        c8.7,0.9,10.9,9.6,20.4,9.5c5.2-10.3-8-13.5-9.3-20.9c-0.4-1.9,1.1-9.3,1.9-12.8c4.1-17,13.3-38.9,22.3-51.8
        c11.4-16.4,33.9-18.9,58.1-20.5c4.3,9.3,20.2,8.5,30.6,6.1c-12.4,4.9-24,16.8-33.5,27.4c-11,12.1-22.1,25.1-22.7,40.9
        c20.8-28.8,37.9-54,75.7-66.7c28.6-9.6,62,4.4,83.9,19.8c9.1,6.4,14.6,16.6,21,25.9c24.2,34.9,35.5,84.6,33.1,132.8
        c-1,19.9-1,39.7-7.7,53.1c-7,14-30.6,26.5-44.4,13.9c-2.6,13.6,11.5,22,28,17.1C505.6,120,493.3,138.2,476.6,147.6L476.6,147.6z
        M530.8-301.1c22.7,11.3,65.2,30.4,79.5,0c5.3-11.2,11.4-30.2,14.2-41.8c3.9-16.4-4.2-50.7-21-56.2c-14.9-4.8-32.2-4.6-50.1-1
        c-2.1,1.8-4.5,4.8-6.1,8c-12.8,0.5-24.7-0.7-34.8-5.9c1-9.4-5.4-11-11.4-12.9c-4.4-17.6,8.9-40.6,5.7-56.7
        c-2.3-11.4-16.3-13.2-26.7-15.3c-0.3-6.4,0.5-11.7,1.2-17c-2.4-8.7-13-13.7-23-14.9c-33.1-4-83.3-5.8-115.1,5.7
        c-8.9,21.8-15.9,48.3-23.3,73.1c-31-3.3-56.1,13.4-79.8,24.3c-8.2,3.8-19.5,5.9-22.6,12.4c-3,6.3-1.8,18.4-2.5,29.8
        c-1.9,29.2-3.5,57.3-11.2,87.2c-3.5,13.4-9.5,25.2-13.7,38.2c-3.9,12-10.7,26.8-12.5,38.7c-2.6,17.7,14,18.7,24.7,26.4
        c16.5,11.9,29.4,18.4,47.2,29.1c5.3,3.2,21.2,11.2,23,14.9c3.6,7.3-6.2,17.7-8.8,23.4c-4.1,9.1-6.3,16.8-6.9,25.8
        c-15,2.4-26.3,11.3-33.2,21.3c-11.3,16.6-19.2,47.4-9.4,70.8c0.8,1.8,4.6,5.5,5.2,8.3c1.1,5.6-2.1,13-2.3,18.9
        c-1,30.4,5.1,56.6,25.6,65.8c8.3,33.1,38,44.1,66.1,60.6c10.5,6.1,22,10.1,33.9,14.5c42.8,15.7,108.4,12.8,143.9-14.1
        c15.1-11.4,39.1-35.4,47.7-52.8c22.7-45.9,21.1-122.7,5.2-178.6c-2.1-7.5-5.2-18.5-9.6-27.5c-3-6.3-12.4-18.9-11.3-24.4
        c1.2-5.7,21.4-21.1,25.7-25.3c7.8-7.5,22.6-17.5,23.8-27c1.3-10.1-4.5-23.9-7.4-33.7C551.3-242,541.8-272.1,530.8-301.1"/>
      <path class="st1" d="M461.2-237c0-2.8-2.3-5.2-5.2-5.2c-2.8,0-5.2,2.3-5.2,5.2c0,2.8,2.3,5.2,5.2,5.2S461.2-234.1,461.2-237"/>
      <path class="st1" d="M466.4-260.9c0-2.8-2.3-5.2-5.2-5.2c-2.8,0-5.2,2.3-5.2,5.2s2.3,5.2,5.2,5.2S466.4-258,466.4-260.9"/>
    </g>
  </g>
</svg>
