<svg enable-background="new 0 0 72 72" viewBox="0 0 72 72" xmlns="http://www.w3.org/2000/svg"><path d="m68.1 18c-1.9-.6-14.3-.7-26.4-.5-3.4 0-8.6-7.5-12.4-10.3-.1.3-.1.3-.2.3-1.2.3 2.2 4.9-.7 9-.8.7-2.2 1.2-3.3.8-3.4-.9-6.5-2.6-10-3.3-5.7-.4 1 1.8.6 8-.8 2-1.5 3.4-2 4.7-2.8 5-11.1 23.4-12.8 28.5-1.6 4.8-1.1 7.4 1.7 8.9.7.5 8.9.7 25.4.7h24.3l2-4.2 1.9-4 .1-.1v-.1c.6-.8 1.8-3.4 1.7-5.3-2.6.7-4.8 3-5.5 3.9-.1-.7.7-2.7.4-3.7-1.8 1.1-3.6 3.4-4.2 4.3-.1-.7.7-2.7.4-3.6-1.2.8-3 2.8-3.6 3.4-.1-.7.7-2.5.4-3.3-1.5 1-3.3 3.2-4 4h-.9c-6-.1-14.8 2.2-16.4-8.3-2-13.2 6.1-6.7 15-4.2-.3.8-1.5 3.3-1.5 4.6 2-.6 4.5-2.7 5.2-3.4-.2.7-1.4 3.1-1.3 4.3 2.1-.6 4.5-2.7 5.2-3.4.2 0 .4.1.5.1-.2.5-1.4 2.2-1.6 2.8 3.3.1 6.2-2 7.2-2.8 9.9-5.2 17.1-15.9 18.7-21.8.3-3.3-1-5.3-3.9-6zm-30.5 11.4c4.2-2.5 7.6-3.4 10.3-3.4 12.9 0 8.3 22.2-10.3 3.4z" fill="#fff"/></svg>