<svg enable-background="new 0 0 1024 1024" viewBox="0 0 1024 1024" xmlns="http://www.w3.org/2000/svg"><path clip-rule="evenodd" d="m755.4 365.9c-22.4-14.2-53.5-12.1-63.1-11.1-1.8 0-3.6 0-5.5.1-4.7-2 .1-13.9 1.4-26.4 1.8-17.4-4.6-41.2-16.1-60.3-5.6-9.2-7.6-10.1-3.4-14.5 30.4-32.5 35.2-68.5 25.5-98.5-18.9-58.7-22.7-67.9-22.1-62 2.4 23.9-2.9 57.4-6.6 70.9-5.2 19.2-22.9 43.7-69.3 66-10.9 5.2-54.8 25.9-62.6 35-9.7 11.2-12 22.6-16.6 44.9-4.8 23.7-6.6 45.8-1 71.1 1.1 4.9 2.2 8.6 2.8 11.5 0-.1 0-.1-.1-.2 1.3 5.1-.8 8.2-3.7 10-2 .9-4.9 1.8-8.8 2.8h-.1c-7.1 1.1-13.9 2.3-20.4 3.6-48.5 8.3-155 33.7-116.6 164.8 13.1 44.6 39.4 72.8 54.4 78 .2.1.3.1.5.2 2.5 1.1 5.2 2.1 7.8 2.6.3.1.4 4.4-.1 10.4-.1.8-.3 1.7-.4 2.6-2.1 15.2-10.8 38.7-23.6 39-5.1.1-27.7-13.5-34-17.7-35.7-23.5-48.5-36.7-73.8-39.6-20.9-2.3-67.9 38.3-68.9 124.4-1.2 105 28.2 157.3 29.1 158.8 21.8-98.9 37.6-108.6 94.2-147.3 4.5-3.1 57.7 41.7 70.5 41.5 64-1.2 178.7 2.9 234.3-111.9 1.1-2.2 19.2 16.6 20.9 16.6.7 0 97.6-43.2 112.1-241.7 6.4-90.6-18.9-112.3-36.7-123.6zm-76.1-64.7c2.8 11.5 2 23.4-1.5 33.2-6.2 15-15.8 22.8-27.7 22-3.4-.4-7.1-1.7-10.8-3.9-13.2-7.7-20.4-27.5-14.8-42.9.1-.2.2-.4.3-.7 1.5-3.9 5-8.3 9.6-12.7 9.4-8.3 27.9-22.4 29.9-22.4 2.7 0 12.1 15.4 15 27.4zm-.2-172c.2-2 5.4 13.5 7.1 18.9 7.3 23.3 6.4 33.6 4.7 45.4-4.3 30-20.3 49.8-32.4 61.9-18.9 18.9-23.4 21.6-15.1 6.7 26.4-47.7 31.9-92.6 35.7-132.9zm-143.7 146.6c3.4-8.4 20.5-17.6 34.7-25.9 14.6-8.5 61.2-20.7 89.9-58.5 8.9-11.7-7.5 67.1-49.6 105.2-14.2 12.9-53.3 19.5-87.1 43.5-3.5 2.5.8-40.4 12.1-64.3zm-9 69.8c8.3-6.9 23.3-16.7 77.4-34.6 6.7-2.2 6.2.1 9.4 16 3.5 17 6.9 32.7 42.3 41.3 2.5.6-11.5 27-15.5 30.5-7.9 12.6-49.6 48.8-67.2 45.3-12.1-2.3-38.1-31.3-45.2-47.4-5.1-11.4-14.2-40.3-1.2-51.1zm-150.7 150.2c6.1-27.4 27.4-41.3 28.1-41.9 11-9.5 32.2-18.1 54.3-24.7 3.3-.9 5.4-1.3 5.9-1.4 13.7-2.8 30.8-7.5 42.2-8.6 8.6-.9 19.2-5.4 28 1.3 9.5 11.5 30.3 30.5 41.7 31.5 3.9.3 30-7.9 73-46.3 5.3-4.8 11-9.5 16.9-13.9.6-.4 1.2-.9 1.7-1.3 13.2-9.6 27.7-17.5 43.6-21 4.9-1.1-17.5 21.2 1.7 67.8 12.6 30.6 47.3 135.3 41.6 152.1-3.4 10-6.5 11.9-15.1 7.9-24.2-11.3-54.1-44.5-111.4-66.8-46.2-18.1-84.5-17.6-109.3-12.7-57.1 11.2-86.6 36.1-103.2 50-2.5 2.1 24.6-8.6 60.7-12.7 32.8-3.7 65.7-.2 106.4 27.5 26 21.8 19.7 20.1 7.9 23.3-44.8 12.5-130.3 38.3-160.1 33.9-30.9-4.6-68.1-83.6-54.6-144zm136.7 52.4c-32.5-2.2-55.8 2-78 9.3-2.4.8 118.7-86.5 251.9 17.1 24 18.7 38.3 29.1 50.9 37.3 1.8 1.2-32.1 10.2-37.9 11.8-55.2 9.1-70.4-1.7-83.8-17.7-35.8-42.8-77-56-103.1-57.8zm72.4 66.7c-13.2 4.7-31.6 11.2-51.7 17.5 18.8-6.7 37.4-13 51.7-17.5zm-261.1 119.4c2.1-21.1 6.7-40.2 4.7-61.4 0-.4 60 40.7 76.3 43.6 2.7.5-28.1 28.4-59.4 41.6-10.8-1.4-22.5-15-21.6-23.8zm-65.9 172.9c-3.2-4.5-24.3-87.9-18.5-141.3 8.1-73.6 49.3-99.6 57.3-100.6 6.6-.8 19.6 3.5 13.5 77-.7 8.8 39.1 36.4 39.1 36.4-81.3 47.8-74.8 83.8-91.4 128.5zm166.5-88.8c-4.1-.2-79.3-51.6-76.8-52.6 86.8-33.8 93-86.4 99-99.8-.7-1.1 17-8.3 41-17.2 38.7-13.9 92.1-31.2 110.6-38 .3-.1.6-.2.9-.3 8.4-2.4 8.7-.8 11 2.1 6.7 8.7 17.8 14.4 19.1 15 16.5 7.8 37.7 7.1 38.2 7.8 3.3 4.7 5.4 193.9-243 183zm237.6-110.5s6.9-14.9 10.3-34c2.8-15.5 4.2-38.4 4.2-38.4s81.7-9.7 85.3-37.9c4.1-32.1-19.1-99-22.6-109.9-1.5-4.6-21.7-59.2-24.7-73.3-3.4-15.9 8.8-41 6.8-38.1 65.5-13.3 81.8 181.9 8 301.2-24.8 34.3-48.5 47-48.8 47-.8 0-18.5-16.6-18.5-16.6z" fill="#fff" fill-rule="evenodd"/></svg>