<?xml version="1.0" encoding="utf-8"?>
<svg version="1.1" id="e86ca6ee-c1e9-432f-898d-190f775fb61a"
	 xmlns="http://www.w3.org/2000/svg" xmlns:xlink="http://www.w3.org/1999/xlink" x="0px" y="0px" viewBox="0 0 243.7 243.7"
	 style="enable-background:new 0 0 243.7 243.7;" xml:space="preserve">
  <style type="text/css">
    .st0{fill:#FFFFFF;}
  </style>
  <g id="aaae4d30-c1cb-4581-ab36-9a5379c54ed4">
    <path id="a456e5ed-1eea-4505-89f1-5b54d7f730ff" class="st0" d="M43.7,122.6l-4.5-4.5c-14.6-14.6-18.8-35-13.6-53.5
      C10.8,61.3,0.2,48.1,0.3,32.9c0-17.8,14.6-32.4,32.4-32.4c15.9,0,29.5,11.5,32.1,27.2c18.1-4.3,37.1,1.1,50.2,14.3l1.9,1.9l-24,24
      l-1.9-1.9c-7.9-7.7-20.5-7.5-28.2,0.4c-7.5,7.7-7.5,20,0,27.8l53.8,53.8l-24,24l-25.3-25.3L43.7,122.6z"/>
    <path id="f5574080-4e94-4744-bc41-1dfd7b404d17" class="st0" d="M70.6,96.1l25.3-25.3l24-24l4.5-4.5c14.3-14.3,35-18.8,53.2-13.6
      c2.3-16,15.9-27.8,32.1-27.9c17.8,0,32.4,14.6,32.4,32.4c0,16.5-12.3,30.1-28.2,32.1c5.2,18.1,0.6,38.6-13.6,52.8l-1.9,1.9
      l-23.3-24l1.9-2c7.8-7.8,7.8-20.4,0-28.2s-20.4-7.8-28.2,0l0,0l-4.5,4.5l-24,24L95,119.7L70.6,96.1z"/>
    <path id="b54ab80a-5420-4ca3-9ac7-6cb89bf9a2df" class="st0" d="M178.6,217c-18.5,5.5-39.2,1.3-53.8-13.3l-1.9-1.9l24-24l1.9,1.9
      c7.8,7.8,20.4,7.8,28.2,0s7.8-20.4,0-28.2l-4.5-4.5l-24-24l-25.3-25.3l24-24l54.1,54.1c13.6,13.6,18.5,33.1,14.3,50.9
      c16,2.3,27.8,15.9,27.9,32.1c0,17.8-14.6,32.4-32.4,32.4C194.8,242.9,181.5,231.5,178.6,217z"/>
    <path id="ed7961d0-e551-407c-8408-da5774957c54" class="st0" d="M169.2,149.6l-25.3,25.3l-24,24l-4.5,4.5
      c-13.9,13.9-33.4,18.5-50.9,14.2c-3.3,14.8-16.5,25.4-31.8,25.3c-17.8,0-32.4-14.6-32.4-32.4c0-15.2,10.7-28.2,25-31.4
      c-4.5-18.1,0-37.6,13.9-51.5l1.9-1.9l24,24l-1.9,1.9c-7.8,7.8-7.8,20.4,0,28.2s20.4,7.8,28.2,0l4.5-4.5l24-24l25.3-25.3
      L169.2,149.6z"/>
  </g>
</svg>
