<?xml version="1.0" encoding="utf-8"?>
<svg version="1.1" id="Layer_1" xmlns="http://www.w3.org/2000/svg" xmlns:xlink="http://www.w3.org/1999/xlink" x="0px" y="0px"
	 viewBox="0 0 243.7 243.7" style="enable-background:new 0 0 243.7 243.7;" xml:space="preserve">
<style type="text/css">
	.st0{fill:#FFFFFF;}
</style>
<path class="st0" d="M184.4,0H59.3C26.7,0,0,26.7,0,59.3v125.1c0,32.6,26.7,59.3,59.3,59.3h125.1c32.6,0,59.3-26.7,59.3-59.3V59.3
	C243.7,26.7,217,0,184.4,0z M189.7,54.8c0,0.7-0.6,1.3-1.3,1.3h-9.1c-3.8,0-6.9,3.1-7,6.9v0.4v102.4c-0.8,12.3-6.3,23.7-15.3,31.9
	c-9.6,8.7-22.5,13.5-36.5,13.5c-2,0-4-0.1-6-0.3c-14.6-1.4-28.8-7.7-39.9-17.8c-11.4-10.4-18.6-23.8-20.2-37.8
	c-1.8-15.7,3.7-30.6,15.1-40.9c13-11.8,31.4-16.1,50.2-12c0.9,0.2,1.5,1,1.5,1.9V136c0,0.4-0.2,1-1.3,0.5c-0.1-0.1-0.2-0.1-0.3-0.1
	c-3.5-1.7-7.2-2.8-10.9-3.2c-0.1,0-0.1,0-0.2,0s-0.2,0-0.2,0c-0.7-0.1-1.3-0.1-1.9-0.1c-0.1,0-0.3,0-0.4,0s-0.2,0-0.2,0
	c-0.2,0-0.5,0-0.7,0c-0.4,0-0.9,0-1.3,0.1h-0.1c-4,0.4-7.6,1.8-10.3,4c-0.2,0.1-0.3,0.2-0.5,0.4l0,0c-3.8,3.5-5.5,8.5-4.9,14.3
	c0.7,6.5,4.3,12.9,10,18.1c5.7,5.2,12.7,8.4,19.8,9.1c5.6,0.5,10.6-0.6,14.3-3.2c0.5-0.4,1-0.8,1.5-1.2s0.9-0.9,1.3-1.3
	c0-0.1,0.1-0.1,0.2-0.2c1.3-1.6,2.3-3.3,2.9-5.3c0.1-0.3,0.2-0.7,0.2-1c0.1-0.2,0.1-0.5,0.2-0.7c0.1-0.4,0.1-0.9,0.2-1.3
	c0-0.1,0-0.2,0-0.3c0.1-0.8,0.1-1.6,0.1-2.4V62.5c-0.3-3.6-3.3-6.4-7-6.4h-9.1c-0.7,0-1.3-0.6-1.3-1.3v-21c0-0.6,0.5-1.1,1.1-1.1
	h66.2c0.6,0,1.1,0.5,1.1,1.1L189.7,54.8L189.7,54.8z"/>
</svg>
