<?xml version="1.0" encoding="UTF-8" standalone="no"?>
<svg
   xmlns:dc="http://purl.org/dc/elements/1.1/"
   xmlns:cc="http://creativecommons.org/ns#"
   xmlns:rdf="http://www.w3.org/1999/02/22-rdf-syntax-ns#"
   xmlns:svg="http://www.w3.org/2000/svg"
   xmlns="http://www.w3.org/2000/svg"
   xmlns:sodipodi="http://sodipodi.sourceforge.net/DTD/sodipodi-0.dtd"
   xmlns:inkscape="http://www.inkscape.org/namespaces/inkscape"
   width="512"
   height="512"
   version="1.1"
   viewBox="0 0 135.47 135.47"
   id="svg8"
   sodipodi:docname="kali-dragon-logo.svg"
   inkscape:version="1.0.1 (3bc2e813f5, 2020-09-07)">
  <metadata
     id="metadata14">
    <rdf:RDF>
      <cc:Work
         rdf:about="">
        <dc:format>image/svg+xml</dc:format>
        <dc:type
           rdf:resource="http://purl.org/dc/dcmitype/StillImage" />
      </cc:Work>
    </rdf:RDF>
  </metadata>
  <defs
     id="defs12" />
  <sodipodi:namedview
     pagecolor="#ffffff"
     bordercolor="#666666"
     borderopacity="1"
     objecttolerance="10"
     gridtolerance="10"
     guidetolerance="10"
     inkscape:pageopacity="0"
     inkscape:pageshadow="2"
     inkscape:window-width="2651"
     inkscape:window-height="1258"
     id="namedview10"
     showgrid="false"
     inkscape:zoom="1.7421875"
     inkscape:cx="256"
     inkscape:cy="256"
     inkscape:window-x="834"
     inkscape:window-y="393"
     inkscape:window-maximized="0"
     inkscape:current-layer="svg8" />
  <path
     d="m71.766 36.352s-10.212-0.6795-27.602 4.7619c-17.722 5.5452-27.773 13.405-27.773 13.405s26.414-14.748 56.228-15.586zm38.09 16.035 1.3276-0.08664s-7.6062-9.2286-22.165-13.724c8.1839 3.3267 15.307 7.7345 20.837 13.81zm2.1727 3.8344c0.20411-0.3539 0.86302 1.1243 1.3634 1.7453 0.0212 0.124 0.0564 0.19967-0.23373 0.13998-0.0244-0.12747-0.0665-0.16444-0.0665-0.16444s-0.70029-0.41667-0.91499-0.71224c-0.21487-0.29556-0.253-0.81255-0.14825-1.0086zm17.867 43.93s1.6147-18.538-27.511-22.812c-3.6915-0.54163-8.3599-0.9585-13.082-0.97044-23.344 0.30865-24.195-26.924-6.6044-28.299 7.2901-0.60152 15.995 3.3311 24.505 7.2941-0.0316 1.0569 0.0121 1.9961 0.70646 2.864 0.69414 0.86762 3.3607 1.8142 4.2128 2.3031 0.85203 0.48907 3.5816 2.2245 5.2543 4.4017 0.36275-0.67854 3.3921-2.6504 3.3921-2.6504s-0.72571 0.01579-2.414-0.61519c-1.6885-0.63098-3.6921-2.5401-3.7395-2.6504-0.0473-0.11052-0.0788-0.28401 0.31578-0.36295 0.2996-0.25224-0.37893-1.0727-0.67874-1.3723-0.2996-0.2998-2.3036-3.7073-2.3508-3.7863-0.0473-0.07894-0.0632-0.1577-0.20507-0.25243-0.4419-0.1421-2.3826 0.20506-2.3826 0.20506s-2.9847-1.4659-4.0135-4.6264c0.015 0.55358-0.5118 1.158 0 2.4298-1.5562-0.65832-2.8929-1.7811-3.9472-4.5557-0.62751 1.5781 0 2.5815 0 2.5815s-3.6646-1.024-4.2509-4.4036c-0.6435 1.5171 0 2.4296 0 2.4296s-5.9742-3.1172-15.901-3.1624c-6.646-0.60961-8.0296-12.301-7.4139-14.269 0 0-9.586-5.0521-28.456-7.2841-18.87-2.2322-34.346-0.33638-34.346-0.33638s33.421-1.6039 60.195 9.2356c0.91018 4.0709 3.6482 10.851 5.1229 14.11-4.2197 2.9175-8.9781 5.6609-9.7191 15.391-0.74074 9.7297 7.6245 18.288 17.998 18.552 9.8502 0.52469 16.656 0.59921 24.905 4.8759 7.8739 4.3537 14.33 17.62 14.969 29.551 0.69008-8.8524-2.632-27.889-18.134-33.669 21.667 3.7917 23.573 19.854 23.573 19.854zm-58.64-65.253-0.77963-2.5147s-12.864-2.2844-30.16-1.055c-17.296 1.2294-34.759 7.2839-34.759 7.2839s35.732-8.991 65.698-3.7143"
     style="fill:#ffffff;paint-order:stroke fill markers"
     id="path6" />
</svg>
