<svg xmlns="http://www.w3.org/2000/svg" viewBox="0 0 220 220"><path fill="#fff" d="M174.1 46.2a10.14 10.14 0 00-5.7-5.7c-1-.3-2-.5-3.1-.5h-1l-5.2.5v8l6-.6h.6l.5.3c.2.2.4.5.5.8.2.4.3.9.3 1.4v118.9c0 .5-.1 1-.3 1.4-.1.3-.3.6-.5.8l-.5.3h-.7l-6-.6v8l5.2.5h1c1.1 0 2.1-.2 3.1-.5a10.14 10.14 0 005.7-5.7c.6-1.4.9-3 .9-4.5V50.7c0-1.5-.2-3.1-.8-4.5zm22 9.6a9.9 9.9 0 00-9.2-5.7h-1.4l-3.5.5v8.1l4.5-.6h1.1l.7.4.5.6c.1.3.2.7.2 1v99.7c0 .4-.1.8-.2 1.1l-.5.6-.7.4h-1.1l-4.5-.6v8.1l3.5.5h1.4a9.8 9.8 0 009.2-5.8c.6-1.4.9-2.9.9-4.4V60.1c0-1.5-.3-2.9-.9-4.3zM150 36.2c-.6-1.4-1.5-2.6-2.6-3.6a9.5 9.5 0 00-3.8-2.1c-1-.3-2-.5-3.1-.5H139L30.8 44.3c-1.1.2-2.2.6-3.1 1.2-1 .6-1.8 1.5-2.5 2.4-.7 1-1.3 2.1-1.7 3.3-.4 1.3-.5 2.6-.5 3.9v109.8c0 1.3.2 2.6.6 3.9.4 1.2 1 2.3 1.7 3.3.7.9 1.5 1.8 2.5 2.4.9.6 2 1 3.1 1.2L139 189.9h1.5c1.1 0 2.1-.2 3.1-.5a9.5 9.5 0 003.8-2.1c1.1-1 2-2.2 2.6-3.6.7-1.5 1-3.1 1-4.7V40.9c0-1.6-.3-3.2-1-4.7z"/></svg>