<?xml version="1.0" encoding="utf-8"?>
<svg version="1.1" id="Layer_1" xmlns="http://www.w3.org/2000/svg" xmlns:xlink="http://www.w3.org/1999/xlink" x="0px" y="0px"
	 viewBox="0 0 500 500" style="enable-background:new 0 0 500 500;" xml:space="preserve">
  <style type="text/css">
    .st0{fill:#FFFFFF;}
  </style>
  <path class="st0" d="M392,357.3v-83c0-20.4-10.7-38.3-26.9-48.3v-66.6l-2.2-2c-21.8-19.9-48.2-33.4-76.5-39.7V89.4
    c0.1-0.4,0.1-0.7,0.1-1.1s0-0.8-0.1-1.1V53.5H300V31H200v22.5h13.5v64.3c-28.3,6.3-54.6,19.8-76.4,39.7l-2.2,2V226
    c-16.2,10-27,27.9-27,48.3v83L61,388l89.8,42c0.2,0.1,0.5,0.3,0.7,0.3l93.5,43.7c0.9,0.8,2,1.3,3.3,1.5l1.7,0.8l98.4-46.1
    c0.3-0.1,0.5-0.2,0.8-0.4l89.8-42L392,357.3z M226.9,60.2h46v21.3h-46V60.2z M226.9,95h46v20.3c-7.6-1-15.2-1.6-23-1.6
    c-7.8,0-15.5,0.5-23.1,1.6V95z M151.5,415.5L88.6,386l31.1-20.3h63.1L151.5,415.5z M242.7,458.1l-78.9-36.9l32.7-51.9
    c13.8,8,29.5,13,46.2,14.1V458.1z M256.1,458.7v-75.2c17.2-1,33.3-6,47.4-14.2l32.7,51.9L256.1,458.7z M348.5,415.5l-31.3-49.8h63.1
    l31.1,20.3L348.5,415.5z M250,175.9c55.5,0,100.5,45,100.5,100.5s-45,100.5-100.5,100.5s-100.5-45-100.5-100.5
    S194.5,175.9,250,175.9z M250,219.7c-31.3,0-56.7,25.4-56.7,56.7c0,31.3,25.4,56.7,56.7,56.7c31.3,0,56.7-25.4,56.7-56.7
    C306.7,245.1,281.3,219.7,250,219.7z M266,304.2h-32l-16-27.8l16-27.8h32l11.6,20.1h-13.1l-5-8.7h-19l-9.5,16.5l9.5,16.5h19l3-5.2
    h-13.9c-3.2,0-5.7-2.6-5.7-5.7c0-3.2,2.6-5.7,5.7-5.7H269l13,0L266,304.2z"/>
</svg>
