<svg enable-background="new 0 0 1000 1000" viewBox="0 0 1000 1000" xmlns="http://www.w3.org/2000/svg"><path d="m340.8 642.6h318.3v61.6h-318.3zm0-76.7h318.3v61.6h-318.3zm164.5 15.9c0 2.6 2.5 4.8 5.7 4.8 3.1 0 5.7-2.1 5.7-4.8s-2.5-4.8-5.7-4.8c-3.1 0-5.7 2.2-5.7 4.8zm-22 .3c0 2.6 2.5 4.8 5.7 4.8 3.1 0 5.7-2.1 5.7-4.8s-2.5-4.8-5.7-4.8c-3.1 0-5.7 2.1-5.7 4.8zm-59.4-39.7v8.7c0 3.3 4.9 8.6 8.5 8.6h136.8c3.6 0 8.5-5.2 8.5-8.6v-8.7zm70.5-23.8v1.3h-3.9v.7h-58.7c-3.4 0-8.4 5.9-8.4 8.6v8.7h154.2v-8.7c0-3.3-4.9-8.6-8.5-8.6h-10v-1h-2.6v-3.8h-1.4v-1.5h-21.4v1.5h-1.4v3.8h-2.6v1h-19.7v-.7h-3.9v-1.3h-1.3v-10.1c1.2 0 6.5-3.7 6.5-4.7-.2-44.3 4-22.2 4-74.4h1.1v-5.9c0-1-6.4-7.4-7.8-7.4h-16.6c-1.5 0-7.8 6.5-7.8 7.4v5.9h1.1c0 52.2 4.2 30.1 4 74.4 0 1 5.3 4.7 6.5 4.7v10.1zm295.7 284.4c9.1 36.9-130.9 218.3-206.2 187.3-35.5-14.6-48-72.9-48-132.5h-71.9c.1 59.6-12.5 117.9-48 132.5-75.3 31-215.3-150.4-206.2-187.3s38.1-28.2 52.5-46.3-.1-46.8 32.9-60.2c5.2-2.1 9.8-3.2 13.9-3.5 22.5-1.5 32.5 20.9 51.9 23.1 22.9 2.6 37.3-23.9 69.8-4 2.3 1.4 4.6 3.9 6.9 7.3h124.5c2.2-3.4 4.5-5.9 6.9-7.3 32.7-19.5 46.8 6.7 69.8 4 18.6-2.2 28.7-22.7 49.5-23.1 4.8-.1 10.2.9 16.4 3.5 33 13.7 18.5 42.2 32.9 60.2s43.2 9.3 52.4 46.3zm-249.9-6.9c.7-5.2 1.5-10.2 2.4-15.1h-85.3c.9 4.9 1.7 10 2.4 15.1zm-36.2 119.2c-1.3 0-2.7.1-4 .1-1.4 0-2.7-.1-4-.1-1.6 10.6-3.9 21.1-6.7 31.1-4.7 16.4-11.6 32.9-21.8 46.9 10.6.7 21.4.7 32.6.2 11.1.5 22 .4 32.6-.2-10.2-14-16.9-30.5-21.8-46.9-3-10-5.3-20.5-6.9-31.1zm181.1-599.3c-26.9-81.8-9.5-96.4-20.2-176.3s-67.9-139.1-165-139.1-154.1 59.2-164.8 139.1 6.5 94.5-20.3 176.3c-26.9 81.8-147.4 222-144.6 351.3.9 40.3 5.5 75.1 13.6 105.6 9.9-16.4 24.6-28 35.3-32.9 8.4-3.9 12.4-5.7 14.3-6.4.3-2.1 1.4-6.8 3.3-16.1 2.7-12.8 12.8-32.7 30.1-45.8-.2-4-.4-7.9-.4-12-1-100.3 101.7-209 120.8-272.5 19.1-63.4 10.8-70 13.9-85.7 3.1-15.8 15.2-34.2 32.8-48.8 1.7-1.4 3.3-2 4.9-2 16-.1 31.9 57.9 62.8 58 30.9 0 46.9-70.8 64.7-56 17.5 14.6 29.7 33 32.8 48.8s-5.2 22.3 13.9 85.7 122.9 172.1 120.7 272.5c-.1 4.1-.3 8-.4 11.9 17.4 13.1 27.6 33.2 30.2 46 1.9 9.3 3 14 3.3 16.1 1.9.7 5.9 2.6 14.3 6.5 10.7 4.9 25.3 16.5 35.2 32.9 8.1-30.5 12.8-65.4 13.7-105.7 2.7-129.4-118-269.6-144.9-351.4z" fill="#fff"/></svg>