<?xml version="1.0" encoding="utf-8"?>
<svg version="1.1" id="Layer_1" xmlns="http://www.w3.org/2000/svg" xmlns:xlink="http://www.w3.org/1999/xlink" x="0px" y="0px"
	 viewBox="0 0 72 72" style="enable-background:new 0 0 72 72;" xml:space="preserve">
<style type="text/css">
	.st0{fill:#FFFFFF;}
</style>
<path class="st0" d="M63.1,35L46.6,18.5l-7,8.9l7.6,7.6c0.7,0.7,0.7,1.8,0,2.5L45,39.7c0,0,1.5,2.2,1.5,2.3c0.3,0.7,0.4,2.3-0.5,3
	L28.8,58.3v13.5l34.3-34.3C63.8,36.8,63.8,35.7,63.1,35z M24.8,37c-0.7-0.7-0.7-1.8,0-2.5l2.2-2.2l-1.5-2.2c-0.7-1-0.5-2.4,0.5-3.2
	l17.2-13.2V0.2L8.9,34.5c-0.7,0.7-0.7,1.8,0,2.5l16.5,16.5l7-8.9L24.8,37z M51.9,8.5c0.2,0,0.5,0.1,0.6,0.3c0.2,0.4-0.1,0.7-0.3,1
	L37.1,29c-0.2,0.3-0.2,0.8,0,1.1c0,0,8.1,11.8,8.4,12.2s0.3,1.8-0.4,2.3L20.9,63.2c-0.3,0.3-0.5,0.4-0.8,0.4c-0.2,0-0.4-0.2-0.5-0.3
	c-0.2-0.4,0.1-0.7,0.3-1l15-19.3c0.2-0.3,0.2-0.8,0-1.1l-8.4-12.1C26,29,26.1,28,26.9,27.4L51.1,8.8C51.5,8.5,51.7,8.5,51.9,8.5
	 M51.9,8.2c-0.3,0-0.6,0.1-0.9,0.4L26.7,27.2c-0.9,0.7-1.1,1.9-0.4,2.8l8.4,12.1c0.1,0.2,0.1,0.6,0,0.7L19.6,62
	c-0.2,0.3-0.6,0.8-0.3,1.4c0.1,0.3,0.5,0.5,0.8,0.5c0.4,0,0.6-0.2,1-0.4l24.2-18.6c0.8-0.6,0.8-2.1,0.4-2.7
	C45.4,41.8,37.3,30,37.3,30c-0.1-0.2-0.1-0.6,0-0.7L52.4,10c0.2-0.3,0.6-0.8,0.3-1.4C52.6,8.4,52.2,8.2,51.9,8.2z M36.6,28.6
	c-0.4,0.5-0.4,1.3-0.1,1.8l8.3,11.9c0.2,0.3,0.4,1.4-0.1,1.8L20.5,62.7c-0.2,0.2-0.3,0.2-0.4,0.2s0-0.1,0.2-0.4l15.1-19.1
	c0.4-0.5,0.4-1.3,0.1-1.8L27,29.5c-0.4-0.5-0.2-1.2,0.2-1.6L51.5,9.3c0.2-0.2,0.3-0.2,0.4-0.2s0,0.1-0.2,0.4L36.6,28.6z"/>
</svg>
