<svg enable-background="new 0 0 243.7 243.7" viewBox="0 0 243.7 243.7" xmlns="http://www.w3.org/2000/svg"><path d="m140.6 117.6c-3 1.2-6.2 1.9-9.5 2 1.8-4.9 13.4-36.8 15-41 2-5.6 5.6-13.7 12-12.8 6.1.8 5.8 7.1 5.8 12.3-.1 7.9-5.2 31.2-23.3 39.5zm103.1-46.5v101.5c0 39.3-31.8 71.1-71.1 71.1h-101.5c-39.3 0-71.1-31.8-71.1-71.1v-101.5c0-39.3 31.8-71.1 71.1-71.1h101.5c39.3 0 71.1 31.8 71.1 71.1zm-55.4 99.5c-20.6 3.4-50-19.9-66.1-27.9l5.1-12.7c42.7 0 52.7-34.1 52.3-49.8s-14-25.5-27-24.8c-6.8.4-21.8 4.7-31.2 30.5-4.6 12.5-10.3 28.2-10.8 29.6-31.2-12.7-25.3-43.1-24.4-48-2.8-.4-5.7-.1-8.5.8-21.7 6-21.7 44.1 29 57.7l-2.8 7.7c-39.4-14.3-47.9 5.7-48.4 10.7-1.1 10.8 9.3 19.5 22.6 22.2 6.8 1.4 13.9 1 20.5-1.1 6.6-2.2 12.5-6.1 17.2-11.3 0 0 20.4 15.9 40.7 29.7 12.4 8.6 30.5 1.8 31.8-13.3zm-115.6-21.5c.8 5.7 5.8 8 12.1 7.8s12.5-5.1 15.3-12.6c-22.3-12.1-28.1-.4-27.4 4.8z" fill="#fff"/></svg>