<svg enable-background="new 0 0 243.6999969 243.6999969" viewBox="0 0 243.6999969 243.6999969" xmlns="http://www.w3.org/2000/svg"><path d="m235.2789307 53.9529877c-3.5228271-26.1845703-26.3443604-46.8198242-53.3973389-50.8183594-4.5643311-.6756592-21.8572998-3.1346436-61.9163208-3.1346436h-.2991943c-40.0703125 0-48.6669312 2.4589844-53.2312622 3.1346436-26.2998047 3.8877563-50.3175049 22.4295654-56.1446534 48.9241943-2.8028564 13.0480957-3.1019287 27.513794-2.5812378 40.7830811.7422485 19.0291748.8862305 38.0250854 2.6144409 56.9766846 1.1947632 12.5888062 3.2789917 25.0771484 6.2370605 37.371582 5.5391846 22.7064819 27.9616089 41.6026611 49.9298706 49.3118286 23.5200806 8.0394287 48.81427 9.3741455 73.0500488 3.8545532 2.6661377-.6201172 5.2991943-1.3399658 7.8989258-2.1599121 5.8933716-1.8716431 12.7953491-3.96521 17.8692017-7.6424561.0697632-.0516968.126709-.1184692.1668701-.1949463.0404663-.0768433.0629272-.1615601.065979-.24823v-18.3644409c-.0015259-.0809937-.0206299-.1604614-.0566406-.2332153-.0360107-.0723877-.0877075-.1361084-.1514893-.1859741-.0637207-.0498657-.1379395-.0847168-.217041-.102356-.0787354-.0176392-.1608276-.0172729-.239563.0007324-15.527832 3.7087402-31.4395752 5.567627-47.4041748 5.5383911-27.473999 0-34.8634033-13.0368042-36.9790649-18.4642334-1.7010498-4.6906738-2.781189-9.5838013-3.2127075-14.5545044-.0045166-.083252.0108643-.1668701.0446167-.2433472.0336914-.0761108.085083-.1435547.1499634-.1964722.0648193-.0528564.1409302-.0899658.2226562-.1075439.0817871-.0180054.1665039-.0161743.2474976.0048218 15.2687378 3.6832886 30.9210205 5.5421143 46.628418 5.5380249 3.7774048 0 7.5442505 0 11.3219604-.0997314 15.7973633-.4431763 32.4481201-1.2515259 47.9909058-4.286499.3876953-.0776367.7757568-.1439819 1.1079102-.2437134 24.5162354-4.7075195 47.8469849-19.4832764 50.2179565-56.8991089.088501-1.4730835.3100586-15.4291992.3100586-16.9577637.0109253-5.1949462 1.6729126-36.8511962-.2436523-56.3010863zm-38.8405762 94.4701538h-25.7789917v-63.1351929c0-13.2918091-5.5391235-20.0704346-16.8059082-20.0704346-12.3856201 0-18.5894775 8.0192261-18.5894775 23.8586426v34.5581665h-25.6237183v-34.5581665c0-15.8394165-6.2151489-23.8586426-18.600708-23.8586426-11.2000732 0-16.7946777 6.7786255-16.7946777 20.0704346v63.1351929h-25.7681275v-65.0514527c0-13.2918091 3.3937988-23.8511353 10.1810303-31.6784058 7.001709-7.8088989 16.1854858-11.8182983 27.585022-11.8182983 13.1942749 0 23.1646118 5.0726929 29.8116455 15.2076416l6.4141846 10.7662964 6.425415-10.7662964c6.6470337-10.1349487 16.6173706-15.2076416 29.7895508-15.2076416 11.3886719 0 20.5723877 4.0093994 27.5958252 11.8182983 6.7801514 7.8197632 10.1664429 18.3795166 10.1589355 31.6784058z" fill="#fff"/></svg>