<svg enable-background="new 0 0 385.5 65.2" viewBox="0 0 385.5 65.2" xmlns="http://www.w3.org/2000/svg"><g stroke-width=".2651667"><path d="m2.46169778153 2.78466573034h11.34913476v11.34913476h-11.34913476z" fill="#fad744"/><path d="m2.46169778153 18.69466773033h11.34913476v11.34913476h-11.34913476z" fill="#77c8a6"/><path d="m2.38214777153 34.60466973033h11.34913476v11.34913476h-11.34913476z" fill="#136664"/><path d="m2.30259776153 50.46163839034h11.34913476v11.34913476h-11.34913476z" fill="#2e8bc4"/></g><path d="m21.3 20.7v-17.2l6.9.1 5.1 8.9c4.3 7.6 5.1 8.8 5.3 8.6.1-.2 2.4-4.2 5.1-8.9l4.9-8.6h6.9v34.3h-6.6v-23.9l-10 18.2-1.1-.2-4.8-8.8c-2.7-4.9-4.9-8.9-5-9s-.2 4.5-.2 11.7v11.9h-6.5zm38.6 17c0-.1 3-7.8 6.6-17.2l6.6-17h6.8l6.6 17c3.6 9.4 6.6 17.1 6.6 17.2s-1.6.1-3.5.1h-3.5l-2.8-8h-9.1l.1-.4c.1-.2.4-1.4.8-2.6l.7-2.1h2.8c1.5 0 2.8-.1 2.8-.1s-1.1-3.1-2.4-6.7c-1.3-3.8-2.4-6.7-2.6-6.7-.1 0-2.2 5.7-4.9 13.4l-4.7 13.4h-3.5c-1.9-.2-3.4-.2-3.4-.3zm37.4-17v-17.2h6.5v34.3h-6.5zm14 4.8c0-6.9.1-12.2.1-12.1.1.1 1.5 2.1 3.3 4.4l3.1 4.2v15.8h-6.5zm11.7-3.5-11.6-15.9-.1-2.6h6.3l8.2 11.2c4.5 6.1 8.2 11.2 8.3 11.2s.1-5 .1-11.2v-11.2h6.5v34.3h-6.1zm38.4 16.5c-2.5-.3-4.3-.8-6.1-1.7-2.2-1.1-4.1-2.8-5.6-5-.6-.9-1.4-2.5-1.8-3.6-1.1-3.2-1.5-7.3-.9-10.8 1-5.8 4.5-10.7 9.3-13.1 3.1-1.5 6.4-1.9 10.1-1.2 2.4.4 4.7 1.5 6.6 3.1.8.6 1.8 1.6 1.8 1.6s-.2.4-.5.9l-.5.8-.6-.5c-1.5-1.4-2.5-2.1-3.9-2.8-2.1-1.1-4.3-1.5-6.9-1.4-1.9.1-3.4.4-5.1 1.2-4.5 2.1-7.6 6.7-8.3 12.3-.1 1.1-.2 3.5 0 4.7.4 3.9 2 7.4 4.4 9.7 2.6 2.5 6 3.7 10 3.6 2.3-.1 3.8-.5 5.8-1.4 1.7-.8 3.1-1.9 4.7-3.5l.9-1 .5.8c.3.4.5.8.5.8 0 .2-1.6 1.9-2.5 2.7-2.3 1.9-4.9 3.1-7.8 3.6-.7.2-3.4.3-4.1.2zm31.5-.4c-2.3-.3-4.5-1.1-6.5-2.3-3.9-2.4-6.6-6.7-7.4-11.8-.3-2-.4-4.8-.1-6.7.6-4 2.4-7.5 5-10.2 5.3-5.2 13.5-6 19.7-1.9 4 2.7 6.5 6.8 7.3 12 .2 1.1.2 3.9.1 5.1-.3 2.6-.9 4.9-1.9 6.9-2.4 5-6.8 8.1-12.1 8.8-.8.2-3.2.2-4.1.1zm3.9-2c2.9-.3 5.6-1.7 7.7-3.8 1.1-1.1 1.8-2.1 2.6-3.6 1.3-2.5 1.9-5.1 1.9-8.3 0-2.3-.2-3.8-.9-5.8-1.3-3.8-3.9-6.9-7.3-8.6-6.1-3-13.6-.9-17.4 4.8-1 1.5-1.6 2.8-2.1 4.5-.5 1.6-.6 2.6-.7 4.6-.1 3.4.5 6 1.7 8.7 2.9 5.4 8.2 8.2 14.5 7.5zm19.8-11.6c0-7.7 0-13.5.1-13.5 0 0 .5.7 1 1.4l.9 1.3v24.3h-2zm14.7 0-14.7-20.3v-.9h2l11.2 15.6c6.2 8.6 11.3 15.6 11.3 15.6s0-.4 0-.8-.1-30.4-.1-30.4h2.1v34.7h-1.9zm32.2 13.6c-6.8-.8-11.8-5.4-13.4-12.4-.4-1.7-.5-2.6-.5-4.9s.1-3 .5-4.8c1.9-8.2 8.8-13.8 16.6-13.4 4.4.2 7.6 1.5 10.5 4.4l.7.7-.5.8c-.3.4-.5.8-.6.8 0 0-.3-.1-.6-.4-1.8-1.6-3.7-2.8-5.6-3.5-2.8-.9-6-1-8.6-.2-5.5 1.6-9.4 6.6-10.3 13-.2 1.2-.2 3.7 0 5 1 7.6 5.9 12.5 13.1 13 3.9.2 7.3-.8 10.5-3.3.4-.3 1.1-1 1.7-1.5.6-.6 1-1 1-1s.3.4.6.8c.4.6.5.8.5.9-.2.3-1.6 1.8-2.3 2.4-2.5 2.1-5.4 3.4-8.5 3.8-1.3 0-3.5 0-4.8-.2zm22.2-13.6c0-7.4 0-13.5 0-13.4 0 0 .5.6 1 1.3l.9 1.3v5.3h17.7v2.1h-17.7v14.8h19.6v2h-21.6v-13.4zm-.1-20.3v-1h21.6v2h-21.6zm29.2 20.2c0-7.7 0-13.5.1-13.5 0 0 .5.7 1 1.4l.9 1.3.1 9.7h5.2c5.7 0 5.9-.1 7.6-.6 3-1 4.8-3.2 5.2-6.6.3-2.6-.1-5-1.2-6.8-.4-.7-1.5-1.8-2.2-2.2-1.4-.9-3.2-1.5-5.4-1.7-.5 0-3.3-.1-6.1-.1h-5.2v-2h5.7c6.2 0 6.7 0 8.4.4 4.5 1.1 7.2 4 8 8.3.2 1.2.2 3.5 0 4.8-.6 3.3-2.2 5.6-4.8 6.9-1.4.7-2.9 1.2-4.9 1.4-.5.1-2.8.1-5.6.1h-4.7l.1 12.7h-2.2zm38.1 0v-13.5l2 2.8v24.3h-2zm-5.5-19.2h-8.1v-2h29.2v2zm31.3 2.3s.3-4.2.3-4.2h.7s.8 2.1.8 2.3c.1.4.4 1.2.4 1.2s0 0 0-.1c.1-.3.2-.7.3-1.1.1-.1.8-2.2.8-2.2h.3.3s.2 4.2.2 4.2h-.5s-.1-3.5-.1-3.6c0-.2 0-.2 0-.2 0 .1-.2.8-.3 1 0 .1-1 2.7-1 2.7h-.4s-1-2.9-1.1-3.4l-.1-.3s-.1 1.3-.1 1.6-.1 1.8-.2 2v.1zm-2.3-1.8v-1.9h-1.3v-.5h3.1v.4h-1.4v3.8h-.5v-1.8zm-26.9 48.2v-7.3h2.3c3.1 0 3.7 0 4.6.3 1.2.4 2.1 1.2 2.4 2.2.3.8.3 2.1 0 3-.3.8-.9 1.6-1.6 2.1-.3.2-1 .5-1 .5s1.2 1.4 2.7 3.2c1.5 1.7 2.7 3.2 2.7 3.2s-.6 0-1.2 0h-1.2s-4.8-5.7-4.9-5.8c0 0-.3 0-1.4 0h-1.4v5.8h-1.9v-7.2zm4.4-.2c1.2-.1 1.8-.3 2.4-.9.5-.5.7-1.2.7-2.1 0-.5 0-.7-.1-1-.2-.4-.4-.7-.8-1s-.8-.4-1.5-.5c-.2 0-.9 0-1.7 0h-1.4v5.5h1c.5.1 1.2 0 1.4 0zm-17 .2v-7.3h9.5v1.7h-7.6v4h7.6v1.7h-7.6v5.4h7.6v1.7h-9.5zm-15.4 0v-7.3h2.5c2.4 0 2.7 0 3.5.1 2 .2 3.5 1 4.6 2.3.9 1 1.4 2.2 1.6 3.7.1.4.1 1.9 0 2.2-.2 1.1-.5 2-1 2.8-1 1.7-2.6 2.8-4.8 3.1-.9.1-1.9.2-4.5.2h-1.9zm4.7 5.5c1.2-.1 2.1-.3 2.8-.6 1.5-.7 2.3-1.9 2.6-3.7.1-.4.1-1.6 0-2.1-.1-.7-.3-1.5-.5-2-.6-1.3-1.9-2.2-3.5-2.6-.8-.2-1.4-.2-3-.2h-1.3v11.2h1.2c.8.1 1.5.1 1.7 0zm-15.3 2c-2.6-.3-4.5-1.7-5.4-4.1-.5-1.4-.7-3.2-.5-5 .2-1.5.7-2.8 1.5-3.8.2-.3.7-.8 1-1 .8-.6 1.8-1 2.9-1.2.4-.1 1.6-.1 2.1 0 .7.1 1.2.2 1.8.4 1.7.7 2.8 1.8 3.5 3.6.5 1.5.7 3.3.5 5.1-.1 1-.5 2.1-.9 2.8-.7 1.3-1.9 2.3-3.3 2.7-.4.1-.9.2-1.3.3-.4.2-1.6.2-1.9.2zm1.8-1.7c.9-.2 1.6-.5 2.2-1.2.8-.8 1.3-1.8 1.5-3.3.1-.5.1-1.6 0-2.1-.2-2.1-.9-3.5-2.1-4.4-.7-.5-1.5-.7-2.6-.7-1.2 0-2.1.3-2.9.9-1 .8-1.6 2-1.8 3.7-.1.5-.1 2.1 0 2.6.2 1.1.5 2 .9 2.7.2.3.8.9 1.1 1.1.6.4 1.2.6 1.9.7.4.1 1.4.1 1.8 0zm-15.3 1.7c-2-.2-3.4-.8-4.5-1.9-1-1-1.6-2.4-1.8-4.1-.1-.5-.1-1.8 0-2.4.2-2.7 1.4-4.7 3.5-5.8 1.4-.7 3.3-1 5.2-.7 1 .2 2.1.5 3.1 1l.2.1v1.1c0 1.1 0 1.1-.1 1.1 0 0-.2-.1-.4-.2-1.1-.8-2.1-1.3-3.2-1.5-1.3-.3-2.7-.1-3.7.3-.8.4-1.4 1-1.9 1.7-.6 1.1-1 2.6-.9 4.2.1 1.2.3 1.9.7 2.8.3.5.5.8.8 1.2.4.4.7.6 1.2.9.7.4 1.4.5 2.3.5.6 0 .9 0 1.5-.1 1.1-.2 2.2-.8 3.1-1.5.4-.3.4-.4.4.9v1.1l-.4.2c-.9.4-1.1.5-1.5.6-.6.2-1.4.4-2 .5-.3 0-1.2 0-1.6 0zm-15.2 0c-1.6-.1-2.9-.4-4.4-1l-.3-.1v-1.3c0-1.2 0-1.2.1-1.2 0 0 .2.1.4.2 1.1.8 2.5 1.4 3.9 1.6.5.1 1.6.1 2.1 0 .8-.1 1.4-.3 1.9-.7.4-.3.6-.6.7-1 .1-.2.1-.3.1-.7 0-.7-.1-1.1-.5-1.4-.5-.5-1.3-.7-3.1-1.1-1.7-.3-2.3-.4-2.9-.7-1.4-.5-2.1-1.4-2.4-2.6-.1-.4-.1-1.2-.1-1.6.2-1 .7-1.8 1.6-2.5 1.2-.8 2.7-1.2 4.7-1 1.3.1 2.8.4 3.9.9l.2.1v2.2h-.1s-.2-.1-.3-.2c-.9-.7-2.2-1.2-3.5-1.4-.5-.1-1.4-.1-1.9-.1-1.5.2-2.5.8-2.8 1.8-.1.3-.1.8 0 1.1.2.8.6 1.2 1.5 1.5.4.1.8.2 2.2.5 2.3.4 3.1.7 3.9 1.2s1.2 1.2 1.4 2.1c.1.4.1 1.1 0 1.5-.2.8-.5 1.5-1.1 2-.8.9-2.1 1.5-3.6 1.6-.2.3-1.2.3-1.6.3zm-19-7.5v-7.3h3l6.3 11.9v-11.9h1.8v14.5h-2.4l-3.4-6.5c-1.9-3.6-3.5-6.5-3.5-6.5s0 2.9 0 6.5v6.5h-1.8zm-15.4 7.2s5.3-14.5 5.3-14.5h2.6l2.6 7.2c1.4 4 2.6 7.2 2.6 7.3 0 0-.5 0-1 0h-1l-1.4-4.1h-6.3l-1.4 4.1h-1c-1 0-1 0-1 0zm9.1-5.7s-2.5-7.1-2.5-7.1 0 0-.1 0c-.1.1-2.5 7.1-2.5 7.1h2.6zm-21.3-1.5v-7.3h2.6c2.8 0 2.9 0 3.7.2 1.6.3 2.8 1.3 3.1 2.7.2.8.2 1.8-.1 2.6-.3.9-.8 1.6-1.7 2.2-.3.2-.7.4-1 .5-.1 0-.1 0-.1 0s5.2 6 5.4 6.3l.1.1h-2.5l-4.9-5.8h-2.7v5.8h-1.9zm4.9-.2c.5-.1.8-.2 1.1-.3 1-.5 1.5-1.5 1.5-2.8 0-.9-.3-1.4-1-1.8-.4-.2-.8-.4-1.5-.5-.2 0-.9 0-1.7 0h-1.4v5.5h1.3c1-.1 1.4-.1 1.7-.1zm-14 1v-6.4h-5.2v-1.7h12.3v1.7h-5.2v12.8h-1.9zm-25.6 6.4s1.2-3.3 2.6-7.3l2.6-7.2h2.6s5.3 14.4 5.3 14.5c0 0 0 0-1 0h-1l-1.4-4.1h-6.3l-1.4 4.1h-1c-.9 0-1 0-1 0zm9-5.7s-.6-1.6-1.3-3.6-1.3-3.5-1.3-3.5-2.6 7.1-2.6 7.1h2.6zm-21.2-1.5v-7.3h2.6c2.8 0 2.9 0 3.7.2 1.3.3 2.3 1 2.9 2 .4.7.4 1.8.2 2.8-.2 1.1-.8 1.9-1.8 2.6-.3.2-1 .5-1 .5s4.9 5.8 5.4 6.3l.1.1h-2.5l-4.9-5.8h-2.7v5.8h-1.9v-7.2zm4.3-.2c.5 0 1.1-.1 1.3-.2.9-.3 1.6-1.1 1.7-2 .1-.8.1-1.5-.2-2-.2-.5-.8-.9-1.4-1s-.6-.2-2.3-.2h-1.6v5.5h1c.6 0 1.3-.1 1.5-.1zm-13.4 1v-6.4h-5.2v-1.7h12.3v1.7h-5.2v12.8h-1.9zm-12.7-.8v-7.3h1.9v12.8h7.3v1.7h-9.2zm-10 7.5c-1.1-.1-2-.4-2.8-.9-.4-.3-.9-.8-1.2-1.2-.4-.5-.6-1.2-.8-1.9-.2-.9-.2-.6-.2-6v-4.9h1.9v5c0 4.5 0 5 .1 5.3.1.4.2.7.3 1 .5 1.1 1.2 1.7 2.3 1.9.6.1 1.4.1 2 0 1.4-.2 2.3-1.2 2.5-2.7.1-.6.1-.9.1-5.7v-4.7h1.9v4.9c0 4.8 0 4.9-.1 5.3-.3 1.8-.8 2.8-1.9 3.6-.6.5-1.4.8-2.4.9-.2.1-1.4.1-1.7.1zm-20.1 0c-1.9-.1-3.3-.7-4.4-1.8-.9-.9-1.5-2.1-1.8-3.5-.3-1.3-.3-3 0-4.3.4-1.8 1.3-3.3 2.7-4.2 1.2-.8 2.8-1.2 4.5-1.2 1.5 0 2.7.4 4.3 1.1l.3.1v1.1c0 1.1 0 1.1-.1 1.1 0 0-.2-.1-.3-.2-.7-.5-1.6-1.1-2.3-1.3-.8-.3-1.4-.4-2.3-.4-.5 0-.7 0-1 .1-1.1.2-2.1.7-2.8 1.6-.5.6-.8 1.4-1.1 2.2-.3 1.3-.3 3.1.1 4.3.5 1.6 1.5 2.8 3 3.3 1.3.4 3 .4 4.4-.2.7-.3 1.5-.7 2-1.2.2-.1.3-.2.3-.2h.1v2.2l-.4.2c-1.4.6-2.3.9-3.4 1.1-.5.1-1.4.1-1.8.1zm-15.7-.3s-5.3-14.5-5.3-14.5h2l2.3 6.4c1.3 3.5 2.3 6.4 2.3 6.4s.5-1.4 1.1-3.2l3.4-9.6h1 1s-1.2 3.3-2.6 7.3l-2.6 7.2h-1.3c-1.2 0-1.3 0-1.3 0zm-18.3 0s5.3-14.5 5.3-14.5h2.6l2.6 7.2c1.4 4 2.6 7.2 2.6 7.3 0 0-.1 0-1 0h-1l-1.4-4.1h-6.3l-1.4 4.1h-1c-1 0-1 0-1 0zm9-5.7c0-.1-2.5-7-2.5-7.1-.2.6-2.5 7.1-2.5 7.1h2.6zm-27.5 4.7v-1l1.3-1.1c1.7-1.5 2-1.8 3.1-2.9 1.8-1.8 2.4-2.6 2.7-3.6.1-.5.2-1.2.1-1.6-.2-1-.9-1.7-2.1-1.9-.3-.1-1.2 0-1.6 0-1 .2-2 .5-2.9 1.1-.1.1-.2.1-.3.1 0 0 0-.1 0-1v-1l.3-.1c.5-.2 1.4-.5 2.1-.6.6-.1 1.1-.2 1.7-.2 1.6 0 2.8.4 3.6 1.2.8.7 1.1 1.6 1.1 2.8 0 1.3-.4 2.4-1.3 3.6-.4.5-.8 1-1.7 1.8-1 1-1.4 1.4-3 2.7-.7.6-1.2 1.1-1.2 1.1h3.9 3.9v1.6h-9.8v-1zm-11.7-6.2v-7.3h2.4c2.6 0 2.8 0 3.5.2 1.5.3 2.5 1.1 3.1 2.2.5.9.5 2.4.2 3.5-.5 1.5-1.9 2.7-3.6 3.1-.6.1-.9.1-2.3.1h-1.4v5.4h-1.9zm4.7.1c1.1-.1 1.8-.5 2.3-1.2.2-.2.4-.6.5-.9.2-.7.1-1.5-.1-2.1-.3-.8-1-1.3-2-1.5-.5-.1-.8-.1-2.1-.1h-1.3v5.8h1.2c.6.1 1.3 0 1.5 0zm-22.3 7.4c-1.2-.1-2.4-.5-3.3-1.2-.3-.2-.8-.7-1.1-1-1.1-1.4-1.7-3.3-1.6-5.6 0-1.2.2-2 .5-2.9.9-2.5 2.7-4 5.3-4.3.5-.1 1.7 0 2.1 0 1.2.2 2.3.7 3.2 1.4 1.3 1.1 2.1 2.8 2.3 4.9.1.6.1 1.8 0 2.4-.2 1.6-.7 2.9-1.4 4-.2.3-.7.8-1 1-.7.6-1.7 1-2.7 1.2-.6.1-1.6.1-2.3.1zm1.4-1.7c1.4-.2 2.4-.8 3.1-1.9.5-.7.8-1.6.9-2.8.1-.5.1-1.8 0-2.3-.2-1.6-.6-2.7-1.4-3.5-.4-.4-.7-.6-1.1-.8-.6-.3-1.1-.4-1.8-.5-1.4-.1-2.6.3-3.5 1.1s-1.3 1.8-1.6 3.3c-.1.5-.1 1.8-.1 2.4.2 2 .9 3.4 2.1 4.3.5.4 1.3.6 2 .7.4.1 1.2.1 1.4 0zm-16.4 1.6c-1.1-.1-2-.4-2.8-.8-.7-.3-1.2-.7-1.7-1.2-1.3-1.3-1.9-3.2-1.9-5.5 0-2.4.7-4.2 2-5.5 1.4-1.4 3.4-2.1 5.9-2 1.6 0 3.1.4 4.7 1.1l.4.2v2.3h-.1s-.1 0-.1-.1c0 0-.2-.2-.4-.3-1.2-.8-1.9-1.1-3.1-1.4-.6-.1-1-.2-1.7-.2s-1 0-1.5.1c-1.6.3-2.9 1.5-3.5 3.1-.3.9-.4 1.7-.4 2.9 0 1 .1 1.5.3 2.2.5 1.6 1.7 2.8 3.3 3.2 1.4.4 3.5.3 5.1-.3l.3-.1v-3.6h-3.9v-1.7h5.8v6.3l-.2.1c-1.5.6-2.7 1-3.8 1.2-.7.1-2.1.1-2.7 0zm-18.7-1.2v-1l1-.9c2-1.7 3-2.6 4-3.6 1.7-1.7 2.1-2.6 2.3-3.8.1-1.2-.3-2-1.2-2.5-1-.5-2.6-.4-4.2.2-.4.2-.6.3-1 .5-.2.1-.3.2-.3.2s0-.3 0-1v-1l.3-.1c.8-.3 2-.6 3-.7h1.7c1.2.1 2.1.5 2.8 1.2.8.8 1.2 1.9 1.1 3.2-.1 1.4-.6 2.4-1.8 3.7-.4.4-1.6 1.6-2.3 2.3-.3.3-3.1 2.7-3.1 2.7h7.8v1.7h-9.8v-1.1z" fill="#fff"/></svg>