<svg enable-background="new 0 0 385.5 65.2" viewBox="0 0 385.5 65.2" xmlns="http://www.w3.org/2000/svg"><path d="m2.450532 2.786346h11.3v11.3h-11.3z" fill="#fad744"/><path d="m2.450532 18.686346h11.3v11.3h-11.3z" fill="#77c8a6"/><path d="m2.350532 34.586346h11.3v11.3h-11.3z" fill="#136664"/><path d="m2.350532 50.486346h11.3v11.3h-11.3z" fill="#2e8bc4"/><path d="m21.3 20.7v-17.3h6.9l10.2 17.8s2.3-3.9 5.1-8.9l5-8.9h7v34.5h-6.6v-23.9l-9.9 18.2h-1.2l-9.9-18v23.8h-6.6zm38.4 17.2 13.3-34.5h6.8c0 .1 13.3 34.5 13.3 34.5h-7.2l-2.8-8h-4.6c-2.8 0-4.6 0-4.6-.1 0 0 .4-1.2.8-2.6l.9-2.7 5.5.1c0-.1-4.7-13.4-4.7-13.4h-.2l-9.4 26.8h-3.6c-1.9-.1-3.5-.1-3.5-.1zm37.6-17.2v-17.3h6.6v34.5h-6.6zm14 4.8v-12.4l6.6 8.8v16h-6.6zm11.7-3.5-11.7-15.9v-2.7h6.3l16.5 22.6v-22.5h6.7v34.4h-6.2zm38.8 16.6c-2.6-.2-4.7-.7-6.7-1.8-1.3-.7-2.4-1.4-3.5-2.5-2.9-2.9-4.7-6.9-5-11.8-.1-.8-.1-2.4 0-3.1.3-3.5 1.3-6.6 3.1-9.4 2.7-4.1 6.7-6.6 11.3-7.2.8-.1 2.8-.1 3.7 0 3.8.4 6.7 1.8 9.5 4.5l.5.5-1.2 1.8-.3-.3c-2.4-2.4-5-3.7-7.9-4.2-1-.2-1.3-.2-2.7-.2-1.1 0-1.4 0-1.9.1-2 .3-3.7.9-5.3 2-3 2-5.2 5.2-6.2 9.1-.7 2.6-.8 5.4-.3 8.2.7 4.3 2.8 7.8 6 9.9 2.2 1.5 4.8 2.2 7.8 2.2 1.9 0 3.4-.3 5-.9 2.4-.9 4.6-2.5 6.7-4.8l.2-.3 1.2 1.6-.2.2c-.4.5-1.2 1.4-1.8 1.9-2.7 2.3-5.7 3.9-9.3 4.3-.3.2-2.2.2-2.7.2zm32.1-.4c-5.5-.4-10-3.2-12.7-7.9-1.1-2-1.9-4.4-2.3-6.9-.2-1.2-.2-1.6-.2-3.2 0-1.7.1-2.3.3-3.6 1.2-7.1 6.2-12.4 12.7-13.8 1-.2 1.7-.3 2.9-.3 1.9 0 3.5.2 5.2.7 4.1 1.3 7.4 4.3 9.5 8.4 1.1 2.2 1.7 4.4 1.9 7 .1.7.1 2.6 0 3.3-.5 6.2-3.3 11.2-7.9 14-2 1.2-4.2 2-6.6 2.2-.7.1-2.2.2-2.8.1zm2.2-2.1c1.9-.2 3.4-.6 5-1.4 2-1 3.6-2.4 5-4.3s2.4-4.5 2.8-7.1c.2-1.3.3-3.3.2-4.5-.3-3.6-1.4-6.6-3.5-9.2-.4-.5-1.4-1.5-1.9-2-3-2.5-6.8-3.6-10.6-3-2.4.4-4.5 1.3-6.4 2.8-.6.4-1.8 1.7-2.3 2.3-2.7 3.4-3.9 7.9-3.3 12.9.4 3.2 1.5 6.1 3.3 8.4.4.6 1.4 1.6 1.9 2 1.8 1.5 4 2.5 6.3 2.9.4.1.7.1 1.5.2.1.1 1.5.1 2 0zm20.4-11.7v-13.6l2 2.8v24.4h-2zm13.3-2-13.3-18.3v-.8h2.1l22.4 31.1h.1v-31.1h2.1v34.7h-1.9zm35.1 15.9c-2.2-.1-4.3-.6-6.1-1.4-4.6-2-7.8-6.2-8.9-11.7-.6-3-.6-6.2.1-9.1.8-3.7 2.8-7 5.3-9.4 2.6-2.4 5.6-3.7 9-4.1.8-.1 2.9-.1 3.8 0 2.5.3 4.5 1 6.4 2.1 1 .6 1.9 1.4 3.1 2.4l.4.4-.6.9c-.3.5-.6.9-.6.9s-.3-.2-.6-.5c-2.7-2.6-5.3-3.7-8.7-4.1-.8-.1-2.6-.1-3.4 0-2.2.3-4 .9-5.7 2.1-4.9 3.4-7.5 9.5-6.7 16.3.4 3.1 1.4 5.8 3.1 8 .9 1.1 2 2.2 3.3 3l2.4 1.2c1.3.5 2.7.8 4.2.9.8.1 2.3 0 3-.1 2.9-.4 5.5-1.5 7.9-3.5.5-.4 1.7-1.6 2.1-2l.3-.3 1.2 1.6s-.2.2-.4.5c-1.5 1.9-3.7 3.6-5.9 4.5-2.5 1.1-5.2 1.5-8 1.4zm20.7-34.1v-1h21.7v2.2h-21.7zm.1 20.2v-13.5s.5.6 1 1.3l1 1.3v5.5h17.8v2.1h-17.8v14.8h19.6v2h-21.6zm29.1 0v-13.5l2 2.8v9.7h5c5.4 0 5.2 0 6.5-.3 2.6-.5 4.5-1.8 5.5-3.8.7-1.4 1.1-3.3 1.1-5.2-.1-4.7-2.8-7.6-7.5-8.4-1.1-.2-1.4-.2-7.1-.2h-5.4v-2.2h5.6c5 0 5.7 0 6.2.1 3.4.4 5.7 1.4 7.5 3.2 1.6 1.6 2.4 3.5 2.8 6 .1.7.1 3 0 3.7-.4 3.2-1.6 5.4-3.8 7-1.5 1-3.4 1.7-5.8 2-.5.1-1.2.1-5.5.1h-5v12.6h-2v-13.6zm42.5-19.2h-17.9v-2h29.2v2.2zm-4.4 19.2v-13.5s.5.6 1 1.4l1 1.4v24.3h-2zm23.5-18.7v-1.9h-1.3v-.5h3.2v.4h-1.4v3.8h-.5zm2.3 1.9.3-4.3h.7s.8 2 .8 2.1c.1.3.1.5.3.8.1.2.2.5.2.5v-.2c.1-.3.2-.7.4-1.1l.8-2.1h.7l.2 4.3h-.5s-.1-1.9-.1-2.1v-1.7s0 .1-.1.2c-.2.6-.3 1-.4 1.3 0 .1-.8 2.2-.8 2.2h-.4l-.7-2.1c-.1-.4-.3-.8-.4-1.4 0-.1-.1-.2-.1-.2v1.8l-.1 1.8h-.8zm-70.6 45.6v-8.7h3.1c3.2 0 3.5 0 4.4.2 1.3.3 2.5 1 3.1 2 .3.4.4.8.6 1.3.1.3.1.5.1 1.1 0 .8 0 1.2-.2 1.8-.3 1.3-1.3 2.4-2.7 3.2-.2.1-.4.2-.5.2l-.2.1s6.4 7.5 6.5 7.6 0 .1-1.4.1h-1.5l-5.8-6.9h-3.3v6.9h-2.3zm5.7-.2c1.3-.1 2.1-.6 2.7-1.4.4-.5.6-1.1.6-2 0-1-.2-1.8-.8-2.3-.5-.4-1-.7-1.8-.8-.3-.1-.8-.1-2.3-.1h-1.9v6.6h1.5c1 .1 1.8.1 2 0zm-20.9.2v-8.7h11.4v2h-9.1v4.8h9.1v2h-9.1v6.5h9.1v2h-11.4zm-18.5 0v-8.7h3c3 0 3.4 0 4.5.2 1.4.2 2.8.7 3.7 1.3 1.2.8 2.2 1.9 2.7 3.2.9 1.9 1.1 4.5.5 6.6-.4 1.5-1.4 3-2.4 4-1.4 1.3-3.1 1.9-5.6 2.1-.3 0-1.9.1-3.4.1h-2.9v-8.8zm6.4 6.7c1.1-.1 1.9-.3 2.7-.7 1.6-.8 2.7-2 3.1-3.8.3-1.2.3-3.1 0-4.3s-.7-2-1.5-2.8c-1.1-1-2.3-1.6-4.2-1.8-.4 0-1-.1-2.3-.1h-1.8v13.6h1.7c1.1-.1 1.9-.1 2.3-.1zm-19.2 2.3c-2.1-.3-3.5-.9-4.8-2.2-1-1.1-1.7-2.5-2.1-4.1-.3-1.3-.3-3.2-.1-4.7.3-1.8 1-3.5 2-4.6 1.1-1.3 2.8-2.1 4.8-2.4.5-.1 1.9-.1 2.3 0 2.2.3 4 1.3 5.2 2.9 1.3 1.7 1.9 4.4 1.7 7.2-.3 4.1-2.4 6.9-5.7 7.8-.8.2-1.4.3-2.4.3-.4-.1-.8-.2-.9-.2zm2-2c2.3-.4 4-2 4.5-4.7.2-.8.2-1.3.2-2.3 0-1.4-.1-2.3-.5-3.3-.7-2.1-2.2-3.4-4.3-3.8-.4-.1-1.5-.1-2 0-1.1.2-2 .6-2.8 1.4s-1.4 1.9-1.7 3.3c-.2.8-.2 1.3-.2 2.4 0 1 .1 1.6.2 2.4.5 2.5 2.2 4.2 4.5 4.6.6.1 1.6.1 2.1 0zm-18.3 2c-1.2-.1-2.3-.4-3.2-.8-2.3-1.1-3.7-3.3-4.2-6.4-.1-.4-.1-.8-.1-1.8 0-1.4.1-1.9.3-3 .7-2.8 2.5-4.7 5-5.6 1-.3 1.9-.5 3.2-.5 1.9 0 3.5.4 5.4 1.3l.5.2v1.4c0 1.1 0 1.4-.1 1.4 0 0-.2-.1-.4-.3-1.1-.9-2.4-1.5-3.5-1.8-.7-.2-1.2-.2-2.1-.2-1.2 0-1.9.2-2.7.6-1.1.5-1.9 1.4-2.5 2.6-.4.8-.6 1.4-.7 2.5-.1.6-.1 2.4 0 3 .3 1.6.9 2.9 1.8 3.9 1 1 2.2 1.5 3.9 1.6 2.2.1 4.2-.6 5.9-2.1.4-.3.4-.4.4 1.1v1.3l-.1.1c-.8.4-1.6.7-2 .9-.8.3-1.9.5-2.7.6zm-18.5 0c-1.5-.1-3.2-.5-4.8-1.2l-.4-.2v-2.8h.1s.2.1.3.2c.8.7 2.3 1.4 3.7 1.8 1 .3 1.4.3 2.5.3.7 0 1.1 0 1.3-.1 1.5-.3 2.5-.9 2.9-1.8.2-.4.3-.7.2-1.2 0-1.5-.7-2.1-2.8-2.6-.3-.1-1-.2-1.7-.3-2.2-.4-3.1-.6-3.9-1-1.4-.7-2.2-1.6-2.5-3.1-.1-.4-.1-1.5 0-1.9.3-1.2.9-2.1 1.9-2.8.9-.6 2-1 3.2-1.2.6-.1 2.1-.1 2.8 0 1.4.1 2.8.5 4.2 1l.4.2v1.4c0 1.2 0 1.4-.1 1.4 0 0-.2-.1-.3-.2-.6-.5-1.4-.9-2.5-1.2-1.1-.4-2.1-.5-3.2-.5-1.3 0-2.2.2-3 .8-.8.5-1.2 1.3-1.1 2.3.1.6.3 1.1.6 1.5.3.3.6.5 1.3.7.5.2.8.2 2.6.6 2.2.4 2.9.6 3.8.9.8.3 1.3.7 1.8 1.2.5.6.8 1.3.9 2.2.2 1.8-.6 3.5-2.1 4.6-.4.3-1.4.8-1.9.9-.5.2-1.2.3-1.8.4-.4-.3-1.9-.3-2.4-.3zm-22.4-9v-8.7h3.6l7.5 14.2v-14.2h2.1v17.4h-2.8l-4.1-7.7c-2.3-4.3-4.1-7.8-4.2-7.8 0-.1-.1 1.2-.1 7.7v7.8h-2.1v-8.7zm-15.7 1.2 3.6-9.9h3.1l6.3 17.4h-2.4l-1.7-4.9h-7.6l-1.7 4.9h-2.3zm8.2.7s-3-8.5-3.1-8.6c0 0-2.4 6.4-3.1 8.5 0 0 .6.1 3.1.1zm-25.5-1.9v-8.7h2.6c3.4 0 4.2.1 5.2.3 1.1.3 2.1.9 2.7 1.7.7.9.9 2 .8 3.3-.1 1.7-.9 2.9-2.2 3.8-.3.2-1.1.6-1.2.6 0 0-.1 0 0 .1 0 0 1.5 1.7 3.2 3.8 1.8 2.1 3.2 3.8 3.2 3.8h-2.9l-5.8-6.9h-3.3v6.9h-2.2v-8.7zm6.1-.2c.9-.2 1.4-.4 1.9-.9.3-.3.4-.4.5-.7.3-.6.4-.9.4-1.8 0-.7 0-.8-.1-1.1-.1-.2-.1-.4-.2-.5-.3-.6-.9-1.1-1.6-1.3-.6-.2-1-.2-2.9-.2h-1.9v6.6h1.8c1.4-.1 1.8-.1 2.1-.1zm-17.1 1.2v-7.7h-6.2v-2h14.7v2h-6.2v15.4h-2.3zm-22.9 8c-2.1-.3-3.6-1-4.9-2.3-1.1-1.2-1.8-2.8-2.1-4.7-.2-1-.2-2.4-.1-3.4.4-3.2 1.8-5.5 4.2-6.7 1.4-.7 3-1 4.9-.9 1.6.1 3.1.5 4.9 1.3l.4.2v1.4c0 1.3 0 1.4-.1 1.4l-.4-.2c-1.3-1.1-2.7-1.7-4.2-2-.8-.1-2-.1-2.7 0-1.2.2-2.1.7-2.9 1.6-.9 1-1.5 2.3-1.7 4-.1.7-.1 2.1 0 2.7.2 1.7.8 3.2 1.8 4.2.8.8 1.6 1.2 2.8 1.5.4.1.6.1 1.3.1.9 0 1.3 0 2-.2 1.3-.3 2.5-.9 3.6-1.8.5-.4.5-.5.5 1.1v1.3l-.5.2c-1 .5-1.3.6-1.8.7-.6.2-1.3.4-2 .5zm-21.4-9-3.2-8.7h2.4s1.2 3.5 2.7 7.6c1.5 4.2 2.7 7.6 2.7 7.7 0 0 1.3-3.4 2.8-7.6l2.7-7.7h2.3l-6.3 17.4h-3.1zm-18.9 8.7 6.4-17.4h3.1s6.3 17.3 6.3 17.4h-2.4l-1.7-4.9h-7.5l-1.7 4.9zm10.9-6.8c0-.1-3-8.5-3.1-8.5 0 0-.7 1.9-1.6 4.2-.8 2.3-1.5 4.3-1.5 4.3zm-26.8 6.7c.3-.5 6-8.6 6-8.6s-1.3-2-2.9-4.3c-1.6-2.4-2.9-4.3-2.9-4.3s.2-.1 1.3-.1h1.2l2.3 3.5c1.3 1.9 2.3 3.5 2.4 3.6 0 0 .6-.8 2.5-3.5l2.4-3.6h2.4l-6 8.6 6 8.8h-2.6s-1.1-1.6-2.4-3.6-2.4-3.6-2.4-3.6l-4.9 7.2h-2.5zm-20.1.4c-1.8-.2-3.3-1-4.4-2.2-.5-.6-.9-1.1-1.3-1.8-.6-1.2-.9-2.5-1-4.2s.1-3.4.6-4.8c.6-1.7 1.6-3.1 3-3.9.9-.6 2-1 3.3-1.1.5-.1 1.8-.1 2.4 0 1.2.2 2.4.6 3.3 1.2 2 1.3 3.1 3.6 3.5 6.7.1.7 0 2.1-.1 2.8-.4 2.9-1.7 5.1-3.7 6.3-.9.5-1.9.8-3 1-.6.1-2 .1-2.6 0zm2.3-2c2.3-.4 4-2 4.5-4.6.3-1.3.3-3.1.1-4.4-.5-2.9-2.1-4.7-4.5-5.1-.5-.1-1.4-.1-1.9 0-2.3.3-3.9 1.8-4.5 4.3-.4 1.5-.4 3.8 0 5.3.2.8.5 1.6.9 2.2.3.4 1 1.1 1.4 1.4.6.4 1.3.7 2 .8.5.2 1.5.2 2 .1zm-19.5 2c-1.7-.1-3.3-.6-4.5-1.3-1.7-1-2.9-2.8-3.4-4.9-.2-.9-.2-1.3-.2-2.7 0-1.3 0-1.6.2-2.4.3-1.4.8-2.6 1.7-3.6.3-.4 1.1-1.1 1.5-1.4.5-.3 1.5-.8 2-1 1.2-.4 2.2-.6 3.7-.6 1.9 0 3.6.4 5.5 1.2.3.1.6.2.7.3l.2.1v2.7h-.1c-.1 0-.2-.1-.4-.2-.9-.7-1.8-1.2-2.6-1.5-1.9-.7-4.3-.8-5.9-.3-1.5.5-2.8 1.7-3.4 3.2-.5 1.1-.7 2.2-.6 3.8 0 1.4.2 2.4.7 3.4 1.1 2.4 3.5 3.6 6.6 3.4.8-.1 1.4-.1 2.2-.3.5-.1 1.2-.3 1.3-.4.1 0 .1-.2.1-2.2v-2.1h-4.7v-2h6.9v7.5l-.6.3c-.8.3-2.3.8-2.9 1-1.5 0-2.7.1-4 0zm-22.9-1.5v-1.2l1.3-1.1c1.8-1.6 2.7-2.3 3.6-3.3 2.9-2.8 3.7-4.1 3.7-6 0-.7 0-.9-.3-1.4-.3-.6-.9-1.1-1.6-1.3-1.6-.5-3.9-.1-5.9 1-.2.1-.4.2-.4.2v-2.4l.3-.1c.2-.1.5-.2.7-.3 2.7-.9 5.3-.9 7.1 0 .9.5 1.6 1.1 2 2 .3.6.4 1.1.4 2 0 .6 0 .8-.1 1.3-.3 1.9-1.3 3.3-4 5.9-1.2 1.1-1.6 1.5-3.2 2.8l-1.3 1.1h9.4v2h-11.7z" fill="#fff"/></svg>