<svg enable-background="new 0 0 385.5 65.2" viewBox="0 0 385.5 65.2" xmlns="http://www.w3.org/2000/svg"><g transform="translate(33.810515 -55.326296)"><path d="m-31.349468 58.086346h11.3v11.3h-11.3z" fill="#fad744"/><path d="m-31.349468 73.986346h11.3v11.3h-11.3z" fill="#77c8a6"/><path d="m-31.449468 89.886346h11.3v11.3h-11.3z" fill="#136664"/><path d="m-31.449468 105.786346h11.3v11.3h-11.3z" fill="#2e8bc4"/><path d="m-12.5 76v-17.2l6.9.1 5.1 8.9c4.3 7.6 5.1 8.8 5.3 8.6.1-.2 10-17.5 10-17.5h6.9v34.3h-6.6v-23.9l-10 18.2-1.1-.2-4.8-8.8c-2.7-4.9-4.9-8.9-5-9-.1 0-.2 4.5-.2 11.8v11.9h-6.5zm38.6 17c0-.1 3-7.8 6.6-17.2l6.6-17h6.8l6.6 17c3.6 9.4 6.6 17.1 6.6 17.2s-1.6.1-3.5.1h-3.5l-2.8-8h-9.1l.1-.4c.1-.2.4-1.4.8-2.6l.7-2.1h2.8c1.5 0 2.8-.1 2.8-.1s-1.1-3.1-2.4-6.7c-1.3-3.8-2.4-6.7-2.6-6.7-.1 0-2.2 5.7-4.9 13.4l-4.7 13.2h-3.5c-1.9 0-3.4 0-3.4-.1zm37.4-17v-17.2h6.5v34.3h-6.5zm14 4.9c0-6.9.1-12.2.1-12.1.1.1 1.5 2.1 3.3 4.4l3.1 4.2v15.8h-6.5zm11.7-3.6-11.6-15.9-.1-2.6h6.3l8.2 11.2c4.5 6.1 8.2 11.2 8.3 11.2s.1-5 .1-11.2v-11.2h6.5v34.3h-6.1zm38.4 16.6c-2.5-.3-4.3-.8-6.1-1.7-2.2-1.1-4.1-2.8-5.6-5-.6-.9-1.4-2.5-1.8-3.6-1.1-3.2-1.5-7.3-.9-10.8 1-5.8 4.5-10.7 9.3-13.1 3.1-1.5 6.4-1.9 10.1-1.2 2.4.4 4.7 1.5 6.6 3.1.8.6 1.8 1.6 1.8 1.6s-.2.4-.5.9l-.5.8-.6-.5c-1.5-1.4-2.5-2.1-3.9-2.8-2.1-1.1-4.3-1.5-6.9-1.4-1.9.1-3.4.4-5.1 1.2-4.5 2.1-7.7 6.7-8.3 12.3-.1 1.1-.2 3.5 0 4.7.4 3.9 2 7.4 4.4 9.7 2.6 2.5 6 3.7 10 3.6 2.3-.1 3.8-.5 5.8-1.4 1.7-.8 3.1-1.9 4.7-3.5l.9-1 .5.8c.3.4.5.8.5.8 0 .2-1.6 1.9-2.5 2.7-2.3 1.9-4.9 3.1-7.8 3.6-.7.1-3.4.2-4.1.2zm31.5-.5c-2.3-.3-4.5-1.1-6.5-2.3-3.9-2.4-6.6-6.7-7.4-11.8-.3-2-.4-4.7-.1-6.7.6-3.9 2.3-7.6 5-10.2 5.3-5.2 13.5-6 19.7-1.9 4 2.7 6.4 6.8 7.3 12 .2 1.1.2 3.9.1 5.1-.3 2.6-.9 4.9-1.9 6.9-2.4 5-6.8 8.1-12.1 8.8-.9.2-3.2.2-4.1.1zm3.9-2c2.9-.3 5.6-1.7 7.7-3.8 1.1-1.1 1.8-2.1 2.6-3.6 1.3-2.5 1.9-5.1 1.9-8.3 0-2.3-.2-3.8-.9-5.8-1.3-3.8-3.9-6.9-7.3-8.6-6.1-3-13.6-.9-17.4 4.8-1 1.5-1.6 2.8-2.1 4.5-.5 1.6-.6 2.6-.7 4.6-.1 3.4.5 6 1.7 8.7 2.9 5.4 8.2 8.2 14.5 7.5zm19.8-11.6c0-7.7 0-13.5.1-13.5l1.9 2.7v24.3h-2zm14.7 0-14.7-20.3v-.9h2l22.4 31.2v-31.2h2.1v34.7h-1.9zm32.2 13.7c-6.8-.7-11.8-5.4-13.4-12.4-.4-1.7-.5-2.6-.5-4.9s.1-3 .5-4.8c1.9-8.2 8.8-13.8 16.6-13.4 4.4.2 7.6 1.5 10.5 4.4l.7.7-.5.8c-.3.4-.5.8-.6.8 0 0-.3-.1-.6-.4-2.7-2.6-5.5-3.8-9-4.2-5.9-.6-11.1 2.4-13.8 7.9-.8 1.7-1.4 3.7-1.7 5.6-.2 1.2-.2 3.7 0 5 1.1 7.6 5.9 12.6 13.1 13 3.9.2 7.3-.8 10.5-3.3.4-.3 1.1-1 1.7-1.5l1-1 .6.8c.4.6.5.8.5.9-.2.3-1.6 1.8-2.3 2.4-2.5 2.1-5.4 3.4-8.5 3.8-1.3-.1-3.6-.1-4.8-.2zm22.2-13.7c0-7.4 0-13.5 0-13.4 0 0 .5.6 1 1.3l.9 1.3v5.4h17.7v2.1h-17.7v14.8h19.6v2h-21.6v-13.5zm-.1-20.2v-1h21.6v2h-21.6zm29.2 20.1c0-7.7 0-13.5.1-13.5l1.9 2.7.1 9.7h5.2c5.7 0 5.9-.1 7.6-.6 3-.9 4.8-3.2 5.2-6.6.3-2.6-.1-5-1.2-6.8-.4-.7-1.5-1.8-2.2-2.2-1.4-.9-3.2-1.5-5.4-1.7-.5 0-3.3-.1-6.1-.1h-5.2v-2h5.7c6.2 0 6.7 0 8.4.4 4.5 1.1 7.2 4 8 8.3.2 1.2.2 3.5 0 4.8-.6 3.3-2.2 5.6-4.8 6.9-1.4.7-2.9 1.2-4.9 1.4-.5.1-2.8.1-5.6.1h-4.8v12.7h-2zm38.1 0v-13.5l2 2.8v24.3h-2zm-5.5-19.2h-8.1v-2h29.2v2zm29 .5v-1.9h-1.3v-.4h3.2v.4h-1.4v3.8h-.5zm2.4-.2.2-2.1h.6s.8 2 .8 2.1c.2.5.4 1.3.4 1.3.1-.3.2-.8.4-1.2 0-.1.8-2.2.8-2.2h.7s.2 4.2.2 4.3h-.6l-.1-3.7s0 .1-.1.3c-.1.4-.2.8-.3 1s-.8 2.4-.9 2.4h-.4s-1-3-1.1-3.2-.1-.5-.1-.5-.1 1.6-.1 1.7-.2 2-.2 2h-.5zm-47.7 47.7v-8.7h3.1c3.2 0 3.5 0 4.4.2 1.6.3 2.9 1.3 3.5 2.6.4 1 .5 2.5.1 3.8s-1.4 2.3-2.8 3c-.3.1-.5.2-.4.3 0 0 5.6 6.5 6.3 7.3l.2.3h-3l-5.8-6.9h-3.3v6.9h-2.3zm6.2-.2c1-.2 1.6-.5 2.1-1.1s.7-1.3.7-2.4c0-.9-.2-1.5-.6-2s-1-.8-1.8-.9c-.4-.1-.7-.1-2.3-.1h-1.9v6.6h1.7c1.3 0 1.8 0 2.1-.1zm-21.4.2v-8.7h11.5v2h-9.2v4.8h9.2v2h-9.2v6.5h9.2v2h-11.5zm-18.4 0v-8.7h3c3.4 0 4 .1 5.2.4 1.7.4 3 1.1 4.1 2.2 1.1 1 1.8 2.4 2.1 3.9.3 1.3.3 3.1 0 4.4-.3 1.2-.9 2.6-1.7 3.5-.3.4-1 1.1-1.5 1.4-.5.4-1.5.8-2.2 1.1-1.5.5-2.8.6-7 .6h-2.1v-8.8zm5.4 6.8c1.7-.1 2.7-.3 3.7-.8 2.1-1.1 3.1-3 3.1-5.9 0-1.6-.4-3-1.1-4-.3-.4-1-1.1-1.4-1.4-.7-.5-1.7-.9-2.6-1.1s-1.4-.2-3.2-.2h-1.8v13.5h1.2c.8-.1 1.7-.1 2.1-.1zm-18.4 2.2c-.2 0-.5-.1-.8-.1-2.6-.5-4.6-2.2-5.5-4.8-.2-.6-.4-1.4-.5-2.1-.1-.6-.1-.8-.1-2 0-1.4 0-1.8.2-2.8.2-1.1.7-2.3 1.3-3.1 1-1.5 2.4-2.5 4.2-2.9.8-.2 1.4-.3 2.3-.3 1.4 0 2.3.2 3.5.7 2.4 1 4 3.2 4.5 6.4.1.7.2 2.5.1 3.3-.3 3.1-1.6 5.4-3.7 6.7-.9.5-1.9.9-3.1 1-.5.1-1.9.1-2.4 0zm2.4-2c1.9-.4 3.3-1.7 3.9-3.7.3-1 .4-1.8.4-3.3s-.1-2.2-.4-3.3c-.7-2.2-2.2-3.5-4.3-3.8-.5-.1-1.5-.1-2 0-2.4.4-4 2.2-4.4 5-.1.7-.2 1.4-.1 2.4 0 1.3.2 2.1.5 3 .7 2.1 2.2 3.4 4.2 3.7.4.2 1.8.1 2.2 0zm-18.8 2c-2-.2-3.6-.9-4.8-2-.8-.8-1.4-1.6-1.8-2.8-.9-2.2-.9-5.5-.1-7.9.9-2.6 2.8-4.4 5.4-5 .9-.2 1.5-.3 2.5-.3 2 0 3.5.4 5.5 1.3l.4.2v1.4c0 1.2 0 1.4-.1 1.4 0 0-.3-.1-.5-.3-1.4-1.1-2.6-1.6-4.1-1.9-.7-.1-2-.1-2.6 0-.8.2-1.6.5-2.2.9-.4.3-1.1 1-1.3 1.4-.9 1.4-1.3 3.2-1.2 5.4.1 1.1.2 2 .6 2.8.8 1.9 2.2 3 4.2 3.4.5.1 1.9.1 2.5 0 1.6-.3 3-.9 4.2-1.9.2-.2.4-.3.4-.3.1 0 .1.1.1 1.3v1.3l-.8.4c-1.5.7-2.6 1-3.9 1.1-.5.2-1.8.2-2.4.1zm-18.5 0c-1.4-.1-3.1-.5-4.5-1.1l-.5-.2v-2.8s.2.1.4.3c2.2 1.6 5.4 2.4 7.8 1.8 1.3-.3 2.3-1 2.6-2 .1-.4.2-1.1.1-1.6-.1-.4-.3-.8-.6-1.1-.7-.6-1.5-.8-3.6-1.2-2.1-.3-2.7-.5-3.4-.7-1.7-.6-2.8-1.6-3.2-3.1-.1-.4-.1-.5-.1-1.2 0-1 .1-1.3.4-2 .8-1.6 2.7-2.7 5-3 .5-.1 2-.1 2.6 0 1.4.1 2.9.5 4.2 1l.4.2v2.8s-.2-.1-.3-.2c-.4-.3-.6-.4-1.2-.7-.9-.4-1.8-.7-2.8-.9-.5-.1-.7-.1-1.5-.1-1.1 0-1.4 0-2 .2-.7.2-1.2.5-1.6.9-.4.5-.6.9-.6 1.6 0 1.4.7 2.2 2.4 2.6.2.1.8.2 1.3.3 3 .5 3.9.8 4.8 1.2 1.6.8 2.3 2 2.3 3.8 0 .7-.1 1.1-.3 1.7-.5 1.3-1.4 2.1-2.7 2.8-.8.4-1.7.7-2.7.8-.6 0-2.1 0-2.7-.1zm-22.2-9v-8.7h3.6l7.6 14.3v-14.3h2.1v17.4h-2.8l-8.3-15.6v15.6h-2.2zm-18.4 8.7c0-.1 6.3-17.4 6.3-17.4h3.1l6.4 17.4h-1.2c-1.1 0-1.2 0-1.2-.1s-1.7-4.8-1.7-4.8h-3.9c-3.6 0-3.8 0-3.8.1 0 0-.4 1.1-.9 2.5l-.8 2.4h-1.2c-.9 0-1.1 0-1.1-.1zm10.9-6.8c0-.1-3-8.6-3.1-8.5l-3.1 8.5zm-25.6-1.9v-8.7h2.6c3.3 0 4.1 0 5.1.3 1 .2 1.8.7 2.5 1.4.5.5.8 1.1 1 1.8.1.4.1.5.1 1.3s0 .9-.1 1.3c-.2 1.1-.6 1.8-1.4 2.5-.5.4-.9.8-1.6 1.1-.4.2-.5.2-.4.3s6.4 7.4 6.4 7.5c.1.1 0 .1-1.4.1h-1.3l-5.8-6.9h-3.3v6.9h-2.3zm6.2-.2c1-.2 1.6-.6 2.1-1.2.4-.5.6-1 .7-1.8.2-1.6-.4-2.7-1.7-3.2-.7-.2-1-.3-3.1-.3h-1.9v6.6h1.8c1.4 0 1.9 0 2.1-.1zm-17.1 1.3v-7.7h-6.2v-2h14.7v2h-6.2v15.4h-2.3zm-32.5-1.1v-8.7h3.1l4.6 9.8s1-2.2 2.3-4.9l2.2-4.9h3.2v17.4h-2.3v-15l-4.8 10.2h-1.4l-4.8-10.2v15h-2.1zm-18.4 8.7 6.4-17.4h3.1l6.3 17.4h-2.4l-.8-2.4c-.5-1.3-.9-2.4-.9-2.4s-.8-.1-3.8-.1-3.8 0-3.8.1c0 0-.4 1.1-.9 2.4l-.8 2.4h-1.2c-.7.1-1.2 0-1.2 0zm10.8-6.8c0-.1-3-8.6-3.1-8.6 0 0-3.1 8.5-3.1 8.6 0 0 .6.1 3.1.1 1.7-.1 3.1-.1 3.1-.1zm-19.1 7.1c-1.2-.1-2.3-.4-3.2-.8-2.3-1.1-3.7-3.3-4.2-6.4-.1-.4-.1-.8-.1-1.8 0-1.1 0-1.3.1-1.8.3-2 1-3.6 2.2-4.8.9-.9 1.8-1.5 3.1-1.9 1-.3 1.9-.5 3.2-.5 1.9 0 3.5.4 5.4 1.3l.5.2v1.4c0 1.1 0 1.4-.1 1.4 0 0-.2-.1-.4-.3-1.1-.9-2.4-1.5-3.5-1.8-.7-.2-1.2-.2-2.1-.2-1.2 0-1.9.2-2.7.6-1.1.5-1.9 1.4-2.5 2.6-.4.8-.6 1.4-.7 2.5-.1.6-.1 2.4 0 3 .3 1.6.8 2.9 1.8 3.9s2.2 1.5 3.9 1.6c2.1.1 4-.6 5.7-1.9.2-.2.4-.3.5-.3s.1.2.1 1.3v1.3s-.7.3-1.1.5c-1.2.5-2.5.9-3.8 1-.3-.1-1.7 0-2.1-.1zm-25-9v-8.7h3c3.4 0 4.1.1 5.3.4 2.4.5 4.2 1.8 5.3 3.8.8 1.3 1.1 2.8 1.1 4.6 0 2.1-.6 3.8-1.7 5.4-.7 1-1.6 1.7-2.7 2.3-1.1.5-2.2.8-3.9 1-.3 0-1.8.1-3.4.1h-2.9v-8.9zm5.5 6.8c1.6-.1 2.5-.3 3.5-.8 1.8-.8 2.8-2.3 3.2-4.3.2-.9.2-2.2 0-3.1-.3-2.4-1.6-3.9-3.8-4.8-1.1-.4-2.3-.6-4.7-.6h-1.4v13.5h1.3c.6.1 1.5.1 1.9.1zm-23.4 1.8c.3-.5 6-8.6 6-8.6s-1.3-2-2.9-4.3c-1.6-2.4-2.9-4.3-2.9-4.3s.2-.1 1.3-.1h1.3l2.3 3.5c1.3 1.9 2.3 3.5 2.4 3.6 0 0 .6-.8 2.5-3.5l2.4-3.6h2.5l-6 8.6 6 8.8h-2.7s-1.1-1.6-2.4-3.6-2.4-3.6-2.4-3.6l-4.9 7.2zm-20.1.4c-1.8-.2-3.3-1-4.4-2.2-.5-.6-.9-1.1-1.3-1.8-.6-1.2-.9-2.5-1-4.2s.1-3.4.6-4.8c.6-1.7 1.6-3.1 3-3.9.9-.6 2-1 3.3-1.1.5-.1 1.8-.1 2.4 0 1.2.2 2.4.6 3.3 1.2 2 1.3 3.1 3.6 3.5 6.7.1.7 0 2.1-.1 2.8-.4 2.9-1.7 5.1-3.7 6.3-.9.5-1.9.8-3 1-.6.1-2 .1-2.6 0zm2.3-1.9c2.3-.4 4-2 4.5-4.6.3-1.3.3-3.1.1-4.4-.5-2.9-2.1-4.7-4.5-5.1-.5-.1-1.4-.1-1.9 0-2.3.3-3.9 1.8-4.5 4.3-.4 1.5-.4 3.8 0 5.3.2.8.5 1.6.9 2.2.3.4 1 1.1 1.4 1.4.6.4 1.3.7 2 .8.5.1 1.5.1 2 .1zm-19.5 1.9c-1.7-.1-3.3-.6-4.5-1.3-1.7-1-2.9-2.8-3.4-4.9-.2-.9-.2-1.3-.2-2.7 0-1.3 0-1.6.2-2.4.3-1.4.8-2.6 1.7-3.6.3-.4 1.1-1.1 1.5-1.4.5-.3 1.5-.8 2-1 1.2-.4 2.2-.6 3.7-.6 1.9 0 3.6.4 5.5 1.2.3.1.6.2.7.3l.2.1v2.7h-.1c-.1 0-.2-.1-.4-.2-.9-.7-1.8-1.2-2.6-1.5-1.9-.7-4.3-.8-5.9-.3-1.5.5-2.8 1.7-3.4 3.2-.5 1.1-.7 2.2-.6 3.8 0 1.4.2 2.4.7 3.4 1.1 2.4 3.5 3.6 6.6 3.4.8-.1 1.4-.1 2.2-.3.5-.1 1.2-.3 1.3-.4.1 0 .1-.2.1-2.2v-2.1h-4.7v-2h6.9v7.5l-.6.3c-.8.3-2.3.8-2.9 1-1.5 0-2.7.1-4 0zm-22.9-1.5v-1.2l1.3-1.1c1.8-1.6 2.7-2.3 3.6-3.3 2.9-2.8 3.7-4.1 3.7-6 0-.7 0-.9-.3-1.4-.3-.6-.9-1.1-1.6-1.3-1.6-.5-3.9-.1-5.9 1-.2.1-.4.2-.4.2v-2.4l.3-.1c.2-.1.5-.2.7-.3 2.7-.9 5.3-.9 7.1 0 .9.5 1.6 1.1 2 2 .3.6.4 1.1.4 2 0 .6 0 .8-.1 1.3-.3 1.9-1.3 3.3-4 5.9-1.2 1.1-1.6 1.5-3.2 2.8l-1.3 1.1h9.4v2h-11.8v-1.2z" fill="#fff"/></g></svg>