<svg enable-background="new 0 0 385.5 76.5" viewBox="0 0 385.5 76.5" xmlns="http://www.w3.org/2000/svg"><path d="m2.850532 3.286346h14v14.2h-14z" fill="#fad744"/><path d="m2.850532 21.886346h14v14.2h-14z" fill="#77c8a6"/><path d="m2.850532 40.386346h14v14.2h-14z" fill="#136664"/><path d="m2.850532 58.986346h14v14.2h-14z" fill="#2e8bc4"/><path d="m21.3 20.7v-17.2l6.9.1 5.1 8.9c4.3 7.6 5.1 8.8 5.3 8.6.1-.2 10-17.5 10-17.5h6.9v34.3h-6.6v-23.9l-10 18.2-1.1-.2-4.8-8.8c-2.7-4.9-4.9-8.9-5-9s-.2 4.5-.2 11.7v11.9h-6.5zm38.6 17c0-.1 3-7.8 6.6-17.2l6.6-17h6.8l6.6 17c3.6 9.4 6.6 17.1 6.6 17.2s-1.6.1-3.5.1h-3.5l-2.8-8h-9.1l.1-.4c.1-.2.4-1.4.8-2.6l.7-2.1h2.8c1.5 0 2.8-.1 2.8-.1s-1.1-3.1-2.4-6.7c-1.3-3.8-2.4-6.7-2.6-6.7-.1 0-2.2 5.7-4.9 13.4l-4.7 13.4h-3.5c-1.9-.2-3.4-.2-3.4-.3zm37.4-17v-17.2h6.5v34.3h-6.5zm14 4.8c0-6.9.1-12.2.1-12.1.1.1 1.5 2.1 3.3 4.4l3.1 4.2v15.8h-6.5zm11.7-3.5-11.6-15.9-.1-2.6h6.3l8.2 11.2c4.5 6.1 8.2 11.2 8.3 11.2s.1-5 .1-11.2v-11.2h6.5v34.3h-6.1zm38.2 16.5c-8.1-.6-13.7-6.7-14.5-15.7-.6-6.6 2.2-13.2 7.1-16.9 1.3-1 3.6-2.1 5.3-2.5 1.7-.5 5.7-.5 7.6-.1 2.6.6 5.1 1.9 7.2 3.8l.9.8-1.1 1.7-1.3-1.1c-3.1-2.7-6.5-3.8-10.5-3.6-3.4.2-6.6 1.7-8.9 4.2-1.2 1.3-1.8 2.2-2.7 4-2.2 4.6-2.3 10.9-.2 15.5 2.3 5.1 6.9 7.9 12.7 7.9 3.9 0 7.3-1.5 10.4-4.4l1.5-1.4 1.1 1.5-.8.9c-2.5 2.9-6.7 5.1-10.3 5.4-.6 0-1.3.1-1.6.1s-1-.1-1.9-.1zm30.8-.6c-6.2-1.2-10.9-5.7-12.6-12.3-.8-3.3-.8-7.3 0-10.5.5-1.9 1.9-4.8 3-6.2 2.1-2.7 5.3-5 8.4-5.8 7.9-2.1 15.7 2 18.9 9.8 2.4 5.8 1.7 13.1-1.6 18.1-2.3 3.5-5.2 5.7-9.4 6.8-1.2.3-5.2.4-6.7.1zm5.6-1.9c3.2-.6 5.6-2 7.8-4.6 1.1-1.3 2.5-4.1 3.1-6.2.4-1.5.4-1.9.4-4.7 0-2.7 0-3.3-.3-4.5-1.2-4.8-4-8.3-8.1-10.2-1.9-.9-3.2-1.1-5.6-1.1s-3.9.3-5.7 1.2c-3.5 1.7-6.2 4.8-7.5 8.6-1.2 3.6-1.2 8.4 0 12.1.5 1.6 1.6 3.6 2.5 4.7 2 2.5 5.4 4.4 8.4 4.9 1.2 0 3.9 0 5-.2zm32.2-13.6-13.3-18.3v-.8h2.1l22.4 31.1h.1v-31.1h2.1v34.7h-1.9zm35.1 15.9c-2.2-.1-4.3-.6-6.1-1.4-4.6-2-7.8-6.2-8.9-11.7-.6-3-.6-6.2.1-9.1.8-3.7 2.8-7 5.3-9.4 2.6-2.4 5.6-3.7 9-4.1.8-.1 2.9-.1 3.8 0 2.5.3 4.5 1 6.4 2.1 1 .6 1.9 1.4 3.1 2.4l.4.4-.6.9c-.3.5-.6.9-.6.9s-.3-.2-.6-.5c-2.7-2.6-5.3-3.7-8.7-4.1-.8-.1-2.6-.1-3.4 0-2.2.3-4 .9-5.7 2.1-4.9 3.4-7.5 9.5-6.7 16.3.4 3.1 1.4 5.8 3.1 8 .9 1.1 2 2.2 3.3 3l2.4 1.2c1.3.5 2.7.8 4.2.9.8.1 2.3 0 3-.1 2.9-.4 5.5-1.5 7.9-3.5.5-.4 1.7-1.6 2.1-2l.3-.3 1.2 1.6s-.2.2-.4.5c-1.5 1.9-3.7 3.6-5.9 4.5-2.5 1.1-5.2 1.5-8 1.4zm20.8-13.9v-13.5s.5.6 1 1.3l1 1.3v5.5h17.8v2.1h-17.8v14.8h19.6v2h-21.6zm-.1-20.2v-1h21.7v2.2h-21.7zm29.2 20.2v-13.5l2 2.8v9.7h5c5.4 0 5.2 0 6.5-.3 2.6-.5 4.5-1.8 5.5-3.8.7-1.4 1.1-3.3 1.1-5.2-.1-4.7-2.8-7.6-7.5-8.4-1.1-.2-1.4-.2-7.1-.2h-5.4v-2.2h5.6c5 0 5.7 0 6.2.1 3.4.4 5.7 1.4 7.5 3.2 1.6 1.6 2.4 3.5 2.8 6 .1.7.1 3 0 3.7-.4 3.2-1.6 5.4-3.8 7-1.5 1-3.4 1.7-5.8 2-.5.1-1.2.1-5.5.1h-5v12.6h-2v-13.6zm42.5-19.2h-17.9v-2h29.2v2.2zm-4.4 19.2v-13.5s.5.6 1 1.4l1 1.4v24.3h-2zm25.9-19 .2-2.1h.6s.8 2 .8 2.1c.2.5.4 1.3.4 1.3.1-.3.2-.8.4-1.2 0-.1.8-2.2.8-2.2h.7s.2 4.2.2 4.3h-.6l-.1-3.7s0 .1-.1.3c-.1.4-.2.8-.3 1s-.8 2.4-.9 2.4h-.4s-1-3-1.1-3.2-.1-.5-.1-.5-.1 1.6-.1 1.7-.2 2-.2 2h-.5zm-2.4.3v-1.9h-1.3v-.5h3.2v.4h-1.4v3.8h-.5zm-52.5 67.9c-1.4-.1-2.5-.3-3.6-.7-2.3-.8-4.1-2.2-5-4.2-.5-1.1-.8-2.1-.9-3.2 0-.5 0-.5.1-.5s2.9-.3 3-.3c0 0 .1.2.1.4.4 2.3 1.4 3.7 3.4 4.6 2.9 1.4 7.1 1.1 9.1-.5 1.2-1 1.7-2.5 1.4-3.9-.1-.6-.4-1-.8-1.4-.9-1-1.9-1.4-6.1-2.4-4.6-1.2-6-1.8-7.4-3-.6-.6-.9-1-1.2-1.7-1.2-2.7-.4-6.1 2.1-7.9 2.6-2 7.5-2.4 11.1-1 1.6.6 2.8 1.5 3.6 2.8.8 1.1 1.1 2.2 1.3 3.7v.3h-.2c-.2 0-2.3.2-2.7.2h-.3l-.1-.5c-.5-2.5-2-3.9-4.7-4.3-.7-.1-2.6-.1-3.3 0-1.8.3-2.9.9-3.6 2-.4.6-.5 1-.5 1.8 0 .6 0 .7.1 1 .2.5.5.9.8 1.2.6.5 2.1 1.1 4.3 1.6 3.6.9 4.4 1.1 5.3 1.4 3.8 1.2 5.7 3.5 5.7 6.8 0 1.8-.8 3.7-2.1 5-2.1 2-5.2 3-8.9 2.7zm-34.4-13.2v-12.9h3.5l13.5 20.2v-20.2h3.2v25.7h-3.5l-6.7-10c-3.7-5.5-6.7-10.1-6.8-10.1-.1-.1-.1 2.1-.1 10v10.1h-3.2v-12.8zm-9.4 0v-12.9h3.4v25.7h-3.4zm-17.6 13.2c-2.8-.2-5.6-1.2-7.5-2.8-3.4-2.8-5.1-7.7-4.2-13 .4-2.3 1.4-4.8 2.7-6.5 1.4-1.8 3.5-3.1 6-3.8 2.1-.6 4.6-.6 6.7-.3 1.5.3 3.3 1 4.4 1.8.6.4 1.5 1.3 1.9 1.9.5.7 1 1.8 1.3 2.7.2.5.3.9.3.9l-3 .8s-.1-.2-.2-.5c-.7-2.2-1.7-3.4-3.4-4.2-1.2-.5-2.1-.8-3.5-.8-1.9-.1-3.4.2-4.9.9-1.4.6-2.3 1.5-3.1 2.7-1.6 2.4-2.2 6-1.6 9.6.4 2.1 1.1 3.7 2.4 5 .6.6 1.3 1.1 2.2 1.5 1.4.7 2.6 1 4.3 1 1.3 0 2 0 3.1-.3 1.5-.4 3.5-1.3 4.5-2.1l.2-.2v-4.8h-7.6v-3h10.9v9.5l-.4.3c-.2.2-.6.5-1 .7-2.7 1.8-5.3 2.8-8.3 3-.8.1-1.2.1-2.2 0zm-27.7 0c-2.4-.1-4.1-.6-5.6-1.6-1.9-1.2-2.9-3-3.4-5.8-.2-1.4-.2-1.4-.3-10.1v-8.6h3.3s0 16.4.1 16.9c.1 1 .3 2.2.5 2.8.7 1.8 2.3 3 4.6 3.3.6.1 2.2.1 3 0 1.2-.2 2.1-.5 2.9-1 1.3-.8 1.9-2.2 2.3-4.8.1-.6.1-1.9.1-8.9v-8.2h3.4s0 15.6-.1 16.2c-.2 3.6-.9 5.7-2.5 7.3-1 1-2.2 1.7-3.7 2.1-1.1.3-3 .5-4.6.4zm-29.4-13.2v-12.9h3.4v22.7h12.7v3h-16.1zm-24 0v-12.9h6.1c6.3 0 6.4 0 7.7.3 2.4.4 4 1.6 4.9 3.5.6 1.3.8 2.1.8 3.6 0 1.2-.1 1.7-.4 2.7-.6 1.8-1.8 3.3-3.2 4-1 .5-2.2.8-3.9 1-.3 0-2.2.1-4.6.1h-4.1v10.5h-3.4zm12-.8c.8-.1 1.5-.3 2-.6 1-.5 1.7-1.4 2-2.6.2-.7.2-1.8.1-2.5-.3-1.3-1.1-2.4-2.1-2.9s-1.3-.5-6.4-.5h-4.1v9.2h4.1c2.8 0 4.1 0 4.4-.1zm-38.9 14c-2.7-.2-5.3-1.1-7.3-2.6-.7-.5-1.7-1.5-2.1-2.2-1.3-1.8-2-3.7-2.4-6.2-.1-.7-.1-3.7 0-4.4.5-3.3 1.7-6 3.6-7.9 1.2-1.2 2.5-2 4.4-2.6 1.6-.5 2.8-.7 4.7-.7s3.2.2 4.7.7c2.9 1 4.6 2.8 5.6 5.9.1.4.3.8.3.9s-.1.1-.3.2c-.9.3-2.7.7-2.7.7l-.2-.6c-.3-.7-.7-1.6-1-2.1-.9-1.3-2.5-2.2-4.5-2.6-.8-.2-2.9-.1-3.9 0-3.2.6-5.5 2.5-6.6 5.7-.5 1.4-.7 2.8-.7 4.6 0 1.3.1 2 .3 3.1.5 2.7 1.9 4.7 4 5.9 1 .6 2.4 1 3.7 1.2 1.1.2 2.7.1 3.8-.1 1.7-.3 3.7-1.2 5-2.2l.3-.2v-4.9h-7.6v-3h10.9v9.5l-.7.5c-3.7 2.6-7.3 3.7-11.3 3.4zm-35-13.2v-12.9h18.6v3h-15.2v7.9h14.3v3h-14.3v8.8h15.8v3h-19.2zm-24.1 0v-12.8h6.1c5.5 0 6.2 0 6.9.1 2.6.4 4.2 1.2 5.3 2.9.9 1.3 1.3 2.7 1.3 4.4 0 1.4-.3 2.6-.8 3.7-1.3 2.7-3.4 3.8-7.5 4.1-.5 0-2.5.1-4.4.1h-3.5v10.5h-3.3zm12.3-.8c1.8-.3 2.9-1.1 3.5-2.3.4-.9.6-2.4.3-3.5-.3-1.2-1.1-2.3-2.1-2.8-.9-.5-1.4-.5-6.4-.5h-4.1v9.2h4.1c3.8 0 4.1 0 4.7-.1zm-42.3.8v-12.9h5.1l7.3 22.1 7.6-22.1h4.6v25.7h-3.2v-10.8c0-6.1 0-10.8 0-10.7l-7.5 21.5h-3.1l-7.4-21.8v21.9h-3.2v-12.9zm-21.8 0v-12.9h17.4v3h-14v8h12.1v2.9h-12.1v11.7h-3.3v-12.7zm-22 0v-12.9h17.4v3h-14v8h12.1v2.9h-12.1v11.7h-3.4zm194.9-36v-13.6l2 2.8v24.4h-2z" fill="#fff"/></svg>