<svg enable-background="new 0 0 385.5 76.5" viewBox="0 0 385.5 76.5" xmlns="http://www.w3.org/2000/svg"><g stroke-width=".2651667"><path d="m2.83293116153 3.31499913034h14.00080176v14.18641845h-14.00080176z" fill="#fad744"/><path d="m2.83293116153 21.87666813033h14.00080176v14.18641845h-14.00080176z" fill="#77c8a6"/><path d="m2.83293116153 40.41182046034h14.00080176v14.18641845h-14.00080176z" fill="#136664"/><path d="m2.83293116153 58.97348946034h14.00080176v14.18641845h-14.00080176z" fill="#2e8bc4"/></g><path d="m21.4 20.7v-17.3h6.8l5.1 8.9c3 5.3 5.1 8.9 5.2 8.9s2.4-4 5.1-8.9l5-8.9h7v34.5h-6.6v-11.9c0-8.6 0-12-.1-11.9 0 0-2.3 4.1-5 9.1l-4.9 9h-1.2l-9.9-18.1v23.9h-6.6v-17.3zm38.4 17.2s3-7.8 6.6-17.3l6.6-17.2h3.4c2.7 0 3.4 0 3.4.1l6.6 17.1c3.6 9.4 6.6 17.1 6.6 17.2s-.2.1-3.5.1h-3.6l-2.8-8.1h-9.1l1.7-5.4 2.8.1h2.8s-1.1-3.1-2.4-6.8c-2-5.6-2.4-6.7-2.5-6.7s-.9 2.1-4.8 13.4l-4.7 13.4h-3.5c-2.1.1-3.6.1-3.6.1zm37.4-17.2v-17.3h6.5v34.6h-6.5zm14.1 4.8c0-6.8 0-12.4 0-12.4s6.5 8.7 6.5 8.7v16.1h-6.5zm11.7-3.5-11.7-15.9v-2.7h6.3l8.2 11.2c4.5 6.2 8.3 11.3 8.3 11.3s.1-4.8.1-11.2v-11.2h6.6v34.5h-6.2zm38.4 16.5c-2.5-.3-4.3-.8-6.1-1.7-2.2-1.1-4.1-2.8-5.6-5-.6-.9-1.4-2.5-1.8-3.6-1.1-3.2-1.5-7.3-.9-10.8 1-5.8 4.5-10.7 9.3-13.1 3.1-1.5 6.4-1.9 10.1-1.2 2.4.4 4.7 1.5 6.6 3.1.8.6 1.8 1.6 1.8 1.6s-.2.4-.5.9l-.5.8-.6-.5c-1.5-1.4-2.5-2.1-3.9-2.8-2.1-1.1-4.3-1.5-6.9-1.4-1.9.1-3.4.4-5.1 1.2-4.5 2.1-7.6 6.7-8.3 12.3-.1 1.1-.2 3.5 0 4.7.4 3.9 2 7.4 4.4 9.7 2.6 2.5 6 3.7 10 3.6 2.3-.1 3.8-.5 5.8-1.4 1.7-.8 3.1-1.9 4.7-3.5l.9-1 .5.8c.3.4.5.8.5.8 0 .2-1.6 1.9-2.5 2.7-2.3 1.9-4.9 3.1-7.8 3.6-.7.2-3.4.3-4.1.2zm31.5-.4c-2.3-.3-4.5-1.1-6.5-2.3-3.9-2.4-6.6-6.7-7.4-11.8-.3-2-.4-4.8-.1-6.7.6-4 2.4-7.5 5-10.2 5.3-5.2 13.5-6 19.7-1.9 4 2.7 6.5 6.8 7.3 12 .2 1.1.2 3.9.1 5.1-.3 2.6-.9 4.9-1.9 6.9-2.4 5-6.8 8.1-12.1 8.8-.8.2-3.2.2-4.1.1zm3.9-2c2.9-.3 5.6-1.7 7.7-3.8 1.1-1.1 1.8-2.1 2.6-3.6 1.3-2.5 1.9-5.1 1.9-8.3 0-2.3-.2-3.8-.9-5.8-1.3-3.8-3.9-6.9-7.3-8.6-6.1-3-13.6-.9-17.4 4.8-1 1.5-1.6 2.8-2.1 4.5-.5 1.6-.6 2.6-.7 4.6-.1 3.4.5 6 1.7 8.7 2.9 5.4 8.2 8.2 14.5 7.5zm19.8-11.6c0-7.7 0-13.5.1-13.5 0 0 .5.7 1 1.4l.9 1.3v24.3h-2zm14.7 0-14.7-20.3v-.9h2l11.2 15.6c6.2 8.6 11.3 15.6 11.3 15.6s0-.4 0-.8-.1-30.4-.1-30.4h2.1v34.7h-1.9zm32.2 13.6c-6.8-.8-11.8-5.4-13.4-12.4-.4-1.7-.5-2.6-.5-4.9s.1-3 .5-4.8c1.9-8.2 8.8-13.8 16.6-13.4 4.4.2 7.6 1.5 10.5 4.4l.7.7-.5.8c-.3.4-.5.8-.6.8 0 0-.3-.1-.6-.4-1.8-1.6-3.7-2.8-5.6-3.5-2.8-.9-6-1-8.6-.2-5.5 1.6-9.4 6.6-10.3 13-.2 1.2-.2 3.7 0 5 1 7.6 5.9 12.5 13.1 13 3.9.2 7.3-.8 10.5-3.3.4-.3 1.1-1 1.7-1.5.6-.6 1-1 1-1s.3.4.6.8c.4.6.5.8.5.9-.2.3-1.6 1.8-2.3 2.4-2.5 2.1-5.4 3.4-8.5 3.8-1.3 0-3.5 0-4.8-.2zm115.2-30.6s.3-4.2.3-4.2h.7s.8 2.1.8 2.3c.1.4.4 1.2.4 1.2s0 0 0-.1c.1-.3.2-.7.3-1.1.1-.1.8-2.2.8-2.2h.3.3s.2 4.2.2 4.2h-.5s-.1-3.5-.1-3.6c0-.2 0-.2 0-.2 0 .1-.2.8-.3 1 0 .1-1 2.7-1 2.7h-.4s-1-2.9-1.1-3.4l-.1-.3s-.1 1.3-.1 1.6-.1 1.8-.2 2v.1zm-2.3-1.8v-2h-1.3v-.4h3.1v.4h-1.4v3.8h-.5v-1.8zm-18.4-.4-18.6-.1v-2h29.2v2.2zm-5.1 19.1v-13.6l2.1 2.8v24.3h-2.1zm-38.1 0c0-7.5 0-13.6 0-13.6s.5.6 1 1.4l1 1.4.1 9.7h4.3c4.4 0 5 0 5.9-.1 2.8-.3 4.9-1.4 6.2-3.1.9-1.2 1.5-2.8 1.6-4.7 0-.6 0-2.1 0-2.5-.3-2.1-1-3.7-2.3-4.9-1.4-1.4-3.4-2.2-6.1-2.5-.9-.1-1.8-.1-6.7-.1h-5v-2.2h11c3.6.2 6.4 1.3 8.4 3.3 1.4 1.4 2.4 3.3 2.7 5.5.1.7.2 1.2.2 2 .1 2.6-.5 5-1.6 6.8-1.5 2.4-4 3.9-7.5 4.4-1.2.2-1.1.2-6.3.2h-4.8v12.6h-2.1zm-29.2-20.2v-1h21.7v2.2h-21.7zm.1 20.2c0-11.5 0-13.5 0-13.5s.5.6 1 1.3l1 1.3v5.5h17.7v2.1h-17.7v14.8h19.6v2.1h-21.6zm-22.1 36v-12.9h6.8c4.6 0 7 .1 7.5.1 1.1.2 2 .4 2.8.8 3 1.5 4.4 6 2.7 9.2-1 2-2.8 3.1-5.7 3.7l-.9.2.4.2c1.2.6 2.5 1.8 3.7 3.3.5.7 5.3 8 5.3 8.1 0 0-.9 0-2.1 0h-2.1l-1.6-2.6c-4.3-6.8-5.3-8-7.1-8.7-.5-.2-.6-.2-3.4-.2h-2.9v11.4h-3.3v-12.6zm13-1.7c2-.3 3.1-1 3.7-2.5.3-.7.5-1.6.3-2.4-.2-1.6-1.4-2.9-3.1-3.3-1-.2-1.8-.3-6.2-.3h-4.3v8.6h4.4c3.4.1 4.5 0 5.2-.1zm-37 1.7v-12.9h18.5v2.9h-15.1v8h14.2v2.9h-14.2v8.8h15.8v3h-19.1v-12.7zm-26 0v-12.9h5c6.3 0 7.6.1 9.3.6 3.7 1.2 6.1 4.6 6.8 9.5.2 1.3.2 4.1 0 5.4-.5 3.2-1.6 5.7-3.3 7.4-1.4 1.4-2.8 2.1-5 2.5-1.4.3-2.8.3-7.9.3h-4.8v-12.8zm11.1 9.7c3.4-.4 5.2-2.1 6.2-5.7.3-1.3.5-2.5.5-4.3 0-2.5-.3-4.2-1-5.6-.7-1.5-1.9-2.8-3.1-3.4-1.3-.7-2-.7-6.7-.8h-3.7v19.8h3.5c2 .1 3.9.1 4.3 0zm-29.8 3.4c-2.7-.4-5.1-1.6-6.9-3.5-3-3.2-4.2-8.3-3-13.4.6-2.5 1.6-4.4 3.3-6.1s3.4-2.6 5.8-3.2c1.1-.2 4.3-.3 5.3 0 2.7.6 4.9 1.8 6.6 3.7 4 4.6 4.2 13.1.5 18.1-2.6 3.3-7 5-11.6 4.4zm4.2-3c1.5-.4 2.7-1.1 3.7-2.1.7-.7 1.2-1.4 1.7-2.3 1.3-2.7 1.5-7 .5-10.1-1.1-3.2-3.4-5.3-6.5-5.9-1-.2-3.1-.1-4 .1-2.6.7-4.7 2.5-5.6 4.8-.6 1.6-.9 3.4-.9 5.7 0 2.8.5 4.6 1.6 6.3 1.3 2 3.2 3.2 5.6 3.7.9.1 2.9.1 3.9-.2zm-30.4 3.1c-4-.5-6.7-2.3-8.4-5.8-1.1-2.2-1.6-4.3-1.7-7.1 0-1.7 0-2.8.3-4.1 1-4.9 4.3-8.3 9.1-9.2 1-.2 3.2-.3 4.2-.2 3.6.4 6.3 2.4 7.8 5.4.3.7.8 1.8.7 1.9s-3.2.8-3.2.7c0 0-.1-.3-.2-.5-.8-2.3-2.3-3.8-4.2-4.4-.8-.3-1.4-.3-2.6-.3-2.6 0-4.5.7-6 2.3-1.7 1.8-2.6 4.8-2.5 8.5.1 2.3.4 4.1 1.2 5.6.8 1.7 1.9 2.8 3.6 3.6 1.3.6 2 .7 3.7.7 1.2 0 1.5 0 2.1-.2 1.4-.4 2.7-1.2 3.6-2.3.6-.7 1.3-2.1 1.6-3.2.1-.4.3-.8.3-.8s.8.2 1.6.4c1.2.3 1.6.4 1.6.5 0 .2-.6 1.9-.9 2.6-1 2.1-2.6 3.8-4.6 4.7-1.5.8-2.8 1-4.9 1.1-.9.1-1.8.1-2.2.1zm-35.2-13.2v-12.9h3.5l6.7 10c3.7 5.5 6.8 10.1 6.8 10.1.1.1.1-2.1.1-10v-10.1h3.2v25.7h-3.5l-6.7-10c-3.7-5.5-6.7-10.1-6.8-10.1-.1-.1-.1 2-.1 10v10.1h-3.2zm-23.9 0v-12.9h18.6v2.9h-15.3v8h14.3v2.9h-14.3v8.8h15.8v3h-19.2v-12.7zm-34 0v-12.9h18.5v2.9h-15.2v8h14.2v2.9h-14.2v8.8h15.8v3h-19.1zm-18.6 7.9-8.1-20.8h3.6l8.1 23 .7-2.2c.4-1.2 7.7-20.8 7.7-20.8h1.7 1.7s-2.3 5.8-5 12.8l-5 12.8h-3.4zm-14.9-7.9v-12.9h3.3v25.7h-3.3zm-20.7 0v-12.9h3.3v22.7h12.7v3h-16z" fill="#fff"/></svg>