<?xml version="1.0" encoding="utf-8"?>
<svg version="1.1" id="Layer_1" xmlns="http://www.w3.org/2000/svg" xmlns:xlink="http://www.w3.org/1999/xlink" x="0px" y="0px"
	 viewBox="0 0 1024 1024" style="enable-background:new 0 0 1024 1024;" xml:space="preserve">
<style type="text/css">
	.st0{fill:#FFFFFF;}
	.st1{fill:#D6D6D6;}
	.st2{fill-rule:evenodd;clip-rule:evenodd;fill:#FFFFFF;}
</style>
<g>
	<g>
		<polygon class="st0" points="236.6,399.3 449.8,399.3 556.4,214.7 449.8,30 236.6,30 130,214.7 		"/>
		<path class="st0" d="M398.8,188.5c-13.5-59.7-45.5-79.4-49-86.9c-3.8-5.3-7.6-14.8-7.6-14.8c-0.1-0.1-0.2-0.4-0.3-0.7
			c-0.4,5.3-0.6,7.3-5.6,12.7c-7.8,6.1-47.6,39.5-50.8,107.4c-3,63.3,45.7,101,52.4,105.8l0.7,0.5l0,0c0.1,0.3,2.1,15.1,3.5,30.7
			h5.2c1.2-11,3.1-22,5.5-32.8l0.4-0.3c2.9-2.1,5.8-4.4,8.4-6.9l0.3-0.3c25.2-23.4,39.4-56.3,39-90.7
			C400.9,204.3,400.2,196.3,398.8,188.5z M341.7,276.2c0,0,0-88.8,3-88.8c2.3,0,5.2,114.5,5.2,114.5
			C345.8,301.5,341.7,283.2,341.7,276.2z"/>
	</g>
	<g>
		<polygon class="st0" points="575.7,598.8 789,598.8 895.6,414.1 789,229.5 575.7,229.5 469.1,414.1 		"/>
		<polygon class="st0" points="749.4,430 790.8,375.6 779.9,375.6 743.8,423.6 707.9,375.6 696.1,375.6 738,430 699.3,481.7 
			600,481.7 600,411.7 691.4,411.7 691.4,403.3 600,403.3 600,339.5 697.2,339.5 697.2,331.1 590.2,331.1 590.2,490.2 703.7,490.2 
			743.8,436.5 783,490.2 794.6,490.2 		"/>
	</g>
	<g>
		<polygon class="st0" points="575.7,994 789,994 895.6,809.3 789,624.7 575.7,624.7 469.1,809.3 		"/>
		<g>
			<polygon class="st0" points="682.3,687.8 570.1,728.3 587.6,876.9 682.3,928.4 			"/>
			<polygon class="st1" points="682.3,687.8 794.6,728.3 777.1,876.9 682.3,928.4 			"/>
		</g>
	</g>
	<g>
		<polygon class="st0" points="235,792.7 448.3,792.7 554.9,608 448.3,423.3 235,423.3 128.4,608 		"/>
		<path class="st2" d="M437.4,559.7c0-3.7-2-7.1-5.2-9l-85.5-49.2c-1.4-0.8-3.1-1.3-4.7-1.4h-0.9c-1.6,0.1-3.3,0.5-4.7,1.4
			l-85.5,49.2c-3.2,1.9-5.2,5.3-5.2,9l0.2,132.4c0,1.8,0.9,3.6,2.6,4.5c1.6,1,3.6,1,5.1,0l50.8-29.1c3.2-1.9,5.2-5.3,5.2-9v-61.9
			c0-3.7,2-7.1,5.2-8.9l21.6-12.5c1.6-0.9,3.4-1.4,5.2-1.4c1.8,0,3.6,0.5,5.1,1.4l21.6,12.5c3.2,1.8,5.2,5.2,5.2,8.9v61.9
			c0,3.7,2,7.1,5.2,9l50.8,29.1c1.6,0.9,3.6,0.9,5.2,0s2.6-2.6,2.6-4.5L437.4,559.7z"/>
	</g>
</g>
</svg>