<?xml version="1.0" encoding="UTF-8"?><svg id="Layer_1" xmlns="http://www.w3.org/2000/svg" viewBox="0 0 243.7 243.7"><defs><style>.cls-1{fill:#fff;}</style></defs><path class="cls-1" d="M235.14,188.8c-.16-.21-.33-.4-.51-.6-.17-.21-.34-.42-.52-.62-.17-.21-.33-.42-.51-.62-.13-.16-.26-.32-.39-.48-.16-.21-.33-.41-.51-.61-.17-.22-.35-.43-.53-.64-.15-.19-.3-.38-.46-.56-.16-.21-.31-.41-.48-.61-.16-.21-.32-.41-.49-.61-.15-.21-.32-.41-.49-.6-.14-.2-.3-.38-.45-.57-.14-.2-.29-.39-.44-.57-.16-.22-.32-.43-.49-.64-.16-.22-.33-.43-.5-.64-.14-.2-.29-.39-.45-.58-.13-.18-.25-.36-.39-.53-.16-.24-.34-.48-.52-.7-.15-.22-.3-.42-.47-.63-.11-.17-.23-.33-.36-.49-.16-.24-.32-.48-.5-.7-.14-.22-.3-.44-.46-.65-.11-.17-.22-.34-.35-.5-.15-.25-.32-.49-.49-.72-.13-.21-.26-.4-.4-.59-.12-.21-.25-.41-.39-.6-.02-.03-.03-.07-.05-.1-.13-.21-.26-.42-.41-.62-.05-.1-.1-.19-.16-.29-.05-.07-.1-.14-.15-.21-.13-.23-.26-.46-.42-.69-.01-.02-.03-.04-.04-.06-.09-.17-.2-.35-.31-.51-.13-.26-.28-.51-.44-.75-.09-.19-.2-.37-.31-.55-.12-.25-.26-.49-.41-.73-.09-.2-.2-.39-.31-.58-.11-.25-.24-.5-.38-.73-.09-.2-.19-.4-.3-.59-.11-.26-.23-.51-.36-.75-.08-.21-.18-.41-.29-.6-.1-.26-.21-.51-.34-.76-.08-.2-.17-.4-.26-.59-.08-.22-.17-.45-.28-.66-.08-.25-.18-.49-.3-.72-.07-.22-.16-.44-.26-.66-.08-.25-.17-.49-.27-.73-.07-.22-.15-.44-.24-.66-.07-.26-.16-.51-.26-.76-.06-.21-.13-.43-.21-.63-.07-.27-.15-.54-.26-.8-.05-.21-.12-.41-.19-.61-.07-.29-.15-.57-.25-.84-.05-.19-.1-.37-.16-.55-.06-.29-.14-.57-.23-.84-.05-.22-.1-.43-.17-.64-.05-.27-.12-.53-.2-.79-.05-.26-.12-.53-.2-.78-.04-.2-.08-.39-.13-.58-.05-.29-.11-.56-.19-.84-.05-.26-.1-.51-.17-.75-.04-.24-.09-.47-.15-.7-.04-.25-.09-.5-.15-.75,0-.02,0-.04,0-.06-.04-.23-.09-.46-.15-.68-.02-.1-.02-.21-.04-.31-.03-.14-.07-.28-.1-.41-.03-.19-.05-.38-.09-.57-.01-.05-.03-.09-.04-.14-.04-.26-.08-.52-.14-.79-.04-.25-.09-.51-.15-.77-.03-.22-.07-.45-.12-.67-.03-.27-.08-.55-.14-.82-.03-.22-.06-.45-.1-.67,0-.02,0-.05-.01-.07,0,0,0,0,0,0-.03-.24-.08-.49-.13-.73-.03-.25-.08-.51-.13-.76-.03-.24-.07-.49-.12-.73-.03-.27-.07-.55-.12-.82-.03-.27-.06-.54-.12-.8-.02-.19-.05-.39-.08-.58-.03-.27-.07-.54-.12-.81-.03-.26-.07-.51-.11-.77-.03-.28-.07-.56-.12-.84-.03-.25-.06-.51-.1-.76-.03-.28-.06-.56-.11-.84-.03-.28-.06-.56-.11-.84-.02-.14-.03-.28-.05-.41-.02-.26-.07-.52-.1-.77-.02-.28-.07-.57-.11-.85-.02-.27-.06-.53-.1-.79-.03-.27-.06-.55-.1-.82-.03-.28-.06-.55-.1-.83-.03-.28-.06-.56-.1-.83-.03-.28-.06-.55-.1-.83-.03-.27-.05-.54-.1-.82-.03-.3-.06-.59-.11-.89,0-.04,0-.08-.01-.12-.02-.28-.06-.57-.1-.85-.02-.27-.06-.53-.09-.79-.02-.27-.06-.55-.09-.82-.02-.29-.06-.58-.1-.86-.02-.26-.05-.53-.09-.79-.03-.29-.06-.58-.1-.87-.02-.27-.05-.53-.09-.8-.03-.27-.05-.54-.09-.81-.03-.3-.06-.6-.1-.9-.03-.26-.05-.53-.09-.79-.03-.29-.05-.59-.1-.88-.03-.27-.04-.54-.09-.8-.03-.23-.04-.47-.07-.7-.02-.27-.06-.54-.09-.8-.02-.27-.06-.53-.08-.8-.02-.28-.06-.57-.09-.85-.02-.27-.06-.55-.09-.82-.02-.27-.05-.53-.08-.79-.02-.3-.06-.59-.09-.89-.02-.26-.05-.52-.08-.78-.02-.28-.05-.56-.09-.85-.02-.27-.05-.54-.08-.82-.02-.28-.05-.56-.08-.83-.02-.28-.05-.55-.08-.83-.02-.28-.05-.56-.08-.84-.03-.28-.05-.55-.08-.83-.03-.28-.05-.57-.09-.85-.03-.28-.05-.55-.08-.83-.03-.27-.04-.55-.08-.82-.03-.27-.04-.53-.07-.8-.02-.35-.05-.69-.09-1.04-.02-.28-.05-.55-.08-.83-.02-.25-.05-.5-.07-.75-.02-.29-.05-.58-.08-.87-.02-.25-.04-.5-.07-.75-.02-.27-.05-.53-.08-.8-.02-.28-.05-.55-.08-.83-.02-.26-.04-.52-.08-.78-.02-.25-.04-.51-.07-.76-.03-.31-.05-.61-.09-.92-.02-.24-.04-.49-.07-.73,0-.1-.02-.2-.03-.3-.02-.28-.05-.56-.08-.84-.02-.27-.05-.54-.08-.82-.02-.26-.05-.52-.07-.78-.02-.26-.05-.51-.07-.76-.02-.28-.05-.56-.08-.84-.02-.27-.05-.55-.08-.82-.02-.25-.05-.5-.07-.76-.02-.29-.05-.57-.08-.86-.02-.26-.05-.52-.07-.78-.02-.26-.05-.52-.07-.79-.55-6.82-3.43-13.5-8.65-18.72-11.66-11.66-30.58-11.66-42.25,0-5.12,5.12-7.99,11.64-8.62,18.32-.02.2-.05.4-.07.6-.03.22-.06.44-.08.66-.03.22-.06.43-.08.65-.03.22-.06.44-.08.66-.03.23-.06.45-.08.68-.02.19-.05.38-.07.57-.03.24-.06.49-.09.73-.03.2-.05.4-.07.61-.03.22-.06.43-.08.65-.03.21-.05.42-.08.63-.03.23-.06.47-.09.7-.03.21-.05.42-.08.62-.04.25-.06.5-.09.75-.04.26-.07.52-.1.78-.05.35-.09.69-.13,1.04-.03.21-.06.43-.08.64-.03.2-.05.4-.08.59-.03.23-.06.47-.09.7-.03.21-.06.41-.08.62-.03.23-.06.46-.09.69-.06.43-.11.87-.15,1.3-.03.23-.07.46-.09.7-.02.2-.06.4-.08.6-.03.21-.06.41-.08.61-.03.21-.06.42-.08.63-.03.19-.06.38-.08.58-.03.2-.06.4-.09.61-.03.21-.06.42-.09.63-.03.21-.06.42-.09.64-.03.2-.06.39-.08.59-.03.2-.06.4-.09.6-.03.21-.06.43-.09.64-.04.21-.06.43-.09.65-.03.19-.05.37-.08.56-.04.22-.06.44-.1.65-.04.21-.06.42-.09.62-.04.2-.06.4-.09.6-.06.31-.09.63-.14.94-.06.32-.1.65-.15.97-.06.35-.13.69-.17,1.04-.03.2-.07.39-.09.59-.03.22-.08.43-.1.65-.03.19-.07.38-.09.57-.03.2-.07.4-.1.61-.04.2-.07.4-.1.61-.04.19-.07.39-.1.58-.04.19-.07.39-.1.59-.04.22-.08.44-.11.66-.04.19-.06.38-.1.57-.04.21-.07.42-.11.63-.07.3-.11.6-.16.9-.06.27-.11.54-.15.81-.06.3-.13.6-.17.9-.04.19-.08.39-.11.58-.04.2-.08.41-.12.62-.04.19-.08.38-.11.57-.04.19-.08.38-.12.58-.05.2-.08.4-.12.6-.05.2-.09.41-.13.61-.05.19-.08.39-.12.58-.09.33-.15.66-.21.99-.07.28-.14.55-.19.83-.04.19-.09.38-.13.57-.05.2-.1.39-.14.59-.05.18-.09.37-.13.55-.06.2-.1.41-.15.61-.05.18-.09.36-.13.54-.08.25-.14.51-.2.77-.08.26-.15.53-.21.8-.07.22-.13.45-.19.68-.06.2-.12.39-.16.59-.06.18-.11.37-.16.55-.06.18-.11.37-.16.55-.06.19-.12.38-.17.57-.1.27-.18.55-.26.83-.08.24-.17.48-.24.72-.06.17-.12.34-.17.52-.07.19-.14.38-.2.58-.07.18-.14.37-.2.56-.07.18-.14.36-.2.55-.11.25-.21.52-.3.78-.09.22-.18.43-.26.66-.08.18-.15.36-.22.55-.08.18-.15.35-.22.53-.08.17-.15.34-.22.51-.12.23-.22.47-.32.72-.11.22-.22.44-.31.67-.08.17-.17.33-.24.5-.1.18-.19.37-.28.57-.09.16-.17.32-.25.48-.14.23-.26.48-.38.73-.11.19-.22.37-.32.57-.01.02-.02.04-.03.06-.07.12-.14.22-.21.34-.02.04-.04.09-.06.13-.06.09-.12.18-.18.27-.05.08-.08.16-.13.24-.03.05-.07.1-.11.15-.07.12-.13.24-.2.36-.01.02-.02.03-.03.05-.12.18-.23.37-.34.56-.15.22-.3.44-.43.67-.11.16-.22.32-.32.49-.12.16-.23.32-.33.49-.12.17-.24.34-.35.51-.1.13-.19.26-.28.4-.22.26-.42.54-.6.82-.12.15-.24.31-.35.47-.12.15-.24.31-.35.46-.13.16-.25.32-.37.48-.12.14-.23.29-.34.43-.19.21-.36.43-.53.66-.17.19-.33.38-.48.58-.13.15-.26.29-.38.45-.14.15-.27.3-.4.46-.14.15-.27.3-.4.46-.13.13-.24.27-.36.41-.18.19-.35.38-.52.58-.22.22-.43.44-.62.68-.13.14-.27.28-.4.43-.14.14-.28.29-.41.43-.15.15-.29.29-.42.44-.14.14-.27.28-.4.42-.14.13-.26.27-.39.4-.13.12-.24.24-.36.36-.1-.12-.2-.24-.3-.36-.32-.49-.66-.95-1.03-1.39-.29-.45-.6-.88-.94-1.28-.27-.42-.57-.83-.88-1.22-.31-.5-.66-.97-1.03-1.41-.3-.49-.63-.96-1-1.39-.26-.42-.54-.82-.85-1.2-.29-.5-.63-.95-.99-1.4-.29-.49-.61-.95-.95-1.39-.27-.45-.56-.88-.87-1.28-.28-.49-.59-.94-.93-1.37-.27-.49-.57-.96-.9-1.38-.26-.47-.56-.91-.88-1.33-.07-.13-.13-.27-.21-.4-.19-.33-.41-.64-.63-.93-.15-.29-.32-.58-.5-.86-.12-.18-.25-.35-.37-.51-.22-.44-.46-.87-.76-1.28-.02-.03-.05-.06-.07-.09-.23-.47-.51-.93-.82-1.37-.23-.5-.5-.98-.83-1.44-.21-.46-.46-.91-.76-1.35-.21-.5-.48-.98-.79-1.45-.21-.5-.46-.98-.76-1.43-.19-.48-.43-.95-.71-1.4-.18-.49-.41-.96-.69-1.42-.18-.52-.42-1.02-.7-1.5-.18-.52-.41-1.03-.69-1.51-.17-.5-.38-.99-.64-1.46-.16-.5-.36-.98-.6-1.43-.16-.54-.37-1.06-.63-1.55-.14-.5-.33-.99-.57-1.46-.13-.51-.31-1-.54-1.47-.13-.53-.31-1.04-.53-1.53-.13-.55-.31-1.08-.53-1.58-.12-.51-.27-1-.47-1.47-.11-.53-.28-1.05-.48-1.55-.11-.54-.26-1.06-.45-1.57-.1-.54-.26-1.05-.44-1.55-.1-.55-.24-1.08-.42-1.59,0-.03,0-.07-.01-.1-.1-.5-.24-.97-.4-1.44-.03-.2-.06-.39-.11-.59-.07-.31-.16-.61-.26-.91-.06-.37-.14-.75-.24-1.12-.05-.18-.11-.35-.17-.52-.08-.5-.18-1.01-.34-1.51-.01-.03-.02-.06-.03-.1-.08-.49-.19-.98-.34-1.47-.08-.56-.21-1.12-.37-1.68-.08-.55-.19-1.1-.35-1.65-.07-.48-.17-.96-.3-1.44-.07-.57-.19-1.13-.35-1.69-.08-.57-.18-1.14-.34-1.7-.07-.48-.16-.97-.28-1.45-.07-.53-.17-1.06-.3-1.59-.07-.57-.18-1.14-.32-1.7-.07-.58-.17-1.16-.32-1.74-.07-.5-.16-1-.28-1.49-.07-.52-.16-1.04-.28-1.55-.06-.53-.15-1.05-.27-1.57-.07-.58-.17-1.16-.3-1.73-.07-.58-.17-1.16-.3-1.74-.07-.51-.16-1.02-.27-1.53-.1-.85-.26-1.69-.48-2.52-.03-.18-.08-.36-.12-.54-.06-.54-.14-1.09-.25-1.63-.06-.55-.14-1.1-.25-1.64-.06-.54-.15-1.08-.26-1.62-.06-.55-.15-1.1-.26-1.64-.06-.55-.15-1.09-.26-1.64-.06-.54-.15-1.07-.25-1.61-.06-.56-.15-1.12-.25-1.67-.06-.56-.14-1.11-.25-1.66-.06-.56-.14-1.11-.25-1.66-.07-.57-.14-1.15-.25-1.72-.07-.55-.14-1.11-.24-1.66-.6-5.03-2.81-9.9-6.67-13.77-9.13-9.13-23.94-9.13-33.09,0-4.63,4.63-6.9,10.72-6.84,16.79,0,.22-.02.45-.01.67,0,.26-.02.51-.01.77,0,.23-.02.47-.01.7,0,.24-.02.48-.01.71,0,.23-.02.47-.02.7,0,.25-.02.5-.01.76,0,.01,0,.03,0,.04,0,.09,0,.17,0,.26,0,.13-.01.25,0,.38,0,.03,0,.06,0,.09-.02.24,0,.49-.02.73-.02.24,0,.48-.02.71-.02.26-.01.52-.02.78-.01.24,0,.48-.02.72-.01.24-.01.47-.02.71-.01.24-.01.49-.02.73-.01.25-.01.5-.02.75-.01.23-.01.47-.02.7-.01.25-.02.5-.02.75-.01.25-.02.49-.02.74-.01.24-.02.47-.02.71-.01.25-.02.5-.02.74,0,.24-.02.48-.02.72,0,.24-.02.47-.02.71,0,.25-.02.49-.02.74,0,.24-.02.49-.02.73,0,.24-.02.48-.02.73,0,.24-.02.47-.02.71,0,.23-.03.45-.02.68,0,.26-.03.52-.02.77,0,.15,0,.3-.01.45-.02.24-.02.49-.03.73-.02.25-.02.5-.03.75-.02.24-.02.48-.02.72-.02.24-.02.48-.03.72-.02.25-.02.49-.03.74-.02.25-.02.51-.03.76-.01.23-.02.46-.03.69-.01.25-.03.51-.03.76-.01.23-.03.47-.03.7-.01.25-.03.5-.03.76-.01.23-.03.46-.03.69-.01.25-.03.5-.03.75-.01.23-.03.47-.03.7-.02.25-.02.5-.03.75-.02.23-.02.47-.03.7-.02.25-.03.51-.04.76-.02.23-.03.47-.03.7-.02.25-.03.49-.04.74-.02.25-.03.5-.04.75-.02.24-.03.47-.04.71-.02.24-.03.47-.04.71-.02.25-.04.49-.04.73-.02.24-.04.48-.04.72,0,.06,0,.12-.01.17-.01.15-.02.29-.03.44,0,.04,0,.07,0,.11,0,.06,0,.13,0,.19-.02.23-.03.47-.04.7-.02.24-.03.49-.04.73-.02.25-.04.5-.05.75-.02.23-.04.46-.04.69-.02.24-.04.48-.05.72-.02.25-.04.49-.05.74-.02.22-.04.45-.05.67,0,.11-.02.23-.02.34-.03.23-.03.46-.05.69-.03.24-.04.49-.05.73-.03.24-.04.49-.06.73-.03.23-.04.46-.06.69-.03.24-.05.49-.06.73-.02.23-.05.46-.06.68-.01.13-.03.27-.04.4-.03.25-.05.49-.06.73-.03.24-.05.48-.06.71-.03.23-.05.46-.06.69-.03.23-.06.47-.07.7-.03.23-.06.47-.07.7-.02.16-.04.32-.05.47-.04.23-.05.47-.07.7-.04.23-.06.47-.07.7-.03.23-.06.46-.08.69-.03.22-.06.44-.08.66-.04.24-.07.48-.09.71-.03.17-.04.34-.06.52,0,.05-.02.1-.03.16-.03.18-.04.35-.05.53-.02.11-.05.21-.06.32-.02.11-.02.23-.03.34-.03.17-.07.34-.09.52,0,.06,0,.12-.01.18-.03.19-.06.38-.09.57-.04.22-.07.45-.09.67-.04.21-.07.42-.1.64-.04.22-.08.45-.11.68-.04.21-.08.42-.11.63-.04.21-.07.42-.1.64-.05.22-.08.45-.11.67-.04.2-.08.4-.11.6-.05.23-.1.46-.13.7-.05.21-.08.42-.11.64-.05.2-.09.41-.12.61-.05.2-.1.4-.13.61-.06.24-.11.49-.15.73-.05.2-.09.4-.12.6-.05.2-.1.4-.14.6-.07.24-.12.48-.17.72-.05.2-.09.4-.13.6-.06.21-.11.41-.15.62-.06.22-.12.44-.17.66-.06.21-.11.42-.16.64-.06.19-.11.38-.15.57-.07.22-.13.45-.19.68-.07.21-.12.41-.17.63-.07.2-.12.4-.17.61-.07.21-.14.42-.19.63-.07.21-.13.41-.18.62-.07.2-.13.4-.19.61-.08.21-.15.43-.21.64-.07.19-.13.39-.19.59-.08.21-.15.43-.21.64-.08.2-.15.4-.21.6-.08.22-.16.44-.22.66-.07.18-.14.37-.2.56-.08.21-.16.42-.23.63-.08.2-.16.41-.22.62-.09.2-.16.41-.23.62-.08.19-.16.37-.22.57-.1.22-.18.44-.26.67-.09.2-.17.41-.24.62-.08.18-.15.35-.22.53-.1.22-.2.44-.28.66-.09.2-.17.41-.25.62-.09.19-.17.38-.24.57-.1.21-.19.42-.27.63-.09.18-.17.36-.24.55-.1.21-.2.43-.28.65-.1.21-.19.41-.27.62-.1.2-.19.39-.27.59-.11.21-.21.43-.3.64-.08.15-.14.31-.21.47-.12.22-.22.45-.32.68-.1.2-.2.4-.28.6-.1.2-.2.4-.29.6-.09.16-.17.33-.24.5,0,.01-.01.02-.02.03-.11.2-.19.4-.28.61-.03.05-.06.1-.09.15-.06.12-.11.25-.17.38-.07.13-.14.24-.21.37-.05.11-.09.22-.14.34-.08.14-.16.28-.23.43-.02.05-.04.1-.06.15-.11.2-.22.4-.31.61-.01.02-.02.05-.03.07-.07.12-.13.25-.19.38-.12.21-.22.42-.32.64-.11.2-.21.4-.31.6-.12.21-.23.42-.33.64-.12.21-.23.43-.34.65-.05.1-.11.19-.16.29,0,.01-.01.03-.02.04-.04.09-.09.17-.13.25-.07.13-.14.26-.21.4-.12.2-.22.41-.32.61-.11.19-.21.39-.31.58-.13.23-.26.47-.38.71-.11.2-.22.4-.32.61-.12.2-.23.41-.34.62-.12.21-.24.41-.34.63-.13.23-.26.46-.38.69-.03.06-.07.12-.1.18-.13.21-.24.42-.35.64-.13.22-.25.44-.37.67-.12.19-.22.4-.33.6-.12.2-.24.41-.35.62-.13.22-.26.44-.37.67-.12.2-.24.41-.35.62-.12.2-.24.4-.34.6-.14.24-.28.47-.4.72-.01.02-.03.05-.04.07-.12.19-.22.39-.33.58-.14.22-.26.45-.39.68-.12.2-.24.41-.35.62-.13.2-.24.41-.36.62-.13.22-.26.44-.38.67-.12.2-.24.41-.35.62-.12.2-.24.4-.35.6-.13.22-.26.44-.39.66-.12.21-.25.42-.37.63-.12.2-.25.4-.36.61-.09.14-.16.28-.25.43-.04.07-.08.13-.11.19-.09.14-.16.28-.25.42-.04.07-.08.13-.11.19-.12.19-.23.4-.35.6-.13.21-.25.42-.37.64-.13.21-.25.42-.37.63-.12.19-.23.39-.34.58-.14.22-.27.45-.4.68-.13.21-.25.42-.37.63-.12.2-.24.39-.35.59-.13.21-.26.43-.38.64-.13.21-.26.42-.38.64-.12.2-.24.39-.36.59-.14.22-.28.45-.4.68-.12.21-.25.41-.37.63-.12.2-.25.39-.36.59-1.64,2.76-2.6,5.97-2.6,9.41,0,10.2,8.28,18.48,18.48,18.48s18.48-8.28,18.48-18.48c0-.04,0-.09,0-.13,0-.15.02-.3.03-.46,0-.06,0-.11,0-.17,0-.14.02-.28.03-.42,0-.04,0-.07,0-.11,0-.16.03-.32.03-.49,0-.07,0-.14,0-.22,0-.13.02-.25.03-.38,0-.08,0-.15,0-.23,0-.12.02-.24.03-.36,0-.08,0-.15,0-.22,0-.13.03-.25.03-.37,0-.1,0-.2,0-.3,0-.1.02-.19.02-.29,0-.11,0-.23,0-.34,0-.09.02-.17.02-.26,0-.1,0-.19,0-.28,0-.1.02-.2.03-.31,0-.13,0-.26,0-.39,0-.07.02-.14.02-.2,0-.13,0-.25,0-.38,0-.07.02-.14.02-.22,0-.16,0-.31,0-.46,0-.05.01-.09.02-.14,0-.16,0-.31,0-.46,0-.04.01-.08.01-.12.01-.18,0-.35,0-.53,0-.02,0-.04,0-.07.01-.17,0-.35.01-.52,0-.03,0-.05.01-.08.01-.19,0-.37.02-.55,0-.01,0-.03,0-.04.02-.19.01-.38.02-.57,0,0,0-.02,0-.03.05-.54.07-1.07.07-1.6,0-.07,0-.14.01-.21.02-.33.05-.67.05-.99,0-.2.03-.4.03-.59.01-.21.03-.43.03-.64,0-.18.03-.36.03-.54.01-.23.03-.45.03-.68.01-.2.03-.4.03-.6.01-.21.03-.42.03-.63.02-.21.03-.42.03-.64.02-.21.02-.42.03-.62.02-.19.02-.37.03-.56.02-.23.03-.45.04-.68.02-.19.02-.39.03-.58.02-.22.03-.44.04-.66.02-.19.02-.38.03-.58.05-.45.08-.89.08-1.34.01-.19.03-.38.04-.57.02-.21.04-.42.04-.62.02-.2.04-.4.04-.6.02-.21.04-.41.04-.62.02-.21.04-.43.04-.64.02-.19.03-.37.04-.56.02-.22.04-.45.05-.67.02-.2.03-.4.04-.59.02-.2.03-.4.05-.6.03-.22.04-.44.06-.66.03-.23.04-.46.06-.7.04-.34.08-.68.09-1.02.02-.19.04-.38.05-.58.02-.19.04-.38.06-.58.03-.22.05-.44.06-.67.02-.19.04-.38.06-.57.03-.22.05-.44.07-.66.03-.19.04-.38.06-.57.03-.22.05-.43.07-.65.05-.3.08-.6.1-.9.03-.23.06-.45.08-.68.03-.2.06-.4.07-.61.03-.2.06-.4.07-.59.03-.21.06-.42.08-.62.03-.2.06-.39.08-.59.04-.22.06-.43.09-.65.03-.19.05-.38.08-.57.06-.3.11-.61.13-.92.04-.21.07-.41.09-.62.04-.2.07-.41.09-.61.04-.2.07-.4.09-.6.04-.2.07-.4.1-.6.04-.21.08-.41.1-.62.05-.22.08-.44.11-.67.06-.25.1-.51.14-.76.05-.21.09-.42.11-.64.04-.19.08-.39.11-.58.05-.21.09-.42.12-.63.05-.19.08-.39.12-.59.06-.23.11-.47.15-.7.06-.23.11-.45.15-.68.05-.21.1-.41.14-.62.06-.21.1-.42.14-.63.05-.19.1-.38.13-.58.06-.19.1-.39.14-.59.08-.27.15-.54.2-.82.06-.2.11-.4.15-.61.05-.18.1-.37.15-.56.06-.2.12-.41.17-.62.06-.19.11-.38.16-.58.08-.24.15-.48.21-.73.07-.22.14-.44.19-.66.06-.19.12-.38.17-.57.07-.2.13-.4.19-.61.07-.18.12-.37.18-.56.07-.19.14-.39.19-.59.1-.26.19-.53.26-.8.07-.18.13-.37.19-.56.08-.2.15-.4.21-.61.07-.18.14-.37.2-.55.08-.2.16-.41.22-.61.08-.19.15-.39.22-.59.11-.25.2-.5.28-.76.08-.18.15-.36.21-.55.08-.19.16-.38.22-.58.08-.19.16-.38.23-.58.08-.18.15-.36.22-.54.13-.27.24-.55.34-.83.08-.18.16-.37.23-.56.08-.18.16-.36.23-.55.09-.2.18-.4.26-.6.09-.18.16-.36.23-.54.09-.18.17-.37.25-.56.11-.23.22-.46.31-.7.11-.23.22-.46.32-.7.09-.18.18-.37.25-.56.09-.19.18-.37.26-.56.09-.17.17-.35.25-.53.1-.19.19-.39.28-.58.09-.18.18-.36.26-.54.09-.17.17-.35.25-.53.16-.3.31-.6.45-.92.09-.18.18-.36.27-.54.09-.18.19-.36.27-.55.1-.18.19-.36.27-.55.09-.17.18-.35.27-.53.1-.18.19-.37.28-.56.1-.18.2-.37.29-.57.09-.17.17-.34.26-.51.1-.17.19-.36.28-.54.19-.32.36-.65.52-.99.1-.18.2-.36.29-.55.1-.18.19-.35.28-.53.11-.19.21-.38.31-.58.09-.16.18-.32.26-.49.11-.2.22-.4.32-.61.08-.14.16-.29.23-.43.13-.22.25-.44.36-.66.09-.15.16-.31.25-.47.1-.17.19-.35.29-.52.19-.32.37-.65.54-.99.08-.15.17-.3.25-.45.14-.25.29-.49.42-.74,0,0,0-.02.01-.03.09-.16.19-.31.27-.47.02-.03.03-.07.05-.1.08-.13.16-.26.23-.4.02-.04.03-.07.05-.11.08-.13.16-.25.23-.39.03-.06.06-.13.09-.19.06-.11.13-.2.19-.31.04-.07.07-.15.11-.22.06-.1.12-.18.18-.28.04-.08.08-.16.12-.24.05-.09.11-.17.17-.26.05-.09.09-.18.13-.27.05-.08.1-.15.15-.23.06-.11.11-.22.17-.33.04-.06.08-.11.11-.17.07-.12.12-.24.19-.36.03-.05.07-.09.1-.14.08-.13.14-.26.21-.39.02-.04.05-.07.07-.11.08-.13.15-.28.22-.41.02-.03.04-.06.06-.09.1-.16.18-.32.27-.49,0,0,0,0,0,0,.05.06.1.11.14.17.31.46.64.91.99,1.32.3.46.62.89.97,1.3.3.46.62.89.96,1.3.31.48.65.92,1.01,1.34.29.46.62.89.96,1.3.3.47.62.92.97,1.34.29.47.6.92.95,1.34.27.44.56.85.88,1.25.28.48.61.93.96,1.36.28.49.6.95.95,1.38.27.47.57.92.9,1.33.26.46.55.89.87,1.3.27.49.58.95.92,1.39.26.48.55.95.88,1.38.24.46.51.89.82,1.31.24.5.54.96.86,1.41.24.49.51.96.83,1.39.22.47.48.91.77,1.33.23.52.51,1.02.83,1.48.21.47.45.93.73,1.35.2.5.46.98.75,1.44.19.5.44.98.72,1.43.18.49.41.96.68,1.41.18.52.41,1.01.69,1.49.16.49.37.95.62,1.4.16.51.36,1,.61,1.46.14.49.33.98.56,1.44.14.52.32,1.02.56,1.51.13.53.32,1.04.55,1.54.12.49.28.98.49,1.45.12.55.29,1.08.52,1.6.11.5.26,1,.46,1.49.1.53.26,1.04.46,1.55.1.54.25,1.07.45,1.6.09.5.22.99.4,1.48.09.54.23,1.07.42,1.6.09.54.21,1.07.39,1.6.08.51.2,1.02.36,1.53.08.52.2,1.04.36,1.56.08.54.2,1.07.36,1.61.08.56.19,1.12.35,1.67.07.49.17.99.31,1.48.07.54.19,1.07.33,1.61.07.54.18,1.07.32,1.61.07.55.17,1.1.32,1.65.07.53.16,1.06.29,1.6.06.51.15,1.03.27,1.55,0,.02.01.04.02.06.05.44.12.89.22,1.33.02.1.06.19.08.29.04.37.09.73.16,1.1.04.18.09.35.13.53.03.29.06.57.11.86.04.25.11.49.17.74.03.22.04.44.07.66.05.32.13.62.2.93.02.15.02.3.04.46.02.11.04.21.06.31.02.37.04.75.08,1.12.07.55.16,1.08.29,1.61.07.54.16,1.07.28,1.6.07.55.16,1.09.27,1.62.07.56.16,1.1.28,1.64.06.52.14,1.03.25,1.53.06.56.15,1.12.27,1.66.06.52.14,1.03.24,1.53.06.54.15,1.07.25,1.6.06.53.14,1.05.24,1.56.06.59.16,1.17.27,1.74,1.1,10.15,9.69,18.06,20.13,18.06s18.44-7.39,19.98-17.04c0-.04.01-.08.02-.11.04-.24.08-.49.11-.73.01-.07.02-.14.03-.21,0-.04.01-.08.02-.11.03-.15.04-.3.06-.45.05-.25.07-.5.11-.76.05-.27.09-.55.13-.82.05-.26.08-.52.12-.79.05-.26.09-.53.12-.8.04-.25.09-.51.12-.77.05-.26.09-.53.13-.8.04-.26.09-.52.12-.78.04-.24.09-.47.12-.71.05-.25.08-.5.12-.76.05-.26.09-.52.13-.78.05-.26.09-.53.14-.8.05-.27.1-.55.14-.83.04-.23.09-.46.12-.7.05-.27.11-.54.15-.81,0-.04.02-.08.02-.13,0-.02,0-.04.01-.06.03-.2.08-.4.11-.6,0-.03,0-.05.01-.08.06-.27.11-.54.15-.82.05-.24.1-.48.14-.72.06-.28.12-.55.16-.84.05-.24.11-.49.15-.74.02-.09.04-.17.06-.26.02-.09.04-.17.06-.26.01-.07.03-.15.04-.22.02-.1.04-.19.06-.29.06-.24.1-.48.15-.72.07-.26.12-.53.17-.8.06-.25.12-.5.17-.75.03-.12.06-.23.08-.35.07-.24.11-.49.17-.73.07-.25.12-.5.18-.75.06-.23.12-.46.17-.7.05-.17.09-.33.13-.5.07-.23.12-.47.17-.71.07-.23.13-.46.18-.69.07-.22.13-.45.19-.67.06-.19.11-.38.15-.57.07-.22.13-.45.19-.68.07-.21.14-.42.19-.63.07-.21.13-.42.19-.64.07-.2.12-.39.18-.59.08-.23.16-.45.23-.68.07-.19.13-.39.19-.59.08-.21.15-.42.21-.63.08-.21.17-.43.24-.64.07-.18.13-.37.2-.56.09-.2.17-.4.24-.61.11-.24.2-.49.28-.74.06-.15.12-.29.18-.44.12-.25.23-.5.32-.76.08-.17.14-.34.21-.51.1-.21.21-.43.29-.64.1-.19.18-.39.26-.59.09-.17.18-.34.26-.52.11-.21.21-.42.31-.63.1-.19.2-.38.29-.57.11-.19.2-.37.29-.56.06-.11.13-.21.19-.31.04-.07.07-.15.1-.22.12-.19.23-.4.34-.6.12-.19.23-.38.33-.58.11-.18.23-.36.33-.55.11-.17.21-.34.31-.51.14-.2.27-.4.39-.61.12-.17.23-.35.33-.53.12-.16.24-.33.35-.5.15-.2.29-.42.43-.63.11-.14.21-.28.31-.43.15-.19.29-.39.42-.59.12-.16.24-.32.36-.48.16-.19.31-.39.45-.59.13-.16.25-.32.36-.48.13-.15.26-.31.38-.47.16-.19.32-.39.47-.59.12-.14.25-.29.36-.44.16-.18.32-.36.47-.55.15-.16.28-.34.42-.51.14-.16.29-.32.42-.48.15-.15.29-.31.42-.47.15-.16.29-.33.44-.5.17-.17.33-.35.49-.54.12-.13.24-.25.36-.38.18-.17.34-.36.5-.54.16-.16.32-.32.47-.49.19-.19.39-.38.57-.59.1-.1.2-.2.3-.3.19-.18.36-.36.53-.55.17-.16.34-.33.5-.5.2-.19.39-.38.58-.57.07-.06.13-.13.2-.19.22-.19.42-.4.62-.6.18-.16.34-.33.51-.5.19-.17.37-.34.55-.52.2-.19.41-.37.6-.57.06-.06.12-.11.18-.17.03-.02.05-.05.08-.07.11-.1.22-.2.32-.3.04-.03.07-.07.11-.1.22-.19.43-.39.64-.59.19-.17.38-.35.56-.52.18-.16.35-.31.52-.47.22-.2.45-.39.66-.6,0,0,.01,0,.02-.01.01-.01.03-.02.04-.04.17-.16.35-.3.52-.47.23-.18.43-.38.65-.58.2-.16.38-.34.57-.51.19-.16.37-.32.55-.49.22-.18.43-.36.63-.56.21-.17.41-.35.61-.53.2-.17.4-.33.59-.51.21-.18.42-.35.61-.53.15-.12.28-.25.42-.37.2-.16.38-.32.57-.49.19.21.37.43.57.62.15.16.29.34.45.5.17.19.33.38.51.56.16.17.31.35.47.52.17.18.33.37.5.55.16.18.31.35.47.52.17.19.33.37.5.55.16.18.32.36.48.53.14.16.28.33.43.48.18.2.35.4.54.6.16.18.32.36.48.53.15.18.31.35.47.53.15.18.31.35.47.53.17.2.34.38.51.57.15.18.31.35.47.53.16.19.32.37.49.55.15.19.32.36.47.53.16.2.34.38.5.57.19.24.41.46.61.69.29.36.6.71.92,1.04.14.16.28.34.43.49.16.18.31.37.48.55.15.18.3.36.46.53.17.2.33.39.51.58.14.17.28.34.43.5.16.19.32.38.49.56.15.19.31.37.47.54.15.19.31.36.47.54.15.19.31.36.46.54.16.2.32.39.49.57.14.18.3.35.45.52.24.31.5.61.77.9.17.21.34.42.52.62.15.19.31.38.47.55.14.18.29.35.44.52.15.19.31.38.47.56.15.19.31.38.47.56.14.18.29.36.44.53.16.21.32.41.5.6.13.17.27.34.41.5.17.23.35.45.53.66.2.27.4.52.62.77.15.19.29.38.45.56.14.18.27.36.42.53.14.2.29.39.45.57.14.2.29.39.45.58.14.2.3.4.46.59.17.24.35.48.54.7.15.21.3.42.47.61.13.19.27.38.42.56.14.2.28.4.43.59.13.2.28.4.43.59.13.2.27.4.42.58.16.25.33.49.51.72.12.19.25.38.39.57.13.22.27.42.43.62.12.19.24.38.37.56.15.26.31.51.48.74.12.21.25.4.39.6.12.21.25.41.39.61.12.21.24.42.38.62.12.23.25.45.39.66.11.22.24.43.38.64.11.22.23.43.37.64.1.21.22.42.34.62.11.24.23.46.37.69.1.23.22.45.35.67.09.21.2.42.31.62.09.23.2.45.32.66.09.23.21.46.33.68.09.24.2.47.32.69.08.22.18.43.28.64.09.24.19.48.3.72.08.23.18.46.28.68.07.22.16.44.26.66.07.23.15.46.25.68.07.24.16.48.26.72.07.24.15.48.25.71.06.23.14.46.23.69.06.24.14.48.23.71.06.25.14.49.23.74.06.22.12.45.2.67.05.24.12.47.2.7.05.25.12.49.2.73.06.26.13.52.21.78.05.23.11.46.18.69.04.23.1.45.16.67.04.23.1.46.16.7.05.31.12.61.21.91.05.24.1.48.17.72.04.22.09.45.15.67.04.23.09.47.15.7.04.24.09.48.14.72.03.22.08.44.13.67.04.32.1.65.18.97,0,.02.01.03.02.05.03.18.05.37.09.55,0,.04.02.08.03.12.02.17.04.33.07.5.02.08.04.16.06.24.02.12.03.24.05.37.02.11.05.21.07.31.01.1.02.2.03.3.02.12.05.24.08.36,0,.08.01.16.02.24.02.17.06.33.1.49,0,.04,0,.08,0,.13.03.23.08.46.12.69.04.35.1.69.17,1.03.03.22.06.45.1.67.03.24.06.48.11.71.03.24.06.48.11.72.03.24.06.48.1.71.03.25.06.5.11.74.02.23.06.45.1.68.02.24.06.48.1.72.6,6.31,5.9,11.25,12.36,11.25,6.86,0,12.42-5.56,12.42-12.43,0-3.2-1.22-6.11-3.21-8.31Z"/></svg>