<?xml version="1.0" encoding="utf-8"?>
<svg version="1.1" id="Layer_1" xmlns="http://www.w3.org/2000/svg" xmlns:xlink="http://www.w3.org/1999/xlink" x="0px" y="0px"
	 viewBox="0 0 32 39" style="enable-background:new 0 0 32 39;" xml:space="preserve">
<style type="text/css">
	.st0{fill:#FFFFFF;}
	.st1{opacity:0.2;fill:#FFFFFF;enable-background:new    ;}
</style>
<title>MERN</title>
<g id="MERN">
	<g id="mern-icon" transform="translate(0.000000, 4.000000)">
		<path id="Shape" class="st0" d="M14.2,31.6C14.2,31.6,14.1,31.6,14.2,31.6c-1.2-0.1-2.3-0.3-3.3-0.7c-0.4-0.1-0.6-0.6-0.5-1
			c0.1-0.4,0.6-0.6,1-0.5c0.9,0.3,1.9,0.5,2.9,0.6c0.4,0,0.7,0.4,0.7,0.9C14.9,31.3,14.6,31.6,14.2,31.6z M17.3,31.6
			c-0.4,0-0.7-0.3-0.8-0.7c0-0.4,0.3-0.8,0.7-0.9c1-0.1,2-0.3,2.9-0.6c0.4-0.1,0.9,0.1,1,0.5c0.1,0.4-0.1,0.9-0.5,1
			C19.6,31.2,18.5,31.4,17.3,31.6C17.4,31.6,17.3,31.6,17.3,31.6z M8.3,29.6c-0.1,0-0.3,0-0.4-0.1C6.9,29,6,28.3,5.2,27.6
			c-0.3-0.3-0.3-0.8-0.1-1.1c0.3-0.3,0.8-0.3,1.1-0.1c0.7,0.7,1.5,1.2,2.4,1.7C9,28.4,9.2,28.9,9,29.3C8.8,29.5,8.5,29.6,8.3,29.6z
			 M23.2,29.6c-0.3,0-0.5-0.1-0.7-0.4c-0.2-0.4-0.1-0.9,0.3-1.1c0.9-0.5,1.7-1.1,2.4-1.7c0.3-0.3,0.8-0.3,1.1,0.1
			c0.3,0.3,0.3,0.8-0.1,1.1c-0.8,0.7-1.7,1.4-2.7,1.9C23.5,29.6,23.4,29.6,23.2,29.6z M3.7,25.5c-0.2,0-0.5-0.1-0.6-0.3
			c-0.6-0.9-1.2-1.8-1.7-2.8c-0.2-0.4,0-0.9,0.4-1c0.4-0.2,0.9,0,1,0.4c0.4,0.9,0.9,1.8,1.5,2.6c0.3,0.3,0.2,0.8-0.2,1.1
			C4,25.4,3.8,25.5,3.7,25.5z M27.8,25.5c-0.2,0-0.3,0-0.5-0.1c-0.3-0.3-0.4-0.7-0.2-1.1c0.6-0.8,1.1-1.7,1.5-2.6
			c0.2-0.4,0.6-0.6,1-0.4c0.4,0.2,0.6,0.6,0.4,1c-0.4,1-1,2-1.6,2.8C28.3,25.4,28.1,25.5,27.8,25.5z M1.1,19.8
			c-0.4,0-0.7-0.3-0.8-0.6C0.1,18.1,0,17,0,15.9c0-0.4,0.3-0.8,0.8-0.8c0,0,0,0,0,0c0.4,0,0.8,0.3,0.8,0.8c0,1,0.1,2,0.3,2.9
			c0.1,0.4-0.2,0.8-0.6,0.9C1.2,19.8,1.2,19.8,1.1,19.8z M30.4,19.8c-0.1,0-0.1,0-0.2,0c-0.4-0.1-0.7-0.5-0.6-0.9
			c0.2-1,0.3-2,0.3-2.9v-0.1c0-0.4,0.3-0.8,0.8-0.8c0,0,0,0,0,0c0.4,0,0.8,0.3,0.8,0.8v0.1c0,1.1-0.1,2.2-0.3,3.3
			C31.1,19.5,30.7,19.8,30.4,19.8z M1.1,13.6c-0.1,0-0.1,0-0.2,0c-0.4-0.1-0.7-0.5-0.6-0.9c0.2-1.1,0.6-2.1,1-3.1
			C1.5,9.1,2,9,2.4,9.1c0.4,0.2,0.6,0.6,0.4,1C2.4,11.1,2.1,12,1.9,13C1.8,13.3,1.5,13.6,1.1,13.6z M30.4,13.5
			c-0.4,0-0.7-0.3-0.8-0.6c-0.2-1-0.5-1.9-0.9-2.8c-0.2-0.4,0-0.9,0.4-1c0.4-0.2,0.9,0,1,0.4c0.5,1,0.8,2.1,1,3.1
			c0.1,0.4-0.2,0.8-0.6,0.9C30.5,13.5,30.4,13.5,30.4,13.5z M3.6,7.9c-0.2,0-0.3,0-0.5-0.1C2.8,7.5,2.7,7,3,6.7
			C3.6,5.8,4.4,5,5.2,4.2C5.5,3.9,6,4,6.3,4.3c0.3,0.3,0.3,0.8-0.1,1.1c-0.7,0.7-1.4,1.4-2,2.2C4.1,7.8,3.9,7.9,3.6,7.9z M27.8,7.8
			c-0.2,0-0.5-0.1-0.6-0.3c-0.6-0.8-1.3-1.5-2-2.2c-0.3-0.3-0.3-0.8-0.1-1.1c0.3-0.3,0.8-0.3,1.1-0.1c0.8,0.7,1.6,1.6,2.2,2.4
			c0.3,0.3,0.2,0.8-0.2,1.1C28.1,7.8,28,7.8,27.8,7.8z M8.2,3.7C8,3.7,7.7,3.6,7.6,3.4C7.3,3,7.5,2.5,7.8,2.3c0.9-0.6,2-1,3-1.3
			c0.4-0.1,0.9,0.1,1,0.5c0.1,0.4-0.1,0.9-0.5,1c-0.9,0.3-1.8,0.7-2.7,1.2C8.5,3.7,8.4,3.7,8.2,3.7z M23.2,3.7c-0.1,0-0.3,0-0.4-0.1
			c-0.9-0.5-1.8-0.9-2.7-1.2c-0.4-0.1-0.6-0.6-0.5-1c0.1-0.4,0.6-0.6,1-0.5c1,0.3,2.1,0.8,3,1.3c0.4,0.2,0.5,0.7,0.3,1.1
			C23.7,3.6,23.4,3.7,23.2,3.7z M14.1,1.8c-0.4,0-0.7-0.3-0.8-0.7c0-0.4,0.3-0.8,0.7-0.9c1.1-0.1,2.2-0.1,3.3,0
			c0.4,0,0.7,0.4,0.7,0.9c0,0.4-0.4,0.7-0.9,0.7C16.2,1.7,15.2,1.7,14.1,1.8C14.2,1.8,14.2,1.8,14.1,1.8z"/>
		<path id="Shape_1_" class="st0" d="M14.2,27.2C14.2,27.2,14.2,27.2,14.2,27.2C13.1,27,12,26.7,11,26.3c-0.3-0.1-0.4-0.4-0.3-0.7
			c0.1-0.3,0.4-0.4,0.7-0.3c0.9,0.4,1.9,0.7,2.8,0.8c0.3,0,0.5,0.3,0.4,0.6C14.7,27,14.5,27.2,14.2,27.2z M17.3,27.2
			c-0.3,0-0.5-0.2-0.5-0.4c0-0.3,0.2-0.5,0.4-0.6c1-0.1,1.9-0.4,2.8-0.8c0.3-0.1,0.6,0,0.7,0.3c0.1,0.3,0,0.6-0.3,0.7
			C19.5,26.7,18.5,27,17.3,27.2C17.3,27.2,17.3,27.2,17.3,27.2z M8.6,24.7c-0.1,0-0.2,0-0.3-0.1c-0.8-0.7-1.5-1.5-2.1-2.4
			c-0.2-0.2-0.1-0.6,0.2-0.7c0.2-0.2,0.6-0.1,0.7,0.2c0.5,0.8,1.2,1.6,1.9,2.2c0.2,0.2,0.2,0.5,0.1,0.7C8.9,24.6,8.8,24.7,8.6,24.7z
			 M22.9,24.6c-0.1,0-0.3-0.1-0.4-0.2c-0.2-0.2-0.2-0.5,0.1-0.7c0.7-0.6,1.4-1.4,1.9-2.2c0.2-0.2,0.5-0.3,0.7-0.2
			c0.2,0.2,0.3,0.5,0.2,0.7c-0.6,0.9-1.3,1.7-2.1,2.5C23.1,24.6,23,24.6,22.9,24.6z M5.3,19.5c-0.2,0-0.4-0.1-0.5-0.4
			c-0.3-1-0.5-2.1-0.5-3.2c0-0.3,0.2-0.5,0.5-0.5c0,0,0,0,0,0c0.3,0,0.5,0.2,0.5,0.5c0,1,0.1,2,0.4,2.9c0.1,0.3-0.1,0.6-0.4,0.6
			C5.4,19.5,5.3,19.5,5.3,19.5z M26.2,19.5c0,0-0.1,0-0.1,0c-0.3-0.1-0.4-0.4-0.4-0.6c0.3-0.9,0.4-1.9,0.4-2.9v0
			c0-0.3,0.2-0.5,0.5-0.5c0.3,0,0.5,0.2,0.5,0.5v0c0,1.1-0.2,2.2-0.5,3.2C26.6,19.3,26.4,19.5,26.2,19.5z M5.3,13.4c0,0-0.1,0-0.1,0
			c-0.3-0.1-0.4-0.4-0.4-0.6c0.3-1,0.8-2,1.3-3c0.2-0.2,0.5-0.3,0.7-0.2c0.2,0.2,0.3,0.5,0.2,0.7c-0.5,0.8-0.9,1.7-1.2,2.7
			C5.7,13.2,5.5,13.4,5.3,13.4z M26.2,13.3c-0.2,0-0.4-0.1-0.5-0.4c-0.3-0.9-0.7-1.8-1.2-2.7c-0.2-0.2-0.1-0.6,0.2-0.7
			c0.2-0.2,0.6-0.1,0.7,0.2c0.6,0.9,1.1,1.9,1.4,2.9c0.1,0.3-0.1,0.6-0.4,0.6C26.3,13.3,26.2,13.3,26.2,13.3z M8.6,8.2
			C8.4,8.2,8.3,8.1,8.2,8C8,7.8,8,7.5,8.2,7.3C9.1,6.6,10,6,11,5.5c0.3-0.1,0.6,0,0.7,0.3c0.1,0.3,0,0.6-0.3,0.7
			c-0.9,0.4-1.7,1-2.5,1.6C8.8,8.2,8.7,8.2,8.6,8.2z M22.8,8.2c-0.1,0-0.2,0-0.3-0.1c-0.8-0.6-1.6-1.2-2.5-1.6
			c-0.3-0.1-0.4-0.4-0.3-0.7c0.1-0.3,0.4-0.4,0.7-0.3c1,0.4,1.9,1,2.7,1.7c0.2,0.2,0.2,0.5,0.1,0.7C23.1,8.1,23,8.2,22.8,8.2z
			 M14.2,5.6c-0.3,0-0.5-0.2-0.5-0.4c0-0.3,0.2-0.5,0.4-0.6c1.1-0.2,2.2-0.2,3.2,0c0.3,0,0.5,0.3,0.4,0.6c0,0.3-0.3,0.5-0.6,0.4
			C16.2,5.5,15.2,5.5,14.2,5.6C14.2,5.6,14.2,5.6,14.2,5.6z"/>
		<path id="Shape_2_" class="st0" d="M15.7,22.7c-0.3,0-0.5-0.2-0.5-0.5c0-0.3,0.2-0.5,0.5-0.5c1,0,2-0.3,2.9-0.8
			c0.2-0.1,0.6-0.1,0.7,0.2c0.1,0.2,0.1,0.6-0.2,0.7C18.1,22.4,16.9,22.7,15.7,22.7C15.7,22.7,15.7,22.7,15.7,22.7z M12.6,21.8
			c-0.1,0-0.2,0-0.3-0.1c-1-0.6-1.9-1.4-2.5-2.5c-0.1-0.2-0.1-0.6,0.2-0.7c0.2-0.1,0.6-0.1,0.7,0.2c0.5,0.9,1.2,1.6,2.1,2.1
			c0.2,0.1,0.3,0.5,0.2,0.7C13,21.7,12.8,21.8,12.6,21.8z M21.1,19.5c-0.1,0-0.2,0-0.3-0.1c-0.2-0.1-0.3-0.5-0.2-0.7
			c0.5-0.9,0.8-1.9,0.8-2.9v0c0-0.3,0.2-0.5,0.5-0.5s0.5,0.2,0.5,0.5v0c0,1.2-0.3,2.4-0.9,3.4C21.5,19.4,21.3,19.5,21.1,19.5z
			 M9.5,16.4c-0.3,0-0.5-0.2-0.5-0.5h0.5l-0.5,0c0-1.2,0.3-2.4,0.9-3.4c0.1-0.2,0.5-0.3,0.7-0.2c0.2,0.1,0.3,0.5,0.2,0.7
			c-0.5,0.9-0.8,1.8-0.8,2.9C10,16.2,9.8,16.4,9.5,16.4z M21.1,13.3c-0.2,0-0.4-0.1-0.4-0.3c-0.5-0.9-1.2-1.6-2.1-2.1
			c-0.2-0.1-0.3-0.5-0.2-0.7c0.1-0.2,0.5-0.3,0.7-0.2c1,0.6,1.9,1.4,2.5,2.5c0.1,0.2,0.1,0.6-0.2,0.7C21.3,13.3,21.2,13.3,21.1,13.3
			z M12.6,11c-0.2,0-0.4-0.1-0.5-0.3c-0.1-0.2-0.1-0.6,0.2-0.7c1-0.6,2.2-0.9,3.4-0.9c0,0,0,0,0,0c0.3,0,0.5,0.2,0.5,0.5
			c0,0.3-0.2,0.5-0.5,0.5c-1,0-2,0.3-2.9,0.8C12.8,11,12.7,11,12.6,11z"/>
		<circle id="Oval" class="st0" cx="4.3" cy="5.2" r="3"/>
		<path id="Shape_3_" class="st0" d="M4.3,8.7c-1.9,0-3.5-1.6-3.5-3.5s1.6-3.5,3.5-3.5s3.5,1.6,3.5,3.5S6.2,8.7,4.3,8.7z M4.3,2.8
			c-1.4,0-2.5,1.1-2.5,2.5s1.1,2.5,2.5,2.5s2.5-1.1,2.5-2.5S5.7,2.8,4.3,2.8z"/>
		<path id="Path" class="st1" d="M1.8,6.3C1.5,6.3,1.3,6,1.3,5.8c0-1.9,1.6-3.5,3.5-3.5c0.3,0,0.5,0.2,0.5,0.5S5.1,3.3,4.8,3.3
			c-1.4,0-2.5,1.1-2.5,2.5C2.3,6,2.1,6.3,1.8,6.3z"/>
		<circle id="Oval_1_" class="st0" cx="25.4" cy="20.3" r="2.2"/>
		<path id="Shape_4_" class="st0" d="M25.4,23.1c-1.5,0-2.7-1.2-2.7-2.7c0-1.5,1.2-2.7,2.7-2.7c1.5,0,2.7,1.2,2.7,2.7
			C28.1,21.8,26.9,23.1,25.4,23.1z M25.4,18.6c-0.9,0-1.7,0.8-1.7,1.7s0.8,1.7,1.7,1.7s1.7-0.8,1.7-1.7S26.3,18.6,25.4,18.6z"/>
		<path id="Path_1_" class="st1" d="M24.7,22.4c-0.3,0-0.5-0.2-0.5-0.5c0-0.3,0.2-0.5,0.5-0.5c0.9,0,1.7-0.8,1.7-1.7
			c0-0.3,0.2-0.5,0.5-0.5c0.3,0,0.5,0.2,0.5,0.5C27.4,21.2,26.2,22.4,24.7,22.4z"/>
		<circle id="Oval_2_" class="st0" cx="11.3" cy="20.8" r="1.7"/>
		<path id="Shape_5_" class="st0" d="M11.3,23.1c-1.2,0-2.2-1-2.2-2.2c0-1.2,1-2.2,2.2-2.2s2.2,1,2.2,2.2
			C13.5,22.1,12.5,23.1,11.3,23.1z M11.3,19.7c-0.6,0-1.2,0.5-1.2,1.2s0.5,1.2,1.2,1.2c0.6,0,1.2-0.5,1.2-1.2S12,19.7,11.3,19.7z"/>
		<path id="Path_2_" class="st1" d="M11.6,22.5c-1.2,0-2.2-1-2.2-2.2c0-0.3,0.2-0.5,0.5-0.5c0.3,0,0.5,0.2,0.5,0.5
			c0,0.6,0.5,1.2,1.2,1.2c0.3,0,0.5,0.2,0.5,0.5C12.1,22.3,11.9,22.5,11.6,22.5z"/>
		<polygon id="Path_3_" class="st0" points="18,18.3 16.3,17.4 15.2,19.1 14.9,17.2 12.9,17.4 14.2,15.9 12.8,14.6 14.7,14.6 
			14.9,12.7 16.1,14.3 17.7,13.2 17.3,15.1 19.1,15.7 17.3,16.5 		"/>
		<path id="Shape_6_" class="st0" d="M15.2,19.6C15.2,19.6,15.2,19.6,15.2,19.6c-0.3,0-0.5-0.2-0.5-0.4l-0.3-1.4L13,17.9
			c-0.2,0-0.4-0.1-0.5-0.3c-0.1-0.2-0.1-0.4,0.1-0.6l0.9-1.1l-1-1c-0.2-0.2-0.2-0.4-0.1-0.6c0.1-0.2,0.3-0.3,0.5-0.3l1.4,0l0.2-1.4
			c0-0.2,0.2-0.4,0.4-0.4c0.2-0.1,0.4,0,0.6,0.2l0.9,1.2l1.2-0.8c0.2-0.1,0.4-0.1,0.6,0c0.2,0.1,0.3,0.3,0.2,0.6l-0.4,1.4l1.4,0.5
			c0.2,0.1,0.3,0.3,0.4,0.5c0,0.2-0.1,0.4-0.3,0.5L18,16.8l0.5,1.3c0,0.1,0.1,0.2,0.1,0.2c0,0.3-0.2,0.5-0.5,0.5c0,0,0,0,0,0
			c-0.1,0-0.2,0-0.2-0.1l-1.3-0.7l-0.8,1.2C15.6,19.5,15.4,19.6,15.2,19.6z M14.9,16.7c0.2,0,0.5,0.2,0.5,0.4l0.1,0.6l0.3-0.5
			c0.1-0.2,0.4-0.3,0.7-0.2l0.5,0.3l-0.2-0.6c-0.1-0.3,0-0.5,0.3-0.6l0.6-0.2l-0.6-0.2c-0.3-0.1-0.4-0.4-0.3-0.6l0.2-0.6l-0.5,0.3
			c-0.2,0.1-0.5,0.1-0.7-0.1l-0.4-0.5l-0.1,0.6c0,0.3-0.3,0.5-0.5,0.5l-0.6,0l0.4,0.4c0.2,0.2,0.2,0.5,0,0.7l-0.4,0.5L14.9,16.7
			C14.8,16.7,14.8,16.7,14.9,16.7z"/>
	</g>
</g>
</svg>