<?xml version="1.0" encoding="utf-8"?>
<!-- Generator: Adobe Illustrator 22.0.1, SVG Export Plug-In . SVG Version: 6.00 Build 0)  -->
<svg version="1.1" id="Layer_1" xmlns="http://www.w3.org/2000/svg" xmlns:xlink="http://www.w3.org/1999/xlink" x="0px" y="0px"
     viewBox="0 0 50 50" style="enable-background:new 0 0 50 50;" xml:space="preserve">
<style type="text/css">
	.st0{fill:#fff;}
</style>
    <path class="st0" d="M47.5,37.9C47.5,37.9,47.5,37.9,47.5,37.9c-0.4,0.8-0.9,1.5-1.5,2.2c0,0,0,0,0,0c-1.1,1.3-2.5,2.2-4.2,2.7
	L25.2,48c-0.7,0.2-1.5,0.1-2.2-0.3c-0.6-0.4-1.1-1.1-1.1-1.9l-3-32.8l0.7,0.1l1.5,0.1l3,0.2c0.9,0.1,1.7,0.8,1.8,1.6l3.1,24.1
	l6.3-1.4L31.6,14l0.7,0.1l1.1,0.1l2.1,0.2c0.7,0.1,1.3,0.7,1.5,1.3l3.7,20.8l4.8-1.1l-4.2-20.7c-0.5-2.6-2.9-4.9-5.4-5.2L13.6,6.5
	c-0.8-0.1-1.5,0.1-2.1,0.7c-0.6,0.5-0.9,1.3-0.8,2l2,37.2l0.1,2.1l0,0.8C6.4,47.9,1.6,42.7,1.6,35.9L1.4,11.7c0-2.9,1.1-5.4,3-7.1
	C6.1,3,8.4,1.9,11,1.4c2.1-0.4,4.4-0.4,6.7,0.1l17.3,3.4c4.9,0.9,9.3,5.4,10.3,10.2l3.1,14.3C49.2,32.3,48.8,35.4,47.5,37.9z" fill="#fff"/>
</svg>
