<svg enable-background="new 0 0 480 480" viewBox="0 0 480 480" xmlns="http://www.w3.org/2000/svg"><g transform="translate(62 27)"><g fill="none"><path d="m161.9 96.1c-7 2.6-14 5.2-21 7.9-16.9 6.5-34.1 13-51.3 18.1 21.6 1.5 43 5.4 64.3 10.9 25.4-9.8 52-17.3 79-20.2-23.5-6.6-43.6-12-71-16.7z"/><path d="m185.4 333.8c10-3.8 19.9-7.9 29.7-12.1 16.1-6.8 32.5-13.6 49.2-18.8-17.1-1.6-34.7-4.8-52.7-9-27 11.9-54.1 21.5-80.7 26.5 21 6.2 31.4 10.1 54.5 13.4z"/><path d="m175.7 196.4c-22.5 10.3-45.4 20.7-69.9 29.2 22.7 2.8 44.5 7.5 65.2 13.4l3.6-1.5c24.5-10.5 49.3-21.2 75.8-29.4-20.9-4-41.9-10-62.4-17.1-4.1 1.6-8.2 3.5-12.3 5.4z"/></g><path d="m178 10c-114.8 0-207.8 90.9-207.8 203s93 203 207.8 203 207.8-90.9 207.8-203-93-203-207.8-203zm76.1 56.3c-79.6-2.6-161.1 63-233 54.3 51.7-28.8 147.9-102.3 233-54.3zm61.2 54.1c-18.5-5.9-38-8.9-58.3-8.9-8 0-16.1.5-24 1.3-23.6-6.7-43.7-12.1-71.1-16.7 28.4-10.4 57.3-19.4 85.2-19.9 23.6 11.7 46.5 28.4 68.2 44.2zm-161.4 12.6c-18 7-35.3 15.1-51.7 23.6-25-10.6-47.6-19.9-66.5-25.3 17.6-.2 35.7-3.9 53.9-9.3 21.6 1.6 43 5.6 64.3 11zm-163.5 99.8c55.6-24 218.6-165.6 354.8-88.5-137.5-10.3-209.1 96.2-354.8 88.5zm346.5-39.9c-31.3.7-59.7 6.6-86.5 15-20.9-4-41.9-10-62.4-17.1 21.3-9.7 42.3-18.7 64.3-25.5 28.2 10.1 56.3 20.1 84.6 27.6zm-165.8 46c-21 9-41.7 17.8-63 24.9-24.2-7.6-49-15.3-74.4-22 26-2.6 49.8-8.6 72.2-16.3 22.6 2.8 44.4 7.6 65.2 13.4zm-160.3 51.8c136.2.3 214.2-98.2 354.8-87-112.5 54.4-249.9 157.3-354.8 87zm310.5 3.7c-2-.1-4-.1-6-.1-17.2 0-34.2 3.5-51 8.7-17.1-1.6-34.7-4.8-52.7-9 16.2-7.1 32.3-15.1 48.5-23.4 23.7 9.7 44.3 18.6 61.2 23.8zm-216.9 59.3c-23.7-9.6-44.6-23.7-62.6-36.9 15.5 5.1 31.9 7.6 49.3 7.6 13.1 0 26.4-1.4 39.8-3.9 21.1 6 31.4 10 54.5 13.3-23.7 9-48.1 16.1-73.3 16.2-3.1.1-5.8 1.5-7.7 3.7zm7.7 6.3c81.2-.3 149.3-67.4 223.1-54-60.3 32.3-133.9 99.1-223.1 54z" fill="#fff"/></g><path d="m72.8 317.7c136.2.3 214.2-98.2 354.8-87-112.5 54.4-249.9 157.3-354.8 87z" fill="#ededed" opacity=".6"/><path d="m407.2 171.3c-137.5-10.3-209.1 96.2-354.8 88.5 55.6-24 218.6-165.6 354.8-88.5z" fill="#e8e8e8" opacity=".6"/><path d="m316.1 93.3c-79.6-2.6-161.1 63-233 54.3 51.7-28.8 147.9-102.3 233-54.3z" fill="#dedede" opacity=".6"/><path d="m174.1 387c81.2-.3 149.3-67.4 223.1-54-60.3 32.3-133.9 99.1-223.1 54z" fill="#ededed" opacity=".6"/></svg>