<?xml version="1.0" encoding="utf-8"?>
<svg version="1.1" id="Layer_1" xmlns="http://www.w3.org/2000/svg" xmlns:xlink="http://www.w3.org/1999/xlink" x="0px" y="0px"
	 viewBox="0 0 1024 1024" style="enable-background:new 0 0 1024 1024;" xml:space="preserve">
<style type="text/css">
	.st0{fill:#FFFFFF;}
</style>
<path class="st0" d="M712.4,417.6c-48.8-215.4-164.2-286.3-176.6-313.3c-13.6-19.1-27.3-53.2-27.3-53.2c-0.3-0.5-0.6-1.6-1-2.6
	c-1.4,19-2.1,26.5-20.2,45.7c-28,22-171.5,142.3-183.1,387.1c-10.9,228.2,164.9,364.3,188.9,381.6l2.7,1.9l0,0
	c0.2,1.1,7.6,54.4,12.8,110.7h18.6c4.4-39.8,11-79.3,19.7-118.4l1.4-1c10.6-7.6,20.8-15.9,30.3-24.8l1.1-1
	c91-84.2,142-202.9,140.5-326.9C720,474.6,717.4,445.9,712.4,417.6z M506.4,734.1c0,0,0-320.1,10.7-320.1c8.2,0,18.9,413,18.9,413
	C521.4,825.2,506.4,759,506.4,734.1z"/>
</svg>
