<svg enable-background="new 0 0 72 72" viewBox="0 0 72 72" xmlns="http://www.w3.org/2000/svg"><g fill="#fff"><path d="m60.5 60.6v-22.6c0-4.7-2-7.1-5.8-7.1-3.9 0-5.9 2.4-5.9 7.1v22.6h-11.5v-22.6c0-4.7-1.9-7.1-5.8-7.1s-5.8 2.4-5.8 7.1v22.6h-11.6v-24c0-4.9 1.7-8.7 5.1-11.2 3-2.3 7.1-3.4 12.2-3.4 5.2 0 9 1.3 11.5 4 2.1-2.7 6-4 11.6-4 5.1 0 9.2 1.1 12.2 3.4 3.4 2.5 5.1 6.3 5.1 11.2v24z"/><path d="m36.5 20.3 11.4-8.4-.1-.5c-20.6 2.6-30 4.3-47.8 14.6l.2.5h1.4c-.1 1.4-.4 4.9-.1 10.2-2 5.7 0 9.6 1.8 13.8.3-4.4.3-9.2-1.1-14-.3-5.2 0-8.7.1-10l11.8.1s-.1 3.6.4 6.9c10.5 3.7 21.1 0 26.7-9.1-1.6-1.7-4.7-4.1-4.7-4.1z"/></g></svg>