<?xml version="1.0" encoding="utf-8"?>
<svg version="1.1" id="Layer_1" xmlns="http://www.w3.org/2000/svg" xmlns:xlink="http://www.w3.org/1999/xlink" x="0px" y="0px"
	 viewBox="0 0 1024 1024" style="enable-background:new 0 0 1024 1024;" xml:space="preserve">
<style type="text/css">
	.st0{fill:#FFFFFF;}
</style>
<g>
	<g>
		<path class="st0" d="M575,573.6c-8.6-12.3-22.7-22.4-37.6-33.1c-16-11.5-32.4-23.4-40.7-37.2c31.3-6.5,70.8-18.4,72.8-19
			c3.4-1,6.1-3.7,7.1-7.1c1-3.4,0.3-7.1-2-9.8c-2.1-2.5-49.9-58.6-127.3-86.2c-3.4-6.8-7.2-15.6-11.6-25.7
			c-31.2-71.4-95.8-219.7-266.3-239.7c-13.6-9.2-49.2-32-67.1-32c-22.2,0-31.7,9.5-31.7,31.7c0,10.8,8.8,23.4,23.1,43.2
			c7,9.6,18.7,25.7,19.1,30.7c0,17.3,20,73.2,40.2,97.1c-0.6,1.2-1.2,2.5-1.7,3.6c-8.9,18.8-17.4,36.6-17.4,78.6
			c0,55.4,26.5,84.4,52.8,84.4c16.3,0,24.4-18.4,28.3-40.1c14.5,29.4,38.1,67.5,71.2,90.9c4.8,3.4,11.4,2.2,14.7-2.5
			c3.4-4.8,2.2-11.4-2.5-14.7c-52.4-37-80.2-120.4-80.4-121.3c-1.6-4.9-6.6-8-11.7-7.2c-5.1,0.8-8.9,5.2-8.9,10.4
			c0,29-5.5,59.9-10.6,63.3c-15.2,0-31.7-24.2-31.7-63.3c0-37.4,6.8-51.5,15.3-69.6c1.6-3.4,3.2-6.8,4.9-10.5
			c1.9-4.3,0.8-9.2-2.8-12.3c-16.3-14-38.5-73-38.5-87c0-10.8-8.8-23.4-23.1-43.2c-7-9.6-18.7-25.7-19.1-30.7
			c0-10.6,0-10.6,10.6-10.6c8.6,0,36.4,15.5,57.3,29.8c1.4,1,3.1,1.6,4.8,1.8c160.4,17.4,219.9,154,251.9,227.4
			c5.4,12.4,10.1,23,14.3,30.8c1.3,2.4,3.4,4.1,5.9,5c52.6,17.9,91.9,51.2,110.3,69.1c-18,5-46.6,12.7-66.4,16
			c-2.9,0.5-5.5,2.2-7.1,4.6c-1.6,2.5-2.1,5.5-1.4,8.3c6.5,25.9,31.4,43.9,53.3,59.7c13.4,9.7,26.1,18.8,32.7,28.2
			c2.1,2.9,5.3,4.5,8.6,4.5c2.1,0,4.3-0.6,6.1-1.9C577.3,585,578.4,578.4,575,573.6L575,573.6z M165.5,168.3
			c0,5.8,4.7,10.6,10.6,10.6c5.8,0,10.6,4.7,10.6,10.6c0,5.8,4.7,10.6,10.6,10.6c5.8,0,10.6-4.7,10.6-10.6
			c0-17.5-14.2-31.7-31.7-31.7C170.2,157.7,165.5,162.5,165.5,168.3L165.5,168.3z"/>
		<path class="st0" d="M966.5,346.1c-2.5-2.1-5.7-3.2-8.9-3.1c-8.9,0-20.3,6.1-26.4,9.2l-2.5,1.3c-10.3,5-21.5,7.9-33,8.5
			c-11.8,0.4-21.9,1.1-35.1,2.4c-78.3,8.1-113.1,68-146.7,126c-18.3,31.5-37.2,64.1-63.1,89.4c-5.4,5.2-11.1,10-17.1,14.5
			c-26.8,20-60.5,34.1-86.8,44.2c-25.2,9.6-52.7,18.3-79.4,26.7c-24.4,7.7-47.3,14.9-68.5,22.8c-9.6,3.6-17.7,6.1-24.8,8.6
			c-19.3,6.4-33.2,11-53.4,24.9c-7.9,5.4-15.8,11.3-21.4,15.7c-16.1,12.9-30.3,27.9-42.3,44.6c-10.3,15.5-22.1,29.8-35.4,42.7
			c-4.3,4.2-11.9,6.1-23.3,6.1c-13.3,0-29.5-2.7-46.6-5.6c-17.6-3.1-35.9-6.1-51.5-6.1c-12.7,0-22.4,2-29.7,6.3
			c0,0-12.2,7.1-17.4,16.4l5.1,2.3c7.8,4.2,15.1,9.4,21.7,15.5c6.8,6.3,14.3,11.7,22.5,16c2.6,1,5,2.6,6.9,4.6
			c-2.1,3.1-5.3,7.1-8.5,11.4c-18.1,23.6-28.6,38.6-22.6,46.7c2.8,1.5,6,2.2,9.2,2.1c39.4,0,60.5-10.2,87.3-23.2
			c7.8-3.5,15.9-7.4,25-11.4c15.6-6.8,32.5-17.6,50.3-29.1c23.6-15.3,48-30.9,71.7-38.5c19.5-6,39.8-8.8,60.2-8.5
			c25.1,0,51.4,3.4,76.8,6.6c19,2.4,38.6,4.9,57.8,6.1c7.5,0.4,14.4,0.6,21.1,0.6c9,0,18-0.4,27-1.4l2.1-0.8
			c13.5-8.3,19.8-26.1,25.9-43.3c3.9-11.1,7.2-21,12.4-27.5c0.3-0.3,0.7-0.6,1-0.8c0.5-0.3,1.1-0.2,1.5,0.2c0,0,0,0,0,0.5
			c-3.2,67.3-30.2,109.9-57.6,148l-18.3,19.6c0,0,25.6,0,40.2-5.6C625,916,665.1,880.9,694.3,825c7.2-14.3,13.6-29.1,19.3-44.1
			c0.5-1.3,5.1-3.6,4.7,3.1c0,1.9-0.3,4.1-0.4,6.1l0,0c0,1.3-0.2,2.7-0.2,4c-0.8,9.3-3.1,29.2-3.1,29.2l16.4-8.8
			c39.7-25.1,70.2-75.5,93.3-154.1c9.6-32.7,16.7-65.2,22.9-93.9c7.4-34.3,13.9-63.9,21.4-75.3c11.5-17.9,29.2-30.1,46.2-41.9l7-4.9
			c21.4-15,42.7-32.4,47.4-64.8V379C972.7,355.1,969.8,348.9,966.5,346.1z"/>
	</g>
	<path class="st0" d="M756,351c-2,0-4.1-0.9-5.5-2.6c-26.7-33.2-61.1-60.5-99.6-79s-81.3-28.2-124-28.2c-30.4,0-60.5,4.8-89.5,14.3
		c-3.7,1.2-7.6-0.8-8.8-4.5c-1.2-3.7,0.8-7.6,4.5-8.8c30.3-10,61.9-15,93.8-15c44.7,0,89.7,10.2,130,29.6
		c40.4,19.3,76.5,48,104.5,82.8c2.4,3,1.9,7.4-1.1,9.8C759.1,350.4,757.6,351,756,351z"/>
	<path class="st0" d="M275.4,712.6c-2,0-4-0.9-5.4-2.5c-22-26.2-39.2-55.8-51.2-87.8c-12-32-18.5-65.6-19.2-99.8
		c-0.1-3.9,3-7.1,6.8-7.2c3.9-0.1,7.1,3,7.2,6.8c0.7,32.6,6.9,64.6,18.4,95.2c11.5,30.5,27.9,58.7,48.8,83.7c2.5,3,2.1,7.4-0.9,9.9
		C278.6,712.1,277,712.6,275.4,712.6z"/>
</g>
</svg>
