<?xml version="1.0" encoding="utf-8"?>
<!-- Generator: Adobe Illustrator 28.1.0, SVG Export Plug-In . SVG Version: 6.00 Build 0)  -->
<svg version="1.1" id="Layer_1" xmlns="http://www.w3.org/2000/svg" xmlns:xlink="http://www.w3.org/1999/xlink" x="0px" y="0px"
	 viewBox="0 0 243.7 243.7" style="enable-background:new 0 0 243.7 243.7;" xml:space="preserve">
<style type="text/css">
	.st0{fill:none;}
	.st1{fill:#FFFFFF;}
</style>
<g>
	<polygon class="st0" points="71.1,94.9 71.1,95 102.3,95 102.2,94.9 	"/>
	<polygon class="st0" points="141.4,95 171.1,95 171.1,94.9 141.3,94.9 	"/>
	<path class="st1" d="M122.6,0H5.5v90.5v4.4v95H106l56.7,52.5v-52.5h77V98.5V95V0H122.6z M199.1,95v3.5v47.3h-42.4l-34.1-31.9
		l-20.4-19h0L71.1,65.8v25.9v3.2v50.9H43V94.9v-4.4V44.2h43.9l35.7,33.3l16.1,15l0,0l32.4,30.2V94.9v-3.6V44.2h28V95z"/>
</g>
</svg>
