<?xml version="1.0" encoding="UTF-8"?><svg id="Layer_1" xmlns="http://www.w3.org/2000/svg" viewBox="0 0 243.7 243.7"><defs><style>.cls-1{fill:#fff;}</style></defs><path class="cls-1" d="M160.66,22.97c-42.37,0-70.7,24.61-70.7,72.51v34.09c4.2-2.04,8.76-3.12,13.68-3.12s9.6,1.2,13.8,3.24v-34.21c0-30.97,17.05-46.94,43.22-46.94s43.22,15.97,43.22,46.94v74.55h27.49v-74.55c0-48.14-28.45-72.51-70.7-72.51h0Z"/><path class="cls-1" d="M24.77,99.68c-3.6,1.8-6.96,4.8-9.36,8.76s-3.36,8.16-3,12.36c.36,7.56,4.56,14.53,11.4,18.37,6.36,3.6,13.56,2.76,20.41,1.2,8.4-2.16,15.61-3,23.17,1.56h.36c12.96,7.56,12.96,26.53,0,34.09h-.36c-7.56,4.56-14.77,3.6-23.17,1.56-6.6-1.8-13.8-2.76-20.41,1.2-6.96,3.96-10.8,11.16-11.4,18.37-.36,4.2.6,8.4,3,12.36s5.4,6.96,9.36,8.76c6.6,3.36,14.77,3.36,21.61-.6,6.36-3.6,9.36-10.56,11.16-17.17,2.4-8.4,5.16-15.13,12.96-19.33,7.56-4.56,14.77-3.6,23.17-1.56,6.6,1.8,13.8,2.76,20.41-1.2,6.96-3.96,10.8-11.16,11.4-18.37v-3.12c-.36-7.56-4.56-14.53-11.4-18.37-6.36-3.6-13.56-2.76-20.41-1.2-8.4,2.16-15.61,3-23.17-1.56s-10.56-10.92-12.96-19.33c-1.8-6.6-4.8-13.32-11.16-17.17-6.96-2.88-15.01-2.88-21.61.36Z"/></svg>