<?xml version="1.0" encoding="utf-8"?>
<!-- Generator: Adobe Illustrator 27.7.0, SVG Export Plug-In . SVG Version: 6.00 Build 0)  -->
<svg version="1.1" id="Layer_1" xmlns="http://www.w3.org/2000/svg" xmlns:xlink="http://www.w3.org/1999/xlink" x="0px" y="0px"
	 viewBox="0 0 72 50" style="enable-background:new 0 0 72 50;" xml:space="preserve">
<style type="text/css">
	.st0{fill:#FFFFFF;}
</style>
<path class="st0" d="M42.1,43.4c-2.4,0.7-5,1-7.7,0.6c-4.9-0.7-9.1-3.4-11.8-7.2c-1.1-1.5-1.9-3.2-2.5-5.1c0.1,0,0.2,0,0.3,0
	c0.4,0,0.9-0.1,1.3-0.2c0.7,2,1.7,3.9,3.1,5.5c2.4,2.8,5.8,4.8,9.8,5.4c2.3,0.3,4.6,0.2,6.8-0.5C41.6,42.4,41.8,42.9,42.1,43.4
	L42.1,43.4z"/>
<path class="st0" d="M44.9,16.4c0.1,0,0.2,0,0.2,0c0.3,0,0.6,0.1,0.8,0.1c2.8,0,5.2-2.1,5.6-4.9c0.2-1.5-0.2-3-1.1-4.2
	c-0.9-1.2-2.2-2-3.7-2.2c-0.3,0-0.6-0.1-0.8-0.1c-2.8,0-5.2,2.1-5.6,4.9c-0.2,1.5,0.2,3,1.1,4.2c0.1,0.1,0.1,0.1,0.2,0.2
	c0.4,0.5,0.5,1.3,0.1,1.8c-0.3,0.4-0.8,0.7-1.3,0.7c-0.1,0-0.3,0-0.4-0.1c-0.5-0.1-1-0.2-1.4-0.3c-0.5-0.1-1-0.1-1.5-0.1
	c-4.7,0-8.9,3.4-9.8,8c-0.1,0.7-0.7,1.1-1.3,1.2c-0.1,0-0.1,0-0.2,0c-0.6,0-1.2-0.3-1.4-0.9c-0.1-0.3-0.3-0.5-0.4-0.7
	c-0.7-0.9-1.6-1.5-2.7-1.6c-0.2,0-0.4,0-0.6,0c-2,0-3.8,1.5-4.1,3.5c-0.2,1.1,0.1,2.2,0.8,3.1c0.7,0.9,1.6,1.5,2.7,1.6
	c0.2,0,0.4,0,0.6,0c1.6,0,3.1-0.9,3.8-2.4c0.3-0.6,0.8-0.9,1.4-0.9c0.1,0,0.1,0,0.2,0c0.7,0.1,1.2,0.6,1.3,1.2
	c0.9,4.1,4.2,7.3,8.4,7.9c0.5,0.1,1,0.1,1.5,0.1c1.3,0,2.6-0.3,3.9-0.8c0.2-0.1,0.4-0.1,0.6-0.1c0.4,0,0.9,0.2,1.2,0.5
	c0.4,0.5,0.5,1.2,0.2,1.8c-0.3,0.5-0.5,1.1-0.6,1.6c-0.4,2.5,1.4,4.9,3.9,5.3c0.2,0,0.5,0.1,0.7,0.1l0,0c2.3,0,4.3-1.7,4.6-4
	c0.4-2.5-1.4-4.9-3.9-5.3c-0.2,0-0.5-0.1-0.7-0.1c-0.3,0-0.6,0-0.9,0.1c-0.1,0-0.2,0-0.3,0c-0.5,0-1.1-0.3-1.3-0.8
	c-0.3-0.6-0.3-1.3,0.2-1.8c1.3-1.5,2.1-3.3,2.4-5.2c0.4-2.7-0.3-5.3-1.9-7.5c-0.4-0.5-0.8-1-1.3-1.4c-0.5-0.5-0.6-1.2-0.3-1.8
	C43.7,16.7,44.3,16.4,44.9,16.4z M45.8,26.5c0,4.9-3.9,8.8-8.8,8.8s-8.8-3.9-8.8-8.8s3.9-8.8,8.8-8.8S45.8,21.6,45.8,26.5z"/>
<path class="st0" d="M33,21.8h2.3l2.8,4.7c0.1,0.3,0.6,1.2,0.6,1.2h0c0,0,0-1.1,0-1.4v-4.4H41v9.3h-2.3l-2.7-4.6
	c-0.2-0.2-0.7-1.2-0.7-1.2h0c0,0,0,1.2,0,1.5v4.3H33L33,21.8L33,21.8z"/>
</svg>
