<?xml version="1.0" encoding="utf-8"?>
<svg version="1.1" id="Layer_1" xmlns="http://www.w3.org/2000/svg" xmlns:xlink="http://www.w3.org/1999/xlink" x="0px" y="0px"
	 viewBox="0 0 1024 1024" style="enable-background:new 0 0 1024 1024;" xml:space="preserve">
<style type="text/css">
	.st0{fill:#FFFFFF;}
</style>
<g>
	<path class="st0" d="M512.7,212.3c-94.8,0-175.2,64.3-200.1,151.4c-21.6-46.2-68.5-78.5-122.6-78.5c-74.3,0-135.4,61.1-135.4,135.4
		S115.7,556,190,556c54,0,100.9-32.4,122.6-78.6c24.9,87.1,105.3,151.4,200.1,151.4c94.1,0,174-63.3,199.6-149.4
		c22,45.1,68.4,76.6,121.6,76.6c74.3,0,135.4-61.1,135.4-135.4s-61.1-135.4-135.4-135.4c-53.3,0-99.6,31.5-121.6,76.6
		C686.7,275.6,606.8,212.3,512.7,212.3L512.7,212.3z M512.7,291.8c71.6,0,128.7,57.1,128.7,128.7s-57.2,128.7-128.7,128.7
		C441.1,549.2,384,492,384,420.5S441.1,291.8,512.7,291.8z M190.1,364.6c31.4,0,55.9,24.6,55.9,55.9c0,31.4-24.6,55.9-55.9,55.9
		c-31.4,0-55.9-24.6-55.9-55.9S158.7,364.6,190.1,364.6z M833.9,364.6c31.4,0,55.9,24.6,55.9,55.9c0,31.4-24.6,55.9-55.9,55.9
		c-31.4,0-55.9-24.6-55.9-55.9S802.6,364.6,833.9,364.6z"/>
	<g transform="matrix(.47038519 0 0 .47038519 21.389201 50.75959)">
		<path class="st0" d="M567.7,1432.1c47.4,0,73.9,33.7,73.9,84.3c0,4.8-4,8.8-8.8,8.8H505.1c0.8,45,32.1,70.7,68.3,70.7
			c22.5,0,38.5-9.6,46.6-16.1c4.8-3.2,8.8-2.4,11.2,2.4l2.4,4c2.4,4,1.7,8.1-2.4,11.2c-9.5,7.4-30.5,19.3-58.6,19.3
			c-52.2,0-92.7-37.7-92.4-92.4C480.6,1466.6,519.6,1432.1,567.7,1432.1L567.7,1432.1z M616.7,1507.6c-1.6-36.9-24.1-55.4-49.8-55.4
			c-29.7,0-55.4,19.3-61,55.4H616.7z"/>
		<path class="st0" d="M882.8,1457.8V1396c0-5.6,3.2-8.8,8.8-8.8h6.4c5.6,0,8,3.2,8,8.8v41.8h36.1c5.6,0,8.8,3.2,8.8,8.8v2.4
			c0,5.6-3.2,8-8.8,8H906v88.3c0,41,24.9,45.4,38.5,46.6c7.2,0.6,9.6,2.4,9.6,8.8v4.8c0,5.6-2.4,8-9.6,8c-38.5,0-61.8-23.3-61.8-65
			L882.8,1457.8z"/>
		<path class="st0" d="M1066.7,1432.1c30.5,0,49.8,12.9,58.6,20.1c4,3.2,4.8,7.2,0.8,12l-2.4,4c-3.2,4.8-7.3,4.9-12,1.6
			c-8.1-5.5-23.3-16.1-44.2-16.1c-38.5,0-69.1,28.9-69.1,71.5c0,41.8,30.5,70.7,69.1,70.7c24.9,0,41.8-11.2,49.8-18.5
			c4.8-3.2,8-2.4,11.2,2.4l2.4,3.2c2.4,4.8,1.6,8-2.4,12c-8.8,7.2-30.5,22.5-62.6,22.5c-52.2,0-92.8-37.7-92.4-92.4
			C973.9,1470.6,1014.5,1432.1,1066.7,1432.1L1066.7,1432.1z"/>
		<path class="st0" d="M1173.5,1375.1c0-5.6-3.2-8.8,2.4-8.8h6.4c5.6,0,14.5,3.2,14.5,8.8V1567c0,22.5,10.4,24.9,18.5,25.7
			c4,0,7.2,2.4,7.2,8v5.6c0,5.6-2.4,8.8-8.8,8.8c-14.5,0-40.2-4.8-40.2-43.4V1375.1z"/>
		<path class="st0" d="M1338.1,1432.1c51.4,0,93.2,39.4,93.2,91.6c0,53-41.8,93.2-93.2,93.2c-51.4,0-93.2-40.2-93.2-93.2
			C1245,1471.4,1286.7,1432.1,1338.1,1432.1z M1338.1,1595.9c37.7,0,68.3-30.5,68.3-72.3c0-40.2-30.5-69.9-68.3-69.9
			c-37.8,0-69.4,30.5-69.1,69.9C1269.5,1564.6,1300.4,1595.9,1338.1,1595.9z"/>
		<path class="st0" d="M1738.9,1432.1c42.6,0,57.8,35.3,57.8,35.3h0.8c0,0-0.8-5.6-0.8-13.7v-79.5c0-5.6-2.4-8.8,3.2-8.8h6.4
			c5.6,0,14.5,3.2,14.5,8.8v228.9c0,5.6-2.4,8.8-8,8.8h-5.6c-5.6,0-8.8-2.4-8.8-8v-13.7c0-6.4,1.6-11.2,1.6-11.2h-0.8
			c0,0-15.3,36.9-61,36.9c-47.4,0-76.3-37.8-77.1-92.4C1660.2,1469,1692.3,1432.1,1738.9,1432.1L1738.9,1432.1z M1739.7,1595.9
			c29.7,0,57-20.9,57-71.5c0-36.1-18.5-70.7-56.2-70.7c-31.3,0-57.4,25.7-57,70.7C1683.8,1567.8,1706.7,1595.9,1739.7,1595.9z"/>
		<path class="st0" d="M273.3,1612.8h6.4c5.6,0,8.8-3.2,8.8-8.8v-172.4c0-27.3,29.7-46.8,63.4-46.8s63.4,19.5,63.4,46.8V1604
			c0,5.6,3.2,8.8,8.8,8.8h6.4c5.6,0,8-3.2,8-8.8v-173.5c0-45.8-45.8-68.3-87.5-68.3c-40.2,0-85.9,22.5-85.9,68.3V1604
			C265.2,1609.6,267.6,1612.8,273.3,1612.8L273.3,1612.8z"/>
		<path class="st0" d="M1613.6,1436.1h-6.4c-5.6,0-8.8,3.2-8.8,8.8v97.2c0,27.3-17.7,52.2-52.2,52.2c-33.7,0-52.2-24.9-52.2-52.2
			v-97.2c0-5.6-3.2-8.8-8.8-8.8h-6.4c-5.6,0-8,3.2-8,8.8v103.6c0,45.8,33.7,68.3,75.5,68.3s75.5-22.5,75.5-68.3v-103.6
			C1622.4,1439.3,1619.2,1436.1,1613.6,1436.1z"/>
		<path class="st0" d="M818.6,1434.8c-2,0.3-3.9,1.6-5.7,3.8l-56.8,67.7l-56.8-67.7c-1.8-2.2-3.9-3.3-6-3.5s-4.3,0.6-6.5,2.4
			l-4.9,4.1c-4.3,3.6-4.1,7.6-0.5,11.9l59.5,70.9l-39.5,47c0,0,0,0.1-0.1,0.1l-19.9,23.7c-3.6,4.3-3.2,8.8,1.1,12.5l4.9,4.1
			c4.3,3.6,8.2,2.7,11.8-1.6l56.8-67.7l36.8,43.9c0,0,0.1,0,0.1,0.1l19.9,23.7c3.6,4.3,8.1,4.7,12.4,1.1l4.9-4.1
			c4.3-3.6,4.1-7.6,0.5-11.9l-59.5-70.9l39.5-47c0,0,0-0.1,0.1-0.1l19.9-23.7c3.6-4.3,3.2-8.8-1.1-12.5l-4.9-4.1
			C822.6,1435.1,820.6,1434.5,818.6,1434.8L818.6,1434.8z"/>
	</g>
</g>
</svg>
