<svg enable-background="new 0 0 72 72" viewBox="0 0 72 72" xmlns="http://www.w3.org/2000/svg"><path d="m.5 38.1c0-9.9 8.3-18 18.6-18 4.3 0 8.5 1.3 11.9 4v4c-9.2-9.4-27.4-4.1-27.4 10 0 14.1 18.2 19.5 27.4 10v4c-3.3 2.7-7.5 4-11.9 4-10.3 0-18.6-8-18.6-18zm60.1-10.5c6 0 10.9-4.9 10.9-10.9s-4.8-11-10.9-11-10.9 4.9-10.9 10.9c0 1.2.2 2.3.5 3.4l-22.5 12.5c-2-3-5.3-4.9-9.1-4.9-6 0-10.9 4.9-10.9 10.9s4.9 10.9 10.9 10.9c3.5 0 6.6-1.6 8.6-4.2l19.2 9.4v.7c0 6 4.9 10.9 10.9 10.9s10.9-4.9 10.9-10.9-4.9-10.9-10.9-10.9c-4.3 0-8.1 2.5-9.8 6.2l-18.4-9c.3-1 .4-2 .4-3.1 0-.8-.1-1.5-.2-2.2l22.9-12.7c2 2.5 5 4 8.4 4z" fill="#fff"/></svg>