<svg id="af44b410-a7c4-4399-8e73-bd6d374b2e01" data-name="Layer 1" xmlns="http://www.w3.org/2000/svg" viewBox="0 0 1024 1024">
  <defs>
    <style>
      .e359a61e-7dd5-4188-8c6e-e1e421ce0fe8 {
        fill: #fff;
      }
    </style>
  </defs>
  <g>
    <g>
      <path class="e359a61e-7dd5-4188-8c6e-e1e421ce0fe8" d="M846.64,502.2,645.42,301,559.72,409.8l92.4,92.4a22,22,0,0,1,0,31L625.4,559.91s18,27,18.85,28.6c4.15,8.34,5.16,27.93-6.64,36.86L427.45,786.72c-.05,54.14-.13,165.47,0,165.52s419.23-419,419.23-419A22,22,0,0,0,846.64,502.2Z"/>
      <path class="e359a61e-7dd5-4188-8c6e-e1e421ce0fe8" d="M379.29,527.52a22,22,0,0,1,0-30.95l26.76-26.76-18.3-26.29a28.82,28.82,0,0,1,6.05-39.12L604,243l.15-165.42-.12-.07-.11-.14L184.79,496.57a22,22,0,0,0,0,31L386,728.75,471.71,620Z"/>
    </g>
    <path class="e359a61e-7dd5-4188-8c6e-e1e421ce0fe8" d="M709.94,175.4a10.93,10.93,0,0,1,9.59,6c3.2,6.59-1.42,12.47-4,15.71L531.39,430.89c-1.87,2.36-2,7.43-.31,9.87,1,1.44,99.44,144.25,102.82,149.1,4.84,7,4.38,24.91-5.26,32.22L332.51,849.43c-4.16,3.18-7.25,4.92-11.56,5a11.38,11.38,0,0,1-9.06-5.95c-3.24-6.59,1.62-12.85,3.95-15.85L500,598.91c1.89-2.53,2.08-7.35.38-9.92L397.56,441.18a24.7,24.7,0,0,1,5.16-33.5L698.91,180.3c4.45-3.48,7.65-4.9,11-4.9m0-.77c-3.55,0-6.89,1.46-11.5,5.06L402.25,407.06a25.45,25.45,0,0,0-5.32,34.56l102.78,147.8c1.52,2.3,1.33,6.78-.35,9L315.23,832.12c-2.43,3.13-7.48,9.66-4,16.66a12.15,12.15,0,0,0,9.7,6.37c4.61,0,7.91-1.93,12.07-5.11L629.11,622.69c10.24-7.75,10.27-26.28,5.42-33.27-3.42-4.91-102.82-149.1-102.82-149.1-1.52-2.16-1.38-6.87.28-9L716.17,197.58c2.41-3.07,7.48-9.43,4.05-16.52a11.71,11.71,0,0,0-10.28-6.43Z"/>
    <path class="e359a61e-7dd5-4188-8c6e-e1e421ce0fe8" d="M623.91,592.15c2.38,3.61,4.53,17.3-1.47,21.82L326.26,841.34c-2.49,1.91-4.09,2.83-4.8,2.78-1,0-.28-1.76,2.43-5.27L508,605.24c4.66-6,5-15.9.7-22L405.93,435.29S621.53,588.52,623.91,592.15Z"/>
    <path class="e359a61e-7dd5-4188-8c6e-e1e421ce0fe8" d="M623.91,592.15,522.7,446.56c-4.3-6.17-4-16.07.64-21.94L707.48,190.86c2.74-3.48,3.45-5.22,2.46-5.22-.73,0-2.35.85-4.8,2.8L409,415.78a14.45,14.45,0,0,0-3,19.51Z"/>
  </g>
</svg>