<?xml version="1.0" encoding="utf-8"?>
<svg version="1.1" id="Layer_1" xmlns="http://www.w3.org/2000/svg" xmlns:xlink="http://www.w3.org/1999/xlink" x="0px" y="0px"
	 viewBox="0 0 72 72" style="enable-background:new 0 0 72 72;" xml:space="preserve">
<style type="text/css">
	.st0{fill:#FFFFFF;}
</style>
<path class="st0" d="M68.1,43.7c-0.1-0.3-0.4-0.5-0.7-0.5c-0.2,0-0.3,0.1-0.6,0.2L65.7,44l-1.4,0.8l-1.5,0.8l-2.4,1.3l-3.3,1.8
	l-3.2,1.7l-0.6,0.3l-4.1,2.2l-1,0.5c-0.4,0.2-0.6,0.5-0.6,0.9s0.2,0.7,0.6,0.9l0.2,0.1l1.3,0.7l1.9,1.1l1.5,0.8
	c0.2,0.1,0.3,0.3,0.4,0.5v0.2c0,0.1-0.1,0.3-0.2,0.4l-4.8,4.8l-1,1l-1,1l-0.6,0.6c-0.3,0.3-0.4,0.7-0.3,1s0.4,0.5,0.7,0.5
	c0.2,0,0.3,0,0.6-0.2H47l1-0.5l0.1-0.1l1.3-0.7l1.5-0.8l14.6-7.7c0.4-0.2,0.6-0.5,0.6-0.9s-0.2-0.7-0.6-0.9l-4.8-2.8
	c-0.2-0.1-0.3-0.3-0.3-0.5s0-0.4,0.2-0.6l4.8-4.8l1-1l1-1l0.6-0.6C68.1,44.3,68.2,44,68.1,43.7z"/>
<path class="st0" d="M68.5,46.9l-0.9,0.9l-1,1l-0.1,0.1c1.3,1.9,2.1,4.2,2.1,6.6c0,6.5-5.3,11.8-11.8,11.8c-2.2,0-4.3-0.6-6.1-1.7
	l-1.5,0.8L47.9,67l-0.1,0.1c2.5,1.9,5.6,3.1,9,3.1c8.1,0,14.7-6.6,14.7-14.7C71.4,52.3,70.3,49.3,68.5,46.9z"/>
<path class="st0" d="M63.3,42.9l0.4-0.2c-0.6-0.3-1.3-0.7-2-0.9c-1.4-0.5-2.9-0.8-4.5-0.9c-0.2,0-0.3,0-0.5,0
	c-1.1,0-2.1,0.1-3.2,0.4c-1.3,0.3-2.5,0.7-3.7,1.4c-0.2,0.1-0.4,0.2-0.6,0.3c-1.7,1-3.3,2.4-4.5,4c-1.1,1.6-2,3.3-2.4,5.3
	c-0.2,1.1-0.4,2.2-0.4,3.3c0,1.9,0.4,3.7,1,5.4c0,0.1,0,0.1,0.1,0.2c0,0,0,0.1,0.1,0.1c0.5,1.1,1.1,2.2,1.8,3.2
	c0.2,0.2,0.3,0.4,0.5,0.6c0.2,0.3,0.5,0.6,0.8,0.8l1-1l1-1c-0.1-0.1-0.2-0.3-0.4-0.4c-0.2-0.2-0.4-0.5-0.6-0.7
	c-0.7-1-1.3-2.1-1.8-3.2v-0.1c-0.4-1.2-0.6-2.5-0.6-3.8c0-2.7,0.9-5.2,2.5-7.1c0.7-0.9,1.5-1.7,2.4-2.3c1.1-0.8,2.3-1.4,3.7-1.8
	c1-0.3,2-0.4,3-0.4h0.2h0.5c1.1,0,2.2,0.3,3.2,0.6l1.4-0.8L63.3,42.9z"/>
<path class="st0" d="M2.2,58.1h25.1c0,0-4.8-21.9,11.1-30.7c3.5-1.7,14.5-8,32.5,5.4c0.6-0.5,1.1-0.9,1.1-0.9S55.5,15.4,37.1,17.2
	C27.9,18,16.5,26.4,9.8,37.5S2.2,58.1,2.2,58.1z M2.2,58.1h25.1c0,0-4.8-21.9,11.1-30.7c3.5-1.7,14.5-8,32.5,5.4
	c0.6-0.5,1.1-0.9,1.1-0.9S55.5,15.4,37.1,17.2C27.9,18,16.5,26.4,9.8,37.5S2.2,58.1,2.2,58.1z M2.2,58.1h25.1
	c0,0-4.8-21.9,11.1-30.7c3.5-1.7,14.5-8,32.5,5.4c0.6-0.5,1.1-0.9,1.1-0.9S55.5,15.4,37.1,17.2C27.8,18,16.5,26.4,9.8,37.5
	S2.2,58.1,2.2,58.1z M54.5,19l0.1-2.1c-0.3-0.2-1.1-0.5-3.1-1.1l-0.1,2.1C52.4,18.2,53.5,18.6,54.5,19z M51.5,25.7l-0.1,2
	c1,0,2.1,0.2,3.1,0.4l0.1-2C53.5,25.9,52.5,25.8,51.5,25.7z M39.7,15.8H40l-0.6-1.9c-1,0-2,0.1-3,0.2L37,16
	C37.9,15.9,38.8,15.8,39.7,15.8z M41.2,27.5l0.7,2.2c0.9-0.4,1.8-0.8,2.8-1.1L44,26.5C43,26.8,42,27.2,41.2,27.5z M26.8,19.2
	L25.4,17c-0.8,0.4-1.6,0.9-2.5,1.4l1.5,2.2C25.2,20.1,26,19.6,26.8,19.2z M33.3,33.5l1.5,2.3c0.5-0.8,1.2-1.5,1.9-2.3l-1.4-2.2
	C34.6,32,33.9,32.7,33.3,33.5z M28.7,43.7l2.6,2c0.1-1.2,0.3-2.5,0.7-3.7l-2.3-1.8C29.3,41.4,29,42.5,28.7,43.7z M14.8,28.6l-2.3-2
	c-0.8,0.8-1.5,1.6-2.3,2.4l2.4,2.1C13.3,30.3,14.1,29.4,14.8,28.6z M5.2,42.8l-3.7-1.3c-0.6,1.4-1.3,3-1.6,3.8l3.7,1.3
	C4.1,45.5,4.7,44,5.2,42.8z M28.3,51.7c0.1,1.7,0.2,3,0.4,4l3.8,1.4c-0.3-1.2-0.6-2.6-0.8-4.1L28.3,51.7z"/>
</svg>