<?xml version="1.0" encoding="utf-8"?>
<svg version="1.1" id="Layer_1" xmlns="http://www.w3.org/2000/svg" xmlns:xlink="http://www.w3.org/1999/xlink" x="0px" y="0px"
	 viewBox="0 0 72 72" style="enable-background:new 0 0 72 72;" xml:space="preserve">
<style type="text/css">
	.st0{fill:#FFFFFF;}
</style>
<path class="st0" d="M71.5,55.5c0,8.1-6.6,14.7-14.7,14.7c-3.3,0-6.4-1.2-8.8-3l-1,0.5h-0.1c-0.3,0.2-0.4,0.2-0.6,0.2
	c-0.3,0-0.6-0.2-0.7-0.5s0-0.7,0.3-1l0.6-0.6l6.8-6.8c0.1-0.1,0.2-0.3,0.2-0.4c0,0,0-0.1,0-0.2c-0.1-0.2-0.2-0.4-0.4-0.5l-1.5-0.8
	L49.7,56l-1.3-0.7l-0.2-0.1c-0.4-0.2-0.6-0.5-0.6-0.9s0.2-0.7,0.6-0.9l1-0.5l4.1-2.2l0.6-0.3l3.2-1.7l3.3-1.8l2.4-1.3l1.5-0.8
	l1.4-0.8l1.1-0.6c0.3-0.1,0.4-0.2,0.6-0.2c0.3,0,0.6,0.2,0.7,0.5s0,0.6-0.1,1.1l-0.6,0.6l-2,2l-4.8,4.8c-0.2,0.2-0.2,0.4-0.2,0.6
	s0.1,0.4,0.3,0.5l4.8,2.8c0.4,0.2,0.6,0.5,0.6,0.9s-0.2,0.7-0.6,0.9l-14.6,7.7l-0.1,0.1c1.8,1.1,3.8,1.6,6,1.6
	c6.5,0,11.8-5.3,11.8-11.8c0-2.4-0.8-4.7-2.1-6.6l0.1-0.1l1-1l0.9-0.9C70.3,49.3,71.4,52.3,71.5,55.5z M46.2,65.9l2-2
	c-0.1-0.1-0.2-0.3-0.4-0.4c-0.2-0.2-0.4-0.5-0.6-0.7c-0.7-1-1.3-2.1-1.8-3.2v-0.1c-0.4-1.2-0.6-2.5-0.6-3.8c0-2.7,0.9-5.2,2.5-7.1
	c0.7-0.9,1.5-1.7,2.4-2.3c1.1-0.8,2.3-1.4,3.7-1.8c1-0.3,2-0.4,3-0.4h0.2h0.5c1.1,0,2.2,0.3,3.2,0.6l1.4-0.8l1.6-1l0.4-0.2
	c-0.6-0.3-1.3-0.7-2-0.9c-1.4-0.5-2.9-0.8-4.5-0.9h-0.5c-1.1,0-2.1,0.1-3.2,0.4c-1.3,0.3-2.5,0.7-3.7,1.4c-0.2,0.1-0.4,0.2-0.6,0.3
	c-1.7,1-3.3,2.4-4.5,4c-1.1,1.6-2,3.3-2.4,5.3c-0.2,1.1-0.4,2.2-0.4,3.3c0,1.9,0.4,3.7,1,5.4c0,0.1,0,0.1,0.1,0.2c0,0,0,0.1,0.1,0.1
	c0.5,1.1,1.1,2.2,1.8,3.2c0.2,0.2,0.3,0.4,0.5,0.6C45.6,65.4,45.9,65.7,46.2,65.9z M27.8,53.1V23.6c0-0.4-0.3-0.7-0.8-0.7h-3.3
	c-0.4,0-0.7,0.3-0.7,0.7v29.5c0,2.3-2.4,4.5-6.2,2.6l-7.1-4.1c-0.3-0.1-0.4-0.4-0.4-0.7V21c0-0.3,0.2-0.6,0.4-0.7l25.9-15
	c0.2-0.1,0.6-0.1,0.8,0l25.9,15c0.3,0.2,0.4,0.4,0.4,0.7v18.8c0.7,0.2,1.3,0.5,1.7,0.7l1.6,0.8l0.2-0.1h0.1c0.1,0,0.6-0.3,1.2-0.3
	V21c0-1.9-1-3.7-2.7-4.7l-25.9-15c-1.7-0.9-3.7-0.9-5.4,0l-25.9,15c-1.7,1-2.7,2.8-2.7,4.7v30c0,1.9,1,3.7,2.7,4.7l6.8,3.9
	c3.3,1.6,4.5,1.6,6,1.6C25,61.2,27.8,58.3,27.8,53.1z M50.4,39.9c0.9-0.4,1.7-0.6,2.6-0.8c1.1-0.3,2.2-0.4,3.3-0.4
	c-1.3-3-5-4.1-11.1-4.9c-8.1-1.1-8.9-1.6-8.9-3.5c0-1.6,0.7-3.6,6.7-3.6c5.3,0,7.3,1.2,8.1,4.8c0.1,0.3,0.4,0.6,0.7,0.6h3.4
	c0.2,0,0.4-0.1,0.5-0.2c0.1-0.2,0.2-0.4,0.2-0.6c-0.5-6.2-4.6-9.1-13-9.1c-7.4,0-11.8,3.1-11.8,8.4c0,5.7,4.4,7.2,11.5,7.9
	C46.9,38.8,49.2,39.3,50.4,39.9z M34.4,40.5H31c-0.4,0-0.7,0.3-0.7,0.7c0,3.9,1.9,8.4,10.2,9.4c0.5-1.7,1.2-3.1,2.1-4.4
	c-5.6-0.2-6.9-2-7.4-5.1C35.1,40.8,34.7,40.5,34.4,40.5z M43.4,66.3L43.4,66.3c-0.1-0.2-0.4-0.4-0.4-0.4c-0.5-0.7-0.9-1.5-1.3-2.3
	l-5.3,3.1c-0.2,0.1-0.6,0.1-0.8,0l-6.7-3.9c-0.2-0.1-0.4-0.2-0.6-0.1c-1.2,0.8-2.5,1.4-3.9,1.8c-0.4,0.1-1.1,0.4,0.2,1.1l8.7,5.1
	c0.8,0.5,1.8,0.7,2.7,0.7c1,0,1.9-0.3,2.7-0.8l4.7-2.7C43.3,67.4,43.3,66.9,43.4,66.3L43.4,66.3z"/>
</svg>