<?xml version="1.0" encoding="utf-8"?>
<svg version="1.1" id="Layer_1" xmlns="http://www.w3.org/2000/svg" xmlns:xlink="http://www.w3.org/1999/xlink" x="0px" y="0px"
	 viewBox="0 0 32 39" style="enable-background:new 0 0 32 39;" xml:space="preserve">
<style type="text/css">
	.st0{fill-rule:evenodd;clip-rule:evenodd;fill:#FFFFFF;}
	.st1{fill:none;stroke:#FFFFFF;stroke-width:6;}
</style>
<title>OpenVPN</title>
<g id="OpenVPN">
	<g id="Group" transform="translate(3.000000, 5.000000)">
		<path id="Combined-Shape" class="st0" d="M11,17.7c-1.9-0.7-3.3-2.6-3.3-4.8c0-2.9,2.3-5.2,5.2-5.2s5.2,2.3,5.2,5.2
			c0,2.2-1.3,4-3.3,4.8l2.1,11.9c-1.7,0.3-3.1,0.4-4,0.4s-2.3-0.1-4-0.4L11,17.7z"/>
		<path id="Shape" class="st1" d="M19.4,24.1c3.8-2.2,6.4-6.4,6.4-11.2C25.8,5.8,20.1,0,12.9,0S0,5.8,0,12.9c0,4.7,2.5,8.8,6.2,11"
			/>
	</g>
</g>
</svg>
