<?xml version="1.0" encoding="utf-8"?>
<svg version="1.1" id="Layer_1" xmlns="http://www.w3.org/2000/svg" xmlns:xlink="http://www.w3.org/1999/xlink" x="0px" y="0px"
	 viewBox="0 0 72 72" style="enable-background:new 0 0 72 72;" xml:space="preserve">
<style type="text/css">
	.st0{fill:#FFFFFF;}
</style>
<path class="st0" d="M68.5,46.9l-0.9,0.9l-1,1l-0.1,0.1c1.3,1.9,2.1,4.2,2.1,6.6c0,6.5-5.3,11.8-11.8,11.8c-2.2,0-4.3-0.6-6.1-1.7
	l-0.3,0.2l0.3-0.2l14.6-7.7c0.4-0.2,0.6-0.5,0.6-0.9s-0.2-0.7-0.6-0.9l-4.8-2.8c-0.2-0.1-0.3-0.3-0.3-0.5s0-0.4,0.2-0.6l4.8-4.8l1-1
	l1-1l0.6-0.6c0.3-0.3,0.4-0.7,0.3-1s-0.4-0.5-0.7-0.5c-0.2,0-0.3,0.1-0.6,0.2L65.7,44l-1.4,0.8l-1.5,0.8l-2.4,1.3l-3.3,1.8l-3.2,1.7
	l-0.6,0.3l-4.1,2.2l-1,0.5c-0.4,0.2-0.6,0.5-0.6,0.9s0.2,0.7,0.6,0.9l0.2,0.1l1.3,0.7l1.9,1.1l1.5,0.8c0.2,0.1,0.3,0.3,0.4,0.5v0.2
	c0,0.1-0.1,0.3-0.2,0.4l-4.8,4.8c-0.1-0.1-0.2-0.3-0.4-0.4c-0.2-0.2-0.4-0.5-0.6-0.7c-0.7-1-1.3-2.1-1.8-3.2v-0.1
	c-0.4-1.2-0.6-2.5-0.6-3.8c0-2.7,0.9-5.2,2.5-7.1c0.7-0.9,1.5-1.7,2.4-2.3c1.1-0.8,2.3-1.4,3.7-1.8c1-0.3,2-0.4,3-0.4h0.2h0.5
	c1.1,0,2.2,0.3,3.2,0.6l1.4-0.8l1.5-0.8l0.4-0.2c-0.6-0.3-1.3-0.7-2-0.9c-1.4-0.5-2.9-0.8-4.5-0.9c-0.2,0-0.3,0-0.5,0
	c-1.1,0-2.1,0.1-3.2,0.4c-1.3,0.3-2.5,0.7-3.7,1.4c-0.2,0.1-0.4,0.2-0.6,0.3c-1.7,1-3.3,2.4-4.5,4c-1.1,1.6-2,3.3-2.4,5.3
	c-0.2,1.1-0.4,2.2-0.4,3.3c0,1.9,0.4,3.7,1,5.4c0,0.1,0,0.1,0.1,0.2c0,0,0,0.1,0.1,0.1c0.5,1.1,1.1,2.2,1.8,3.2
	c0.2,0.2,0.3,0.4,0.5,0.6c0.2,0.3,0.5,0.6,0.8,0.8l0.5-0.5L46.4,66l-0.6,0.6c-0.3,0.3-0.4,0.7-0.3,1s0.4,0.5,0.7,0.5
	c0.2,0,0.3,0,0.6-0.2h0.1l1-0.5c2.5,1.9,5.6,3.1,9,3.1c8.1,0,14.7-6.6,14.7-14.7C71.4,52.3,70.3,49.3,68.5,46.9L68.5,46.9z"/>
<path class="st0" d="M40.3,9.1h8.8V18h-8.8V9.1z"/>
<path class="st0" d="M26.8,22.3c-1.3-0.3-2.4-0.4-3.8-0.4c-9.2,0-15.1,5.7-15.1,14.6c0,9.2,5.6,14,16.3,14c3.6,0,6.9-0.3,11.4-1.2
	V9.1h-8.8V22.3z M27.1,43.5c-1.3,0.2-2,0.2-3,0.2c-4.5,0-6.9-2.5-6.9-7.2s2.6-7.4,7-7.4c1.1,0,1.9,0.1,3,0.4v14H27.1z"/>
<path class="st0" d="M41.2,23v17.1c0,7.6-0.4,10.4-1.6,12.9c-1.2,2.4-3.1,4-6.9,5.8l8.1,3.8c0.3-0.1,0.5-0.3,0.7-0.4
	c0-0.1-0.1-0.1-0.1-0.2s-0.1-0.1-0.1-0.3v-0.1c-0.8-2-1.2-4-1.2-6.2c0-1.2,0.2-2.5,0.4-3.8c0.5-2.2,1.4-4.2,2.8-6
	c1.4-1.9,3.1-3.4,5.1-4.6c0.2-0.1,0.4-0.2,0.5-0.3l0.1-0.1c0.3-0.2,0.6-0.3,1-0.4V23H41.2z"/>
<path class="st0" d="M43.6,65.9L43.6,65.9l-0.2-0.2c-0.1-0.1-0.1-0.1-0.1-0.2c-0.3,0.2-0.6,0.3-0.9,0.5c-0.5,0.3-1.1,0.4-1.6,0.4
	s-1.1-0.1-1.6-0.3l-8.2-4c-1.3-0.6-2.1-1.9-2.1-3.3s0.8-2.7,2.1-3.3c1.9-0.9,3.1-1.6,3.9-2.4c-4,0.7-7.2,1-10.7,1
	c-12.7,0-19.9-6.4-19.9-17.6c0-10.9,7.5-18.3,18.7-18.3h0.2V9.1c0-2,1.6-3.7,3.7-3.7h8.8c0.9,0,1.7,0.3,2.3,0.9
	c0.6-0.5,1.5-0.9,2.3-0.9H49c2,0,3.7,1.6,3.7,3.7V18c0,0.8-0.2,1.4-0.6,2c0.9,0.7,1.5,1.7,1.5,2.9v16.2c1.1-0.2,2.1-0.3,3.2-0.3h0.4
	h0.1V23c0-1.3-0.4-2.6-1-3.7c0.1-0.4,0.1-0.9,0.1-1.3V9.1c0-4-3.3-7.3-7.3-7.3h-8.8c-0.8,0-1.6,0.1-2.3,0.4
	c-0.8-0.3-1.5-0.4-2.3-0.4h-8.8c-4,0-7.3,3.3-7.3,7.3v5.7c-11.4,1.4-19,10-19,21.7c0,13.3,8.8,21.3,23.6,21.3h1.1
	c0,0.3-0.1,0.7-0.1,1c0,2.8,1.6,5.4,4.2,6.6l8.1,3.8c1,0.5,2.1,0.7,3.1,0.7c1.1,0,2.2-0.3,3.3-0.8C44,69.1,44,69,44,69
	c-0.3-0.3-0.5-0.5-0.6-0.9C43.2,67.4,43.2,66.6,43.6,65.9L43.6,65.9z"/>
</svg>