<?xml version="1.0" encoding="UTF-8"?>
<svg id="Ebene_2" data-name="Ebene 2" xmlns="http://www.w3.org/2000/svg" viewBox="0 0 435.78 206.16">
  <defs>
    <style>
      .cls-1 {
        fill: #fff;
      }
    </style>
  </defs>
  <g id="Layer_1" data-name="Layer 1">
    <g>
      <g>
        <g>
          <path class="cls-1" d="M25.25,155.66c-13.92,0-25.25,11.33-25.25,25.25s11.33,25.25,25.25,25.25,25.25-11.33,25.25-25.25-11.33-25.25-25.25-25.25Zm0,44c-10.34,0-18.75-8.41-18.75-18.75s8.41-18.75,18.75-18.75,18.75,8.41,18.75,18.75-8.41,18.75-18.75,18.75Z"/>
          <path class="cls-1" d="M117.75,157.45h-1.25v31.32c0,6-4.88,10.87-10.87,10.87s-10.88-4.88-10.88-10.87v-31.32h-6.5v31.32c0,6-4.88,10.87-10.88,10.87s-10.87-4.88-10.87-10.87v-31.32h-6.5v31.32c0,9.58,7.79,17.37,17.37,17.37,5.82,0,10.97-2.89,14.12-7.29,3.15,4.41,8.3,7.29,14.12,7.29,9.58,0,17.37-7.79,17.37-17.37v-31.32h-5.25Z"/>
          <path class="cls-1" d="M158.25,155.45c-13.92,0-25.25,11.33-25.25,25.25v23.45h6.5v-23.45c0-10.34,8.41-18.75,18.75-18.75s18.75,8.41,18.75,18.75v23.45h6.5v-23.45c0-13.92-11.33-25.25-25.25-25.25Z"/>
        </g>
        <g>
          <path class="cls-1" d="M292.76,155.66c-13.92,0-25.25,11.33-25.25,25.25s11.33,25.25,25.25,25.25,25.25-11.33,25.25-25.25-11.33-25.25-25.25-25.25Zm0,44c-10.34,0-18.75-8.41-18.75-18.75s8.41-18.75,18.75-18.75,18.75,8.41,18.75,18.75-8.41,18.75-18.75,18.75Z"/>
          <path class="cls-1" d="M371.26,157.45h-1.25v23.46c0,10.34-8.41,18.75-18.75,18.75s-18.75-8.41-18.75-18.75v-23.46h-6.5v23.46c0,13.92,11.33,25.25,25.25,25.25s25.25-11.33,25.25-25.25v-23.46h-5.25Z"/>
          <path class="cls-1" d="M435.78,118.7v-1.25h-6.5v38.18l-18.96,.02c-13.92,0-25.25,11.33-25.25,25.25s11.33,25.25,25.25,25.25h7.85c7.83,0,17.43-7.73,17.61-17.32V118.7Zm-6.5,70.01c-.1,5.63-6.34,10.94-11.11,10.94h-7.85c-10.34,0-18.75-8.41-18.75-18.75s8.41-18.75,18.75-18.75l18.97-.02c.03,6.05,.09,20.78-.02,26.58Z"/>
          <path class="cls-1" d="M250.76,188.78v-49.74c-2.26-1.14-4.43-2.44-6.5-3.88v53.62c0,9.58,7.79,17.37,17.37,17.37h1.25v-6.5h-1.25c-6,0-10.87-4.88-10.87-10.87Z"/>
          <path class="cls-1" d="M199.17,167.74c0-9.69,4.35-18.39,11.19-24.24-2.15-.83-4.16-1.97-5.95-3.37-7.23,6.99-11.75,16.78-11.75,27.61,0,21.18,17.23,38.41,38.42,38.41h1.25v-6.5h-1.25c-17.6,0-31.92-14.32-31.92-31.91Z"/>
        </g>
      </g>
      <path class="cls-1" d="M200.51,43.69c-1.52-2.67-2.4-5.75-2.4-9.04,0-10.11,8.22-18.33,18.33-18.33,3.74,0,7.22,1.13,10.12,3.06-2.15,4.85-3.36,10.22-3.36,15.86,0,1.04,.05,2.07,.13,3.09-.72-.04-1.44-.05-2.16-.05-7.5,0-14.55,1.97-20.66,5.41Zm-4.04,71.11c-10.63-7.68-17.56-20.17-17.56-34.26,0-3.6,.46-7.1,1.31-10.43-.35-.01-.7-.03-1.06-.03-19.43,0-35.24,15.81-35.24,35.24s15.81,35.24,35.24,35.24c7.41,0,14.28-2.3,19.96-6.22-2.34-3.63-3.71-7.95-3.71-12.59,0-2.42,.37-4.76,1.06-6.96Zm1.58-3.8c3.16-6.05,8.91-10.55,15.77-12.02,.65-.14,1.31-.25,1.97-.33,.66-.08,1.32-.14,2-.17,.31-.01,.61-.02,.92-.02,1.08,0,2.14,.08,3.19,.22-.33-2.38-.51-4.8-.51-7.27,0-11.84,3.89-22.79,10.44-31.65-1.49-1.85-2.81-3.83-3.95-5.94-.32-.59-.62-1.19-.91-1.8-.29-.61-.56-1.22-.82-1.85-1.02-2.48-1.79-5.09-2.29-7.79-.89-.06-1.78-.1-2.69-.1-6.62,0-12.86,1.69-18.29,4.66-.6,.33-1.19,.68-1.77,1.04-.57,.36-1.13,.73-1.69,1.11-6.2,4.3-11.07,10.39-13.87,17.52-.25,.63-.48,1.26-.69,1.9-.21,.64-.41,1.29-.59,1.94-.88,3.22-1.36,6.6-1.36,10.09,0,12.42,5.95,23.47,15.14,30.46Zm123.48-45.13c5.1-2.68,10.8-4.34,16.85-4.73-1.56-18-16.7-32.17-35.1-32.17-.7,0-1.4,.03-2.09,.07,.32,2.02,.5,4.09,.5,6.21,0,3.28-.41,6.46-1.17,9.5,8.84,4.91,16.16,12.25,21.02,21.12Zm-93.89-25.07c.11,.71,.25,1.41,.41,2.11,.36,1.6,.82,3.16,1.38,4.67,.25,.67,.53,1.33,.82,1.98,.28,.64,.59,1.26,.91,1.88,.94,1.81,2.02,3.52,3.25,5.13,2.46-2.84,5.21-5.43,8.21-7.7,.57-.43,1.14-.84,1.73-1.25,.58-.4,1.17-.79,1.77-1.17,8.09-5.17,17.66-8.21,27.92-8.35,.23,0,.46-.02,.69-.02,.67,0,1.33,.03,1.99,.05,.91,.03,1.82,.09,2.72,.17,6.16,.54,12.02,2.14,17.4,4.6,.55-2.47,.85-5.02,.85-7.65,0-1.95-.17-3.87-.47-5.74-.11-.66-.24-1.32-.38-1.96-.15-.65-.31-1.3-.49-1.94-4.21-14.76-17.8-25.6-33.89-25.6-13.27,0-24.85,7.38-30.86,18.25-.33,.61-.65,1.22-.95,1.85-.31,.65-.6,1.32-.87,1.99-1.64,4.07-2.56,8.51-2.56,13.16,0,1.18,.06,2.34,.17,3.49,.07,.69,.16,1.38,.27,2.07Zm158.73,59.6c-1.06,0-2.08,.11-3.09,.27,.05,.87,.09,1.75,.09,2.63,0,11.22-4.41,21.43-11.57,29.01,3.54,4.09,8.75,6.69,14.57,6.69,10.64,0,19.3-8.66,19.3-19.3s-8.66-19.3-19.3-19.3Zm-7.04,1.35c-.03-.7-.07-1.39-.14-2.08-.06-.69-.15-1.37-.25-2.05-2.69-17.96-17.91-31.87-36.44-32.54-.46-.02-.92-.04-1.39-.04-.2,0-.41,.01-.61,.02-.67,0-1.34,.04-2,.08-5.46,.37-10.6,1.88-15.19,4.31,2.77,6.1,4.42,12.8,4.7,19.85,.03,.7,.05,1.4,.05,2.11,0,.21-.01,.41-.02,.62-.01,.9-.04,1.79-.1,2.68-.81,13.27-6.5,25.24-15.29,34.14,7.01,7.8,17.17,12.71,28.45,12.71,9.75,0,18.65-3.67,25.41-9.69,.51-.46,1.01-.92,1.5-1.41,.49-.49,.97-.98,1.44-1.5,6.16-6.79,9.91-15.8,9.91-25.67,0-.52-.02-1.04-.04-1.56Zm-149.67,18.14c-.38-.6-.75-1.2-1.1-1.82-2.71-4.67-4.73-9.79-5.93-15.22-1.27-.26-2.58-.4-3.93-.4-.14,0-.28,.02-.42,.02-.67,.01-1.34,.06-1.99,.15-.67,.08-1.33,.21-1.98,.36-5.69,1.33-10.4,5.18-12.92,10.3-.3,.61-.56,1.23-.8,1.87-.23,.63-.43,1.28-.6,1.95-.37,1.5-.59,3.05-.59,4.66,0,3.71,1.07,7.17,2.89,10.11,.36,.58,.74,1.13,1.15,1.67,.41,.52,.83,1.03,1.29,1.51,3.52,3.7,8.47,6.02,13.97,6.02,8.17,0,15.16-5.12,17.97-12.31-2.14-2.18-4.1-4.54-5.84-7.07-.4-.58-.79-1.18-1.17-1.78Zm94.23-24.66c.06-.85,.11-1.7,.13-2.55,.01-.42,.03-.84,.03-1.27,0-7.08-1.51-13.81-4.21-19.9-.28-.62-.56-1.24-.86-1.84-.29-.6-.59-1.19-.91-1.77-4.36-8.01-10.88-14.67-18.77-19.22-.58-.34-1.17-.66-1.77-.98-.6-.31-1.2-.62-1.81-.91-6.05-2.86-12.78-4.52-19.87-4.68-.38,0-.76-.03-1.14-.03-.47,0-.94,.02-1.41,.04-.85,.02-1.69,.07-2.53,.14-7.78,.62-15.05,3.04-21.4,6.85-.59,.36-1.17,.73-1.75,1.11-.58,.38-1.15,.78-1.71,1.18-3.29,2.37-6.28,5.14-8.89,8.23-.44,.52-.86,1.05-1.28,1.58-.41,.53-.81,1.07-1.2,1.61-5.76,8.07-9.17,17.94-9.17,28.59,0,2.81,.25,5.56,.7,8.25,.13,.77,.28,1.54,.44,2.3,.18,.83,.38,1.65,.61,2.46,1.23,4.5,3.08,8.74,5.45,12.63,.36,.59,.73,1.17,1.12,1.74,.39,.57,.79,1.14,1.2,1.7,.92,1.26,1.9,2.47,2.94,3.63,.56,.63,1.14,1.26,1.74,1.86,.55,.55,1.11,1.1,1.68,1.62,8.8,8.14,20.56,13.12,33.46,13.12s23.79-4.63,32.48-12.25c.5-.44,.99-.89,1.47-1.35,.49-.47,.98-.95,1.45-1.44,7.22-7.45,12.11-17.16,13.51-27.96,.11-.84,.19-1.68,.26-2.52Z"/>
    </g>
  </g>
</svg>