<svg enable-background="new 0 0 1000 1000" viewBox="0 0 1000 1000" xmlns="http://www.w3.org/2000/svg"><path d="m971 431.4-407.1-386.4c-35.2-33.5-91-33.5-127.3 0l-255.9 243.3c67.1 25.4 119.4 81.9 138.7 152.3h345.7c18.2 0 31.8 15 31.8 32.3v53.1c0 18.5-14.8 32.3-31.8 32.3h-39.8v75c0 18.5-14.8 32.3-31.8 32.3h-87.6c-18.2 0-31.8-15-31.8-32.3v-75h-153.5c-19.3 71.5-71.6 129.2-139.9 153.4l257 243.4c35.3 33.5 91 33.5 127.3 0l406-386.5c38.7-36.9 38.7-99.2 0-137.2zm-865.2-38.1c-17.1 0-33.1 4.4-47.8 11.5-34.4 16.8-58 53.1-58 94.6 0 40.4 21.5 75.1 54.6 93.4 14.7 8.2 31.8 12.7 50 12.7 58 0 103.5-47.3 104.6-106.1 1.2-57.7-45.5-106.1-103.4-106.1z" fill="#fff"/></svg>