<?xml version="1.0" encoding="utf-8"?>
<svg version="1.1" baseProfile="tiny" id="Capa_1" xmlns="http://www.w3.org/2000/svg" xmlns:xlink="http://www.w3.org/1999/xlink"
	 x="0px" y="0px" viewBox="0 0 1024 1024" overflow="visible" xml:space="preserve">
<path fill="none" d="M476.22,335.41C476.22,594.6,266.1,804.7,6.92,804.7c-259.19,0-469.31-210.1-469.31-469.29
	c0-259.19,210.12-469.29,469.31-469.29C266.1-133.89,476.22,76.21,476.22,335.41z"/>
<g>
	<path fill="#FFFFFF" d="M306.09,146.56c-6.8-6.57-20.7-0.62-28.13,8.04c-4.7,5.47-9.57,17.13-1.62,25.32
		c8.54,8.8,26.55,0.89,31.84-5.96C314.62,165.6,312.88,153.13,306.09,146.56z"/>
	<path fill="#FFFFFF" d="M694.9,823.27c10.35,41.41,51.76,68.66,92.99,86.45c6.56-4.56,13-9.28,19.32-14.15
		C768.18,886.64,724.43,867.82,694.9,823.27z"/>
	<path fill="#FFFFFF" d="M982.99,554.08C957.3,541.7,634.5,425.11,617.08,418.62c3.74-10.55-3.64-30.87-14.46-36
		c-8.72-4.14-116.61-45.08-193.9-76.64c-21.24-8.68-50.03-25.26-54.93-53.01c-9.25,40.27,19.51,61.94,34.92,68.68
		c18.41,8.05,184.95,75.54,198.01,81.53c7.83,3.59,10.34,17.96,4.56,30.44c54.96,20.58,349.78,129.33,363.32,136.12
		c13.54,6.79,14.84,13.82-0.12,17.25c-20.06,4.6-53.54,12.48-93.37-3.78c-25.17-10.27-197.65-79.34-228.65-90.2
		c23.92,14,164.09,84.83,195.45,99.99c-22.41,16.16-148.42-12.92-184.34-33.76c72.15,68.47,202.51,71.8,220.87,53.75
		c37.15,16.75,102.47,0.72,123.13-10.64c2.58-13.68,4.59-27.56,6-41.63C990.66,558.32,987.14,556.09,982.99,554.08z"/>
	<path fill="#FFFFFF" d="M633.05,606.72c14.22,54.42-24.96,74.02-58.46,75.24c5.67,9.8,27.33,17.01,46.61,14.56
		c-7.81,27.64-54.3,36.95-77.01,32.06c59.58,65.79,47.94,148.86,153.03,139.72c-59.4-9.79-83.49-76.81-87.57-111.91
		c24.38,30.44,63.63,42.46,89.66,42.06c-14.82-28.03-23.18-53.48-24.82-87.77c77.55,52.15,150.88,79.29,217.67,100.93
		c5.74-7.27,11.27-14.72,16.6-22.32c-56.86-17.89-140.76-50.29-203.58-92.36C666.01,670.68,665.49,634.2,633.05,606.72z"/>
	<path fill="#FFFFFF" d="M727.15,799.38c21.46,42.1,62.79,61.02,109.71,71.41c6.09-5.52,12.04-11.19,17.84-17.01
		C807.26,849.49,753.48,832.77,727.15,799.38z"/>
	<path fill="#FFFFFF" d="M523.11,780c-3.54-6.02-21.8-43.93-26.18-51.78c74.15-9.94,60-94.84,26.12-117.69
		c23.34,70.19-10.56,84.65-44.39,82.7c-34.91-2.01-51.4-20.94-57.43-59.63c16.03,0.71,38.54-3.75,52.83-16.4
		C308.6,597.77,191.7,456.73,193.74,398.49c16.79,17.41,57.52,23.18,79.59-0.16c-29.01-7.27-53.91-41.56-51.04-72.06
		c21.72,18.2,46.71,8.37,55.91-10.81c-42.5,8.92-82.99-56.61-58.7-125.81c23.06-65.69,86.88-86.88,126.94-78.6
		c-4.22,6.12-6.26,15.1-2.72,25.98c11.08-18.38,34.87-28.5,66.64-34.17l-14.39-11.75c-9.98,1.47-18.79,4.4-29.12,8.91
		C321.14,79.89,221,94.58,153.73,221.57c10.76-8.77,24.52-14.42,29.45-14.88c-18.14,28-39.86,74.92-46.61,114.56
		c7.76-7.08,18.91-13.33,28.65-15.78c-25.96,108.34,44.47,224.66,126.69,273.64c-2.42,24.18,4.21,37.81,25.7,62.01
		c-1.7,2.49-8.18,10.74-11.95,16.03c-1.96,2.75-5.13,7.23-11.3,5.97c-10.87-2.23-151.41-41.47-163.92-51.12
		c-6.11-28.68-44.9-57.33-76.07-43.3c-12.69-3.29-18.75,4.48-21.68,10.95c0.03,0.19,0.06,0.37,0.08,0.56
		c7.48-4.39,16.08-2.12,20.13,1.71c4.71,13.71,29.99-12.13,51.34,25.51c-13.22-3.92-59.6-13.85-66.04,0.24
		c-0.24,0.02-0.48,0.04-0.73,0.06c0.86,4.31,1.78,8.59,2.76,12.86c12.89,9,64.62-4.24,91.97,19.27
		c25.46,26.11,7.23,39.9,24.44,47.44c-0.66,8.97-7.62,11.35-14.22,12.93c8.76,4.8,20.95,4.76,26.34-9.46
		c16.06-3.71,3.92-38.18-13.05-47.97c32.31,11.75,114.75,35.6,137.69,40.38c11.78,2.45,20.71-0.08,26.01-7.36
		c3.93-5.4,10.31-11.78,15.66-19.92c12.09,9.2,20.92,10.7,31.26,9.06c-2.45-20,4.49-37.55,16.87-46.26
		c6.75,75.25,41.57,108.16,83.27,109.39c6.61,7.32,29.05,48.64,31.5,53.13c2.24,4.11,5.55,12.01,0.41,14.69
		c-8.93,4.66-117.9,30.05-152.46,38.44c-17.33-15.25-73.57-34.21-81.7-1.69c-11.92,9.21-11.75,18.72-4.3,26.99
		c-0.98-10.67,1.76-12.48,10.85-19.72c14.04,6.82,18.92-14.31,51.98,3.57c-28.07,10.44-58.02,23.38-51.01,47.24
		c-4.23,4.99-3.34,17.6-0.91,25.28c4.85-4.41,7.57-10.4,9.68-19.72c12.86,3.72,2.33-17.16,65.54-38.16
		c39.49,11.06,45.53,39.02,56.44,39.85c5.79,8.02,0.81,17.76-5.51,23.68c17.24-0.08,22.38-16.88,16.32-26.11
		c14.05-22.24-26.28-43.66-41.28-44.44c31.56-8.42,128.74-31.44,145.39-39.27C530.62,805.61,531.27,793.88,523.11,780z"/>
	<path fill="#FFFFFF" d="M461.83,85.33l14.15,11.43c16.37-0.56,24.45,0.12,32.06,1.14c-70.7,30.7-129.15,41.14-152.54,76.56
		c-3.62-9.72,0.33-27.67,8.37-40.41c-25.72,10.07-36,40.15-30.61,80.28c-18.31,27.2-22.45,66.13,9.37,107.12
		c-30.73-102.22,64.15-148.17,182.35-200.66c-10.18-4.44-30.08-5.39-30.08-5.39c10.08-6.41,23.37-14.37,38.77-21.17
		C515.83,89.72,494.58,84.95,461.83,85.33z"/>
	<path fill="#FFFFFF" d="M353.19,336.7c-22.79,1.7-58.24,23.29-63.61,56.13c10.22-2.3,24.04-0.78,32.05,1.67
		c-10.29,24.14-10.44,64,10.69,95.44c1.23-11.14,7.86-31.41,20.78-41.03c-2.26,29.24,18.69,77.13,62.63,86.24
		c-0.43-16.05,1.2-34.56,8.27-47.07c19.37,75.24,63.13,105.04,109.26,101.37c-18.37-10.48-41.13-32.38-43.95-65.45
		c30.04,47.64,148.64,80,179.66,66.4c-51.16-11.97-118.89-42.69-136.56-79.99c26.5,7.85,58.9-0.98,76.57-22.58
		c-47.12,18.65-221.71-51.71-234.86-151.66c-6.41,53.52,22.09,91.29,40.49,105.28c-13.61,11.97-19.45,29.76-17.82,49.35
		c-19.59-9.8-34.64-54.05-31.84-81.76c-16.38,7.35-22.49,17.74-30.73,32.42c-5.58-25.7,1.28-54.48,14.8-67.71
		c-8.83-2.69-18.7-3.12-26.44-1.75C326.38,361.37,335.8,348.6,353.19,336.7z"/>
	<path fill="#FFFFFF" d="M751.35,252.19c-33.11,38.23-8.97,80.46,23.06,91.69c25.53,8.95,54.11,21.19,59.38,46.25
		c10-25.63,13.75-48.13,11.88-96.88c-1.88-48.75-32.56-56.59-53.13-58.13c-10.69-0.8-17.22-0.8-23.75-1.21
		c-21.76-15.66-62.39-36.8-67.75-40.28c-6.27-4.08-18.24-10.88-33.76-13.6c11.7-1.09,17.5-4.07,21.14-6.99
		c3.64-2.92,4.79-5.08,9.76-6.6c4.97-1.52,2.95-8.14-2.71-11.85c-5.66-3.71-9.08-9-13.43,0.48c-4.35,9.47-10.34,10.99-17.47,11.35
		s-9.01,10.44-15.24,10.88c-44.95,3.18-100.94-21.52-132.8-39.73l-16.87,9.25c17.96,10.32,41.01,20.71,46.46,22.68
		c8.14,2.95,37.54,14.96,46.01,16c-5.46,42.62-0.99,61.79,4.78,88.74c1.46,6.83,4.82,21.63-8.5,27.96
		c14.24,12.06,25.75-10.57,30-5.53c4.25,5.04,11.96,3.59,11.96,3.59c-32.64-46.29-27.53-70.46-26.72-111.34
		c53.84,1.44,84.31,12.86,102.12,23.17c22.09,12.79,50.36,25.48,68.19,32.42c33.89,13.19,44.21,49.35,42.96,74.98
		C804.17,267.96,766.33,256.92,751.35,252.19z"/>
</g>
</svg>
