<?xml version="1.0" encoding="utf-8"?>
<svg version="1.1" id="Layer_1" xmlns="http://www.w3.org/2000/svg" xmlns:xlink="http://www.w3.org/1999/xlink" x="0px" y="0px"
	 viewBox="0 0 1024 1024" style="enable-background:new 0 0 1024 1024;" xml:space="preserve">
<style type="text/css">
	.st0{fill:#FFFFFF;}
	.st1{fill:none;stroke:#FFFFFF;stroke-width:4.105;stroke-linecap:round;stroke-linejoin:round;}
	.st2{fill:none;stroke:#FFFFFF;stroke-width:9.9204;stroke-linecap:round;stroke-linejoin:round;}
</style>
<g>
	<g id="g5">
		<path id="path14" class="st0" d="M560.2,144.5l-0.7-1.4c-0.3-0.3-0.7-0.7-1.4-0.7l-1.4,0.4c-0.7,0.7-1,1-1,1.7l-29.6,535.8
			l4.5-0.7l28.6-521.2l34.1,56.1H593c25.8,75.9,36.6,156.7,32.4,242.3l2.1,3.1l33.8,59.9l2.1,2.1c51.9,45.6,110,76.3,174.4,91.9
			l15.7,25.4l2.1,0.7l0.3-0.7L559.5,154.5L560.2,144.5"/>
		<path id="path18" class="st0" d="M549.8,333.5c36.6,74.9,49.8,188,40,339.5l142.4-17.4L549.8,333.5z"/>
		<path id="path20" class="st0" d="M874.3,662.6c14.6-1.7,24-4.9,28.2-9.4l-745.1,90.9H157c0.3,31,14.3,55.4,41.4,72.8
			c7.3,5.2,15,9.1,21.9,11.5c6.6-7.7,13.9-13.2,22.6-18.5h0.3c78-47.4,193.9-54.7,347.1-22.3l1.7,0.3c16.7,3.5,33.4,7.7,49.1,12.5
			c4.5,0.7,8.4-0.7,11.5-3.5c5.6-4.2,12.5-7.3,21.9-9.4v-0.3c24.7-43.9,58.1-76.3,99.9-97.5C803.6,675.5,837,666.1,874.3,662.6"/>
		<path id="path22" class="st0" d="M516.4,676.2l34.1-523C501,344,421.6,522.3,312.7,687.6L516.4,676.2"/>
		<path id="path24" class="st0" d="M324.5,254.9l-1.4-0.7l-1.4,0.3l-0.7,1.7l-28.2,452.6l4.2-0.3l28.2-452.3L324.5,254.9"/>
		<path id="path26" class="st0" d="M284.8,699.1L284.8,699.1l29.9-441.5L157,712.7L284.8,699.1"/>
	</g>
	<g id="g13">
		<path id="path34" class="st1" d="M291.1,846.3c-39.3,18.8-67.9,21.9-86,10.4c-18.1-12.2-46-9.4-83.6,8.4"/>
		<path id="path36" class="st1" d="M383.3,849.1c-7.3-2.4-15.3-4.2-23.7-4.9c-17.1-1.4-37.6,5.2-61.6,19.5
			c-24,14.6-52.9,20.2-87.4,17.1"/>
		<path id="path38" class="st1" d="M598.2,813.6C432.5,779.5,313,787.5,239.9,838"/>
		<path id="path40" class="st1" d="M702.6,829.9c-7.3-2.8-15.3-4.5-23.7-4.9c-17.1-1.4-37.6,5.2-61.6,19.5s-52.9,19.8-87.4,17.1"/>
		<path id="path42" class="st2" d="M480.1,259c-17.1-10.4-34.8-7.7-53.3,8.7c-16-16.4-32.7-19.1-50.1-8.7"/>
		<path id="path44" class="st2" d="M441.5,200.5c-17.4-10.4-34.5-6.3-51.9,12.5c-17.1-18.8-34.5-23-51.9-12.5"/>
	</g>
</g>
</svg>
