<svg enable-background="new 0 0 72 72" viewBox="0 0 72 72" xmlns="http://www.w3.org/2000/svg"><path d="m13.4.7c13.7 0 20.9 8.1 21.6 20.9 2.6-15.4 14.7-13.6 14.7-13.6.6 8.7-6.5 14-14.6 14.4-2.3-4.8-15.9-16.6-15.9-16.6-.1.1 13.1 11.5 12.6 16.5-8.8-1-17.7-7.6-18.4-21.6m1.6 39.1 13.6-13.6c4.1-4.1 10.8-4.1 14.9 0l13.5 13.6c4.1 4 4.2 10.6.2 14.7-.1.1-.1.1-.2.2l-13.5 13.6c-4.1 4.1-10.8 4.1-14.9 0l-13.6-13.6c-4.1-4.2-4.1-10.8 0-14.9m11.7 22.8c0-4.3 2.7-9.6 9.5-9.6 4.6 0 9.8 4.4 14.8 3.9-5.1-.1-9.6-3.9-9.6-9.7 0-4.7 3.9-8.1 3.9-13.5-.2 3.5-3.1 8.6-9.5 8.6-5 0-8.6-4-14.5-4 2.5.1 9.3 2.4 9.3 9.6 0 5.5-3.9 7.3-3.9 14.7z" fill="#fff"/></svg>