<?xml version="1.0" encoding="utf-8"?>
<svg version="1.1" id="Layer_1" xmlns="http://www.w3.org/2000/svg" xmlns:xlink="http://www.w3.org/1999/xlink" x="0px" y="0px"
	 viewBox="0 0 39 39" style="enable-background:new 0 0 39 39;" xml:space="preserve">
<style type="text/css">
	.st0{fill:#FFFFFF;}
</style>
<title>Plesk</title>
<g>
	<path class="st0" d="M8.1,19.1c0-0.9-0.2-1.5-0.7-2.1c-0.5-0.5-1.1-0.8-2-0.8c-0.3,0-0.5,0-0.8,0.1c-0.3,0-0.5,0.1-0.8,0.2v5.2
		c0.2,0.1,0.5,0.1,0.7,0.2S5,22,5.2,22c0.9,0,1.6-0.2,2.1-0.7S8.1,20.1,8.1,19.1 M3.8,26.4h-1V15.8c0.9-0.3,1.7-0.4,2.5-0.4
		c0.6,0,1.1,0.1,1.6,0.3s0.9,0.4,1.3,0.8c0.3,0.3,0.6,0.7,0.8,1.2s0.3,1,0.3,1.5c0,0.7-0.1,1.2-0.3,1.7c-0.3,0.4-0.6,0.8-1,1.1
		s-0.8,0.5-1.3,0.7c-0.5,0.1-0.9,0.2-1.4,0.2c-0.3,0-0.5,0-0.8-0.1c-0.3,0-0.5-0.1-0.8-0.2v3.8L3.8,26.4z"/>
	<path class="st0" d="M11.3,12.6h1v10.3h-1V12.6z"/>
	<path class="st0" d="M19.9,18.4c0-0.3,0-0.6-0.1-0.9s-0.2-0.5-0.4-0.7s-0.4-0.3-0.7-0.4s-0.6-0.2-1-0.2s-0.7,0.1-1,0.2
		s-0.5,0.3-0.6,0.4c-0.2,0.2-0.3,0.4-0.4,0.7s-0.2,0.6-0.3,0.9H19.9z M20.7,21.7c-0.3,0.4-0.7,0.7-1.2,0.8c-0.4,0.2-1,0.3-1.6,0.3
		s-1.1-0.1-1.5-0.3s-0.8-0.5-1.1-0.8s-0.5-0.7-0.7-1.2c-0.1-0.4-0.2-0.9-0.2-1.4c0-0.6,0.1-1.2,0.3-1.7s0.4-0.9,0.7-1.2
		s0.7-0.5,1.1-0.7s0.8-0.2,1.3-0.2c1.1,0,1.9,0.3,2.4,1c0.5,0.7,0.8,1.6,0.8,2.9h-5.5c0,0.8,0.3,1.5,0.7,2c0.4,0.5,1.1,0.7,1.8,0.7
		c0.4,0,0.8-0.1,1.2-0.2s0.7-0.4,1-0.7L20.7,21.7z"/>
	<path class="st0" d="M27.6,17.2c-0.3-0.3-0.5-0.6-0.8-0.7c-0.3-0.2-0.7-0.2-1.1-0.2c-0.5,0-0.9,0.1-1.1,0.3s-0.3,0.4-0.3,0.7
		c0,0.2,0,0.4,0.1,0.5s0.2,0.3,0.4,0.4s0.3,0.2,0.6,0.3c0.2,0.1,0.4,0.1,0.7,0.2s0.6,0.2,0.8,0.3c0.3,0.1,0.5,0.2,0.8,0.4l0.6,0.6
		c0.1,0.2,0.2,0.5,0.2,0.9c0,0.3-0.1,0.6-0.2,0.9s-0.3,0.5-0.6,0.7c-0.2,0.2-0.5,0.3-0.9,0.4C26.5,23,26.1,23,25.7,23
		c-0.6,0-1.1-0.1-1.6-0.3s-0.9-0.5-1.3-0.9l0.8-0.7c0.5,0.7,1.2,1,2.1,1c0.6,0,1-0.1,1.2-0.3c0.3-0.2,0.4-0.5,0.4-0.7s0-0.4-0.1-0.6
		s-0.2-0.3-0.4-0.4s-0.4-0.2-0.6-0.3s-0.5-0.1-0.7-0.2c-0.3-0.1-0.6-0.2-0.8-0.3c-0.3-0.1-0.5-0.2-0.7-0.4s-0.4-0.3-0.5-0.6
		c-0.1-0.2-0.2-0.5-0.2-0.9c0-0.6,0.2-1.1,0.7-1.5s1.1-0.5,1.8-0.5c0.5,0,1,0.1,1.4,0.3s0.8,0.5,1.2,0.9L27.6,17.2z"/>
	<path class="st0" d="M31.4,19l3.5-3.5h1.4L32.6,19l3.6,3.8h-1.4L31.4,19z M30.3,12.6h1v10.2h-1V12.6z"/>
	<path class="st0" d="M8.7,25.5h6.2v1H8.7V25.5z"/>
</g>
</svg>
