<svg enable-background="new 0 0 1024 1024" viewBox="0 0 1024 1024" xmlns="http://www.w3.org/2000/svg"><g clip-rule="evenodd" fill="#fff" fill-rule="evenodd" transform="scale(.3318222)"><path d="m2921.4 1096.1h-259.1l-259.1 446.7 259.1 446.7h258.8l-258.7-446.5z" opacity=".35"/><path d="m2117.4 1096.1h259.1l285.9 446.9-285.9 446.9h-259.1l285.9-446.9z"/><path d="m2028 1989.5h-515.5v-893.4h515.5v155.2h-325.7v196.1h303.1v155.2h-303.1v230.4h325.7zm-1156.6 0v-893.4h189.4v736.9h362.4v156.4h-551.8z"/><path d="m697.1 1166.1c-56.4-46.6-138.8-70-247.2-70h-285.4v893.4h189.5v-317.7h81.3c110.8 0 196.2-25.5 256.3-76.4s90.1-124.4 90.1-220.6c0-92.5-28.2-162.1-84.6-208.7zm-273.5 350.5h-69.5v-265.3h95.4c141 1.6 141 101.4 141 132.7 0 33.6-8.3 130.7-166.9 132.6z"/></g></svg>