<?xml version="1.0" encoding="utf-8"?>
<svg version="1.1" id="Layer_1" xmlns="http://www.w3.org/2000/svg" xmlns:xlink="http://www.w3.org/1999/xlink" x="0px" y="0px"
	 viewBox="0 0 72 72" style="enable-background:new 0 0 72 72;" xml:space="preserve">
<style type="text/css">
	.st0{fill:#FFFFFF;}
</style>
<path class="st0" d="M13.5,72c-3,0-6,0-9,0C0.9,70.6,0,67.9,0,64.3C0.1,45.1,0.1,26,0.1,6.8C0.1,2,2.1,0,6.9,0h58.2
	C69.9,0,72,2,72,6.8c0,19.1-0.1,38.3,0.1,57.4c0,3.6-0.9,6.3-4.5,7.7c-12.6,0-25.3,0-37.9,0c0-5.1,0-10.3,0-15.6
	c5.1,4.2,10.5,4.8,16,3c7.2-2.4,12-7.6,14.7-14.5C64.6,34.3,61,23.2,51.6,16c-5.8-4.5-15.4-6.3-22.1,0.4c-0.8-2.8-2.8-4-5.5-4.3
	c-1.3-0.1-2.6-0.2-3.9-0.2c-4.6,0-6.7,2.1-6.7,6.7v52.3C13.4,71.2,13.5,71.6,13.5,72z M37.7,44c4.3,0,8-3.6,8-7.8
	c0-4.5-3.4-8-7.8-8.1c-4.3-0.1-7.8,3.4-7.9,7.8C30,40.5,33.4,44.1,37.7,44z"/>
</svg>