<?xml version="1.0" encoding="utf-8"?>
<svg version="1.1" id="Layer_1" xmlns="http://www.w3.org/2000/svg" xmlns:xlink="http://www.w3.org/1999/xlink" x="0px" y="0px"
	 viewBox="0 0 1024 1024" style="enable-background:new 0 0 1024 1024;" xml:space="preserve">
<style type="text/css">
	.st0{fill:#FFFFFF;}
</style>
<path class="st0" d="M512,108c-223.1,0-404,180.9-404,404s180.9,404,404,404s404-180.9,404-404S735.1,108,512,108z M512,864.1
	c-63.5,0-115-42.4-115-94.7h230C627,821.7,575.5,864.1,512,864.1z M701.9,738.1H322.1v-68.9h379.8V738.1z M700.5,633.8H323.2
	c-1.2-1.4-2.5-2.9-3.7-4.3c-38.9-47.2-48-71.8-56.9-97c-0.2-0.8,47.1,9.7,80.7,17.2c0,0,17.3,4,42.5,8.6
	c-24.2-28.4-38.6-64.5-38.6-101.4c0-81,62.1-151.8,39.7-209c21.8,1.8,45.1,46.1,46.7,115.2c23.2-32,32.9-90.5,32.9-126.4
	c0-37.1,24.5-80.3,49-81.8c-21.8,36,5.6,66.8,30.1,143.3c9.1,28.7,8,77.1,15,107.8c2.4-63.7,13.3-156.6,53.7-188.7
	c-17.8,40.4,2.6,91,16.6,115.3c22.6,39.2,36.3,68.9,36.3,125.1c0,37.7-13.9,73.1-37.4,100.9c26.7-5,45.1-9.5,45.1-9.5l86.6-16.9
	C761.5,532.2,748.9,583.9,700.5,633.8L700.5,633.8z"/>
</svg>