<?xml version="1.0" encoding="utf-8"?>
<svg version="1.1" id="Layer_1" xmlns="http://www.w3.org/2000/svg" xmlns:xlink="http://www.w3.org/1999/xlink" x="0px" y="0px"
	 viewBox="0 0 1024 1024" style="enable-background:new 0 0 1024 1024;" xml:space="preserve">
<style type="text/css">
	.st0{fill:#FFFFFF;}
</style>
<path class="st0" d="M914.1,635.1c-0.8,1.7-2.4,3.3-4.2,3.9L514.6,796.3c-0.9,0.4-1.8,0.5-3,0.5c-0.9,0-2.1-0.1-3-0.5l-395-157.2
	c-1.8-0.8-3.4-2.1-4.2-3.9c-0.5,0.9-0.8,2.1-0.8,3.3c0,3.3,0,108.7,0,112s2,6,5,7.2l395.3,157.2c0.9,0.4,1.8,0.5,3,0.5
	c0.9,0,2.1-0.1,3-0.5l395-157c3-1.2,5-4.1,5.1-7.2c0-3.3,0-108.7,0-112C915,637.4,914.7,636.2,914.1,635.1L914.1,635.1L914.1,635.1z
	 M914.1,451.3c-0.8,1.7-2.4,3.3-4.2,3.9L514.6,612.4c-0.9,0.4-1.8,0.5-3,0.5c-0.9,0-2.1-0.3-3-0.5l-394.9-157
	c-1.8-0.8-3.4-2.2-4.2-3.9c-0.5,1.1-0.8,2.1-0.8,3.3c0,3.3,0,108.7,0,112c0,3.3,2.1,6.2,5.1,7.4l395.2,157c0.9,0.4,1.8,0.5,3,0.5
	c0.9,0,2.1-0.1,3-0.5L910.4,574c3-1.2,5-4.1,5.1-7.2c0-3.3,0-108.7,0-112C915,453.5,914.7,452.5,914.1,451.3L914.1,451.3
	L914.1,451.3z M915,273.7c0-3.3-2.1-6-5.1-7.2L514.7,109.2c-0.9-0.4-1.8-0.5-3-0.5c-0.9,0-2.1,0.1-3,0.5l-395,157.2
	c-3,1.2-5.1,4.1-5.1,7.4s0,108.7,0,112c0,3.2,2,6,5.1,7.4L509,550.4c0.9,0.4,1.8,0.5,3,0.5c0.9,0,2.1-0.1,3-0.5l395.3-157.2
	c3-1.2,5-4.1,5.1-7.2C914.9,382.4,914.9,277,915,273.7L915,273.7L915,273.7z M376.6,204.9l75.2-14.5l-16-32.1
	c-0.4-0.7-0.1-1.3,0.3-1.8c0.4-0.4,1.2-0.7,1.8-0.4l64,24.7l75.6-14.7c0.7,0,1.4,0.3,1.8,0.9c0.3,0.7,0.1,1.6-0.4,2.1l-33.6,28.3
	l63.1,24.4c0.8,0.3,1.2,1.2,0.9,1.8c-0.1,0.7-0.9,1.2-1.8,1.2l-87.4-6.4l-36.4,30.9c-0.3,0.3-0.7,0.4-0.9,0.4c0,0-0.3,0-0.4,0
	c-0.4,0-0.9-0.4-1.2-0.8L464,214.7l-87-6.3c-0.8,0-1.4-0.8-1.6-1.6C375.3,205.8,375.8,205,376.6,204.9L376.6,204.9L376.6,204.9z
	 M313.5,317.4c-25.5,0-49.5-4.2-67.9-11.6c-18.5-7.6-28.6-17.6-28.5-28.3c0-10.1,9.5-19.6,26.7-26.3c16.2-6.3,37.8-9.9,61-9.9
	c25,0,48.8,3.9,67,11.2c18.9,7.5,29.3,17.6,29.4,28.4c0,10-9.1,19.2-25.5,26C359.2,313.7,337.3,317.4,313.5,317.4L313.5,317.4
	L313.5,317.4z M569.9,331.8l-40.6,77.3c-0.3,0.5-0.8,0.9-1.4,0.9c-0.3,0-0.4,0-0.7,0l-143.5-58.6c-0.7-0.3-1.2-0.9-0.9-1.8
	c0-0.7,0.7-1.2,1.4-1.3l184.1-18.7c0.5,0,1.2,0.1,1.6,0.7C570.2,330.6,570.2,331.3,569.9,331.8L569.9,331.8L569.9,331.8z
	 M806.3,279.9l-99,40.6c-0.1,0-0.4,0.1-0.7,0.1c-0.1,0-0.4,0-0.7,0l-112.6-46.4c-0.5-0.3-0.9-0.9-0.9-1.6s0.4-1.2,0.9-1.6l99.5-39.4
	c0.4-0.1,0.8-0.1,1.2,0l112.1,45.2c0.7,0.1,0.9,0.8,0.9,1.6C807.4,279.1,806.8,279.8,806.3,279.9L806.3,279.9L806.3,279.9z"/>
</svg>