<svg enable-background="new 0 0 1000 1000" viewBox="0 0 1000 1000" xmlns="http://www.w3.org/2000/svg"><path d="m967.9 451.9c-3.3-4.6-7.7-8.3-13.1-10.6l-58-24.7 58.8-26.4c11.1-5 18.3-16.1 18.3-28.3v-55.9c0-6.2-2-12.2-5.5-17.1-3.1-4.4-7.4-8-12.6-10.2l-443.2-188.6c-3.9-1.7-8-2.5-12.2-2.5-4.4 0-8.8.9-12.8 2.8l-444.1 202.2c-5 2.3-9 5.9-12 10.1h-.1c-3.4 4.9-5.3 10.7-5.3 16.9v52.4c0 12.5 7.4 23.7 18.9 28.6l65 27.7-64.7 27.2c-5.4 2.3-9.8 5.9-13.1 10.4-3.7 5.1-6 11.4-6 18v50.9c0 12.4 7.3 23.7 18.8 28.5l58 24.7-57.9 24.4c-4.2 1.8-7.8 4.3-10.7 7.5l-.1.1c-.7.8-1.4 1.7-2.1 2.6l-.7.9c-3.4 5-5.4 11.1-5.4 17.4v51.8c0 12.4 7.4 23.7 18.9 28.5l443.3 188.8c8 3.4 17 3.3 24.9-.2l442.4-198.9c11.1-5 18.3-16.1 18.3-28.3v-55.9c0-8.3-3.3-16-8.8-21.7h-.1c-2.8-2.8-6.1-5.2-10-6.8l-51.4-21.9 51.9-23.3c11.2-5 18.2-16.1 18.2-28.4v-54.9c0-6.5-2.2-12.7-5.8-17.8zm-476.6-353.3c2.9-1.3 5.9-2 9.1-2 3 0 5.9.6 8.6 1.8l442.5 188.3-442.1 202c-2.9 1.3-5.9 2-9.1 2-3 0-5.8-.6-8.6-1.7l-443.3-188.7zm460.2 507.9-442 202c-2.9 1.3-5.9 2-9.1 2-3 0-5.9-.6-8.6-1.8l-442.6-188.3 64.9-27.4 374.2 159c3.5 1.5 7.3 2.3 11 2.5h3.2c3.6-.2 7.3-1.1 10.7-2.6l379.3-170.5zm-.2-156.9-441.8 201.9c-2.9 1.3-5.9 2-9.1 2-3 0-5.9-.6-8.6-1.8l-442.3-188.2 70.3-29.6 368.4 155.4c8 3.4 17 3.3 24.9-.2l372.6-167.5z" fill="#fff"/></svg>