<svg enable-background="new 0 0 72 72" viewBox="0 0 72 72" xmlns="http://www.w3.org/2000/svg"><path d="m14.6 30c2.7 0 3.4 1.5 3.4 2.7 0 2.3-2.2 3.1-2.2 3.5s2.6 2.3 2.6 5.8c0 .2-.1.2-.4.2h-1.7c-.3 0-.7 0-.7-.2 0-1.7-1.2-4.6-2-4.6-.4 0-1.5.6-1.5 1.4 0 1.1.5 3.1.5 3.2 0 .2-.4.2-.5.2h-1.7c-.4 0-.8.3-.8-5.2 0-7.3.8-7 1-7zm1.1 3c0-.9-.9-1.3-1.7-1.3-1.3 0-1.9.5-1.9 3 0 .3 0 .9.5.9.5.1 3.1-1.3 3.1-2.6zm4.4 4.8c0-4.3 2.4-6.4 4.7-6.4 1.9 0 3.6 1.1 3.6 3.2 0 3.8-5.7 3-5.7 4.9 0 .8 1.3 1.4 2.2 1.4 2.9 0 2.9-2.2 3.1-2.2.3 0 .3.9.3 1.1 0 2.2-1.7 3.5-3.9 3.5-3-.1-4.3-2.7-4.3-5.5zm2.4-1.8c0 .2.1.4.3.4s3.4-.7 3.4-1.6-.8-1.3-1.5-1.3c-1.4 0-2.2 1.5-2.2 2.5zm7.6 4.1c0-.8.4-1.9.6-1.9.1 0 .5 2.7 3 2.7.7 0 1.6-.4 1.6-1.3 0-1.8-4.8-1.3-4.8-4.9 0-2.2 1.7-3.3 3.6-3.3 2.2 0 3.4 1.3 3.4 1.7 0 .3-1 1.8-1.4 1.8-.5 0-.6-1.4-2.2-1.4-.5 0-1.3.2-1.3.8 0 1.8 5.2 1.8 5.2 5.4 0 2.3-1.9 3.6-4 3.6-1.8-.1-3.7-1.2-3.7-3.2zm14.9.9c0-.2 0-.7.5-.7 2 0 2.6-.7 2.6-.9 0-.7-3.1-2-3.1-6.9 0-.8 0-.8.7-.8h1.4c.2 0 .6-.1.6.3 0 .2-.2.8-.2 1.3 0 2.1 1.7 4 2.1 4 .7 0 1.2-2.1 1.2-3.5 0-.9-.2-1.6-.2-1.9s.4-.3.6-.3h1.6c.3.1.3.6.3 1.4.1 5.2-3.8 10.2-7.7 10.2-.4 0-.4-.2-.4-.6zm13.8-5.4c.5-.1.9-.2.9-.8 0-.9-.9-1.4-1.7-1.4-1.8 0-1.5 1.5-1.9 1.5-.6 0-1.2-.7-1.2-1.5 0-1.3 1.5-2.2 3.1-2.2.6 0 3 0 3.9 2.5.4 1 .4 6.3.4 6.9 0 .8.1 1.2.1 1.8 0 .4-1.7.4-3.2.4-4.3 0-4.6-2.2-4.6-3.3 0-2 2.2-3.5 4.2-3.9zm1.1 3.1c0-.6.1-1.4-.7-1.4-1 0-2.1.9-2.1 2 0 1 .9 1.6 1.8 1.6 1 0 1.1-.5 1.1-1.4v-.8zm-17.1-8.3c0 .4-.5 1.4-.5 1.6 0 .3.1.5.3.5s.4-.1.6-.1c.6 0 .6.4.6 1 0 .2 0 .8-.3.8-.1 0-.4-.1-.7-.1-.9 0-.9 1-.9 2.4 0 4.2.9 4.9.9 5.2 0 .2-1.8 1.1-2.2 1.1-.6 0-.8-3.5-.8-4.4 0-2 .1-2.7.1-3 0-.5.1-1.3-.6-1.3-.3 0-.4.2-.6.2s-.2-.2-.2-.5c0-1.2.3-1.3.9-1.3.1 0 .2.1.3.1.5 0 .5-.8.6-1.3.1-.6 1.9-1 2.2-1 .2-.3.3-.2.3.1z" fill="#fff"/><path d="m71.2 46.8c0 3.6-2.7 6.4-6 6.4h-58.4c-3.3 0-6-2.9-6-6.5v-21.5c0-3.6 2.7-6.4 6-6.4h58.5c3.3 0 6 2.9 6 6.5v21.5z" fill="none" stroke="#fff" stroke-miterlimit="10" stroke-width="1.2145"/></svg>