<?xml version="1.0" encoding="utf-8"?>
<svg version="1.1" id="Layer_1" xmlns="http://www.w3.org/2000/svg" xmlns:xlink="http://www.w3.org/1999/xlink" x="0px" y="0px"
	 viewBox="0 0 72 72" style="enable-background:new 0 0 72 72;" xml:space="preserve">
<style type="text/css">
	.st0{fill:#FFFFFF;}
</style>
<path class="st0" d="M71.3,36c0-3.5-1.1-6.9-3.1-10.1c-1.9-2.8-4.5-5.3-7.8-7.5c-6.4-4.1-14.8-6.3-23.6-6.3c-3,0-5.9,0.2-8.7,0.7
	c-1.8-1.6-3.8-3.1-6-4.3C10.4,2.9,0.7,8.4,0.7,8.4s9,7.4,7.5,13.8C4.2,26.2,2,31,2,36s2.2,9.8,6.2,13.8c1.5,6.4-7.5,13.8-7.5,13.8
	s9.6,5.5,21.2-0.1c2.2-1.2,4.2-2.6,6-4.3c2.8,0.5,5.7,0.7,8.7,0.7c8.9,0,17.3-2.2,23.6-6.3c3.3-2.1,5.9-4.6,7.8-7.5
	C70.2,43,71.3,39.6,71.3,36z M36.7,55c-3.7,0-7.1-0.4-10.4-1.2c-3.3,3.9-10.5,9.4-17.5,7.7c2.3-2.5,5.7-6.6,4.9-13.4
	C9.5,44.8,7,40.6,7,36c0-10.5,13.3-19,29.7-19s29.7,8.5,29.7,19S53.1,55,36.7,55z M36.7,32.7c2.2,0,3.9,1.8,3.9,3.9
	s-1.8,3.9-3.9,3.9s-3.9-1.8-3.9-3.9S34.5,32.7,36.7,32.7z M50.4,32.7c2.2,0,3.9,1.8,3.9,3.9s-1.8,3.9-3.9,3.9s-3.9-1.8-3.9-3.9
	S48.2,32.7,50.4,32.7z M22.9,32.7c2.2,0,3.9,1.8,3.9,3.9s-1.8,3.9-3.9,3.9S19,38.8,19,36.7S20.8,32.7,22.9,32.7z"/>
</svg>