<?xml version="1.0" encoding="utf-8"?>
<svg version="1.1" id="Layer_1" xmlns="http://www.w3.org/2000/svg" xmlns:xlink="http://www.w3.org/1999/xlink" x="0px" y="0px"
	 viewBox="0 0 1024 1024" style="enable-background:new 0 0 1024 1024;" xml:space="preserve">
<style type="text/css">
	.st0{fill:#FFFFFF;}
</style>
<path class="st0" d="M82.7,792.8h318.8c0,0-60.9-278,140.8-390.6c44-21.4,184-101.3,413.2,68.2c7.3-6.1,14.1-10.9,14.1-10.9
	s-209.8-209.4-443.5-186C408.7,284,264.2,390.9,179.5,532.2S82.7,792.8,82.7,792.8z M82.7,792.8h318.8c0,0-60.9-278,140.8-390.6
	c44-21.4,184-101.3,413.2,68.2c7.3-6.1,14.1-10.9,14.1-10.9s-209.8-209.4-443.5-186C408.7,284,264.2,390.9,179.5,532.2
	S82.7,792.8,82.7,792.8z M82.7,792.8h318.8c0,0-60.9-278,140.8-390.6c44-21.4,184-101.3,413.2,68.2c7.3-6.1,14.1-10.9,14.1-10.9
	s-209.8-209.4-443.5-186c-117.8,10.5-262.3,117.4-347,258.6S82.7,792.8,82.7,792.8z M746.8,296.1l1.6-27c-3.6-2-13.7-6.9-39.1-14.1
	l-1.6,26.6C721,286,733.9,290.9,746.8,296.1z M708.5,381.7l-1.6,25.4c13.3,0.4,26.6,2,39.9,4.8l1.6-25
	C734.7,384.1,721.4,382.5,708.5,381.7z M559.2,255.8h4l-8.1-24.6c-12.5,0-25.4,0.8-38.7,2.4l7.7,23.8
	C535.8,256.2,547.5,255.8,559.2,255.8z M578.6,404.3l9.3,27.8c11.7-5.6,23.4-10.5,35.1-14.1l-8.9-26.6
	C600.4,395.4,588.7,399.8,578.6,404.3z M395.4,298.1l-18.2-27.8c-10.1,5.2-20.6,10.9-31.5,17.4l18.6,28.2
	C374.8,309.4,384.9,303.4,395.4,298.1z M478.1,479.7l19.4,29.1c6.9-10.1,14.9-19.4,23.8-28.6l-18.2-27.4
	C493.8,461.2,485.4,470.4,478.1,479.7z M419.6,609.6l32.7,25.8c1.6-15.7,4.4-31.5,8.5-47.2l-29.1-23
	C426.5,580.2,422.8,595.1,419.6,609.6z M242.9,418l-28.6-25c-10.5,10.1-20.6,20.2-29.9,30.3l31.1,26.6
	C223.9,439,233.2,428.1,242.9,418z M121,598.4l-46.4-16.9c-7.7,17.4-16.1,37.5-20.2,48.4l46.4,16.9
	C106.1,633.1,114.5,613.3,121,598.4z M413.5,712.1c0.8,21.4,2.8,38.7,4.8,50.8l48.4,17.4c-3.6-15.7-7.3-33.5-9.7-52.5L413.5,712.1z"
	/>
</svg>