<svg enable-background="new 0 0 1024 1024" viewBox="0 0 1024 1024" xmlns="http://www.w3.org/2000/svg"><path d="m494.1 277-90.2-52-203.3 117.4v234.8l203.3 117.4 129.4-74.7v-18.1c0-16.2 6.2-30.9 17.8-42.6 8.3-8.3 18.1-13.8 28.9-16.3v-25.3c0-27.1 9.1-50.9 27.2-70.9v-104.3zm312.8 298.4c-7.4-7.4-16.2-11.1-26.3-11.1h-9.3v-46.7c0-23-8.3-42.7-24.8-59.3-16.6-16.6-36.3-24.8-59.3-24.8-19.1 0-36.1 5.8-50.7 17.3l-.1.1c-.9.7-1.8 1.4-2.7 2.2-.3.2-.5.4-.8.7-.7.6-1.4 1.2-2.1 1.8-1 .9-1.9 1.8-2.9 2.7-.8.8-1.6 1.7-2.4 2.5-2.8 2.9-5.1 5.8-7.3 8.9-.8 1.1-1.6 2.2-2.3 3.4l-2.1 3.4c-.7 1.2-1.3 2.3-1.9 3.5s-1.2 2.4-1.7 3.6-1.1 2.4-1.5 3.7c-2 5.1-3.4 10.4-4.3 15.9-.1.3-.1.6-.2.9-.1.7-.2 1.5-.3 2.2-.1.6-.1 1.1-.2 1.7s-.1 1.3-.2 1.9c-.1.8-.1 1.5-.2 2.3 0 .5-.1 1-.1 1.5-.1 1.3-.1 2.6-.1 3.9v46.7h-9.3c-10.1 0-18.9 3.7-26.3 11.1s-11.1 16.2-11.1 26.3v93.5c0 10.1 3.7 18.9 11.1 26.3s16.2 11.1 26.3 11.1h187c10.1 0 18.9-3.7 26.3-11.1s11.1-16.2 11.1-26.3v-93.5c-.2-10.1-3.9-18.9-11.3-26.3zm-101 82.4c0 5.5-1.8 9.9-5.3 13.4s-8 5.3-13.4 5.3c-5.5 0-9.9-1.8-13.4-5.3s-5.3-8-5.3-13.4v-18.7c0-5.5 1.8-9.9 5.3-13.4s8-5.3 13.4-5.3c5.5 0 9.9 1.8 13.4 5.3s5.3 8 5.3 13.4zm28-93.5h-93.5v-46.7c0-12.9 4.6-23.9 13.7-33s20.2-13.7 33-13.7c12.9 0 23.9 4.6 33 13.7 9.1 9.2 13.7 20.2 13.7 33zm230.9 82c-6.6-66.8-59.8-119.4-126.7-125.2 30-121.5-44.2-244.4-165.8-274.4-49.9-12.3-100.6-7.1-145 12.3l112.1 64.7v97.8c14.5-7.4 30.5-11.1 47.8-11.1 29.2 0 54.6 10.6 75.6 31.6 20.9 21 31.6 46.4 31.6 75.6v25.3c10.8 2.5 20.6 8 28.9 16.3 11.7 11.7 17.8 26.4 17.8 42.5v93.5c0 16.2-6.2 30.9-17.8 42.6-11.7 11.7-26.4 17.8-42.5 17.8h-187c-16.2 0-30.9-6.2-42.6-17.8-11.7-11.7-17.8-26.4-17.8-42.6v-38.3l-129.4 74.7-235.6-135.9v-130.2c-65.1 25.5-110.8 89.2-109.8 163.3 1.2 91 72.8 165.5 163.7 170.3h617.5v-.4c76.5-7.6 132.5-75.8 125-152.4z" fill="#fff"/></svg>