<svg viewBox="0 0 512 512" xmlns="http://www.w3.org/2000/svg"><path d="m224 96 16-32 32-16-32-16-16-32-16 32-32 16 32 16zm-144 64 26.66-53.33 53.34-26.67-53.34-26.67-26.66-53.33-26.66 53.33-53.34 26.67 53.34 26.67zm352 128-26.66 53.33-53.34 26.67 53.34 26.67 26.66 53.33 26.66-53.33 53.34-26.67-53.34-26.67zm70.62-193.77-84.85-84.85c-6.24-6.26-14.43-9.38-22.62-9.38s-16.38 3.12-22.63 9.38l-363.14 363.14c-12.5 12.5-12.5 32.76 0 45.25l84.85 84.85c6.25 6.25 14.44 9.37 22.62 9.37 8.19 0 16.38-3.12 22.63-9.37l363.14-363.15c12.5-12.48 12.5-32.75 0-45.24zm-143.17 109.23-50.91-50.91 86.6-86.6 50.91 50.91z" fill="#fff"/></svg>