<svg enable-background="new 0 0 72 72" viewBox="0 0 72 72" xmlns="http://www.w3.org/2000/svg"><path d="m7.7 38.3c0 .5-.1.9-.3 1.3s-.5.8-.8 1c-.4.3-.8.5-1.3.7s-1 .2-1.6.2c-.7 0-1.3-.1-1.9-.3s-1.1-.5-1.7-1l.9-1.5c.4.4.9.7 1.2.8.4.2.7.3 1.1.3.5 0 .8-.1 1.1-.4.3-.2.4-.6.4-1 0-.2 0-.3-.1-.5s-.1-.3-.3-.5c-.1-.2-.3-.3-.6-.5-.2-.2-.5-.4-.9-.7-.3-.2-.6-.4-.8-.6-.3-.2-.5-.4-.7-.7-.2-.2-.4-.5-.5-.8s-.2-.7-.2-1c0-.4.1-.9.3-1.2.2-.4.4-.7.8-.9.3-.3.7-.5 1.2-.6s.9-.2 1.5-.2 1.1.1 1.6.2c.5.2 1 .4 1.5.7l-.8 1.4c-.8-.5-1.4-.7-2.1-.7-.4 0-.7.1-1 .3s-.4.5-.4.8.1.6.3.8.6.6 1.2 1 1 .8 1.4 1.1.6.6.9.9c.2.3.4.5.4.8.1.1.2.4.2.8zm9.6-2.6c0 .4 0 .9-.1 1.4s-.2.9-.4 1.4c-.2.4-.5.8-.8 1-.3.3-.8.4-1.3.4-.9 0-1.6-.3-2.1-1s-.8-1.7-.8-2.9.3-2.2.8-3c.5-.7 1.2-1.1 2.1-1.1.8 0 1.5.3 2 1 .3.7.6 1.6.6 2.8zm3-.1c0-.8-.1-1.6-.3-2.2-.2-.7-.6-1.2-1-1.7s-.9-.9-1.5-1.1c-.6-.3-1.2-.4-1.9-.4-.8 0-1.5.2-2.1.4-.6.3-1.1.8-1.7 1.4v-1.6h-2.8v16.3h2.8v-6.9c.3.3.5.6.8.8s.5.4.8.5.5.2.8.3.6.1.9.1c.7 0 1.4-.2 2.1-.4.6-.3 1.2-.7 1.7-1.2s.8-1.2 1.1-1.9c.2-.8.3-1.6.3-2.4zm1.3 5.7h2.9v-16h-2.9zm15 0v-10.9h-2.9v5.9c0 .5 0 .9-.1 1.2 0 .3-.1.5-.2.8-.4.9-1.1 1.4-2.2 1.4-.8 0-1.4-.3-1.8-.9-.1-.2-.2-.5-.3-.8s-.1-.7-.1-1.3v-6.2h-2.9v6.2 1.1c0 .3 0 .5.1.8 0 .2.1.4.1.6s.1.3.2.5c.3.7.7 1.2 1.3 1.5s1.3.5 2.2.5c.8 0 1.4-.1 2-.4s1.1-.7 1.7-1.3v1.5zm12.4 0v-6.2c0-.4 0-.8 0-1.1s0-.6-.1-.8c0-.2-.1-.4-.1-.6s-.1-.3-.2-.5c-.3-.6-.7-1.2-1.3-1.5-.6-.4-1.3-.5-2.2-.5-.8 0-1.4.1-2 .4s-1.1.7-1.7 1.3v-1.5h-2.9v10.9h2.9v-5.9c0-.5 0-.9.1-1.2 0-.3.1-.5.2-.8.2-.4.5-.8.9-1s.8-.3 1.4-.3c.8 0 1.4.3 1.8.9.1.2.2.5.3.8s.1.7.1 1.3v6.2zm11.8-.8-4.4-5.4 3.7-4-2.1-.9-3.8 4.5h-.3v-9.4h-2.9v15.9h2.9v-5.8l4.3 6zm11.2-3.9v-1.8l-8.7-4.4v2l6.7 3.3-6.7 3.3v2zm-7.8-8.9c-.5 0-1 .4-1 1 0 .5.4 1 1 1 .5 0 1-.4 1-1-.1-.6-.5-1-1-1zm0 .1c.4 0 .8.4.8.8 0 .5-.3.8-.8.8-.4 0-.8-.4-.8-.8s.3-.8.8-.8zm-.2 1h.1c.1 0 .2.1.2.2s.1.2.1.3h.2s0-.1-.1-.3c0-.2-.1-.2-.2-.3.1 0 .2-.1.2-.3 0-.1 0-.2-.1-.2-.1-.1-.2-.1-.3-.1s-.2 0-.3 0v1.1h.2zm0-.5h.1c.2 0 .3.1.3.2s-.1.2-.3.2h-.1z" fill="#fff"/></svg>