<?xml version="1.0" encoding="utf-8"?>
<svg version="1.1" id="Layer_1" xmlns="http://www.w3.org/2000/svg" xmlns:xlink="http://www.w3.org/1999/xlink" x="0px" y="0px"
	 viewBox="0 0 39 71" style="enable-background:new 0 0 39 71;" xml:space="preserve">
<style type="text/css">
	.st0{fill:#FFFFFF;}
</style>
<path id="zafYUg_1_" class="st0" d="M15.1,2.6c0.6,0,1.2,0,1.8,0c0,0.3,0,0.6,0,0.9c0.6,0,1.2,0,1.8,0c0-0.3,0-0.6,0-0.9
	c0.6,0,1.2,0,1.8,0c0,0.3,0,0.6,0,0.9c0.3,0,0.6,0,0.9,0c0,0.3,0,0.6,0,0.8c0.3,0,0.6,0,0.9,0c0-0.3,0-0.6,0-0.9c0.3,0,0.6,0,0.9,0
	c0-0.3,0-0.6,0-0.9c0.3,0,0.6,0,0.9,0c0,0.3,0,0.6,0,0.9c0.3,0,0.6,0,0.9,0c0,0.3,0,0.6,0,0.9c0.3,0,0.6,0,0.9,0c0,0.3,0,0.6,0,0.9
	c0.3,0,0.6,0,0.9,0c0,0.3,0,0.6,0,0.9c0.3,0,0.6,0,0.9,0c0,0.3,0,0.6,0,0.8c0.3,0,0.6,0,0.9,0c0-0.3,0-0.6,0-0.8c0.6,0,1.2,0,1.8,0
	c0,0.3,0,0.6,0,0.9c0.9,0,1.8,0,2.7,0c0,0.3,0,0.6,0,0.9c0.3,0,0.6,0,0.8,0c0,0.3,0,0.6,0,0.9c-0.3,0-0.6,0-0.8,0c0,0.3,0,0.6,0,0.9
	c0.3,0,0.6,0,0.9,0c0,0.3,0,0.6,0,0.9c0.3,0,0.6,0,0.8,0c0,0.6,0,1.2,0,1.8c-0.3,0-0.6,0-0.8,0c0,0.3,0,0.6,0,0.9c0.3,0,0.6,0,0.9,0
	c0,0.3,0,0.6,0,0.9c0.3,0,0.6,0,0.9,0c0,0.3,0,0.6,0,0.9c0.3,0,0.6,0,0.9,0c0,0.6,0,1.2,0,1.8c0.3,0,0.6,0,0.9,0c0,0.6,0,1.2,0,1.8
	c-0.3,0-0.6,0-0.9,0c0,0.6,0,1.2,0,1.8c-0.3,0-0.6,0-0.8,0c0,0.9,0,1.8,0,2.7c0.3,0,0.6,0,0.9,0c0,0.3,0,0.6,0,0.9
	c0.3,0,0.6,0,0.9,0c0,0.6,0,1.2,0,1.8c-0.3,0-0.6,0-0.9,0c0,0.9,0,1.8,0,2.7c-0.3,0-0.6,0-0.9,0c0,0.3,0,0.6,0,0.9
	c-0.3,0-0.6,0-0.9,0c0,0.3,0,0.6,0,0.9c-0.3,0-0.6,0-0.9,0c0,0.3,0,0.6,0,0.9c-0.3,0-0.6,0-0.9,0c0,0.6,0,1.2,0,1.8
	c-0.3,0-0.6,0-0.9,0c0,0.3,0,0.6,0,0.9c-0.6,0-1.2,0-1.8,0c0,0.3,0,0.6,0,0.9c-0.3,0-0.6,0-0.9,0c0,0.3,0,0.6,0,0.9
	c-0.3,0-0.6,0-0.9,0c0-0.3,0-0.6,0-0.9c-0.3,0-0.6,0-0.9,0c0-0.6,0-1.2,0-1.7c-0.9,0-1.8,0-2.7,0c0,0.3,0,0.6,0,0.9
	c-0.3,0-0.6,0-0.9,0c0,0.3,0,0.6,0,0.9c-0.3,0-0.6,0-0.8,0c0,2.1,0,4.1,0,6.2c0.3,0,0.6,0,0.9,0c0,0.3,0,0.6,0,0.9
	c0.6,0,1.2,0,1.8,0c0,0.3,0,0.6,0,0.9c0.6,0,1.2,0,1.8,0c0,0.3,0,0.6,0,0.9c0.3,0,0.6,0,0.9,0c0,0.3,0,0.6,0,0.8c0.3,0,0.6,0,0.9,0
	c0-0.6,0-1.2,0-1.8c0.3,0,0.6,0,0.9,0c0-0.3,0-0.6,0-0.9c0.3,0,0.6,0,0.9,0c0-0.3,0-0.6,0-0.8c0.3,0,0.6,0,0.9,0c0,0.3,0,0.6,0,0.8
	c0.3,0,0.6,0,0.9,0c0-0.3,0-0.6,0-0.8c0.3,0,0.6,0,0.9,0c0,0.3,0,0.6,0,0.9c0.3,0,0.6,0,0.9,0c0,0.3,0,0.6,0,0.9c0.3,0,0.6,0,0.9,0
	c0,0.6,0,1.2,0,1.8c0.3,0,0.6,0,0.9,0c0,0.6,0,1.2,0,1.8c-0.3,0-0.6,0-0.8,0c0,0.3,0,0.6,0,0.9c0.3,0,0.6,0,0.8,0c0,0.6,0,1.2,0,1.8
	c-0.3,0-0.6,0-0.9,0c0,0.3,0,0.6,0,0.9c-0.3,0-0.6,0-0.9,0c0,0.3,0,0.6,0,0.8c-1.2,0-2.3,0-3.6,0c0-0.3,0-0.6,0-0.9
	c-0.6,0-1.2,0-1.8,0c0-0.6,0-1.2,0-1.8c-0.3,0-0.6,0-0.9,0c0-0.3,0-0.6,0-0.9c-0.3,0-0.6,0-0.9,0c0-0.3,0-0.6,0-0.9
	c-0.9,0-1.8,0-2.6,0c0-0.3,0-0.6,0-0.8c-0.6,0-1.2,0-1.7,0c0,0.3,0,0.6,0,0.9c0.3,0,0.6,0,0.8,0c0,1.5,0,3,0,4.4c-0.3,0-0.6,0-0.8,0
	c0,1.2,0,2.3,0,3.5c0.9,0,1.8,0,2.6,0c0-0.3,0-0.6,0-0.9c0.6,0,1.2,0,1.8,0c0-0.3,0-0.6,0-0.9c0.9,0,1.8,0,2.6,0c0,0.9,0,1.8,0,2.6
	c-0.6,0-1.1,0-1.7,0c0,0.3,0,0.6,0,0.9c-0.3,0-0.6,0-0.9,0c0,0.3,0,0.6,0,0.9c-0.6,0-1.2,0-1.8,0c0,0.3,0,0.6,0,0.9
	c-0.3,0-0.6,0-0.9,0c0,0.3,0,0.6,0,0.9c-0.6,0-1.2,0-1.7,0c0,0.6,0,1.2,0,1.8c0.3,0,0.6,0,0.9,0c0,0.3,0,0.6,0,0.9
	c0.3,0,0.6,0,0.9,0c0,0.3,0,0.6,0,0.9c0.3,0,0.6,0,0.9,0c0,0.6,0,1.2,0,1.8c0.3,0,0.6,0,0.9,0c0,0.3,0,0.6,0,0.9c0.6,0,1.2,0,1.8,0
	c0,0.3,0,0.6,0,0.9c0.3,0,0.6,0,0.9,0c0,0.6,0,1.2,0,1.8c-0.3,0-0.6,0-0.9,0c0,0.3,0,0.6,0,0.8c-0.3,0-0.6,0-0.9,0
	c0-0.3,0-0.6,0-0.8c-0.3,0-0.6,0-0.9,0c0,0.3,0,0.6,0,0.8c-0.6,0-1.2,0-1.8,0c0-0.3,0-0.6,0-0.8c-0.9,0-1.8,0-2.7,0
	c0,0.3,0,0.6,0,0.8c-0.6,0-1.2,0-1.8,0c0-0.3,0-0.6,0-0.8c-0.3,0-0.6,0-0.9,0c0,0.3,0,0.6,0,0.8c-0.3,0-0.6,0-0.9,0
	c0-0.3,0-0.6,0-0.8c-0.6,0-1.2,0-1.8,0c0,0.3,0,0.6,0,0.8c-0.3,0-0.6,0-0.9,0c0-0.3,0-0.6,0-0.8c-0.3,0-0.6,0-0.9,0
	c0,0.3,0,0.6,0,0.8c-0.6,0-1.2,0-1.8,0c0-0.3,0-0.6,0-0.8c-0.3,0-0.6,0-0.9,0c0,0.3,0,0.6,0,0.8c-0.3,0-0.6,0-0.9,0
	c0-0.3,0-0.6,0-0.9c-0.9,0-1.8,0-2.6,0c0-0.6,0-1.2,0-1.8c0.3,0,0.6,0,0.9,0c0-0.3,0-0.6,0-0.9c0.6,0,1.2,0,1.8,0c0-0.3,0-0.6,0-0.9
	c0.6,0,1.2,0,1.8,0c0-0.6,0-1.2,0-1.8c0.3,0,0.6,0,0.9,0c0-0.6,0-1.2,0-1.8c0.3,0,0.6,0,0.9,0c0-0.6,0-1.2,0-1.8c-0.3,0-0.6,0-0.9,0
	c0-0.3,0-0.6,0-0.9c-0.6,0-1.2,0-1.8,0c0-0.3,0-0.6,0-0.9c-0.3,0-0.6,0-0.9,0c0-0.3,0-0.6,0-0.8c-0.6,0-1.2,0-1.8,0
	c0,0.3,0,0.6,0,0.9c-0.3,0-0.6,0-0.9,0c0,0.3,0,0.6,0,0.9c-0.6,0-1.2,0-1.8,0c0,0.3,0,0.6,0,0.8c-0.3,0-0.6,0-0.9,0
	c0-0.3,0-0.6,0-0.9c-0.3,0-0.6,0-0.9,0c0-0.6,0-1.2,0-1.8c-0.3,0-0.6,0-0.9,0c0-0.3,0-0.6,0-0.9c-0.6,0-1.2,0-1.7,0
	c0-0.6,0-1.2,0-1.8c0.3,0,0.6,0,0.9,0c0-0.3,0-0.6,0-0.9c0.3,0,0.6,0,0.8,0c0-0.3,0-0.6,0-0.9c-0.3,0-0.6,0-0.8,0c0-0.6,0-1.2,0-1.8
	c0.3,0,0.6,0,0.9,0c0-0.3,0-0.6,0-0.9c0.3,0,0.6,0,0.9,0c0-0.3,0-0.6,0-0.8c0.3,0,0.6,0,0.9,0c0,0.3,0,0.6,0,0.8c0.3,0,0.6,0,0.9,0
	c0-0.3,0-0.6,0-0.9c0.6,0,1.2,0,1.8,0c0-0.3,0-0.6,0-0.8c0.3,0,0.6,0,0.9,0c0,0.3,0,0.6,0,0.9c0.6,0,1.2,0,1.8,0c0,0.3,0,0.6,0,0.9
	c0.3,0,0.6,0,0.8,0c0,0.6,0,1.2,0,1.8c-0.3,0-0.6,0-0.8,0c0,0.9,0,1.8,0,2.7c0.3,0,0.6,0,0.9,0c0,0.3,0,0.6,0,0.9c0.6,0,1.2,0,1.8,0
	c0,0.3,0,0.6,0,0.9c0.6,0,1.2,0,1.7,0c0-3.3,0-6.5,0-9.8c-0.3,0-0.6,0-0.9,0c0-0.3,0-0.6,0-0.9c-0.3,0-0.6,0-0.9,0
	c0-0.3,0-0.6,0-0.9c-0.6,0-1.2,0-1.8,0c0-0.3,0-0.6,0-0.9c-0.3,0-0.6,0-0.9,0c0-0.3,0-0.6,0-0.8c-0.6,0-1.2,0-1.8,0
	c0,0.3,0,0.6,0,0.9c-0.3,0-0.6,0-0.9,0c0,0.3,0,0.6,0,0.9c-0.6,0-1.2,0-1.8,0c0,0.3,0,0.6,0,0.8c-0.3,0-0.6,0-0.9,0
	c0-0.3,0-0.6,0-0.9c-0.3,0-0.6,0-0.9,0c0-0.6,0-1.2,0-1.8c-0.3,0-0.6,0-0.9,0c0-0.3,0-0.6,0-0.9c-0.6,0-1.2,0-1.7,0
	c0-0.6,0-1.2,0-1.8c0.3,0,0.6,0,0.9,0c0-0.3,0-0.6,0-0.9c0.3,0,0.6,0,0.8,0c0-0.3,0-0.6,0-0.9c-0.3,0-0.6,0-0.8,0c0-0.6,0-1.2,0-1.8
	c0.3,0,0.6,0,0.9,0c0-0.3,0-0.6,0-0.9c0.3,0,0.6,0,0.9,0c0-0.3,0-0.6,0-0.8c0.3,0,0.6,0,0.9,0c0,0.3,0,0.6,0,0.8c0.3,0,0.6,0,0.8,0
	c0-0.6,0-1.2,0-1.8c-0.3,0-0.6,0-0.9,0c0-0.3,0-0.6,0-0.9c-0.3,0-0.6,0-0.9,0c0-0.9,0-1.8,0-2.6c0.6,0,1.2,0,1.8,0
	c0-0.2,0-0.3,0-0.4c-0.3,0-0.6,0-0.9,0c0-0.5,0-0.9,0-1.3c-0.6,0-1.2,0-1.8,0c0,0.3,0,0.6,0,0.8c-0.3,0-0.6,0-0.9,0
	c0-0.3,0-0.6,0-0.9c-0.3,0-0.6,0-0.9,0c0-0.6,0-1.2,0-1.8c-0.3,0-0.6,0-0.9,0c0-0.6,0-1.2,0-1.8c0.3,0,0.6,0,0.9,0
	c0-0.6,0-1.2,0-1.8c0.3,0,0.6,0,0.8,0c0-0.6,0-1.2,0-1.8c-0.3,0-0.6,0-0.9,0c0-0.9,0-1.8,0-2.7c-0.3,0-0.6,0-0.9,0
	c0-0.9,0-1.8,0-2.7c0.3,0,0.6,0,0.9,0c0-0.3,0-0.6,0-0.9c0.6,0,1.2,0,1.7,0c0-0.9,0-1.8,0-2.7c-0.3,0-0.6,0-0.9,0c0-0.3,0-0.6,0-0.9
	c-0.3,0-0.6,0-0.8,0c0-0.3,0-0.6,0-0.9c0.3,0,0.6,0,0.9,0c0-0.3,0-0.6,0-0.9c0.6,0,1.2,0,1.8,0c0-0.6,0-1.2,0-1.8C5.7,7,6,7,6.3,7
	c0-0.3,0-0.6,0-0.9c0.3,0,0.6,0,0.9,0c0,0.3,0,0.6,0,0.8C7.5,7,7.7,7,8,7c0-0.3,0-0.6,0-0.9c0.6,0,1.2,0,1.8,0c0-0.3,0-0.6,0-0.9
	c0.6,0,1.2,0,1.8,0c0,0.3,0,0.6,0,0.8c0.6,0,1.2,0,1.8,0c0-0.3,0-0.6,0-0.9c0.3,0,0.6,0,0.9,0c0-0.6,0-1.2,0-1.8c0.3,0,0.6,0,0.9,0
	C15.1,3.2,15.1,2.9,15.1,2.6z M15.1,35.5c0,0.3,0,0.6,0,0.8c-0.6,0-1.2,0-1.8,0c0-0.3,0-0.6,0-0.8c-0.3,0-0.6,0-0.9,0
	c0,0.3,0,0.6,0,0.9c-0.3,0-0.6,0-0.8,0c0,0.9,0,1.8,0,2.7c0.3,0,0.6,0,0.9,0c0,0.3,0,0.6,0,0.9c0.6,0,1.2,0,1.8,0c0,0.3,0,0.6,0,0.9
	c0.6,0,1.2,0,1.7,0c0-1.8,0-3.5,0-5.3C15.7,35.5,15.4,35.5,15.1,35.5z"/>
</svg>