<?xml version="1.0" encoding="utf-8"?>
<!-- Generator: Adobe Illustrator 24.0.3, SVG Export Plug-In . SVG Version: 6.00 Build 0)  -->
<svg version="1.1" id="Layer_1" xmlns="http://www.w3.org/2000/svg" xmlns:xlink="http://www.w3.org/1999/xlink" x="0px" y="0px"
	 viewBox="0 0 39 71" style="enable-background:new 0 0 39 71;" xml:space="preserve">
<style type="text/css">
	.st0{fill:#FFFFFF;}
</style>
<metadata><?xpacket begin="﻿" id="W5M0MpCehiHzreSzNTczkc9d"?>
<x:xmpmeta xmlns:x="adobe:ns:meta/" x:xmptk="Adobe XMP Core 5.6-c148 79.164050, 2019/10/01-18:03:16        ">
   <rdf:RDF xmlns:rdf="http://www.w3.org/1999/02/22-rdf-syntax-ns#">
      <rdf:Description rdf:about=""
            xmlns:xmp="http://ns.adobe.com/xap/1.0/"
            xmlns:xmpGImg="http://ns.adobe.com/xap/1.0/g/img/"
            xmlns:xmpTPg="http://ns.adobe.com/xap/1.0/t/pg/"
            xmlns:stDim="http://ns.adobe.com/xap/1.0/sType/Dimensions#"
            xmlns:xmpG="http://ns.adobe.com/xap/1.0/g/"
            xmlns:dc="http://purl.org/dc/elements/1.1/">
         <xmp:CreatorTool>Adobe Illustrator 24.0 (Macintosh)</xmp:CreatorTool>
         <xmp:CreateDate>2020-02-17T14:13:11-05:00</xmp:CreateDate>
         <xmp:Thumbnails>
            <rdf:Alt>
               <rdf:li rdf:parseType="Resource">
                  <xmpGImg:width>140</xmpGImg:width>
                  <xmpGImg:height>256</xmpGImg:height>
                  <xmpGImg:format>JPEG</xmpGImg:format>
                  <xmpGImg:image>/9j/4AAQSkZJRgABAgEASABIAAD/7QAsUGhvdG9zaG9wIDMuMAA4QklNA+0AAAAAABAASAAAAAEA&#xA;AQBIAAAAAQAB/+4ADkFkb2JlAGTAAAAAAf/bAIQABgQEBAUEBgUFBgkGBQYJCwgGBggLDAoKCwoK&#xA;DBAMDAwMDAwQDA4PEA8ODBMTFBQTExwbGxscHx8fHx8fHx8fHwEHBwcNDA0YEBAYGhURFRofHx8f&#xA;Hx8fHx8fHx8fHx8fHx8fHx8fHx8fHx8fHx8fHx8fHx8fHx8fHx8fHx8fHx8f/8AAEQgBAACMAwER&#xA;AAIRAQMRAf/EAaIAAAAHAQEBAQEAAAAAAAAAAAQFAwIGAQAHCAkKCwEAAgIDAQEBAQEAAAAAAAAA&#xA;AQACAwQFBgcICQoLEAACAQMDAgQCBgcDBAIGAnMBAgMRBAAFIRIxQVEGE2EicYEUMpGhBxWxQiPB&#xA;UtHhMxZi8CRygvElQzRTkqKyY3PCNUQnk6OzNhdUZHTD0uIIJoMJChgZhJRFRqS0VtNVKBry4/PE&#xA;1OT0ZXWFlaW1xdXl9WZ2hpamtsbW5vY3R1dnd4eXp7fH1+f3OEhYaHiImKi4yNjo+Ck5SVlpeYmZ&#xA;qbnJ2en5KjpKWmp6ipqqusra6voRAAICAQIDBQUEBQYECAMDbQEAAhEDBCESMUEFURNhIgZxgZEy&#xA;obHwFMHR4SNCFVJicvEzJDRDghaSUyWiY7LCB3PSNeJEgxdUkwgJChgZJjZFGidkdFU38qOzwygp&#xA;0+PzhJSktMTU5PRldYWVpbXF1eX1RlZmdoaWprbG1ub2R1dnd4eXp7fH1+f3OEhYaHiImKi4yNjo&#xA;+DlJWWl5iZmpucnZ6fkqOkpaanqKmqq6ytrq+v/aAAwDAQACEQMRAD8A9U4q7FXYq7FXYq7FXYq7&#xA;FXYq7FXYq7FXYq7FXYq7FXYq7FXYq7FXYq7FXYq7FXYq7FXYq7FXYq7FXYq7FXYq7FXYq7FXYq7F&#xA;XYq7FXYq7FXYq7FXYq7FXYq7FXYq7FXYq7FXYq7FXYq7FXYq7FXYq7FXYq7FXYq7FXYq7FXYq7FX&#xA;Yq7FXYq7FXYq7FXYq7FXYq7FXYq7FXYq7FXYq7FXYq7FXYq7FXYq7FXYq7FXYq7FXYq7FXYq7FXY&#xA;q7FXYq7FXYq7FXYq7FXYq7FXYq7FXYq7FXYq7FXYq7FXYq7FXYq7FXYq7FXYq7FXYq7FXYq7FXYq&#xA;7FXYq7FXYq7FXYq7FXYq7FXYq7FXYq7FXYq7FXYq7FXYq7FXYq7FXYq7FXYq7FXYq7FXYq7FXYq7&#xA;FXYq7FXYq7FXYq7FXYq7FXYq7FXYq7FXYq7FXYq7FXYq7FXYq7FXYq7FXYq7FXYq7FXYq7FXYq7F&#xA;XYq7FXYq7FXYq7FXYq7FXYq7FXYq7FXYq7FXYq7FXYq7FXYq7FXYq7FXYq7FXYq7FXYq7FXYq7FX&#xA;Yq7FXYq7FXYq7FXYq7FXYq7FXYq7FXYq7FXYq7FXYq7FXYq7FXYq7FXYq7FXYq7FXYq7FXYq7FXY&#xA;q7FXYq7FXYq7FXYq7FXYq7FXYq7FXYq7FXYq7FXYq7FXYq7FXYq7FXYq7FXYq7FXYq7FXYq7FXYq&#xA;7FXYq7FXYq7FXYq7FXYq7FXYq7FXYq7FXYq7FXYq7FXYq7FXYq7FXYq7FXYq7FXYq7FXYq7FXYq7&#xA;FXYq7FXYq7FXYq7FXYq7FXYq7FXYq7FXYq7FXYq7FXYq7FXYq7FXYq7FXYq7FXYq7FXYq7FXYq7F&#xA;XYq7FXYq7FXYq7FXYq7FXYq7FXYq7FXYq7FXYq7FXYq7FXYq7FXYq7FXYq7FXYq7FXYq7FXYq7FX&#xA;Yq7FXYq7FXYq7FXYq7FXYq7FXYq7FXYq7FXYq7FXYq7FXYq7FXYq7FXYq7FXYq7FXYq7FXYq7FXY&#xA;q7FXYq7FXYq7FXYq7FXYq7FXYq7FXYq7FXYq7FXYq7FXYq7FXYq7FXYq7FXYq7FXYq7FXYq7FXYq&#xA;7FXYq7FXYq7FXYq7FXYq7FXYq7FXYq7FXYq7FXYq7FXYq7FXYq7FXYq7FXYq7FXYq7FXYq7FXYq7&#xA;FXYq7FXYq7FXYq7FXYq7FXYq7FXYq7FXYq7FXYq7FXYq7FXYq7FXYq7FXYq7FXYq7FXYq7FXYq7F&#xA;XYq7FXYq7FXYq7FXYq7FXYq7FXYq7FXYq7FXYq7FXYq7FXYq7FXYq7FXYq7FXYq7FXYq7FXYq7FX&#xA;Yq7FXYq7FXYq7FXYq7FXYq7FXYq7FXYq7FXYq7FXYq7FXYq7FXYq7FXYq7FXYq7FXYq7FXYq7FXY&#xA;q7FXYq7FXYq7FXYq7FXYq7FXYq7FXYq7FXYq7FXYq7FXYq7FXYq7FX//2Q==</xmpGImg:image>
               </rdf:li>
            </rdf:Alt>
         </xmp:Thumbnails>
         <xmpTPg:MaxPageSize rdf:parseType="Resource">
            <stDim:w>39.000000</stDim:w>
            <stDim:h>71.000000</stDim:h>
            <stDim:unit>Pixels</stDim:unit>
         </xmpTPg:MaxPageSize>
         <xmpTPg:NPages>1</xmpTPg:NPages>
         <xmpTPg:HasVisibleTransparency>False</xmpTPg:HasVisibleTransparency>
         <xmpTPg:HasVisibleOverprint>False</xmpTPg:HasVisibleOverprint>
         <xmpTPg:SwatchGroups>
            <rdf:Seq>
               <rdf:li rdf:parseType="Resource">
                  <xmpG:groupName>Default Swatch Group</xmpG:groupName>
                  <xmpG:groupType>0</xmpG:groupType>
               </rdf:li>
            </rdf:Seq>
         </xmpTPg:SwatchGroups>
         <dc:format>image/svg+xml</dc:format>
      </rdf:Description>
   </rdf:RDF>
</x:xmpmeta>
                                                                                                    
                                                                                                    
                                                                                                    
                                                                                                    
                                                                                                    
                                                                                                    
                                                                                                    
                                                                                                    
                                                                                                    
                                                                                                    
                                                                                                    
                                                                                                    
                                                                                                    
                                                                                                    
                                                                                                    
                                                                                                    
                                                                                                    
                                                                                                    
                                                                                                    
                                                                                                    
                           
<?xpacket end="w"?>
	</metadata>
<path id="zafYUg_1_" class="st0" d="M15.1,2.6c0.6,0,1.2,0,1.8,0c0,0.3,0,0.6,0,0.9c0.6,0,1.2,0,1.8,0c0-0.3,0-0.6,0-0.9
	c0.6,0,1.2,0,1.8,0c0,0.3,0,0.6,0,0.9c0.3,0,0.6,0,0.9,0c0,0.3,0,0.6,0,0.8c0.3,0,0.6,0,0.9,0c0-0.3,0-0.6,0-0.9c0.3,0,0.6,0,0.9,0
	c0-0.3,0-0.6,0-0.9c0.3,0,0.6,0,0.9,0c0,0.3,0,0.6,0,0.9c0.3,0,0.6,0,0.9,0c0,0.3,0,0.6,0,0.9c0.3,0,0.6,0,0.9,0c0,0.3,0,0.6,0,0.9
	c0.3,0,0.6,0,0.9,0c0,0.3,0,0.6,0,0.9c0.3,0,0.6,0,0.9,0c0,0.3,0,0.6,0,0.8c0.3,0,0.6,0,0.9,0c0-0.3,0-0.6,0-0.8c0.6,0,1.2,0,1.8,0
	c0,0.3,0,0.6,0,0.9c0.9,0,1.8,0,2.7,0c0,0.3,0,0.6,0,0.9c0.3,0,0.6,0,0.8,0c0,0.3,0,0.6,0,0.9c-0.3,0-0.6,0-0.8,0c0,0.3,0,0.6,0,0.9
	c0.3,0,0.6,0,0.9,0c0,0.3,0,0.6,0,0.9c0.3,0,0.6,0,0.8,0c0,0.6,0,1.2,0,1.8c-0.3,0-0.6,0-0.8,0c0,0.3,0,0.6,0,0.9c0.3,0,0.6,0,0.9,0
	c0,0.3,0,0.6,0,0.9c0.3,0,0.6,0,0.9,0c0,0.3,0,0.6,0,0.9c0.3,0,0.6,0,0.9,0c0,0.6,0,1.2,0,1.8c0.3,0,0.6,0,0.9,0c0,0.6,0,1.2,0,1.8
	c-0.3,0-0.6,0-0.9,0c0,0.6,0,1.2,0,1.8c-0.3,0-0.6,0-0.8,0c0,0.9,0,1.8,0,2.7c0.3,0,0.6,0,0.9,0c0,0.3,0,0.6,0,0.9
	c0.3,0,0.6,0,0.9,0c0,0.6,0,1.2,0,1.8c-0.3,0-0.6,0-0.9,0c0,0.9,0,1.8,0,2.7c-0.3,0-0.6,0-0.9,0c0,0.3,0,0.6,0,0.9
	c-0.3,0-0.6,0-0.9,0c0,0.3,0,0.6,0,0.9c-0.3,0-0.6,0-0.9,0c0,0.3,0,0.6,0,0.9c-0.3,0-0.6,0-0.9,0c0,0.6,0,1.2,0,1.8
	c-0.3,0-0.6,0-0.9,0c0,0.3,0,0.6,0,0.9c-0.6,0-1.2,0-1.8,0c0,0.3,0,0.6,0,0.9c-0.3,0-0.6,0-0.9,0c0,0.3,0,0.6,0,0.9
	c-0.3,0-0.6,0-0.9,0c0-0.3,0-0.6,0-0.9c-0.3,0-0.6,0-0.9,0c0-0.6,0-1.2,0-1.7c-0.9,0-1.8,0-2.7,0c0,0.3,0,0.6,0,0.9
	c-0.3,0-0.6,0-0.9,0c0,0.3,0,0.6,0,0.9c-0.3,0-0.6,0-0.8,0c0,2.1,0,4.1,0,6.2c0.3,0,0.6,0,0.9,0c0,0.3,0,0.6,0,0.9
	c0.6,0,1.2,0,1.8,0c0,0.3,0,0.6,0,0.9c0.6,0,1.2,0,1.8,0c0,0.3,0,0.6,0,0.9c0.3,0,0.6,0,0.9,0c0,0.3,0,0.6,0,0.8c0.3,0,0.6,0,0.9,0
	c0-0.6,0-1.2,0-1.8c0.3,0,0.6,0,0.9,0c0-0.3,0-0.6,0-0.9c0.3,0,0.6,0,0.9,0c0-0.3,0-0.6,0-0.8c0.3,0,0.6,0,0.9,0c0,0.3,0,0.6,0,0.8
	c0.3,0,0.6,0,0.9,0c0-0.3,0-0.6,0-0.8c0.3,0,0.6,0,0.9,0c0,0.3,0,0.6,0,0.9c0.3,0,0.6,0,0.9,0c0,0.3,0,0.6,0,0.9c0.3,0,0.6,0,0.9,0
	c0,0.6,0,1.2,0,1.8c0.3,0,0.6,0,0.9,0c0,0.6,0,1.2,0,1.8c-0.3,0-0.6,0-0.8,0c0,0.3,0,0.6,0,0.9c0.3,0,0.6,0,0.8,0c0,0.6,0,1.2,0,1.8
	c-0.3,0-0.6,0-0.9,0c0,0.3,0,0.6,0,0.9c-0.3,0-0.6,0-0.9,0c0,0.3,0,0.6,0,0.8c-1.2,0-2.3,0-3.6,0c0-0.3,0-0.6,0-0.9
	c-0.6,0-1.2,0-1.8,0c0-0.6,0-1.2,0-1.8c-0.3,0-0.6,0-0.9,0c0-0.3,0-0.6,0-0.9c-0.3,0-0.6,0-0.9,0c0-0.3,0-0.6,0-0.9
	c-0.9,0-1.8,0-2.6,0c0-0.3,0-0.6,0-0.8c-0.6,0-1.2,0-1.7,0c0,0.3,0,0.6,0,0.9c0.3,0,0.6,0,0.8,0c0,1.5,0,3,0,4.4c-0.3,0-0.6,0-0.8,0
	c0,1.2,0,2.3,0,3.5c0.9,0,1.8,0,2.6,0c0-0.3,0-0.6,0-0.9c0.6,0,1.2,0,1.8,0c0-0.3,0-0.6,0-0.9c0.9,0,1.8,0,2.6,0c0,0.9,0,1.8,0,2.6
	c-0.6,0-1.1,0-1.7,0c0,0.3,0,0.6,0,0.9c-0.3,0-0.6,0-0.9,0c0,0.3,0,0.6,0,0.9c-0.6,0-1.2,0-1.8,0c0,0.3,0,0.6,0,0.9
	c-0.3,0-0.6,0-0.9,0c0,0.3,0,0.6,0,0.9c-0.6,0-1.2,0-1.7,0c0,0.6,0,1.2,0,1.8c0.3,0,0.6,0,0.9,0c0,0.3,0,0.6,0,0.9
	c0.3,0,0.6,0,0.9,0c0,0.3,0,0.6,0,0.9c0.3,0,0.6,0,0.9,0c0,0.6,0,1.2,0,1.8c0.3,0,0.6,0,0.9,0c0,0.3,0,0.6,0,0.9c0.6,0,1.2,0,1.8,0
	c0,0.3,0,0.6,0,0.9c0.3,0,0.6,0,0.9,0c0,0.6,0,1.2,0,1.8c-0.3,0-0.6,0-0.9,0c0,0.3,0,0.6,0,0.8c-0.3,0-0.6,0-0.9,0
	c0-0.3,0-0.6,0-0.8c-0.3,0-0.6,0-0.9,0c0,0.3,0,0.6,0,0.8c-0.6,0-1.2,0-1.8,0c0-0.3,0-0.6,0-0.8c-0.9,0-1.8,0-2.7,0
	c0,0.3,0,0.6,0,0.8c-0.6,0-1.2,0-1.8,0c0-0.3,0-0.6,0-0.8c-0.3,0-0.6,0-0.9,0c0,0.3,0,0.6,0,0.8c-0.3,0-0.6,0-0.9,0
	c0-0.3,0-0.6,0-0.8c-0.6,0-1.2,0-1.8,0c0,0.3,0,0.6,0,0.8c-0.3,0-0.6,0-0.9,0c0-0.3,0-0.6,0-0.8c-0.3,0-0.6,0-0.9,0
	c0,0.3,0,0.6,0,0.8c-0.6,0-1.2,0-1.8,0c0-0.3,0-0.6,0-0.8c-0.3,0-0.6,0-0.9,0c0,0.3,0,0.6,0,0.8c-0.3,0-0.6,0-0.9,0
	c0-0.3,0-0.6,0-0.9c-0.9,0-1.8,0-2.6,0c0-0.6,0-1.2,0-1.8c0.3,0,0.6,0,0.9,0c0-0.3,0-0.6,0-0.9c0.6,0,1.2,0,1.8,0c0-0.3,0-0.6,0-0.9
	c0.6,0,1.2,0,1.8,0c0-0.6,0-1.2,0-1.8c0.3,0,0.6,0,0.9,0c0-0.6,0-1.2,0-1.8c0.3,0,0.6,0,0.9,0c0-0.6,0-1.2,0-1.8c-0.3,0-0.6,0-0.9,0
	c0-0.3,0-0.6,0-0.9c-0.6,0-1.2,0-1.8,0c0-0.3,0-0.6,0-0.9c-0.3,0-0.6,0-0.9,0c0-0.3,0-0.6,0-0.8c-0.6,0-1.2,0-1.8,0
	c0,0.3,0,0.6,0,0.9c-0.3,0-0.6,0-0.9,0c0,0.3,0,0.6,0,0.9c-0.6,0-1.2,0-1.8,0c0,0.3,0,0.6,0,0.8c-0.3,0-0.6,0-0.9,0
	c0-0.3,0-0.6,0-0.9c-0.3,0-0.6,0-0.9,0c0-0.6,0-1.2,0-1.8c-0.3,0-0.6,0-0.9,0c0-0.3,0-0.6,0-0.9c-0.6,0-1.2,0-1.7,0
	c0-0.6,0-1.2,0-1.8c0.3,0,0.6,0,0.9,0c0-0.3,0-0.6,0-0.9c0.3,0,0.6,0,0.8,0c0-0.3,0-0.6,0-0.9c-0.3,0-0.6,0-0.8,0c0-0.6,0-1.2,0-1.8
	c0.3,0,0.6,0,0.9,0c0-0.3,0-0.6,0-0.9c0.3,0,0.6,0,0.9,0c0-0.3,0-0.6,0-0.8c0.3,0,0.6,0,0.9,0c0,0.3,0,0.6,0,0.8c0.3,0,0.6,0,0.9,0
	c0-0.3,0-0.6,0-0.9c0.6,0,1.2,0,1.8,0c0-0.3,0-0.6,0-0.8c0.3,0,0.6,0,0.9,0c0,0.3,0,0.6,0,0.9c0.6,0,1.2,0,1.8,0c0,0.3,0,0.6,0,0.9
	c0.3,0,0.6,0,0.8,0c0,0.6,0,1.2,0,1.8c-0.3,0-0.6,0-0.8,0c0,0.9,0,1.8,0,2.7c0.3,0,0.6,0,0.9,0c0,0.3,0,0.6,0,0.9c0.6,0,1.2,0,1.8,0
	c0,0.3,0,0.6,0,0.9c0.6,0,1.2,0,1.7,0c0-3.3,0-6.5,0-9.8c-0.3,0-0.6,0-0.9,0c0-0.3,0-0.6,0-0.9c-0.3,0-0.6,0-0.9,0
	c0-0.3,0-0.6,0-0.9c-0.6,0-1.2,0-1.8,0c0-0.3,0-0.6,0-0.9c-0.3,0-0.6,0-0.9,0c0-0.3,0-0.6,0-0.8c-0.6,0-1.2,0-1.8,0
	c0,0.3,0,0.6,0,0.9c-0.3,0-0.6,0-0.9,0c0,0.3,0,0.6,0,0.9c-0.6,0-1.2,0-1.8,0c0,0.3,0,0.6,0,0.8c-0.3,0-0.6,0-0.9,0
	c0-0.3,0-0.6,0-0.9c-0.3,0-0.6,0-0.9,0c0-0.6,0-1.2,0-1.8c-0.3,0-0.6,0-0.9,0c0-0.3,0-0.6,0-0.9c-0.6,0-1.2,0-1.7,0
	c0-0.6,0-1.2,0-1.8c0.3,0,0.6,0,0.9,0c0-0.3,0-0.6,0-0.9c0.3,0,0.6,0,0.8,0c0-0.3,0-0.6,0-0.9c-0.3,0-0.6,0-0.8,0c0-0.6,0-1.2,0-1.8
	c0.3,0,0.6,0,0.9,0c0-0.3,0-0.6,0-0.9c0.3,0,0.6,0,0.9,0c0-0.3,0-0.6,0-0.8c0.3,0,0.6,0,0.9,0c0,0.3,0,0.6,0,0.8c0.3,0,0.6,0,0.8,0
	c0-0.6,0-1.2,0-1.8c-0.3,0-0.6,0-0.9,0c0-0.3,0-0.6,0-0.9c-0.3,0-0.6,0-0.9,0c0-0.9,0-1.8,0-2.6c0.6,0,1.2,0,1.8,0
	c0-0.2,0-0.3,0-0.4c-0.3,0-0.6,0-0.9,0c0-0.5,0-0.9,0-1.3c-0.6,0-1.2,0-1.8,0c0,0.3,0,0.6,0,0.8c-0.3,0-0.6,0-0.9,0
	c0-0.3,0-0.6,0-0.9c-0.3,0-0.6,0-0.9,0c0-0.6,0-1.2,0-1.8c-0.3,0-0.6,0-0.9,0c0-0.6,0-1.2,0-1.8c0.3,0,0.6,0,0.9,0
	c0-0.6,0-1.2,0-1.8c0.3,0,0.6,0,0.8,0c0-0.6,0-1.2,0-1.8c-0.3,0-0.6,0-0.9,0c0-0.9,0-1.8,0-2.7c-0.3,0-0.6,0-0.9,0
	c0-0.9,0-1.8,0-2.7c0.3,0,0.6,0,0.9,0c0-0.3,0-0.6,0-0.9c0.6,0,1.2,0,1.7,0c0-0.9,0-1.8,0-2.7c-0.3,0-0.6,0-0.9,0c0-0.3,0-0.6,0-0.9
	c-0.3,0-0.6,0-0.8,0c0-0.3,0-0.6,0-0.9c0.3,0,0.6,0,0.9,0c0-0.3,0-0.6,0-0.9c0.6,0,1.2,0,1.8,0c0-0.6,0-1.2,0-1.8C5.7,7,6,7,6.3,7
	c0-0.3,0-0.6,0-0.9c0.3,0,0.6,0,0.9,0c0,0.3,0,0.6,0,0.8C7.5,7,7.7,7,8,7c0-0.3,0-0.6,0-0.9c0.6,0,1.2,0,1.8,0c0-0.3,0-0.6,0-0.9
	c0.6,0,1.2,0,1.8,0c0,0.3,0,0.6,0,0.8c0.6,0,1.2,0,1.8,0c0-0.3,0-0.6,0-0.9c0.3,0,0.6,0,0.9,0c0-0.6,0-1.2,0-1.8c0.3,0,0.6,0,0.9,0
	C15.1,3.2,15.1,2.9,15.1,2.6z M15.1,35.5c0,0.3,0,0.6,0,0.8c-0.6,0-1.2,0-1.8,0c0-0.3,0-0.6,0-0.8c-0.3,0-0.6,0-0.9,0
	c0,0.3,0,0.6,0,0.9c-0.3,0-0.6,0-0.8,0c0,0.9,0,1.8,0,2.7c0.3,0,0.6,0,0.9,0c0,0.3,0,0.6,0,0.9c0.6,0,1.2,0,1.8,0c0,0.3,0,0.6,0,0.9
	c0.6,0,1.2,0,1.7,0c0-1.8,0-3.5,0-5.3C15.7,35.5,15.4,35.5,15.1,35.5z"/>
</svg>
