<?xml version="1.0" encoding="utf-8"?>
<svg version="1.1" id="Layer_1" xmlns="http://www.w3.org/2000/svg" xmlns:xlink="http://www.w3.org/1999/xlink" x="0px" y="0px"
	 viewBox="0 0 32 39" style="enable-background:new 0 0 32 39;" xml:space="preserve">
<style type="text/css">
	.st0{fill:#FFFFFF;}
</style>
<title>TF2</title>
<g id="TF2">
	<g id="team-fortress" transform="translate(0.000000, 4.000000)">
		<path id="Shape" class="st0" d="M19.9,1.3c6.9,1.8,12,8,12,15.4c0,0.2,0,0.3,0,0.5l-10.7-1.5c-0.3-1.6-1.4-3-2.8-3.7L19.9,1.3z
			 M11.2,14.3c0.7-1.4,2.1-2.5,3.7-2.8l1.5-10.7c-0.2,0-0.3,0-0.5,0c-7.4,0-13.7,5.1-15.4,12L11.2,14.3z M13.5,21.5
			c-1.4-0.7-2.5-2.1-2.8-3.7L0,16.3c0,0.2,0,0.3,0,0.5c0,7.4,5.1,13.7,12,15.4L13.5,21.5L13.5,21.5z M20.7,19.2
			c-0.7,1.4-2.1,2.5-3.7,2.8l-1.5,10.7c0.2,0,0.3,0,0.5,0c7.4,0,13.7-5.1,15.4-12L20.7,19.2z"/>
	</g>
</g>
</svg>