<svg enable-background="new 0 0 72 72" viewBox="0 0 72 72" xmlns="http://www.w3.org/2000/svg"><g fill="#fff"><path d="m65.7 21.8-.3-.6-.4-.6c-3.4-5.5-7.7-9.7-12.7-12.6-5.1-2.9-10.8-4.4-17.1-4.4s-12.1 1.5-17.1 4.4-9.2 7.1-12.5 12.7l-.4.6-.3.7c-3 7.3-4.5 13.8-4.5 19.6 0 3.3.5 6.4 1.4 9.2 1 3 2.5 5.7 4.5 8.1 3 3.6 7.5 6.2 13.2 7.8 4.2 1.2 9.1 1.7 14.4 1.7h.4c4.9 0 10-.6 14.7-1.6 5.1-1.1 9.4-2.6 12.7-4.6 3.6-2.1 9.6-7.2 9.6-18.1.2-6.1-1.7-13.4-5.6-22.3zm-6.8 35.3c-5.6 3.2-15.3 5.3-24.8 5.3-6.3 0-17.7-1-23.1-7.4-5.8-6.9-6-17.3-.5-30.8l.1-.2.1-.2c5.7-9.4 14-14.2 24.6-14.2s18.9 4.8 24.8 14.2l.1.2.1.2c7.4 17 6.9 28.1-1.4 32.9z"/><path d="m40 29.7c-1.3-.7-2.8-1.1-4.7-1.1-3.6 0-5.7 1.1-7.7 4.1-1.7 4.6-2.1 7.4-2.1 8.9v.8c1.1.4 3.9 1.1 8.6 1.1h1.5c5-.2 8.8-1 10.7-1.6-.4-1.8-1.2-4.7-2.9-8.9-1.1-1.6-2.2-2.7-3.4-3.3z"/><path d="m40 29.7c-1.3-.7-2.8-1.1-4.7-1.1-3.6 0-5.7 1.1-7.7 4.1-1.7 4.6-2.1 7.4-2.1 8.9v.8c1.1.4 3.9 1.1 8.6 1.1h1.5c5-.2 8.8-1 10.7-1.6-.4-1.8-1.2-4.7-2.9-8.9-1.1-1.6-2.2-2.7-3.4-3.3z"/><path d="m57.3 25.5c-5.2-8.4-12.6-12.6-22-12.6s-16.7 4.2-21.8 12.6c-5 12.3-5 21.5 0 27.4 7.5 9 33.7 7.2 43.8 1.4 6.7-3.9 6.7-13.5 0-28.8zm-7.1 19.6c-2.8 1.2-8.1 2.5-14.5 2.7-.6 0-1.1 0-1.6 0-5.9 0-10.3-1.1-11.7-2.1l-.2-.1-.2-.2c-.6-.8-.9-2.1-.9-3.8 0-2 .4-5.4 2.5-10.8v-.1l.1-.1c2.9-4.4 6.4-6.3 11.5-6.3 2.7 0 5 .5 6.9 1.6 1.8 1.1 3.5 2.6 5 4.9l.1.1v.1c3.2 7.4 3.7 11.4 3.7 13.1v.7z"/></g></svg>