<?xml version="1.0" encoding="utf-8"?>
<svg version="1.1" id="Layer_1" xmlns="http://www.w3.org/2000/svg" xmlns:xlink="http://www.w3.org/1999/xlink" x="0px" y="0px"
	 viewBox="0 0 72 72" style="enable-background:new 0 0 72 72;" xml:space="preserve">
<style type="text/css">
	.st0{fill:#FFFFFF;}
</style>
<path class="st0" d="M29.9,71.1L29.3,71v-0.9c0-0.5,0-1.1,0-1.6v-1l1,0.3c1.2,0.3,2.5,0.5,3.7,0.6h0.3v-0.3c0-0.4,0-0.9,0-1.3
	c0-0.2,0-0.4,0-0.6c0-3.4,0-6.7,0-9.9c0-4.3,0-8.8,0-13.2c0-0.4,0-0.8-0.2-1.2v-0.1H34c-2.5-0.8-4.2-3.2-4.2-5.8s1.6-4.9,4-5.8
	c1.5-0.6,3.2-0.5,4.7,0.2c0.2,0.1,0.4,0.2,0.5,0.3c1.2,0.7,2.1,1.8,2.6,3.2c1.1,3.2-0.5,6.6-3.7,7.8l-0.2,0.1v0.1
	c-0.2,0.5-0.2,1-0.2,1.5c0,6.4,0.1,12.8,0.1,19.1v6.4v3h-0.7c-0.4,0-0.8,0-1.2,0C33.8,71.8,31.9,71.6,29.9,71.1L29.9,71.1z
	 M35.9,33.5c-1.2,0.1-2.1,1-2.1,2.2s1,2.2,2.2,2.2h0.1c1.2-0.1,2.1-1.1,2.1-2.3C38.1,34.4,37.2,33.5,35.9,33.5z M42.7,69.9
	c0-0.8-0.1-1.3-0.1-1.9v-0.6l0.5-0.2c1.1-0.4,2.2-0.8,3.2-1.4c0.4-0.2,0.8-0.4,1.1-0.6l0.1-0.1v-1.2c0-2.8,0-5.6,0-8.3v-0.2
	c0-1.3,0-2.6,0-3.9v-0.1l-0.3-0.2c-3-1.1-4.5-4.4-3.4-7.4s4.4-4.5,7.4-3.4c2.2,0.8,3.7,3,3.7,5.3v0.1v0.1v0.2v0.1v0.1v0.1v0.1v0.1
	c-0.3,2-1.6,3.6-3.4,4.4h-0.1c0,0-0.1,0.1-0.2,0.1s-0.1,0.1-0.1,0.1L51,51.3v15.6l-0.3,0.2c-0.5,0.3-0.9,0.6-1.3,0.8
	c-1.8,1.1-3.7,2-5.7,2.6l-0.9,0.3L42.7,69.9z M47.1,45.6c0,0.6,0.2,1.2,0.6,1.6c0.4,0.5,0.9,0.8,1.5,0.8h0.1c1.2,0,2.1-1,2.2-2.1
	c0-0.6-0.2-1.1-0.6-1.6c-0.4-0.4-1-0.7-1.5-0.7h-0.1C48.2,43.7,47.3,44.5,47.1,45.6z M23.3,68.5c-2.4-1.3-4.7-3.1-6.5-5.2
	c-4.6-5-6.9-11.1-6.9-18.1c0-1.9,0-3.8,0-5.7v-0.1c0-3.8,0.1-7.8,0-11.7c-0.1-1.1,0.5-2.1,1.5-2.6c2-1.2,4-2.3,6.2-3.1
	c1-0.3,1.7-1.3,1.5-2.3c-0.1-2.8-0.1-5.7,1-8.5c2.5-6.6,8.8-10.9,15.8-11c3.3,0,6.5,1,9.2,2.9c2.1,1.4,3.9,3.3,5.3,5.5
	c1.1,1.9,1.8,4,2.1,6.2l0.2,1.1l-1.1-0.2c-0.6-0.1-1.1-0.3-1.7-0.5l-0.3-0.1l-0.1-0.3c-0.1-0.2-0.1-0.4-0.2-0.6v-0.1
	c-0.5-2.9-2.1-5.5-4.8-7.8c-1.7-1.5-4.1-2.4-6.9-2.7c-4.3-0.5-8.5,1.1-11.5,4.3s-4.2,7.6-3.4,11.9c0,0.1,0.1,0.3,0.2,0.3
	c0.3,0.2,0.6,0.1,1.1-0.1c0.1,0,0.2,0,0.2-0.1c11.5-2.6,22.5-1.5,32.8,3.4h0.1c2.4,1.1,3.6,1.7,4.1,2.6c0.6,0.9,0.6,2.2,0.6,4.8v3.6
	c0,3.5,0,7.2,0.1,10.8c0.1,5.5-1.5,11-4.7,15.5l-1.4,2v-2.5c0-1.2,0-2.2,0-3.1v-0.6l0.1-0.2c0.1-0.2,0.2-0.5,0.3-0.6
	c1.6-3.6,2.4-6.7,2.4-10c0-6,0-11,0-15.8c0-1.5-0.5-2.4-1.8-3.1C48.9,22.6,39.9,20.9,31,22c-5.6,0.6-11,2.3-16,4.9
	c-1.1,0.5-1.8,1.6-1.7,2.8v7.4c0,3.1,0,6.4,0.1,9.6C13.5,52,15.5,57,19,60.9l0.1,0.1c0.1,0.1,0.2,0.2,0.4,0.4
	c0.2,0.3,0.5,0.6,0.9,0.9l0.4,0.4V51.4l-0.3-0.2c-2.9-1.2-4.3-4.5-3.1-7.4s4.5-4.3,7.4-3.1s4.3,4.5,3.1,7.4
	c-0.6,1.5-1.8,2.6-3.3,3.2l-0.2,0.1v17.9L23.3,68.5z M21,44.1c-0.5,0.5-0.8,1.2-0.8,1.9c0.2,1.3,1.2,2.3,2.5,2.4
	c0.7,0,1.3-0.3,1.7-0.8c0.5-0.5,0.7-1.2,0.7-1.8c-0.1-1.3-1.2-2.3-2.4-2.4C22.1,43.3,21.5,43.6,21,44.1z"/>
</svg>
