<svg enable-background="new 0 0 1000 1000" height="1000" viewBox="0 0 1000 1000" width="1000" xmlns="http://www.w3.org/2000/svg"><path d="m602.6 709.9c-.2-.1.7-1.7 1.8-3.7.6-1.2 1.4-2.4 2-3.6.9-1.7 1.7-3.1 1.9-3.7 14.1-43.5 64.6-197.1 73.3-223 30.1-89.2 23.6-64.5 38.3-111 11.2-35.5 12.9-44.6 20.9-74 4.4-16.1 34.7-117.9 43.8-147.5 0 0-.1.1-.2.1 0 0-.1 0-.1.1 0 0 .2-.1.3-.2l1.1-5.7 17.8-49.1c7.1-19.5 6.2-16 11.2-23.4.5-1.1.9-1.9 1.3-2.6.6-1.1.9-1.9 1.2-2.6.3-.8.5-1.6.8-2.8 0 .2-.3 1.5-.3 1.7 7.9-5.6 14.5-10 19.7-13.6 14.5-10 19.1-13.4 14.7-15.3-3.2-1.4-11.3-1.8-23.7-3.5 5.6-2.8 8.7-4.3 11-5.4 3.5-1.7 5-2.5 10.8-5.7l10.7-6c-4.5-.4-37.3-3-40-3.1-6.4-3.5-12.9-4.9-19.4-5.3-6.7-.4-13.5.4-20.2 1.2-6.8.8-13.5 1.7-20.2 1.5-8.7-.7-15.7-1.3-21.5-1.7-10.8-.7-17.3-.8-21.6-.6-10 .4-7.9 2.6-21.4 2.4-5 0-8.3-.3-10.6-.3-5.2-.1-5.3.4-8.9 4.5-1.6 1.8-3.8 4.2-7.4 7.6-9.7 9-2.3 15.6 6.5 25.7 5.9 6.7 12.4 14.9 15 26.5 1.9 8.2 1.7 18.1-2.1 30.3-2.1 6.9-16 55.2-18 62.1-.1.1-.9 2.3-1.8 5-.6 1.6-7.1 20.5-7.6 22.1-1.3 4.1-1.6 5.5-1.3 6.2 0 0-.3-.3-.4-.3-.1.2-.2.4-.3.7-.1.2-.1.5-.1.7v.7s.3-.1.3-.1c-.5.4-.8 1.5-1.6 5-.3 1.3-1.9 8.3-2.4 10.2.1.1.1.2.2.3s.1.2.2.3.1.2.2.3c-3.4 4.2-18.3 50.3-36.1 108-10.6 34.4-80.9 266.5-83.3 274-6.9 21.2-9.2 28.5-9.2 27.7-11.8 1.6-17.7 1.6-22-2.8-3.5-3.6-5.9-10-9.4-20.8-2-5.9-47.3-141.9-47.3-141.9l-1.1-5.4-10.6-32.4c-.2-.8-.3-1.5-.3-2-.1-.8-.2-1.5-.4-2-.2-.6-.4-1.2-.9-1.9 2.7 1.2-12.5-44.7-31.2-101.6-10.7-32.5-22.5-68.6-32.8-101.5-14.9-47.7-26.7-88.8-27.2-103-1.3-7.1-.7-14.9.9-22.6 1.6-7.6 4.3-15.1 7.1-21.6 4.3-9.8 9-17.4 11.1-19.9l6.9-7.2 10-8c1.1-4.9.6-8.1-.9-10.4-1.9-3-5.3-4.2-9.1-5.3-3.5-1-7.3-1.7-10.1-3.5l-46 .6c-14.3.2-64.3 2-72.3 2.2-23.4.9-17.1.8-36.1 2.3 0 0-9.2.5-10.5.5-11.9.3-14.6-1-20.3 1.2-3.7 1.4-8.6 4.2-18.1 9.5-4.7 2.6-10.6 5.9-17.9 9.9l-.4 12.9 30.1 18.2c9.6 3.9 18.5 5.5 27 9.7 7.1 3.6 13.9 9.1 20.5 19.6 4.1 6.5 8 15 11.9 26.1 3.8 10.9 7.3 21.9 10.7 33s102.4 326.5 114.2 362.4c52.3 159.6 31.5 81.6 49.3 147.2 2 7.5 3.4 15.2 4.6 23 1.2 7.7 2.1 15.5 3.1 23.2 1.1 7.8 2.2 15.5 4 23.1 3.5 15.2 9.9 38.8 17.4 65.3 5.9 20.7 32.2 111.2 37.5 129.9.6 2 .9 4 1.1 6.1.2 2 .3 4.1.4 6.2s.2 4.2.4 6.2c2.5 7.6 10.8 33.2 12.1 36.8 1.9 5.1 3.2 7.4 8 17.6l12.6-13.2c1.9-7.3 8.5-32.7 9.5-36.6 2.4-9.7 1.9-9.3 2.6-18.7 16.2-46.5 15.8-48.1 26.4-74.8 5.5-14 47.9-116.9 60.2-146.7zm59-515.2h-.1.1c-.1-.1-.1-.1 0 0-.1-.1 0-.1 0 0z" fill="#fff"/></svg>