<svg enable-background="new 0 0 72 72" viewBox="0 0 72 72" xmlns="http://www.w3.org/2000/svg"><path d="m5.7 9.2c-5-4.6 8.8-9.2 30.2-9.2h.2c21.4 0 35.2 4.6 30.2 9.2 0 0-18.5 17-24.9 22.4-1.2 1-3.3 1.8-5.3 1.8h-.1s-.1 0-.1 0c-2 0-4.1-.8-5.3-1.8-6.4-5.4-24.9-22.4-24.9-22.4zm35.7 31.6c-1.2 1-3.3 1.8-5.3 1.8h-.1-.1c-2 0-4.1-.8-5.3-1.8-4.4-3.8-20-17.9-25.9-23.3v8.2c0 .9.3 2.1 1 2.7 4 3.7 19.4 17.8 25 22.5 1.2 1 3.3 1.8 5.3 1.8h.1.1c2 0 4.1-.8 5.3-1.8 5.5-4.7 21-18.8 25-22.5.6-.6 1-1.8 1-2.7v-8.2c-6.1 5.4-21.7 19.6-26.1 23.3zm0 19.3c-1.2 1-3.3 1.8-5.3 1.8h-.1-.1c-2 0-4.1-.8-5.3-1.8-4.4-3.8-20-17.9-25.9-23.3v8.2c0 .9.3 2.1 1 2.7 4 3.7 19.4 17.8 25 22.5 1.2 1 3.3 1.8 5.3 1.8h.1.1c2 0 4.1-.8 5.3-1.8 5.5-4.7 21-18.8 25-22.5.6-.6 1-1.8 1-2.7v-8.2c-6.1 5.4-21.7 19.5-26.1 23.3z" fill="#fff"/></svg>