<?xml version="1.0" encoding="utf-8"?>
<svg version="1.1" id="Layer_1" xmlns="http://www.w3.org/2000/svg" xmlns:xlink="http://www.w3.org/1999/xlink" x="0px" y="0px"
	 viewBox="0 0 72 72" style="enable-background:new 0 0 72 72;" xml:space="preserve">
<style type="text/css">
	.st0{fill:#FFFFFF;}
</style>
<g transform="translate(-74.955668 -49.176243)">
	<path class="st0" d="M97.2,78.9c-1.4,4.6-2.9,8.8-4.3,12.6c-1.5,3.9-2.9,7.6-4.4,11.3h-4.9c-1.8-5.2-3.4-10.7-4.8-16.5
		S76.2,74.2,75,67.5h5.2c0.5,2.6,1,5.3,1.5,7.9s1,5.2,1.6,7.7c0.5,2.5,1.1,4.9,1.6,7.1c0.5,2.3,1.1,4.4,1.7,6.3
		c1.4-3.6,2.8-7.5,4.3-11.7c1.5-4.3,3-8.7,4.3-13.2h4.3c1.3,4.6,2.8,9,4.3,13.2c1.6,4.2,3,8.2,4.4,11.7c0.5-1.9,1.1-4,1.6-6.3
		s1.1-4.7,1.6-7.1c0.5-2.5,1.1-5.1,1.6-7.7c0.5-2.7,1-5.3,1.5-8h5c-1.2,6.8-2.5,13.1-3.9,18.8c-1.4,5.8-2.9,11.3-4.7,16.5H106
		c-1.5-3.7-3-7.4-4.4-11.3C100.1,87.7,98.6,83.5,97.2,78.9L97.2,78.9z"/>
	<path class="st0" d="M133.5,99.3c5.2,0,7.7-1.8,7.7-5.3c0-1.1-0.2-2-0.7-2.8c-0.4-0.8-1.1-1.4-1.8-2c-0.8-0.6-1.7-1.1-2.7-1.5
		s-2-0.8-3.2-1.2c-1.3-0.4-2.5-0.9-3.7-1.5s-2.2-1.2-3-2s-1.5-1.7-2-2.8s-0.7-2.3-0.7-3.8c0-3.1,1.1-5.5,3.2-7.2
		c2.1-1.7,5-2.6,8.7-2.6c2.1,0,4.1,0.2,5.8,0.7c1.8,0.4,3.1,0.9,3.9,1.5l-1.6,4c-0.7-0.4-1.8-0.9-3.2-1.3s-3-0.7-4.9-0.7
		c-1,0-1.8,0.1-2.6,0.3s-1.5,0.5-2.1,0.9s-1.1,0.9-1.5,1.6c-0.3,0.6-0.5,1.3-0.5,2.2c0,1,0.2,1.7,0.6,2.4c0.4,0.6,0.9,1.2,1.6,1.7
		s1.5,0.9,2.3,1.3c0.9,0.4,1.9,0.8,3,1.2c1.5,0.6,2.9,1.2,4.2,1.8s2.4,1.3,3.3,2.2c1,0.8,1.7,1.9,2.2,3.1s0.8,2.6,0.8,4.2
		c0,3.1-1.1,5.5-3.4,7.1c-2.2,1.7-5.4,2.5-9.5,2.5c-1.4,0-2.7-0.1-3.9-0.3s-2.2-0.4-3.1-0.6c-0.9-0.3-1.7-0.5-2.4-0.8
		c-0.6-0.3-1.2-0.6-1.5-0.8l1.5-4.1c0.8,0.4,2,0.9,3.6,1.5C129.2,99.1,131.2,99.3,133.5,99.3L133.5,99.3z"/>
</g>
</svg>