<?xml version="1.0" encoding="utf-8"?>
<svg version="1.1" id="Layer_1" xmlns="http://www.w3.org/2000/svg" xmlns:xlink="http://www.w3.org/1999/xlink" x="0px" y="0px"
	 viewBox="0 0 72 72" style="enable-background:new 0 0 72 72;" xml:space="preserve">
<style type="text/css">
	.st0{fill:#FFFFFF;}
</style>
<path class="st0" d="M53.1,0l-8.8,18.6H28.1L18.4,0l-6.7,23.6L2.5,34.2l20.8,19.1L31.4,72h9.3l7.7-18.4l21.2-19.3L60.1,24L53.1,0z
	 M42.8,49.9c-0.2,0.3-0.5,0.5-0.8,0.7c-0.3,0.1-0.7,0.2-1,0.2s-0.7-0.1-1-0.2s-0.6-0.4-0.8-0.7L36,45.1l-3.2,4.7
	c-0.2,0.3-0.5,0.5-0.8,0.7c-0.3,0.1-0.6,0.2-1,0.2c-0.7,0-1.4-0.3-1.9-0.9l-16-14.9h4.4L31,46.8l2.7-4.2H38l3,4.2l13.7-12.4h4.1
	L42.8,49.9z"/>
</svg>