<svg id="b45eefb2-032d-47aa-ab2b-16579d7bad23" data-name="Layer 1" xmlns="http://www.w3.org/2000/svg" xmlns:xlink="http://www.w3.org/1999/xlink" viewBox="0 0 1024 1024">
  <defs>
    <style>
      .a3b0cecd-0682-4772-91f7-284b0f89e34d {
        fill: none;
      }

      .b3cfe7d4-6713-4140-b040-ec6f64facef5 {
        clip-path: url(#a04e5a72-46a4-449b-939e-505f45579244);
      }

      .a4df0c0f-83b1-4141-9738-293d2a546df7 {
        fill: #fff;
      }
    </style>
    <clipPath id="a04e5a72-46a4-449b-939e-505f45579244">
      <circle class="a3b0cecd-0682-4772-91f7-284b0f89e34d" cx="512" cy="512" r="388.97"/>
    </clipPath>
  </defs>
  <g class="b3cfe7d4-6713-4140-b040-ec6f64facef5">
    <g>
      <path class="a4df0c0f-83b1-4141-9738-293d2a546df7" d="M115.13,383.23C104.48,410.7,468,130.78,654.8,142.37,671.16,143.39,262,4.56,115.13,383.23Z"/>
      <path class="a4df0c0f-83b1-4141-9738-293d2a546df7" d="M89.37,498.46v68a23,23,0,0,0,23.78,23c248.4-9.33,540-361.43,774.78-221.72C833.81,136.27,602.47,167,215.75,430.1a261.75,261.75,0,0,1-108,45.94C97,477.91,89.37,487.56,89.37,498.46Z"/>
      <path class="a4df0c0f-83b1-4141-9738-293d2a546df7" d="M144,705.14c144.12,158.42,357.63,123.3,653.61-133,18.84-16.32,52-35.9,64.61-44,21.4-13.71,59.91-15.35,59.91-40.77V469c0-66.58-83.26-63.33-142.15-29.14C700.08,486.2,385.09,671.06,385.09,671.06S245.7,751.51,144,705.14Z"/>
      <path class="a4df0c0f-83b1-4141-9738-293d2a546df7" d="M349.55,870.09c190.89,20,522.92-231.84,522.92-231.84C843.49,815.38,644.5,980.21,349.55,870.09Z"/>
    </g>
  </g>
</svg>
