<?xml version="1.0" encoding="utf-8"?>
<svg version="1.1" id="Layer_1" xmlns="http://www.w3.org/2000/svg" xmlns:xlink="http://www.w3.org/1999/xlink" x="0px" y="0px"
	 viewBox="0 0 32 39" style="enable-background:new 0 0 32 39;" xml:space="preserve">
<style type="text/css">
	.st0{fill:#FFFFFF;}
</style>
<title>Wireguard</title>
<g id="Wireguard">
	<g id="wireguard" transform="translate(0.000000, 4.000000)">
			<g id="Group_1_" transform="translate(16.000000, 16.000000) scale(-1, 1) rotate(-180.000000) translate(-16.000000, -16.000000) translate(0.000000, 0.000000)">
			<g id="Clipped">
				<g id="Path">
				</g>
				<g id="Group">
					<g transform="translate(-0.106664, -0.026664)">
						<g transform="translate(0.029866, -0.000002)">
							<path id="Shape" class="st0" d="M21,27.6c0.6,0,1.2,0,1.8,0c0.2,0,0.4,0,0.4-0.1c-0.1-0.2-0.3-0.4-0.5-0.6s-0.5-0.4-0.8-0.1
								c-0.1,0.1-0.2,0.1-0.4,0.1c-0.6,0-1.2,0-1.8,0c-0.5,0-1-0.1-1.5-0.2c-0.1,0-0.2-0.3-0.2-0.5c0.1-0.3,0.3-0.6,0.5-0.8
								c0.8-0.7,1.7-1.2,2.5-1.9c0.8-0.6,1.6-1.3,2-2.3c0.6-1.2,0.6-2.5,0.4-3.8c-0.4-2.2-1.5-4-3.3-5.3c-0.7-0.5-1.6-0.8-2.4-1.2
								c-0.7-0.3-1.5-0.6-2.2-0.9c-1.3-0.6-2-2-1.8-3.5c0.2-1.4,1.4-2.5,2.7-2.7c1.6-0.3,3.3,0.8,3.7,2.4c0.4,1.9-0.6,3.5-2.5,4
								c-0.1,0-0.2,0-0.3,0.1c0.5,0.2,0.9,0.4,1.3,0.6c0.7,0.4,1.4,0.8,2.1,1.2c0.2,0.1,0.3,0.1,0.5,0c1.3-1.1,2.1-2.5,2.3-4.2
								c0.4-2.8-1-5.5-3.5-6.8c-3.9-2.1-8.7,0.3-9.6,4.6c-0.7,3.7,1.9,7.1,5.1,7.8c1.4,0.3,2.6,0.8,3.6,1.9c0.6,0.7,0.9,1.3,1,1.5
								c0.2,0.6,0.3,1.2,0.3,1.5c0,0.1,0,0.7-0.3,1.3c-0.3,0.8-1.6,2-1.9,2.2l-3,2.3c-0.1,0.1-0.2,0.1-0.5,0.1s-1.1-0.1-1.4,0
								c0.3,0.2,1,0.5,1.3,0.7c-1,0.7-2.1,0.4-3.1,0.6c0.2,0.4,1.4,1.1,2.1,1.2c-0.1,0.4-0.1,0.7-0.2,1.1c0,0.1-0.2,0.3-0.4,0.4
								c-0.4,0.2-0.7,0.4-1.1,0.6c0.4,0.3,0.8,0.4,1.2,0.4s0.8,0,1.2-0.1c0.7-0.2,1.3-0.1,1.9,0.4c-0.5,0.2-0.9,0.3-1.3,0.5
								c-0.4,0.2-0.8,0.4-1.3,0.7c1.1-0.2,2.2-0.6,3.4-0.4c0,0.1,0,0.1,0,0.2c-0.9,0.2-1.7,0.4-2.7,0.6c1.6,0.1,3.1,0.2,4.5-0.5
								c0.4-0.2,0.8-0.4,1.2-0.6c0.2-0.1,0.3-0.3,0.5-0.5c0.1-0.1,0.2-0.3,0.4-0.4c0.6-0.3,1.2-0.3,1.8-0.3c0,0.1,0,0.1,0,0.2
								c0.6-0.2,1.4-0.9,1.4-1.5C23.1,27.6,22,27.6,21,27.6c-0.1,0-0.2-0.1-0.3-0.1C20.8,27.7,20.9,27.6,21,27.6 M8.1,7.7
								C7.5,7.5,6.9,7.3,6.3,7.1C6.6,9.1,9,11,11,10.8C10.4,10,10.1,9,10.1,8C9.4,7.9,8.7,7.8,8.1,7.7 M11,21.9
								c3.2,2,7.3,0.8,8.8-2.2c0.3-0.6,0.3-1.4,0.1-2c-0.6-2-2.1-3.2-4.2-3.6c0.6,0.5,1.1,1.1,1.2,1.9c0.2,0.8,0,1.6-0.5,2.2
								c-0.7,1-2.1,1.4-3.3,1c-1.3-0.5-2-1.6-1.8-3.1c0.1-1.3,1.1-2.2,3-2.5c-0.3-0.1-0.5-0.3-0.7-0.4c-0.9-0.5-1.6-1.1-2.2-1.9
								c-0.2-0.3-0.3-0.3-0.6-0.1C7.1,13.6,6.8,19.4,11,21.9 M32,16.5c0,0,0.7,15.5-16.3,15.5C0.6,32,0.2,17.1,0.2,17.1
								S-2.1,0,16.1,0C33.5,0,32,16.5,32,16.5"/>
						</g>
						<g transform="translate(19.603777, 28.728880)">
							<path id="Path_1_" class="st0" d="M0.1,0.8C0,0.7,0,0.5,0.1,0.3S0.4,0,0.6,0.2C0.7,0.3,0.8,0.4,1,0.5
								C0.8,0.6,0.7,0.8,0.6,0.9C0.5,1.1,0.3,1,0.1,0.8"/>
						</g>
					</g>
				</g>
			</g>
		</g>
	</g>
</g>
</svg>