<?xml version="1.0" encoding="utf-8"?>
<!-- Generator: Adobe Illustrator 24.0.3, SVG Export Plug-In . SVG Version: 6.00 Build 0)  -->
<svg version="1.1" id="Layer_1" xmlns="http://www.w3.org/2000/svg" xmlns:xlink="http://www.w3.org/1999/xlink" x="0px" y="0px"
	 viewBox="0 0 32 39" style="enable-background:new 0 0 32 39;" xml:space="preserve">
<style type="text/css">
	.st0{fill:#FFFFFF;}
</style>
<metadata><?xpacket begin="﻿" id="W5M0MpCehiHzreSzNTczkc9d"?>
<x:xmpmeta xmlns:x="adobe:ns:meta/" x:xmptk="Adobe XMP Core 5.6-c148 79.164050, 2019/10/01-18:03:16        ">
   <rdf:RDF xmlns:rdf="http://www.w3.org/1999/02/22-rdf-syntax-ns#">
      <rdf:Description rdf:about=""
            xmlns:xmp="http://ns.adobe.com/xap/1.0/"
            xmlns:xmpGImg="http://ns.adobe.com/xap/1.0/g/img/"
            xmlns:xmpTPg="http://ns.adobe.com/xap/1.0/t/pg/"
            xmlns:stDim="http://ns.adobe.com/xap/1.0/sType/Dimensions#"
            xmlns:xmpG="http://ns.adobe.com/xap/1.0/g/"
            xmlns:dc="http://purl.org/dc/elements/1.1/">
         <xmp:CreatorTool>Adobe Illustrator 24.0 (Macintosh)</xmp:CreatorTool>
         <xmp:CreateDate>2020-02-17T14:12:26-05:00</xmp:CreateDate>
         <xmp:Thumbnails>
            <rdf:Alt>
               <rdf:li rdf:parseType="Resource">
                  <xmpGImg:width>256</xmpGImg:width>
                  <xmpGImg:height>152</xmpGImg:height>
                  <xmpGImg:format>JPEG</xmpGImg:format>
                  <xmpGImg:image>/9j/4AAQSkZJRgABAgEASABIAAD/7QAsUGhvdG9zaG9wIDMuMAA4QklNA+0AAAAAABAASAAAAAEA&#xA;AQBIAAAAAQAB/+4ADkFkb2JlAGTAAAAAAf/bAIQABgQEBAUEBgUFBgkGBQYJCwgGBggLDAoKCwoK&#xA;DBAMDAwMDAwQDA4PEA8ODBMTFBQTExwbGxscHx8fHx8fHx8fHwEHBwcNDA0YEBAYGhURFRofHx8f&#xA;Hx8fHx8fHx8fHx8fHx8fHx8fHx8fHx8fHx8fHx8fHx8fHx8fHx8fHx8fHx8f/8AAEQgAmAEAAwER&#xA;AAIRAQMRAf/EAaIAAAAHAQEBAQEAAAAAAAAAAAQFAwIGAQAHCAkKCwEAAgIDAQEBAQEAAAAAAAAA&#xA;AQACAwQFBgcICQoLEAACAQMDAgQCBgcDBAIGAnMBAgMRBAAFIRIxQVEGE2EicYEUMpGhBxWxQiPB&#xA;UtHhMxZi8CRygvElQzRTkqKyY3PCNUQnk6OzNhdUZHTD0uIIJoMJChgZhJRFRqS0VtNVKBry4/PE&#xA;1OT0ZXWFlaW1xdXl9WZ2hpamtsbW5vY3R1dnd4eXp7fH1+f3OEhYaHiImKi4yNjo+Ck5SVlpeYmZ&#xA;qbnJ2en5KjpKWmp6ipqqusra6voRAAICAQIDBQUEBQYECAMDbQEAAhEDBCESMUEFURNhIgZxgZEy&#xA;obHwFMHR4SNCFVJicvEzJDRDghaSUyWiY7LCB3PSNeJEgxdUkwgJChgZJjZFGidkdFU38qOzwygp&#xA;0+PzhJSktMTU5PRldYWVpbXF1eX1RlZmdoaWprbG1ub2R1dnd4eXp7fH1+f3OEhYaHiImKi4yNjo&#xA;+DlJWWl5iZmpucnZ6fkqOkpaanqKmqq6ytrq+v/aAAwDAQACEQMRAD8A9U4q7FXYq7FXYq7FXYq7&#xA;FXYq7FXYq7FXYq7FXYq7FXYq7FXYq7FXYq7FXYq7FXYq7FXYq7FXYq7FXYq7FXYq7FXYq7FXYq7F&#xA;XYq7FXYq7FXYq7FXYq7FXYq7FXYq7FXYq7FXYq7FXYq7FXYq7FXYq7FXYq7FXYq7FXYq7FXYq7FX&#xA;Yq7FXYq7FXYq7FXYq7FXYq7FXYq7FXYq7FXYq7FXYq7FXYq7FXYq7FXYq7FXYq7FXYq7FXYq7FXY&#xA;q7FXYq7FXYq7FXYq7FXYq7FXYq7FXYq7FXYq7FXYq7FXYq7FXYq7FXYq7FXYq7FXYq7FXYq7FXYq&#xA;7FXYq7FXYq7FXYq7FXYq7FXYq7FXYq7FXYq7FXYq7FXYq7FXYq7FXYq7FXYq7FXYq7FXYq7FXYq7&#xA;FXYq7FXYq7FXYq7FXYq7FXYq7FXYq7FXYq7FXYq7FXYq7FXYq7FXYq7FXYq7FXYq7FXYq7FXYq7F&#xA;XYq7FXYq7FXYq7FXYq7FXYq7FXYq7FXYq7FXYq7FXYq7FXYq7FXYq7FXYq7FXYq7FXYq7FXYq7FX&#xA;Yq7FXYq7FXYq7FXYq7FXYq7FXYq7FXYq7FXYq7FXYq7FXYq7FXYq7FXYq7FXYq7FXYq7FXYq7FXY&#xA;q7FXYq7FXYq7FXYq7FXYq7FXYq7FXYq7FXYq7FXYq7FXYq7FXYq7FXYq7FXYq7FXYq7FXYq7FXYq&#xA;7FXYq7FXYq7FXYq7FXYq7FXYq7FXYq7FXYq7FXYq7FXYq7FXYq7FXYq7FXYq7FXYq7FXYq7FXYq7&#xA;FXYq7FXYq7FXYq7FXYq7FXYq7FXYq7FXYq7FXYq7FXYq7FXYq7FXYq7FXYq7FXYq7FXYq7FXYq7F&#xA;XYq7FXYq7FXYq7FXYq7FXYq7FXYq7FXYq7FXYq7FXYq7FXYq7FXYq7FXYq7FXYq7FXYq7FXYq7FX&#xA;Yq7FXYq7FXYq7FXYq7FXYq7FXYq7FXYq7FXYq7FXYq7FXYq7FXYq7FXYq7FXYq7FXYq7FXYq7FXY&#xA;q7FXYq7FXYq7FXYq7FXYq7FXYq7FXYq7FXYq7FXYq7FXYq7FXYq7FXYq7FXYq7FXYq7FXYq7FXYq&#xA;7FXYq7FXYq7FXYq7FXYq7FXYq7FXYq7FXYq7FXYq7FXYq7FXYq7FXYq7FXYq7FXYq7FXYq7FXYq7&#xA;FXYq7FXYq7FXYq7FXYq7FXYq7FXYq7FXYq7FXYq7FXYq7FXYq7FXYq7FXYq7FXYq7FXYq7FXYq7F&#xA;XYq7FXYq7FXYq7FXYq7FXYq7FXYq7FXYq7FXYq7FXYq7FXYq7FXYq7FXYq7FXYq7FXYq7FXYq7FX&#xA;Yq7FXYq7FXYq7FXYq7FXYq7FXYq7FXYq7FXYq7FXYq7FXYq7FXYq7FXYq7FXYq7FXYq7FXYq7FXY&#xA;q7FXYq7FXYq7FXYq7FXYq7FXYq7FXYq7FXYq7FXYq7FXYq7FXYq7FXYq7FXYq7FXYq7FXYq7FXYq&#xA;7FXYq7FXYq7FXYq7FXYq7FXYq7FXYq7FXYq7FXYq7FXYq7FXYq7FXYq7FX//2Q==</xmpGImg:image>
               </rdf:li>
            </rdf:Alt>
         </xmp:Thumbnails>
         <xmpTPg:MaxPageSize rdf:parseType="Resource">
            <stDim:w>32.000000</stDim:w>
            <stDim:h>39.000000</stDim:h>
            <stDim:unit>Pixels</stDim:unit>
         </xmpTPg:MaxPageSize>
         <xmpTPg:NPages>1</xmpTPg:NPages>
         <xmpTPg:HasVisibleTransparency>False</xmpTPg:HasVisibleTransparency>
         <xmpTPg:HasVisibleOverprint>False</xmpTPg:HasVisibleOverprint>
         <xmpTPg:SwatchGroups>
            <rdf:Seq>
               <rdf:li rdf:parseType="Resource">
                  <xmpG:groupName>Default Swatch Group</xmpG:groupName>
                  <xmpG:groupType>0</xmpG:groupType>
               </rdf:li>
            </rdf:Seq>
         </xmpTPg:SwatchGroups>
         <dc:format>image/svg+xml</dc:format>
      </rdf:Description>
   </rdf:RDF>
</x:xmpmeta>
                                                                                                    
                                                                                                    
                                                                                                    
                                                                                                    
                                                                                                    
                                                                                                    
                                                                                                    
                                                                                                    
                                                                                                    
                                                                                                    
                                                                                                    
                                                                                                    
                                                                                                    
                                                                                                    
                                                                                                    
                                                                                                    
                                                                                                    
                                                                                                    
                                                                                                    
                                                                                                    
                           
<?xpacket end="w"?>
	</metadata>
<title>WooCommerce</title>
<desc>Created with Sketch.</desc>
<g id="WooCommerce">
	<g id="woocommerce" transform="translate(0.000000, 12.000000)">
		<path id="Path" class="st0" d="M3,0h26c1.6,0,3,1.3,3,3v9.9c0,1.6-1.3,3-3,3h-9.3L21,19l-5.6-3.1H3c-1.6,0-3-1.3-3-3V3
			C0,1.3,1.3,0,3,0z"/>
		<path id="Shape" class="st0" d="M1.8,2.7C2,2.5,2.3,2.3,2.6,2.3c0.7-0.1,1,0.3,1.1,0.9c0.4,2.7,0.8,5,1.3,6.9l2.8-5.4
			C8.2,4.2,8.5,4,8.9,4C9.5,3.9,9.8,4.3,10,5c0.3,1.7,0.7,3.2,1.2,4.4c0.3-3.3,0.9-5.7,1.7-7.2c0.2-0.4,0.5-0.5,0.9-0.6
			c0.3,0,0.6,0.1,0.8,0.3C14.9,2.2,15,2.5,15,2.8c0,0.2,0,0.4-0.1,0.6c-0.5,0.9-0.9,2.5-1.3,4.7c-0.3,2.1-0.4,3.8-0.4,5
			c0,0.3,0,0.6-0.2,0.9c-0.2,0.3-0.4,0.4-0.7,0.5c-0.3,0-0.7-0.1-1-0.5c-1.2-1.2-2.2-3.1-2.9-5.5C7.7,10,7,11.3,6.6,12.1
			c-0.8,1.5-1.4,2.2-2,2.3c-0.4,0-0.7-0.3-0.9-0.9c-0.7-1.7-1.4-5-2.1-9.9C1.6,3.3,1.6,3,1.8,2.7L1.8,2.7z M29.8,4.8
			c-0.5-0.8-1.2-1.3-2.1-1.5c-0.2-0.1-0.5-0.1-0.7-0.1c-1.2,0-2.3,0.7-3.1,2c-0.7,1.1-1,2.3-1,3.7c0,1,0.2,1.9,0.6,2.6
			c0.5,0.8,1.2,1.3,2.1,1.5c0.2,0.1,0.5,0.1,0.7,0.1c1.3,0,2.3-0.7,3.1-2c0.7-1.1,1-2.3,1-3.7C30.4,6.3,30.2,5.5,29.8,4.8L29.8,4.8z
			 M28.1,8.4c-0.2,0.9-0.5,1.5-1,1.9c-0.4,0.3-0.7,0.5-1.1,0.4c-0.3-0.1-0.6-0.3-0.8-0.8c-0.2-0.4-0.2-0.8-0.2-1.2
			c0-0.3,0-0.7,0.1-0.9c0.1-0.5,0.3-1.1,0.7-1.5c0.4-0.6,0.9-0.9,1.4-0.8c0.3,0.1,0.6,0.3,0.8,0.8c0.2,0.4,0.2,0.8,0.2,1.2
			C28.2,7.7,28.2,8.1,28.1,8.4L28.1,8.4z M21.6,4.8c-0.5-0.8-1.2-1.3-2.1-1.5c-0.2-0.1-0.5-0.1-0.7-0.1c-1.2,0-2.3,0.7-3.1,2
			c-0.7,1.1-1,2.3-1,3.7c0,1,0.2,1.9,0.6,2.6c0.5,0.8,1.2,1.3,2.1,1.5c0.2,0.1,0.5,0.1,0.7,0.1c1.3,0,2.3-0.7,3.1-2
			c0.7-1.1,1-2.3,1-3.7C22.3,6.3,22,5.5,21.6,4.8L21.6,4.8z M20,8.4c-0.2,0.9-0.5,1.5-1,1.9c-0.4,0.3-0.7,0.5-1.1,0.4
			c-0.3-0.1-0.6-0.3-0.8-0.8c-0.2-0.4-0.2-0.8-0.2-1.2c0-0.3,0-0.7,0.1-0.9c0.1-0.5,0.3-1.1,0.7-1.5c0.4-0.6,0.9-0.9,1.4-0.8
			c0.3,0.1,0.6,0.3,0.8,0.8C20,6.6,20.1,7,20.1,7.4C20.1,7.7,20,8.1,20,8.4L20,8.4z"/>
	</g>
</g>
</svg>
