<svg width="40" height="40" viewBox="0 0 40 40" fill="none" xmlns="http://www.w3.org/2000/svg">
<path fill-rule="evenodd" clip-rule="evenodd" d="M36.25 12.3076H3.75C1.625 12.3076 0 13.641 0 15.3845V25.5384C0 27.282 1.75 28.6153 3.75 28.6153H19.25L26.25 31.7948L24.625 28.6153H36.25C38.375 28.6153 40 27.1794 40 25.5384V15.3845C40 13.641 38.25 12.3076 36.25 12.3076ZM3.25 14.6666C2.875 14.6666 2.5 14.8717 2.25 15.0768C2 15.3845 2 15.6922 2 15.9999C2.875 21.0255 3.75 24.4101 4.625 26.1537C4.875 26.7691 5.25 27.0768 5.75 27.0768C6.5 26.9742 7.25 26.2563 8.25 24.7178C8.3955 24.4791 8.57275 24.1969 8.77252 23.8788C9.25924 23.104 9.87962 22.1163 10.5 21.0255C11.375 23.4871 12.625 25.4358 14.125 26.6666C14.5 27.0768 15 27.1794 15.375 27.1794C15.75 27.0768 16 26.9742 16.25 26.6666C16.5 26.3589 16.5 26.0512 16.5 25.7435C16.5 24.5127 16.625 22.7691 17 20.6153C17.5 18.3589 18 16.7178 18.625 15.7948C18.75 15.5896 18.75 15.3845 18.75 15.1794C18.75 14.8717 18.625 14.564 18.25 14.2563C18 14.0512 17.625 13.9486 17.25 13.9486C16.75 14.0512 16.375 14.1537 16.125 14.564C15.125 16.1025 14.375 18.564 14 21.9486C13.375 20.7178 12.875 19.1794 12.5 17.4358C12.25 16.7178 11.875 16.3076 11.125 16.4101C10.625 16.4101 10.25 16.6153 9.75 17.1281L6.25 22.6666C5.625 20.7178 5.125 18.3589 4.625 15.5896C4.5 14.9742 4.125 14.564 3.25 14.6666ZM34.625 15.6922C35.75 15.8973 36.625 16.4101 37.25 17.2307C37.75 17.9486 38 18.7691 38 19.8973C38 21.3332 37.625 22.564 36.75 23.6922C35.75 25.0255 34.5 25.7435 32.875 25.7435C32.625 25.7435 32.25 25.7435 32 25.6409C30.875 25.4358 30 24.923 29.375 24.1025C28.875 23.3845 28.625 22.4614 28.625 21.4358C28.625 19.9999 29 18.7691 29.875 17.6409C30.875 16.3076 32.25 15.5896 33.75 15.5896C34 15.5896 34.375 15.5896 34.625 15.6922ZM33.875 22.8717C34.5 22.4614 34.875 21.846 35.125 20.923C35.25 20.6153 35.25 20.205 35.25 19.9999C35.25 19.5896 35.25 19.1794 35 18.7691C34.75 18.2563 34.375 18.0512 34 17.9486C33.375 17.846 32.75 18.1537 32.25 18.7691C31.75 19.1794 31.5 19.7948 31.375 20.3076C31.25 20.5127 31.25 20.923 31.25 21.2307C31.25 21.6409 31.25 22.0512 31.5 22.4614C31.75 22.9742 32.125 23.1794 32.5 23.2819C33 23.3845 33.375 23.1794 33.875 22.8717ZM24.375 15.6922C25.5 15.8973 26.375 16.4101 27 17.2307C27.5 17.9486 27.875 18.7691 27.75 19.8973C27.75 21.3332 27.375 22.564 26.5 23.6922C25.5 25.0255 24.25 25.7435 22.625 25.7435C22.375 25.7435 22 25.7435 21.75 25.6409C20.625 25.4358 19.75 24.923 19.125 24.1025C18.625 23.3845 18.375 22.4614 18.375 21.4358C18.375 19.9999 18.75 18.7691 19.625 17.6409C20.625 16.3076 22 15.5896 23.5 15.5896C23.75 15.5896 24.125 15.5896 24.375 15.6922ZM23.75 22.8717C24.375 22.4614 24.75 21.846 25 20.923C25 20.7691 25.0312 20.5896 25.0625 20.4101C25.0938 20.2307 25.125 20.0512 25.125 19.8973C25.125 19.4871 25 19.0768 24.875 18.7691C24.625 18.2563 24.25 18.0512 23.875 17.9486C23.25 17.846 22.625 18.1537 22.125 18.7691C21.625 19.1794 21.375 19.7948 21.25 20.3076C21.125 20.5127 21.125 20.923 21.125 21.2307C21.125 21.6409 21.125 22.0512 21.375 22.4614C21.625 22.9742 22 23.1794 22.375 23.2819C22.875 23.3845 23.25 23.1794 23.75 22.8717Z" fill="white"/>
</svg>
