<?xml version="1.0" encoding="utf-8"?>
<svg version="1.1" id="Layer_1" xmlns="http://www.w3.org/2000/svg" xmlns:xlink="http://www.w3.org/1999/xlink" x="0px" y="0px"
	 viewBox="0 0 32 39" style="enable-background:new 0 0 32 39;" xml:space="preserve">
<style type="text/css">
	.st0{fill:#FFFFFF;}
</style>
<title>WooCommerce</title>
<g id="WooCommerce">
	<g id="woocommerce" transform="translate(0.000000, 12.000000)">
		<path id="Path" class="st0" d="M3,0h26c1.6,0,3,1.3,3,3v9.9c0,1.6-1.3,3-3,3h-9.3L21,19l-5.6-3.1H3c-1.6,0-3-1.3-3-3V3
			C0,1.3,1.3,0,3,0z"/>
		<path id="Shape" class="st0" d="M1.8,2.7C2,2.5,2.3,2.3,2.6,2.3c0.7-0.1,1,0.3,1.1,0.9c0.4,2.7,0.8,5,1.3,6.9l2.8-5.4
			C8.2,4.2,8.5,4,8.9,4C9.5,3.9,9.8,4.3,10,5c0.3,1.7,0.7,3.2,1.2,4.4c0.3-3.3,0.9-5.7,1.7-7.2c0.2-0.4,0.5-0.5,0.9-0.6
			c0.3,0,0.6,0.1,0.8,0.3C14.9,2.2,15,2.5,15,2.8c0,0.2,0,0.4-0.1,0.6c-0.5,0.9-0.9,2.5-1.3,4.7c-0.3,2.1-0.4,3.8-0.4,5
			c0,0.3,0,0.6-0.2,0.9c-0.2,0.3-0.4,0.4-0.7,0.5c-0.3,0-0.7-0.1-1-0.5c-1.2-1.2-2.2-3.1-2.9-5.5C7.7,10,7,11.3,6.6,12.1
			c-0.8,1.5-1.4,2.2-2,2.3c-0.4,0-0.7-0.3-0.9-0.9c-0.7-1.7-1.4-5-2.1-9.9C1.6,3.3,1.6,3,1.8,2.7L1.8,2.7z M29.8,4.8
			c-0.5-0.8-1.2-1.3-2.1-1.5c-0.2-0.1-0.5-0.1-0.7-0.1c-1.2,0-2.3,0.7-3.1,2c-0.7,1.1-1,2.3-1,3.7c0,1,0.2,1.9,0.6,2.6
			c0.5,0.8,1.2,1.3,2.1,1.5c0.2,0.1,0.5,0.1,0.7,0.1c1.3,0,2.3-0.7,3.1-2c0.7-1.1,1-2.3,1-3.7C30.4,6.3,30.2,5.5,29.8,4.8L29.8,4.8z
			 M28.1,8.4c-0.2,0.9-0.5,1.5-1,1.9c-0.4,0.3-0.7,0.5-1.1,0.4c-0.3-0.1-0.6-0.3-0.8-0.8c-0.2-0.4-0.2-0.8-0.2-1.2
			c0-0.3,0-0.7,0.1-0.9c0.1-0.5,0.3-1.1,0.7-1.5c0.4-0.6,0.9-0.9,1.4-0.8c0.3,0.1,0.6,0.3,0.8,0.8c0.2,0.4,0.2,0.8,0.2,1.2
			C28.2,7.7,28.2,8.1,28.1,8.4L28.1,8.4z M21.6,4.8c-0.5-0.8-1.2-1.3-2.1-1.5c-0.2-0.1-0.5-0.1-0.7-0.1c-1.2,0-2.3,0.7-3.1,2
			c-0.7,1.1-1,2.3-1,3.7c0,1,0.2,1.9,0.6,2.6c0.5,0.8,1.2,1.3,2.1,1.5c0.2,0.1,0.5,0.1,0.7,0.1c1.3,0,2.3-0.7,3.1-2
			c0.7-1.1,1-2.3,1-3.7C22.3,6.3,22,5.5,21.6,4.8L21.6,4.8z M20,8.4c-0.2,0.9-0.5,1.5-1,1.9c-0.4,0.3-0.7,0.5-1.1,0.4
			c-0.3-0.1-0.6-0.3-0.8-0.8c-0.2-0.4-0.2-0.8-0.2-1.2c0-0.3,0-0.7,0.1-0.9c0.1-0.5,0.3-1.1,0.7-1.5c0.4-0.6,0.9-0.9,1.4-0.8
			c0.3,0.1,0.6,0.3,0.8,0.8C20,6.6,20.1,7,20.1,7.4C20.1,7.7,20,8.1,20,8.4L20,8.4z"/>
	</g>
</g>
</svg>