<?xml version="1.0" encoding="utf-8"?>
<svg version="1.1" id="Layer_1" xmlns="http://www.w3.org/2000/svg" xmlns:xlink="http://www.w3.org/1999/xlink" x="0px" y="0px"
	 viewBox="0 0 32 39" style="enable-background:new 0 0 32 39;" xml:space="preserve">
<style type="text/css">
	.st0{fill:#FFFFFF;}
</style>
<title>WordPress</title>
<g>
	<path class="st0" d="M3.5,24.8c-0.7-1.7-1.1-3.4-1.1-5.3s0.4-3.6,1.1-5.3c0.7-1.7,1.7-3.1,2.9-4.3S9.1,7.7,10.7,7
		C12.4,6.3,14.2,6,16,6s3.6,0.4,5.3,1.1c1.7,0.7,3.1,1.7,4.3,2.9c1.2,1.2,2.2,2.7,2.9,4.3c0.7,1.7,1.1,3.4,1.1,5.3s-0.4,3.6-1.1,5.3
		c-0.7,1.7-1.7,3.1-2.9,4.3c-1.2,1.2-2.7,2.2-4.3,2.9C19.6,32.7,17.8,33,16,33s-3.6-0.4-5.3-1.1c-1.7-0.7-3.1-1.7-4.3-2.9
		C5.2,27.9,4.2,26.4,3.5,24.8z M4.1,14.5c-0.7,1.6-1,3.3-1,5s0.3,3.4,1,5c0.7,1.6,1.6,3,2.8,4.1c1.2,1.2,2.5,2.1,4.1,2.8
		c1.6,0.7,3.3,1,5,1s3.4-0.3,5-1c1.6-0.7,3-1.6,4.1-2.8c1.2-1.2,2.1-2.5,2.8-4.1c0.7-1.6,1-3.3,1-5s-0.3-3.4-1-5
		c-0.7-1.6-1.6-3-2.8-4.1C24,9.2,22.6,8.3,21,7.6c-1.6-0.7-3.3-1-5-1s-3.4,0.3-5,1c-1.6,0.7-3,1.6-4.1,2.8
		C5.7,11.5,4.8,12.9,4.1,14.5z M4.4,19.5c0-1.6,0.3-3.2,1-4.7L10.9,30c-2-1-3.6-2.4-4.8-4.2C5,23.8,4.4,21.8,4.4,19.5z M6.3,13.1
		c1.1-1.6,2.4-2.9,4.1-3.8C12.2,8.3,14,7.9,16,7.9c1.5,0,2.9,0.3,4.2,0.8c1.3,0.5,2.5,1.3,3.6,2.3h-0.1c-0.6,0-1,0.2-1.4,0.6
		c-0.4,0.4-0.6,0.9-0.6,1.4c0,0.1,0,0.2,0,0.4c0,0.1,0,0.2,0.1,0.3c0,0.1,0.1,0.2,0.1,0.3c0.1,0.1,0.1,0.2,0.1,0.3
		c0,0.1,0.1,0.2,0.2,0.3c0.1,0.2,0.2,0.3,0.2,0.3c0,0.1,0.1,0.2,0.2,0.4c0.1,0.2,0.2,0.3,0.2,0.3c0.6,1.1,1,2.1,1,3.2
		c0,0.2,0,0.4,0,0.6c0,0.2-0.1,0.4-0.2,0.7c-0.1,0.3-0.1,0.5-0.2,0.7c0,0.1-0.1,0.4-0.3,0.9c-0.1,0.5-0.2,0.7-0.3,0.9l-1.2,3.9
		l-4.2-12.5c0.5,0,0.9-0.1,1.3-0.1c0.2,0,0.3-0.1,0.4-0.3c0.1-0.2,0.1-0.3,0-0.5C19.2,13,19,13,18.9,13l-3.1,0.2
		c-0.8,0-1.8-0.1-3.1-0.2c-0.1,0-0.2,0-0.3,0.1c-0.1,0.1-0.1,0.1-0.2,0.2c0,0.1,0,0.2,0,0.3c0,0.1,0.1,0.2,0.1,0.2
		c0.1,0.1,0.2,0.1,0.3,0.1l1.2,0.1l1.8,5l-2.5,7.6L8.9,14.1c0.5,0,0.9-0.1,1.3-0.1c0.2,0,0.3-0.1,0.4-0.3c0.1-0.2,0.1-0.3,0-0.5
		C10.5,13,10.3,13,10.1,13L7,13.1c-0.1,0-0.2,0-0.3,0C6.5,13.1,6.4,13.1,6.3,13.1z M12.7,30.6l3.5-10.1l3.6,9.8c0,0.1,0,0.1,0.1,0.2
		c-1.3,0.4-2.6,0.7-3.9,0.7C14.9,31.1,13.8,31,12.7,30.6z M21.8,29.5l3.6-10.2c0.6-1.7,0.9-3.1,0.9-4.2c0-0.4,0-0.8-0.1-1.2
		c1,1.8,1.4,3.6,1.4,5.6c0,2.1-0.5,4-1.6,5.8C25,27.1,23.6,28.5,21.8,29.5z"/>
</g>
</svg>