<svg enable-background="new 0 0 1127.5 761.8" viewBox="0 0 1127.5 761.8" xmlns="http://www.w3.org/2000/svg"><g fill="#fff"><path d="m910.4 82.5s-117 1.7-276.6 44.1l18.1 15.1s119.7-17.3 219.9-9z"/><path d="m998.2 761.8c-87.7-102.9-273.3-335.1-865.8-319.3 0 0-4.8 26.8-91.2 135.1 486.2-41.8 654.3-11.6 957 184.2z"/><path d="m377 364.4c12 1.4 35.5 4.5 66.5 10.7 42.1 8.5 107.1 24.6 177.4 53.2 78.8 32 148.1 72.9 206 121.6 48 40.3 88.2 86 120.3 136.6-38.8-39.8-92-86.3-166.5-128.2-61.5-34.7-131.5-62.7-207.9-83.2-79.2-21.3-167.5-35.2-262.9-41.5 13-9.3 24.7-18.7 34.6-27.9 15.7-14.7 26.6-28.5 32.5-41.3"/><path d="m1000.2 761.6c-23.3-94.4-96.4-324.4-429.7-489.4 0 0-1.5 44.3-54 108.1 152.4 42.1 381.8 143.4 483.7 381.3z"/><path d="m1108.5 1.2c-.4 0-17.9-1.2-48.7-1.2-44.3 0-116.3 2.4-204.6 14.1-44.3 5.9-95.8 14.5-152.2 27.3-94-5.7-252.3-15.4-257-15.9-69.9-7.3-143.5 70.2-143.5 70.2s-10.5 58.9-18.6 105.2c-6.2 3.4-12.3 6.9-18.5 10.4-.4.2-.7.4-1.1.6l-12 7.9c6.4-36.4 13.3-75.1 15.1-85.4-52.7 17.4-97.2 64.3-97.2 64.3s-.1 35.2-.2 75.8l-142.8 94.5c-2.2 1.5-3.8 3.7-4.4 6.3l-22.5 98.1c-1.2 5.6 2.2 11.1 7.8 12.3.7.2 1.4.2 2.1.3l98 1c5.3-8.1 9.5-14.9 12.8-20.5l-97.6-1 18.7-81.6 233.1-154.4.3-.2c14.7-8.3 28.9-16.1 43.6-24.1 201.1-108.7 404-152.7 538.8-170.6 86.9-11.5 157.8-13.9 201.9-13.9 11.2 0 20.5.2 27.9.4-21.8 29.4-70.5 96.2-120.8 171.4-74.4 111.3-123 197.1-145.1 255.8 5.5 5.5 10.8 11.1 16 16.6 49-143.3 275.8-444 278.2-447.1l11.5-13.1z"/></g></svg>