<svg enable-background="new 0 0 400.8 105" viewBox="0 0 400.8 105" xmlns="http://www.w3.org/2000/svg"><path d="m253.1 46.1h-14.8v-22h14.8c4.9 0 8.5.9 10.9 2.7s3.6 4.6 3.6 8.3-1.2 6.5-3.6 8.3-6.1 2.7-10.9 2.7zm13.1 11.3c-2.6-2.2-6.6-3.2-11.9-3.2h-16v26.7h16c5.4 0 9.3-1.1 11.9-3.3s3.9-5.6 3.9-10.1c0-4.6-1.3-8-3.9-10.1zm-68.3 0c-2.6-2.2-6.6-3.2-11.9-3.2h-16v26.7h16c5.4 0 9.4-1.1 11.9-3.3s3.9-5.6 3.9-10.1c0-4.6-1.3-8-3.9-10.1zm-2.3-14c2.4-1.8 3.6-4.6 3.6-8.3s-1.2-6.4-3.6-8.3c-2.4-1.8-6-2.7-10.9-2.7h-14.8v22h14.8c4.9 0 8.5-.9 10.9-2.7zm-93.7 18.7h27.1l-13.6-36.3zm298.9-62.1v105h-400.8v-105zm-324.6 80.7h-47.7l46.7-57.2v-7.5h-58v8.3h45.5l-46.7 57.2v7.5h60.2zm73 8.3-28.1-73h-11.3l-28.2 73h10.5l6.7-18.7h33.3l6.7 18.7zm63.1-20.4c0-5-1.4-9.1-4.1-12.4s-6.5-5.5-11.4-6.5c4.1-.7 7.2-2.3 9.3-4.9s3.2-6.2 3.2-10.7c0-5.8-2.1-10.2-6.2-13.3s-10-4.7-17.6-4.7h-25.5v73h26.5c8.3 0 14.6-1.8 19.1-5.3 4.5-3.7 6.7-8.7 6.7-15.2zm68.3 0c0-5-1.4-9.1-4.1-12.4s-6.5-5.5-11.4-6.5c4.1-.7 7.2-2.3 9.3-4.9s3.2-6.2 3.2-10.7c0-5.8-2.1-10.2-6.2-13.3s-10-4.7-17.6-4.7h-25.5v73h26.5c8.3 0 14.6-1.8 19.1-5.3 4.5-3.7 6.7-8.7 6.7-15.2zm26-52.6h-10v73h10zm78.2 73-25.7-38.8 22.9-34.2h-10.6l-17.5 26.2-17.4-26.2h-11l22.8 34.5-25.7 38.5h10.6l20.4-30.5 20.3 30.5z" fill="#fff"/></svg>