<?xml version="1.0" encoding="utf-8"?>
<!-- Generator: Adobe Illustrator 21.0.0, SVG Export Plug-In . SVG Version: 6.00 Build 0)  -->
<!DOCTYPE svg PUBLIC "-//W3C//DTD SVG 1.1//EN" "http://www.w3.org/Graphics/SVG/1.1/DTD/svg11.dtd">
<svg version="1.1" xmlns="http://www.w3.org/2000/svg" xmlns:xlink="http://www.w3.org/1999/xlink" x="0px" y="0px"
	 viewBox="0 0 202.4 240.8" enable-background="new 0 0 202.4 240.8" xml:space="preserve">
<g id="DO_NOT_PRINT" display="none">
	<rect x="1.1" y="-3" display="inline" fill="#7D1416" width="606.3" height="248.3"/>
</g>
<g id="Linode">
	<g>
		<g>
			<path fill="#00b159" d="M169,127.3l-2.6,30.6l-8.8-6.1l0.9-15.6c0,0,0,0,0-0.1c0,0,0,0,0-0.1c0-0.1,0-0.1,0-0.2c0,0,0-0.1,0-0.1
				c0-0.1-0.1-0.2-0.1-0.3c0,0,0,0,0,0c-0.1-0.1-0.1-0.2-0.2-0.3c0,0,0,0-0.1,0c-0.1-0.1-0.1-0.1-0.2-0.2l-18.9-12.5l0.3-13.7
				L169,127.3z M122.6,160.5l-13.5-10.3l0.1,2.4c0,0.5-0.2,1-0.6,1.2l-10.2,6.9l11.1,9.1c0,0,0,0,0,0c0,0,0.1,0.1,0.1,0.1
				c0.1,0.1,0.1,0.1,0.2,0.2c0,0,0,0.1,0.1,0.1c0,0.1,0.1,0.1,0.1,0.2c0,0,0,0.1,0,0.1c0,0.1,0,0.1,0,0.2c0,0,0,0.1,0,0.1l0.5,10.6
				l12.4,10.5L122.6,160.5z M36.9,173.8l6.3,30.7l26.5,28.1l-4.5-31L36.9,173.8z M61.8,178.5l-6.3-42.9l-32.1-26.7l8.6,41.6
				L61.8,178.5z M51.6,109l-8.9-60.8L6.1,25.4L18,82.8L51.6,109z"/>
			<path fill='#00b159' d="M195.2,110.6l-3.9,29.1l-22.1,17.6l2.6-30L195.2,110.6z M125.4,160.5l0.3,31.5l28-22.3l1.9-30.7
				L125.4,160.5z M107.3,173.5L68,201.6l4.8,32.6l35.9-28.6L107.3,173.5z M106.3,151.9l-1.8-42.6l-46.2,26.3l6.5,44.3L106.3,151.9z
				 M103.5,84.7L101,26.9L45.5,48.2l9.1,61.9L103.5,84.7z"/>
			<path d="M198.5,107.5C198.5,107.4,198.5,107.4,198.5,107.5c0-0.1,0-0.2,0-0.2c0-0.1,0-0.2-0.1-0.2c0,0,0-0.1-0.1-0.1
				c0-0.1-0.1-0.1-0.1-0.2c0,0-0.1-0.1-0.1-0.1c-0.1-0.1-0.1-0.1-0.2-0.2c0,0,0,0-0.1-0.1c0,0,0,0,0,0c0,0,0,0,0,0l-32.1-17.8
				c-0.4-0.2-1-0.2-1.4,0l-27.1,16.5c0,0-0.1,0.1-0.1,0.1c0,0-0.1,0.1-0.1,0.1c0,0-0.1,0.1-0.1,0.1c0,0-0.1,0.1-0.1,0.1
				c0,0.1-0.1,0.1-0.1,0.2c0,0,0,0.1-0.1,0.1c0,0.1,0,0.1,0,0.2c0,0,0,0.1,0,0.1l-0.3,14.4l-11-7.3c-0.5-0.3-1-0.3-1.5,0l-15.8,9.7
				l-0.7-16.1c0,0,0-0.1,0-0.1c0-0.1,0-0.1,0-0.2c0-0.1,0-0.1-0.1-0.1c0-0.1,0-0.1-0.1-0.2c0,0-0.1-0.1-0.1-0.1c0,0-0.1-0.1-0.1-0.1
				c0,0-0.1-0.1-0.1-0.1c0,0-0.1-0.1-0.1-0.1L90.1,94.8l15.4-8c0.5-0.3,0.8-0.8,0.8-1.3l-2.6-60.6c0-0.1,0-0.1,0-0.2
				c0,0,0-0.1,0-0.1c0-0.1-0.1-0.2-0.1-0.3c0,0,0,0,0-0.1c-0.1-0.1-0.1-0.2-0.2-0.2c0,0-0.1,0-0.1-0.1c0,0-0.1-0.1-0.1-0.1
				c0,0-0.1,0-0.1-0.1c0,0,0,0-0.1,0L61.4,3.6c-0.3-0.2-0.7-0.2-1-0.1L3.7,21.2c0,0,0,0,0,0c0,0,0,0-0.1,0c-0.1,0-0.2,0.1-0.3,0.1
				c0,0,0,0,0,0c0,0-0.1,0.1-0.1,0.1c-0.1,0.1-0.1,0.1-0.2,0.2c0,0.1-0.1,0.1-0.1,0.2c0,0.1-0.1,0.1-0.1,0.2c0,0.1,0,0.2-0.1,0.2
				c0,0,0,0.1,0,0.1c0,0,0,0,0,0c0,0.1,0,0.1,0,0.2c0,0.1,0,0.1,0,0.2c0,0,0,0,0,0l12.6,61.1c0.1,0.3,0.2,0.6,0.5,0.8L33,98.1
				L20.6,104c0,0,0,0-0.1,0c0,0,0,0-0.1,0c0,0,0,0-0.1,0.1c-0.1,0-0.1,0.1-0.2,0.2c0,0-0.1,0.1-0.1,0.1c-0.1,0.1-0.1,0.2-0.2,0.2
				c0,0,0,0.1-0.1,0.1c0,0.1-0.1,0.2-0.1,0.4c0,0,0,0,0,0c0,0,0,0,0,0.1c0,0.1,0,0.2,0,0.3c0,0,0,0,0,0l9.5,46
				c0.1,0.3,0.2,0.5,0.4,0.7l11.9,11.3l-7.9,4.8c-0.1,0.1-0.2,0.1-0.3,0.2c0,0,0,0-0.1,0.1c-0.1,0.1-0.1,0.2-0.2,0.3
				c0,0,0,0.1,0,0.1c-0.1,0.1-0.1,0.3-0.1,0.4c0,0.1,0,0.3,0,0.4c0,0,0,0,0,0l7.4,35.6c0.1,0.3,0.2,0.5,0.4,0.7l29.8,31.7
				c0,0,0.1,0.1,0.1,0.1c0,0,0,0,0.1,0c0.1,0.1,0.2,0.1,0.3,0.2c0,0,0,0,0,0c0,0,0,0,0,0c0.2,0.1,0.3,0.1,0.5,0.1
				c0.1,0,0.3,0,0.4-0.1c0,0,0.1,0,0.1,0c0,0,0.1,0,0.1,0c0.1,0,0.1-0.1,0.2-0.1c0,0,0.1,0,0.1-0.1l38.4-30.6
				c0.4-0.3,0.5-0.7,0.5-1.2l-0.9-21l12.8,10.8c0,0,0.1,0,0.1,0c0.1,0.1,0.1,0.1,0.2,0.1c0,0,0.1,0,0.1,0c0,0,0.1,0,0.1,0
				c0.1,0,0.3,0.1,0.4,0.1c0.1,0,0.3,0,0.4-0.1c0,0,0.1,0,0.1,0c0,0,0.1,0,0.1,0c0.1,0,0.1-0.1,0.2-0.1c0,0,0.1,0,0.1,0l30.7-24.5
				c0.3-0.3,0.5-0.6,0.5-1l0.9-15.4l9.4,6.5c0,0,0,0,0.1,0c0,0,0,0,0.1,0.1c0.1,0,0.1,0,0.2,0.1c0,0,0.1,0,0.1,0
				c0.1,0,0.3,0.1,0.4,0.1c0.1,0,0.3,0,0.4-0.1c0,0,0.1,0,0.1,0c0,0,0.1,0,0.1,0c0.1,0,0.1-0.1,0.2-0.1c0,0,0,0,0.1,0l25.1-20
				c0.3-0.2,0.5-0.6,0.5-0.9l4.4-32.9c0,0,0-0.1,0-0.1C198.5,107.6,198.5,107.5,198.5,107.5z M169.2,157.3l2.6-30l23.4-16.8
				l-3.9,29.1L169.2,157.3z M157.6,151.8l0.9-15.6c0,0,0,0,0-0.1c0,0,0,0,0-0.1c0-0.1,0-0.1,0-0.2c0,0,0-0.1,0-0.1
				c0-0.1-0.1-0.2-0.1-0.3c0,0,0,0,0,0c-0.1-0.1-0.1-0.2-0.2-0.3c0,0,0,0-0.1,0c-0.1-0.1-0.1-0.1-0.2-0.2l-18.9-12.5l0.3-13.7
				l29.7,18.5l-2.6,30.6L157.6,151.8z M153.7,169.7l-28,22.3l-0.3-31.5l30.1-21.5L153.7,169.7z M108.6,205.6l-35.9,28.6L68,201.6
				l39.3-28.1L108.6,205.6z M43.2,204.5l-6.3-30.7l28.3,27.8l4.5,31L43.2,204.5z M42.7,48.2l8.9,60.8L18,82.8L6.1,25.4L42.7,48.2z
				 M101,26.9l2.5,57.7l-48.9,25.4l-9.1-61.9L101,26.9z M106.3,151.9l-41.5,28l-6.5-44.3l46.2-26.3L106.3,151.9z M55.5,135.7
				l6.3,42.9l-29.7-28l-8.6-41.6L55.5,135.7z M110,170.8C110,170.8,110,170.7,110,170.8c0-0.2,0-0.2-0.1-0.3c0,0,0-0.1,0-0.1
				c0-0.1-0.1-0.1-0.1-0.2c0,0,0-0.1-0.1-0.1c0-0.1-0.1-0.1-0.2-0.2c0,0-0.1-0.1-0.1-0.1c0,0,0,0,0,0l-11.1-9.1l10.2-6.9
				c0.4-0.3,0.6-0.7,0.6-1.2l-0.1-2.4l13.5,10.3l0.3,31.4l-12.4-10.5L110,170.8z"/>
		</g>
	</g>
</g>
</svg>
