<svg xmlns="http://www.w3.org/2000/svg" width="18" height="20" viewBox="0 0 18 20">
    <g fill="none" fill-rule="evenodd" stroke="#75AEF0" stroke-linecap="round" stroke-linejoin="round" stroke-width="1.25">
        <path fill="#D1E4FA" d="M1.5 10.625c0 2.68 1.43 5.155 3.75 6.495 2.32 1.34 5.18 1.34 7.5 0 2.32-1.34 3.75-3.816 3.75-6.495 0-2.68-1.43-5.155-3.75-6.495-2.32-1.34-5.18-1.34-7.5 0C2.93 5.47 1.5 7.946 1.5 10.625h0z"/>
        <path d="M4 19.375L5.155 17.066M9 10.625L6.174 10.625M9 6.25L9 10.625M.75 3.125L3.375.625M14 19.375L12.845 17.065M17.25 3.125L14.625.625"/>
    </g>
</svg>
