<svg xmlns="http://www.w3.org/2000/svg" width="56" height="56" viewBox="0 0 56 56">
  <g fill="none" fill-rule="evenodd" stroke="#939598" stroke-linecap="round" stroke-linejoin="round" stroke-width="1.5">
    <path d="M2.65517241 5.07137931L53.3448276 5.07137931C54.6772414 5.07137931 55.7586207 6.15275862 55.7586207 7.48517241L55.7586207 53.3472414C55.7586207 54.6796552 54.6772414 55.7610345 53.3448276 55.7610345L2.65517241 55.7610345C1.32275862 55.7610345.24137931 54.6796552.24137931 53.3472414L.24137931 7.48517241C.24137931 6.15275862 1.32275862 5.07137931 2.65517241 5.07137931zM12.3103448.243793103L12.3103448 12.3127586M43.6896552.243793103L43.6896552 12.3127586M.24137931 17.1403448L55.7586207 17.1403448"/>
    <path d="M28 24.3817241C34.6644828 24.3817241 40.0689655 29.7862069 40.0689655 36.4506897 40.0689655 43.1151724 34.6644828 48.5196552 28 48.5196552 21.3355172 48.5196552 15.9310345 43.1151724 15.9310345 36.4506897 15.9310345 29.7862069 21.3355172 24.3817241 28 24.3817241zM28 41.2782759L28 43.692069M28 29.2093103L28 31.6231034"/>
    <path d="M23.1724138,41.2758621 L30.4137931,41.2758621 C31.7462069,41.2758621 32.8275862,40.1944828 32.8275862,38.862069 C32.8275862,37.5296552 31.7462069,36.4482759 30.4137931,36.4482759 L25.5862069,36.4482759 C24.2537931,36.4482759 23.1724138,35.3668966 23.1724138,34.0344828 C23.1724138,32.702069 24.2537931,31.6206897 25.5862069,31.6206897 L32.8275862,31.6206897"/>
  </g>
</svg>
