<svg xmlns="http://www.w3.org/2000/svg" width="25" height="25" viewBox="0 0 25 25">
    <g fill="none" fill-rule="evenodd">
        <path stroke="#5D646F" d="M12.5.5C9.186.5 6.186 1.843 4.015 4.015 1.843 6.186.5 9.186.5 12.5c0 3.314 1.343 6.314 3.515 8.485C6.186 23.157 9.186 24.5 12.5 24.5c3.314 0 6.314-1.343 8.485-3.515 2.172-2.171 3.515-5.171 3.515-8.485 0-3.314-1.343-6.314-3.515-8.485C18.814 1.843 15.814.5 12.5.5z"/>
        <path fill="#5D646F" d="M12.5 11c.828 0 1.5.672 1.5 1.5s-.672 1.5-1.5 1.5-1.5-.672-1.5-1.5.672-1.5 1.5-1.5"/>
        <path stroke="#5D646F" stroke-linecap="round" stroke-linejoin="round" d="M12.5 4.167L12.5 7.639M5.677 17.535L8.684 15.799M19.67 17.535L16.663 15.799"/>
    </g>
</svg>
