<svg width="20" height="20" viewBox="0 0 20 20" fill="none" xmlns="http://www.w3.org/2000/svg">
<path fill-rule="evenodd" clip-rule="evenodd" d="M7.50004 1.24805C7.9612 1.24805 8.33504 1.62189 8.33504 2.08305V2.49805H11.665V2.08305C11.665 1.62189 12.0389 1.24805 12.5 1.24805C12.9612 1.24805 13.335 1.62189 13.335 2.08305V2.49805H15C15.4498 2.49805 16.2026 2.52145 16.8404 3.15928C17.4782 3.79711 17.5016 4.54988 17.5016 4.99971V5.00639V5.01307V5.01976V5.02645V5.03315V5.03985V5.04655V5.05326V5.05998V5.0667V5.07342V5.08015V5.08688V5.09362V5.10036V5.1071V5.11385V5.1206V5.12736V5.13412V5.14088V5.14765V5.15442V5.16119V5.16797V5.17475V5.18153V5.18832V5.19511V5.2019V5.2087V5.2155V5.2223V5.2291V5.23591V5.24272V5.24953V5.25635V5.26316V5.26998V5.2768V5.28363V5.29045V5.29728V5.30411V5.31094V5.31778V5.32461V5.33145V5.33829V5.34513V5.35197V5.35881V5.36566V5.3725V5.37935V5.3862V5.39305V5.3999V5.40675V5.4136V5.42045V5.42731V5.43416V5.44102V5.44787V5.45473V5.46158V5.46844V5.47529V5.48215V5.48901V5.49586V5.50272V5.50958V5.51643V5.52329V5.53014V5.537V5.54385V5.5507V5.55756V5.56441V5.57126V5.57811V5.58496V5.59181V5.59866V5.6055V5.61235V5.61919V5.62604V5.63288V5.63972V5.64655V5.65339V5.66023V5.66706V5.67389V5.68072V5.68755V5.69437V5.70119V5.70802V5.71483V5.72165V5.72846V5.73527V5.74208V5.74889V5.75569V5.76249V5.76929V5.77609V5.78288V5.78967V5.79645V5.80323V5.81001V5.81679V5.82356V5.83033V5.8371V5.84386V5.85062V5.85737V5.86412V5.87087V5.87761V5.88435V5.89108V5.89781V5.90454V5.91126V5.91798V5.92469V5.9314V5.9381V5.9448V5.95149V5.95818V5.96487V5.97155V5.97822V5.98489V5.99156V5.99821V6.00487V6.01152V6.01816V6.0248V6.03143V6.03805V6.04467V6.05129V6.0579V6.0645V6.07109V6.07768V6.08427V6.09085V6.09742V6.10398V6.11054V6.11709V6.12364V6.13018V6.13671V6.14324V6.14976V6.15627V6.16277V6.16927V6.17576V6.18224V6.18872V6.19519V6.20165V6.2081V6.21455V6.22098V6.22742V6.23384V6.24025V6.24666V6.25306V6.25945V6.26583V6.27221V6.27857V6.28493V6.29128V6.29762V6.30395V6.31028V6.31659V6.3229V6.32919V6.33548V6.34176V6.34803V6.35429V6.36054V6.36679V6.37302V6.37924V6.38546V6.39166V6.39786V6.40404V6.41022V6.41638V6.42254V6.42869V6.43482V6.44095V6.44706V6.45317V6.45926V6.46535V6.47142V6.47748V6.48354V6.48958V6.49561V6.50163V6.50764V6.51364V6.51963V6.5256V6.53157V6.53752V6.54346V6.5494V6.55531V6.56122V6.56712V6.573V6.57888V6.58474V6.59059V6.59642V6.60225V6.60806V6.61386V6.61965V6.62543V6.63119V6.63694V6.64268V6.64841V6.65412V6.65982V6.66551V6.67119V6.67685V6.6825V6.68814V6.69376V6.69937V6.70496V6.71055V6.71612V6.72167V6.72721V6.73274V6.73826V6.74376V6.74925V6.75472V6.76018V6.76562V6.77106V6.77647V6.78187V6.78726V6.79264V6.798V6.80334V6.80867V6.81398V6.81929V6.82457V6.82984V6.8351V6.84034V6.84556V6.85077V6.85597V6.86115V6.86631V6.87146V6.87659V6.88171V6.88681V6.8919V6.89697V6.90202V6.90706V6.91208V6.91708V6.92207V6.92705V6.932V6.93694V6.94187V6.94677V6.95167V6.95654V6.9614V6.96624V6.97106V6.97587V6.98066V6.98543V6.99018V6.99492V6.99964V7.00434V7.00903V7.0137V7.01835V7.02298V7.02759V7.03219V7.03677V7.04133V7.04587V7.0504V7.0549V7.05939V7.06386V7.06831V7.07275V7.07716V7.08156V7.08593V7.09029V7.09463V7.09895V7.10325V7.10754V7.1118V7.11604V7.12027V7.12447V7.12866V7.13283V7.13697V7.1411V7.14521V7.1493V7.15337V7.15742V7.16144V7.16545V7.16944V7.17341V7.17736V7.18128V7.18519V7.18908V7.19294V7.19679V7.20061V7.20442V7.2082V7.21196V7.21571V7.21943V7.22313V7.2268V7.23046V7.2341V7.23771V7.2413V7.24487V7.24842V7.25195V7.25546V7.25894V7.26241V7.26585V7.26927V7.27266V7.27604V7.27939V7.28272V7.28603V7.28931V7.29257V7.29581V7.29903V7.30222V7.3054V7.30854V7.31167V7.31477V7.31785V7.32091V7.32394V7.32695V7.32994V7.3329V7.33584V7.33876V7.34165V7.34452V7.34736V7.35019V7.35298V7.35576V7.35851V7.36123V7.36393V7.36661V7.36926V7.37189V7.37449V7.37707V7.37962V7.38215V7.38466V7.38714V7.38959V7.39202V7.39443V7.39681V7.39916V7.40149V7.40379V7.40607V7.40832V7.41055V7.41275V7.41493V7.41708V7.4192V7.4213V7.42337V7.42542V7.42744V7.42944V7.4314V7.43334V7.43526V7.43715V7.43901V7.44085V7.44265V7.44444V7.44619V7.44792V7.44962V7.45129V7.45294V7.45456V7.45615V7.45772V7.45926V7.46077V7.46225V7.46371V7.46513V7.46653V7.46791V7.46925V7.47057V7.47185V7.47311V7.47435V7.47555V7.47672V7.47787V7.47899V7.48008V7.48114V7.48217V7.48318V7.4851V7.4869V7.48859V7.49016V7.49162V7.49295V7.49417V7.49527V7.49669V7.49785V7.49895V7.50053V7.50302V7.5129L17.5016 7.55175L17.5016 7.70183L17.5017 8.25969L17.5017 10.1514L17.5017 14.9997C17.5017 15.4575 17.4628 16.218 16.8405 16.8402C16.2183 17.4623 15.458 17.5014 15.0001 17.5014H14.9861H14.9721H14.958H14.9439H14.9298H14.9156H14.9013H14.8871H14.8727H14.8583H14.8439H14.8294H14.8149H14.8004H14.7857H14.7711H14.7564H14.7416H14.7269H14.712H14.6972H14.6822H14.6673H14.6523H14.6372H14.6221H14.607H14.5918H14.5766H14.5613H14.546H14.5307H14.5153H14.4998H14.4844H14.4688H14.4533H14.4377H14.422H14.4063H14.3906H14.3748H14.359H14.3432H14.3273H14.3114H14.2954H14.2794H14.2633H14.2473H14.2311H14.215H14.1987H14.1825H14.1662H14.1499H14.1335H14.1171H14.1007H14.0842H14.0677H14.0511H14.0345H14.0179H14.0012H13.9845H13.9678H13.951H13.9342H13.9173H13.9004H13.8835H13.8665H13.8495H13.8325H13.8154H13.7983H13.7812H13.764H13.7468H13.7295H13.7122H13.6949H13.6776H13.6602H13.6428H13.6253H13.6078H13.5903H13.5727H13.5551H13.5375H13.5198H13.5021H13.4844H13.4667H13.4489H13.431H13.4132H13.3953H13.3774H13.3594H13.3414H13.3234H13.3053H13.2873H13.2691H13.251H13.2328H13.2146H13.1964H13.1781H13.1598H13.1415H13.1231H13.1047H13.0863H13.0679H13.0494H13.0309H13.0123H12.9938H12.9752H12.9565H12.9379H12.9192H12.9005H12.8817H12.863H12.8442H12.8254H12.8065H12.7876H12.7687H12.7498H12.7308H12.7118H12.6928H12.6738H12.6547H12.6356H12.6165H12.5974H12.5782H12.559H12.5398H12.5205H12.5012H12.4819H12.4626H12.4433H12.4239H12.4045H12.3851H12.3656H12.3462H12.3267H12.3071H12.2876H12.268H12.2484H12.2288H12.2092H12.1895H12.1699H12.1501H12.1304H12.1107H12.0909H12.0711H12.0513H12.0314H12.0116H11.9917H11.9718H11.9519H11.9319H11.912H11.892H11.872H11.852H11.8319H11.8118H11.7917H11.7716H11.7515H11.7314H11.7112H11.691H11.6708H11.6506H11.6303H11.6101H11.5898H11.5695H11.5492H11.5289H11.5085H11.4881H11.4677H11.4473H11.4269H11.4065H11.386H11.3655H11.3451H11.3245H11.304H11.2835H11.2629H11.2424H11.2218H11.2012H11.1805H11.1599H11.1393H11.1186H11.0979H11.0772H11.0565H11.0358H11.015H10.9943H10.9735H10.9527H10.9319H10.9111H10.8903H10.8695H10.8486H10.8278H10.8069H10.786H10.7651H10.7442H10.7233H10.7023H10.6814H10.6604H10.6395H10.6185H10.5975H10.5765H10.5554H10.5344H10.5134H10.4923H10.4713H10.4502H10.4291H10.408H10.3869H10.3658H10.3447H10.3236H10.3024H10.2813H10.2601H10.2389H10.2178H10.1966H10.1754H10.1542H10.133H10.1118H10.0905H10.0693H10.0481H10.0268H10.0055H9.98428H9.96301H9.94173H9.92045H9.89916H9.87786H9.85656H9.83525H9.81394H9.79261H9.77129H9.74996H9.72862H9.70727H9.68593H9.66457H9.64322H9.62185H9.60049H9.57911H9.55774H9.53636H9.51498H9.49359H9.4722H9.4508H9.4294H9.408H9.3866H9.36519H9.34378H9.32237H9.30096H9.27954H9.25812H9.2367H9.21528H9.19385H9.17243H9.151H9.12957H9.10814H9.08671H9.06528H9.04385H9.02241H9.00098H8.97955H8.95811H8.93668H8.91525H8.89381H8.87238H8.85095H8.82952H8.80809H8.78666H8.76523H8.74381H8.72238H8.70096H8.67954H8.65812H8.6367H8.61529H8.59388H8.57247H8.55106H8.52966H8.50826H8.48686H8.46547H8.44408H8.42269H8.4013H8.37993H8.35855H8.33718H8.31581H8.29445H8.27309H8.25174H8.23039H8.20905H8.18771H8.16638H8.14505H8.12373H8.10242H8.08111H8.0598H8.03851H8.01722H7.99593H7.97466H7.95339H7.93212H7.91087H7.88962H7.86838H7.84714H7.82592H7.8047H7.78349H7.76229H7.7411H7.71991H7.69873H7.67757H7.65641H7.63526H7.61412H7.59299H7.57187H7.55076H7.52965H7.50856H7.48748H7.46641H7.44535H7.4243H7.40326H7.38223H7.36121H7.34021H7.31921H7.29823H7.27726H7.2563H7.23535H7.21441H7.19349H7.17257H7.15167H7.13079H7.10991H7.08905H7.0682H7.04737H7.02655H7.00574H6.98495H6.96417H6.9434H6.92265H6.90191H6.88119H6.86048H6.83978H6.8191H6.79844H6.77779H6.75715H6.73653H6.71593H6.69534H6.67477H6.65422H6.63368H6.61315H6.59265H6.57216H6.55168H6.53123H6.51079H6.49037H6.46996H6.44958H6.42921H6.40885H6.38852H6.36821H6.34791H6.32763H6.30737H6.28713H6.2669H6.2467H6.22652H6.20635H6.1862H6.16608H6.14597H6.12588H6.10582H6.08577H6.06574H6.04574H6.02575H6.00579H5.98585H5.96592H5.94602H5.92614H5.90628H5.88645H5.86663H5.84684H5.82707H5.80732H5.78759H5.76789H5.74821H5.72855H5.70891H5.6893H5.66971H5.65015H5.6306H5.61109H5.59159H5.57212H5.55267H5.53325H5.51385H5.49448H5.47513H5.45581H5.43651H5.41724H5.39799H5.37877H5.35957H5.3404H5.32126H5.30214H5.28305H5.26398H5.24494H5.22593H5.20694H5.18798H5.16905H5.15014H5.13127H5.11242H5.09359H5.0748H5.05603H5.03729H5.01858H4.9999C4.55557 17.5014 3.80794 17.4883 3.15966 16.8402C2.53935 16.22 2.4984 15.4585 2.49824 15C2.49773 13.5353 2.49775 11.6602 2.49789 10.1513L2.49815 8.25956L2.49826 7.70167L2.4983 7.55158L2.4983 7.51272L2.49831 7.50284L2.49831 7.50035L2.49831 7.49933L2.49831 7.49521L2.49831 7.48227L2.49832 7.43225L2.49833 7.24631L2.49838 6.61579L2.49831 4.99987C2.49822 4.54496 2.53121 3.78752 3.15947 3.15928C3.78768 2.5311 4.54505 2.49805 4.99997 2.49805H6.66504V2.08305C6.66504 1.62189 7.03888 1.24805 7.50004 1.24805ZM11.665 4.16805V4.58305C11.665 5.0442 12.0389 5.41805 12.5 5.41805C12.9612 5.41805 13.335 5.0442 13.335 4.58305V4.16805H15C15.196 4.16805 15.3215 4.17726 15.4237 4.20423C15.5092 4.22679 15.5824 4.26301 15.6595 4.34015C15.7367 4.41729 15.7729 4.49047 15.7955 4.57598C15.8224 4.67823 15.8316 4.80373 15.8316 4.99971V5.00639V5.01307V5.01976V5.02645V5.03315V5.03985V5.04655V5.05326V5.05998V5.0667V5.07342V5.08015V5.08688V5.09362V5.10036V5.1071V5.11385V5.1206V5.12736V5.13412V5.14088V5.14765V5.15442V5.16119V5.16797V5.17475V5.18153V5.18832V5.19511V5.2019V5.2087V5.2155V5.2223V5.2291V5.23591V5.24272V5.24953V5.25635V5.26316V5.26998V5.2768V5.28363V5.29045V5.29728V5.30411V5.31094V5.31778V5.32461V5.33145V5.33829V5.34513V5.35197V5.35881V5.36566V5.3725V5.37935V5.3862V5.39305V5.3999V5.40675V5.4136V5.42045V5.42731V5.43416V5.44102V5.44787V5.45473V5.46158V5.46844V5.47529V5.48215V5.48901V5.49586V5.50272V5.50958V5.51643V5.52329V5.53014V5.537V5.54385V5.5507V5.55756V5.56441V5.57126V5.57811V5.58496V5.59181V5.59866V5.6055V5.61235V5.61919V5.62604V5.63288V5.63972V5.64655V5.65339V5.66023V5.66706V5.67389V5.68072V5.68755V5.69437V5.70119V5.70802V5.71483V5.72165V5.72846V5.73527V5.74208V5.74889V5.75569V5.76249V5.76929V5.77609V5.78288V5.78967V5.79645V5.80323V5.81001V5.81679V5.82356V5.83033V5.8371V5.84386V5.85062V5.85737V5.86412V5.87087V5.87761V5.88435V5.89108V5.89781V5.90454V5.91126V5.91798V5.92469V5.9314V5.9381V5.9448V5.95149V5.95818V5.96487V5.97155V5.97822V5.98489V5.99156V5.99821V6.00487V6.01152V6.01816V6.0248V6.03143V6.03805V6.04467V6.05129V6.0579V6.0645V6.07109V6.07768V6.08427V6.09085V6.09742V6.10398V6.11054V6.11709V6.12364V6.13018V6.13671V6.14324V6.14976V6.15627V6.16277V6.16927V6.17576V6.18224V6.18872V6.19519V6.20165V6.2081V6.21455V6.22098V6.22742V6.23384V6.24025V6.24666V6.25306V6.25945V6.26583V6.27221V6.27857V6.28493V6.29128V6.29762V6.30395V6.31028V6.31659V6.3229V6.32919V6.33548V6.34176V6.34803V6.35429V6.36054V6.36679V6.37302V6.37924V6.38546V6.39166V6.39786V6.40404V6.41022V6.41638V6.42254V6.42869V6.43482V6.44095V6.44706V6.45317V6.45926V6.46535V6.47142V6.47748V6.48354V6.48958V6.49561V6.50163V6.50764V6.51364V6.51963V6.5256V6.53157V6.53752V6.54346V6.5494V6.55531V6.56122V6.56712V6.573V6.57888V6.58474V6.59059V6.59642V6.60225V6.60806V6.61386V6.61965V6.62543V6.63119V6.63694V6.64268V6.64841V6.65412V6.65982V6.66471H4.16837L4.16838 6.61587L4.16831 4.99955C4.16824 4.62117 4.21338 4.4671 4.34031 4.34018C4.46729 4.2132 4.6214 4.16805 4.99997 4.16805H6.66504V4.58305C6.66504 5.0442 7.03888 5.41805 7.50004 5.41805C7.9612 5.41805 8.33504 5.0442 8.33504 4.58305V4.16805H11.665ZM15.8317 8.33471H4.16814L4.16789 10.1514C4.16775 11.6603 4.16773 13.5351 4.16824 14.9994C4.16837 15.3742 4.2185 15.5373 4.3404 15.6592C4.42351 15.7423 4.49689 15.7769 4.57673 15.7976C4.67613 15.8235 4.79686 15.8314 4.9999 15.8314H5.01858H5.03729H5.05603H5.0748H5.09359H5.11242H5.13127H5.15014H5.16905H5.18798H5.20694H5.22593H5.24494H5.26398H5.28305H5.30214H5.32126H5.3404H5.35957H5.37877H5.39799H5.41724H5.43651H5.45581H5.47513H5.49448H5.51385H5.53325H5.55267H5.57212H5.59159H5.61109H5.6306H5.65015H5.66971H5.6893H5.70891H5.72855H5.74821H5.76789H5.78759H5.80732H5.82707H5.84684H5.86663H5.88645H5.90628H5.92614H5.94602H5.96592H5.98585H6.00579H6.02575H6.04574H6.06574H6.08577H6.10582H6.12588H6.14597H6.16608H6.1862H6.20635H6.22652H6.2467H6.2669H6.28713H6.30737H6.32763H6.34791H6.36821H6.38852H6.40885H6.42921H6.44958H6.46996H6.49037H6.51079H6.53123H6.55168H6.57216H6.59265H6.61315H6.63368H6.65422H6.67477H6.69534H6.71593H6.73653H6.75715H6.77779H6.79844H6.8191H6.83978H6.86048H6.88119H6.90191H6.92265H6.9434H6.96417H6.98495H7.00574H7.02655H7.04737H7.0682H7.08905H7.10991H7.13079H7.15167H7.17257H7.19349H7.21441H7.23535H7.2563H7.27726H7.29823H7.31921H7.34021H7.36121H7.38223H7.40326H7.4243H7.44535H7.46641H7.48748H7.50856H7.52965H7.55076H7.57187H7.59299H7.61412H7.63526H7.65641H7.67757H7.69873H7.71991H7.7411H7.76229H7.78349H7.8047H7.82592H7.84714H7.86838H7.88962H7.91087H7.93212H7.95339H7.97466H7.99593H8.01722H8.03851H8.0598H8.08111H8.10242H8.12373H8.14505H8.16638H8.18771H8.20905H8.23039H8.25174H8.27309H8.29445H8.31581H8.33718H8.35855H8.37993H8.4013H8.42269H8.44408H8.46547H8.48686H8.50826H8.52966H8.55106H8.57247H8.59388H8.61529H8.6367H8.65812H8.67954H8.70096H8.72238H8.74381H8.76523H8.78666H8.80809H8.82952H8.85095H8.87238H8.89381H8.91525H8.93668H8.95811H8.97955H9.00098H9.02241H9.04385H9.06528H9.08671H9.10814H9.12957H9.151H9.17243H9.19385H9.21528H9.2367H9.25812H9.27954H9.30096H9.32237H9.34378H9.36519H9.3866H9.408H9.4294H9.4508H9.4722H9.49359H9.51498H9.53636H9.55774H9.57911H9.60049H9.62185H9.64322H9.66457H9.68593H9.70727H9.72862H9.74996H9.77129H9.79261H9.81394H9.83525H9.85656H9.87786H9.89916H9.92045H9.94173H9.96301H9.98428H10.0055H10.0268H10.0481H10.0693H10.0905H10.1118H10.133H10.1542H10.1754H10.1966H10.2178H10.2389H10.2601H10.2813H10.3024H10.3236H10.3447H10.3658H10.3869H10.408H10.4291H10.4502H10.4713H10.4923H10.5134H10.5344H10.5554H10.5765H10.5975H10.6185H10.6395H10.6604H10.6814H10.7023H10.7233H10.7442H10.7651H10.786H10.8069H10.8278H10.8486H10.8695H10.8903H10.9111H10.9319H10.9527H10.9735H10.9943H11.015H11.0358H11.0565H11.0772H11.0979H11.1186H11.1393H11.1599H11.1805H11.2012H11.2218H11.2424H11.2629H11.2835H11.304H11.3245H11.3451H11.3655H11.386H11.4065H11.4269H11.4473H11.4677H11.4881H11.5085H11.5289H11.5492H11.5695H11.5898H11.6101H11.6303H11.6506H11.6708H11.691H11.7112H11.7314H11.7515H11.7716H11.7917H11.8118H11.8319H11.852H11.872H11.892H11.912H11.9319H11.9519H11.9718H11.9917H12.0116H12.0314H12.0513H12.0711H12.0909H12.1107H12.1304H12.1501H12.1699H12.1895H12.2092H12.2288H12.2484H12.268H12.2876H12.3071H12.3267H12.3462H12.3656H12.3851H12.4045H12.4239H12.4433H12.4626H12.4819H12.5012H12.5205H12.5398H12.559H12.5782H12.5974H12.6165H12.6356H12.6547H12.6738H12.6928H12.7118H12.7308H12.7498H12.7687H12.7876H12.8065H12.8254H12.8442H12.863H12.8817H12.9005H12.9192H12.9379H12.9565H12.9752H12.9938H13.0123H13.0309H13.0494H13.0679H13.0863H13.1047H13.1231H13.1415H13.1598H13.1781H13.1964H13.2146H13.2328H13.251H13.2691H13.2873H13.3053H13.3234H13.3414H13.3594H13.3774H13.3953H13.4132H13.431H13.4489H13.4667H13.4844H13.5021H13.5198H13.5375H13.5551H13.5727H13.5903H13.6078H13.6253H13.6428H13.6602H13.6776H13.6949H13.7122H13.7295H13.7468H13.764H13.7812H13.7983H13.8154H13.8325H13.8495H13.8665H13.8835H13.9004H13.9173H13.9342H13.951H13.9678H13.9845H14.0012H14.0179H14.0345H14.0511H14.0677H14.0842H14.1007H14.1171H14.1335H14.1499H14.1662H14.1825H14.1987H14.215H14.2311H14.2473H14.2633H14.2794H14.2954H14.3114H14.3273H14.3432H14.359H14.3748H14.3906H14.4063H14.422H14.4377H14.4533H14.4688H14.4844H14.4998H14.5153H14.5307H14.546H14.5613H14.5766H14.5918H14.607H14.6221H14.6372H14.6523H14.6673H14.6822H14.6972H14.712H14.7269H14.7416H14.7564H14.7711H14.7857H14.8004H14.8149H14.8294H14.8439H14.8583H14.8727H14.8871H14.9013H14.9156H14.9298H14.9439H14.958H14.9721H14.9861H15.0001C15.3755 15.8314 15.5364 15.7825 15.6597 15.6592C15.7829 15.5361 15.8317 15.3752 15.8317 14.9997L15.8317 10.1514L15.8317 8.33471Z" fill="currentColor"/>
</svg>
