<svg width="20" height="20" viewBox="0 0 20 20" fill="none" xmlns="http://www.w3.org/2000/svg">
<path fill-rule="evenodd" clip-rule="evenodd" d="M7.50004 1.24805C7.9612 1.24805 8.33504 1.62189 8.33504 2.08305V2.49799L11.665 2.49804V2.08305C11.665 1.62189 12.0389 1.24805 12.5 1.24805C12.9612 1.24805 13.335 1.62189 13.335 2.08305V2.49806L15.0001 2.49808C15.45 2.4981 16.2028 2.52168 16.8405 3.15932C17.4782 3.79699 17.5017 4.54987 17.5017 4.99975V5.00547V5.01121V5.01696V5.02273V5.0285V5.03429V5.04009V5.0459V5.05173V5.05756V5.06341V5.06927V5.07514V5.08102V5.08691V5.09282V5.09873V5.10466V5.11059V5.11654V5.1225V5.12847V5.13445V5.14044V5.14644V5.15245V5.15847V5.1645V5.17054V5.17659V5.18265V5.18871V5.19479V5.20088V5.20698V5.21309V5.2192V5.22533V5.23146V5.23761V5.24376V5.24992V5.25609V5.26227V5.26845V5.27465V5.28085V5.28706V5.29328V5.29951V5.30574V5.31199V5.31824V5.32449V5.33076V5.33703V5.34331V5.3496V5.3559V5.3622V5.36851V5.37483V5.38115V5.38748V5.39381V5.40016V5.40651V5.41286V5.41922V5.42559V5.43196V5.43834V5.44473V5.45112V5.45752V5.46392V5.47033V5.47674V5.48316V5.48958V5.49601V5.50245V5.50889V5.51533V5.52178V5.52823V5.53469V5.54115V5.54762V5.55409V5.56057V5.56704V5.57353V5.58002V5.58651V5.593V5.5995V5.606V5.61251V5.61902V5.62553V5.63204V5.63856V5.64508V5.65161V5.65813V5.66466V5.6712V5.67773V5.68427V5.69081V5.69735V5.7039V5.71044V5.71699V5.72354V5.73009V5.73665V5.7432V5.74976V5.75631V5.76287V5.76943V5.776V5.78256V5.78912V5.79569V5.80225V5.80882V5.81539V5.82195V5.82852V5.83509V5.84166V5.84823V5.85479V5.86136V5.86793V5.8745V5.88106V5.88763V5.8942V5.90076V5.90733V5.91389V5.92046V5.92702V5.93358V5.94014V5.9467V5.95326V5.95981V5.96637V5.97292V5.97947V5.98602V5.99257V5.99911V6.00566V6.0122V6.01874V6.02527V6.03181V6.03834V6.04487V6.0514V6.05792V6.06444V6.07096V6.07747V6.08398V6.09049V6.09699V6.10349V6.10999V6.11649V6.12297V6.12946V6.13594V6.14242V6.14889V6.15536V6.16183V6.16829V6.17475V6.1812V6.18764V6.19409V6.20052V6.20696V6.21338V6.21981V6.22622V6.23263V6.23904V6.24544V6.25184V6.25823V6.26461V6.27099V6.27736V6.28372V6.29008V6.29644V6.30278V6.30912V6.31546V6.32178V6.3281V6.33442V6.34072V6.34702V6.35332V6.3596V6.36588V6.37215V6.37841V6.38467V6.39092V6.39716V6.40339V6.40961V6.41583V6.42204V6.42824V6.43443V6.44061V6.44679V6.45296V6.45911V6.46526V6.4714V6.47753V6.48365V6.48977V6.49587V6.50197V6.50805V6.51413V6.52019V6.52625V6.53229V6.53833V6.54436V6.55037V6.55638V6.56238V6.56836V6.57434V6.5803V6.58626V6.5922V6.59813V6.60405V6.60996V6.61586V6.62175V6.62763V6.6335V6.63935V6.64519V6.65102V6.65684V6.66265V6.66845V6.67423V6.68V6.68576V6.69151V6.69724V6.70297V6.70868V6.71437V6.72006V6.72573V6.73139V6.73703V6.74267V6.74828V6.75389V6.75948V6.76506V6.77063V6.77618V6.78172V6.78724V6.79275V6.79825V6.80373V6.8092V6.81465V6.82009V6.82552V6.83093V6.83632V6.8417V6.84707V6.85242V6.85775V6.86307V6.86838V6.87367V6.87894V6.8842V6.88945V6.89467V6.89988V6.90508V6.91026V6.91542V6.92057V6.9257V6.93082V6.93592V6.941V6.94606V6.95111V6.95614V6.96116V6.96616V6.97114V6.9761V6.98105V6.98598V6.99089V6.99578V7.00066V7.00552V7.01036V7.01518V7.01999V7.02477V7.02954V7.03429V7.03902V7.04374V7.04843V7.05311V7.05776V7.0624V7.06702V7.07162V7.0762V7.08077V7.08531V7.08983V7.09434V7.09882V7.10328V7.10773V7.11215V7.11656V7.12094V7.12531V7.12965V7.13398V7.13828V7.14256V7.14683V7.15107V7.15529V7.15949V7.16367V7.16783V7.17196V7.17608V7.18017V7.18425V7.1883V7.19233V7.19633V7.20032V7.20428V7.20823V7.21215V7.21604V7.21992V7.22377V7.2276V7.23141V7.2352V7.23896V7.2427V7.24642V7.25011V7.25378V7.25743V7.26105V7.26465V7.26823V7.27179V7.27532V7.27882V7.2823V7.28576V7.2892V7.29261V7.29599V7.29936V7.30269V7.30601V7.3093V7.31256V7.3158V7.31901V7.3222V7.32537V7.3285V7.33162V7.33471V7.33777V7.34081V7.34382V7.3468V7.34976V7.3527V7.35561V7.35849V7.36134V7.36417V7.36698V7.36975V7.37251V7.37523V7.37793V7.3806V7.38324V7.38586V7.38845V7.39101V7.39354V7.39605V7.39853V7.40098V7.40341V7.4058V7.40817V7.41051V7.41283V7.41511V7.41737V7.4196V7.4218V7.42397V7.42611V7.42823V7.43031V7.43237V7.4344V7.4364V7.43837V7.44031V7.44222V7.4441V7.44595V7.44777V7.44957V7.45133V7.45306V7.45477V7.45644V7.45808V7.4597V7.46128V7.46283V7.46435V7.46584V7.4673V7.46873V7.47013V7.4715V7.47284V7.47414V7.47541V7.47666V7.47787V7.47905V7.4802V7.48131V7.4824V7.48345V7.48447V7.48642V7.48823V7.48992V7.49147V7.4929V7.49419V7.49535V7.49637V7.49766V7.4989C17.5017 7.96006 17.1279 8.33475 16.6667 8.33475H4.16851L4.16866 10.1514C4.16874 11.6603 4.16874 13.5354 4.16841 15C4.16833 15.3604 4.23583 15.5547 4.3405 15.6594C4.44499 15.7639 4.63916 15.8314 5.00011 15.8314L6.61618 15.8314L7.24672 15.8314L7.43267 15.8314L7.4827 15.8314L7.49565 15.8314H7.49894H7.49998C7.96113 15.8314 8.33506 16.2052 8.33508 16.6664C8.3351 17.1275 7.96127 17.5014 7.50009 17.5014H7.499H7.49571H7.48276L7.43273 17.5014L7.24677 17.5014L6.61621 17.5014L5.00005 17.5014C4.52748 17.5014 3.75194 17.4327 3.15947 16.8401C2.56718 16.2476 2.49831 15.4725 2.49841 14.9996C2.49874 13.5352 2.49874 11.6603 2.49866 10.1515L2.4985 8.25983L2.49844 7.70199L2.49842 7.55191L2.49842 7.51307L2.49841 7.50319V7.49963V7.49854V7.49525L2.49842 7.4823L2.49842 7.43228L2.49844 7.24634L2.49848 6.61583L2.49841 4.99991C2.49833 4.53325 2.55444 3.76455 3.1595 3.15936C3.76466 2.55407 4.53367 2.49807 5.00003 2.49804L6.66504 2.49801V2.08305C6.66504 1.62189 7.03888 1.24805 7.50004 1.24805ZM2.49841 7.50319V7.5007V7.49963V7.50319ZM11.665 4.16804V4.58305C11.665 5.0442 12.0389 5.41805 12.5 5.41805C12.9612 5.41805 13.335 5.0442 13.335 4.58305V4.16806L15 4.16808C15.1959 4.16809 15.3215 4.17733 15.4238 4.20432C15.5094 4.22691 15.5826 4.26316 15.6597 4.34021C15.7367 4.41725 15.7729 4.49043 15.7955 4.57602C15.8225 4.6783 15.8317 4.80387 15.8317 4.99975V5.00547V5.01121V5.01696V5.02273V5.0285V5.03429V5.04009V5.0459V5.05173V5.05756V5.06341V5.06927V5.07514V5.08102V5.08691V5.09282V5.09873V5.10466V5.11059V5.11654V5.1225V5.12847V5.13445V5.14044V5.14644V5.15245V5.15847V5.1645V5.17054V5.17659V5.18265V5.18871V5.19479V5.20088V5.20698V5.21309V5.2192V5.22533V5.23146V5.23761V5.24376V5.24992V5.25609V5.26227V5.26845V5.27465V5.28085V5.28706V5.29328V5.29951V5.30574V5.31199V5.31824V5.32449V5.33076V5.33703V5.34331V5.3496V5.3559V5.3622V5.36851V5.37483V5.38115V5.38748V5.39381V5.40016V5.40651V5.41286V5.41922V5.42559V5.43196V5.43834V5.44473V5.45112V5.45752V5.46392V5.47033V5.47674V5.48316V5.48958V5.49601V5.50245V5.50889V5.51533V5.52178V5.52823V5.53469V5.54115V5.54762V5.55409V5.56057V5.56704V5.57353V5.58002V5.58651V5.593V5.5995V5.606V5.61251V5.61902V5.62553V5.63204V5.63856V5.64508V5.65161V5.65813V5.66466V5.6712V5.67773V5.68427V5.69081V5.69735V5.7039V5.71044V5.71699V5.72354V5.73009V5.73665V5.7432V5.74976V5.75631V5.76287V5.76943V5.776V5.78256V5.78912V5.79569V5.80225V5.80882V5.81539V5.82195V5.82852V5.83509V5.84166V5.84823V5.85479V5.86136V5.86793V5.8745V5.88106V5.88763V5.8942V5.90076V5.90733V5.91389V5.92046V5.92702V5.93358V5.94014V5.9467V5.95326V5.95981V5.96637V5.97292V5.97947V5.98602V5.99257V5.99911V6.00566V6.0122V6.01874V6.02527V6.03181V6.03834V6.04487V6.0514V6.05792V6.06444V6.07096V6.07747V6.08398V6.09049V6.09699V6.10349V6.10999V6.11649V6.12297V6.12946V6.13594V6.14242V6.14889V6.15536V6.16183V6.16829V6.17475V6.1812V6.18764V6.19409V6.20052V6.20696V6.21338V6.21981V6.22622V6.23263V6.23904V6.24544V6.25184V6.25823V6.26461V6.27099V6.27736V6.28372V6.29008V6.29644V6.30278V6.30912V6.31546V6.32178V6.3281V6.33442V6.34072V6.34702V6.35332V6.3596V6.36588V6.37215V6.37841V6.38467V6.39092V6.39716V6.40339V6.40961V6.41583V6.42204V6.42824V6.43443V6.44061V6.44679V6.45296V6.45911V6.46526V6.4714V6.47753V6.48365V6.48977V6.49587V6.50197V6.50805V6.51413V6.52019V6.52625V6.53229V6.53833V6.54436V6.55037V6.55638V6.56238V6.56836V6.57434V6.5803V6.58626V6.5922V6.59813V6.60405V6.60996V6.61586V6.62175V6.62763V6.6335V6.63935V6.64519V6.65102V6.65684V6.66265V6.66475H4.16848L4.16848 6.6159L4.16841 4.9996C4.16834 4.63288 4.22789 4.45273 4.3405 4.3401C4.45295 4.22763 4.63296 4.16806 5.0001 4.16804L6.66504 4.16801V4.58305C6.66504 5.0442 7.03888 5.41805 7.50004 5.41805C7.9612 5.41805 8.33504 5.0442 8.33504 4.58305V4.16799L11.665 4.16804ZM13.75 10.8347C12.1401 10.8347 10.835 12.1398 10.835 13.7497C10.835 15.3596 12.1401 16.6647 13.75 16.6647C15.3599 16.6647 16.665 15.3596 16.665 13.7497C16.665 12.1398 15.3599 10.8347 13.75 10.8347ZM9.16504 13.7497C9.16504 11.2175 11.2178 9.16473 13.75 9.16473C16.2823 9.16473 18.335 11.2175 18.335 13.7497C18.335 16.282 16.2823 18.3347 13.75 18.3347C11.2178 18.3347 9.16504 16.282 9.16504 13.7497ZM13.3334 11.8347C13.7007 11.8347 13.9984 12.1325 13.9984 12.4997V13.6871L14.7937 13.9522C15.1421 14.0683 15.3304 14.4449 15.2143 14.7934C15.0981 15.1418 14.7215 15.3301 14.3731 15.2139L13.1231 14.7973C12.8516 14.7068 12.6684 14.4526 12.6684 14.1664V12.4997C12.6684 12.1325 12.9661 11.8347 13.3334 11.8347Z" fill="currentColor"/>
</svg>
