<svg xmlns="http://www.w3.org/2000/svg" width="20" height="20" viewBox="0 0 20 20" fill="none">
  <path fill-rule="evenodd" clip-rule="evenodd" d="M10.0001 18.3333C14.6025 18.3333 18.3334 14.6024 18.3334 9.99999C18.3334 5.39762 14.6025 1.66666 10.0001 1.66666C5.39771 1.66666 1.66675 5.39762 1.66675 9.99999C1.66675 14.6024 5.39771 18.3333 10.0001 18.3333ZM14.0199 7.97529C14.2824 7.59613 14.1879 7.07596 13.8087 6.81347C13.4295 6.55097 12.9094 6.64555 12.6469 7.02471L9.42388 11.6802L7.21016 9.78269C6.86002 9.48257 6.33289 9.52312 6.03277 9.87326C5.73265 10.2234 5.7732 10.7505 6.12334 11.0506L9.04 13.5506C9.2195 13.7045 9.4558 13.7751 9.69026 13.7448C9.92473 13.7146 10.1354 13.5863 10.2699 13.392L14.0199 7.97529Z" fill="#00B050"/>
</svg>