<svg width="12" height="12" viewBox="0 0 12 12" fill="none" xmlns="http://www.w3.org/2000/svg">
<path fill-rule="evenodd" clip-rule="evenodd" d="M1.46967 6.06952C1.76256 5.77663 2.23744 5.77663 2.53033 6.06952L4.93032 8.46951C5.22321 8.76241 5.22321 9.23728 4.93032 9.53017C4.63743 9.82307 4.16255 9.82307 3.86966 9.53017L1.46967 7.13018C1.17678 6.83729 1.17678 6.36242 1.46967 6.06952Z" fill="white"/>
<path fill-rule="evenodd" clip-rule="evenodd" d="M10.5303 2.86957C10.8232 3.16247 10.8232 3.63734 10.5303 3.93023L4.93032 9.53017C4.63743 9.82307 4.16255 9.82307 3.86966 9.53017C3.57677 9.23728 3.57669 8.76256 3.86958 8.46966L9.46967 2.86957C9.76256 2.57668 10.2374 2.57668 10.5303 2.86957Z" fill="white"/>
</svg>
