<svg width="20" height="20" viewBox="0 0 20 20" fill="none" xmlns="http://www.w3.org/2000/svg">
<path fill-rule="evenodd" clip-rule="evenodd" d="M15.5905 5.59047C15.9166 5.26439 15.9166 4.73569 15.5905 4.4096C15.2644 4.08352 14.7357 4.08352 14.4096 4.4096L10 8.81917L5.59047 4.4096C5.26439 4.08352 4.73569 4.08352 4.4096 4.4096C4.08352 4.73569 4.08352 5.26439 4.4096 5.59047L8.81917 10L4.4096 14.4096C4.08352 14.7357 4.08352 15.2644 4.4096 15.5905C4.73569 15.9166 5.26439 15.9166 5.59047 15.5905L10 11.1809L14.4096 15.5905C14.7357 15.9166 15.2644 15.9166 15.5905 15.5905C15.9166 15.2644 15.9166 14.7357 15.5905 14.4096L11.1809 10L15.5905 5.59047Z" fill="currentColor"/>
</svg>
