<svg xmlns="http://www.w3.org/2000/svg" width="16" height="16" viewBox="0 0 16 16" fill="#3D3D42">
  <path fill-rule="evenodd" clip-rule="evenodd" d="M12.4702 4.47023C12.7299 4.21053 12.7299 3.78948 12.4702 3.52978C12.2106 3.27008 11.7895 3.27008 11.5298 3.52978L8.00002 7.05956L4.47025 3.52978C4.21055 3.27008 3.78949 3.27008 3.5298 3.52978C3.2701 3.78948 3.2701 4.21053 3.5298 4.47023L7.05957 8.00001L3.5298 11.5298C3.2701 11.7895 3.2701 12.2105 3.5298 12.4702C3.78949 12.7299 4.21055 12.7299 4.47025 12.4702L8.00002 8.94046L11.5298 12.4702C11.7895 12.7299 12.2106 12.7299 12.4702 12.4702C12.7299 12.2105 12.7299 11.7895 12.4702 11.5298L8.94047 8.00001L12.4702 4.47023Z" fill="#3D3D42"/>
</svg>