<svg width="20" height="20" viewBox="0 0 20 20" fill="none" xmlns="http://www.w3.org/2000/svg">
  <g>
    <path
      fill-rule="evenodd"
      clip-rule="evenodd"
      fill="currentColor"
      d="M7.74532 3.57863C7.90128 3.42266 8.11282 3.33504 8.33339 3.33504H11.6667C11.8873
        3.33504 12.0988 3.42266 12.2548 3.57863C12.4108 3.7346 12.4984 3.94613 12.4984
        4.16671V4.99841H7.50173V4.16671C7.50173 3.94613 7.58935 3.7346 7.74532 3.57863ZM5.83173
        4.99841V4.16671C5.83173 3.50322 6.09529 2.86691 6.56445 2.39776C7.0336 1.92861 7.66991
        1.66504 8.33339 1.66504H11.6667C12.3302 1.66504 12.9665 1.92861 13.4357 2.39776C13.9048
        2.86691 14.1684 3.50322 14.1684 4.16671V4.99841H15.8251L15.8334 4.99837L15.8417
        4.99841H17.5C17.9612 4.99841 18.335 5.37225 18.335 5.83341C18.335 6.29457 17.9612
        6.66841 17.5 6.66841H16.6684V15.8334C16.6684 16.4969 16.4048 17.1332 15.9357
        17.6023C15.4665 18.0715 14.8302 18.335 14.1667 18.335H5.83339C5.16991 18.335 4.5336
        18.0715 4.06445 17.6023C3.59529 17.1332 3.33173 16.4969 3.33173
        15.8334V6.66841H2.50004C2.03888 6.66841 1.66504 6.29457 1.66504 5.83341C1.66504 5.37225
        2.03888 4.99841 2.50004 4.99841H4.15839L4.16673 4.99837L4.17506 4.99841H5.83173ZM5.00173
        6.66841V15.8334C5.00173 16.0539 5.08935 16.2655 5.24532 16.4214C5.40128 16.5774 5.61282
        16.665 5.83339 16.665H14.1667C14.3873 16.665 14.5988 16.5774 14.7548 16.4214C14.9108
        16.2655 14.998416.0539 14.9984 15.8334V6.66841H5.00173ZM8.33335 8.33166C8.79451 8.33166
        9.16835 8.70551 9.16835 9.16666V14.1667C9.16835 14.6278 8.79451 15.0017 8.33335
        15.0017C7.87219 15.0017 7.49835 14.6278 7.49835 14.1667V9.16666C7.49835 8.70551 7.87219
        8.33166 8.33335 8.33166ZM12.5017 9.16666C12.5017 8.70551 12.1279 8.33166 11.6667
        8.33166C11.2056 8.33166 10.8317 8.70551 10.8317 9.16666V14.1667C10.8317 14.6278 11.2056
        15.0017 11.6667 15.0017C12.1279 15.0017 12.5017 14.6278 12.5017 14.1667V9.16666Z"/>
  </g>
</svg>
