<svg width="20" height="20" viewBox="0 0 20 20" fill="none" xmlns="http://www.w3.org/2000/svg">
<path fill-rule="evenodd" clip-rule="evenodd" d="M9.99999 1.66659C14.6024 1.66659 18.3333 5.39755 18.3333 9.99992C18.3333 14.6023 14.6024 18.3333 9.99999 18.3333C5.39762 18.3333 1.66666 14.6023 1.66666 9.99992C1.66666 5.39755 5.39762 1.66659 9.99999 1.66659ZM6.90957 11.9095C6.58349 12.2356 6.58349 12.7643 6.90957 13.0904C7.23566 13.4165 7.76435 13.4165 8.09044 13.0904L10 11.1808L11.9096 13.0904C12.2357 13.4165 12.7644 13.4165 13.0904 13.0904C13.4165 12.7643 13.4165 12.2356 13.0904 11.9095L11.1809 9.99996L13.0904 8.09039C13.4165 7.76431 13.4165 7.23561 13.0904 6.90953C12.7644 6.58344 12.2357 6.58344 11.9096 6.90953L10 8.81909L8.09044 6.90953C7.76435 6.58344 7.23566 6.58344 6.90957 6.90953C6.58349 7.23561 6.58349 7.76431 6.90957 8.09039L8.81914 9.99996L6.90957 11.9095Z" fill="#D63C42"/>
</svg>
