<svg xmlns="http://www.w3.org/2000/svg" width="20" height="20" viewBox="0 0 20 20" fill="none">
  <path fill-rule="evenodd" clip-rule="evenodd" d="M18.3333 10C18.3333 14.6024 14.6024 18.3333 10 18.3333C5.39763 18.3333 1.66667 14.6024 1.66667 10C1.66667 5.39763 5.39763 1.66667 10 1.66667C14.6024 1.66667 18.3333 5.39763 18.3333 10ZM10 5C9.53976 5 9.16667 5.3731 9.16667 5.83333C9.16667 6.29357 9.53976 6.66667 10 6.66667H10.0083C10.4686 6.66667 10.8417 6.29357 10.8417 5.83333C10.8417 5.3731 10.4686 5 10.0083 5H10ZM10.8333 8.75C10.8333 8.28976 10.4602 7.91667 10 7.91667C9.53976 7.91667 9.16667 8.28976 9.16667 8.75V14.5833C9.16667 15.0436 9.53976 15.4167 10 15.4167C10.4602 15.4167 10.8333 15.0436 10.8333 14.5833V8.75Z" fill="#4067E5"/>
</svg>