<svg width="20" height="20" viewBox="0 0 20 20" fill="none" xmlns="http://www.w3.org/2000/svg">
<path fill-rule="evenodd" clip-rule="evenodd" d="M9.99999 3.33335C6.31809 3.33335 3.33332 6.31812 3.33332 10C3.33332 13.6819 6.31809 16.6667 9.99999 16.6667C13.6819 16.6667 16.6667 13.6819 16.6667 10C16.6667 6.31812 13.6819 3.33335 9.99999 3.33335ZM1.66666 10C1.66666 5.39765 5.39762 1.66669 9.99999 1.66669C14.6024 1.66669 18.3333 5.39765 18.3333 10C18.3333 14.6024 14.6024 18.3334 9.99999 18.3334C5.39762 18.3334 1.66666 14.6024 1.66666 10ZM9.16666 5.83335C9.16666 5.37312 9.53975 5.00002 9.99999 5.00002H10.0083C10.4686 5.00002 10.8417 5.37312 10.8417 5.83335C10.8417 6.29359 10.4686 6.66669 10.0083 6.66669H9.99999C9.53975 6.66669 9.16666 6.29359 9.16666 5.83335ZM9.99999 7.91669C10.4602 7.91669 10.8333 8.28978 10.8333 8.75002V14.1667C10.8333 14.6269 10.4602 15 9.99999 15C9.53975 15 9.16666 14.6269 9.16666 14.1667V8.75002C9.16666 8.28978 9.53975 7.91669 9.99999 7.91669Z" fill="currentColor"/>
</svg>
