<svg width="20" height="20" viewBox="0 0 20 20" fill="none" xmlns="http://www.w3.org/2000/svg">
<path fill-rule="evenodd" clip-rule="evenodd" d="M10 2C5.58172 2 2 5.58172 2 10C2 14.4183 5.58172 18 10 18C14.4183 18 18 14.4183 18 10C18 5.58172 14.4183 2 10 2ZM0 10C0 4.47715 4.47715 0 10 0C15.5228 0 20 4.47715 20 10C20 15.5228 15.5228 20 10 20C4.47715 20 0 15.5228 0 10ZM9 5C9 4.44772 9.44771 4 10 4H10.01C10.5623 4 11.01 4.44772 11.01 5C11.01 5.55228 10.5623 6 10.01 6H10C9.44771 6 9 5.55228 9 5ZM10 7.5C10.5523 7.5 11 7.94772 11 8.5V15C11 15.5523 10.5523 16 10 16C9.44771 16 9 15.5523 9 15V8.5C9 7.94772 9.44771 7.5 10 7.5Z" fill="white"/>
</svg>