<svg xmlns="http://www.w3.org/2000/svg" width="24" height="24" viewBox="0 0 24 24" fill="none">
  <path fill-rule="evenodd" clip-rule="evenodd" d="M12 4C7.58172 4 4 7.58172 4 12C4 16.4183 7.58172 20 12 20C16.4183 20 20 16.4183 20 12C20 7.58172 16.4183 4 12 4ZM2 12C2 6.47715 6.47715 2 12 2C17.5228 2 22 6.47715 22 12C22 17.5228 17.5228 22 12 22C6.47715 22 2 17.5228 2 12ZM11 7C11 6.44772 11.4477 6 12 6H12.01C12.5623 6 13.01 6.44772 13.01 7C13.01 7.55228 12.5623 8 12.01 8H12C11.4477 8 11 7.55228 11 7ZM12 9.5C12.5523 9.5 13 9.94772 13 10.5V17C13 17.5523 12.5523 18 12 18C11.4477 18 11 17.5523 11 17V10.5C11 9.94772 11.4477 9.5 12 9.5Z" fill="currentColor"/>
</svg>