<svg xmlns="http://www.w3.org/2000/svg" width="20" height="20" viewBox="0 0 20 20" fill="none">
  <path fill-rule="evenodd" clip-rule="evenodd" d="M9.99998 3.335C7.48529 3.335 5.41831 5.41952 5.41831 8.02632C5.41831 9.29692 5.91042 10.4457 6.70798 11.2891C7.03904 11.6392 7.38645 12.0436 7.68712 12.4983H12.3128C12.6135 12.0436 12.9609 11.6392 13.292 11.2891C14.0895 10.4457 14.5816 9.29692 14.5816 8.02632C14.5816 5.41952 12.5147 3.335 9.99998 3.335ZM11.5761 14.1683H8.42385C8.48147 14.4316 8.51355 14.705 8.51355 14.9882V15.1786C8.51355 15.9995 9.17902 16.665 9.99998 16.665C10.8209 16.665 11.4864 15.9995 11.4864 15.1786V14.9882C11.4864 14.705 11.5185 14.4316 11.5761 14.1683ZM3.74831 8.02632C3.74831 4.52891 6.53158 1.665 9.99998 1.665C13.4684 1.665 16.2516 4.52891 16.2516 8.02632C16.2516 9.73602 15.5876 11.2921 14.5054 12.4365C13.701 13.2872 13.1564 14.1284 13.1564 14.9882V15.1786C13.1564 16.9219 11.7432 18.335 9.99998 18.335C8.25677 18.335 6.84355 16.9219 6.84355 15.1786V14.9882C6.84355 14.1284 6.29893 13.2872 5.49457 12.4365C4.4124 11.2921 3.74831 9.73602 3.74831 8.02632Z" fill="#4067E5"/>
</svg>