<svg width="20" height="20" viewBox="0 0 20 20" fill="none" xmlns="http://www.w3.org/2000/svg">
<path fill-rule="evenodd" clip-rule="evenodd" d="M10 6.24794C10.4612 6.24794 10.835 6.62179 10.835 7.08294V10.4163C10.835 10.8774 10.4612 11.2513 10 11.2513C9.53884 11.2513 9.165 10.8774 9.165 10.4163V7.08294C9.165 6.62179 9.53884 6.24794 10 6.24794Z" fill="currentColor"/>
<path d="M10.8333 13.3329C10.8333 13.7932 10.4602 14.1663 9.99996 14.1663C9.53972 14.1663 9.16663 13.7932 9.16663 13.3329C9.16663 12.8727 9.53972 12.4996 9.99996 12.4996C10.4602 12.4996 10.8333 12.8727 10.8333 13.3329Z" fill="currentColor"/>
<path d="M9.99985 2.49961C9.99985 2.03937 10.3739 1.66195 10.8318 1.7079C12.5155 1.87681 14.1152 2.55542 15.4119 3.66289C16.9207 4.95152 17.9202 6.73622 18.2306 8.69599C18.541 10.6558 18.1419 12.662 17.1052 14.3538C16.0684 16.0456 14.4621 17.3119 12.575 17.9251C10.6879 18.5382 8.64398 18.4579 6.81082 17.6986C4.97767 16.9393 3.4756 15.5508 2.57479 13.7829C1.67399 12.0149 1.43357 9.9836 1.89677 8.05423C2.29485 6.39609 3.19018 4.90679 4.453 3.78051C4.79648 3.47417 5.32094 3.55964 5.59146 3.93198C5.86198 4.30432 5.7751 4.82197 5.43939 5.13681C4.49395 6.02345 3.82277 7.17128 3.51738 8.44331C3.14682 9.9868 3.33916 11.6119 4.05981 13.0262C4.78045 14.4406 5.9821 15.5514 7.44863 16.1588C8.91515 16.7663 10.5503 16.8305 12.06 16.34C13.5696 15.8495 14.8547 14.8364 15.6841 13.4829C16.5135 12.1295 16.8328 10.5245 16.5844 8.95671C16.3361 7.3889 15.5365 5.96114 14.3295 4.93024C13.3348 4.08064 12.1171 3.54654 10.8311 3.38495C10.3744 3.32757 9.99985 2.95985 9.99985 2.49961Z" fill="currentColor"/>
<path fill-rule="evenodd" clip-rule="evenodd" d="M5.69035 2.84312C6.15151 2.84312 6.52535 3.21696 6.52535 3.67812V6.03514C6.52535 6.4963 6.15151 6.87014 5.69035 6.87014C5.22919 6.87014 4.85535 6.4963 4.85535 6.03514V4.51312L3.33333 4.51312C2.87217 4.51312 2.49833 4.13928 2.49833 3.67812C2.49833 3.21696 2.87217 2.84312 3.33333 2.84312H5.69035Z" fill="currentColor"/>
</svg>
