
<svg width="20" height="20" viewBox="0 0 20 20" fill="none" xmlns="http://www.w3.org/2000/svg">
<path fill-rule="evenodd" clip-rule="evenodd" d="M10 2C5.58172 2 2 5.58172 2 10C2 14.4183 5.58172 18 10 18C14.4183 18 18 14.4183 18 10C18 5.58172 14.4183 2 10 2ZM0 10C0 4.47715 4.47715 0 10 0C15.5228 0 20 4.47715 20 10C20 15.5228 15.5228 20 10 20C4.47715 20 0 15.5228 0 10ZM14.5692 6.17781C15.0233 6.49217 15.1366 7.11513 14.8222 7.56921L10.3222 14.0692C10.161 14.302 9.90876 14.4556 9.62796 14.4918C9.34717 14.528 9.06417 14.4435 8.84921 14.2593L5.34921 11.2593C4.92988 10.8998 4.88132 10.2685 5.24074 9.84921C5.60017 9.42988 6.23147 9.38132 6.65079 9.74074L9.30894 12.0192L13.1778 6.43079C13.4922 5.97671 14.1151 5.86344 14.5692 6.17781Z" fill="white"/>
</svg>