<svg xmlns="http://www.w3.org/2000/svg" width="24" height="24" viewBox="0 0 24 24" fill="none">
  <path fill-rule="evenodd" clip-rule="evenodd" d="M12 4C7.58172 4 4 7.58172 4 12C4 16.4183 7.58172 20 12 20C16.4183 20 20 16.4183 20 12C20 7.58172 16.4183 4 12 4ZM2 12C2 6.47715 6.47715 2 12 2C17.5228 2 22 6.47715 22 12C22 17.5228 17.5228 22 12 22C6.47715 22 2 17.5228 2 12ZM16.5692 8.17781C17.0233 8.49217 17.1366 9.11513 16.8222 9.56921L12.3222 16.0692C12.161 16.302 11.9088 16.4556 11.628 16.4918C11.3472 16.528 11.0642 16.4435 10.8492 16.2593L7.34921 13.2593C6.92988 12.8998 6.88132 12.2685 7.24074 11.8492C7.60017 11.4299 8.23147 11.3813 8.65079 11.7407L11.3089 14.0192L15.1778 8.43079C15.4922 7.97671 16.1151 7.86344 16.5692 8.17781Z" fill="currentColor"/>
</svg>