<svg xmlns="http://www.w3.org/2000/svg" width="24" height="24" viewBox="0 0 24 24" fill="none">
  <path fill-rule="evenodd" clip-rule="evenodd" d="M12 4C8.98123 4 6.5 6.50236 6.5 9.63158C6.5 11.1568 7.09074 12.5358 8.04815 13.5483C8.44562 13.9686 8.86265 14.4541 9.22349 15H14.7765C15.1373 14.4541 15.5544 13.9686 15.9518 13.5483C16.9093 12.5358 17.5 11.1568 17.5 9.63158C17.5 6.50236 15.0188 4 12 4ZM13.8938 17H10.1062C10.1756 17.3165 10.2143 17.6453 10.2143 17.9859V18.2144C10.2143 19.2006 11.0137 20 12 20C12.9863 20 13.7857 19.2006 13.7857 18.2144V17.9859C13.7857 17.6453 13.8244 17.3165 13.8938 17ZM4.5 9.63158C4.5 5.43576 7.83907 2 12 2C16.1609 2 19.5 5.43576 19.5 9.63158C19.5 11.6827 18.7033 13.5495 17.405 14.9224C16.4398 15.9433 15.7857 16.9532 15.7857 17.9859V18.2144C15.7857 20.3052 14.0908 22 12 22C9.90925 22 8.21429 20.3052 8.21429 18.2144V17.9859C8.21429 16.9532 7.56025 15.9433 6.59496 14.9224C5.29669 13.5495 4.5 11.6827 4.5 9.63158Z" fill="currentColor"/>
</svg>