
<svg width="16" height="20" viewBox="0 0 16 20" fill="none" xmlns="http://www.w3.org/2000/svg">
<path fill-rule="evenodd" clip-rule="evenodd" d="M8 2C4.98123 2 2.5 4.50236 2.5 7.63158C2.5 9.15683 3.09074 10.5358 4.04815 11.5483C4.44562 11.9686 4.86265 12.4541 5.22349 13H10.7765C11.1373 12.4541 11.5544 11.9686 11.9518 11.5483C12.9093 10.5358 13.5 9.15683 13.5 7.63158C13.5 4.50236 11.0188 2 8 2ZM9.89384 15H6.10616C6.17561 15.3165 6.21429 15.6453 6.21429 15.9859V16.2144C6.21429 17.2006 7.01374 18 8 18C8.98626 18 9.78571 17.2006 9.78571 16.2144V15.9859C9.78571 15.6453 9.82439 15.3165 9.89384 15ZM0.5 7.63158C0.5 3.43576 3.83907 0 8 0C12.1609 0 15.5 3.43576 15.5 7.63158C15.5 9.6827 14.7033 11.5495 13.405 12.9224C12.4398 13.9433 11.7857 14.9532 11.7857 15.9859V16.2144C11.7857 18.3052 10.0908 20 8 20C5.90925 20 4.21429 18.3052 4.21429 16.2144V15.9859C4.21429 14.9532 3.56025 13.9433 2.59496 12.9224C1.29669 11.5495 0.5 9.6827 0.5 7.63158Z" fill="white"/>
</svg>