<svg width="22" height="20" viewBox="0 0 22 20" fill="none" xmlns="http://www.w3.org/2000/svg">
<path fill-rule="evenodd" clip-rule="evenodd" d="M11 6.5C11.5523 6.5 12 6.94772 12 7.5V11.5C12 12.0523 11.5523 12.5 11 12.5C10.4477 12.5 10 12.0523 10 11.5V7.5C10 6.94772 10.4477 6.5 11 6.5Z" fill="#3D3D42"/>
<path d="M12 15C12 15.5523 11.5523 16 11 16C10.4477 16 10 15.5523 10 15C10 14.4477 10.4477 14 11 14C11.5523 14 12 14.4477 12 15Z" fill="#3D3D42"/>
<path fill-rule="evenodd" clip-rule="evenodd" d="M9.69825 0.34297C10.0976 0.118122 10.5482 0 11.0065 0C11.4648 0 11.9154 0.118123 12.3148 0.34297C12.7141 0.567818 13.0488 0.891801 13.2865 1.28366C13.2968 1.30065 13.3066 1.31794 13.3159 1.33552L20.8016 15.5184C21.0276 15.9171 21.1471 16.3674 21.1483 16.826C21.1496 17.2916 21.029 17.7494 20.7984 18.154C20.5678 18.5585 20.2354 18.8956 19.834 19.1317C19.4327 19.3679 18.9766 19.4948 18.511 19.4999L18.5 19.5001L3.48898 19.5C3.02338 19.4949 2.56723 19.3679 2.16593 19.1317C1.76462 18.8956 1.43213 18.5585 1.20155 18.154C0.97097 17.7494 0.85033 17.2916 0.851634 16.826C0.852918 16.3673 0.97249 15.9168 1.19863 15.518L8.69748 1.33488C8.70665 1.31752 8.71634 1.30044 8.72652 1.28366C8.96421 0.891804 9.29888 0.56782 9.69825 0.34297ZM11.0065 2C10.8919 2 10.7793 2.02953 10.6795 2.08574C10.5862 2.13822 10.5071 2.21229 10.4487 2.3016L2.95902 16.4674C2.9532 16.4784 2.94718 16.4893 2.94096 16.5001C2.88275 16.6009 2.85195 16.7152 2.85163 16.8316C2.8513 16.948 2.88146 17.0624 2.93911 17.1636C2.99675 17.2647 3.07987 17.349 3.1802 17.408C3.2793 17.4663 3.39177 17.498 3.50667 17.5H18.4933C18.6082 17.498 18.7207 17.4663 18.8198 17.408C18.9201 17.349 19.0032 17.2647 19.0609 17.1636C19.1185 17.0624 19.1487 16.948 19.1483 16.8316C19.148 16.7152 19.1172 16.6009 19.059 16.5001C19.0554 16.4938 19.0519 16.4875 19.0484 16.4812C19.0458 16.4764 19.0432 16.4716 19.0406 16.4668L11.5642 2.30137C11.5058 2.21216 11.4267 2.13817 11.3336 2.08574C11.2337 2.02953 11.1211 2 11.0065 2Z" fill="#3D3D42"/>
</svg>