<svg xmlns="http://www.w3.org/2000/svg" width="24" height="24" viewBox="0 0 24 24" fill="none">
  <path fill-rule="evenodd" clip-rule="evenodd" d="M12 8.5C12.5523 8.5 13 8.94772 13 9.5V13.5C13 14.0523 12.5523 14.5 12 14.5C11.4477 14.5 11 14.0523 11 13.5V9.5C11 8.94772 11.4477 8.5 12 8.5Z" fill="currentColor"/>
  <path d="M13 17C13 17.5523 12.5523 18 12 18C11.4477 18 11 17.5523 11 17C11 16.4477 11.4477 16 12 16C12.5523 16 13 16.4477 13 17Z" fill="currentColor"/>
  <path fill-rule="evenodd" clip-rule="evenodd" d="M10.6983 2.34297C11.0976 2.11812 11.5482 2 12.0065 2C12.4648 2 12.9154 2.11812 13.3148 2.34297C13.7141 2.56782 14.0488 2.8918 14.2865 3.28366C14.2968 3.30065 14.3066 3.31794 14.3159 3.33552L21.8016 17.5184C22.0276 17.9171 22.1471 18.3674 22.1483 18.826C22.1496 19.2916 22.029 19.7494 21.7984 20.154C21.5678 20.5585 21.2354 20.8956 20.834 21.1317C20.4327 21.3679 19.9766 21.4948 19.511 21.4999L19.5 21.5001L4.48898 21.5C4.02338 21.4949 3.56723 21.3679 3.16593 21.1317C2.76462 20.8956 2.43213 20.5585 2.20155 20.154C1.97097 19.7494 1.85033 19.2916 1.85163 18.826C1.85292 18.3673 1.97249 17.9168 2.19863 17.518L9.69748 3.33488C9.70665 3.31752 9.71634 3.30044 9.72652 3.28366C9.96421 2.8918 10.2989 2.56782 10.6983 2.34297ZM12.0065 4C11.8919 4 11.7793 4.02953 11.6795 4.08574C11.5862 4.13822 11.5071 4.21229 11.4487 4.3016L3.95902 18.4674C3.9532 18.4784 3.94718 18.4893 3.94096 18.5001C3.88275 18.6009 3.85195 18.7152 3.85163 18.8316C3.8513 18.948 3.88146 19.0624 3.93911 19.1636C3.99675 19.2647 4.07987 19.349 4.1802 19.408C4.2793 19.4663 4.39177 19.498 4.50667 19.5H19.4933C19.6082 19.498 19.7207 19.4663 19.8198 19.408C19.9201 19.349 20.0032 19.2647 20.0609 19.1636C20.1185 19.0624 20.1487 18.948 20.1483 18.8316C20.148 18.7152 20.1172 18.6009 20.059 18.5001C20.0554 18.4938 20.0519 18.4875 20.0484 18.4812C20.0458 18.4764 20.0432 18.4716 20.0406 18.4668L12.5642 4.30137C12.5058 4.21216 12.4267 4.13817 12.3336 4.08574C12.2337 4.02953 12.1211 4 12.0065 4Z" fill="currentColor"/>
</svg>