<svg width="20" height="20" viewBox="0 0 20 20" fill="none" xmlns="http://www.w3.org/2000/svg">
<path d="M10.0054 1.66666C9.62345 1.66666 9.24797 1.76509 8.91516 1.95246C8.58235 2.13984 8.30346 2.40983 8.10538 2.73637C8.0969 2.75036 8.08883 2.76459 8.08118 2.77906L1.83214 14.5983C1.64369 14.9307 1.54405 15.3061 1.54298 15.6883C1.54189 16.0763 1.64242 16.4579 1.83457 16.795C2.02673 17.1321 2.3038 17.413 2.63822 17.6098C2.97264 17.8066 3.35276 17.9124 3.74077 17.9167L16.2499 17.9167L16.2591 17.9166C16.6471 17.9123 17.0272 17.8066 17.3617 17.6098C17.6961 17.413 17.9732 17.1321 18.1653 16.795C18.3575 16.4579 18.458 16.0763 18.4569 15.6883C18.4558 15.3062 18.3563 14.9309 18.1679 14.5987L11.9299 2.77959C11.9221 2.76494 11.914 2.75053 11.9054 2.73637C11.7073 2.40982 11.4284 2.13984 11.0956 1.95246C10.7628 1.76509 10.3873 1.66666 10.0054 1.66666Z" fill="#FECB34"/>
<path fill-rule="evenodd" clip-rule="evenodd" d="M10.8333 7.91668C10.8333 7.45644 10.4602 7.08334 9.99996 7.08334C9.53972 7.08334 9.16663 7.45644 9.16663 7.91668V11.25C9.16663 11.7102 9.53972 12.0833 9.99996 12.0833C10.4602 12.0833 10.8333 11.7102 10.8333 11.25V7.91668ZM9.99996 15C10.4602 15 10.8333 14.6269 10.8333 14.1667C10.8333 13.7064 10.4602 13.3333 9.99996 13.3333C9.53972 13.3333 9.16663 13.7064 9.16663 14.1667C9.16663 14.6269 9.53972 15 9.99996 15Z" fill="#3D3D42"/>
</svg>
