<svg xmlns="http://www.w3.org/2000/svg" viewBox="0 0 20 20" fill="none">
  <path d="M10.0054 1.66663C9.62345 1.66663 9.24797 1.76506 8.91516 1.95243C8.58235 2.13981 8.30346 2.4098 8.10538 2.73634C8.0969 2.75033 8.08883 2.76456 8.08118 2.77903L1.83214 14.5983C1.64369 14.9306 1.54405 15.306 1.54298 15.6883C1.54189 16.0763 1.64242 16.4578 1.83457 16.7949C2.02673 17.132 2.3038 17.413 2.63822 17.6097C2.97264 17.8065 3.35276 17.9124 3.74077 17.9166L16.2499 17.9167L16.2591 17.9166C16.6471 17.9123 17.0272 17.8065 17.3617 17.6097C17.6961 17.413 17.9732 17.132 18.1653 16.7949C18.3575 16.4578 18.458 16.0763 18.4569 15.6883C18.4558 15.3062 18.3563 14.9309 18.1679 14.5986L11.9299 2.77956C11.9221 2.76491 11.914 2.7505 11.9054 2.73634C11.7073 2.40979 11.4284 2.13981 11.0956 1.95243C10.7628 1.76506 10.3873 1.66663 10.0054 1.66663Z" fill="#FECB34"/>
  <path fill-rule="evenodd" clip-rule="evenodd" d="M10.8333 7.91671C10.8333 7.45647 10.4602 7.08337 9.99996 7.08337C9.53972 7.08337 9.16663 7.45647 9.16663 7.91671V11.25C9.16663 11.7103 9.53972 12.0834 9.99996 12.0834C10.4602 12.0834 10.8333 11.7103 10.8333 11.25V7.91671ZM9.99996 15C10.4602 15 10.8333 14.6269 10.8333 14.1667C10.8333 13.7065 10.4602 13.3334 9.99996 13.3334C9.53972 13.3334 9.16663 13.7065 9.16663 14.1667C9.16663 14.6269 9.53972 15 9.99996 15Z" fill="#3D3D42"/>
</svg>