<?xml version="1.0" encoding="UTF-8"?>
<svg width="32px" height="39px" viewBox="0 0 32 39" version="1.1" xmlns="http://www.w3.org/2000/svg" xmlns:xlink="http://www.w3.org/1999/xlink">
    <!-- Generator: Sketch 53.2 (72643) - https://sketchapp.com -->
    <title>Drupal</title>
    <desc>Created with Sketch.</desc>
    <g id="Drupal" stroke="none" stroke-width="1" fill="none" fill-rule="evenodd">
        <g id="drupal-8-logo-isolated" transform="translate(0.000000, 1.000000)" fill="#939598" fill-rule="nonzero">
            <path d="M15.0087542,22.3569024 C11.8734007,22.3569024 9.33063973,24.8996633 9.33063973,28.0350168 C9.33063973,31.1703704 11.8734007,33.7131313 15.0087542,33.7131313 C18.1441077,33.7131313 20.6868687,31.1703704 20.6868687,28.0350168 C20.6868687,24.8996633 18.1441077,22.3569024 15.0087542,22.3569024 Z" id="Path"></path>
            <path d="M22.0767677,21.2686869 C23.7575758,23.0249158 24.7919192,25.4060606 24.7919192,28.0350168 C24.7919192,31.3643098 23.1326599,34.2949495 20.6006734,36.0619529 C25.2875421,34.6181818 29.16633,31.0949495 30.9010101,26.8282828 C33.3037037,20.9239057 31.0626263,16.4848485 27.3131313,12.4552189 C27.4316498,12.9723906 27.4962963,13.5218855 27.4962963,14.0713805 C27.4855219,17.4976431 25.2013468,20.3744108 22.0767677,21.2686869 Z" id="Path"></path>
            <path d="M15.6552189,14.0821549 C15.6552189,16.4848485 17.6053872,18.4242424 19.9973064,18.4242424 C22.3892256,18.4242424 24.3501684,16.4740741 24.3501684,14.0821549 C24.3501684,11.6794613 22.4,9.74006734 20.0080808,9.74006734 C17.6161616,9.74006734 15.6552189,11.6794613 15.6552189,14.0821549 Z" id="Path"></path>
            <path d="M7.52053872,34.3380471 C6.08754209,32.6356902 5.22558923,30.4377104 5.22558923,28.0350168 C5.22558923,23.0249158 8.98585859,18.8983165 13.8451178,18.3272727 C13.0154882,17.1205387 12.5198653,15.6552189 12.5198653,14.0821549 C12.5198653,9.94478114 15.8707071,6.6047138 20.0080808,6.6047138 C20.352862,6.6047138 20.6868687,6.62626263 21.010101,6.66936027 C18.5643098,4.55757576 16.1185185,2.41346801 14.189899,0.0754208754 C15.1703704,10.3326599 4.84848485,6.6047138 1.02356902,16.0646465 C-1.52996633,22.4 0.775757576,30.2329966 7.52053872,34.3380471 Z" id="Path"></path>
        </g>
    </g>
</svg>