<?xml version="1.0" encoding="UTF-8"?>
<svg width="32px" height="39px" viewBox="0 0 32 39" version="1.1" xmlns="http://www.w3.org/2000/svg" xmlns:xlink="http://www.w3.org/1999/xlink">
    <!-- Generator: Sketch 53.2 (72643) - https://sketchapp.com -->
    <title>GitLab</title>
    <desc>Created with Sketch.</desc>
    <g id="GitLab" stroke="none" stroke-width="1" fill="none" fill-rule="evenodd">
        <g id="GitLab_Logo" transform="translate(0.000000, 5.000000)" fill="#939598" fill-rule="nonzero">
            <polygon id="Fill-4" points="16.0093562 29.5093333 16.0093562 29.5093333 21.8973562 11.3880381 10.1213562 11.3880381"></polygon>
            <polygon id="Fill-8" points="16.0093562 29.5093029 10.1213562 11.3880076 1.86947048 11.3880076"></polygon>
            <path d="M1.86948571,11.3880533 L1.86948571,11.3880533 L0.0802285714,16.8949486 C-0.0829714286,17.3971962 0.0957714286,17.9474438 0.523047619,18.2578438 L16.0093714,29.5093486 L1.86948571,11.3880533 Z" id="Fill-12"></path>
            <path d="M1.86948571,11.3880686 L10.1213714,11.3880686 L6.57500952,0.473782857 C6.39260952,-0.0878933333 5.59809524,-0.0877409524 5.41569524,0.473782857 L1.86948571,11.3880686 Z" id="Fill-16"></path>
            <polygon id="Fill-18" points="16.0093562 29.5093029 21.8973562 11.3880076 30.1492419 11.3880076"></polygon>
            <path d="M30.1492419,11.3880533 L30.1492419,11.3880533 L31.938499,16.8949486 C32.101699,17.3971962 31.9229562,17.9474438 31.49568,18.2578438 L16.0093562,29.5093486 L30.1492419,11.3880533 Z" id="Fill-20"></path>
            <path d="M30.1492419,11.3880686 L21.8973562,11.3880686 L25.4437181,0.473782857 C25.6261181,-0.0878933333 26.4206324,-0.0877409524 26.6030324,0.473782857 L30.1492419,11.3880686 Z" id="Fill-22"></path>
        </g>
    </g>
</svg>