<svg xmlns="http://www.w3.org/2000/svg" width="24" height="24" viewBox="0 0 24 24" fill="none">
  <path d="M12.9255 21.5565C8.89741 20.3017 5.96725 16.4958 5.96725 12C5.96725 7.50417 8.96046 3.61486 13.0553 2.40182C13.4744 2.27672 13.3631 2 12.8587 2C7.41378 2 3 6.48067 3 12C3 17.5193 7.41378 22 12.8587 22C13.3631 22 13.3854 21.7005 12.9255 21.5603V21.5565Z" fill="#00A4EB"/>
  <path d="M7.83668 14.343C7.81072 14.0738 7.79588 13.8047 7.79588 13.528C7.79588 9.14587 11.275 5.59014 15.5627 5.59014C19.6204 5.59014 20.8369 7.44003 20.989 7.31872C21.1522 7.18605 19.5165 3.5166 14.7541 3.5166C10.4627 3.5166 6.9873 7.06854 6.9873 11.4544C6.9873 12.4704 7.17276 13.437 7.51028 14.324C7.65494 14.6955 7.87377 14.6993 7.83668 14.3392V14.343Z" fill="#00A4EB"/>
  <path d="M11.0896 8.6229C13.1073 7.72449 15.6443 7.69417 18.1368 8.58499C19.8096 9.18014 20.7814 10.0331 20.8593 9.99894C20.9928 9.94208 19.8838 8.14906 17.8883 7.37574C15.47 6.43943 12.8662 6.92843 10.9672 8.44852C10.7595 8.61532 10.8374 8.72904 11.0859 8.61911L11.0896 8.6229Z" fill="#00A4EB"/>
</svg>