<svg xmlns="http://www.w3.org/2000/svg" width="32" height="32" viewBox="0 0 32 32">
    <g fill="currentColor">
        <path d="M15.996 0C7.163 0 0 7.344 0 16.404c0 7.248 4.583 13.397 10.939 15.566.8.152 1.093-.356 1.093-.79 0-.39-.015-1.683-.022-3.053-4.45.992-5.389-1.936-5.389-1.936-.728-1.896-1.776-2.4-1.776-2.4-1.451-1.018.11-.997.11-.997 1.606.115 2.451 1.69 2.451 1.69 1.427 2.508 3.742 1.783 4.655 1.364.144-1.06.558-1.784 1.016-2.194-3.553-.415-7.288-1.821-7.288-8.107 0-1.79.625-3.254 1.648-4.403-.166-.413-.713-2.081.155-4.34 0 0 1.343-.442 4.4 1.68 1.276-.363 2.644-.545 4.004-.551 1.36.006 2.729.188 4.007.552 3.053-2.123 4.394-1.682 4.394-1.682.871 2.26.323 3.928.157 4.341 1.026 1.149 1.646 2.612 1.646 4.403 0 6.3-3.742 7.688-7.303 8.094.573.51 1.084 1.508 1.084 3.038 0 2.195-.018 3.961-.018 4.502 0 .436.288.948 1.099.787 6.352-2.172 10.93-8.319 10.93-15.564C31.991 7.344 24.83 0 15.995 0"/>
        <path d="M5.99 23.368c-.034.081-.16.106-.273.05-.116-.054-.181-.165-.144-.247.035-.083.16-.107.276-.05.116.053.182.165.142.247m.787.72c-.076.072-.226.039-.327-.076-.105-.114-.124-.267-.047-.34.079-.073.224-.04.328.075.105.116.125.268.046.341m.54.921c-.099.07-.259.004-.358-.142-.098-.145-.098-.32.002-.39s.257-.007.358.137c.098.149.098.324-.003.395m.913 1.067c-.087.099-.274.072-.41-.063-.14-.132-.18-.32-.092-.419.09-.1.277-.071.415.063.139.132.181.32.088.419m1.18.36c-.04.129-.22.187-.4.132-.181-.056-.3-.206-.263-.336.037-.13.218-.19.4-.132.181.056.3.205.262.336m1.343.153c.004.135-.15.247-.34.25-.19.004-.345-.105-.347-.238 0-.137.15-.248.341-.251.19-.004.346.104.346.239m1.319-.052c.023.132-.11.268-.298.304-.186.034-.358-.047-.381-.178-.024-.135.111-.27.296-.306.19-.034.359.046.383.18"/>
    </g>
</svg>
