<svg xmlns="http://www.w3.org/2000/svg" width="24" height="24" viewBox="0 0 24 24" fill="none">
  <path d="M11.9613 2C6.46055 2 2 6.45976 2 11.9613C2 16.3626 4.85422 20.0965 8.81219 21.4137C9.31 21.5059 9.49281 21.1976 9.49281 20.9344C9.49281 20.6969 9.48352 19.9122 9.4793 19.0798C6.70797 19.6824 6.1232 17.9045 6.1232 17.9045C5.67008 16.7531 5.01719 16.447 5.01719 16.447C4.11344 15.8287 5.08531 15.8414 5.08531 15.8414C6.08563 15.9117 6.61234 16.868 6.61234 16.868C7.50078 18.3909 8.94266 17.9505 9.51109 17.6961C9.60047 17.0522 9.85867 16.6128 10.1435 16.3641C7.93102 16.1121 5.60508 15.258 5.60508 11.4411C5.60508 10.3536 5.99422 9.46492 6.63148 8.76734C6.52805 8.5164 6.18711 7.50328 6.72797 6.13117C6.72797 6.13117 7.56445 5.86344 9.46805 7.15226C10.2626 6.93148 11.1148 6.82086 11.9613 6.81711C12.8079 6.82086 13.6607 6.93148 14.4568 7.15226C16.3581 5.86344 17.1934 6.13117 17.1934 6.13117C17.7356 7.50328 17.3945 8.5164 17.2911 8.76734C17.9298 9.46492 18.3162 10.3535 18.3162 11.4411C18.3162 15.267 15.9859 16.1095 13.7678 16.3561C14.1251 16.6652 14.4434 17.2715 14.4434 18.2008C14.4434 19.5336 14.4319 20.6063 14.4319 20.9344C14.4319 21.1995 14.6112 21.5102 15.1162 21.4123C19.072 20.0937 21.9226 16.3611 21.9226 11.9613C21.9226 6.45976 17.4627 2 11.9613 2Z" fill="currentColor"/>
  <path d="M5.73086 16.1902C5.70898 16.2396 5.63102 16.2545 5.56016 16.2205C5.48789 16.188 5.44727 16.1205 5.4707 16.0709C5.49219 16.0199 5.57016 16.0057 5.64227 16.0399C5.71469 16.0723 5.75594 16.1405 5.73086 16.1902ZM6.22086 16.6273C6.17336 16.6714 6.08047 16.6509 6.01742 16.5813C5.95227 16.5119 5.94008 16.4191 5.98828 16.3743C6.03727 16.3303 6.12734 16.3509 6.19266 16.4204C6.25781 16.4906 6.27055 16.5828 6.22086 16.6273ZM6.55703 17.1867C6.49594 17.2291 6.39609 17.1894 6.33445 17.1008C6.27344 17.0123 6.27344 16.906 6.33578 16.8634C6.39766 16.8209 6.49594 16.8591 6.55844 16.947C6.61938 17.0371 6.61945 17.1433 6.55703 17.1867ZM7.12547 17.8346C7.07086 17.8948 6.95461 17.8787 6.86945 17.7965C6.78242 17.7162 6.75813 17.6022 6.81289 17.542C6.86813 17.4816 6.98508 17.4986 7.07086 17.5801C7.15734 17.6602 7.18367 17.7751 7.12547 17.8346ZM7.86016 18.0534C7.83617 18.1313 7.72414 18.1668 7.61133 18.1337C7.49867 18.0995 7.42492 18.0081 7.44766 17.9293C7.47109 17.8508 7.58359 17.8138 7.69727 17.8493C7.80977 17.8833 7.88359 17.974 7.86016 18.0534ZM8.69641 18.1461C8.69922 18.2283 8.60352 18.2964 8.48508 18.2979C8.36594 18.3005 8.26961 18.234 8.26836 18.1532C8.26836 18.0702 8.36188 18.0027 8.48094 18.0008C8.59938 17.9984 8.69641 18.0645 8.69641 18.1461ZM9.51781 18.1146C9.53203 18.1948 9.44969 18.2771 9.33211 18.299C9.21648 18.3201 9.10945 18.2706 9.09469 18.1912C9.08031 18.109 9.16422 18.0267 9.27961 18.0054C9.39742 17.9849 9.50281 18.0331 9.51781 18.1146Z" fill="currentColor"/>
</svg>