<svg xmlns="http://www.w3.org/2000/svg" width="24" height="24" viewBox="0 0 24 24" fill="none">
  <path d="M21.8055 10.0415H21V10H12V14H17.6515C16.827 16.3285 14.6115 18 12 18C8.6865 18 6 15.3135 6 12C6 8.6865 8.6865 6 12 6C13.5295 6 14.921 6.577 15.9805 7.5195L18.809 4.691C17.023 3.0265 14.634 2 12 2C6.4775 2 2 6.4775 2 12C2 17.5225 6.4775 22 12 22C17.5225 22 22 17.5225 22 12C22 11.3295 21.931 10.675 21.8055 10.0415Z" fill="#FFC107"/>
  <path d="M3.15282 7.3455L6.43832 9.755C7.32732 7.554 9.4805 6 12 6C13.5295 6 14.921 6.577 15.9805 7.5195L18.809 4.691C17.023 3.0265 14.634 2 12 2C8.159 2 4.82782 4.1685 3.15282 7.3455Z" fill="#FF3D00"/>
  <path d="M12 22C14.583 22 16.9301 21.0115 18.7046 19.404L15.6096 16.785C14.6056 17.5455 13.3575 18 12 18C9.399 18 7.19064 16.3415 6.35864 14.027L3.09764 16.5395C4.75264 19.778 8.1135 22 12 22Z" fill="#4CAF50"/>
  <path d="M21.8055 10.0415H21V10H12V14H17.6515C17.2555 15.1185 16.536 16.083 15.608 16.7855L15.6096 16.785L18.7046 19.404C18.4856 19.603 22 17 22 12C22 11.3295 21.931 10.675 21.8055 10.0415Z" fill="#1976D2"/>
</svg>